<?xml version="1.0" encoding="UTF-8"?>
<svg version="1.1" xmlns="http://www.w3.org/2000/svg" width="500" height="500">
<path d="M0 0 C-0.82838587 12.65430829 -4.29262743 24.33414147 -8.40234375 36.25 C-10.40959936 42.12260907 -12.19215257 48.06366927 -14 54 C-14.65432768 56.1317009 -15.30926795 58.26321386 -15.96484375 60.39453125 C-16.44860474 61.96871826 -16.44860474 61.96871826 -16.94213867 63.57470703 C-22.12207118 80.42441637 -22.12207118 80.42441637 -24.6875 88.625 C-25.0690625 89.84574219 -25.450625 91.06648438 -25.84375 92.32421875 C-26.67095431 94.95394597 -27.50426428 97.58123984 -28.34375 100.20703125 C-29.59480929 104.12857765 -30.80444066 108.06117543 -32 112 C-32.26167969 112.81726563 -32.52335937 113.63453125 -32.79296875 114.4765625 C-35.15186102 122.93057908 -33.80674648 132.53818733 -32 141 C-30.1607598 151.35957581 -28.58953646 161.7405737 -27.19799805 172.16918945 C-26.17160618 179.83030571 -25.06966248 187.47882412 -23.9375 195.125 C-23.77515869 196.22642334 -23.61281738 197.32784668 -23.44555664 198.46264648 C-22.66407388 203.71790965 -21.84437391 208.96206098 -20.94921875 214.19921875 C-18.99260317 225.83779022 -17.85587695 237.63553743 -17.625 249.4375 C-17.59905762 250.1286792 -17.57311523 250.8198584 -17.54638672 251.53198242 C-17.53383732 254.89731384 -17.92874856 256.88102511 -19.66796875 259.78515625 C-22.21875765 262.20776481 -24.49710826 263.53200275 -27.6875 265 C-32.22687705 267.14790036 -36.61797493 269.40923407 -40.96484375 271.921875 C-43 273 -43 273 -45.203125 273.8515625 C-49.22028207 275.50106554 -52.98582423 277.57808403 -56.8125 279.625 C-64.85177838 283.89135415 -72.94684892 288.02119888 -81.10351562 292.05761719 C-83.02589774 293.01286886 -84.9432715 293.97753433 -86.859375 294.9453125 C-87.48287842 295.25960205 -88.10638184 295.5738916 -88.7487793 295.89770508 C-90.43843659 296.74992555 -92.12744725 297.60342772 -93.81640625 298.45703125 C-97.16912464 300.08196839 -100.57469693 301.53536072 -104 303 C-105.75824388 303.85831432 -107.50842244 304.733354 -109.25 305.625 C-121.3422329 311.72435269 -133.61588887 317.51791888 -146 323 C-147.18722656 323.52722656 -148.37445313 324.05445313 -149.59765625 324.59765625 C-150.85643219 325.14921101 -152.11554399 325.69999993 -153.375 326.25 C-154.51710937 326.75015625 -155.65921875 327.2503125 -156.8359375 327.765625 C-159.59219867 328.84090714 -162.08756009 329.54186338 -165 330 C-169.75324686 319.76029267 -173.39789006 309.15000472 -176.828125 298.40625 C-179.11746092 291.34423072 -181.72610212 284.45058345 -184.53808594 277.58227539 C-186.58607121 272.4674493 -187.96032331 267.40934387 -189 262 C-189.66 262 -190.32 262 -191 262 C-190.96132812 263.2684375 -190.92265625 264.536875 -190.8828125 265.84375 C-190.88491234 271.21933923 -191.81559152 276.24589396 -192.875 281.5 C-194.46554188 289.74493496 -195.68735749 297.91819154 -196.5078125 306.2734375 C-197.91304348 316.91304348 -197.91304348 316.91304348 -200 319 C-208.45991863 319.14338845 -214.33478238 315.29080749 -221.30273438 311.02246094 C-223.70005709 309.57827401 -226.15727697 308.25694729 -228.625 306.9375 C-232.44766513 304.87225339 -236.19990513 302.71540967 -239.9375 300.5 C-243.67152871 298.30518923 -247.41457111 296.26182355 -251.3125 294.375 C-260.54475414 289.85010074 -269.40535044 284.61915453 -278.33007812 279.52294922 C-280.59718048 278.22977214 -282.8674785 276.94266413 -285.140625 275.66015625 C-291.90556729 271.83577495 -298.56130284 267.86415851 -305.16015625 263.76171875 C-307.03805188 262.59675186 -308.94227542 261.47309497 -310.87109375 260.39453125 C-311.57363281 259.93433594 -312.27617187 259.47414063 -313 259 C-313 258.34 -313 257.68 -313 257 C-313.9590625 256.690625 -313.9590625 256.690625 -314.9375 256.375 C-317 255 -317 255 -317.703125 252.30859375 C-318.02235665 248.75084097 -317.63097568 246.15667355 -316.8125 242.6875 C-316.53148437 241.47320312 -316.25046875 240.25890625 -315.9609375 239.0078125 C-315.80592773 238.36231445 -315.65091797 237.71681641 -315.49121094 237.05175781 C-314.97340208 234.88890214 -314.4736237 232.72240053 -313.9765625 230.5546875 C-311.36011732 219.22001724 -311.36011732 219.22001724 -309.97265625 214.51953125 C-308.88299481 210.57661978 -308.16696132 206.65619934 -307.5 202.625 C-306.27811777 195.50558057 -304.90718229 188.49969032 -303.09375 181.50390625 C-301.11589968 173.85011211 -299.43344462 166.2429158 -298.15136719 158.44091797 C-297.16858748 152.59378041 -295.83890523 146.86464101 -294.26953125 141.14672852 C-291.67445557 131.01858403 -293.20615865 121.04191292 -294.875 110.875 C-295.04902344 109.75996094 -295.22304688 108.64492188 -295.40234375 107.49609375 C-296.28558505 101.94148732 -297.29361808 96.4540199 -298.5625 90.97509766 C-299.20242962 88.08612969 -299.63767655 85.17735486 -300.0625 82.25 C-300.81163166 77.12371064 -301.73066937 72.09927245 -302.9375 67.0625 C-304.08779303 61.95860724 -304.76528909 56.810627 -305.4375 51.625 C-305.85717763 48.92041084 -306.35427195 46.32892045 -306.96484375 43.66796875 C-308.05273541 38.91209759 -308.8316658 34.134459 -309.5625 29.3125 C-309.813601 27.68356274 -310.06489854 26.05465576 -310.31640625 24.42578125 C-310.49079224 23.28157715 -310.49079224 23.28157715 -310.66870117 22.11425781 C-310.95251019 20.30306687 -311.26624401 18.4966088 -311.5859375 16.69140625 C-312.14240872 13.07434334 -312.06302052 9.65519005 -312 6 C-303.700781 6.79800183 -297.08333162 10.21086987 -289.83203125 14.02734375 C-286.29678647 15.8828614 -282.67675253 17.44064532 -279 19 C-275.6945633 20.5337543 -272.41034342 22.11124766 -269.125 23.6875 C-267.2501445 24.58363571 -265.37514253 25.47946504 -263.5 26.375 C-262.571875 26.8184375 -261.64375 27.261875 -260.6875 27.71875 C-256.83890353 29.55354599 -252.98334807 31.37331581 -249.125 33.1875 C-248.09959106 33.66981079 -248.09959106 33.66981079 -247.0534668 34.16186523 C-243.67024966 35.75132597 -240.28418048 37.33445798 -236.89453125 38.91015625 C-236.22856934 39.21993408 -235.56260742 39.52971191 -234.87646484 39.84887695 C-233.07316688 40.68694958 -231.2690387 41.52323516 -229.46484375 42.359375 C-227.02891033 43.51280458 -224.6169147 44.68621958 -222.2109375 45.8984375 C-218.29978366 47.86600605 -214.34752757 49.73835236 -210.38647461 51.60302734 C-185.85078812 63.16620478 -185.85078812 63.16620478 -182 68 C-181.14095669 70.65233237 -180.48686931 73.09964755 -179.9375 75.8125 C-179.7710498 76.57385254 -179.60459961 77.33520508 -179.43310547 78.11962891 C-178.1819668 83.90328534 -177.04698262 89.7117594 -175.9140625 95.51953125 C-174.46813636 102.74745284 -172.81453317 109.93267748 -171.20068359 117.12451172 C-169.59922082 124.26633285 -168.05515471 131.41229146 -166.640625 138.59375 C-166.07560561 141.23538715 -166.07560561 141.23538715 -164 144 C-163.02110264 135.47266353 -162.67446978 126.96894463 -162.39453125 118.39453125 C-162.35714844 117.36972656 -162.31976563 116.34492188 -162.28125 115.2890625 C-162.25095703 114.36818848 -162.22066406 113.44731445 -162.18945312 112.49853516 C-162 110 -162 110 -161.50708008 108.13183594 C-160.75888699 104.98632699 -160.72825409 101.81934099 -160.60546875 98.6015625 C-160.53668198 97.13797946 -160.46699224 95.67443863 -160.39648438 94.2109375 C-160.28930152 91.91815634 -160.18752643 89.62570312 -160.10131836 87.33203125 C-160.01543871 85.10825066 -159.90607409 82.88660367 -159.79296875 80.6640625 C-159.77300339 79.98574371 -159.75303802 79.30742493 -159.73246765 78.60855103 C-159.45592536 73.70569373 -158.07721869 70.78939808 -155 67 C-151.9609375 65.1640625 -151.9609375 65.1640625 -148.375 63.625 C-147.72909912 63.34100342 -147.08319824 63.05700684 -146.41772461 62.7644043 C-145.02337952 62.15281455 -143.62568909 61.54880659 -142.22509766 60.95166016 C-139.10503262 59.61722813 -136.00648668 58.23581785 -132.90673828 56.85498047 C-131.38739626 56.17933056 -129.86633239 55.50753417 -128.34326172 54.84033203 C-124.09281351 52.97214093 -119.91959086 50.99966056 -115.78466797 48.88745117 C-112.91299081 47.45946944 -109.9550088 46.24421423 -107 45 C-105.68614905 44.41971583 -104.37376816 43.83609713 -103.0625 43.25 C-100.09829879 41.9257864 -97.12727026 40.61900066 -94.1484375 39.328125 C-87.33990038 36.37440967 -80.61589475 33.36809187 -74 30 C-70.97903114 28.65734717 -67.94904432 27.3684934 -64.8671875 26.171875 C-59.03601882 23.90099083 -53.387638 21.32396238 -47.74023438 18.63549805 C-43.71926059 16.74247441 -39.68003968 15.08438407 -35.5 13.5625 C-30.54792999 11.72749982 -26.04153406 9.49003495 -21.4375 6.9375 C-4.66476542 -2.33238271 -4.66476542 -2.33238271 0 0 Z M-73 99 C-73.33 99.99 -73.66 100.98 -74 102 C-75.33333333 102.66666667 -76.66666667 103.33333333 -78 104 C-78.33 104.99 -78.66 105.98 -79 107 C-81.0625 108.1875 -81.0625 108.1875 -83 109 C-83 109.66 -83 110.32 -83 111 C-83.556875 111.226875 -84.11375 111.45375 -84.6875 111.6875 C-87.66159588 113.37550036 -89.72008865 115.46676517 -92 118 C-92 118.66 -92 119.32 -92 120 C-92.639375 120.268125 -93.27875 120.53625 -93.9375 120.8125 C-96.33131686 121.88667752 -96.33131686 121.88667752 -97 125 C-98.32100416 125.69077509 -99.65597313 126.35516358 -101 127 C-102.55574605 128.49349768 -102.55574605 128.49349768 -104 130.3125 C-106.31000383 133.05720914 -108.66488145 135.73392839 -111.12109375 138.34765625 C-111.66701172 138.92926514 -112.21292969 139.51087402 -112.77539062 140.11010742 C-113.87610837 141.27889246 -114.9802385 142.44447399 -116.08789062 143.60668945 C-119.03135852 146.34165839 -119.03135852 146.34165839 -120 150 C-120.57057129 150.24532471 -121.14114258 150.49064941 -121.72900391 150.7434082 C-124.39154978 152.21665306 -126.1903768 153.94794395 -128.3359375 156.10546875 C-129.56183594 157.33426758 -129.56183594 157.33426758 -130.8125 158.58789062 C-131.658125 159.44576172 -132.50375 160.30363281 -133.375 161.1875 C-134.21289062 162.02603516 -135.05078125 162.86457031 -135.9140625 163.72851562 C-139.53729763 167.37738686 -143.09726495 171.03274416 -146.41796875 174.9609375 C-149 178 -149 178 -151.9375 180.4375 C-155.18572314 183.15540099 -157.77838632 186.08581424 -160.484375 189.328125 C-162 191 -162 191 -164 192 C-164 192.66 -164 193.32 -164 194 C-171.52609225 191.94742939 -175.99687159 185.25488814 -180 179 C-184.06966608 173.4599093 -184.06966608 173.4599093 -188.65234375 168.35546875 C-190 167 -190 167 -191 165 C-191.66 165 -192.32 165 -193 165 C-193.25910156 164.43410156 -193.51820313 163.86820312 -193.78515625 163.28515625 C-195.120718 160.77292595 -196.67882623 158.67271763 -198.4375 156.4375 C-199.33275391 155.29087891 -199.33275391 155.29087891 -200.24609375 154.12109375 C-201.75526026 152.29597702 -203.31469891 150.65797188 -205 149 C-206.7029557 147.02840903 -208.34515051 145.01265478 -210 143 C-213.40961072 143.26777048 -214.72041541 143.7038167 -217.10546875 146.23046875 C-217.79253906 147.20628906 -218.47960937 148.18210937 -219.1875 149.1875 C-219.56624268 149.71706299 -219.94498535 150.24662598 -220.33520508 150.79223633 C-221.14609768 151.92887635 -221.9508545 153.06991414 -222.75 154.21484375 C-224.01437481 156.02052902 -225.30045177 157.80868867 -226.59375 159.59375 C-230.69810227 165.27035883 -234.71810129 170.99343595 -238.56640625 176.84765625 C-240.2144943 179.32203368 -241.91550502 181.75517416 -243.625 184.1875 C-244.75010859 185.79159051 -245.87511856 187.3957502 -247 189 C-247.65935547 189.93779297 -247.65935547 189.93779297 -248.33203125 190.89453125 C-250.39623944 193.68707368 -250.39623944 193.68707368 -251 197 C-251.66 197 -252.32 197 -253 197 C-254.82505013 199.40560586 -254.82505013 199.40560586 -256.625 202.375 C-257.25664062 203.37273437 -257.88828125 204.37046875 -258.5390625 205.3984375 C-260.16321318 207.79335831 -260.16321318 207.79335831 -260 210 C-260.66 210 -261.32 210 -262 210 C-263.58838251 212.24329396 -265.0595979 214.47702375 -266.5 216.8125 C-267.30204024 218.08987081 -268.10412215 219.36721545 -268.90625 220.64453125 C-269.5971875 221.75183594 -270.288125 222.85914063 -271 224 C-271.66 224.99 -272.32 225.98 -273 227 C-273 228.32 -273 229.64 -273 231 C-271.27523089 231.95502158 -271.27523089 231.95502158 -269 232 C-265.96830161 229.46183391 -264.25830363 227.77491089 -263 224 C-261.68596724 223.29605388 -260.3479743 222.63654342 -259 222 C-255.27738441 219.35498366 -252.56953254 216.36181619 -249.69140625 212.875 C-247.2110706 210.12543623 -244.40064634 207.82225178 -241.5390625 205.48046875 C-240.77722656 204.74763672 -240.77722656 204.74763672 -240 204 C-240 203.34 -240 202.68 -240 202 C-239.443125 201.773125 -238.88625 201.54625 -238.3125 201.3125 C-235.34144815 199.62622733 -233.35477875 197.469646 -231 195 C-227.74007856 191.64693795 -224.36718569 188.42824245 -220.9375 185.25 C-219.68259766 184.08210938 -219.68259766 184.08210938 -218.40234375 182.890625 C-216.13187878 181.10378752 -214.81663315 180.39029559 -212 180 C-211.31164062 180.99580078 -211.31164062 180.99580078 -210.609375 182.01171875 C-207.52357605 186.45241681 -204.41150262 190.80122755 -201 195 C-200.67 195.66 -200.34 196.32 -200 197 C-199.34 197 -198.68 197 -198 197 C-197.74089844 197.74378906 -197.48179687 198.48757813 -197.21484375 199.25390625 C-195.96157073 202.08686745 -194.68614762 203.70789075 -192.5625 205.9375 C-189.08688463 209.7199715 -185.88759069 213.62708852 -182.75 217.6875 C-178.82221241 222.7470933 -174.79159353 227.69737409 -170.625 232.5625 C-170.13741211 233.13379639 -169.64982422 233.70509277 -169.14746094 234.29370117 C-166.22879191 237.67825397 -163.19789448 240.87769212 -160 244 C-155.4813696 242.64827296 -153.92478171 240.96527529 -151.5625 236.9375 C-150.97082031 235.95265625 -150.37914062 234.9678125 -149.76953125 233.953125 C-149.18558594 232.97859375 -148.60164063 232.0040625 -148 231 C-146.473244 228.70808656 -144.92116377 226.4360721 -143.359375 224.16796875 C-141.9268371 221.96484292 -141.9268371 221.96484292 -140.69140625 219.34765625 C-138.41479027 214.84174426 -135.80242298 210.56608106 -133.1875 206.25 C-132.67896484 205.40695312 -132.17042969 204.56390625 -131.64648438 203.6953125 C-130.61329298 201.9824933 -129.57926652 200.27017755 -128.54443359 198.55834961 C-127.04171954 196.0691083 -125.54526231 193.57622242 -124.05078125 191.08203125 C-120.71736056 185.52360806 -117.3631912 179.97795362 -114 174.4375 C-113.40960938 173.46103516 -112.81921875 172.48457031 -112.2109375 171.47851562 C-109.00839274 166.20560328 -105.70873624 161.02943562 -102.25976562 155.91479492 C-100.77432034 153.65697567 -99.48556268 151.34042873 -98.25 148.9375 C-95.20516368 143.2060434 -91.76569224 137.75770301 -88.25097656 132.30639648 C-85.84485763 128.92356825 -85.84485763 128.92356825 -85 125 C-84.34 125 -83.68 125 -83 125 C-82.7421875 124.27039063 -82.484375 123.54078125 -82.21875 122.7890625 C-80.95553991 119.89825479 -79.44880706 117.84403946 -77.5 115.375 C-73.7123072 110.14625152 -72.59220009 105.3570867 -72 99 C-72.33 99 -72.66 99 -73 99 Z " fill="#3AB5F6" transform="translate(384,168)"/>
<path d="M0 0 C-0.41100591 5.65133124 -1.38171535 11.05388359 -2.6875 16.5625 C-2.85572266 17.275271 -3.02394531 17.98804199 -3.19726562 18.72241211 C-4.25452545 23.11747132 -5.39802536 27.48149301 -6.59765625 31.83984375 C-9.84134499 43.82381663 -11.91170865 54.57374882 -11 67 C-10.09378906 67.30035156 -9.18757812 67.60070312 -8.25390625 67.91015625 C-6.46563609 68.50910868 -4.67920563 69.11410005 -2.90234375 69.74609375 C11.73864176 74.89809064 27.91540566 79.05613075 42.5625 72.375 C55.36491028 64.3153008 58.82159341 48.83088442 62 35 C62.4791076 33.09877936 62.97800347 31.20239514 63.5 29.3125 C63.7165625 28.50425781 63.933125 27.69601563 64.15625 26.86328125 C64.4346875 26.24839844 64.713125 25.63351563 65 25 C72.42787952 22.52404016 83.25467304 29.99184808 90.0859375 33.19140625 C108.50391482 41.85601286 108.50391482 41.85601286 127.76953125 48.28125 C130 49 130 49 132 51 C131.69972883 52.67293936 131.36442233 54.33985384 131 56 C131.33 56.99 131.66 57.98 132 59 C130.68 59 129.36 59 128 59 C127.67 58.34 127.34 57.68 127 57 C126.47535156 57.29132813 125.95070313 57.58265625 125.41015625 57.8828125 C119.1250118 61.20839642 112.71243708 63.62752442 105.97875977 65.85595703 C101.97739165 67.20216873 98.5852738 68.72353723 95 71 C93.57956568 71.64326508 92.14072857 72.24721216 90.6875 72.8125 C89.82769531 73.14894531 88.96789062 73.48539062 88.08203125 73.83203125 C85.74980267 74.71585425 83.41456807 75.58739903 81.07421875 76.44921875 C71.95618661 79.7780817 71.95618661 79.7780817 63.1953125 83.93359375 C59.35682168 85.79819872 55.34953925 87.28415029 51.36499023 88.80664062 C48.65925301 89.85697494 46.12812696 90.92089101 43.65478516 92.44799805 C40.84207294 94.09232502 38.09557894 95.18486776 35.03515625 96.296875 C27.99824166 98.9449953 21.2318074 102.03769458 14.4375 105.25 C11.98537967 106.40058659 9.53172497 107.54788527 7.078125 108.6953125 C6.47542282 108.9776474 5.87272064 109.2599823 5.25175476 109.5508728 C-0.24791087 112.12436153 -5.77301144 114.63859404 -11.3125 117.125 C-12.09890869 117.47852539 -12.88531738 117.83205078 -13.69555664 118.19628906 C-17.09194256 119.71769149 -20.49504952 121.21888954 -23.91796875 122.6796875 C-25.62973454 123.41299148 -27.33437655 124.16718827 -29 125 C-33.57276478 125.34729859 -36.47332782 124.63898684 -40.5625 122.625 C-42.25439453 121.80708984 -42.25439453 121.80708984 -43.98046875 120.97265625 C-44.61130371 120.66215332 -45.24213867 120.35165039 -45.89208984 120.03173828 C-49.13301926 118.44543208 -52.39459436 116.9030121 -55.65405273 115.35522461 C-58.37277106 114.06355897 -61.08874876 112.76624797 -63.8046875 111.46875 C-69.50288504 108.75272793 -75.23044694 106.10271182 -80.96875 103.47265625 C-83.75600671 102.11853798 -86.34765578 100.59590203 -89 99 C-90.81829457 98.32655757 -92.63738565 97.65516773 -94.4609375 96.99609375 C-102.5529068 93.82155195 -110.36268527 89.85043726 -118.10180664 85.90600586 C-124.69742831 82.54492099 -131.2700194 79.64353788 -138.23046875 77.0859375 C-141.74582814 75.70755963 -144.76548264 73.94071042 -148 72 C-149.69333025 71.26785963 -151.3873191 70.53712044 -153.08740234 69.82080078 C-156.22875569 68.47267339 -159.30370198 66.99963166 -162.375 65.5 C-163.00277344 65.20480469 -163.63054687 64.90960938 -164.27734375 64.60546875 C-165.89165998 63.81400053 -167.45139816 62.91338446 -169 62 C-169.495 60.515 -169.495 60.515 -170 59 C-164.36509826 50.00636373 -151.1418854 48.39921759 -141.46459961 45.80908203 C-136.53513928 44.47651075 -131.84543966 42.89878387 -127.140625 40.8984375 C-122.57906579 38.98391447 -117.84579559 37.55124436 -113.109375 36.13671875 C-106.91491676 34.28295846 -100.84975103 32.24402495 -94.8125 29.9375 C-89.78415764 28.01642747 -84.76579579 26.24692908 -79.58984375 24.765625 C-74.38852284 23.2279796 -69.26412594 21.44286347 -64.12402344 19.71337891 C-60.29338756 18.42681362 -56.45890881 17.15177151 -52.625 15.875 C-51.17967143 15.39327739 -49.73435852 14.91150778 -48.2890625 14.4296875 C-47.58821533 14.19628662 -46.88736816 13.96288574 -46.1652832 13.72241211 C-44.66590551 13.22216872 -43.16708055 12.72026676 -41.66870117 12.21704102 C-37.48286638 10.81359897 -33.29112447 9.45782752 -29.0625 8.1875 C-25.12037655 6.98995186 -21.20362867 5.74052224 -17.3046875 4.41015625 C-16.49894287 4.13598877 -15.69319824 3.86182129 -14.86303711 3.5793457 C-13.2708989 3.03495783 -11.68049136 2.48547642 -10.09204102 1.93041992 C-8.99267212 1.55494019 -8.99267212 1.55494019 -7.87109375 1.171875 C-7.22068115 0.9459668 -6.57026855 0.72005859 -5.90014648 0.48730469 C-4 0 -4 0 0 0 Z " fill="#3AB6F6" transform="translate(250,95)"/>
<path d="M0 0 C0.85625977 0.21881836 1.71251953 0.43763672 2.59472656 0.66308594 C7.35996303 1.88270431 12.114401 3.13881843 16.86279297 4.42236328 C20.072952 5.28999365 23.2866557 6.14425376 26.5 7 C27.69496094 7.3196875 28.88992188 7.639375 30.12109375 7.96875 C33.77781852 8.94413061 37.43939803 9.90049833 41.1015625 10.85522461 C43.52932046 11.49130683 45.95418123 12.13762194 48.37890625 12.78515625 C51.31528024 13.56733448 54.25609805 14.30368118 57.21484375 14.99609375 C58.46394531 15.30675781 59.71304688 15.61742188 61 15.9375 C62.093125 16.19402344 63.18625 16.45054688 64.3125 16.71484375 C67 18 67 18 69.0390625 20.5078125 C70.43028342 25.56371292 69.03452819 29.07745315 67.375 33.9375 C67.10042969 34.80568359 66.82585937 35.67386719 66.54296875 36.56835938 C64.95241572 41.50803464 63.12504023 46.26695586 61 51 C55.74942577 51.28128076 52.20515065 50.9280781 47.27734375 48.859375 C43.55840701 47.45600265 39.6989014 46.64312654 35.83203125 45.74609375 C33 45 33 45 30.71875 44.046875 C26.80447896 42.53965569 22.7744966 41.72950798 18.6875 40.8125 C9.47858129 38.70229267 0.44654529 36.16422401 -8.5637207 33.32348633 C-20.84966626 29.47991633 -20.84966626 29.47991633 -33 32 C-34.3866155 34.19996969 -34.3866155 34.19996969 -35.1875 36.8125 C-35.49042969 37.66457031 -35.79335938 38.51664063 -36.10546875 39.39453125 C-36.40066406 40.25433594 -36.69585937 41.11414062 -37 42 C-37.32613281 42.74636719 -37.65226562 43.49273437 -37.98828125 44.26171875 C-39.10559568 47.28580142 -39.75188323 50.26350767 -40.41943359 53.41210938 C-41.53914254 58.40324263 -42.95700774 63.31876835 -44.3125 68.25 C-46.58261707 76.57415619 -48.74030681 84.90690966 -50.6875 93.3125 C-52.22886773 99.94770334 -53.94771676 106.45775149 -56.02734375 112.94921875 C-58.3356535 120.1893389 -60.53254983 127.4900566 -62.0625 134.9375 C-62.37463231 136.29175147 -62.68710602 137.64592431 -63 139 C-63.268125 140.258125 -63.53625 141.51625 -63.8125 142.8125 C-66.89228455 147.30018605 -70.14078333 148.06007456 -75.30078125 149.41796875 C-82.95891408 150.62289144 -90.46997369 149.615584 -98 148 C-99.74667782 141.00313362 -97.93888576 134.94587154 -96.25 128.0625 C-95.98445313 126.92103516 -95.71890625 125.77957031 -95.4453125 124.60351562 C-94.30606988 119.81703754 -93.14483095 115.12667842 -91.36328125 110.53515625 C-90.15778728 107.40916185 -89.43807499 104.67004703 -88.9375 101.375 C-88.50113073 98.54067773 -87.98944126 95.96837981 -87.07983398 93.24438477 C-85.99282101 89.97843058 -85.07637483 86.70601966 -84.1953125 83.37890625 C-83.85886719 82.11240234 -83.52242188 80.84589844 -83.17578125 79.54101562 C-82.82546341 78.21485892 -82.47520312 76.88868701 -82.125 75.5625 C-81.78272817 74.27143768 -81.44028144 72.98042172 -81.09765625 71.68945312 C-80.41036052 69.09899948 -79.72391723 66.50832219 -79.03808594 63.91748047 C-77.36745072 57.60932434 -75.68567106 51.30415423 -74 45 C-73.64446045 43.66980835 -73.64446045 43.66980835 -73.28173828 42.31274414 C-70.88583442 33.39403409 -68.39236424 24.60409701 -65 16 C-64.34 16 -63.68 16 -63 16 C-62.79375 15.319375 -62.5875 14.63875 -62.375 13.9375 C-58.90042667 6.51454788 -52.99849752 1.98878097 -46 -2 C-45.40832031 -2.34289062 -44.81664062 -2.68578125 -44.20703125 -3.0390625 C-30.77507633 -9.38440103 -13.41702821 -3.48239183 0 0 Z " fill="#3AB6F6" transform="translate(354,7)"/>
<path d="M0 0 C1.98 0 3.96 0 6 0 C13.32900823 18.43295768 13.32900823 18.43295768 15.1796875 25.28515625 C15.86736101 27.56102809 16.64789972 29.72038413 17.5078125 31.93359375 C20.57864498 40.03341875 22.5743141 47.411321 22.625 56.125 C22.6355542 56.89384521 22.6461084 57.66269043 22.65698242 58.45483398 C22.4908335 65.17178851 20.40913773 70.65263504 15.5625 75.375 C10.45939644 78.61111445 6.07386693 79.75325515 0 79 C-6.40965948 76.73776724 -9.32310754 72.51533868 -13 67 C-13.45815339 63.893027 -13.38076082 60.76234051 -13.375 57.625 C-13.37338867 56.7268457 -13.37177734 55.82869141 -13.37011719 54.90332031 C-13.18916435 45.0076838 -10.66545128 36.74592436 -6.00390625 28.0078125 C-2.06445442 20.12890883 0.03290236 11.53899204 2 3 C1.34 3 0.68 3 0 3 C0 2.01 0 1.02 0 0 Z " fill="#3BB6F5" transform="translate(409,62)"/>
<path d="M0 0 C1.35581285 0.38649502 2.71193108 0.77192048 4.06835938 1.15625 C7.36122192 2.09371976 10.65060257 3.04186573 13.9375 4 C13.9375 4.66 13.9375 5.32 13.9375 6 C6.25785976 5.27120852 -0.90255751 3.26168704 -8.31054688 1.171875 C-14.90040896 -0.62176324 -21.24341538 -1.61286489 -28.0625 -2 C-19.13795404 -6.94640208 -9.09265151 -2.65485379 0 0 Z " fill="#3FC6F6" transform="translate(349.0625,38)"/>
<path d="M0 0 C0.66 0 1.32 0 2 0 C2.21165026 8.07798485 2.06123868 15.97090946 1.125 24 C1.04652832 24.69279053 0.96805664 25.38558105 0.88720703 26.09936523 C0.32452206 30.57978483 -0.66851377 34.70343938 -2 39 C-3.23960546 36.52078909 -2.93801938 35.38401026 -2.59375 32.65234375 C-1.79704158 25.55219064 -1.62572181 18.44357875 -1.39453125 11.30664062 C-1.35714844 10.27861328 -1.31976563 9.25058594 -1.28125 8.19140625 C-1.25095703 7.26529541 -1.22066406 6.33918457 -1.18945312 5.38500977 C-1 3 -1 3 0 0 Z " fill="#318EC9" transform="translate(223,275)"/>
<path d="M0 0 C0.66 0 1.32 0 2 0 C2.82340988 4.0812095 3.63165748 8.1652886 4.4375 12.25 C4.78264648 13.95929688 4.78264648 13.95929688 5.13476562 15.703125 C6.5904881 23.12941935 7.54614886 30.44557449 8 38 C7.34 38 6.68 38 6 38 C4.50569692 31.70257988 3.40072589 25.41984328 2.46484375 19.015625 C2.1789221 17.16073831 1.85718719 15.31044859 1.4765625 13.47265625 C0.94448556 10.71196194 0.67372626 7.98846854 0.4375 5.1875 C0.35371094 4.21167969 0.26992187 3.23585937 0.18359375 2.23046875 C0.12300781 1.49441406 0.06242187 0.75835937 0 0 Z " fill="#3FC2F2" transform="translate(81,228)"/>
<path d="M0 0 C-1 3 -1 3 -4.24609375 4.8671875 C-5.63816428 5.54693043 -7.03567605 6.21560601 -8.4375 6.875 C-9.9051294 7.58165445 -11.37257769 8.28868517 -12.83984375 8.99609375 C-13.5551123 9.33753418 -14.27038086 9.67897461 -15.00732422 10.03076172 C-17.54260423 11.26392291 -20.01621367 12.60426258 -22.5 13.9375 C-26.71241164 16.06512486 -30.30127552 16.73895975 -35 17 C-32.3279728 14.3279728 -29.16672741 12.95776231 -25.8125 11.3125 C-24.75458252 10.78946289 -24.75458252 10.78946289 -23.67529297 10.25585938 C-18.67801178 7.79668563 -13.6613836 5.37803442 -8.625 3 C-7.98925049 2.69747314 -7.35350098 2.39494629 -6.69848633 2.08325195 C-2.23716534 0 -2.23716534 0 0 0 Z " fill="#3EC9F7" transform="translate(318,450)"/>
<path d="M0 0 C1.32 0 2.64 0 4 0 C3.29006734 9.76157408 1.09515288 19.71454135 -2 29 C-2.66 29 -3.32 29 -4 29 C-3.35343144 20.10968231 -1.12977433 11.62806252 1 3 C-0.98 3.33 -2.96 3.66 -5 4 C-2 2 -2 2 0 2 C0 1.34 0 0.68 0 0 Z " fill="#3EC5F2" transform="translate(246,95)"/>
<path d="M0 0 C1.89825285 0.42687983 3.79353183 0.86699482 5.6875 1.3125 C6.74324219 1.55613281 7.79898437 1.79976562 8.88671875 2.05078125 C11.97575628 2.99260825 14.31817964 4.22372937 17 6 C16.814375 6.763125 16.62875 7.52625 16.4375 8.3125 C15.77180827 11.08967375 15.77180827 11.08967375 17 14 C15.68 14 14.36 14 13 14 C13 13.01 13 12.02 13 11 C12.34 11 11.68 11 11 11 C10.67 10.01 10.34 9.02 10 8 C6.88332834 5.14305098 3.99415824 3.36942568 0 2 C0 1.34 0 0.68 0 0 Z " fill="#3599DA" transform="translate(365,140)"/>
<path d="M0 0 C5.0747107 1.55060605 9.83574349 3.29275578 14.5390625 5.75 C17.98691072 7.50128798 21.49293232 9.12128012 25 10.75 C25.68400879 11.06807617 26.36801758 11.38615234 27.07275391 11.71386719 C28.71474342 12.47682862 30.35731121 13.2385453 32 14 C32 14.33 32 14.66 32 15 C27.98054727 15.25256884 25.4276591 14.54798997 21.8125 12.8125 C20.85730469 12.35875 19.90210937 11.905 18.91796875 11.4375 C15.36289722 9.68613946 11.81469356 7.92326241 8.2890625 6.11328125 C5.96719318 4.92986641 5.96719318 4.92986641 3.2734375 4.04296875 C2.52320312 3.69878906 1.77296875 3.35460937 1 3 C0.67 2.01 0.34 1.02 0 0 Z " fill="#3BC4F4" transform="translate(96,162)"/>
<path d="M0 0 C0.66 0 1.32 0 2 0 C2.6781037 3.66464553 3.34038144 7.33198596 4 11 C4.19078125 12.02996094 4.3815625 13.05992187 4.578125 14.12109375 C5.59502303 19.82298626 6.42916058 25.20633214 6 31 C5.34 31.66 4.68 32.32 4 33 C3.32612402 28.62607891 2.66217242 24.25070694 2 19.875 C1.80921875 18.6375 1.6184375 17.4 1.421875 16.125 C1.24140625 14.92617188 1.0609375 13.72734375 0.875 12.4921875 C0.70742188 11.39245605 0.53984375 10.29272461 0.3671875 9.15966797 C0.00856248 6.07368058 -0.06542193 3.10345276 0 0 Z " fill="#3EC3F2" transform="translate(353,332)"/>
<path d="M0 0 C-7.88723867 4.5462987 -15.57449081 8.15739291 -24.19921875 11.0546875 C-26.9124518 11.89885206 -26.9124518 11.89885206 -29 13 C-29.66 12.34 -30.32 11.68 -31 11 C-24.72135431 8.19909257 -18.43776011 5.41074904 -12.125 2.6875 C-11.28453125 2.31560547 -10.4440625 1.94371094 -9.578125 1.56054688 C-8.77117187 1.21443359 -7.96421875 0.86832031 -7.1328125 0.51171875 C-6.40980957 0.19678467 -5.68680664 -0.11814941 -4.94189453 -0.44262695 C-3 -1 -3 -1 0 0 Z " fill="#3DC4F4" transform="translate(346,164)"/>
<path d="M0 0 C1.48240887 2.35056553 2.05863661 3.55239018 1.69213867 6.35009766 C1.4366626 7.19620605 1.18118652 8.04231445 0.91796875 8.9140625 C0.64533203 9.83960938 0.37269531 10.76515625 0.09179688 11.71875 C-0.20662109 12.6778125 -0.50503906 13.636875 -0.8125 14.625 C-1.09931641 15.59179688 -1.38613281 16.55859375 -1.68164062 17.5546875 C-3.78074641 24.56149281 -3.78074641 24.56149281 -5 27 C-5.66 27 -6.32 27 -7 27 C-7.33 27.66 -7.66 28.32 -8 29 C-6.71027212 18.90454382 -3.34358952 9.5576191 0 0 Z " fill="#3CC7F6" transform="translate(358,250)"/>
<path d="M0 0 C0.33 0 0.66 0 1 0 C0.88398437 1.00160156 0.76796875 2.00320313 0.6484375 3.03515625 C0.31287764 7.19829381 0.28470061 10.8614821 1 15 C3.88271883 18.32139343 7.11102846 20.0427635 11 22 C11.66 22.66 12.32 23.32 13 24 C9.36029133 24.42820102 7.95430537 23.97413512 4.6875 22.125 C3.800625 21.42375 2.91375 20.7225 2 20 C2 19.34 2 18.68 2 18 C1.0409375 17.690625 1.0409375 17.690625 0.0625 17.375 C-2 16 -2 16 -2.8125 13.3125 C-3.01553833 9.72548953 -2.63529265 6.52940362 -2 3 C-1.34 3 -0.68 3 0 3 C0 2.01 0 1.02 0 0 Z " fill="#3FC3F2" transform="translate(69,407)"/>
<path d="M0 0 C3.81461041 6.20064162 2.6170146 14.72589943 1.32421875 21.5859375 C0.61508654 24.41574469 -0.14215416 27.21200102 -1 30 C-1.66 29.34 -2.32 28.68 -3 28 C-2.72497719 24.58971713 -2.40439504 21.40229071 -1.45703125 18.1171875 C-0.86401621 15.370058 -0.94385518 12.80724095 -1 10 C-1.07085731 6.45713464 -1.04583593 3.39896677 0 0 Z " fill="#3DC0EC" transform="translate(92,287)"/>
<path d="M0 0 C3.35756825 1.4214992 5.17540544 3.08800305 7.453125 5.9140625 C8.071875 6.67460937 8.690625 7.43515625 9.328125 8.21875 C9.96234375 9.0128125 10.5965625 9.806875 11.25 10.625 C11.8996875 11.42679687 12.549375 12.22859375 13.21875 13.0546875 C14.81894703 15.03140148 16.41234443 17.01320959 18 19 C17.34 19.99 16.68 20.98 16 22 C15.26394531 21.05898438 14.52789062 20.11796875 13.76953125 19.1484375 C12.78390233 17.89058726 11.79822253 16.63277689 10.8125 15.375 C10.32974609 14.75753906 9.84699219 14.14007813 9.34960938 13.50390625 C6.99839997 10.50571976 4.62409428 7.55064644 2.13671875 4.6640625 C0 2 0 2 0 0 Z " fill="#3FC3F5" transform="translate(192,376)"/>
<path d="M0 0 C0.66 0 1.32 0 2 0 C0.19488507 3.73119118 -1.83175075 7.33332985 -3.875 10.9375 C-4.21402344 11.54529297 -4.55304688 12.15308594 -4.90234375 12.77929688 C-6.99232584 16.4625923 -9.26489878 19.76816515 -12 23 C-12.31699262 18.89350469 -11.66280323 16.93364601 -9.25 13.625 C-7.26909887 10.82650996 -5.40533583 8.0659313 -3.75 5.0625 C-2 2 -2 2 0 0 Z " fill="#3CC2F2" transform="translate(283,321)"/>
<path d="M0 0 C0.33 0 0.66 0 1 0 C1.63062482 10.30020546 -2.2100512 16.73667502 -8 25 C-8.66 24.34 -9.32 23.68 -10 23 C-9.59007812 22.45472656 -9.18015625 21.90945313 -8.7578125 21.34765625 C-5.38247162 16.62379402 -3.35015965 12.74684856 -2.3671875 7.01953125 C-1.91302047 4.52161256 -1.04245871 2.30830142 0 0 Z " fill="#3EC3F4" transform="translate(313,264)"/>
<path d="M0 0 C5.03564599 1.52019502 9.57366021 3.63613593 14.25 6 C15.32894531 6.53367188 15.32894531 6.53367188 16.4296875 7.078125 C21.74647556 9.74647556 21.74647556 9.74647556 24 12 C18.82553746 11.5914898 14.98834362 9.63737701 10.4765625 7.265625 C8.32250051 6.16481099 6.19045807 5.24651465 3.9375 4.375 C2.968125 3.92125 1.99875 3.4675 1 3 C0.67 2.01 0.34 1.02 0 0 Z " fill="#3BCEF7" transform="translate(172,197)"/>
<path d="M0 0 C4.88905081 -0.33516593 7.77227143 0.56104446 12.0625 2.875 C16.33816482 5.15910784 16.33816482 5.15910784 20.80859375 7.0078125 C21.53175781 7.33523437 22.25492188 7.66265625 23 8 C23.33 8.99 23.66 9.98 24 11 C15.59806226 8.49415892 7.88058561 4.78974143 0 1 C0 0.67 0 0.34 0 0 Z " fill="#3EC2F2" transform="translate(108,191)"/>
<path d="M0 0 C0.33 0 0.66 0 1 0 C1.391875 1.19625 1.78375 2.3925 2.1875 3.625 C4.01803193 9.14299769 6.01519537 14.59907405 8.01171875 20.05859375 C9 23 9 23 9 25 C8.01 24.67 7.02 24.34 6 24 C4.80915428 21.26579452 3.80820394 18.63321442 2.875 15.8125 C2.61074219 15.05646484 2.34648437 14.30042969 2.07421875 13.52148438 C0.66055958 9.38455792 -0.55124385 5.37197276 -1 1 C-0.67 0.67 -0.34 0.34 0 0 Z " fill="#3CC3F2" transform="translate(195,425)"/>
<path d="M0 0 C0.96229898 3.06605982 0.98765741 5.13153871 0.29296875 8.2578125 C0.11830078 9.04800781 -0.05636719 9.83820313 -0.23632812 10.65234375 C-0.5215332 11.87630859 -0.5215332 11.87630859 -0.8125 13.125 C-0.99103516 13.94871094 -1.16957031 14.77242188 -1.35351562 15.62109375 C-2.74069114 21.74069114 -2.74069114 21.74069114 -5 24 C-4.41523944 16.90593106 -3.36766005 9.98436101 -2 3 C-1.34 3 -0.68 3 0 3 C0 2.01 0 1.02 0 0 Z " fill="#3EC6F3" transform="translate(79,365)"/>
<path d="M0 0 C0.53367188 0.19335938 1.06734375 0.38671875 1.6171875 0.5859375 C6.72003886 2.36928694 11.69400407 3.60782473 17.03125 4.47265625 C17.6809375 4.64667969 18.330625 4.82070312 19 5 C19.33 5.66 19.66 6.32 20 7 C17.03497454 8.48251273 15.33856155 8.35770302 12 8 C2.93184979 4.39777469 2.93184979 4.39777469 0 0 Z " fill="#3EC5F5" transform="translate(203,212)"/>
<path d="M0 0 C-0.66 0 -1.32 0 -2 0 C-2 0.66 -2 1.32 -2 2 C-9.54036387 4.11659337 -15.48647597 4.93210694 -23 2 C-23 1.67 -23 1.34 -23 1 C-21.80761719 0.93941406 -20.61523438 0.87882813 -19.38671875 0.81640625 C-17.82030075 0.73198851 -16.25389512 0.64734113 -14.6875 0.5625 C-13.90181641 0.52318359 -13.11613281 0.48386719 -12.30664062 0.44335938 C-11.54931641 0.40146484 -10.79199219 0.35957031 -10.01171875 0.31640625 C-9.31522217 0.27974854 -8.61872559 0.24309082 -7.90112305 0.20532227 C-1.46828322 -0.48942774 -1.46828322 -0.48942774 0 0 Z " fill="#40C6F5" transform="translate(285,153)"/>
<path d="M0 0 C0.66 0.99 1.32 1.98 2 3 C1.34 3 0.68 3 0 3 C-0.268125 3.639375 -0.53625 4.27875 -0.8125 4.9375 C-2 7 -2 7 -5 8 C-6.20882096 10.00016466 -6.20882096 10.00016466 -7 12 C-7.66 12 -8.32 12 -9 12 C-9 12.66 -9 13.32 -9 14 C-9.99 14 -10.98 14 -12 14 C-10.74077737 10.22233212 -8.87549668 8.74769682 -6 6 C-4.89323836 4.89843442 -3.78905327 3.7942739 -2.6875 2.6875 C-1.800625 1.800625 -0.91375 0.91375 0 0 Z " fill="#41C9F8" transform="translate(238,339)"/>
<path d="M0 0 C5.99932374 1.8331267 11.44920563 4.07321751 17 7 C16.67 7.99 16.34 8.98 16 10 C15.01 9.401875 14.02 8.80375 13 8.1875 C10.26964103 6.60500623 7.61151267 5.45097361 4.625 4.4375 C3.42875 3.963125 2.2325 3.48875 1 3 C0.67 2.01 0.34 1.02 0 0 Z " fill="#3DC9F5" transform="translate(152,188)"/>
<path d="M0 0 C0.66 0 1.32 0 2 0 C3.10941367 5.32867983 3.11548069 10.46281855 3.0625 15.875 C3.05798828 16.75414062 3.05347656 17.63328125 3.04882812 18.5390625 C3.03712337 20.69273803 3.01919069 22.84637817 3 25 C2.67 25 2.34 25 2 25 C1.66178803 22.14633646 1.3293022 19.29219404 1 16.4375 C0.90460938 15.63763672 0.80921875 14.83777344 0.7109375 14.01367188 C0.17285824 9.30547833 -0.10176703 4.73852735 0 0 Z " fill="#42C9F6" transform="translate(362,394)"/>
<path d="M0 0 C0.66 0.99 1.32 1.98 2 3 C1.01 3.33 0.02 3.66 -1 4 C-1.84297732 5.93632307 -1.84297732 5.93632307 -2.375 8.25 C-3.73150877 12.7982941 -5.39009865 14.97548806 -9 18 C-9 14.81579155 -8.63765561 14.03619037 -7.03125 11.42578125 C-6.42216797 10.42514648 -6.42216797 10.42514648 -5.80078125 9.40429688 C-5.15689453 8.36885742 -5.15689453 8.36885742 -4.5 7.3125 C-4.07074219 6.61060547 -3.64148438 5.90871094 -3.19921875 5.18554688 C-2.13872072 3.45340009 -1.07012602 1.72621518 0 0 Z " fill="#37BDEC" transform="translate(267,346)"/>
<path d="M0 0 C0.33 0.99 0.66 1.98 1 3 C-0.52699572 5.37171676 -2.05835234 7.49659568 -3.8125 9.6875 C-4.50956055 10.59725586 -4.50956055 10.59725586 -5.22070312 11.52539062 C-6.42530665 13.06182181 -7.70772733 14.53653774 -9 16 C-9.66 16 -10.32 16 -11 16 C-9.55049595 11.64352355 -7.32252888 8.68242711 -4.375 5.1875 C-3.55773437 4.21167969 -2.74046875 3.23585938 -1.8984375 2.23046875 C-1.27195313 1.49441406 -0.64546875 0.75835937 0 0 Z " fill="#3FC4F3" transform="translate(169,309)"/>
<path d="M0 0 C-1.32 0.33 -2.64 0.66 -4 1 C-4 1.66 -4 2.32 -4 3 C-4.94875 3.4125 -5.8975 3.825 -6.875 4.25 C-10.00716624 6.0040131 -10.86500606 6.70851757 -12 10 C-12.99 9.67 -13.98 9.34 -15 9 C-12.72785326 2.83274457 -12.72785326 2.83274457 -9.16015625 1.11328125 C-8.12181641 0.71689453 -8.12181641 0.71689453 -7.0625 0.3125 C-6.02802734 -0.09548828 -6.02802734 -0.09548828 -4.97265625 -0.51171875 C-3 -1 -3 -1 0 0 Z " fill="#37B9E7" transform="translate(95,147)"/>
<path d="M0 0 C5.69305433 1.23876645 11.35370013 2.56276003 17 4 C17 4.66 17 5.32 17 6 C10.33499135 6.59244521 5.13047025 4.48322845 -1 2 C-0.67 1.34 -0.34 0.68 0 0 Z " fill="#3BC2F0" transform="translate(397,52)"/>
<path d="M0 0 C0.33 0 0.66 0 1 0 C1.02710123 2.5625718 1.04688771 5.12485365 1.0625 7.6875 C1.07087891 8.40873047 1.07925781 9.12996094 1.08789062 9.87304688 C1.10543632 13.71555382 0.93524221 17.26639526 0 21 C-2.52149228 17.21776157 -2.07652331 15.5292375 -1.6875 11.0625 C-1.58824219 9.83660156 -1.48898438 8.61070312 -1.38671875 7.34765625 C-1.0906863 4.78503195 -0.72289333 2.4652516 0 0 Z " fill="#3FC2F3" transform="translate(187,456)"/>
<path d="M0 0 C0.99 0.33 1.98 0.66 3 1 C0.72039827 6.2790777 -1.73297118 9.69318847 -7.1875 11.875 C-8.0846875 11.936875 -8.0846875 11.936875 -9 12 C-9.66 11.34 -10.32 10.68 -11 10 C-10.45730469 9.69707031 -9.91460937 9.39414063 -9.35546875 9.08203125 C-5.06013842 6.56674772 -2.14164676 4.68485228 0 0 Z " fill="#3AC6F7" transform="translate(427,128)"/>
<path d="M0 0 C0.33 1.32 0.66 2.64 1 4 C-3.42695105 7.89035092 -7.93354251 10.80426867 -13.9375 11.1875 C-14.618125 11.125625 -15.29875 11.06375 -16 11 C-12.34325514 8.07460411 -8.47197596 6.23925297 -4.2421875 4.28125 C-1.71699765 3.05997787 -1.71699765 3.05997787 0 0 Z " fill="#3DC3F5" transform="translate(363,424)"/>
<path d="M0 0 C6.96050253 0.38669459 11.9394075 2.63438409 18 6 C18 6.66 18 7.32 18 8 C14.30725487 7.18850786 10.84630438 5.89608575 7.3125 4.5625 C6.15363281 4.13066406 4.99476563 3.69882813 3.80078125 3.25390625 C1 2 1 2 0 0 Z " fill="#3FC6F5" transform="translate(323,123)"/>
<path d="M0 0 C6.19518473 0.41588046 11.26689311 1.60251894 17 4 C17 4.66 17 5.32 17 6 C11.30694567 4.76123355 5.64629987 3.43723997 0 2 C0 1.34 0 0.68 0 0 Z " fill="#3CC8F3" transform="translate(395,19)"/>
<path d="M0 0 C0.66 0 1.32 0 2 0 C0.62712658 3.69876091 -1.06355453 6.9514476 -3.125 10.3125 C-3.66382812 11.19550781 -4.20265625 12.07851563 -4.7578125 12.98828125 C-5.16773437 13.65214844 -5.57765625 14.31601562 -6 15 C-6.99 14.67 -7.98 14.34 -9 14 C-7.06797668 10.67262651 -5.02298317 7.42025387 -2.9375 4.1875 C-2.43089844 3.39730469 -1.92429687 2.60710937 -1.40234375 1.79296875 C-0.93957031 1.20128906 -0.47679688 0.60960937 0 0 Z " fill="#3FC6F5" transform="translate(121,376)"/>
<path d="M0 0 C0.73828125 1.640625 0.73828125 1.640625 1 4 C-0.58203125 6.796875 -0.58203125 6.796875 -2.8125 9.75 C-3.90498047 11.22726562 -3.90498047 11.22726562 -5.01953125 12.734375 C-5.67308594 13.48203125 -6.32664063 14.2296875 -7 15 C-7.66 15 -8.32 15 -9 15 C-8.39889717 10.99264783 -6.33397972 8.44530629 -3.9375 5.25 C-2.83728516 3.77273438 -2.83728516 3.77273438 -1.71484375 2.265625 C-1.14894531 1.51796875 -0.58304688 0.7703125 0 0 Z " fill="#3EC6F5" transform="translate(149,336)"/>
<path d="M0 0 C0.33 0 0.66 0 1 0 C1 1.65 1 3.3 1 5 C1.66 5 2.32 5 3 5 C3.66 9.62 4.32 14.24 5 19 C4.01 19.33 3.02 19.66 2 20 C1.66131223 17.79248152 1.32928311 15.58394089 1 13.375 C0.814375 12.14523437 0.62875 10.91546875 0.4375 9.6484375 C0.04597484 6.3833973 -0.08080924 3.28287549 0 0 Z " fill="#3CC8F4" transform="translate(350,310)"/>
<path d="M0 0 C2 2 2 2 2.1953125 5.6953125 C2.182009 7.17200108 2.15814835 8.64862358 2.125 10.125 C2.11597656 10.87910156 2.10695313 11.63320312 2.09765625 12.41015625 C2.0740687 14.27357254 2.03819719 16.13682593 2 18 C1.34 18 0.68 18 0 18 C-0.19384179 15.18780295 -0.38036603 12.37545804 -0.5625 9.5625 C-0.61857422 8.76005859 -0.67464844 7.95761719 -0.73242188 7.13085938 C-0.8616295 5.08937889 -0.9351273 3.04453631 -1 1 C-0.67 0.67 -0.34 0.34 0 0 Z " fill="#3EC2F1" transform="translate(429,106)"/>
<path d="M0 0 C1.98 0 3.96 0 6 0 C7.32 3.63 8.64 7.26 10 11 C9.34 11 8.68 11 8 11 C8 10.34 8 9.68 8 9 C7.34 9 6.68 9 6 9 C5.67 7.02 5.34 5.04 5 3 C4.01 3.33 3.02 3.66 2 4 C1.34 3.67 0.68 3.34 0 3 C0 2.01 0 1.02 0 0 Z " fill="#33A7D7" transform="translate(409,62)"/>
<path d="M0 0 C0 0.66 0 1.32 0 2 C-1.93370231 3.00732399 -3.87210306 4.00563288 -5.8125 5 C-7.43091797 5.8353125 -7.43091797 5.8353125 -9.08203125 6.6875 C-12 8 -12 8 -15 8 C-15 7.34 -15 6.68 -15 6 C-12.87717331 4.99539469 -10.75166979 3.99644398 -8.625 3 C-7.44164062 2.443125 -6.25828125 1.88625 -5.0390625 1.3125 C-2 0 -2 0 0 0 Z " fill="#3CC8F7" transform="translate(263,477)"/>
<path d="M0 0 C0.33 0 0.66 0 1 0 C0.52369209 5.52767863 -0.04352309 10.78272824 -2 16 C-2.99 16.33 -3.98 16.66 -5 17 C-3.83348574 11.07136283 -2.24480642 5.61201606 0 0 Z " fill="#3FC4F6" transform="translate(419,38)"/>
<path d="M0 0 C0.66 0.33 1.32 0.66 2 1 C-1.20471016 4.71746379 -4.39759246 6.35628302 -9 8 C-10.32 8 -11.64 8 -13 8 C-13 7.34 -13 6.68 -13 6 C-10.87959258 4.96966118 -8.75352092 3.95097146 -6.625 2.9375 C-5.44164062 2.36902344 -4.25828125 1.80054688 -3.0390625 1.21484375 C-2.03617187 0.81394531 -1.03328125 0.41304688 0 0 Z " fill="#3DC6F8" transform="translate(279,468)"/>
<path d="M0 0 C5.65649 1.09025318 10.86902656 2.327618 16 5 C16.33 5.99 16.66 6.98 17 8 C11.00067626 6.1668733 5.55079437 3.92678249 0 1 C0 0.67 0 0.34 0 0 Z " fill="#3EC5F2" transform="translate(89,182)"/>
<path d="M0 0 C0.33 0 0.66 0 1 0 C1.05449838 1.72880982 1.09301688 3.45812712 1.125 5.1875 C1.14820313 6.15042969 1.17140625 7.11335937 1.1953125 8.10546875 C0.9913544 11.12812778 0.26874632 13.26769985 -1 16 C-1.66 16 -2.32 16 -3 16 C-3.33 16.66 -3.66 17.32 -4 18 C-2.83445193 11.9490696 -1.54656904 5.96533774 0 0 Z " fill="#3FC9F7" transform="translate(380,177)"/>
<path d="M0 0 C0.33 0.66 0.66 1.32 1 2 C-1.22457845 3.01144568 -3.45374291 4.00920265 -5.6875 5 C-6.31333984 5.28617188 -6.93917969 5.57234375 -7.58398438 5.8671875 C-11.19992767 7.45744528 -14.04190849 8.36326652 -18 8 C-14.6122194 5.08274448 -10.92662445 3.71744176 -6.75 2.3125 C-6.1003125 2.08755859 -5.450625 1.86261719 -4.78125 1.63085938 C-3.18969801 1.08083773 -1.59513844 0.53953212 0 0 Z " fill="#2D8BD7" transform="translate(382,167)"/>
<path d="M0 0 C-1.65 0.33 -3.3 0.66 -5 1 C-5 1.66 -5 2.32 -5 3 C-6.40945366 3.56016748 -7.8280031 4.09748502 -9.25 4.625 C-10.43335938 5.07746094 -10.43335938 5.07746094 -11.640625 5.5390625 C-14.49917715 6.09752136 -15.58959839 5.53690745 -18 4 C-15.56592995 3.13475247 -13.12856816 2.28257135 -10.6875 1.4375 C-9.99720703 1.19064453 -9.30691406 0.94378906 -8.59570312 0.68945312 C-3.33984375 -1.11328125 -3.33984375 -1.11328125 0 0 Z " fill="#35B5E9" transform="translate(246,97)"/>
<path d="M0 0 C1.05703125 0.17144531 2.1140625 0.34289062 3.203125 0.51953125 C4.46382813 0.85017578 4.46382813 0.85017578 5.75 1.1875 C6.08 1.8475 6.41 2.5075 6.75 3.1875 C0.46739294 3.42018915 -5.13019467 2.59204548 -11.25 1.1875 C-11.25 0.8575 -11.25 0.5275 -11.25 0.1875 C-7.22113264 -0.86448203 -4.0907462 -0.7002632 0 0 Z " fill="#40C3F5" transform="translate(272.25,170.8125)"/>
<path d="M0 0 C0.33 0 0.66 0 1 0 C0.88496731 2.5216376 0.75825223 5.0418119 0.625 7.5625 C0.5940625 8.26697266 0.563125 8.97144531 0.53125 9.69726562 C0.27047442 14.41295741 -0.54658123 18.50385496 -2 23 C-4.75647906 17.48704187 -2.80532941 10.52218407 -1 5 C-0.64628502 3.33753959 -0.30404678 1.67225729 0 0 Z " fill="#42C8F7" transform="translate(223,302)"/>
<path d="M0 0 C0.66 0.99 1.32 1.98 2 3 C1.01 3.66 0.02 4.32 -1 5 C-1.72382467 7.05925139 -1.72382467 7.05925139 -2 9 C-2.66 9 -3.32 9 -4 9 C-4 12.3 -4 15.6 -4 19 C-4.33 19 -4.66 19 -5 19 C-5.68902754 7.17169389 -5.68902754 7.17169389 -3.0625 3.3125 C-1 1 -1 1 0 0 Z " fill="#37BAEB" transform="translate(230,234)"/>
<path d="M0 0 C0.66 0 1.32 0 2 0 C1.85795259 1.58367747 1.71119847 3.16693318 1.5625 4.75 C1.48128906 5.63171875 1.40007812 6.5134375 1.31640625 7.421875 C1.03761535 9.69350452 0.61209423 11.79851823 0 14 C-0.66 14 -1.32 14 -2 14 C-1.85866501 12.22880197 -1.71176792 10.45804713 -1.5625 8.6875 C-1.48128906 7.70136719 -1.40007812 6.71523437 -1.31640625 5.69921875 C-1 3 -1 3 0 0 Z " fill="#3EBFF0" transform="translate(257,139)"/>
<path d="M0 0 C0.33 0.66 0.66 1.32 1 2 C-0.43359375 4.6015625 -0.43359375 4.6015625 -2.4375 7.625 C-3.42556641 9.12933594 -3.42556641 9.12933594 -4.43359375 10.6640625 C-4.95050781 11.43492187 -5.46742188 12.20578125 -6 13 C-6.93616694 10.47518613 -7.17818983 9.40525028 -6.07421875 6.89453125 C-5.61660156 6.20746094 -5.15898437 5.52039063 -4.6875 4.8125 C-4.23761719 4.11769531 -3.78773438 3.42289062 -3.32421875 2.70703125 C-2 1 -2 1 0 0 Z " fill="#3CC8F3" transform="translate(245,385)"/>
<path d="M0 0 C0.66 0 1.32 0 2 0 C2.67305018 1.60149886 3.33822227 3.20631029 4 4.8125 C4.37125 5.70582031 4.7425 6.59914063 5.125 7.51953125 C6 10 6 10 6 13 C5.34 13 4.68 13 4 13 C-0.59225513 4.738041 -0.59225513 4.738041 0 0 Z " fill="#3EC4F4" transform="translate(207,462)"/>
<path d="M0 0 C0.33 0 0.66 0 1 0 C1.18451025 9.41002278 1.18451025 9.41002278 0 14 C-0.66 14 -1.32 14 -2 14 C-1.85970581 11.8537974 -1.71261836 9.70803782 -1.5625 7.5625 C-1.48128906 6.36753906 -1.40007812 5.17257812 -1.31640625 3.94140625 C-1 1 -1 1 0 0 Z " fill="#3FC9F5" transform="translate(190,441)"/>
<path d="M0 0 C-1 3 -1 3 -3.6875 4.6875 C-7.08981286 6.03558623 -9.38327271 6.25833766 -13 6 C-9.40464172 2.97989905 -4.81374718 0 0 0 Z " fill="#41C3F4" transform="translate(309,178)"/>
<path d="M0 0 C4.75 0.875 4.75 0.875 7 2 C7.72693904 3.97888961 8.39816251 5.97954558 9 8 C7.68 8 6.36 8 5 8 C5 7.01 5 6.02 5 5 C4.34 5 3.68 5 3 5 C2.67 4.01 2.34 3.02 2 2 C1.34 1.34 0.68 0.68 0 0 Z " fill="#37ABDD" transform="translate(373,146)"/>
<path d="M0 0 C0.66 0 1.32 0 2 0 C1.00956295 4.83628305 0.04301154 9.47618873 -2 14 C-2.33 14 -2.66 14 -3 14 C-2.58846263 9.02906176 -2.20399168 4.55491614 0 0 Z " fill="#40C1F1" transform="translate(310,140)"/>
<path d="M0 0 C3 1 3 1 4.1875 3.0625 C5.23642055 6.85475122 5.13319932 10.07062002 5 14 C2.99006295 10.98509443 2.27376659 8.7850073 1.375 5.3125 C1.11460937 4.31863281 0.85421875 3.32476562 0.5859375 2.30078125 C0.39257812 1.54152344 0.19921875 0.78226562 0 0 Z " fill="#40C4F4" transform="translate(417,74)"/>
<path d="M0 0 C0.66 0.33 1.32 0.66 2 1 C1.401875 1.37125 0.80375 1.7425 0.1875 2.125 C-2.49263522 4.42225876 -3.4901999 6.84314524 -5 10 C-5.99 10.495 -5.99 10.495 -7 11 C-7.66 10.34 -8.32 9.68 -9 9 C-7.87895467 7.68412059 -6.75303035 6.37239647 -5.625 5.0625 C-4.99851562 4.33160156 -4.37203125 3.60070312 -3.7265625 2.84765625 C-2 1 -2 1 0 0 Z " fill="#35B0EE" transform="translate(301,10)"/>
<path d="M0 0 C-0.66 0 -1.32 0 -2 0 C-2.33 0.99 -2.66 1.98 -3 3 C-5.06640625 4.16796875 -5.06640625 4.16796875 -7.5625 5.1875 C-8.38878906 5.53167969 -9.21507812 5.87585938 -10.06640625 6.23046875 C-10.70449219 6.48441406 -11.34257812 6.73835938 -12 7 C-12 6.01 -12 5.02 -12 4 C-10.56988027 3.13353333 -9.13059381 2.28218171 -7.6875 1.4375 C-6.48673828 0.72400391 -6.48673828 0.72400391 -5.26171875 -0.00390625 C-3 -1 -3 -1 0 0 Z " fill="#3DC3F7" transform="translate(334,443)"/>
<path d="M0 0 C4.55015893 1.51671964 6.50057264 5.16891053 9 9 C8.01 9.495 8.01 9.495 7 10 C3.60582235 6.87378374 1.3937282 4.43458973 0 0 Z " fill="#3EC1F2" transform="translate(186,324)"/>
<path d="M0 0 C0.33 0 0.66 0 1 0 C2.20577428 4.94367454 1.6290678 8.20862412 0 13 C-0.66 13 -1.32 13 -2 13 C-2.33 13.66 -2.66 14.32 -3 15 C-2.69052329 13.06201479 -2.37731166 11.12462574 -2.0625 9.1875 C-1.88847656 8.10855469 -1.71445312 7.02960938 -1.53515625 5.91796875 C-1 3 -1 3 0 0 Z " fill="#41C8F7" transform="translate(308,69)"/>
<path d="M0 0 C0.66 0.66 1.32 1.32 2 2 C1.04956626 3.33897583 0.08940853 4.67105427 -0.875 6 C-1.40867188 6.7425 -1.94234375 7.485 -2.4921875 8.25 C-2.98976562 8.8275 -3.48734375 9.405 -4 10 C-4.66 10 -5.32 10 -6 10 C-2.28571429 2.28571429 -2.28571429 2.28571429 0 0 Z " fill="#3FC4F3" transform="translate(138,352)"/>
<path d="M0 0 C0.33 0.66 0.66 1.32 1 2 C-0.20850753 5.07620099 -1.52221785 8.0444357 -3 11 C-3.99 10.67 -4.98 10.34 -6 10 C-5.18957164 8.51969728 -4.37659652 7.04078858 -3.5625 5.5625 C-2.88380859 4.32693359 -2.88380859 4.32693359 -2.19140625 3.06640625 C-1 1 -1 1 0 0 Z " fill="#39BCEA" transform="translate(297,297)"/>
<path d="M0 0 C0.99 0.33 1.98 0.66 3 1 C3.17700355 5.60209225 3.10814567 7.78370866 1 12 C0.67 8.04 0.34 4.08 0 0 Z " fill="#3DC7F4" transform="translate(347,293)"/>
<path d="M0 0 C0.66 0 1.32 0 2 0 C2.17835515 4.54805635 1.99785435 7.8794254 0 12 C-0.66 12 -1.32 12 -2 12 C-1.34 8.04 -0.68 4.08 0 0 Z " fill="#3DC6F4" transform="translate(292,128)"/>
<path d="M0 0 C0.66 0 1.32 0 2 0 C2.6496875 1.36125 2.6496875 1.36125 3.3125 2.75 C4.70517271 5.43218449 6.11112757 7.66139605 8 10 C5.29561004 9.63594751 4.25593617 9.31857318 2.515625 7.15234375 C1.88914062 6.05599609 1.88914062 6.05599609 1.25 4.9375 C0.82203125 4.20402344 0.3940625 3.47054687 -0.046875 2.71484375 C-0.36140625 2.14894531 -0.6759375 1.58304688 -1 1 C-0.67 0.67 -0.34 0.34 0 0 Z " fill="#40C7F5" transform="translate(397,127)"/>
<path d="M0 0 C0.99 0.495 0.99 0.495 2 1 C2.4140625 3.50390625 2.4140625 3.50390625 2.625 6.5625 C2.69976562 7.57441406 2.77453125 8.58632812 2.8515625 9.62890625 C2.92503906 10.80259766 2.92503906 10.80259766 3 12 C2.34 12 1.68 12 1 12 C-0.3271261 8.0186217 -0.06915913 4.14954773 0 0 Z " fill="#3DC6F3" transform="translate(77,204)"/>
<path d="M0 0 C4.87362847 0.45336079 7.39042389 1.7089159 11 5 C7.0507432 4.44894091 3.65079826 3.61064629 0 2 C0 1.34 0 0.68 0 0 Z " fill="#40C5F3" transform="translate(185,204)"/>
<path d="M0 0 C2.97 0.33 5.94 0.66 9 1 C9 1.66 9 2.32 9 3 C9.66 3.33 10.32 3.66 11 4 C7.37 3.34 3.74 2.68 0 2 C0 1.34 0 0.68 0 0 Z " fill="#3BCDF4" transform="translate(361,10)"/>
<path d="M0 0 C-2.87164566 2.70272533 -4.30991841 3.94791837 -8.3125 4.25 C-9.199375 4.1675 -10.08625 4.085 -11 4 C-4.14893617 -1.38297872 -4.14893617 -1.38297872 0 0 Z " fill="#3EC9F7" transform="translate(246,486)"/>
<path d="M0 0 C0.66 0.66 1.32 1.32 2 2 C-1.625 7.875 -1.625 7.875 -5 9 C-3.50163895 5.88801935 -1.80066242 2.9465385 0 0 Z " fill="#3EC4F5" transform="translate(128,366)"/>
<path d="M0 0 C0.66 0.99 1.32 1.98 2 3 C1.34 3 0.68 3 0 3 C-0.268125 3.639375 -0.53625 4.27875 -0.8125 4.9375 C-2 7 -2 7 -5 8 C-3.8141763 4.62496331 -2.72426311 2.35277269 0 0 Z " fill="#36D4F7" transform="translate(238,339)"/>
<path d="M0 0 C0.33 0.66 0.66 1.32 1 2 C1.66 2 2.32 2 3 2 C3 4.64 3 7.28 3 10 C2.01 10.495 2.01 10.495 1 11 C0.67 7.37 0.34 3.74 0 0 Z " fill="#41C6F5" transform="translate(216,311)"/>
<path d="M0 0 C2.875 1.75 2.875 1.75 3.875 4.75 C-0.03711733 3.59414715 -2.9995041 2.39465038 -6.125 -0.25 C-3.125 -1.25 -3.125 -1.25 0 0 Z " fill="#3AC4F1" transform="translate(150.125,208.25)"/>
<path d="M0 0 C0.639375 0.2475 1.27875 0.495 1.9375 0.75 C2.2675 1.74 2.5975 2.73 2.9375 3.75 C1.2875 3.42 -0.3625 3.09 -2.0625 2.75 C-2.3925 4.4 -2.7225 6.05 -3.0625 7.75 C-3.3925 7.75 -3.7225 7.75 -4.0625 7.75 C-4.0625 5.44 -4.0625 3.13 -4.0625 0.75 C-2.0625 -0.25 -2.0625 -0.25 0 0 Z " fill="#3FC4F2" transform="translate(319.0625,119.25)"/>
<path d="M0 0 C0.33 0 0.66 0 1 0 C0.88541307 1.43836751 0.75790884 2.87570966 0.625 4.3125 C0.55539062 5.11300781 0.48578125 5.91351563 0.4140625 6.73828125 C0 9 0 9 -2 12 C-2 8.7 -2 5.4 -2 2 C-1.34 2 -0.68 2 0 2 C0 1.34 0 0.68 0 0 Z " fill="#40C7F5" transform="translate(267,106)"/>
<path d="M0 0 C0.66 0 1.32 0 2 0 C1.19642857 8.03571429 1.19642857 8.03571429 -1 12 C-1.02698189 10.37509046 -1.04638757 8.75005367 -1.0625 7.125 C-1.07410156 6.22007813 -1.08570313 5.31515625 -1.09765625 4.3828125 C-1 2 -1 2 0 0 Z " fill="#3EC1EE" transform="translate(411,66)"/>
<path d="M0 0 C1.4391134 0.28359887 2.87625518 0.57721399 4.3125 0.875 C5.11300781 1.03742187 5.91351563 1.19984375 6.73828125 1.3671875 C9 2 9 2 12 4 C7.45194365 4.17835515 4.1205746 3.99785435 0 2 C0 1.34 0 0.68 0 0 Z " fill="#40CEF8" transform="translate(379,47)"/>
<path d="M0 0 C-2.57901913 3.29541333 -4.95939086 3.50523153 -9 4 C-10.33737094 4.31674575 -11.67288808 4.64270064 -13 5 C-10.83470418 2.58355702 -8.97842441 1.36405829 -5.9375 0.25 C-4.89916016 -0.14445313 -4.89916016 -0.14445313 -3.83984375 -0.546875 C-2 -1 -2 -1 0 0 Z " fill="#30AEE7" transform="translate(327,193)"/>
<path d="M0 0 C0.33 0.66 0.66 1.32 1 2 C0.34 2 -0.32 2 -1 2 C-1 2.66 -1 3.32 -1 4 C-7.625 5.125 -7.625 5.125 -11 4 C-7.37 2.68 -3.74 1.36 0 0 Z " fill="#34ABEA" transform="translate(158,124)"/>
<path d="M0 0 C0 1.32 0 2.64 0 4 C-1.98 4 -3.96 4 -6 4 C-6 3.01 -6 2.02 -6 1 C-3.92446352 0.4465236 -2.15634036 0 0 0 Z " fill="#FEFEFE" transform="translate(204,478)"/>
<path d="M0 0 C0.99 0.33 1.98 0.66 3 1 C-0.465 3.97 -0.465 3.97 -4 7 C-3.6875 4.625 -3.6875 4.625 -3 2 C-2.01 1.34 -1.02 0.68 0 0 Z " fill="#3EC4F1" transform="translate(142,373)"/>
<path d="M0 0 C2.475 0.99 2.475 0.99 5 2 C5 2.99 5 3.98 5 5 C6.32 5.33 7.64 5.66 9 6 C6.75 6.25 6.75 6.25 4 6 C1.6875 4.125 1.6875 4.125 0 2 C0 1.34 0 0.68 0 0 Z " fill="#40D0F9" transform="translate(218,408)"/>
<path d="M0 0 C0.33 0.99 0.66 1.98 1 3 C0.0409375 3.433125 0.0409375 3.433125 -0.9375 3.875 C-3.15206079 4.82823451 -3.15206079 4.82823451 -4 7 C-4.66 6.67 -5.32 6.34 -6 6 C-6 5.34 -6 4.68 -6 4 C-5.01 4 -4.02 4 -3 4 C-3 3.34 -3 2.68 -3 2 C-2.01 1.34 -1.02 0.68 0 0 Z " fill="#3BC9F7" transform="translate(223,355)"/>
<path d="M0 0 C0.66 0.66 1.32 1.32 2 2 C0.35 3.65 -1.3 5.3 -3 7 C-3.99 6.67 -4.98 6.34 -6 6 C-4.02 4.02 -2.04 2.04 0 0 Z " fill="#41CAF8" transform="translate(278,298)"/>
<path d="M0 0 C2.97 0.99 5.94 1.98 9 3 C8.01 3.66 7.02 4.32 6 5 C3.375 4.3125 3.375 4.3125 1 3 C0.67 2.01 0.34 1.02 0 0 Z " fill="#3ECAF6" transform="translate(96,162)"/>
<path d="M0 0 C1.27875 0.28875 2.5575 0.5775 3.875 0.875 C4.95394531 1.11863281 4.95394531 1.11863281 6.0546875 1.3671875 C8 2 8 2 10 4 C2.25 3.125 2.25 3.125 0 2 C0 1.34 0 0.68 0 0 Z " fill="#43CEF8" transform="translate(368,44)"/>
<path d="M0 0 C0.99 0.33 1.98 0.66 3 1 C4.2077558 4.62326739 3.54311128 5.64146369 2 9 C1.34 9 0.68 9 0 9 C0.185625 7.88625 0.37125 6.7725 0.5625 5.625 C1.31680657 2.17431139 1.31680657 2.17431139 0 0 Z " fill="#3DCBF7" transform="translate(420,27)"/>
<path d="M0 0 C2.1519437 3.22791555 2.20086443 4.28400809 2 8 C1.34 8 0.68 8 0 8 C-0.66 5.69 -1.32 3.38 -2 1 C-1.34 0.67 -0.68 0.34 0 0 Z " fill="#38BBE7" transform="translate(217,487)"/>
<path d="M0 0 C0.33 1.32 0.66 2.64 1 4 C1.66 4 2.32 4 3 4 C3.33 5.65 3.66 7.3 4 9 C3.01 9 2.02 9 1 9 C0.67 6.03 0.34 3.06 0 0 Z " fill="#3DCBF4" transform="translate(211,288)"/>
<path d="M0 0 C0.66 0.33 1.32 0.66 2 1 C1.34 3.64 0.68 6.28 0 9 C-0.66 8.34 -1.32 7.68 -2 7 C-1.6730244 4.38419521 -1.17960932 2.35921863 0 0 Z " fill="#40C4F3" transform="translate(285,38)"/>
<path d="M0 0 C0.66 0.99 1.32 1.98 2 3 C1.125 6.6875 1.125 6.6875 0 10 C-0.66 9.01 -1.32 8.02 -2 7 C-1.125 3.3125 -1.125 3.3125 0 0 Z " fill="#3DCCF4" transform="translate(89,315)"/>
<path d="M0 0 C0.99 0.33 1.98 0.66 3 1 C3.66 0.67 4.32 0.34 5 0 C4.67 1.32 4.34 2.64 4 4 C2.68 4 1.36 4 0 4 C0 2.68 0 1.36 0 0 Z " fill="#2B75AE" transform="translate(229,389)"/>
<path d="M0 0 C0.99 0.33 1.98 0.66 3 1 C3 1.99 3 2.98 3 4 C1.68 3.67 0.36 3.34 -1 3 C-0.67 2.01 -0.34 1.02 0 0 Z " fill="#265888" transform="translate(81,270)"/>
<path d="M0 0 C0.66 0.33 1.32 0.66 2 1 C2 1.66 2 2.32 2 3 C0.35 3 -1.3 3 -3 3 C-2.01 2.01 -1.02 1.02 0 0 Z " fill="#245AAB" transform="translate(171,330)"/>
<path d="M0 0 C0.99 0 1.98 0 3 0 C3 0.66 3 1.32 3 2 C2.01 2 1.02 2 0 2 C0 1.34 0 0.68 0 0 Z " fill="#10489A" transform="translate(200,361)"/>
<path d="M0 0 C0.99 0.33 1.98 0.66 3 1 C1.68 1.33 0.36 1.66 -1 2 C-0.67 1.34 -0.34 0.68 0 0 Z " fill="#2996F6" transform="translate(351,3)"/>
<path d="" fill="#003399" transform="translate(0,0)"/>
</svg>
