<svg width="200" height="200" viewBox="0 0 200 200" fill="none" xmlns="http://www.w3.org/2000/svg">
<path d="M173.451 31.4827C154.725 11.4735 127.463 0 98.6416 0C96.1788 0 93.7028 0.0792587 91.2531 0.250873C44.7499 3.40645 22.2675 36.4405 19.9367 40.078C16.5099 44.4349 -13.0044 84.2817 6.76425 139.345L7.13399 140.533C7.32547 141.128 26.5725 200 95.3864 200H95.3996C99.084 200 102.92 199.828 106.783 199.485C158.172 194.976 196.402 157.004 199.756 107.176C201.664 78.5451 192.321 51.6636 173.451 31.4827Z" fill="#FEFEFE"/>
<path d="M153.203 122.59C160.183 107.249 156.67 90.5664 144.91 77.403C141.642 73.7524 137.568 71.2636 133.626 68.854C131.064 67.2894 128.41 65.6721 126.033 63.751C124.917 62.8466 124 61.632 123.029 60.338C121.821 58.7339 120.454 56.9119 118.493 55.4925C107.592 47.6103 94.7691 44.7254 82.105 40.9823C76.1229 39.2198 70.2993 37.9126 64.819 35.9652C71.5802 31.2649 80.2826 28.2282 89.7708 27.304C92.7552 27.0135 95.7331 26.8617 98.6383 26.8617C126.614 26.8617 151.044 40.9494 163.999 64.5432C176.967 88.1833 176.115 116.867 161.754 139.411C147.004 162.569 120.837 174.888 91.2234 172.445C73.5082 170.993 54.6309 161.592 48.8205 151.644C52.419 149.432 84.7659 132.288 106.898 139.193C113.244 139.213 103.095 154.575 103.095 154.575C103.095 154.575 140.031 151.525 153.203 122.59ZM168.535 35.919C149.255 15.3222 120.705 4.74657 91.5667 6.72042C45.3144 9.86937 24.7997 44.2567 24.7997 44.2567C24.7997 44.2567 61.445 55.3605 66.4961 56.9251C69.9229 57.9945 92.8015 63.6454 103.115 69.3227C105.267 70.5044 107.38 72.8743 109.46 75.0858C111.005 76.723 112.458 78.2744 113.97 79.5155C116.677 81.7336 119.331 83.6546 121.893 85.5097C128.252 90.1043 133.739 94.0652 136.287 100.099C138.499 105.341 138.585 110.774 136.531 115.824C134.749 120.221 131.395 124.135 127.228 126.815C127.651 124.591 128.219 121.409 125.214 119.428C123.933 118.59 117.014 116.959 112.385 116.497C110.173 116.266 85.413 115.111 51.0324 133.668C61.3459 119.923 68.7278 117.633 68.7278 117.633C68.4505 115.976 13.1128 138.388 13.1128 138.388C13.1128 138.388 32.2014 199.525 106.086 193.029C154.154 188.797 189.968 153.651 193.111 106.734C194.906 79.9314 186.178 54.7795 168.535 35.919Z" fill="#C8102E"/>
<path d="M98.4527 76.0927C86.5744 76.5614 75.6534 62.289 66.4888 71.6367C68.2649 72.0856 71.8766 70.7059 72.4379 72.3761C67.7301 90.8273 98.248 95.5804 98.4527 76.0927Z" fill="#C8102E"/>
</svg>
