<svg width="200" height="200" viewBox="0 0 200 200" fill="none" xmlns="http://www.w3.org/2000/svg">
<g clip-path="url(#clip0_3_1142)">
<path d="M6.93457 133.859C5.33349 131.48 0 122.431 0 107.847C0 102.373 0.756803 96.1263 2.72336 89.1741C2.74397 89.1277 2.74912 89.0917 2.75427 89.0402L3.61401 85.6722L3.82508 85.8833L4.23692 84.6474C4.9268 82.572 5.64754 80.3885 5.8174 79.8786C5.93069 79.4306 6.55875 76.933 7.05812 75.1923C7.20742 74.6722 7.33611 74.2448 7.46996 73.874L7.50087 73.6268C7.66047 72.3342 7.86639 71.088 8.10832 69.8829C8.19585 69.2391 8.30398 68.6212 8.39146 68.0907L8.43268 67.859L8.52531 67.6479C8.58198 67.5037 8.63345 67.3955 8.67461 67.3028C11.1612 57.1371 15.8203 51.1221 18.4406 48.3876L18.4767 48.3567L18.5076 48.3258C19.0173 47.852 20.4588 46.5027 22.1164 45.4728C22.8783 44.4737 25.3545 41.2654 27.6249 38.7163C28.3972 37.8614 29.1385 37.0838 29.8335 36.4504C30.2093 35.5903 31.1102 33.7519 32.8091 31.6301C35.0537 28.8235 38.7243 25.507 44.3255 23.4522C48.6242 20.5374 53.1803 17.9471 57.9114 15.7172C58.8123 14.7851 62.2461 11.3914 67.5745 7.97705C73.7728 4.01683 82.5812 0.00515169 92.996 0C93.3924 0 93.7939 0.00515189 94.1903 0.0154553L97.9845 0.123591L93.2894 6.44239C95.7863 6.25703 98.314 6.15404 100.867 6.15404C114.335 6.15404 127.19 8.79072 138.892 13.544L138.948 13.5646L139 13.5852C139.458 13.8066 140.266 14.2135 141.1 14.7233C141.811 15.1816 142.531 15.6399 143.165 16.3403C143.968 16.4279 145.682 16.7111 147.602 17.5711L147.659 17.5969L147.71 17.6227C160.38 24.2659 171.412 33.5098 180.025 44.6385L180.102 44.7312L180.164 44.8445C180.298 45.0711 180.638 45.756 180.926 47.198C181.07 47.2855 181.276 47.4194 181.508 47.5636C181.971 47.8829 182.491 48.2331 183.001 48.748L183.114 48.8665L183.212 48.9953C193.807 64.388 200 82.9222 200 102.857C200 121.747 194.435 139.395 184.818 154.288L184.782 154.34L184.746 154.386C184.592 154.587 184.525 154.654 184.381 154.783C184.257 154.911 184.103 155.04 183.902 155.195C183.613 155.416 183.233 155.674 182.749 155.967C182.707 156.152 182.656 156.4 182.584 156.673C182.424 157.275 182.244 157.976 181.765 158.753L181.74 158.794L181.704 158.846C163.742 183.498 134.212 199.555 100.867 199.555C57.2524 199.555 20.1962 172.086 6.93457 133.859Z" fill="#FEFEFE"/>
<path d="M181.584 50.1229C181.013 49.5358 179.674 48.7428 179.674 48.7428C179.18 48.5574 179.082 48.1093 179.082 48.1093C178.814 46.4408 178.464 45.8486 178.464 45.8486C170.021 34.9465 159.21 25.8879 146.793 19.3683C144.574 18.3744 142.577 18.2662 142.577 18.2662C142.129 18.2765 141.918 17.9263 141.918 17.9263C141.187 16.8912 138.978 15.7685 138.149 15.3772C126.674 10.7166 114.076 8.13655 100.866 8.13655C96.856 8.13655 92.9176 8.37858 89.0411 8.83688L94.1326 1.98766C73.7563 1.38001 59.1304 17.3083 59.1304 17.3083L59.1407 17.329C54.2551 19.6 49.5755 22.2573 45.1687 25.2751L45.179 25.2493C34.5584 29.0602 31.4901 37.6295 31.4901 37.6295C28.7976 39.8851 23.4641 46.9661 23.4641 46.9661C21.9352 47.8467 20.3495 49.3041 19.8708 49.7624C17.4254 52.3064 12.9413 58.0485 10.5526 67.9361C10.4908 68.0958 10.4136 68.2554 10.3415 68.4253C10.2489 68.9712 10.1408 69.5944 10.0584 70.2072C9.82675 71.3865 9.62078 72.6018 9.46122 73.8687L9.55901 73.7348C9.52299 74.0026 9.49213 74.1622 9.49213 74.1622C9.24495 74.327 7.71599 80.4244 7.71599 80.4244C7.46885 81.1917 4.69402 89.5395 4.69402 89.5395L4.67342 89.5241C4.66827 89.5395 4.66827 89.5601 4.66827 89.5756C-2.63693 115.103 7.06732 130.584 8.71987 132.963C21.6211 170.515 58.003 197.577 100.866 197.577C133.572 197.577 162.505 181.824 180.106 157.682C180.606 156.889 180.858 155.292 180.858 155.292C180.874 154.762 181.27 154.525 181.27 154.525C182.629 153.794 183.098 153.289 183.154 153.217C192.58 138.628 198.022 121.365 198.022 102.852C198.022 83.3289 191.963 65.1964 181.584 50.1229" fill="#051821"/>
<path d="M60.0901 31.779C60.3424 31.5112 60.5741 31.2692 60.7749 31.0477C61.1043 30.713 61.2278 30.6255 61.2691 30.6512C61.2926 30.63 61.3166 30.6094 61.3411 30.5894C61.4235 25.728 62.5252 21.8244 62.5252 21.8244C71.3543 9.48548 85.9286 6.21019 85.9286 6.21019C87.7408 5.69522 86.5722 6.49344 86.5722 6.49344C77.393 16.7776 78.3506 25.2696 78.3506 25.2696L87.1076 57.2345C87.1076 57.2345 80.0083 54.742 74.5409 43.5051C72.0132 65.9171 93.1361 84.0805 93.1361 84.0805C94.0576 84.8735 92.6109 84.0186 92.6109 84.0186C87.3186 81.3768 81.2284 75.8047 79.5656 74.2391C80.0083 75.9695 90.2942 127.679 90.32 127.823C90.3715 128.065 90.5105 128.57 90.6186 128.894L94.1811 120.047L97.1258 146.156C83.7355 158.624 69.4701 153.685 68.5897 153.356C68.9346 153.922 69.2023 154.329 69.2023 154.329C69.2023 154.329 80.7908 177.086 127.968 174.671C127.968 174.671 129.096 174.66 128.926 174.805C128.941 174.846 128.88 174.902 128.668 174.98C127.778 175.299 126.393 175.526 126.393 175.526C69.434 190.738 39.9198 142.186 38.643 140.023C38.2826 139.528 35.5181 135.63 33.9736 131.701C33.9273 131.593 33.8604 131.206 34.1281 131.5C34.1281 131.5 40.1771 137.808 57.2741 139.369C57.4028 139.358 57.4749 139.338 57.4749 139.338C44.2493 124.594 38.6327 113.908 37.8038 112.276C37.8038 112.27 37.7987 112.27 37.7832 112.27C37.7832 112.27 36.1976 109.881 34.3134 103.109C34.3134 103.109 34.3649 102.764 34.5245 103.109C35.168 104.448 39.5439 110.906 44.8671 112.353H44.8774C40.3625 105.061 37.5568 93.5149 37.1964 91.8309C43.3536 100.457 54.2573 101.08 54.2573 101.08C54.2419 101.044 54.2264 101.023 54.2006 100.987C54.2264 101.028 54.2367 101.049 54.2367 101.049C36.2954 83.1535 40.1617 63.6614 47.4412 49.5922C51.7296 41.2855 57.2072 34.8638 60.0901 31.779Z" fill="#FEFEFE"/>
<path d="M113.769 150.274L102 162.664L102.026 162.639L116.554 151.484L109.032 125.544L112.317 94.347L106.577 124.144L113.769 150.274ZM116.383 73.9368C115.359 79.2668 113.68 84.7256 110.777 87.1563C110.988 87.0482 111.25 86.9143 111.549 86.734C112.424 86.2191 113.582 85.3951 114.751 84.1849C117.073 81.7696 119.41 77.8197 119.41 71.6091C119.41 68.8384 118.942 65.6044 117.799 61.8605C117.685 64.0028 117.335 68.9157 116.383 73.9367V73.9368ZM116.26 34.1313C120.363 27.931 127.102 27.3902 129.959 27.3696C127.488 26.6434 125.197 26.3809 123.148 26.3809C118.819 26.3809 115.596 27.5705 114.268 28.1627C114.072 28.2451 113.918 28.3224 113.804 28.379C114.86 29.8518 115.9 32.9881 116.26 34.1313H116.26ZM116.193 34.6102L116.394 34.5536L116.193 34.6102ZM105.959 50.5113L106.139 50.4083L105.959 50.5113L105.959 50.5113ZM111.076 47.1485C111.179 47.1588 111.256 47.2412 111.261 47.3441C111.271 47.921 111.277 48.4874 111.277 49.0745C111.271 62.4125 107.729 77.0276 106.381 82.1105C111.493 70.4153 112.867 59.4977 112.867 51.1138C112.867 46.2009 112.394 42.1635 111.92 39.3516C111.673 37.8891 111.426 36.7665 111.251 36.0197C109.953 46.0619 106.134 50.6143 106.113 50.64C106.072 50.6967 106 50.7225 105.938 50.7173C105.866 50.707 105.809 50.6658 105.773 50.604C99.4925 39.0066 90.2258 31.9308 85.9889 29.1241C85.4317 28.7512 84.8653 28.3923 84.29 28.0478C96.244 54.0286 99.7396 74.0768 100.641 80.6789C100.666 79.9219 100.682 79.1494 100.682 78.3666C100.682 66.4963 97.6494 52.185 96.1256 45.7787C95.6211 43.6415 95.2865 42.39 95.2865 42.39V42.3849C95.2659 42.2974 95.2967 42.2098 95.374 42.1635C95.4409 42.1119 95.5387 42.1171 95.6159 42.1738C100.985 46.3451 104.759 58.2051 105.423 60.4041C106.427 59.163 107.745 56.0525 108.811 53.1944C109.969 50.1096 110.854 47.2927 110.854 47.2875C110.885 47.1948 110.963 47.1434 111.05 47.1434C111.06 47.1434 111.071 47.1485 111.076 47.1485H111.076Z" fill="#C4CDD3"/>
<path d="M10.5068 101.03C10.512 113.385 12.6382 126.316 23.264 142.816L23.2794 142.836C33.3182 163.997 51.8258 175.383 60.4541 179.745C63.3267 181.202 65.0926 181.877 65.108 181.882C78.8175 188.345 91.7136 190.724 103.266 190.724C127.467 190.724 145.81 180.296 153.46 175.074C156.019 173.339 157.378 172.185 157.378 172.185L157.512 172.34L157.378 172.18C157.888 171.763 158.269 171.428 158.547 171.181C158.397 171.263 158.243 171.356 158.094 171.449C157.543 171.773 157.038 172.103 157.038 172.103C138.232 183.144 120.898 186.517 106.756 186.517C84.5937 186.517 70.251 178.252 70.2407 178.246C23.2537 153.594 22.5638 110.871 22.5638 110.841C22.5638 110.748 22.6256 110.665 22.7234 110.64C22.816 110.619 22.9087 110.66 22.9551 110.748C29.0144 122.495 36.366 126.501 39.6402 127.773C40.0157 127.92 40.3969 128.053 40.783 128.17C27.1199 110.944 23.2074 96.452 23.2074 85.519C23.2074 71.048 30.0595 62.8547 30.075 62.8341C30.1316 62.762 30.2345 62.7362 30.3169 62.7775C30.4096 62.8187 30.4508 62.9165 30.4353 63.0041C29.4572 68.1024 29.0814 72.6085 29.0763 76.5069C29.0814 86.0391 31.3157 91.9768 32.4277 94.3355C32.4585 94.4076 32.4895 94.4745 32.5255 94.5363C32.1243 91.2006 31.9231 87.8437 31.9231 84.4839C31.9231 52.2667 50.7962 32.4142 54.7809 28.5879C51.795 29.8342 48.1758 33.0373 45.226 36.0603C41.9569 39.4024 39.4909 42.5078 39.4858 42.513C39.4343 42.5799 39.3417 42.6056 39.2593 42.5799C39.182 42.5541 39.1203 42.4718 39.1254 42.3842C39.1563 39.8247 40.6132 36.6062 41.406 35.0509C38.9761 37.2602 36.9632 40.7208 35.5269 43.7438C33.9361 47.0963 33.0609 49.8978 33.0609 49.9081L33.0197 49.9802C25.5446 58.4414 21.9255 67.4792 20.587 71.46C20.1391 72.7938 19.9486 73.5457 19.9486 73.5457C19.7787 74.2306 19.6809 74.5705 19.5882 74.7405C19.547 74.792 19.547 74.8846 19.3515 74.9104C19.1969 74.9053 19.1558 74.792 19.1352 74.7559C19.1146 74.7096 19.1094 74.6735 19.1043 74.6323C19.094 74.5499 19.0889 74.452 19.0889 74.3439C19.0889 73.9474 19.1352 73.4067 19.1352 73.4067C19.2793 67.3247 21.8071 60.4858 22.8264 57.9572C15.6602 65.6665 13.9047 76.1155 13.9047 84.4684C13.9047 88.4184 14.3011 91.8996 14.6923 94.3767C15.0836 96.864 15.4697 98.3523 15.4697 98.3575L15.4748 98.409C15.4955 103.322 16.4633 109.388 17.4209 114.229C18.3836 119.07 19.3308 122.665 19.3308 122.659C19.65 123.597 19.7684 124.029 19.7787 124.261C19.7735 124.307 19.7735 124.343 19.7529 124.405C19.7324 124.462 19.6345 124.549 19.5368 124.544C19.3772 124.524 19.3566 124.462 19.3051 124.421C19.2552 124.365 19.2104 124.304 19.1712 124.24C19.0786 124.107 18.9756 123.931 18.8778 123.756C18.7541 123.535 18.634 123.312 18.5174 123.087C13.5134 115.419 11.0732 102.771 10.5172 99.5831C10.512 100.067 10.5069 100.546 10.5069 101.03" fill="#C4CDD3"/>
<path d="M120.727 40.6834L120.624 40.5907L120.675 40.4568C122.971 34.3182 133.767 28.8594 135.862 27.8347C130.838 25.0125 126.024 24.1679 122.024 24.1679C118.997 24.1679 116.449 24.6572 114.657 25.1413C112.866 25.6305 111.841 26.1146 111.841 26.1146L111.697 26.1867L111.599 26.0579C109.741 23.7353 107.321 21.4231 105.365 19.6979C103.491 18.0448 102.054 16.9273 101.931 16.8346C101.658 16.6595 101.483 16.5514 101.462 16.2939C101.462 16.1445 101.571 16.0415 101.653 16.0004C101.74 15.954 101.828 15.9282 101.931 15.9076C102.132 15.8716 102.368 15.8613 102.58 15.8613C102.837 15.8613 103.058 15.8819 103.11 15.8871C146.159 15.8922 169.042 46.6572 169.047 46.6675C169.346 47.0125 169.495 47.3472 169.495 47.6665C169.459 48.5935 168.409 49.0363 167.456 49.335C166.494 49.6286 165.536 49.7368 165.536 49.7368C161.376 50.3135 157.52 50.5659 153.958 50.5659C131.579 50.5659 120.752 40.704 120.727 40.6834H120.727ZM106.054 165.073C105.982 165.048 105.93 164.991 105.915 164.914C105.9 164.842 105.93 164.764 105.987 164.713L120.428 153.09L113.102 125.945V125.868L115.125 107.669C115.13 107.602 115.161 107.545 115.213 107.514C115.264 107.478 115.326 107.468 115.382 107.488C118.672 108.498 120.211 112.968 121.004 117.139C121.565 120.131 121.725 122.994 121.771 124.395C125.607 116.088 126.858 109.419 126.858 104.249C126.858 96.9311 124.35 92.6053 123.11 90.9058C122.698 90.3445 122.43 90.0767 122.43 90.0767C122.353 89.9995 122.353 89.8707 122.43 89.7884C122.508 89.7059 122.636 89.7059 122.719 89.7832C139.918 106.082 143.373 128.901 143.373 144.629C143.373 155.253 141.798 162.658 141.798 162.663L141.792 162.689C141.226 164.368 139.491 164.79 139.46 164.8C132.459 166.351 126.286 166.86 121.215 166.86C111.702 166.86 106.069 165.079 106.054 165.073" fill="#007DC5"/>
<path d="M146.497 163.102C146.229 162.891 146.06 162.531 146.065 162.026C146.065 161.799 146.096 161.532 146.168 161.228C146.168 161.223 146.729 159.07 147.29 155.357C147.841 151.639 148.402 146.386 148.402 140.206C148.402 123.82 144.474 100.96 126.224 83.1826C126.152 83.1413 125.894 82.9611 125.73 82.7757C125.668 82.7036 125.601 82.6366 125.591 82.4873C125.585 82.3895 125.663 82.271 125.745 82.2401C125.827 82.1989 125.899 82.1938 125.987 82.1938C126.167 82.1938 126.414 82.2349 126.811 82.3328C126.826 82.3431 131.676 83.816 135.084 87.6422C135.053 87.4054 135.012 87.1067 134.965 86.7513C134.811 85.7729 134.553 84.4082 134.095 82.8169C133.189 79.6291 131.495 75.5505 128.407 71.992C128.401 71.9868 127.974 71.5388 127.743 71.2298C127.67 71.1062 127.604 71.065 127.583 70.8899C127.583 70.8539 127.593 70.7766 127.65 70.72C127.706 70.6685 127.779 70.6582 127.815 70.6582C127.964 70.6685 128.026 70.72 128.175 70.8076C128.314 70.8951 128.499 71.0238 128.752 71.2092C129.843 71.7397 175.687 93.925 177.293 138.734C177.293 138.744 177.314 138.996 177.314 139.398C177.309 140.49 177.139 142.678 175.692 143.919C175.249 144.476 164.387 157.994 148.402 163.185C148.392 163.185 147.918 163.37 147.388 163.37C147.089 163.37 146.76 163.314 146.497 163.102Z" fill="#007DC5"/>
<path d="M180.981 131.561C180.858 131.241 180.791 130.793 180.776 130.191C179.73 87.0765 132.481 59.9422 120.666 53.8397C118.982 52.9694 118.03 52.5265 118.03 52.5265L117.201 52.1454L118.112 52.1351H118.226C124.419 52.1403 128.213 55.8842 129.34 57.1768V57.1716C129.34 56.0387 129.114 54.8491 128.893 53.9427C128.661 53.0312 128.434 52.4184 128.434 52.4184L128.285 51.9961L128.702 52.1505C133.649 54.0354 140.023 54.6585 146.273 54.6585C152.311 54.6585 158.242 54.0766 162.654 53.4947C167.071 52.9076 169.964 52.3257 169.97 52.3257L169.98 52.3205H169.99C170.222 52.2999 170.443 52.2896 170.649 52.2896C173.161 52.2845 173.965 53.7058 174.073 53.9478C179.978 60.5396 187.293 75.814 188.518 94.1524C188.668 96.4595 188.74 98.6894 188.74 100.847C188.724 116.94 184.879 128.672 182.613 131.452C182.284 131.854 181.985 132.096 181.63 132.107C181.326 132.107 181.1 131.875 180.981 131.561Z" fill="#007DC5"/>
<path d="M80.3939 10.7168C80.4196 10.6808 80.4607 10.6447 80.4763 10.6035L80.4608 10.6087C79.9357 10.758 70.5249 13.5337 67.7346 27.8966C67.7346 27.8966 67.714 28.1592 67.8684 27.9172C68.7128 26.5216 71.6523 22.067 74.3602 23.3854C74.3602 23.3854 74.3757 23.2721 74.3963 23.0918C74.5456 21.8765 75.4259 16.8863 80.3939 10.7169V10.7168ZM73.1741 140.518C71.1406 136.429 58.0746 107.873 58.0746 107.873C54.0076 109.171 48.9624 105.859 48.9624 105.859V105.875C55.3976 122.952 70.528 137.886 72.9424 140.6C72.9631 140.621 72.9682 140.621 72.9785 140.636C73.3903 141.084 73.3903 140.925 73.3903 140.925C73.3286 140.837 73.272 140.693 73.1741 140.518ZM60.2209 47.5297C48.4214 74.4993 74.9703 85.6177 75.3204 85.7568L75.3306 85.7619L73.9252 79.5512L73.1221 75.9927C72.4477 75.7764 71.8402 75.5344 71.2328 75.2614C71.0268 75.1739 70.8312 75.0761 70.6304 74.9833C70.3833 74.87 70.1362 74.7464 69.9045 74.628C58.3058 68.4585 59.4281 53.6837 60.1437 48.8893C60.1437 48.848 60.1437 48.8223 60.1488 48.7862C60.1797 48.6472 60.2003 48.5133 60.2209 48.3846C60.293 47.9365 60.3496 47.6275 60.3856 47.4679C60.4011 47.3958 60.4114 47.3443 60.4114 47.3443V47.3289C60.4423 46.9735 60.2724 47.3752 60.2209 47.5297Z" fill="#051821"/>
<path d="M77.6842 123.448L75.7743 89.5569L87.1671 127.346C87.1671 127.346 83.4295 118.416 77.6842 123.448ZM78.3731 26.0088L80.8956 46.2733C80.8956 46.2733 82.1312 51.8094 74.5428 43.5079C80.0102 54.7395 87.1094 57.2373 87.1094 57.2373L78.4194 25.5195C78.4039 25.571 78.3421 25.6277 78.3731 26.0087V26.0088ZM66.2667 62.9726C65.5562 61.304 65.2731 59.7797 65.2731 58.415C65.2731 53.4918 68.8974 50.7212 68.9128 50.7058L69.0209 50.6233C69.0209 50.6697 68.8356 47.4974 69.1342 42.4197C66.2204 46.7095 60.0477 56.8701 67.4353 64.8162C67.3169 64.6565 67.2139 64.5072 67.111 64.363C66.73 63.812 66.4675 63.364 66.2667 62.9726Z" fill="#C4CDD3"/>
<path d="M73.9887 67.098C72.7326 64.899 69.5304 57.8798 69.0311 50.7731C69.026 50.7267 69.0208 50.6701 69.0208 50.6289L68.9127 50.7061C68.8972 50.7216 65.2729 53.4871 65.2729 58.4153C65.2729 59.78 65.5612 61.3096 66.2665 62.973C66.4673 63.3643 66.735 63.8124 67.1108 64.3634C67.2138 64.5076 67.3219 64.657 67.4403 64.8269C67.5742 65.002 67.7338 65.1616 67.9088 65.347C69.1495 66.7066 71.25 68.1073 74.6992 68.2567C74.6992 68.2567 74.416 67.8447 73.9887 67.098Z" fill="#051821"/>
<path d="M84.295 131.461C85.474 131.476 86.3698 132.547 87.1059 134.046C87.8421 135.55 88.4342 137.543 88.8924 139.525C89.4638 141.987 89.8293 144.459 90.025 145.962C90.0198 146.642 90.0147 147.142 89.9992 147.435V147.461C90.2463 145.823 92.6454 129.983 84.5988 127.753C84.5988 127.753 78.9976 126.321 79.358 137.996C79.394 137.723 79.425 137.491 79.4455 137.275C81.2834 133.145 82.8227 131.491 84.295 131.461Z" fill="#C4CDD3"/>
<path d="M89.9965 147.459V147.464V147.459ZM90.0269 145.965C89.996 145.47 89.4606 141.989 88.8891 139.522C88.4309 137.54 87.844 135.552 87.1027 134.048C86.3717 132.55 85.4707 131.478 84.297 131.463C82.8195 131.489 81.2853 133.147 79.4475 137.277C79.3342 137.576 79.3599 137.617 79.3599 137.993L82.1296 144.101C82.1296 144.101 83.7256 127.745 89.9857 147.407C89.9908 147.448 89.9908 147.479 89.996 147.489V147.453V147.463V147.432C90.0166 147.144 90.0835 146.784 90.0269 145.965" fill="#051821"/>
</g>
<defs>
<clipPath id="clip0_3_1142">
<rect width="200" height="200" fill="white"/>
</clipPath>
</defs>
</svg>
