<svg width="200" height="200" viewBox="0 0 200 200" fill="none" xmlns="http://www.w3.org/2000/svg">
<g clip-path="url(#clip0_2_890)">
<path d="M200 100C200 155.227 155.227 200 100 200C44.7687 200 0 155.227 0 100C0 44.7708 44.7687 0 100 0C155.227 0 200 44.7708 200 100" fill="#B4B2B2"/>
<path d="M197.129 100C197.129 153.644 153.642 197.132 100 197.132C46.3546 197.132 2.86914 153.644 2.86914 100C2.86914 46.3545 46.3546 2.86914 100 2.86914C153.642 2.86914 197.129 46.3545 197.129 100Z" fill="#1D428A"/>
<path d="M99.9999 182.824C54.2541 182.824 17.1729 145.742 17.1729 100.001C17.1729 54.2549 54.2541 17.1758 99.9999 17.1758C145.744 17.1758 182.827 54.2549 182.827 100.001C182.827 145.742 145.744 182.824 99.9999 182.824Z" fill="#C8102E"/>
<path d="M99.9992 178.074C66.918 178.074 38.5972 157.384 27.2451 128.276C41.1263 147.274 68.5284 160.234 99.9992 160.234C131.472 160.234 158.872 147.274 172.755 128.276C161.403 157.384 133.08 178.074 99.9992 178.074ZM99.9992 21.9238C133.08 21.9238 161.405 42.6155 172.755 71.728C158.872 52.7301 131.474 39.7676 99.9992 39.7676C68.5263 39.7676 41.1263 52.7301 27.2451 71.728C38.5951 42.6155 66.918 21.9239 99.9992 21.9239V21.9238ZM21.9847 102.436H37.2284V97.5634H21.9847C22.043 95.7196 22.141 93.8842 22.3243 92.0759C27.7264 64.8801 60.4909 43.8926 99.9993 43.8926C139.506 43.8926 172.272 64.8801 177.676 92.0779C177.86 93.8863 177.96 95.7196 178.016 97.5634H162.77V102.436H178.016C177.96 104.282 177.86 106.115 177.676 107.926C172.272 135.122 139.506 156.107 99.9992 156.107C60.491 156.107 27.7264 135.124 22.3243 107.926C22.141 106.115 22.043 104.282 21.9847 102.436ZM99.9993 17.1738C54.3305 17.1738 17.1743 54.3301 17.1743 100.001C17.1743 145.67 54.3305 182.824 99.9992 182.824C145.67 182.824 182.826 145.67 182.826 100.001C182.826 54.3301 145.67 17.1738 99.9992 17.1738" fill="#FEFEFE"/>
<path d="M65.0003 128.476H70.8607V102.163H65.0023L65.0003 128.476ZM87.4479 102.176H87.2709C85.625 102.163 79.6438 102.14 78.4959 102.163L78.198 102.18C76.4292 102.18 75.3063 103.019 75.0313 104.542C74.9833 104.79 74.9813 104.98 74.9833 104.98C74.9771 105.034 74.5771 109.965 75.0625 111.357C75.848 113.621 77.675 114.459 79.3563 114.98C79.4126 114.994 79.4688 115.013 79.5313 115.03C79.6375 115.057 79.75 115.086 79.8563 115.132C80.0417 115.207 80.1709 115.307 80.2479 115.432L80.2729 124.907L75.4375 124.922L75.4563 128.428L81.8146 128.434H81.8188C84.0271 128.338 85.548 127.371 86.1125 125.703C86.2729 124.417 86.2938 115.594 86.1667 113.753C86.1272 113.057 85.8084 112.499 85.1667 111.992C84.9167 111.799 84.6084 111.599 84.2146 111.38C83.8667 111.199 83.4917 111.013 83.1292 110.846C81.7563 110.176 80.198 109.413 80.198 107.661L80.2021 106.163H84.8021C85.7459 106.163 86.4979 105.701 86.9875 104.83C87.3584 104.163 87.4584 103.496 87.4563 103.459C87.4958 103.024 87.475 102.619 87.4584 102.353L87.448 102.176H87.4479ZM112.292 108.086C112.319 107.392 112.378 106.871 112.474 106.461L112.578 106.359C112.84 106.317 113.094 106.3 113.405 106.3L113.524 106.303C115.509 106.325 115.565 106.921 115.565 110.515V121.503C115.565 121.832 115.565 122.14 115.544 122.465C115.53 122.78 115.494 123.078 115.436 123.355L115.33 123.459C114.982 123.509 114.646 123.536 114.284 123.536C113.555 123.536 113.049 123.378 112.734 123.055C112.267 122.573 112.253 121.769 112.282 120.842V109.746C112.282 109.746 112.272 108.513 112.292 108.086ZM114.224 102.153C112.905 102.153 111.53 102.196 110.424 102.509C107.555 103.2 106.159 105.117 106.159 108.369V124.021C106.159 128.032 109.028 128.855 113.334 128.855C118.553 128.855 121.544 127.011 121.544 123.8L121.553 107.486C121.553 102.153 118.155 102.153 114.224 102.153ZM135.128 113.345C132.33 103.214 127.84 102.083 125.98 102.083C125.496 102.083 125.205 102.16 125.194 102.164L125.055 102.201L125.053 128.493L130.984 128.501V117.924L135.115 128.502H141.144V102.189H135.128V113.345V113.345ZM55.5042 113.838L52.2084 113.842V106.2C52.2084 106.2 54.0001 106.165 54.2667 106.2C54.9167 106.283 55.5188 106.536 55.5188 107.317C55.5188 107.571 55.5042 113.838 55.5042 113.838ZM57.8709 102.154L43.0875 102.173L42.9063 102.175L42.8979 102.354C42.8959 102.385 42.7709 105.485 46.2292 106.206V128.483H52.2917V117.288H57.3917C60.0834 117.288 61.6271 115.517 61.6271 112.429L61.6417 111.488C61.6417 104.033 61.3396 102.54 57.8709 102.154ZM104.339 102.195H90.627V106.333H94.5353V128.522L100.562 128.518L100.567 106.308C100.642 106.312 100.714 106.314 100.785 106.314C101.862 106.314 102.721 105.985 103.335 105.335C104.429 104.185 104.352 102.449 104.35 102.374L104.339 102.195L104.339 102.195ZM157.113 102.176H156.935C155.288 102.163 149.308 102.14 148.158 102.163L147.863 102.18C146.094 102.18 144.971 103.019 144.696 104.542C144.648 104.79 144.648 104.98 144.648 104.98C144.642 105.034 144.24 109.965 144.727 111.357C145.512 113.621 147.34 114.459 149.019 114.98C149.077 114.994 149.133 115.013 149.194 115.03C149.302 115.057 149.413 115.086 149.519 115.132C149.704 115.207 149.835 115.307 149.913 115.432L149.938 124.907L145.102 124.922L145.119 128.428L151.479 128.434H151.485C153.69 128.338 155.213 127.371 155.777 125.703C155.938 124.417 155.958 115.594 155.833 113.753C155.79 113.057 155.473 112.499 154.829 111.992C154.579 111.799 154.273 111.599 153.879 111.38C153.529 111.199 153.156 111.013 152.796 110.846C151.419 110.176 149.865 109.413 149.865 107.661L149.867 106.163H154.465C155.41 106.163 156.163 105.701 156.65 104.83C157.021 104.163 157.123 103.496 157.121 103.459C157.16 103.024 157.142 102.619 157.123 102.353L157.113 102.176ZM103.328 75.1869L104.326 75.1848L104.485 75.1869C106.018 75.2119 106.589 75.2203 106.549 77.9202C106.553 80.0744 106.549 80.2098 106.505 81.2723L106.501 81.4744C106.505 81.7848 106.374 82.1265 106.176 82.3307C106.037 82.4723 105.872 82.5432 105.687 82.5432H103.328V75.1869V75.1869ZM103.312 85.9265H104.328C105.308 85.9473 106.949 86.2473 106.949 88.0056C106.949 88.8452 107.024 91.4765 107.053 92.464L107.066 92.8598C107.072 93.0057 107.137 94.2931 107.199 94.5369C107.62 96.0702 108.812 96.989 110.672 97.189H112.389V87.8244C112.389 87.0203 111.951 85.8953 111.32 85.091L111.195 84.9203C112.137 83.864 112.501 82.7994 112.501 81.1744L112.508 80.2598C112.508 72.9848 112.218 71.5286 108.841 71.1536H97.4575V96.8348H103.312V85.9265ZM139.661 71.1536H133.95L133.931 96.8202L139.661 96.8244V71.1536ZM84.8275 96.8586L90.7046 96.8503L90.713 75.1565C90.7859 75.1586 90.8567 75.1607 90.9275 75.1607C91.9817 75.1607 92.8213 74.8398 93.4213 74.2044C94.4859 73.0835 94.4088 71.394 94.4046 71.3252L94.3963 71.1523H81.015V75.1836H84.8275V96.8586ZM146.48 96.8586L152.361 96.8503V75.1565C152.434 75.1586 152.509 75.1607 152.578 75.1607C153.636 75.1607 154.476 74.8377 155.078 74.2044C156.143 73.0815 156.068 71.394 156.064 71.3252L156.053 71.1523H142.67V75.1836H146.48V96.8586ZM77.9378 92.7061H71.7836V86.4665H76.0023V80.8769H71.7836V75.0977H77.9378V71.154H66.0732L66.0524 96.8207H77.9378V92.7061ZM56.5775 92.7061H53.3255V75.179C55.34 75.0957 55.7671 75.2727 55.8004 75.2894C56.5588 75.5873 56.5442 76.9936 56.5442 77.031C56.7567 79.0602 56.6004 91.0915 56.5775 92.7061ZM58.6067 71.154H43.9693L43.9484 71.3102C43.9379 71.3727 43.7629 72.8478 44.713 73.9706C45.315 74.6873 46.2338 75.0873 47.4546 75.1665V96.7894H58.3546C60.8401 96.7894 62.5088 94.6769 62.5088 91.5353L62.5129 79.6228C62.5171 73.0498 62.5192 71.2832 58.6067 71.154ZM121.619 76.9611C121.648 76.2819 121.706 75.7736 121.8 75.3673L121.906 75.2694C122.162 75.2298 122.416 75.2132 122.723 75.2132H122.839C124.812 75.2381 124.869 75.8236 124.869 79.3382V90.0902C124.869 90.4131 124.869 90.7152 124.848 91.034C124.831 91.3403 124.796 91.6319 124.741 91.9027L124.633 92.0048C124.289 92.0569 123.956 92.0819 123.596 92.0819C122.877 92.0819 122.373 91.9256 122.06 91.609C121.596 91.1382 121.581 90.3527 121.61 89.4444V78.584C121.61 78.584 121.6 77.3777 121.619 76.9611ZM123.537 71.1548C122.229 71.1548 120.864 71.1944 119.764 71.5027C116.916 72.1798 115.533 74.0548 115.533 77.2361V92.5569C115.533 96.4819 118.381 97.284 122.654 97.284C127.831 97.284 130.802 95.4819 130.802 92.3402L130.81 76.3715C130.81 71.1548 127.439 71.1548 123.537 71.1548Z" fill="#FEFEFE"/>
</g>
<defs>
<clipPath id="clip0_2_890">
<rect width="200" height="200" fill="white"/>
</clipPath>
</defs>
</svg>
