<svg clip-rule="evenodd" fill-rule="evenodd" stroke-linejoin="round" stroke-miterlimit="1.41421" viewBox="0 0 800 600" xmlns="http://www.w3.org/2000/svg"><circle cx="400.0036272238" cy="299.9985227138" fill="#fff" r="299.99996770123" stroke-width="2.8509519111"/><path d="m87.295 151.522-18.802 2.923c1.896-47.795 41.238-86.031 89.507-86.031v47.874l.474.158 1.343-5.056h23.463l.158.553c-.237 1.738-.079 6.794 8.453 10.507l.237.711-34.049-.869-34.049.869.237-.711c8.611-3.713 8.69-8.769 8.453-10.507l.158-.553h23.463l-1.185-4.661-17.064.553.158-.474c5.056-2.844 5.214-6.873 5.135-8.374l.158-.553h9.322l-2.765-10.507c-33.338 3.792-59.724 30.573-62.805 64.148zm131.219-30.731-2.765 8.295.553 1.264h24.806l1.027-3.081c-12.166-33.259-43.45-57.275-80.501-58.697l2.923 18.802c22.91 1.975 42.581 14.852 53.957 33.417zm-2.133 64.859-.553 1.264 2.765 8.295c-11.376 18.486-31.047 31.363-53.799 33.496l-2.923 18.802c37.051-1.501 68.256-25.517 80.422-58.697l-1.027-3.081h-24.885zm-22.673-57.749-.237-.711h-35.471-35.471l-.237.711c-.079 2.133-1.027 8.848-10.349 18.091l-.237.79c5.214-2.212 9.875-4.108 14.22-5.767 5.372-1.975 10.428-3.634 15.326-4.898 2.686-.711 5.372-1.343 7.979-1.896 2.765-.553 5.451-1.027 8.137-1.422l.553-.079.553.079c2.291.316 4.582.711 6.952 1.185 2.212.474 4.503.948 6.873 1.58 4.266 1.106 8.611 2.449 13.351 4.108 6.399 2.291 12.64 4.819 18.723 7.426l-.316-1.106c-9.243-9.164-10.27-15.958-10.349-18.091zm-15.8-21.014c-5.056-2.844-5.214-6.873-5.135-8.374l-.158-.553h-9.322l-2.291 8.769 17.064.553zm-4.029 93.062c.079.079.158.158.237.316.158.237.474.474.79.711s.711.474 1.185.632c.79.395 1.896.711 3.239 1.027 2.449.632 5.214.948 7.663 1.185.711.079 1.343.158 2.054.158 1.106-3.16 2.449-6.32 4.029-9.48-2.844 1.264-5.925 2.37-9.164 3.318-4.108 1.185-7.584 1.817-10.033 2.133zm-37.13 2.686c1.343-.316 2.37-.632 3.239-1.027.474-.158.869-.474 1.185-.632.316-.237.632-.474.79-.711.079-.079.158-.237.237-.316-2.37-.316-5.925-.948-10.033-2.054-3.239-.948-6.32-2.054-9.164-3.318 1.58 3.16 2.923 6.241 4.029 9.48.711-.079 1.343-.079 2.054-.158 2.37-.316 5.214-.632 7.663-1.264zm110.758-44.635v3.555l-18.802 2.923-19.671 3.081c-4.187 6.794-8.69 13.588-12.64 20.461-.474.316-.948.553-1.422.869-6.241 3.555-13.193 5.688-20.856 6.32.711-1.659 1.738-3.239 2.765-4.819.553-.869 1.185-1.738 1.975-2.844.632-.869 1.343-1.817 2.133-2.844 1.975-2.528 4.029-5.135 6.004-7.584.948-1.185 1.975-2.449 3.002-3.713l2.291-2.844c.079-.158.158-.237.316-.395.632-.869 1.264-1.738 1.896-2.528.711-.948 1.422-1.975 2.133-3.002.237-.316.395-.632.632-.948.079-.158.237-.395.395-.553l-3.792-1.106s0 .079-.079.079c-.158.316-.395.632-.553.948-.553.869-1.185 1.738-2.054 2.844-1.106 1.501-2.607 3.397-4.266 5.214-.079.079-.158.237-.237.316-1.975 2.291-4.187 4.661-6.241 6.873-1.185 1.264-2.449 2.607-3.634 3.95-1.501 1.659-3.239 3.634-4.819 5.688-.79 1.027-1.501 2.054-2.212 3.081-.553.869-1.264 2.133-1.817 3.476-.395.948-.869 2.449-.79 4.187 0 1.659.711 3.397 1.896 4.661.632.711 1.343 1.264 2.054 1.738.79.474 1.58.869 2.291 1.185 1.343.553 2.844.948 4.582 1.264 1.501.316 3.002.474 4.424.553 1.501.158 3.081.158 4.345.158h1.027c-.237.869-.395 1.738-.632 2.607l-13.114 4.74-8.137 3.002-5.688-58.46-.553-5.293-1.027-10.744-.632.237v103.332c-49.454 0-89.586-40.053-89.586-89.507v-.079h57.986l.158-.553-8.611-2.37-8.058-2.212.316-.869c14.773-6.557 30.81-12.798 47.795-15.168 16.669 2.212 32.706 8.848 47.874 15.405l.237.632-8.058 2.212-8.532 2.37.158.553h57.828zm-95.985 70.705-1.58-10.27-7.742-2.923-13.114-4.74h-.079c-.158-.869-.395-1.738-.632-2.607h1.027c1.343 0 2.844 0 4.345-.158 1.422-.079 2.923-.237 4.424-.553 1.738-.316 3.16-.711 4.582-1.264.711-.316 1.501-.632 2.291-1.185.632-.474 1.422-1.027 2.054-1.738 1.185-1.264 1.817-3.002 1.896-4.661 0-.79 0-2.133-.79-4.187-.553-1.343-1.264-2.607-1.817-3.476-.632-1.027-1.422-2.133-2.212-3.081-1.58-2.054-3.318-4.029-4.819-5.688-1.185-1.343-2.449-2.686-3.634-3.95-2.133-2.212-4.266-4.582-6.241-6.873-.079-.079-.158-.158-.237-.316-1.659-1.896-3.16-3.792-4.266-5.293-.79-1.106-1.422-1.975-2.054-2.844-.237-.316-.395-.632-.553-.948 0 0 0-.079-.079-.079l-3.792 1.106c.158.158.237.395.395.553.237.316.395.632.632.948.711 1.027 1.422 2.054 2.133 3.002.632.869 1.264 1.738 1.896 2.607.079.079.158.237.237.316l2.291 2.844c1.027 1.264 1.975 2.528 3.002 3.713 1.975 2.528 4.108 5.056 6.004 7.584.79 1.027 1.501 1.896 2.133 2.844.79 1.106 1.422 1.975 1.975 2.844 1.027 1.58 2.054 3.16 2.765 4.819-7.584-.711-14.615-2.844-20.777-6.32-.474-.237-.948-.553-1.422-.869-3.871-6.873-8.374-13.667-12.64-20.461l-19.671-3.081c3.002 34.207 30.02 61.304 64.069 64.385z" fill="#0a2240" fill-rule="nonzero" transform="matrix(3.12033 0 0 3.12033 -93.00807593 -193.01318044)"/></svg>