<svg width="200" height="200" viewBox="0 0 200 200" fill="none" xmlns="http://www.w3.org/2000/svg">
<path d="M43.5152 66.0136C43.5152 66.0136 60.5423 38.2266 95.4057 38.2266C130.269 38.2266 146.487 65.2059 146.487 65.2059H193.785L191.89 76.7994C191.89 76.7994 190.538 81.3895 188.377 81.928H191.621C191.621 81.928 192.703 85.9763 186.216 100.003H199.999C199.999 100.003 200.539 124.546 170.811 136.146C170.811 136.146 155.405 141.002 147.566 132.643C147.566 132.643 131.891 161.776 95.4057 161.776C58.9205 161.776 42.4329 131.835 42.4329 131.835H0L6.76019 119.696H2.16456L7.56942 109.715H16.7574L18.3791 105.933H14.0566L24.5965 86.5115H30.5409L32.9752 80.5785H27.8401L35.676 66.0136H43.5152Z" fill="#FEFEFE"/>
<path d="M95.9148 155.276C125.745 155.276 149.924 130.779 149.924 100.552C149.924 70.3324 125.745 45.832 95.9148 45.832C66.0878 45.832 41.9058 70.3324 41.9058 100.552C41.9058 130.779 66.0878 155.276 95.9148 155.276Z" fill="#FDB927"/>
<path d="M101.874 100.284L99.519 100.265C99.3512 100.265 99.2163 100.399 99.2163 100.563C99.2163 100.728 99.3511 100.862 99.519 100.862L101.907 100.839C102.713 100.839 103.457 100.941 103.253 101.299L97.0616 113.099C96.2918 114.508 94.6634 114.15 94.4036 113.027L91.3376 97.2111L102.121 88.8583C103.193 87.939 105.253 86.4417 106.309 86.4614L108.661 86.4483C110.092 86.4385 110.598 87.1082 110.263 87.9685L109.848 88.7696C109.579 89.2162 108.73 89.272 108.013 89.272H106.654C106.49 89.272 106.355 89.4066 106.355 89.5773C106.355 89.7415 106.49 89.8761 106.654 89.8761H107.993C108.572 89.8761 109.299 89.8893 109.033 90.3227L104.029 99.8444C103.799 100.215 102.759 100.284 101.874 100.284ZM120.533 106.158C115.487 112.265 112.628 114.357 107.503 114.357C105.759 114.357 104.851 113.966 105.338 113.122L111.418 100.925H113.737C116.326 100.925 115.967 103.098 115.263 106.043C115.135 106.457 115.451 106.483 115.76 106.122L121.54 95.9864C121.819 95.3494 121.092 95.2214 120.734 95.7106C117.839 99.6277 114.793 99.3388 113.51 99.3388H112.464L118.951 86.9704H121.569C124.866 87.1772 126.402 89.9713 125.448 96.7022H126.82L131.59 87.3118C131.974 86.5205 131.159 85.7949 130.261 85.7949L97.8709 85.808C95.9991 85.808 95.9168 87.2396 97.7097 87.2396C99.167 87.2396 99.0913 89.3278 97.782 90.3358L84.0347 101.23L86.8078 114.097C87.0151 115.069 87.6368 115.532 88.7158 115.532H115.497C116.602 115.532 117.056 115.082 117.415 114.623L122.267 106.26C122.935 105.058 121.382 105.134 120.533 106.158" fill="#552583"/>
<path d="M61.2787 102.648H52.7553L63.5354 88.461L61.2787 102.648ZM59.3049 111.461C59.0483 112.919 57.5812 113.887 55.7357 114.37L53.831 114.846L55.3936 112.035C55.8048 111.267 54.9034 110.814 53.9198 111.96C47.2945 119.653 45.1859 123.34 34.9715 123.363L32.228 123.37C31.399 123.37 30.4878 123.048 31.0503 122.253L34.6656 115.539H48.3866C50.2585 115.539 49.7782 114.133 48.6761 114.094C47.9524 114.071 47.1563 113.654 46.5938 112.768C46.4392 112.521 46.0971 111.546 46.6333 110.794L51.8868 103.827H60.624L59.3049 111.461H59.3049ZM79.6381 114.094C78.9144 114.071 78.4473 113.572 78.2861 113.096C78.0558 112.403 78.0722 111.185 78.3551 110.647L90.8491 88.5266C91.0531 88.1195 91.5597 87.2593 92.1814 87.2659C93.2834 87.2691 93.7605 85.8212 91.8919 85.8212H81.8849C80.0131 85.8212 79.9934 87.2396 81.7862 87.2396C82.5198 87.2396 82.806 87.9554 82.6021 88.392L79.8354 93.3926C79.4901 93.9442 78.7235 93.9836 77.9176 93.9836L75.5326 93.977C75.3682 93.977 75.2333 94.1116 75.2333 94.2791C75.2333 94.4432 75.3681 94.5779 75.5326 94.5779H77.8979C78.5394 94.5779 79.0492 94.7683 78.6775 95.5136L69.4534 112.282C68.7889 113.204 67.4665 113.408 67.5421 111.645L70.8219 87.082C70.9502 86.3137 70.7462 85.7949 69.9271 85.7949L64.9795 85.8015C64.3907 85.8015 64.0255 86.0904 63.7426 86.4712L61.9728 88.6908C61.7425 88.9206 61.2425 88.9206 60.6931 88.9206L56.5416 88.9141C56.3772 88.9141 56.2423 89.0487 56.2423 89.2129C56.2423 89.377 56.3771 89.5116 56.5416 89.5116H59.9299C60.5319 89.5116 61.2359 89.6528 60.9826 89.9352L56.2258 95.9076C56.0811 96.0751 55.6173 96.121 55.3343 96.121L53.9922 96.1145C53.8277 96.1145 53.6895 96.2491 53.6895 96.41C53.6895 96.5807 53.8277 96.7153 53.9922 96.7153H55.1139C55.4593 96.7153 55.4626 96.8861 55.3212 97.0404L50.8506 102.648C50.6203 102.865 50.1729 102.911 49.7354 102.911L45.7911 102.908C45.6234 102.908 45.4918 103.039 45.4918 103.207C45.4917 103.246 45.4994 103.285 45.5144 103.321C45.5294 103.357 45.5515 103.39 45.5793 103.418C45.6071 103.446 45.6401 103.468 45.6765 103.483C45.7129 103.498 45.7518 103.505 45.7911 103.505H49.1794C49.6926 103.505 50.0907 103.601 49.8209 103.945L43.4621 111.904C42.2679 113.421 36.5111 114.193 35.3926 114.193L56.8903 74.0405C57.0976 73.5776 57.8936 72.8749 58.7226 72.8749H63.2854C65.4401 72.8749 65.3776 71.4434 63.5058 71.4434H40.5574C38.6856 71.4434 38.6099 72.8749 40.7646 72.8749H45.0115C46.2155 72.8749 46.607 73.6038 46.2945 74.1948L45.6892 75.3013C45.4819 75.6625 45.1991 75.8069 44.0345 75.8069L36.5243 75.8004C36.3598 75.8004 36.2249 75.935 36.2249 76.0992C36.2249 76.2633 36.3598 76.3979 36.5243 76.3979H44.0148C44.4227 76.3979 45.0312 76.5063 44.6464 77.2352L43.597 79.1855C43.416 79.4777 42.9555 79.6189 42.4325 79.6189L39.0244 79.6123C38.8566 79.6123 38.7217 79.7437 38.7217 79.9111C38.7217 80.0753 38.8566 80.2099 39.0244 80.2099H42.4127C42.8996 80.2099 42.9095 80.5317 42.6298 80.9782L40.212 85.4633C40.0047 85.8474 39.6132 85.8934 38.8435 85.8934L37.4848 85.8868C37.3204 85.8868 37.1855 86.0214 37.1855 86.1889C37.1855 86.3564 37.3204 86.491 37.4848 86.491H38.8237C39.3369 86.491 39.4718 86.7766 39.2415 87.2593L37.2546 90.9399C36.9585 91.4685 36.5375 91.6787 35.215 91.6787L27.7081 91.6721C27.6688 91.6719 27.6298 91.6796 27.5935 91.6945C27.5571 91.7094 27.5241 91.7314 27.4963 91.7592C27.4684 91.787 27.4464 91.82 27.4314 91.8563C27.4163 91.8926 27.4086 91.9316 27.4087 91.9709C27.4087 92.1383 27.5403 92.273 27.7081 92.273H35.1953C36.044 92.2861 36.3565 92.6604 36.021 93.2612L32.1458 100.534C31.9155 100.852 31.2806 100.902 30.2049 100.902L22.698 100.895C22.5302 100.895 22.3953 101.03 22.3953 101.194C22.3953 101.358 22.5302 101.489 22.698 101.489L30.1852 101.496C31.0833 101.496 31.6293 101.532 31.3629 102.005L29.1292 106.198C28.718 106.838 27.5667 106.838 27.116 106.838L24.7343 106.831C24.5698 106.831 24.4349 106.959 24.4349 107.127C24.4349 107.294 24.5698 107.429 24.7343 107.429H27.0962C27.9285 107.429 28.3726 107.573 28.1522 108.023L25.1718 113.618C24.902 114.117 23.7342 114.14 22.8362 114.14L11.2271 114.133C11.0626 114.133 10.9277 114.268 10.9277 114.432C10.9277 114.596 11.0626 114.731 11.2271 114.731L22.8164 114.734C23.5862 114.734 24.5566 114.83 24.2014 115.44L22.2967 119.016C22.1158 119.311 21.4644 119.334 20.5302 119.334L18.1485 119.331C17.9807 119.331 17.8458 119.466 17.8458 119.63C17.8458 119.794 17.9806 119.929 18.1485 119.929H20.5104C21.0893 119.929 21.7901 119.994 21.5434 120.431L20.3558 122.713C19.9709 123.278 19.586 123.78 18.6649 123.78H12.8389C10.6875 123.78 10.7599 125.218 12.6317 125.218L46.8405 125.235C47.8405 125.235 47.8735 125.1 48.3439 124.368L53.4165 115.539H79.3486C81.2204 115.539 80.7401 114.133 79.6381 114.094ZM145.855 97.9026C144.914 98.6742 143.434 99.5607 143.148 99.2783C142.746 98.881 141.503 98.0241 140.835 97.7187L146.417 87.5272C146.648 87.166 146.914 86.9723 147.529 86.9723C149.704 86.9723 150.418 89.3265 149.395 92.2585C148.681 94.3139 147.519 96.5367 145.855 97.9026ZM190.956 107.04C190.814 106.341 190.558 106.764 190.097 107.648C189.956 107.914 189.505 107.92 189.058 107.92L187.686 107.927C187.521 107.927 187.386 108.061 187.386 108.225C187.386 108.39 187.521 108.524 187.686 108.524H189.035C189.548 108.524 189.554 108.866 189.314 109.378C188.373 111.387 187.4 112.733 186.11 114.339C185.906 114.598 185.386 114.812 184.975 114.812L183.6 114.822C183.432 114.822 183.297 114.95 183.297 115.12C183.297 115.285 183.432 115.419 183.6 115.419H184.946C185.627 115.419 184.939 115.836 184.824 115.991C182.432 119.175 180.784 120.597 179.024 122.022C178.82 122.186 177.827 122.13 177.133 122.127L175.777 122.134C175.61 122.134 175.475 122.265 175.475 122.433C175.475 122.597 175.61 122.731 175.777 122.731H177.116C178.139 122.731 177.373 123.319 177.218 123.447C173.491 126.547 167.935 127.548 165.399 127.229C157.145 126.199 155.447 119.95 154.839 117.452C154.711 116.93 154.316 115.863 154.184 115.199C153.931 113.893 157.652 113.521 158.678 114.208C160.24 115.249 163.872 116.312 166.731 116.326C169.376 116.335 174.787 114.418 176.353 109.88C177.955 105.247 173.929 100.099 172.146 98.3228C169.876 96.0541 167.734 92.4456 168.636 89.796C169.317 87.803 170.458 86.8968 172.899 86.8968C176.054 86.8968 178.35 88.9194 178.35 91.7923C178.35 92.0483 178.192 92.3537 177.985 92.3537L176.87 92.3603C176.705 92.3603 176.57 92.4949 176.57 92.6591C176.57 92.8232 176.705 92.9579 176.87 92.9579H177.919C178.212 92.9579 178.396 93.1811 178.32 93.539C178.113 94.501 178.047 95.1774 177.837 96.1427C177.715 96.7009 178.537 97.0883 178.82 96.6779L183.778 87.8424C184.136 87.1759 183.34 86.9986 182.751 87.2022C181.396 87.6749 179.185 87.9967 178.406 87.4353C176.55 86.1121 174.863 85.2551 172.271 85.2551C167.866 85.2551 164.777 86.3386 162.797 89.9602C162.645 90.2425 162.211 90.2392 161.839 90.2392L160.994 90.236C160.954 90.2358 160.915 90.2435 160.878 90.2587C160.841 90.2738 160.808 90.296 160.78 90.3241C160.752 90.3522 160.729 90.3855 160.714 90.4222C160.699 90.459 160.691 90.4983 160.691 90.538C160.691 90.7022 160.826 90.8368 160.994 90.8368L161.714 90.8302C162.02 90.8302 162.227 90.9156 162.073 91.2702C161.935 91.5985 161.816 91.9433 161.701 92.2979C161.198 93.8641 161.362 96.0606 162.145 98.0241C162.198 98.1521 162.033 98.2145 161.731 98.2112L160.379 98.2178C160.214 98.2178 160.079 98.3524 160.079 98.5166C160.079 98.684 160.214 98.8187 160.379 98.8187H161.724C162.339 98.8187 162.481 98.881 162.737 99.2389C163.431 100.214 164.145 100.94 165.043 102.076C165.323 102.437 164.119 102.535 163.477 102.529H158.135C158.096 102.529 158.057 102.536 158.021 102.551C157.984 102.566 157.951 102.588 157.923 102.616C157.895 102.644 157.873 102.677 157.858 102.713C157.843 102.749 157.836 102.788 157.836 102.828C157.836 102.995 157.967 103.126 158.135 103.126L163.547 103.12C164.418 103.12 165.909 103.107 166.076 103.297C167.386 104.804 168.968 107.129 169.234 109.082C169.313 109.647 169.099 109.88 168.405 109.88H167.682C167.517 109.88 167.382 110.015 167.382 110.182C167.382 110.35 167.517 110.481 167.682 110.481H168.32C168.869 110.481 169.172 110.566 169.044 110.977C168.343 113.219 167.29 114.838 163.007 114.812C158.517 114.792 157.602 110.399 158.918 105.815C159.178 104.903 158.905 104.512 158.497 105.224L155.372 110.13C155.293 110.245 154.99 110.524 154.517 110.524L154.072 110.52C153.908 110.52 153.773 110.655 153.773 110.823C153.773 110.987 153.911 111.118 154.076 111.118C154.474 111.118 154.628 111.331 154.477 111.548L153.326 113.334C151.441 109.023 148.276 103.714 146.589 101.78L146.618 101.688C150.78 101.435 156.925 97.5447 157.928 94.0643C159.675 88.0263 153.799 85.7936 150.599 85.7936L136.522 85.8002C134.654 85.8002 134.516 87.212 136.312 87.212C137.279 87.212 138.128 88.0591 137.697 88.9161L134.578 94.524C134.322 94.987 133.358 94.9574 132.101 94.9574H130.736C130.571 94.9574 130.436 95.092 130.436 95.2562C130.436 95.4204 130.571 95.555 130.736 95.555H132.078C132.976 95.555 133.963 95.6108 133.631 96.2511L129.946 102.89C129.765 103.199 129.288 103.228 128.032 103.228L126.673 103.231C126.509 103.231 126.374 103.366 126.374 103.53C126.374 103.698 126.509 103.832 126.673 103.832L128.002 103.829C128.992 103.829 129.361 103.96 129.078 104.473L124.153 113.361C123.564 114.001 122.864 114.119 121.66 114.119C119.867 114.119 119.887 115.537 121.758 115.537H133.812C135.683 115.537 135.206 114.093 134.104 114.093C133.456 114.096 132.769 112.904 133.2 112.192L139.355 100.556H139.98C142.717 100.556 143.378 105.037 143.894 109.933C143.931 110.281 143.259 110.297 141.898 110.297L138.476 110.301C138.312 110.301 138.177 110.435 138.177 110.606C138.177 110.77 138.312 110.901 138.476 110.901H141.861C142.759 110.901 144.016 110.911 144.046 111.2C144.283 113.347 144.46 115.235 144.868 116.956C145 117.494 144.039 117.409 143.013 117.409L138.657 117.419C138.489 117.419 138.358 117.553 138.358 117.714C138.358 117.882 138.49 118.016 138.657 118.016L143.009 118.023C144.378 118.023 145.082 118.02 145.161 118.302C147.036 125.164 155.076 130.565 162.895 130.267C169.603 130.01 175.267 126.369 178.169 124.048C182.031 120.955 187.699 114.484 190.005 109.778C190.429 108.915 191.11 107.808 190.956 107.04" fill="#552583"/>
<path d="M77.976 76.7376C76.8476 78.1987 75.3475 78.5697 73.6665 78.5697H73.1895L76.1568 72.7089C76.2982 72.4397 76.6107 72.2328 76.9956 72.2328C77.3673 72.2328 77.3246 71.4908 76.8377 71.4908H72.1632C71.7651 71.4908 71.6237 72.2328 71.9954 72.2328C72.3935 72.2328 72.4691 72.6728 72.275 73.0405L69.6203 78.2709C69.4426 78.5532 69.1466 78.6255 68.8209 78.7076C68.4294 78.8094 68.1564 79.5153 68.6038 79.5153H76.0679C76.6436 79.5153 76.7785 79.3019 76.9298 79.0983L78.4299 76.7802C78.647 76.4979 78.1931 76.4552 77.976 76.7376ZM100.454 71.697C100.227 71.8185 99.694 71.8907 99.4638 71.697C98.8683 71.2012 97.6973 70.8203 97.0854 70.8203C95.3254 70.8203 94.049 71.1684 93.2859 72.8265C92.6312 74.235 93.3023 75.4203 94.855 76.1361C95.5261 76.4447 96.4176 76.8519 96.0754 77.6595C95.8255 78.2505 95.1379 78.3129 94.5162 78.3063C93.6839 78.2998 92.4306 77.6727 92.2365 76.5005C92.1707 76.1164 91.7233 76.2017 91.595 76.4119L90.5357 78.5198C90.3679 78.8022 90.8055 79.1173 90.9798 78.9302C91.3384 78.5493 92.118 78.4574 92.5029 78.7135C93.0326 79.0615 94.3912 79.6821 95.2037 79.6755C96.9867 79.6624 98.1611 79.2027 99.1348 77.676C100.03 76.2871 99.4802 74.9048 97.8551 74.1365C96.9933 73.7326 96.2597 73.0169 96.6446 72.2321C96.8913 71.72 97.6578 71.8283 98.0393 71.8972C98.7663 72.0187 99.6973 72.7017 99.8059 73.2992C99.8519 73.5553 100.178 73.6046 100.319 73.3781L100.878 72.0713C101.007 71.8184 100.595 71.6215 100.454 71.697ZM152.234 73.797L152.882 72.6019C153.165 72.0765 152.701 71.4823 151.957 71.4823H143.243C142.615 71.4823 142.799 72.1356 143.056 72.1356C143.615 72.1356 143.783 72.8153 143.444 73.3899L140.822 78.2033C140.43 78.6596 140.18 78.8599 139.621 78.8599C139.174 78.8599 139.013 79.5133 139.641 79.5133H148.474C148.829 79.5133 148.987 79.3853 149.115 79.2079L150.316 77.6155C150.609 77.2314 149.977 77.2314 149.783 77.4219C148.26 78.9453 146.628 78.8993 145.444 78.8993H144.414L145.625 76.207H145.881C146.658 76.207 147.552 76.1971 147.789 76.7881C147.852 76.926 148.237 77.0409 148.388 76.7881L149.418 74.7295C149.585 74.4241 149.122 74.3683 148.997 74.5883C148.589 75.3139 146.799 75.1202 146.329 75.1202H146.072L147.579 72.1554H149.257C150.299 72.1554 151.197 72.8908 151.49 73.6952C151.563 73.8857 152.119 74.04 152.234 73.797ZM109.154 75.3234L112.058 72.9529L112.072 75.3234H109.154ZM129.941 71.4819H126.839C126.21 71.4819 126.398 72.1353 126.655 72.1353C127.316 72.1353 127.918 72.9102 127.556 73.6259L126.273 75.9703L123.441 71.8365C123.25 71.5804 122.802 71.4556 122.421 71.4556H119.368C118.74 71.4556 118.888 72.1057 119.144 72.1057C119.789 72.1057 119.625 72.5884 119.463 72.9332L117.032 77.6053C116.878 77.9829 116.216 78.0322 116.009 77.5594L114.128 71.4392C114.049 71.1963 112.95 71.2094 112.67 71.4392L107.953 75.3202L105.512 75.3234C105.025 75.3234 104.834 75.5237 104.834 75.7798C104.834 76.0359 105.019 76.269 105.532 76.269L106.808 76.2657L105.532 77.3164C104.821 77.8451 104.094 78.5707 103.611 78.5707H103.315C102.851 78.5707 102.594 78.6429 102.594 79.0139C102.594 79.3849 102.788 79.513 103.222 79.513H107.029C107.742 79.513 107.604 78.5805 107.246 78.5805C106.854 78.5805 106.203 78.0814 106.805 77.3755L107.966 76.269H110.256C111.611 76.269 112.562 77.8418 111.752 78.3244L111.124 78.6725C110.831 78.8235 110.7 79.513 111.124 79.513H118.559C119.108 79.513 118.996 78.7874 118.74 78.7874C117.98 78.7874 118.338 77.694 118.483 77.4018L120.437 73.7113L123.181 79.0139C123.358 79.3521 123.519 79.513 123.842 79.513H124.891C125.227 79.513 125.335 79.3225 125.493 79.0665L128.615 73.4355C129.118 72.4308 129.503 72.1386 130.135 72.1386C130.391 72.1386 130.569 71.4819 129.941 71.4819ZM86.6596 76.1475C85.8306 77.7991 84.4423 78.7775 83.5607 78.3375C82.6758 77.8943 82.6331 76.1968 83.4588 74.5485C84.2878 72.897 85.676 71.9186 86.5609 72.3586C87.4425 72.7985 87.4886 74.496 86.6596 76.1475ZM85.9194 71.1273C83.3075 71.1273 80.6132 72.4144 80.077 75.1527C79.6099 77.5331 81.258 80.0055 84.1792 80.0055C86.9556 80.0055 89.5216 78.1898 90.038 75.5599C90.5545 72.92 88.584 71.1273 85.9194 71.1273ZM138.778 75.1215H135.419C134.791 75.1215 134.975 75.7749 135.232 75.7749C135.498 75.7749 135.745 75.9161 135.745 76.3364C135.745 77.6923 135.166 78.2144 134.001 78.2144C132.722 78.2144 132.261 76.668 133.123 74.7702C133.672 73.5553 135.126 72.4226 136.853 72.4226C137.909 72.4226 138.797 72.6491 138.932 73.6407C138.965 73.8804 139.33 73.8804 139.459 73.6539L140.255 72.2256C140.344 72.0745 140.205 71.894 139.962 71.8808C139.758 71.8677 139.298 72.1271 138.995 71.9071C138.324 71.4047 136.86 70.9254 135.758 70.9254C133.955 70.9254 131.439 71.3325 129.738 74.2744C128.202 76.9405 130.439 79.7576 132.514 79.7609C133.669 79.7641 135.008 78.9105 135.774 78.592L136.63 79.1666C136.758 79.3209 137.028 79.5114 137.284 79.5114H137.603C137.899 79.5114 138.015 79.114 138.13 78.858L139.446 75.6731C139.613 75.3546 139.521 75.1215 138.778 75.1215ZM184.778 71.697C184.551 71.8185 184.018 71.8907 183.788 71.697C183.192 71.2012 182.021 70.8203 181.409 70.8203C179.653 70.8203 178.373 71.1684 177.61 72.8265C176.955 74.235 177.626 75.4203 179.179 76.1361C179.85 76.4447 180.745 76.8519 180.399 77.6595C180.149 78.2505 179.462 78.3129 178.84 78.3063C178.008 78.2998 176.758 77.6727 176.56 76.5005C176.498 76.1164 176.051 76.2017 175.922 76.4119L174.856 78.5198C174.692 78.8022 175.129 79.1173 175.304 78.9302C175.662 78.5493 176.445 78.4574 176.827 78.7135C177.356 79.0615 178.715 79.6821 179.528 79.6755C181.311 79.6624 182.485 79.2027 183.462 77.676C184.354 76.2871 183.804 74.9048 182.179 74.1365C181.317 73.7326 180.584 73.0169 180.969 72.2321C181.219 71.72 181.985 71.8283 182.367 71.8972C183.09 72.0187 184.021 72.7017 184.13 73.2992C184.176 73.5553 184.502 73.6046 184.643 73.3781L185.206 72.0713C185.331 71.8184 184.919 71.6215 184.778 71.697ZM161.429 76.7376C160.301 78.1987 158.801 78.5697 157.12 78.5697H156.643L159.61 72.7089C159.752 72.4397 160.064 72.2328 160.449 72.2328C160.821 72.2328 160.775 71.4908 160.288 71.4908H155.617C155.219 71.4908 155.077 72.2328 155.449 72.2328C155.847 72.2328 155.919 72.6728 155.729 73.0405L153.074 78.2709C152.893 78.5532 152.6 78.6255 152.274 78.7076C151.88 78.8094 151.61 79.5153 152.057 79.5153H159.518C160.097 79.5153 160.229 79.3019 160.383 79.0983L161.883 76.7802C162.101 76.4979 161.647 76.4552 161.429 76.7376ZM172.683 72.1553C173.726 72.1553 174.624 72.8908 174.917 73.6952C174.989 73.8857 175.545 74.0367 175.66 73.797L176.311 72.6019C176.591 72.0798 176.127 71.4823 175.384 71.4823H166.669C166.041 71.4823 166.229 72.1324 166.482 72.1324C167.041 72.1324 167.209 72.8153 166.87 73.3899L164.252 78.2032C163.86 78.6596 163.607 78.8599 163.048 78.8599C162.6 78.8599 162.439 79.5133 163.071 79.5133H171.897C172.259 79.5133 172.413 79.3853 172.545 79.2047L173.742 77.6122C174.038 77.2347 173.403 77.2347 173.213 77.4218C171.686 78.9453 170.055 78.9026 168.87 78.9026H167.841L169.051 76.2037H169.308C170.084 76.2037 170.979 76.1971 171.212 76.7848C171.278 76.926 171.66 77.041 171.814 76.7848L172.847 74.7262C173.012 74.4208 172.545 74.3716 172.423 74.5883C172.015 75.3172 170.226 75.1202 169.755 75.1202H169.499L171.002 72.1554H172.683L172.683 72.1553Z" fill="#552583"/>
<path d="M101.874 100.284L99.519 100.265C99.3512 100.265 99.2163 100.399 99.2163 100.563C99.2163 100.728 99.3511 100.862 99.519 100.862L101.907 100.839C102.713 100.839 103.457 100.941 103.253 101.299L97.0616 113.099C96.2918 114.508 94.6634 114.15 94.4036 113.027L91.3376 97.2111L102.121 88.8583C103.193 87.939 105.253 86.4417 106.309 86.4614L108.661 86.4483C110.092 86.4385 110.598 87.1082 110.263 87.9685L109.848 88.7696C109.579 89.2162 108.73 89.272 108.013 89.272H106.654C106.49 89.272 106.355 89.4066 106.355 89.5773C106.355 89.7415 106.49 89.8761 106.654 89.8761H107.993C108.572 89.8761 109.299 89.8893 109.033 90.3227L104.029 99.8444C103.799 100.215 102.759 100.284 101.874 100.284ZM120.533 106.158C115.487 112.265 112.628 114.357 107.503 114.357C105.759 114.357 104.851 113.966 105.338 113.122L111.418 100.925H113.737C116.326 100.925 115.967 103.098 115.263 106.043C115.135 106.457 115.451 106.483 115.76 106.122L121.54 95.9864C121.819 95.3494 121.092 95.2214 120.734 95.7106C117.839 99.6277 114.793 99.3388 113.51 99.3388H112.464L118.951 86.9704H121.569C124.866 87.1772 126.402 89.9713 125.448 96.7022H126.82L131.59 87.3118C131.974 86.5205 131.159 85.7949 130.261 85.7949L97.8709 85.808C95.9991 85.808 95.9168 87.2396 97.7097 87.2396C99.167 87.2396 99.0913 89.3278 97.782 90.3358L84.0347 101.23L86.8078 114.097C87.0151 115.069 87.6368 115.532 88.7158 115.532H115.497C116.602 115.532 117.056 115.082 117.415 114.623L122.267 106.26C122.935 105.058 121.382 105.134 120.533 106.158" fill="#552583"/>
<mask id="mask0_3_936" style="mask-type:alpha" maskUnits="userSpaceOnUse" x="41" y="71" width="53" height="55">
<path d="M47.6955 125.231C43.9926 117.816 41.9062 109.433 41.9062 100.555C41.9062 89.8549 44.9374 79.8718 50.1769 71.4395H93.1516V125.231H47.6955Z" fill="white"/>
</mask>
<g mask="url(#mask0_3_936)">
<path d="M61.2787 102.644H52.7553L63.5354 88.4571L61.2787 102.644ZM59.305 111.457C59.0484 112.915 57.5812 113.883 55.7357 114.366L53.831 114.842L55.3936 112.032C55.8048 111.263 54.9035 110.81 53.9198 111.956C47.2945 119.649 45.1859 123.336 34.9716 123.359L32.228 123.366C31.3991 123.366 30.4878 123.044 31.0504 122.249L34.6657 115.535H48.3867C50.2585 115.535 49.7782 114.13 48.6762 114.09C47.9525 114.067 47.1564 113.65 46.5938 112.764C46.4392 112.517 46.0971 111.542 46.6333 110.79L51.8869 103.823H60.6241L59.3049 111.457H59.305ZM79.6381 114.09C78.9144 114.067 78.4473 113.568 78.2861 113.092C78.0558 112.399 78.0723 111.181 78.3552 110.643L90.8492 88.5227C91.0531 88.1156 91.5598 87.2553 92.1814 87.262C93.2835 87.2652 93.7605 85.8173 91.892 85.8173H81.8849C80.0131 85.8173 79.9934 87.2357 81.7863 87.2357C82.5198 87.2357 82.806 87.9515 82.6021 88.3881L79.8355 93.3887C79.4901 93.9403 78.7236 93.9797 77.9177 93.9797L75.5327 93.9731C75.3682 93.9731 75.2333 94.1077 75.2333 94.2752C75.2333 94.4393 75.3682 94.574 75.5327 94.574H77.8979C78.5394 94.574 79.0493 94.7644 78.6776 95.5097L69.4534 112.278C68.7889 113.2 67.4665 113.404 67.5422 111.641L70.8219 87.0781C70.9502 86.3098 70.7463 85.791 69.9271 85.791L64.9796 85.7975C64.3907 85.7975 64.0256 86.0865 63.7427 86.4673L61.9729 88.6869C61.7426 88.9167 61.2425 88.9167 60.6932 88.9167L56.5416 88.9102C56.3772 88.9102 56.2423 89.0448 56.2423 89.209C56.2423 89.3731 56.3772 89.5077 56.5417 89.5077H59.93C60.532 89.5077 61.2359 89.6489 60.9827 89.9313L56.2259 95.9038C56.0811 96.0712 55.6173 96.1172 55.3344 96.1172L53.9922 96.1106C53.8278 96.1106 53.6896 96.2452 53.6896 96.4061C53.6896 96.5768 53.8277 96.7114 53.9922 96.7114H55.114C55.4594 96.7114 55.4627 96.8822 55.3212 97.0365L50.8506 102.644C50.6204 102.861 50.173 102.907 49.7354 102.907L45.7911 102.904C45.6234 102.904 45.4918 103.035 45.4918 103.203C45.4917 103.242 45.4994 103.281 45.5144 103.317C45.5294 103.354 45.5515 103.387 45.5793 103.414C45.6071 103.442 45.6402 103.464 45.6765 103.479C45.7129 103.494 45.7519 103.502 45.7912 103.501H49.1795C49.6927 103.501 50.0907 103.597 49.821 103.941L43.4621 111.9C42.268 113.417 36.5111 114.189 35.3927 114.189L56.8903 74.0366C57.0976 73.5736 57.8936 72.871 58.7226 72.871H63.2854C65.4401 72.871 65.3776 71.4395 63.5058 71.4395H40.5574C38.6856 71.4395 38.6099 72.871 40.7646 72.871H45.0115C46.2155 72.871 46.607 73.5999 46.2945 74.1909L45.6892 75.2974C45.4819 75.6586 45.1991 75.803 44.0345 75.803L36.5243 75.7965C36.3598 75.7965 36.2249 75.9311 36.2249 76.0953C36.2249 76.2594 36.3598 76.394 36.5243 76.394H44.0148C44.4227 76.394 45.0313 76.5024 44.6464 77.2313L43.597 79.1816C43.4161 79.4738 42.9555 79.615 42.4324 79.615L39.0244 79.6084C38.8567 79.6084 38.7218 79.7398 38.7218 79.9072C38.7218 80.0714 38.8566 80.206 39.0244 80.206H42.4127C42.8996 80.206 42.9095 80.5278 42.6298 80.9743L40.212 85.4594C40.0047 85.8435 39.6133 85.8895 38.8435 85.8895L37.4849 85.8829C37.3204 85.8829 37.1855 86.0175 37.1855 86.185C37.1855 86.3525 37.3204 86.4871 37.4849 86.4871H38.8237C39.3369 86.4871 39.4718 86.7727 39.2415 87.2554L37.2546 90.936C36.9585 91.4646 36.5375 91.6748 35.215 91.6748L27.7081 91.6682C27.6688 91.668 27.6299 91.6756 27.5935 91.6906C27.5571 91.7055 27.5241 91.7275 27.4963 91.7553C27.4684 91.7831 27.4464 91.8161 27.4314 91.8524C27.4163 91.8887 27.4086 91.9277 27.4087 91.967C27.4087 92.1344 27.5404 92.2691 27.7081 92.2691H35.1953C36.044 92.2822 36.3565 92.6565 36.021 93.2573L32.1458 100.53C31.9155 100.848 31.2806 100.898 30.2049 100.898L22.698 100.891C22.5302 100.891 22.3953 101.026 22.3953 101.19C22.3953 101.354 22.5302 101.485 22.698 101.485L30.1852 101.492C31.0833 101.492 31.6293 101.528 31.3629 102.001L29.1292 106.194C28.718 106.834 27.5667 106.834 27.116 106.834L24.7343 106.827C24.5698 106.827 24.4349 106.955 24.4349 107.123C24.4349 107.29 24.5698 107.425 24.7343 107.425H27.0962C27.9285 107.425 28.3726 107.569 28.1522 108.019L25.1718 113.614C24.902 114.113 23.7342 114.136 22.8361 114.136L11.2271 114.13C11.0626 114.13 10.9277 114.264 10.9277 114.428C10.9277 114.593 11.0626 114.727 11.2271 114.727L22.8164 114.731C23.5862 114.731 24.5566 114.826 24.2014 115.436L22.2967 119.012C22.1158 119.307 21.4644 119.33 20.5302 119.33L18.1485 119.327C17.9807 119.327 17.8458 119.462 17.8458 119.626C17.8458 119.79 17.9806 119.925 18.1485 119.925H20.5104C21.0893 119.925 21.7901 119.99 21.5434 120.427L20.3558 122.709C19.9709 123.274 19.586 123.776 18.665 123.776H12.839C10.6876 123.776 10.76 125.214 12.6317 125.214L46.8405 125.231C47.8406 125.231 47.8735 125.096 48.3439 124.364L53.4165 115.535H79.3486C81.2204 115.535 80.7402 114.13 79.6381 114.09V114.09Z" fill="#552583"/>
</g>
<mask id="mask1_3_936" style="mask-type:alpha" maskUnits="userSpaceOnUse" x="120" y="85" width="30" height="46">
<path d="M141.274 130.275C146.747 121.717 149.925 111.513 149.925 100.556C149.925 95.2439 149.178 90.1085 147.785 85.252H120.335V130.275H141.274Z" fill="white"/>
</mask>
<g mask="url(#mask1_3_936)">
<path d="M145.855 97.8994C144.915 98.671 143.434 99.5575 143.148 99.2752C142.747 98.8778 141.503 98.0209 140.835 97.7156L146.418 87.524C146.648 87.1629 146.915 86.9691 147.53 86.9691C149.704 86.9691 150.418 89.3233 149.395 92.2553C148.681 94.3107 147.52 96.5336 145.855 97.8994ZM190.956 107.037C190.815 106.338 190.558 106.761 190.098 107.644C189.956 107.91 189.505 107.917 189.058 107.917L187.686 107.924C187.522 107.924 187.387 108.058 187.387 108.222C187.387 108.386 187.522 108.521 187.686 108.521H189.035C189.548 108.521 189.555 108.863 189.315 109.375C188.374 111.384 187.4 112.73 186.111 114.336C185.907 114.595 185.387 114.809 184.976 114.809L183.601 114.819C183.433 114.819 183.298 114.947 183.298 115.117C183.298 115.282 183.433 115.416 183.601 115.416H184.946C185.627 115.416 184.939 115.833 184.824 115.987C182.433 119.172 180.785 120.594 179.025 122.019C178.821 122.183 177.827 122.127 177.133 122.124L175.778 122.131C175.61 122.131 175.475 122.262 175.475 122.429C175.475 122.594 175.61 122.728 175.778 122.728H177.117C178.14 122.728 177.373 123.316 177.219 123.444C173.492 126.543 167.935 127.545 165.399 127.226C157.145 126.195 155.448 119.947 154.839 117.449C154.711 116.926 154.316 115.859 154.185 115.196C153.931 113.889 157.652 113.518 158.678 114.205C160.241 115.245 163.873 116.309 166.731 116.322C169.376 116.332 174.788 114.415 176.354 109.877C177.956 105.244 173.929 100.096 172.146 98.3197C169.876 96.0509 167.735 92.4425 168.636 89.7928C169.317 87.7999 170.458 86.8936 172.899 86.8936C176.054 86.8936 178.35 88.9162 178.35 91.7891C178.35 92.0452 178.192 92.3506 177.985 92.3506L176.87 92.3571C176.706 92.3571 176.571 92.4918 176.571 92.6559C176.571 92.8201 176.706 92.9547 176.87 92.9547H177.919C178.212 92.9547 178.396 93.1779 178.321 93.5358C178.113 94.4979 178.048 95.1743 177.837 96.1396C177.715 96.6977 178.538 97.0851 178.821 96.6748L183.778 87.8392C184.137 87.1727 183.341 86.9954 182.752 87.199C181.397 87.6718 179.186 87.9936 178.406 87.4321C176.551 86.109 174.863 85.252 172.271 85.252C167.866 85.252 164.777 86.3355 162.797 89.957C162.646 90.2394 162.211 90.2361 161.84 90.2361L160.994 90.2328C160.955 90.2327 160.915 90.2404 160.878 90.2555C160.842 90.2706 160.808 90.2929 160.78 90.3209C160.752 90.349 160.73 90.3824 160.715 90.4191C160.699 90.4558 160.692 90.4952 160.692 90.5349C160.692 90.6991 160.826 90.8337 160.994 90.8337L161.715 90.8271C162.021 90.8271 162.228 90.9125 162.073 91.2671C161.935 91.5954 161.817 91.9402 161.702 92.2947C161.198 93.8609 161.363 96.0575 162.146 98.0209C162.198 98.149 162.034 98.2114 161.731 98.2081L160.379 98.2146C160.215 98.2146 160.08 98.3493 160.08 98.5134C160.08 98.6809 160.215 98.8155 160.379 98.8155H161.725C162.34 98.8155 162.481 98.8779 162.738 99.2357C163.432 100.211 164.146 100.937 165.044 102.073C165.323 102.434 164.119 102.532 163.478 102.526H158.136C158.096 102.526 158.057 102.533 158.021 102.548C157.985 102.563 157.952 102.585 157.924 102.613C157.896 102.641 157.874 102.674 157.859 102.71C157.844 102.746 157.836 102.785 157.836 102.824C157.836 102.992 157.968 103.123 158.136 103.123L163.547 103.117C164.419 103.117 165.909 103.104 166.077 103.294C167.386 104.801 168.968 107.126 169.235 109.079C169.314 109.644 169.1 109.877 168.406 109.877H167.682C167.518 109.877 167.383 110.012 167.383 110.179C167.383 110.347 167.518 110.478 167.682 110.478H168.32C168.87 110.478 169.172 110.563 169.044 110.974C168.343 113.216 167.291 114.835 163.008 114.809C158.517 114.789 157.603 110.396 158.919 105.812C159.178 104.9 158.905 104.509 158.497 105.221L155.372 110.127C155.293 110.242 154.991 110.521 154.517 110.521L154.073 110.517C153.908 110.517 153.774 110.652 153.774 110.819C153.774 110.984 153.912 111.115 154.076 111.115C154.474 111.115 154.629 111.328 154.478 111.545L153.326 113.331C151.441 109.02 148.277 103.711 146.589 101.777L146.619 101.685C150.78 101.432 156.925 97.5416 157.928 94.0612C159.675 88.0231 153.8 85.7904 150.599 85.7904L136.523 85.797C134.654 85.797 134.516 87.2089 136.312 87.2089C137.279 87.2089 138.128 88.0559 137.697 88.9129L134.579 94.5209C134.322 94.9838 133.358 94.9543 132.101 94.9543H130.736C130.572 94.9543 130.437 95.0889 130.437 95.253C130.437 95.4172 130.572 95.5518 130.736 95.5518H132.078C132.976 95.5518 133.963 95.6077 133.631 96.2479L129.947 102.887C129.766 103.195 129.289 103.225 128.032 103.225L126.674 103.228C126.509 103.228 126.374 103.363 126.374 103.527C126.374 103.695 126.509 103.829 126.674 103.829L128.003 103.826C128.993 103.826 129.361 103.957 129.078 104.469L124.154 113.357C123.565 113.998 122.864 114.116 121.66 114.116C119.867 114.116 119.887 115.534 121.759 115.534H133.812C135.684 115.534 135.207 114.09 134.105 114.09C133.457 114.093 132.769 112.901 133.2 112.189L139.355 100.552H139.98C142.717 100.552 143.378 105.034 143.895 109.93C143.931 110.278 143.26 110.294 141.898 110.294L138.477 110.297C138.312 110.297 138.177 110.432 138.177 110.603C138.177 110.767 138.312 110.898 138.477 110.898H141.862C142.76 110.898 144.016 110.908 144.046 111.197C144.283 113.344 144.461 115.232 144.868 116.953C145 117.491 144.039 117.406 143.013 117.406L138.658 117.416C138.49 117.416 138.358 117.55 138.358 117.711C138.358 117.879 138.49 118.013 138.658 118.013L143.01 118.02C144.378 118.02 145.082 118.017 145.161 118.299C147.036 125.161 155.076 130.562 162.896 130.263C169.603 130.007 175.268 126.366 178.169 124.045C182.031 120.952 187.699 114.48 190.005 109.775C190.43 108.912 191.111 107.805 190.956 107.037" fill="#552583"/>
</g>
<path d="M77.976 76.7356C76.8476 78.1967 75.3476 78.5677 73.6665 78.5677H73.1895L76.1568 72.7069C76.2983 72.4377 76.6107 72.2309 76.9956 72.2309C77.3673 72.2309 77.3246 71.4888 76.8377 71.4888H72.1632C71.7651 71.4888 71.6237 72.2309 71.9954 72.2309C72.3935 72.2309 72.4691 72.6708 72.275 73.0386L69.6203 78.2689C69.4426 78.5513 69.1466 78.6236 68.8209 78.7056C68.4294 78.8074 68.1564 79.5133 68.6038 79.5133H76.0679C76.6436 79.5133 76.7785 79.2999 76.9298 79.0964L78.4299 76.7783C78.647 76.4959 78.1931 76.4532 77.976 76.7356ZM100.454 71.695C100.227 71.8165 99.694 71.8887 99.4638 71.695C98.8683 71.1993 97.6973 70.8184 97.0854 70.8184C95.3254 70.8184 94.049 71.1664 93.2859 72.8245C92.6312 74.2331 93.3023 75.4183 94.855 76.1341C95.5261 76.4428 96.4176 76.8499 96.0754 77.6576C95.8255 78.2486 95.1379 78.311 94.5162 78.3044C93.6839 78.2978 92.4306 77.6707 92.2365 76.4986C92.1707 76.1144 91.7233 76.1998 91.595 76.4099L90.5358 78.5178C90.3679 78.8002 90.8055 79.1154 90.9798 78.9282C91.3384 78.5473 92.118 78.4554 92.5029 78.7115C93.0326 79.0596 94.3912 79.6801 95.2037 79.6736C96.9867 79.6604 98.1611 79.2008 99.1348 77.674C100.03 76.2852 99.4802 74.9028 97.8551 74.1346C96.9933 73.7307 96.2597 73.0149 96.6446 72.2302C96.8913 71.718 97.6578 71.8264 98.0393 71.8953C98.7663 72.0168 99.6973 72.6997 99.8059 73.2973C99.8519 73.5534 100.178 73.6026 100.319 73.3761L100.878 72.0693C101.007 71.8165 100.595 71.6195 100.454 71.695Z" fill="#552583"/>
<mask id="mask2_3_936" style="mask-type:alpha" maskUnits="userSpaceOnUse" x="139" y="71" width="7" height="9">
<path d="M145.786 79.5096C144.64 76.7243 143.266 74.0381 141.679 71.4785H139.226V79.5095H145.786V79.5096Z" fill="white"/>
</mask>
<g mask="url(#mask2_3_936)">
<path d="M152.234 73.7933L152.882 72.5981C153.165 72.0728 152.701 71.4785 151.957 71.4785H143.243C142.615 71.4785 142.799 72.1319 143.056 72.1319C143.615 72.1319 143.783 72.8115 143.444 73.3861L140.822 78.1996C140.431 78.6559 140.181 78.8562 139.621 78.8562C139.174 78.8562 139.013 79.5096 139.641 79.5096H148.474C148.829 79.5096 148.987 79.3816 149.115 79.2043L150.316 77.6118C150.609 77.2277 149.977 77.2277 149.783 77.4182C148.26 78.9416 146.628 78.8956 145.444 78.8956H144.414L145.625 76.2033H145.881C146.658 76.2033 147.553 76.1934 147.789 76.7844C147.852 76.9223 148.237 77.0373 148.388 76.7844L149.418 74.7258C149.586 74.4204 149.122 74.3646 148.997 74.5846C148.589 75.3102 146.799 75.1165 146.329 75.1165H146.072L147.579 72.1517H149.257C150.299 72.1517 151.198 72.8871 151.49 73.6915C151.563 73.882 152.119 74.0363 152.234 73.7933" fill="#552583"/>
</g>
<path d="M109.154 75.3215L112.058 72.9509L112.072 75.3215H109.154ZM129.941 71.4799H126.839C126.21 71.4799 126.398 72.1333 126.655 72.1333C127.316 72.1333 127.918 72.9082 127.556 73.624L126.273 75.9683L123.441 71.8346C123.25 71.5785 122.802 71.4537 122.421 71.4537H119.368C118.74 71.4537 118.888 72.1038 119.144 72.1038C119.789 72.1038 119.625 72.5864 119.463 72.9312L117.032 77.6034C116.878 77.981 116.217 78.0302 116.009 77.5574L114.128 71.4373C114.049 71.1943 112.95 71.2074 112.67 71.4373L107.953 75.3182L105.512 75.3215C105.025 75.3215 104.834 75.5218 104.834 75.7778C104.834 76.034 105.019 76.2671 105.532 76.2671L106.808 76.2638L105.532 77.3145C104.821 77.8431 104.094 78.5687 103.611 78.5687H103.315C102.851 78.5687 102.594 78.641 102.594 79.012C102.594 79.383 102.788 79.511 103.223 79.511H107.029C107.742 79.511 107.604 78.5785 107.246 78.5785C106.854 78.5785 106.203 78.0795 106.805 77.3736L107.966 76.2671H110.256C111.611 76.2671 112.562 77.8398 111.753 78.3224L111.124 78.6705C110.831 78.8215 110.7 79.511 111.124 79.511H118.559C119.108 79.511 118.996 78.7854 118.74 78.7854C117.98 78.7854 118.338 77.6921 118.483 77.3998L120.437 73.7094L123.181 79.012C123.358 79.3502 123.52 79.511 123.842 79.511H124.891C125.227 79.511 125.335 79.3206 125.493 79.0645L128.615 73.4336C129.119 72.4289 129.503 72.1366 130.135 72.1366C130.392 72.1366 130.569 71.4799 129.941 71.4799ZM86.6596 76.1456C85.8306 77.7971 84.4424 78.7756 83.5608 78.3356C82.6759 77.8924 82.6331 76.1948 83.4588 74.5466C84.2878 72.8951 85.676 71.9167 86.561 72.3566C87.4426 72.7966 87.4886 74.4941 86.6596 76.1456ZM85.9195 71.1254C83.3075 71.1254 80.6133 72.4124 80.0771 75.1508C79.6099 77.5312 81.258 80.0035 84.1793 80.0035C86.9557 80.0035 89.5216 78.1878 90.0381 75.5579C90.5545 72.9181 88.5841 71.1254 85.9195 71.1254ZM138.778 75.1195H135.419C134.791 75.1195 134.975 75.7729 135.232 75.7729C135.498 75.7729 135.745 75.9141 135.745 76.3344C135.745 77.6904 135.166 78.2125 134.001 78.2125C132.722 78.2125 132.261 76.666 133.123 74.7682C133.672 73.5534 135.126 72.4206 136.853 72.4206C137.909 72.4206 138.798 72.6472 138.932 73.6388C138.965 73.8784 139.33 73.8784 139.459 73.6519L140.255 72.2236C140.344 72.0726 140.206 71.892 139.962 71.8789C139.758 71.8658 139.298 72.1251 138.995 71.9051C138.324 71.4028 136.86 70.9234 135.758 70.9234C133.955 70.9234 131.439 71.3306 129.738 74.2724C128.202 76.9385 130.439 79.7556 132.514 79.7589C133.669 79.7622 135.008 78.9086 135.774 78.5901L136.63 79.1646C136.758 79.3189 137.028 79.5094 137.284 79.5094H137.603C137.9 79.5094 138.015 79.1121 138.13 78.856L139.446 75.6711C139.613 75.3526 139.521 75.1195 138.778 75.1195H138.778ZM184.778 71.695C184.551 71.8165 184.018 71.8887 183.788 71.695C183.192 71.1993 182.021 70.8184 181.409 70.8184C179.653 70.8184 178.373 71.1664 177.61 72.8245C176.955 74.2331 177.626 75.4183 179.179 76.1341C179.85 76.4428 180.745 76.8499 180.399 77.6576C180.149 78.2486 179.462 78.311 178.84 78.3044C178.008 78.2978 176.758 77.6707 176.56 76.4986C176.498 76.1144 176.051 76.1998 175.922 76.4099L174.856 78.5178C174.692 78.8002 175.13 79.1154 175.304 78.9282C175.662 78.5473 176.445 78.4554 176.827 78.7115C177.357 79.0596 178.715 79.6801 179.528 79.6736C181.311 79.6604 182.485 79.2008 183.462 77.674C184.354 76.2852 183.804 74.9028 182.179 74.1346C181.317 73.7307 180.584 73.0149 180.969 72.2302C181.219 71.718 181.985 71.8264 182.367 71.8953C183.09 72.0168 184.021 72.6997 184.13 73.2973C184.176 73.5534 184.502 73.6026 184.643 73.3761L185.206 72.0693C185.331 71.8165 184.919 71.6195 184.778 71.695H184.778ZM161.43 76.7356C160.301 78.1967 158.801 78.5677 157.12 78.5677H156.643L159.61 72.7069C159.752 72.4377 160.064 72.2309 160.449 72.2309C160.821 72.2309 160.775 71.4888 160.288 71.4888H155.617C155.219 71.4888 155.077 72.2309 155.449 72.2309C155.847 72.2309 155.919 72.6708 155.729 73.0386L153.074 78.2689C152.893 78.5513 152.6 78.6236 152.274 78.7056C151.88 78.8074 151.61 79.5133 152.057 79.5133H159.518C160.097 79.5133 160.229 79.2999 160.383 79.0964L161.883 76.7783C162.101 76.4959 161.647 76.4532 161.43 76.7356ZM172.683 72.1534C173.726 72.1534 174.624 72.8888 174.917 73.6933C174.989 73.8837 175.545 74.0347 175.66 73.7951L176.311 72.5999C176.591 72.0779 176.127 71.4803 175.384 71.4803H166.67C166.041 71.4803 166.229 72.1304 166.482 72.1304C167.041 72.1304 167.209 72.8133 166.87 73.3879L164.252 78.2013C163.86 78.6577 163.607 78.858 163.048 78.858C162.6 78.858 162.439 79.5114 163.071 79.5114H171.897C172.259 79.5114 172.413 79.3833 172.545 79.2027L173.742 77.6103C174.038 77.2327 173.403 77.2327 173.213 77.4199C171.686 78.9433 170.055 78.9007 168.87 78.9007H167.841L169.051 76.2017H169.308C170.084 76.2017 170.979 76.1952 171.213 76.7829C171.278 76.9241 171.66 77.039 171.815 76.7829L172.847 74.7242C173.012 74.4189 172.545 74.3696 172.423 74.5863C172.015 75.3152 170.226 75.1182 169.755 75.1182H169.499L171.002 72.1534H172.683L172.683 72.1534Z" fill="#552583"/>
<path d="M105.297 51.4045C101.185 51.1122 97.8262 50.9941 94.8886 51.3027C95.7406 49.1619 97.4413 47.1624 98.7539 46.2857C101.553 46.4007 104.448 46.8078 106.738 47.2609C114.074 48.7055 125.472 53.1643 130.384 59.7442C123.837 55.3806 112.958 51.9495 105.297 51.4045ZM92.9839 51.5588C90.5101 51.7098 86.0296 52.6817 84.4309 53.1446C84.0196 52.0677 82.888 48.7417 82.5261 47.668C87.0757 46.3809 92.3654 45.9311 96.4347 46.2857C95.3031 47.1558 93.3951 50.5836 92.9839 51.5588ZM72.2724 57.6461C71.7658 56.7925 69.3545 54.5992 68.0485 54.1658C71.0881 51.9167 78.1476 48.6924 80.8254 48.131C81.2893 48.896 82.5261 52.1728 82.9374 53.5518C80.5688 54.064 74.2823 56.3164 72.2724 57.6461H72.2724ZM138.371 65.1158C137.7 64.3474 136.772 62.7123 130.127 56.9303C120.357 48.4297 107.409 44.5488 95.2504 44.5488C86.2862 44.5488 78.4404 46.555 69.7492 51.3355C58.6731 57.4163 54.0873 64.4098 52.9557 65.8315C52.1202 66.8789 52.0017 67.4896 52.5412 67.8015C52.9294 68.0248 53.6728 67.2105 54.3703 66.2912C57.6632 61.9506 61.9956 57.6461 66.555 55.1147C67.9729 55.3182 69.9565 57.2882 70.7263 58.3356C67.8084 59.9248 62.9759 63.5955 61.1469 65.014C59.5646 66.2354 59.0185 66.9216 59.4461 67.4174C59.7981 67.8311 61.0087 67.0168 62.0219 66.1894C63.772 64.7579 68.9762 61.0739 71.552 59.6916C73.3053 61.7405 72.7362 65.5229 72.1178 66.3437C71.7855 66.7837 71.7395 67.2532 72.1178 67.4699C72.4796 67.6735 72.8711 67.1547 73.381 66.4192C74.5751 64.6987 74.0981 60.5289 73.0718 59.0284C76.2134 57.0814 80.7234 55.7779 83.4538 55.1639C83.6841 55.6006 86.9935 65.2536 87.6251 67.007C87.9705 67.969 88.3126 69.1181 89.0166 68.9015C89.4837 68.757 89.1745 67.7063 88.783 66.6491C88.3027 65.3423 85.796 57.2357 85.023 54.8323C85.9276 54.3463 91.3654 53.2432 92.7273 53.2957C92.0562 56.8286 94.5596 58.2765 97.3887 60.1283C98.892 61.1133 108.452 66.5932 110.448 67.8278C111.587 68.5304 112.472 68.9836 112.715 68.6453C112.995 68.2678 112.218 67.4699 111.169 66.8559C110.33 66.3667 101.438 61.2152 97.7209 58.8741C95.0629 57.1963 93.6319 55.4003 94.2701 53.0396C95.1484 52.7867 97.8262 52.7638 100.609 52.7867C119.567 52.9378 134.765 63.786 136.466 65.5229C137.325 66.4061 138.525 67.1613 138.989 66.8034C139.282 66.5768 138.775 65.5787 138.371 65.1157V65.1158ZM142.472 129.894C143.173 128.607 143.742 127.875 143.143 127.543C142.594 127.238 142.058 128.433 141.39 129.589C139.176 133.424 136.758 136.592 131.294 141.563C125.241 147.063 118.284 150.257 115.866 151.078C113.803 145.296 105.948 120.671 105.74 119.968C105.431 118.921 105.168 118.616 104.813 118.744C104.415 118.885 104.658 119.456 104.865 120.379C105.069 121.298 114.422 150.438 114.731 151.459C112.876 152.385 105.339 154.483 100.072 154.657C95.3879 154.811 89.8745 154.657 87.0915 154.02C83.8315 151.39 76.4134 140.936 73.5975 135.371C70.2782 128.81 68.0807 122.776 67.5149 120.221C67.2419 118.997 66.8932 118.113 66.278 118.228C65.6135 118.356 65.9952 119.325 66.3833 120.638C67.3801 124.007 69.0084 128.784 72.4625 135.6C76.1239 142.817 82.6604 151.282 84.5651 153.583C78.5944 152.332 71.3342 149.542 64.4359 144.41C58.4948 139.987 53.3893 134.356 50.8234 130.255C50.3826 129.549 49.8661 128.551 49.2279 128.975C48.9384 129.165 49.2937 129.963 49.7411 130.767C53.4682 137.449 62.5608 146.912 74.2126 152.103C87.7922 158.151 102.599 157.829 115.84 152.713C127.419 148.238 137.495 139.032 142.472 129.894Z" fill="black"/>
<mask id="mask3_3_936" style="mask-type:alpha" maskUnits="userSpaceOnUse" x="52" y="45" width="88" height="24">
<path d="M139.076 67.6549C129.22 54.402 113.555 45.834 95.9123 45.834C77.9487 45.834 62.032 54.7226 52.2134 68.3965V68.9288H139.076V67.6549H139.076Z" fill="white"/>
</mask>
<g mask="url(#mask3_3_936)">
<path d="M105.297 51.4064C101.185 51.1142 97.8262 50.996 94.8885 51.3046C95.7406 49.1639 97.4413 47.1643 98.7538 46.2876C101.553 46.4025 104.448 46.8097 106.738 47.2628C114.074 48.7075 125.472 53.1662 130.384 59.7461C123.837 55.3825 112.958 51.9514 105.297 51.4064ZM92.9838 51.5607C90.51 51.7117 86.0296 52.6836 84.4308 53.1466C84.0196 52.0696 82.888 48.7436 82.5262 47.6699C87.0757 46.3828 92.3654 45.933 96.4347 46.2876C95.3031 47.1577 93.395 50.5855 92.9838 51.5607ZM72.2724 57.648C71.7658 56.7944 69.3545 54.6011 68.0485 54.1677C71.0881 51.9186 78.1477 48.6943 80.8254 48.1329C81.2892 48.8979 82.5261 52.1747 82.9373 53.5537C80.5688 54.0659 74.2823 56.3183 72.2724 57.648ZM138.371 65.1177C137.7 64.3493 136.772 62.7142 130.127 56.9322C120.357 48.4317 107.409 44.5508 95.2504 44.5508C86.2862 44.5508 78.4404 46.5569 69.7492 51.3375C58.6731 57.4182 54.0873 64.4118 52.9557 65.8335C52.1201 66.8808 52.0017 67.4915 52.5412 67.8035C52.9294 68.0267 53.6728 67.2125 54.3702 66.2931C57.6632 61.9525 61.9956 57.648 66.555 55.1166C67.9728 55.3202 69.9565 57.2902 70.7262 58.3376C67.8084 59.9267 62.9759 63.5975 61.1469 65.0159C59.5646 66.2373 59.0185 66.9235 59.4461 67.4193C59.7981 67.833 61.0087 67.0188 62.0219 66.1913C63.772 64.7598 68.9762 61.0759 71.552 59.6936C73.3053 61.7424 72.7362 65.5248 72.1178 66.3457C71.7855 66.7856 71.7394 67.2551 72.1178 67.4718C72.4796 67.6754 72.8711 67.1566 73.381 66.4212C74.5751 64.7007 74.0981 60.5308 73.0717 59.0303C76.2133 57.0833 80.7235 55.7798 83.4538 55.1658C83.6841 55.6025 86.9934 65.2556 87.625 67.0089C87.9705 67.9709 88.3126 69.1201 89.0166 68.9034C89.4837 68.7589 89.1745 67.7083 88.783 66.651C88.3027 65.3443 85.796 57.2376 85.023 54.8342C85.9276 54.3483 91.3654 53.2451 92.7273 53.2976C92.0562 56.8305 94.5596 58.2785 97.3887 60.1303C98.892 61.1153 108.452 66.5952 110.448 67.8297C111.587 68.5323 112.472 68.9855 112.715 68.6473C112.995 68.2697 112.218 67.4718 111.169 66.8579C110.33 66.3687 101.438 61.2171 97.7209 58.8761C95.0629 57.1982 93.6319 55.4023 94.2701 53.0415C95.1484 52.7887 97.8262 52.7657 100.609 52.7887C119.567 52.9397 134.765 63.7879 136.466 65.5248C137.325 66.408 138.525 67.1632 138.989 66.8053C139.282 66.5788 138.775 65.5806 138.371 65.1177" fill="black"/>
</g>
<mask id="mask4_3_936" style="mask-type:alpha" maskUnits="userSpaceOnUse" x="49" y="118" width="95" height="38">
<path d="M49.123 127.905C58.4593 144.271 75.9179 155.283 95.9123 155.283C116.414 155.283 134.246 143.712 143.395 126.665V118.221H49.123V127.905Z" fill="white"/>
</mask>
<g mask="url(#mask4_3_936)">
<path d="M142.472 129.896C143.173 128.609 143.742 127.877 143.143 127.546C142.594 127.24 142.058 128.435 141.39 129.591C139.176 133.426 136.758 136.595 131.294 141.565C125.241 147.065 118.284 150.26 115.866 151.081C113.803 145.299 105.948 120.674 105.74 119.971C105.431 118.924 105.168 118.618 104.813 118.746C104.415 118.887 104.658 119.459 104.865 120.381C105.069 121.301 114.422 150.44 114.731 151.462C112.876 152.387 105.339 154.486 100.072 154.66C95.3879 154.814 89.8745 154.66 87.0915 154.023C83.8315 151.393 76.4134 140.938 73.5975 135.373C70.2782 128.813 68.0807 122.778 67.5149 120.224C67.2419 118.999 66.8932 118.116 66.278 118.231C65.6135 118.359 65.9951 119.327 66.3833 120.641C67.3801 124.009 69.0084 128.787 72.4625 135.603C76.1239 142.82 82.6604 151.284 84.5651 153.586C78.5944 152.335 71.3342 149.544 64.4358 144.412C58.4948 139.99 53.3893 134.359 50.8233 130.258C50.3825 129.552 49.8661 128.554 49.2279 128.977C48.9384 129.168 49.2937 129.965 49.7411 130.77C53.4682 137.451 62.5608 146.914 74.2126 152.105C87.7922 158.153 102.599 157.831 115.84 152.716C127.419 148.241 137.495 139.034 142.472 129.896" fill="black"/>
</g>
</svg>
