<svg width="200" height="200" viewBox="0 0 200 200" fill="none" xmlns="http://www.w3.org/2000/svg">
<path d="M185.209 49.2193C187.636 44.64 188.792 40.0495 188.792 35.6589C188.792 25.6532 183.211 16.7004 175.368 11.3626C164.46 3.9381 148.07 2.91361 136.485 16.7683C119.572 14.457 105.391 19.1098 100 21.3249C94.6094 19.1098 80.4264 14.457 63.5152 16.7683C51.9302 2.91361 35.5396 3.9381 24.6321 11.3627C16.7868 16.7004 11.2076 25.6532 11.2076 35.6589C11.2076 40.0495 12.3642 44.64 14.7906 49.2193C6.04907 61.8362 0 76.7985 0 92.0363C0 110.389 7.83586 119.836 10.7906 123.9C10.7906 123.9 12.0604 122.631 13.1566 121.536C21.4547 142.659 35.6661 154.025 52.8188 164.385C52.8188 164.385 53.1981 162.297 53.5377 160.427C72.0057 176.432 80.8057 172.497 100 194.208C119.125 172.578 128.157 176.295 146.462 160.427C146.703 161.746 146.943 163.066 147.181 164.385C154.817 159.774 176.36 148.219 186.845 121.536C187.938 122.631 189.208 123.9 189.208 123.9C191.019 121.412 200 111.391 200 92.0363C200 76.8023 193.953 61.8381 185.209 49.2193Z" fill="#707271"/>
<path d="M179.925 49.4803C197.542 22.4406 157.591 -5.71407 138.234 21.5237C118.682 18.0595 102.21 25.186 100 26.2142C97.7928 25.186 81.3174 18.0595 61.7645 21.5237C42.4079 -5.71407 2.45888 22.4406 20.074 49.4803C0.00227356 77.0425 2.02493 104.22 11.3325 117.005L15.1815 113.154C15.1815 113.154 20.6513 139.72 49.5608 157.169L50.6022 151.439C68.3985 170.448 84.657 170.02 100 187.38C115.342 170.02 131.602 170.448 149.397 151.439L150.438 157.169C179.348 139.72 184.819 113.154 184.819 113.154L188.668 117.005C198.002 104.182 200.014 77.0652 179.925 49.4803" fill="#12173F"/>
<path d="M100.178 150.587C100.178 150.587 86.2973 150.796 84.2463 152.08C84.2463 152.08 81.8614 156.208 100.178 156.13C117.601 156.051 115.031 152.876 115.158 152.406C115.158 152.406 109.261 150.587 100.178 150.587ZM88.1437 134.457C88.1437 134.457 90.3079 128.187 92.6192 130.17C95.8286 132.918 100 138.506 100 139.104V146.57L94.9399 146.835C92.0343 146.918 82.6588 149.157 82.6588 149.157C69.7512 117.195 76.9078 93.0082 80.355 84.378C67.5588 87.1516 65.4946 71.7931 65.4946 71.7931C66.8229 71.5214 68.7814 72.1025 70.989 73.1591C74.4097 74.795 78.4323 77.5724 81.6399 80.0629H81.6418C82.5214 80.7467 83.3882 81.4469 84.2418 82.1629C92.9418 89.4836 100 87.9988 100 87.9988V119.282C100 119.282 74.6154 117.316 88.1437 134.457H88.1437ZM111.934 134.463C128.089 118.072 101.728 119.029 100.06 119.285C102.766 119.438 123.202 119.551 111.934 134.463Z" fill="#5D76A9"/>
<path d="M122.668 84.8741C137.208 124.027 118.776 149.219 118.672 149.359C130.115 119.397 122.761 94.4779 117.753 85.2232C115.182 85.4797 112.095 85.3307 112.095 85.3307C112.095 85.3307 115.959 82.9439 118.463 80.6684C118.636 80.5099 118.832 80.3325 119.049 80.1401C121.129 78.2948 125.098 75.0477 129.917 73.1703C131.678 72.4835 133.555 71.9779 135.493 71.793C135.493 71.793 134.106 84.6967 122.668 84.8741Z" fill="#5D76A9"/>
<path d="M32.6974 46.7341C32.1728 41.785 38.4257 36.8793 38.4257 36.8793C35.8464 34.217 31.3464 36.5246 31.3464 36.5246C35.4314 28.5359 44.5804 32.4416 44.5804 32.4416C41.1125 28.1925 33.7672 28.4605 33.7672 28.4605C42.8559 19.4529 53.8275 33.2208 53.8275 33.2208C44.0577 35.4341 32.6974 46.7341 32.6974 46.7341ZM145.688 34.2095C145.688 34.2095 151.62 19.3793 169.795 22.9604C169.795 22.9604 153.109 11.9793 141.497 31.8303C141.497 31.8303 124.839 24.0152 99.9992 34.7548C99.9992 34.7548 76.6558 26.551 58.9143 31.1963C58.9143 31.1963 48.5672 13.2435 33.9936 20.6379C19.4237 28.0284 27.0256 45.134 29.5634 49.568C29.5634 49.568 5.41808 74.1661 14.4954 104.583L19.3539 98.5227C19.3539 98.5227 26.2898 131.645 44.186 142.085L45.2596 133.942C45.2596 133.942 63.9426 156.485 85.9124 166.059C88.003 167.038 99.6407 172.823 99.9992 175.677V159.904C99.9992 159.904 84.7596 161.172 80.7388 154.138C78.0068 149.353 60.4841 118.094 69.1426 85.3567C69.1426 85.3567 60.7124 84.0963 59.1237 69.8755C59.1237 69.8755 52.8388 66.8152 45.0256 67.4492C45.0256 67.4492 58.9992 63.0624 72.0954 68.134C85.1879 73.202 88.6954 86.1076 97.5671 80.4039L99.9992 44.0472L102.677 80.4039C111.548 86.1077 115.058 73.202 128.15 68.134C141.246 63.0624 155.224 67.4492 155.224 67.4492C155.224 67.4492 149.633 63.5076 140.65 61.7114C133.152 60.2114 122.131 65.0303 122.131 65.0303C122.131 65.0303 123.656 54.7152 128.658 49.2171C132.954 44.4887 142.682 43.4454 145.688 34.2095Z" fill="#5D76A9"/>
<path d="M81.6393 80.062C80.2356 79.6243 77.9186 81.0733 76.6262 83.5884C72.2884 82.3356 70.8035 77.6507 70.9866 73.1601L70.9884 73.1582C74.4092 74.794 78.4318 77.5714 81.6394 80.0619L81.6393 80.062ZM124.277 83.5896C122.917 80.9424 120.419 79.4669 119.049 80.1405C121.128 78.2952 125.1 75.048 129.917 73.1707C130.113 77.6612 128.591 82.3442 124.277 83.5896Z" fill="#FFBB22"/>
</svg>
