<svg width="200" height="200" viewBox="0 0 200 200" fill="none" xmlns="http://www.w3.org/2000/svg">
<path d="M152.72 19L135.078 36.5486L106.699 21.693L101.572 49.8738L72.7764 56.1069L88.8817 65.8042L70.8127 74.8622L85.5143 76.1328L18.909 127.888L70.3127 100.61L14.6737 142.927L74.0881 111.977L8.67064 161.119L76.5438 124.983L0 180.373L90.6495 130.78L32.4748 177.716L118.685 128.219L117.581 135.995L131.123 128.483L157.883 153.763L172.08 111.146L190.462 108.517L182.547 83.9601L200 68.7929L177.352 59.2395L183.743 32.1494L162.302 41.9586L152.72 19Z" fill="#FEFEFE"/>
<path d="M26.8818 163.39L109.309 118.292L53.4136 163.39L121.235 124.449L120.123 132.3L131.433 126.023L156.977 150.156L170.575 109.346L187.832 106.872L180.241 83.3144L196.271 69.3898L175.018 60.4237L180.857 35.6671L161.248 44.6332L152.022 22.5137L135.448 38.9995L108.181 24.7273L103.302 51.5416L78.1216 56.9915L93.0192 65.9656L78.0257 73.4813L90.7676 74.5841L38.372 115.295L91.0756 87.326L34.5446 130.322L94.7189 98.9811L30.4373 147.268L101.278 109.553L26.8818 163.39Z" fill="#F9A01B"/>
<path d="M177.715 83.6787C176.783 106.31 157.662 123.898 135.006 122.955C112.357 122.028 94.7563 102.921 95.6961 80.2945C96.628 57.6595 115.749 40.0789 138.397 41.0099C161.05 41.9529 178.655 61.0478 177.715 83.6787" fill="#E56020"/>
<path d="M141.731 117.362C119.086 116.427 101.481 97.3205 102.413 74.6936C102.845 64.2172 107.172 54.8435 113.939 47.8633C103.405 54.8915 96.25 66.6665 95.6941 80.2954C94.7543 102.918 112.359 122.021 135.004 122.956C147.178 123.46 158.324 118.605 166.183 110.502C159.208 115.157 150.757 117.734 141.731 117.362Z" fill="#B95915"/>
<path d="M177.737 82.4642C177.757 80.9938 177.697 79.5474 177.561 78.109C175.193 76.4628 172.378 75.2082 169.046 74.7766C168.414 74.7008 167.806 74.6608 167.194 74.6129C166.797 71.9212 166.187 69.2651 165.371 66.6697C165.791 66.7056 166.223 66.7216 166.651 66.7456C169.538 66.9613 172.382 67.285 175.189 67.6965C174.801 66.6497 174.357 65.6308 173.889 64.6279C170.738 64.1444 167.53 63.7728 164.283 63.5291H164.251C163.211 60.8921 161.943 58.3508 160.456 55.9335C162.551 55.502 164.423 54.643 165.939 53.2125C165.167 52.4294 164.359 51.6703 163.519 50.9471C162.203 52.1577 160.496 52.805 158.536 53.0687C158.232 52.6412 157.936 52.2256 157.62 51.8141C154.832 48.1941 151.617 45.0975 148.078 42.5843C144.986 41.6893 141.755 41.1459 138.395 41.01C138.211 41.0021 138.027 41.01 137.839 40.998C144.078 43.4513 149.649 47.5708 154.129 53.0807C149.857 52.6691 144.934 51.2387 140.063 49.8123C138.623 49.3848 137.211 48.9692 135.848 48.5937C127.553 46.3042 121.178 45.9366 116.391 46.3561C112.835 48.3779 109.616 50.9231 106.82 53.8838C111.991 51.7342 122.414 48.0503 135.064 51.5504C136.407 51.9219 137.803 52.3295 139.223 52.745C144.814 54.3912 151.081 56.2212 156.508 56.2772C158.004 58.5027 159.296 60.8521 160.364 63.3014C159.304 63.2534 158.24 63.2255 157.188 63.2015C130.828 62.75 108.232 70.6293 95.6899 83.1994C95.7619 85.6966 96.0459 88.1379 96.5458 90.5153C100.081 85.4409 105.32 80.8619 112.079 77.0582C124.837 69.8941 141.767 66.1223 159.752 66.4379C160.368 66.4459 160.991 66.4699 161.611 66.4939C162.519 69.095 163.199 71.784 163.631 74.549C152.045 75.0364 144.534 82.2564 135.912 89.9399C128.173 96.8642 118.726 103.757 104.908 107.904C106.208 109.506 107.624 111.001 109.156 112.383C122.178 107.145 130.828 98.9859 138.139 92.4571C146.434 85.0413 153.561 77.9372 164.023 77.5856C164.291 80.4744 164.303 83.4191 164.039 86.3918C162.631 102.458 153.321 116.079 140.623 122.796C143.874 122.496 147.018 121.805 150.009 120.774C151.025 119.935 152.021 119.048 152.977 118.109C161.303 109.918 166.475 98.7581 167.53 86.6995C167.794 83.6788 167.794 80.6822 167.55 77.7294C168.07 77.7853 168.59 77.8333 169.126 77.9212C172.694 78.5046 175.521 80.2986 177.737 82.4642" fill="black"/>
</svg>
