<svg width="200" height="200" viewBox="0 0 200 200" fill="none" xmlns="http://www.w3.org/2000/svg">
<path d="M157.506 0L144.983 22.2057L142.672 39.3238L122.794 74.7495H101.721L120.208 42.0383V0H94.5742L82.5578 22.0625L80.401 39.3349L50.1897 93.2166L56.374 108.71H72.7699L67.4054 122.299L49.1883 102.593L51.4277 132.766L18.7515 134.137L44.9904 152.61L26.5038 180.189L56.7591 170.295L69.111 200L78.4314 167.977L112.351 176.726L90.3707 151.288L116.967 129.319L92.2083 130.856L111.801 108.71H144.835L181.808 43.1395L182.16 42.5063V4.70559e-05L157.506 0Z" fill="#FEFEFE"/>
<path d="M159.115 2.75L147.374 23.5627L145.332 40.1963L124.403 77.4995H96.9977L117.454 41.3085V2.75H96.2053L84.9703 23.381L83.0721 40.1963L53.2294 93.4118L58.2418 105.955H76.8164L68.3599 127.378L52.5197 110.244L54.3848 135.395L26.9575 136.546L48.7728 151.908L33.2353 175.088L58.3188 166.884L68.657 191.727L76.5358 164.649L104.513 171.856L86.4448 150.961L108.678 132.598L85.7406 134.019L110.565 105.955H143.231L179.412 41.7876V2.75H159.115ZM159.115 4.71731V2.75166V4.71726V4.71731Z" fill="#FEFEFE"/>
<path d="M159.115 2.75L147.374 23.5627L145.332 40.1963L124.403 77.4995H96.9977L117.454 41.3085V2.75H96.2053L84.9703 23.381L83.0721 40.1963L53.2294 93.4118L58.2418 105.955H76.8164L68.3599 127.378L52.5197 110.244L54.3848 135.395L26.9575 136.546L48.7728 151.908L33.2353 175.088L58.3188 166.884L68.657 191.727L76.5358 164.649L104.513 171.856L86.4448 150.961L108.678 132.598L85.7406 134.019L110.565 105.955H143.231L179.412 41.7876V2.75H159.115Z" fill="black"/>
<path d="M154.719 21.3129H164.628L171.527 8.35178H161.976L154.719 21.3129ZM92.4052 21.3344L103.079 21.3069L109.879 8.3457L99.5907 8.35121L92.4052 21.3344ZM89.8665 37.6586L99.4839 37.6861L100.381 26.5474H91.077L89.8665 37.6586ZM151.973 37.6586L161.596 37.6861L162.504 26.5474H153.178L151.973 37.6586ZM64.7286 153.72C62.2912 153.72 60.316 151.749 60.316 149.315C60.316 146.876 62.2912 144.905 64.7286 144.905C67.166 144.905 69.1356 146.876 69.1356 149.315C69.1356 151.749 67.166 153.72 64.7286 153.72V153.72ZM149.91 44.3214L128.216 82.5441H76.1451L97.8504 44.3214H87.6388L61.4604 90.5828H90.4998L68.4754 139.873L59.3586 129.742L59.8649 141.684L45.1855 142.493L57.0093 150.824L48.5858 163.378L62.1756 158.934L67.7712 172.408L72.0462 157.728L87.2041 161.632L77.4161 150.306L89.4654 140.352L70.8743 141.172L105.113 90.5828H134.213L159.951 44.3214H149.91H149.91Z" fill="#C4CED4"/>
</svg>
