<svg width="200" height="200" viewBox="0 0 200 200" fill="none" xmlns="http://www.w3.org/2000/svg">
<g clip-path="url(#clip0_2_713)">
<path d="M100.097 2.22852H99.9265C46.0335 2.23483 2.31928 45.9085 2.22461 99.8433V100.014C2.23088 153.961 45.8946 197.717 99.8191 197.78H99.9517C153.857 197.761 197.565 154.075 197.635 100.121V99.995C197.622 46.0727 153.99 2.32961 100.097 2.22852Z" fill="#FEFEFE"/>
<path d="M197.633 100.066V100.123C197.569 154.077 153.862 197.763 99.956 197.776H99.8235C45.8989 197.719 2.22894 153.957 2.22262 100.016V99.8452C2.31735 45.9104 46.0379 2.23046 99.9245 2.23046H100.095C153.994 2.33155 197.62 46.0683 197.633 99.9969V100.066L197.633 100.066ZM199.849 99.7821C199.723 44.6467 155.023 0.00631843 99.9308 0H99.7161C44.6108 0.126369 0.0189016 44.8615 0.00626476 99.9526L0 100.06V100.123C0.0694505 155.297 44.7687 199.975 99.8992 200H100.038C155.169 199.931 199.811 155.221 199.849 100.066C199.849 100.028 199.855 99.9906 199.855 99.9337C199.849 99.9337 199.855 99.8958 199.849 99.7821Z" fill="#C4CED4"/>
<path d="M67.2651 77.7962C77.4187 67.6423 81.6871 55.7698 81.6871 55.7698L83.954 47.5241L84.4907 45.6034L74.091 39.7777C74.091 39.7777 68.0292 35.5632 54.466 43.4361C38.5791 52.8065 25.66 64.9254 18.9794 77.7835C15.2729 84.9046 12.3367 93.106 10.8149 102.426C11.2886 120.073 16.8578 136.445 26.1335 150.099C23.4878 124.673 48.0443 96.8212 67.2652 77.7962H67.2651ZM145.535 43.4336C131.971 35.5607 125.903 39.7751 125.903 39.7751L115.51 45.6008L116.04 47.528L118.307 55.7736C118.307 55.7736 122.576 67.6398 132.735 77.7936C151.9 96.7618 176.368 124.5 173.899 149.869C183.212 136.05 188.744 119.483 189.066 101.633C187.506 92.6359 184.62 84.6998 181.021 77.781C174.334 64.9291 161.409 52.8039 145.535 43.4336Z" fill="#002B5C"/>
<path d="M112.911 28.1929C148.549 32.2242 171.969 52.4623 184.067 70.4133C174.968 44.5073 154.257 24.0795 128.185 15.3663C122.433 17.066 116.055 20.6423 112.911 28.1929ZM87.0875 28.1929C83.924 20.6044 77.496 17.0281 71.7247 15.3411C45.4886 24.0922 24.6828 44.7095 15.6533 70.8366C27.6632 52.7846 51.1715 32.2494 87.0875 28.1929ZM92.9213 27.187L99.9934 16.7678L107.078 27.187C109.92 19.4216 114.396 15.1376 118.886 12.8061C112.805 11.4918 106.497 10.7778 100.025 10.7715C93.5212 10.7652 87.1816 11.4792 81.0693 12.7934C85.5714 15.125 90.0672 19.39 92.9213 27.187Z" fill="#E31837"/>
<path d="M148.431 105.354C133.939 81.8869 101.029 58.1924 99.9998 57.4531C98.9706 58.1924 66.0602 81.8869 51.5688 105.354C32.007 137.022 34.5453 155.289 39.6095 165.715C52.2129 177.315 68.1692 185.321 85.8557 188.126L93.4834 79.9597L99.8419 73.578L99.924 73.4895V73.4958L99.9304 73.4896L100.012 73.578L106.365 79.9597L114.049 188.044L113.942 188.101C131.767 185.283 147.844 177.208 160.51 165.468C165.492 155.005 167.854 136.782 148.431 105.354Z" fill="#002B5C"/>
<path d="M106.366 79.9581L100.013 73.5764L100.083 196.004L113.943 188.1L114.044 188.043L106.366 79.9581ZM99.9597 49.2406L97.1877 51.2879L85.563 59.8684L88.6065 48.8047L89.1306 46.8901L90.1536 43.1812L86.7753 41.3551L75.8389 35.4599C81.3576 34.2405 86.9964 33.4507 92.6918 33.0842L95.4765 32.9136L95.5902 32.6798L96.7015 30.3988L96.8783 30.045L99.9976 23.7012L103.218 30.2598L103.287 30.3988L104.411 32.6798L104.519 32.9136L107.31 33.0842C112.999 33.4507 118.644 34.2405 124.156 35.4599L113.226 41.3551L109.842 43.1812L110.865 46.8901L111.395 48.8047L114.438 59.8684L102.814 51.2879L100.042 49.2406V49.1838L99.9976 49.2154L99.9597 49.1838V49.2407V49.2406Z" fill="#C4CED4"/>
<path d="M100.041 49.1853V49.2422L102.813 51.2893L114.437 59.8699L111.394 48.8062L110.87 46.8854L109.847 43.1827L113.225 41.3629L124.162 35.4615C118.637 34.2483 113.004 33.4522 107.309 33.0857L104.524 32.9088L104.41 32.6813L103.286 30.4067L103.217 30.2613L99.9966 23.709L96.8836 30.0465H96.8773L96.7005 30.4066L95.5892 32.6813L95.4755 32.9088L92.6909 33.0857C86.9953 33.4522 81.3566 34.2483 75.8379 35.4615L86.7744 41.3629L90.1588 43.1827L89.1296 46.8854L88.6055 48.8062L85.562 59.8699L97.1867 51.2893L99.9587 49.2421V49.1853L99.9966 49.2168L100.041 49.1853H100.041Z" fill="#C4CED4"/>
</g>
<defs>
<clipPath id="clip0_2_713">
<rect width="200" height="200" fill="white"/>
</clipPath>
</defs>
</svg>
