<svg width="64" height="64" viewBox="0 0 64 64" fill="none" xmlns="http://www.w3.org/2000/svg">
<g clip-path="url(#clip0_33_1940)">
<path d="M54.4416 41.2684C53.7552 41.2684 53.194 41.8293 53.194 42.5188C53.1948 42.8494 53.3266 43.1663 53.5604 43.4C53.7941 43.6338 54.111 43.7655 54.4416 43.7664C55.1311 43.7664 55.692 43.2055 55.692 42.5188C55.6892 41.8265 55.1311 41.2684 54.4416 41.2684ZM54.4416 43.4974C54.3129 43.4979 54.1855 43.4728 54.0665 43.4238C53.9476 43.3748 53.8395 43.3027 53.7485 43.2118C53.6576 43.1208 53.5855 43.0128 53.5364 42.8939C53.4874 42.7749 53.4623 42.6475 53.4627 42.5188C53.462 42.3899 53.4868 42.2622 53.5357 42.1429C53.5846 42.0237 53.6566 41.9153 53.7476 41.824C53.8386 41.7327 53.9468 41.6603 54.0659 41.6111C54.185 41.5618 54.3127 41.5366 54.4416 41.5369C54.5706 41.5365 54.6985 41.5617 54.8178 41.6109C54.9371 41.6601 55.0455 41.7324 55.1367 41.8237C55.228 41.9149 55.3003 42.0233 55.3495 42.1426C55.3987 42.2619 55.4239 42.3898 55.4235 42.5188C55.4235 43.0588 54.9815 43.4974 54.4416 43.4974Z" fill="#111111"/>
<path d="M54.9519 42.2264C54.9519 41.9937 54.7639 41.8026 54.5281 41.8026H53.9253V43.2289H54.1941V42.6531H54.3852L54.6566 43.2289H54.9524L54.6719 42.6264C54.836 42.5667 54.9524 42.4114 54.9524 42.2264H54.9519ZM54.5314 42.3817H54.1969V42.0711H54.5314C54.615 42.0711 54.6867 42.14 54.6867 42.2264C54.6867 42.3129 54.615 42.3817 54.5314 42.3817Z" fill="#111111"/>
<path d="M61.8579 24.5376C61.0372 18.8076 56.0294 17.0258 53.0182 16.4677L55.5936 14.7752C55.5936 14.7752 42.1367 11.8533 24.7344 17.3507C8.83361 22.3709 0.811682 30.2469 2.1429 39.5372C2.96332 45.2675 7.97114 47.0522 10.9826 47.6076L8.40716 49.2996C8.40716 49.2996 21.8639 52.2215 39.2662 46.727C55.1669 41.701 63.186 33.8282 61.8576 24.5376H61.8579Z" fill="#A4A9AD"/>
<path d="M61.0582 24.7886C59.9719 17.2141 50.6154 17.086 50.6154 17.086L53.3165 15.31C53.3165 15.31 40.5431 13.2355 24.8543 18.1901C10.9998 22.565 1.57522 29.7694 2.93892 39.2812C4.02526 46.8585 13.3817 46.9837 13.3817 46.9837L10.6806 48.7624C10.6806 48.7624 23.454 50.8366 39.1431 45.8823C52.9966 41.5071 62.4214 34.3058 61.0577 24.7888L61.0582 24.7886Z" fill="white"/>
<path d="M59.6047 25.248C58.22 15.5785 43.2381 17.6291 35.4937 20.0732C31.345 21.3831 28.6353 22.7112 28.6353 22.7112C42.68 17.6855 52.5226 21.273 52.5226 21.273C47.861 20.9474 43.4827 22.4546 43.4827 22.4546C43.4827 22.4546 48.1893 23.4036 48.8128 27.77C49.6395 33.5358 44.7298 40.1374 29.5991 44.9154C21.3504 47.521 14.4115 47.9329 14.4115 47.9329C14.4115 47.9329 24.2004 49.3711 38.9764 44.7066C52.6509 40.3883 60.7775 33.4195 59.6047 25.248Z" fill="#CE1126"/>
<path d="M32.0169 37.6512C36.2126 36.3262 39.7822 34.3536 41.698 32.4645C42.7576 31.4197 43.3155 30.4079 43.1931 29.5426C43.1454 29.2112 42.9991 28.9248 42.7693 28.6741C41.31 27.0897 36.3916 27.1076 30.7599 28.8832C24.242 30.9483 19.2399 34.5803 19.5863 36.9947C19.9327 39.418 25.4986 39.7076 32.0169 37.6512Z" fill="#CE1126"/>
<path d="M31.4526 35.0161C34.1742 34.1596 36.2724 32.7034 36.1381 31.7693C36.0038 30.8351 33.6909 30.7783 30.969 31.6348C28.2473 32.4973 26.1492 33.9474 26.2835 34.8816C26.4149 35.8157 28.7309 35.8755 31.4526 35.0161Z" fill="#111111"/>
<path d="M11.4776 42.8025C16.1395 43.1279 20.5204 41.6206 20.5204 41.6206C20.5204 41.6206 15.8146 40.6716 15.1879 36.3024C14.3613 30.5394 19.2709 23.938 34.4017 19.1569C42.6537 16.5516 49.5924 16.1395 49.5924 16.1395C49.5924 16.1395 39.803 14.6984 25.0239 19.366C11.3462 23.6869 3.22323 30.6555 4.39318 38.8239C5.77791 48.4933 20.7627 46.4461 28.5041 43.9987C32.6497 42.6919 35.3626 41.3606 35.3626 41.3606C21.3208 46.3897 11.4781 42.8022 11.4781 42.8022L11.4776 42.8025Z" fill="#111111"/>
<path d="M29.8798 25.263C24.6839 26.9012 21.9682 28.9786 21.0281 31.157L19.1419 35.5267C19.1419 35.5267 21.434 31.4198 30.7066 28.495C37.6962 26.2868 41.9665 26.8449 42.7698 28.6773C42.9967 28.9282 43.1458 29.2149 43.1936 29.5458C43.3159 30.4082 42.7578 31.4229 41.6985 32.4676C39.9466 34.9265 36.6042 37.5768 33.6703 39.3674C36.0134 38.6273 46.5333 33.6374 45.7695 28.3101C45.0588 23.3651 38.9109 22.4102 29.88 25.2633L29.8798 25.263Z" fill="#111111"/>
</g>
<defs>
<clipPath id="clip0_33_1940">
<rect width="60" height="36.0756" fill="white" transform="translate(2 14)"/>
</clipPath>
</defs>
</svg>
