<svg width="64" height="64" viewBox="0 0 64 64" fill="none" xmlns="http://www.w3.org/2000/svg">
<g clip-path="url(#clip0_33_1950)">
<path d="M56.7577 13.149C53.6554 9.24068 48.6331 7 43.0058 7C38.6463 7 34.8405 8.86652 31.781 10.3653C29.8567 11.3103 28.1912 12.1249 26.9725 12.1805C26.2434 12.2147 25.0333 10.996 24.4068 10.1216L24.0241 9.58491L23.4982 9.98045C22.3522 10.8357 22.1341 12.0779 22.2688 13.1576C20.7162 12.4076 18.9979 12.0661 17.2764 12.1655C14.6253 12.4221 13.0153 13.5638 12.1323 14.4746C11.6415 14.9757 11.2357 15.5534 10.9307 16.1851C8.57884 17.113 7.50981 18.3466 7.22545 18.7251C5.83999 19.6979 5.04464 19.6615 5.05533 19.6637L4.18942 19.5611L4.3455 20.4163C4.80732 22.9392 6.67811 23.9526 8.17475 24.2562C6.46431 26.0137 3.07122 26.3579 3.03273 26.3601L1.99364 26.4563L2.54525 27.3436C4.3455 30.2235 8.318 30.1701 8.86106 30.1466C9.40179 30.1851 9.94526 30.147 10.4753 30.0332C10.1139 30.713 9.82719 31.4298 9.62007 32.1713C9.45225 32.7877 9.22156 33.3852 8.93162 33.9544L8.91238 33.9908C8.75416 34.3158 8.29876 34.5809 7.85832 34.846C7.60458 34.9875 7.36033 35.1453 7.1271 35.3185L6.33388 35.9471L7.23828 36.4004C7.7675 36.6697 8.32267 36.8846 8.89527 37.0418C9.00469 38.1794 9.19257 39.3082 9.45758 40.4199C8.61408 40.231 7.7407 40.2179 6.89192 40.3814L5.8742 40.5952L6.51562 41.4055C7.78562 42.9877 7.92246 44.1508 8.07854 45.4978C8.18758 46.4214 8.29234 47.3793 8.77982 48.5017C9.26729 50.0967 10.7041 51.3176 11.8223 52.0637L11.9142 52.1151C12.9557 52.6089 14.1162 52.7965 15.2603 52.656C14.7381 52.9909 14.1863 53.2772 13.6118 53.5112L12.7566 53.8554L13.383 54.5417C14.3152 55.5616 16.4105 56.2116 17.5672 56.2885C17.7105 56.2885 17.8473 56.3014 17.9948 56.3014C20.1329 56.3014 21.3965 55.1639 22.5125 54.1526C23.7654 53.0194 24.8451 52.0402 27.0922 52.2711C28.1399 52.378 29.1747 52.8056 30.372 53.2995C32.2471 54.0735 34.3745 54.9501 37.3357 54.9501C44.2116 54.9501 49.1847 51.138 52.1438 47.9373C55.4407 44.3774 57.9166 39.6694 58.4553 35.9471L58.5623 35.2116H43.908L43.7691 35.667C43.7541 35.7162 42.2211 40.5974 38.7446 40.5974C37.3014 40.5974 33.9447 40.003 33.9447 34.4996C33.9447 29.8985 37.8295 21.1026 43.9209 21.1026C44.7462 21.1026 45.3427 21.3741 45.7425 21.9364C46.4566 22.937 46.478 24.8634 45.7959 26.8411L45.503 27.6964H59.4175L59.5351 27.1982C60.758 21.93 59.7724 16.9484 56.7577 13.149ZM17.4026 37.247C16.4638 37.7183 15.3794 37.8094 14.3751 37.5015L14.3281 37.4886C13.6546 37.3518 13.259 37.0076 12.7673 36.4324C13.0116 36.2312 13.2403 36.0118 13.4515 35.7761C13.6311 35.5728 13.8286 35.386 14.0416 35.218C14.1912 35.2031 14.3388 35.3014 14.7813 35.6948C15.4326 36.3266 16.2162 36.8057 17.0755 37.0974C17.1931 37.1551 17.3021 37.2043 17.4026 37.247Z" fill="white"/>
<path d="M58.9063 27.0613C61.4421 16.1787 53.9888 7.65424 43.0056 7.65424C36.0035 7.65424 30.3911 12.6829 27.0023 12.8326C25.5869 12.8967 23.885 10.5064 23.885 10.5064C21.9608 11.9432 23.3719 14.5687 23.3719 14.5687C21.6196 13.314 19.4926 12.6927 17.3405 12.8069C12.5833 13.2688 11.4202 16.6939 11.4202 16.6939C8.64073 17.7202 7.68715 19.1933 7.68715 19.1933C5.97671 20.4248 4.98038 20.3072 4.98038 20.3072C5.6218 23.8863 9.36553 23.7132 9.36553 23.7132C7.89241 26.5568 3.09889 27.0015 3.09889 27.0015C4.80933 29.7403 8.88446 29.5009 8.88446 29.5009C10.2785 29.6505 12.1749 28.8979 13.1093 28.4746C12.7832 28.6353 12.4757 28.831 12.192 29.0583C10.3939 30.324 10.4346 32.6331 9.50664 34.2751C9.14958 35.0128 8.11476 35.3677 7.54177 35.8188C8.17051 36.1404 8.84127 36.3721 9.53443 36.5073C9.51946 37.6533 10.0732 40.4306 10.4431 41.5402C9.10682 40.546 7.03719 40.995 7.03719 40.995C9.33132 43.8515 8.2516 45.6154 9.40401 48.2644C9.79314 49.5793 10.9926 50.7082 12.1984 51.51C15.3243 52.919 17.4816 51.0695 17.4816 51.0695C17.1224 52.7992 13.8704 54.0992 13.8704 54.0992C14.6315 54.933 16.5023 55.5616 17.6205 55.6364C22.0356 55.9272 22.2623 51.1208 27.1584 51.6212C29.9977 51.9119 32.5997 54.298 37.3355 54.298C49.1889 54.298 56.8859 42.3014 57.8181 35.8466H44.3847C44.3847 35.8466 42.7363 41.2324 38.7445 41.2324C34.6095 41.2324 33.301 37.6875 33.301 34.4911C33.301 29.6313 37.3355 20.4505 43.9207 20.4505C47.0252 20.4505 47.502 23.8543 46.4052 27.0421L58.9063 27.0613ZM14.2018 38.1193C13.1199 37.9055 12.579 37.2385 11.8991 36.379L11.8093 36.2336C12.609 35.9727 13.0729 35.0598 13.7721 34.6194C14.8731 34.2794 15.2152 35.8359 17.3148 36.5008C17.9135 36.8002 18.2705 36.8515 18.8905 37.1423C17.4474 38.0638 16.1004 38.6603 14.2018 38.1193Z" fill="#F3BD48"/>
<path d="M18.3732 20.2196C17.6356 20.0999 16.7761 19.7428 15.9187 19.9588C14.3964 20.1726 13.4194 21.6692 11.9441 21.9578C10.2999 22.5757 7.8818 22.672 6.58614 21.1946C6.58614 21.124 6.46854 21.077 6.49206 21.0043C8.58735 20.7669 9.68204 18.4108 11.7303 18.0281C14.1826 17.1237 16.682 18.2184 18.2535 20.0528C18.2535 20.1234 18.3476 20.149 18.3732 20.2196Z" fill="#CE0E2D"/>
<path d="M13.8021 46.9089C16.325 48.3606 18.2043 45.5512 20.7764 46.5027V46.5989C18.7773 47.3365 17.8964 49.528 16.0727 50.4795C15.5668 50.7055 15.0177 50.8182 14.4637 50.8097C13.9097 50.8012 13.3643 50.6717 12.8656 50.4303C10.6292 49.218 9.96212 46.5283 9.84239 44.0503C9.74831 43.456 9.48533 42.9343 9.29504 42.3613C11.54 43.0968 11.5635 46.1691 13.8021 46.9089Z" fill="#CE0E2D"/>
<path d="M57.7583 25.693C59.5179 17.8442 53.7302 8.99696 43.0229 8.94564C36.489 8.91357 31.1096 14.1411 26.857 14.1411C25.788 14.1411 24.8665 13.4826 24.2294 12.6723C24.4197 15.007 26.5812 16.9484 28.6573 17.7437C27.6096 17.8143 26.7052 17.4102 25.7773 17.1964C22.9979 16.4331 21.0137 13.7755 17.8238 14.0278C15.5874 13.9572 13.6097 15.3106 12.515 17.1729C13.0433 16.6892 13.694 16.3594 14.3965 16.2193C16.0385 15.9328 17.4667 16.6704 18.5379 17.7908C19.872 19.9096 21.3473 21.9578 23.5388 23.4331C21.9673 23.4331 20.5861 22.8387 19.2071 22.3641C16.372 21.5516 13.0067 21.9087 10.8687 23.9334C9.77399 25.7187 7.94168 27.1725 5.91908 27.6002V27.6728L6.51346 27.9337C8.84608 28.9343 11.4182 27.9572 13.3702 26.7428C14.7279 26.3152 16.3464 26.5525 17.2978 27.6237C17.9649 28.7654 19.2049 29.9093 20.2911 30.741C20.0046 30.8607 19.7202 30.6234 19.3867 30.6234C17.5073 29.6954 14.683 28.434 12.7694 30.1722C10.9841 31.5278 11.8885 34.1469 9.98994 35.4318C11.3241 35.5516 12.0874 34.5766 12.8485 33.6231C14.7535 32.2184 15.9679 34.7434 17.4902 35.3335C19.1109 36.1182 21.2532 35.8573 22.4206 37.5229C21.1805 37.7602 19.9191 37.9761 18.8479 38.6197C17.2059 39.6417 14.8006 39.8106 13.0153 38.9511C12.0874 38.4508 11.4438 37.7602 10.8259 36.9028C10.83 36.937 10.8208 36.9714 10.8003 36.999C10.92 40.5311 12.237 44.3604 15.8717 45.5983C18.3476 46.74 21.0137 44.8842 23.4426 46.0751C22.1357 46.3347 20.9775 47.0843 20.2056 48.1704C18.9441 49.8124 18.9676 52.0745 17.3962 53.4792C17.1097 53.74 16.682 53.8832 16.3977 54.097C16.7069 54.2352 17.0359 54.3239 17.3726 54.36C19.1109 54.6465 20.5797 53.5262 21.5611 52.222C22.9679 50.8664 25.0996 50.039 26.8014 50.1523C30.2223 50.3833 32.788 52.8762 37.3207 52.8912C46.3411 52.9254 54.3054 44.339 55.9966 37.2834H45.3533C45.3533 37.2834 43.4163 42.6756 38.7254 42.6756C32.8778 42.6756 31.8558 37.2128 31.8558 34.4997C31.8558 28.1325 36.8503 19.0266 43.9059 19.0266C47.2541 19.0266 49.2253 22.4474 48.1349 25.7016L57.7583 25.693Z" fill="#CE0E2D"/>
<path d="M25.4929 54.4284C25.4997 54.1963 25.5746 53.9714 25.7083 53.7816C25.8421 53.5918 26.0287 53.4456 26.245 53.3612C26.4613 53.2768 26.6977 53.2579 26.9246 53.307C27.1516 53.3561 27.3591 53.4709 27.5212 53.6371C27.6833 53.8033 27.7929 54.0135 27.8363 54.2416C27.8797 54.4697 27.855 54.7056 27.7652 54.9197C27.6755 55.1338 27.5246 55.3168 27.3316 55.4458C27.1385 55.5748 26.9117 55.644 26.6796 55.645C26.5208 55.6462 26.3635 55.6154 26.217 55.5543C26.0705 55.4932 25.9379 55.4031 25.827 55.2895C25.7162 55.1759 25.6295 55.041 25.5721 54.8931C25.5147 54.7451 25.4877 54.5871 25.4929 54.4284ZM26.6796 55.8866C26.9659 55.8819 27.2444 55.7929 27.4803 55.6305C27.7162 55.4681 27.8989 55.2397 28.0055 54.9739C28.112 54.7082 28.1378 54.4168 28.0794 54.1365C28.021 53.8561 27.8811 53.5993 27.6773 53.3981C27.4735 53.197 27.2148 53.0605 26.9337 53.0058C26.6527 52.9511 26.3617 52.9806 26.0973 53.0906C25.8329 53.2007 25.607 53.3864 25.4477 53.6243C25.2885 53.8623 25.203 54.1421 25.2022 54.4284C25.201 54.622 25.2385 54.8138 25.3126 54.9926C25.3866 55.1714 25.4957 55.3336 25.6333 55.4697C25.771 55.6057 25.9345 55.7129 26.1141 55.7849C26.2938 55.8568 26.486 55.8921 26.6796 55.8887V55.8866ZM26.3717 54.5439H26.6625L27.105 55.2708H27.3894L26.9126 54.531C26.9718 54.5312 27.0303 54.5191 27.0845 54.4955C27.1388 54.472 27.1875 54.4374 27.2277 54.394C27.2679 54.3506 27.2987 54.2993 27.318 54.2434C27.3374 54.1875 27.3449 54.1282 27.3402 54.0692C27.3402 53.74 27.1435 53.5924 26.748 53.5924H26.1066V55.2836H26.361L26.3717 54.5439ZM26.3717 54.3301V53.8105H26.718C26.8955 53.8105 27.0836 53.849 27.0836 54.0585C27.0836 54.3151 26.8912 54.3301 26.6753 54.3301H26.3717Z" fill="white"/>
</g>
<defs>
<clipPath id="clip0_33_1950">
<rect width="58.0481" height="49.3014" fill="white" transform="translate(2 7)"/>
</clipPath>
</defs>
</svg>
