<svg width="64" height="64" viewBox="0 0 64 64" fill="none" xmlns="http://www.w3.org/2000/svg">
<g clip-path="url(#clip0_33_1947)">
<path d="M15.566 26.1032C15.4095 26.6847 15.5213 27.378 15.566 27.557C17.4224 27.4451 18.1604 27.1097 18.1604 27.1097L15.566 26.1032Z" fill="white"/>
<path d="M13.1058 42.0946C12.9045 42.2064 13.3518 43.2576 13.1953 44.0181C13.3071 44.3759 13.8215 45.6284 14.6938 45.2034C15.566 44.7561 14.8279 43.5931 14.6267 43.3024C13.911 42.9669 13.3071 41.9828 13.1058 42.0946Z" fill="white"/>
<path d="M20.3299 29.3239C19.6142 29.5028 18.9656 30.2185 17.6684 30.5763C17.1987 30.7105 16.7961 30.7329 16.5501 30.7329C16.7514 31.0013 17.3776 31.1355 17.3776 31.1355C17.3776 31.1355 16.908 31.5828 16.8632 31.8959C17.0869 31.7841 17.4447 31.6051 17.9144 31.471C19.2116 31.1355 20.1286 31.4262 20.8443 31.2473C21.1798 31.1578 21.806 30.9789 21.5376 30.0396C21.2916 29.0778 20.6654 29.2344 20.3299 29.3239Z" fill="white"/>
<path d="M38.2 25.2757C38.1105 25.231 38.0211 25.2757 37.9764 25.3428C37.3725 26.5505 36.8357 27.7135 36.366 28.7647L34.4873 29.5923C34.3755 29.7488 34.286 29.9277 34.1966 30.0843L36.1871 29.212C35.6727 30.4198 35.2478 31.5381 34.8899 32.4998L32.385 33.5062C32.3179 33.6628 32.2508 33.797 32.206 33.9312L34.7333 32.9024C33.9505 35.1166 33.6374 36.4809 33.6374 36.5032C33.6151 36.5927 33.6822 36.6821 33.7493 36.7045C33.8387 36.7269 33.9282 36.6821 33.9505 36.5927C33.9505 36.5703 34.2637 35.2731 35.0017 33.126L36.3437 35.3849L36.5673 35.1613C36.5673 35.1613 36.5673 35.1613 36.5673 35.1389L35.1359 32.7011C35.449 31.8288 35.8293 30.8224 36.2989 29.7264L37.3278 31.5157C37.3725 31.3591 37.3949 31.2249 37.4396 31.0684L36.4555 29.3686C36.9699 28.1832 37.5514 26.886 38.2447 25.4994C38.3118 25.4099 38.2895 25.2981 38.2 25.2757Z" fill="white"/>
<path d="M54.7505 30.2856C52.2456 26.2598 46.9449 21.4959 45.7372 20.4224C45.6701 20.5566 45.5583 20.6684 45.4688 20.7802C46.2292 22.9497 49.1815 31.046 51.9101 35.4073C54.5716 39.7015 57.166 39.4778 57.166 39.4778C57.166 39.4778 58.0383 35.5862 54.7505 30.2856ZM56.3161 34.3785L54.1243 33.9759L51.5299 29.8159L54.6387 30.7329C55.4439 32.0525 55.9583 33.2826 56.3161 34.3785ZM54.3927 30.3303L51.2839 29.4133L48.8907 25.5664L51.0602 26.1032C52.3127 27.4675 53.5204 28.9437 54.3927 30.3303ZM45.8714 20.9815C46.8107 21.8314 48.7565 23.6206 50.6576 25.6559L48.6447 25.1639L47.3475 23.0839C47.3028 23.0168 47.2133 22.9944 47.1239 23.0391C47.0568 23.0839 47.0344 23.1733 47.0791 23.2628L48.4211 25.4323L48.1527 26.9531C47.1239 24.4482 46.2963 22.1669 45.8714 20.9815ZM48.3987 27.5123L48.7118 25.8572L51.0602 29.637L50.2774 31.7394C49.6064 30.3527 48.9802 28.8989 48.3987 27.5123ZM52.1785 35.2731C51.6193 34.3561 51.0378 33.2826 50.4563 32.1419L51.2391 29.9948L53.8335 34.1548L53.0284 36.5256C52.76 36.1454 52.4692 35.7428 52.1785 35.2731ZM56.8976 39.1647C56.3385 39.0976 54.9071 38.7174 53.2968 36.794L54.0796 34.468L55.3097 36.4361C55.3544 36.5032 55.4439 36.5256 55.5333 36.4809C55.6004 36.4361 55.6228 36.3243 55.578 36.2572L54.3703 34.3114L56.4279 34.6916C57.0765 36.9505 56.9647 38.5609 56.8976 39.1647Z" fill="white"/>
<path d="M38.7815 20.6684C39.2512 20.6684 39.1841 20.0422 38.7591 20.0422C32.1613 20.0422 28.3815 20.8697 27.8 21.0263C27.4422 17.7833 25.5858 16.7544 25.5858 14.6744C25.5858 13.8693 26.1226 13.6904 26.5699 13.6904C28.1131 13.6904 29.2761 15.502 31.4009 15.502C33.3914 15.502 33.8163 14.0929 34.957 14.0929C36.6568 14.0929 35.9187 18.6108 38.9381 18.6108C39.8998 18.6108 40.526 18.2306 40.526 18.2306C40.9286 18.0069 40.5484 17.5149 40.1905 17.6938C40.1905 17.6938 39.5867 18.0069 38.9828 18.0069C36.4331 18.0069 37.5514 13.4667 34.8899 13.4667C33.6151 13.4667 33.1901 14.8757 31.3561 14.8757C29.3209 14.8757 28.4933 13.0417 26.4804 13.0417C25.3398 13.0417 24.9148 13.8022 24.9148 14.585C24.9148 16.911 27.1961 18.6555 27.1961 21.8314C27.1961 25.0521 26.1002 27.8925 26.1002 32.388C26.1002 37.6215 31.0654 39.1648 31.0654 44.0405C31.0654 46.7914 32.1166 48.5136 33.3019 48.5136C33.9505 48.5136 34.5544 48.1334 34.8452 47.1269C35.0241 47.194 35.1806 47.2387 35.3148 47.2387C35.6503 47.2387 36.8804 46.8809 36.8804 45.4271C36.8804 41.2671 29.7458 39.12 29.7458 32.6116C29.7458 29.4805 30.2379 24.4706 31.0206 24.4706C31.4232 24.4706 31.9153 26.2151 32.8994 26.2151C34.0847 26.2151 33.6822 22.7484 34.1966 22.7484C34.6215 22.7484 35.2477 24.3587 36.0082 24.3587C36.612 24.3587 36.8357 23.1063 37.1041 22.1222C37.1936 21.6749 36.5449 21.5407 36.4555 22.0103C36.2989 22.7484 35.9411 23.7101 35.9411 23.7101C35.5609 23.3299 34.9346 22.1445 34.1518 22.1445C32.9441 22.1445 33.123 25.5888 32.8546 25.5888C32.3402 25.5888 32.0271 23.7996 30.9312 23.7996C29.4998 23.7996 29.0972 28.7424 29.0972 32.634C29.0972 39.4779 36.2542 41.7815 36.2542 45.36C36.2542 46.2547 35.6056 46.5678 35.3372 46.5678C35.2254 46.5678 35.1136 46.5454 35.0017 46.5007C35.0241 46.2547 35.0465 45.9863 35.0465 45.6731C35.0465 43.5484 33.8834 43.1682 33.4138 43.1682C32.9441 43.1682 32.6757 43.5708 32.6757 44.2641C32.6757 45.1811 33.4809 46.1875 34.2637 46.7691C34.1518 47.3282 33.9058 47.865 33.369 47.865C32.3402 47.865 31.7587 45.4719 31.7587 44.0628C31.7587 38.9187 26.7936 37.4202 26.7936 32.2762C26.7936 27.8925 27.8895 25.0968 27.8895 22.1669C27.8895 21.988 27.8895 21.8091 27.8671 21.6525C28.5381 21.4959 32.7875 20.5342 38.7815 20.6684ZM33.3243 44.2865C33.3243 43.9286 33.4138 43.7944 33.5032 43.7944C34.0847 43.7944 34.3531 44.9574 34.3531 45.4271C34.3531 45.5613 34.3531 45.785 34.3308 46.0534C33.7716 45.5166 33.3243 44.6891 33.3243 44.2865Z" fill="#FFD100"/>
<path d="M42.114 22.3011C42.114 22.3011 38.3566 30.2185 38.3566 39.4331C38.3566 45.5389 40.2577 50.2133 40.7721 50.2133C41.1746 50.2133 43.1204 47.3058 43.1204 41.2447C43.1204 38.7845 41.7785 29.4804 42.114 22.3011ZM40.5037 27.6241C40.5708 27.3781 40.9063 27.311 40.8615 27.7359C40.6155 29.8607 40.4366 31.7617 40.3247 33.4615L39.0052 34.4903C39.363 31.9183 39.9445 29.5699 40.5037 27.6241ZM38.9604 34.96L40.3247 33.9088C40.2353 35.4521 40.1906 36.8164 40.1682 38.0017L38.6697 39.0306C38.6921 37.6439 38.8039 36.2796 38.9604 34.96ZM38.6697 39.4555L40.1682 38.4267C40.1682 40.3501 40.2353 41.7592 40.3024 42.6538L38.9604 43.4813C38.7815 42.2736 38.6697 40.9093 38.6697 39.4555ZM42.3153 46.0981C42.1364 46.2099 41.5996 46.4112 40.7273 44.9574C40.2129 46.5007 39.609 46.0757 39.3854 45.8297C39.2512 45.2258 39.117 44.5772 39.0275 43.8839L40.526 42.9445L42.6284 44.3312C42.5166 44.9798 42.4271 45.5613 42.3153 46.0981ZM42.785 41.2447C42.785 42.2288 42.7402 43.1235 42.6508 43.951L40.7497 42.6761C40.6826 41.8486 40.6155 40.5067 40.6155 38.6727L42.7626 40.1488C42.785 40.5738 42.785 40.954 42.785 41.2447ZM42.7179 39.7015L40.6155 38.2478C40.6155 37.0624 40.6602 35.6981 40.7497 34.1549L42.3377 35.3179C42.4942 37.0176 42.6508 38.5385 42.7179 39.7015ZM42.2929 34.8705L40.7721 33.7523C40.8839 31.963 41.0628 29.9501 41.3312 27.7136C41.3983 27.0873 41.7785 27.4004 41.8009 27.7359C41.868 30.1514 42.0916 32.634 42.2929 34.8705Z" fill="#FFD100"/>
<path d="M45.0662 21.1157C44.9097 21.2051 44.7531 21.2722 44.5742 21.317C44.8426 21.8985 45.4241 23.1286 46.0727 24.7165C45.6254 23.2404 45.2899 21.9879 45.0662 21.1157Z" fill="#FFD100"/>
<path d="M50.6129 36.1006C50.5011 35.9217 50.3669 35.7204 50.2551 35.5415C49.7183 34.6692 49.2262 33.7523 48.7566 32.7905C48.9355 33.5286 49.0697 34.2667 49.2039 34.9824C50.2551 41.6697 48.2422 44.5772 48.2422 44.5772C48.2422 44.5772 45.3123 41.7815 44.1045 34.0654C43.2546 28.6753 43.7019 22.7037 43.8138 21.317C43.6349 21.2723 43.4783 21.2275 43.3441 21.1381C42.785 34.1325 44.0598 36.369 44.3058 40.0817C47.5936 45.2482 47.7054 46.769 47.7054 46.769C47.7054 46.769 51.5075 44.0628 50.6129 36.1006Z" fill="#FFD100"/>
<path d="M45.4241 30.0619L44.4176 23.6654C44.3729 23.3746 43.9927 23.4193 43.9703 23.8219C43.8809 25.7677 43.8585 28.4963 44.0821 31.292L45.4241 30.0619Z" fill="#FFD100"/>
<path d="M46.4976 36.8164L46.0056 33.6628L44.5965 35.0495C44.8202 36.2349 45.0886 37.2861 45.357 38.2031L46.4976 36.8164Z" fill="#FFD100"/>
<path d="M44.1269 31.717C44.194 32.4774 44.2834 33.2378 44.4176 33.9983C44.44 34.2219 44.4847 34.4232 44.5295 34.6245L45.9385 33.2155L45.4912 30.4421L44.1269 31.717Z" fill="#FFD100"/>
<path d="M44.7531 23.5982C44.7531 23.5982 45.2675 26.9083 45.7819 30.0843L48.0409 31.3591C47.191 28.3397 46.028 25.3875 45.1781 23.4193C45.0662 23.1733 44.686 23.218 44.7531 23.5982Z" fill="#FFD100"/>
<path d="M47.3699 40.4619C47.3475 40.3501 46.766 37.9794 46.5871 37.2189L45.4912 38.5609C45.8938 39.8133 46.3187 40.8198 46.7213 41.6473C46.9226 41.2671 47.3252 40.5514 47.3699 40.4619Z" fill="#FFD100"/>
<path d="M45.849 30.5092C45.9832 31.4262 46.1398 32.3432 46.274 33.1707L48.8013 34.6245C48.6447 33.7075 48.4211 32.7681 48.1751 31.8064L45.849 30.5092Z" fill="#FFD100"/>
<path d="M46.3187 33.618C46.5647 35.1165 46.7437 36.3019 46.8108 36.7492L49.1368 38.0017C49.1144 37.1294 49.0249 36.1454 48.846 35.0718L46.3187 33.618Z" fill="#FFD100"/>
<path d="M48.846 41.8262L47.5935 40.7527L46.9002 42.0275C47.4146 43.0116 47.8843 43.6378 48.1527 43.9957C48.354 43.5931 48.6224 42.8774 48.846 41.8262Z" fill="#FFD100"/>
<path d="M49.1592 38.3819L46.9226 37.1742C47.1015 37.8675 47.5936 39.8804 47.7054 40.3948L48.9355 41.446C49.0697 40.6185 49.1592 39.5897 49.1592 38.3819Z" fill="#FFD100"/>
<path d="M28.6723 44.197C29.8353 42.4077 29.1643 39.366 26.9725 40.2159C25.6976 38.1359 24.2662 35.3402 24.2662 31.8511C24.2662 28.1608 25.0267 27.1767 25.0267 23.9114C25.0267 18.3423 22.4546 17.2464 20.7996 16.1058C16.8632 18.7673 11.6297 22.4352 11.6297 24.381C11.6297 24.9625 11.8757 25.4993 11.8757 26.0585C11.8757 28.0714 7.96173 31.9853 7.96173 33.8641C7.96173 34.5798 8.52087 35.1613 9.43786 35.1613C10.3548 35.1613 12.6585 34.8258 13.5308 34.7363C14.403 34.6469 14.4925 34.2219 14.4925 33.9982C14.4925 33.4391 13.5979 32.6563 12.9269 32.6563C12.3677 32.6563 12.3007 32.9918 12.3007 33.0813C12.3007 33.4615 12.8374 33.5509 12.8374 33.5509C13.5084 33.4615 13.5084 34.043 12.8598 34.043C12.323 34.043 11.7415 33.6628 11.7415 32.9694C11.7415 32.2985 12.2783 32.1195 12.6809 32.1195C14.3807 32.1195 15.3424 33.6404 15.074 34.6245C17.1764 35.6757 17.1093 37.1965 16.7738 37.1965C16.0581 37.1965 16.5501 35.2731 13.8215 35.2731C13.0611 35.2731 11.4508 35.4967 11.0705 35.5415C10.6903 35.5862 10.5785 35.6309 10.5338 35.9441C10.489 36.2572 10.0865 37.3755 10.0865 38.0688C10.0865 39.0976 10.7798 39.1647 11.2047 39.1647C12.3454 39.1647 14.3136 38.8963 14.3136 38.4266C14.3136 38.1359 13.8215 38.2253 13.6426 38.2253C13.3071 38.2253 13.1505 38.0017 13.1505 37.8899C13.1505 37.5767 13.6426 37.4425 14.2465 37.4425C15.2305 37.4425 15.32 38.0688 15.2753 38.3819C15.1634 39.0305 16.237 38.8739 16.237 40.283C16.237 40.4395 16.2146 40.8421 15.8791 40.8421C15.5437 40.8421 15.5437 40.4172 15.5437 40.1935C15.5437 39.9475 15.1634 39.5896 14.828 39.5896C14.4701 39.5896 13.2176 40.2382 10.5114 39.9922C9.43786 41.3342 10.7127 41.4236 10.7127 42.7879C10.7127 44.3088 10.243 44.197 10.243 45.1363C10.243 46.9703 12.2559 47.4623 14.2688 47.4623C18.4512 47.4623 23.148 46.5006 24.803 43.5036C24.2439 46.1428 22.1191 47.0821 18.4959 47.9096C18.8985 50.8395 19.5024 51.5105 19.9497 52.2933C20.397 53.0761 20.4865 54.1944 21.2693 54.1944C22.2086 54.1944 27.6882 52.2262 31.3785 49.9896L28.6723 44.197ZM15.4095 43.3023C15.1411 43.4365 14.8503 43.4142 14.6043 43.28C14.8056 43.5931 15.5437 44.7337 14.6714 45.181C13.7991 45.6284 13.3071 44.3535 13.1729 43.9957C13.1282 44.2864 12.994 44.5324 12.7032 44.6666C12.3901 44.8232 12.0099 44.689 11.8533 44.3535C11.6297 43.9286 12.1217 42.5643 11.8981 41.8709C11.6744 41.2447 12.2112 41.3565 12.6138 41.1552C13.0164 40.9539 13.24 40.4619 13.6202 40.9987C14.0228 41.5802 15.4318 41.9828 15.6555 42.4077C15.8344 42.7656 15.7226 43.1458 15.4095 43.3023ZM18.4288 18.9686L20.3746 17.5148C20.4865 17.4253 20.6207 17.4253 20.7325 17.5148C22.1639 18.5213 22.969 19.5053 22.9914 19.5501C23.1032 19.6843 23.0809 19.8632 22.9467 19.975C22.8125 20.0868 22.6336 20.0645 22.5217 19.9303C22.5217 19.9303 21.806 19.058 20.5536 18.141C20.4641 18.2081 20.2852 18.3423 20.0839 18.4989C20.6877 19.0133 22.4099 20.5118 23.5282 21.9208C23.64 22.055 23.6176 22.2339 23.4834 22.3458C23.3493 22.4576 23.1703 22.4352 23.0585 22.301C21.8955 20.8696 20.0615 19.2817 19.5695 18.8791C19.3905 19.0133 19.2116 19.1475 19.0774 19.237C20.1957 20.1539 21.0009 21.1157 21.0232 21.1604C21.1574 21.317 21.0903 21.5182 20.9785 21.5853C20.8443 21.6972 20.6654 21.6748 20.5536 21.5406C20.5536 21.5182 19.5918 20.4223 18.3841 19.4606C18.2946 19.3488 18.2499 19.1251 18.4288 18.9686ZM14.3136 29.4357C13.9781 29.4357 14.2017 28.6081 14.2017 28.295C12.323 28.2727 12.1217 27.6017 14.2688 27.5793C14.2017 27.3109 13.9781 26.1927 14.3136 25.6112L13.2624 25.2086C12.4125 24.8731 14.0452 24.3139 13.7991 23.7995C13.7991 23.7995 13.3071 23.4193 13.3071 23.0167C13.3071 22.5918 13.9557 22.0998 15.2082 22.0998C17.5342 22.0998 18.1604 24.0903 20.0168 24.0903C20.3746 24.0903 21.3587 23.889 21.3587 24.2916C21.3587 24.6942 20.5759 25.0967 19.8602 25.0967C18.2275 25.0967 16.9974 23.8666 16.1923 23.8666C16.1252 23.8666 15.9686 23.889 15.9015 24.0456L15.6779 24.56C15.5213 24.9402 15.7673 25.0744 15.7673 25.0744L18.6301 26.7742C19.234 27.132 18.9209 27.4228 18.6077 27.5122C18.6077 27.5122 16.8409 28.049 15.2753 28.2503C15.1187 29.0331 14.649 29.4357 14.3136 29.4357ZM16.8632 32.0077C16.9751 32.4103 17.646 32.4103 18.1604 32.2761C18.6972 32.1419 19.0103 31.9406 19.234 31.8959C19.6589 31.7841 20.1062 31.8511 20.1957 32.1866C20.3523 32.8129 19.5695 33.0813 19.1222 33.2155C16.8632 33.8193 15.9686 33.2602 15.812 32.6116C15.6331 31.963 16.1923 31.4709 16.1923 31.4709C16.1923 31.4709 15.4542 31.3144 15.2976 30.6658C15.1187 30.0172 15.6331 29.1002 17.892 28.4963C18.3394 28.3845 19.1669 28.2279 19.3234 28.8542C19.4129 29.1896 19.0551 29.4804 18.6301 29.5922C18.4288 29.637 18.0486 29.637 17.5118 29.7935C16.9751 29.9277 16.3936 30.2632 16.5054 30.6658C16.5054 30.7105 16.5277 30.7329 16.5501 30.7552C16.7961 30.7552 17.1987 30.7329 17.6684 30.5987C18.9656 30.2632 19.6142 29.5475 20.3299 29.3462C20.6654 29.2567 21.2916 29.1002 21.5376 30.0395C21.7837 30.9789 21.1798 31.1578 20.8443 31.2473C20.1286 31.4262 19.2116 31.1355 17.9144 31.4709C17.4447 31.6051 17.0869 31.7841 16.8632 31.8959C16.8409 31.9406 16.8409 31.963 16.8632 32.0077ZM23.4611 38.4043C19.5024 37.2413 22.0297 32.3432 23.8413 32.8352C21.4482 35.0047 22.6559 37.532 23.4611 38.4043ZM26.5923 45.0021C25.8095 44.7785 25.4516 43.5707 25.8318 42.3182C26.1897 41.0658 27.129 40.2382 27.9118 40.4619C28.6946 40.6856 29.0525 41.8933 28.6946 43.1458C28.3144 44.3982 27.3751 45.2258 26.5923 45.0021Z" fill="#CF8A00"/>
<path d="M15.2976 23.6877L14.1346 24.0009C13.8886 24.0679 13.8662 24.2021 14.1123 24.314L15.0069 24.7389C15.0963 24.7836 15.2082 24.7389 15.2529 24.6495L15.566 23.9561C15.6107 23.7325 15.5213 23.6206 15.2976 23.6877Z" fill="#CF8A00"/>
<path d="M27.6658 41.3118C27.2185 41.1776 26.6817 41.7144 26.4581 42.5196C26.2344 43.3023 26.391 44.0628 26.8383 44.197C27.2856 44.3312 27.8224 43.7944 28.046 42.9892C28.2697 42.1841 28.1131 41.4236 27.6658 41.3118Z" fill="#CF8A00"/>
<path d="M45.178 15.4796H42.2705L44.1269 17.4925H45.178V15.4796Z" fill="#FF671D"/>
<path d="M55.9135 29.9277C52.76 24.8507 47.2357 20.5789 45.9609 19.6395C45.9385 19.9303 45.8714 20.1987 45.7148 20.4447C46.9226 21.4959 52.2232 26.2821 54.7282 30.3079C58.0159 35.6086 57.1437 39.5225 57.1437 39.5225C57.1437 39.5225 54.5492 39.7238 51.8877 35.452C49.1591 31.0683 46.2069 22.972 45.4464 20.8249C45.3346 20.9367 45.2004 21.0486 45.0439 21.138C45.2675 22.0103 45.603 23.2628 46.0503 24.7165C46.7213 26.3268 47.4594 28.3174 48.0856 30.3974C48.8013 32.1195 49.6288 33.8193 50.5905 35.3402C54.5045 41.6249 58.4185 40.775 58.4185 40.775C57.7475 39.6567 59.7157 36.0335 55.9135 29.9277Z" fill="#FF671D"/>
<path d="M45.8714 20.9815C46.2963 22.1669 47.1239 24.4482 48.1527 26.9531L48.4211 25.4323L47.0791 23.2628C47.0344 23.1957 47.0568 23.0839 47.1239 23.0391C47.191 22.9944 47.3028 23.0168 47.3475 23.0839L48.6447 25.1639L50.6576 25.6559C48.7566 23.6206 46.8107 21.8314 45.8714 20.9815Z" fill="#FF671D"/>
<path d="M48.8907 25.5664L51.2839 29.4133L54.3927 30.3303C53.5204 28.9436 52.3127 27.4675 51.0602 26.1032L48.8907 25.5664Z" fill="#FF671D"/>
<path d="M48.3987 27.5122C48.9802 28.9213 49.6288 30.375 50.2774 31.7393L51.0602 29.637L48.7118 25.8572L48.3987 27.5122Z" fill="#FF671D"/>
<path d="M56.8976 39.1647C56.9647 38.5608 57.0765 36.9505 56.4279 34.714L54.3703 34.3337L55.5781 36.2795C55.6228 36.3466 55.6004 36.4585 55.5333 36.5032C55.4662 36.5479 55.3544 36.5256 55.3097 36.4585L54.0796 34.4903L53.2968 36.8163C54.9071 38.7398 56.3385 39.0976 56.8976 39.1647Z" fill="#FF671D"/>
<path d="M51.5523 29.8159L54.1467 33.9759L56.3385 34.3785C55.9806 33.2826 55.4662 32.0525 54.6611 30.7329L51.5523 29.8159Z" fill="#FF671D"/>
<path d="M53.0507 36.5256L53.8559 34.1548L51.2615 29.9948L50.4787 32.1419C51.0378 33.2826 51.6193 34.3785 52.2008 35.2731C52.4692 35.7428 52.76 36.1453 53.0507 36.5256Z" fill="#FF671D"/>
<path d="M27.9118 40.4843C27.129 40.2606 26.1897 41.0882 25.8318 42.3406C25.474 43.5931 25.8095 44.7785 26.5923 45.0245C27.3751 45.2482 28.3144 44.4206 28.6723 43.1682C29.0525 41.9157 28.6946 40.708 27.9118 40.4843ZM28.046 42.9669C27.8224 43.7497 27.2632 44.3088 26.8383 44.1746C26.391 44.0404 26.2344 43.3024 26.4581 42.4972C26.6817 41.7144 27.2409 41.1553 27.6658 41.2895C28.1131 41.4236 28.2697 42.1841 28.046 42.9669Z" fill="#CE0E2D"/>
<path d="M13.6426 41.0211C13.2624 40.4843 13.0387 40.9764 12.6361 41.1777C12.2335 41.3789 11.7191 41.2671 11.9204 41.8934C12.1441 42.5643 11.652 43.951 11.8757 44.3759C12.0546 44.7114 12.4125 44.8456 12.7256 44.6891C12.994 44.5549 13.1282 44.3088 13.1953 44.0181C13.3518 43.2577 12.9045 42.1841 13.1058 42.0946C13.3071 41.9828 13.911 42.9669 14.6267 43.3024C14.8951 43.4142 15.1634 43.4589 15.4318 43.3248C15.7449 43.1682 15.8568 42.788 15.6778 42.4525C15.4542 42.0052 14.0452 41.6026 13.6426 41.0211Z" fill="#CE0E2D"/>
<path d="M19.2116 31.8959C19.0103 31.9406 18.6748 32.1419 18.1381 32.2761C17.6013 32.4103 16.9527 32.4103 16.8409 32.0077C16.8409 31.963 16.8409 31.9406 16.8409 31.8959C16.8856 31.5604 17.3553 31.1355 17.3553 31.1355C17.3553 31.1355 16.729 31.0013 16.5277 30.7329C16.5054 30.7105 16.483 30.6658 16.483 30.6434C16.3712 30.2408 16.9527 29.9054 17.4895 29.7712C18.0262 29.637 18.3841 29.637 18.6077 29.5699C19.0327 29.458 19.3905 29.1673 19.3011 28.8318C19.1445 28.2056 18.317 28.3621 17.8697 28.474C15.6108 29.0778 15.1187 29.9948 15.2753 30.6434C15.4542 31.292 16.1699 31.4486 16.1699 31.4486C16.1699 31.4486 15.6108 31.963 15.7897 32.5892C15.9686 33.2378 16.8409 33.797 19.0998 33.1931C19.5471 33.0813 20.3523 32.8129 20.1733 32.1643C20.1062 31.8288 19.6366 31.7617 19.2116 31.8959Z" fill="#CE0E2D"/>
<path d="M42.36 19.3935C35.7622 24.3363 32.2284 31.6722 31.1548 34.1995C31.1548 34.1995 31.0207 34.4903 31.1772 34.8258L33.2572 38.8963C33.3467 39.0752 33.5256 39.0976 33.6822 38.9634L37.1265 35.8546C37.3725 35.6309 37.4396 35.2954 37.4396 35.2954C39.0052 26.3492 41.1299 21.9655 42.4271 19.975C42.3824 19.8408 42.36 19.6842 42.36 19.5277C42.36 19.483 42.36 19.4382 42.36 19.3935ZM36.9252 35.3178L33.5256 38.4713L31.6469 34.4232C31.6469 34.4232 33.7716 27.9595 41.4878 20.467C38.5802 25.7453 36.9252 35.3178 36.9252 35.3178Z" fill="#CE0E2D"/>
<path d="M36.3884 28.7647C36.8581 27.6912 37.3948 26.5505 37.9987 25.3428C38.0434 25.2533 38.1329 25.2309 38.2224 25.2757C38.3118 25.3204 38.3342 25.4099 38.2894 25.4993C37.5961 26.8636 36.9922 28.1832 36.5002 29.3686L37.4843 31.0684C38.1553 28.2503 39.1617 24.5823 40.3695 22.0774C37.6632 24.9849 35.7845 27.5793 34.5097 29.6146L36.3884 28.7647Z" fill="#CE0E2D"/>
<path d="M33.9729 36.5703C33.9505 36.6597 33.8611 36.7045 33.7716 36.6821C33.6822 36.6597 33.6374 36.5703 33.6598 36.4808C33.6598 36.4584 33.9729 35.0941 34.7557 32.8799L32.2284 33.9088C32.0942 34.2219 32.0495 34.4008 32.0495 34.4008L33.6598 37.8675L36.3884 35.3402L35.0465 33.0812C34.286 35.2283 33.9729 36.5255 33.9729 36.5703Z" fill="#CE0E2D"/>
<path d="M36.1871 29.212L34.1966 30.0843C33.2796 31.5828 32.7204 32.7682 32.385 33.5062L34.8899 32.4998C35.2478 31.5157 35.6727 30.4198 36.1871 29.212Z" fill="#CE0E2D"/>
<path d="M35.1583 32.7011L36.5897 35.139C36.6121 34.9824 36.8804 33.5063 37.3501 31.5157L36.3213 29.7265C35.8516 30.8224 35.4714 31.8289 35.1583 32.7011Z" fill="#CE0E2D"/>
<path d="M44.1716 18.6555C43.6796 18.6555 43.2994 19.058 43.2994 19.5277C43.2994 20.0198 43.7019 20.4 44.1716 20.4C44.6637 20.4 45.0439 19.9974 45.0439 19.5277C45.0439 19.0357 44.6637 18.6555 44.1716 18.6555Z" fill="#CE0E2D"/>
<path d="M47.8172 16.7767L46.0503 17.9621L46.4753 19.304L48.4435 18.8567L47.8172 16.7767Z" fill="#00833E"/>
<path d="M42.9639 20.892C42.8297 20.7802 42.7179 20.646 42.6284 20.4894C40.526 23.8666 37.8198 32.3432 37.8198 39.5897C37.8198 47.015 40.1011 50.9514 40.9063 50.9514C41.5325 50.9514 43.7691 46.9703 43.7691 41.8709C43.7691 40.4843 42.606 34.8705 42.606 24.3363C42.606 22.0774 42.785 21.4735 42.9639 20.892ZM43.1205 41.2447C43.1205 47.3058 41.197 50.2133 40.7721 50.2133C40.2577 50.2133 38.3566 45.5389 38.3566 39.4331C38.3566 30.2185 42.114 22.3011 42.114 22.3011C41.7785 29.4804 43.1205 38.7845 43.1205 41.2447Z" fill="#00833E"/>
<path d="M40.3247 33.9088L38.9604 34.96C38.8039 36.2796 38.6921 37.6215 38.6697 39.0305L40.1682 38.0017C40.1905 36.8163 40.2353 35.452 40.3247 33.9088Z" fill="#00833E"/>
<path d="M41.3312 27.7359C41.0628 29.9725 40.8839 31.9854 40.7721 33.7746L42.2929 34.8929C42.0916 32.6564 41.868 30.1514 41.7785 27.7583C41.7785 27.4228 41.3983 27.1097 41.3312 27.7359Z" fill="#00833E"/>
<path d="M40.6155 38.2477L42.7179 39.7015C42.6284 38.5384 42.4942 37.0176 42.3376 35.3178L40.7497 34.1548C40.6602 35.698 40.6155 37.0623 40.6155 38.2477Z" fill="#00833E"/>
<path d="M40.8615 27.7359C40.9062 27.3333 40.5708 27.378 40.5037 27.6241C39.9222 29.5475 39.363 31.8959 39.0052 34.4903L40.3247 33.4615C40.4589 31.7617 40.6155 29.8606 40.8615 27.7359Z" fill="#00833E"/>
<path d="M39.0052 43.8839C39.117 44.5772 39.2288 45.2482 39.363 45.8297C39.5867 46.0757 40.1905 46.5006 40.705 44.9574C41.5772 46.4112 42.114 46.2099 42.2929 46.0981C42.4047 45.5613 42.5166 44.9798 42.606 44.3312L40.5037 42.9445L39.0052 43.8839Z" fill="#00833E"/>
<path d="M40.7497 42.6761L42.6508 43.9509C42.7402 43.1458 42.785 42.2288 42.785 41.2447C42.785 40.954 42.7626 40.5737 42.7402 40.1488L40.5931 38.6727C40.6155 40.4843 40.6826 41.8262 40.7497 42.6761Z" fill="#00833E"/>
<path d="M40.1682 38.4267L38.6697 39.4555C38.6697 40.9093 38.7815 42.2736 38.9381 43.5037L40.28 42.6762C40.2353 41.7592 40.1458 40.3501 40.1682 38.4267Z" fill="#00833E"/>
<path d="M31.6693 34.4232L33.548 38.4713L36.9475 35.3178C36.9475 35.3178 38.5802 25.7453 41.5101 20.467C33.794 27.9595 31.6693 34.4232 31.6693 34.4232ZM37.462 31.046C37.4172 31.2025 37.3949 31.3591 37.3501 31.4933C36.9028 33.4838 36.6344 34.9599 36.5897 35.1165V35.1389L36.366 35.3625L33.6374 37.8898L32.0271 34.4232C32.0271 34.4232 32.0718 34.2442 32.206 33.9311C32.2508 33.8193 32.3179 33.6627 32.385 33.5062C32.7204 32.7681 33.2796 31.5827 34.1966 30.0842C34.286 29.9277 34.3979 29.7711 34.4873 29.5922C35.7622 27.5569 37.6409 24.9625 40.3471 22.055C39.1394 24.5599 38.1329 28.2279 37.462 31.046Z" fill="#00833E"/>
<path d="M44.1716 18.1635C43.4112 18.1635 42.785 18.7897 42.785 19.5501C42.785 20.3105 43.4112 20.9368 44.1716 20.9368C44.9321 20.9368 45.5359 20.3105 45.5359 19.5501C45.5359 18.7673 44.9321 18.1635 44.1716 18.1635ZM44.1716 20.4224C43.6796 20.4224 43.2994 20.0198 43.2994 19.5501C43.2994 19.0581 43.702 18.6779 44.1716 18.6779C44.6637 18.6779 45.0439 19.0804 45.0439 19.5501C45.0439 20.0198 44.6637 20.4224 44.1716 20.4224Z" fill="#00833E"/>
<path d="M49.1815 34.9824C49.0697 34.2667 48.9131 33.5286 48.7342 32.7905C48.5553 31.9854 48.3316 31.1802 48.0856 30.375C47.4594 28.295 46.7213 26.3045 46.0503 24.6942C45.4017 23.1062 44.8426 21.8985 44.5518 21.2946C44.4176 21.317 44.2834 21.3393 44.1493 21.3393C44.0151 21.3393 43.9032 21.317 43.769 21.2946C43.6572 22.7036 43.2099 28.6753 44.0598 34.043C45.2675 41.7591 48.1974 44.5548 48.1974 44.5548C48.1974 44.5548 50.2551 41.6697 49.1815 34.9824ZM49.1368 38.0017L46.8108 36.7492C46.7437 36.3019 46.5424 35.1166 46.3187 33.6181L48.846 35.0718C49.025 36.1454 49.1144 37.1295 49.1368 38.0017ZM48.1527 31.8288C48.3987 32.7682 48.6224 33.7299 48.7789 34.6469L46.2516 33.1931C46.1174 32.3432 45.9832 31.4486 45.8267 30.5316L48.1527 31.8288ZM45.1557 23.4193C46.0056 25.3875 47.191 28.3398 48.0185 31.3591L45.7596 30.0843C45.2675 26.9084 44.7308 23.5983 44.7308 23.5983C44.686 23.2181 45.0662 23.1733 45.1557 23.4193ZM43.9703 23.8219C43.9927 23.397 44.3729 23.3746 44.4176 23.6654L45.4241 30.0619L44.0822 31.3144C43.8585 28.4963 43.8809 25.7677 43.9703 23.8219ZM44.4176 34.0206C44.3058 33.2602 44.2163 32.4998 44.1269 31.7393L45.4912 30.4645L45.9385 33.2378L44.5295 34.6469C44.4847 34.4232 44.44 34.2219 44.4176 34.0206ZM44.5966 35.0495L46.0056 33.6628L46.4976 36.8163L45.357 38.203C45.0662 37.2636 44.7979 36.2125 44.5966 35.0495ZM45.4688 38.5832L46.5647 37.2413C46.7437 38.0017 47.3252 40.3725 47.3475 40.4843C47.3028 40.5514 46.9002 41.2895 46.6766 41.6697C46.2963 40.8421 45.8714 39.8357 45.4688 38.5832ZM48.1527 43.9957C47.8619 43.6378 47.4146 43.0116 46.9002 42.0275L47.5936 40.7527L48.846 41.8262C48.6224 42.8774 48.354 43.5931 48.1527 43.9957ZM48.9131 41.446L47.683 40.3948C47.5488 39.8804 47.0568 37.8675 46.9002 37.1742L49.1368 38.3819C49.1591 39.5897 49.0697 40.6185 48.9131 41.446Z" fill="#001A70"/>
<path d="M33.5032 43.7944C33.4138 43.7944 33.3243 43.9286 33.3243 44.2865C33.3243 44.6891 33.7716 45.5166 34.3307 46.0534C34.3531 45.785 34.3531 45.5389 34.3531 45.4271C34.3307 44.9574 34.0847 43.7944 33.5032 43.7944Z" fill="black"/>
<path d="M58.7316 39.5226C58.7316 37.6215 60.588 30.5763 47.0791 19.9527L49.3604 19.4383L48.1751 15.5914L45.9161 17.0899V14.7415H41.4877C38.6026 12.6615 37.2159 10 32.6757 10C30.7746 10 28.7841 10.3802 28.3591 10.3802C28.0237 10.3802 27.0172 10.1566 25.2951 10.1566C20.3299 10.1566 19.8602 13.8692 20.4865 15.1665C13.9333 19.6619 10.7127 22.8826 10.7127 24.0456C10.7127 24.4929 10.9811 25.0744 10.9811 25.9243C10.9811 27.7583 7 31.8064 7 33.9535C7 35.9665 9.54968 36.1006 9.54968 36.1006C9.68387 36.6821 8.69978 38.6503 9.59441 39.6568C8.3643 40.9987 9.7957 41.6473 9.7957 42.7209C9.7957 43.4366 9.30366 43.6602 9.30366 44.9798C9.30366 46.4783 10.0194 48.3123 13.732 48.3123C15.2082 48.3123 16.5054 48.0886 17.5566 48.0886C17.8473 51.2198 19.1892 52.4499 19.3905 53.2327C19.5695 53.8589 19.972 55.2232 20.7996 55.2232C21.8731 55.2232 27.8447 53.2551 32.3849 50.5265C34.6662 51.3763 37.5514 51.0856 38.6026 51.0856C39.7432 51.0856 40.2129 51.7789 40.8839 51.7789C41.2864 51.7789 44.3729 48.3346 44.1716 40.8198C46.0951 44.0852 47.2357 46.2099 47.3699 47.4176C49.8748 46.523 51.9772 40.5961 51.0602 36.8387C51.0602 36.8387 54.2138 41.9604 59 41.2C59 41.1776 58.7316 40.2383 58.7316 39.5226ZM47.8172 16.7768L48.4434 18.8568L46.4529 19.3041L46.0503 17.9622L47.8172 16.7768ZM44.1716 18.1634C44.932 18.1634 45.5359 18.7897 45.5359 19.5501C45.5359 20.3105 44.932 20.9368 44.1716 20.9368C43.4112 20.9368 42.7849 20.3105 42.7849 19.5501C42.7849 18.7673 43.4112 18.1634 44.1716 18.1634ZM45.1781 15.4796V17.4925H44.1269L42.2705 15.4796H45.1781ZM21.2469 54.172C20.4641 54.172 20.3746 53.0538 19.9273 52.271C19.48 51.4882 18.8761 50.7948 18.4735 47.8873C22.0968 47.0598 24.2215 46.1204 24.7806 43.4813C23.1256 46.4559 18.4288 47.44 14.2465 47.44C12.2335 47.44 10.2206 46.948 10.2206 45.114C10.2206 44.197 10.6903 44.2864 10.6903 42.7656C10.6903 41.4013 9.43785 41.3118 10.489 39.9699C13.1953 40.2159 14.4477 39.5673 14.8056 39.5673C15.1411 39.5673 15.5213 39.9252 15.5213 40.1712C15.5213 40.3948 15.5213 40.8198 15.8568 40.8198C16.1923 40.8198 16.2146 40.4172 16.2146 40.2606C16.2146 38.8516 15.1411 39.0305 15.2529 38.3596C15.2976 38.0688 15.2082 37.4202 14.2241 37.4202C13.6426 37.4202 13.1282 37.5768 13.1282 37.8675C13.1282 37.9794 13.2847 38.203 13.6202 38.203C13.7991 38.203 14.2912 38.1135 14.2912 38.4043C14.2912 38.874 12.3454 39.1424 11.1824 39.1424C10.7351 39.1424 10.0641 39.0753 10.0641 38.0465C10.0641 37.3531 10.4667 36.2348 10.5114 35.9217C10.5561 35.6086 10.668 35.5639 11.0482 35.5191C11.4284 35.4744 13.0387 35.2508 13.7991 35.2508C16.5277 35.2508 16.0357 37.1742 16.7514 37.1742C17.0869 37.1742 17.154 35.6533 15.0516 34.6021C15.3424 33.6181 14.3583 32.0972 12.6585 32.0972C12.2559 32.0972 11.7191 32.2761 11.7191 32.9471C11.7191 33.6181 12.3006 34.0206 12.8374 34.0206C13.486 34.0206 13.486 33.4168 12.8151 33.5286C12.8151 33.5286 12.2783 33.4168 12.2783 33.0589C12.2783 32.9695 12.323 32.634 12.9045 32.634C13.5755 32.634 14.4701 33.4168 14.4701 33.9759C14.4701 34.1996 14.3806 34.6245 13.5084 34.714C12.6361 34.8034 10.3101 35.1389 9.41548 35.1389C8.49849 35.1389 7.93935 34.5351 7.93935 33.8417C7.93935 31.9406 11.8533 28.049 11.8533 26.0361C11.8533 25.477 11.6073 24.9402 11.6073 24.3587C11.6073 22.4129 16.8409 18.7673 20.7772 16.0834C22.4323 17.2017 25.0043 18.2976 25.0043 23.889C25.0043 27.1544 24.2439 28.1385 24.2439 31.8288C24.2439 35.2955 25.6753 38.1135 26.9501 40.1935C29.1419 39.3437 29.8129 42.4077 28.6499 44.1746L31.3338 49.9449C27.6658 52.2039 22.1862 54.172 21.2469 54.172ZM35.3148 47.2387C35.1806 47.2387 35.0241 47.194 34.8452 47.1269C34.5544 48.1333 33.9505 48.5135 33.3019 48.5135C32.1166 48.5135 31.0654 46.8138 31.0654 44.0404C31.0654 39.1647 26.1002 37.6215 26.1002 32.388C26.1002 27.8925 27.1961 25.052 27.1961 21.8314C27.1961 18.6555 24.9148 16.8886 24.9148 14.5849C24.9148 13.8022 25.3174 13.0417 26.4804 13.0417C28.5157 13.0417 29.3209 14.8757 31.3561 14.8757C33.1901 14.8757 33.6151 13.4667 34.8899 13.4667C37.5514 13.4667 36.4331 18.0069 38.9828 18.0069C39.5867 18.0069 40.1905 17.6938 40.1905 17.6938C40.5484 17.5148 40.9286 18.0069 40.526 18.2305C40.526 18.2305 39.8998 18.6108 38.9381 18.6108C35.9187 18.6108 36.6791 14.0929 34.957 14.0929C33.8163 14.0929 33.3914 15.5019 31.4009 15.5019C29.2538 15.5019 28.1131 13.6903 26.5699 13.6903C26.1226 13.6903 25.5858 13.8469 25.5858 14.6744C25.5858 16.7768 27.4422 17.8056 27.8 21.0262C28.3815 20.892 32.1613 20.0422 38.7591 20.0422C39.1841 20.0422 39.2512 20.6684 38.7815 20.6684C32.7875 20.5342 28.5381 21.4735 27.8447 21.6525C27.8447 21.8314 27.8671 21.988 27.8671 22.1669C27.8671 25.0744 26.7712 27.8925 26.7712 32.2761C26.7712 37.4202 31.7363 38.9187 31.7363 44.0628C31.7363 45.4942 32.3179 47.8649 33.3467 47.8649C33.8834 47.8649 34.1295 47.3505 34.2413 46.769C33.4585 46.1875 32.6533 45.1811 32.6533 44.2641C32.6533 43.5931 32.9217 43.1682 33.3914 43.1682C33.8611 43.1682 35.0241 43.5708 35.0241 45.6731C35.0241 45.9862 35.0017 46.2546 34.9794 46.5006C35.0912 46.5454 35.203 46.5677 35.3148 46.5677C35.5832 46.5677 36.2318 46.2546 36.2318 45.36C36.2318 41.7815 29.0748 39.4778 29.0748 32.634C29.0748 28.7424 29.4998 23.7996 30.9088 23.7996C32.0047 23.7996 32.3402 25.5888 32.8323 25.5888C33.1006 25.5888 32.9217 22.1445 34.1295 22.1445C34.8899 22.1445 35.5161 23.3299 35.9187 23.7101C35.9187 23.7101 36.2766 22.7484 36.4331 22.0103C36.5226 21.5406 37.1712 21.6748 37.0817 22.1222C36.8133 23.1062 36.612 24.3587 35.9858 24.3587C35.2254 24.3587 34.5991 22.7484 34.1742 22.7484C33.6374 22.7484 34.0624 26.2151 32.877 26.2151C31.9153 26.2151 31.4009 24.4705 30.9983 24.4705C30.2379 24.4705 29.7234 29.4804 29.7234 32.6116C29.7234 39.12 36.8581 41.2671 36.8581 45.4271C36.8804 46.8809 35.6503 47.2387 35.3148 47.2387ZM37.1041 35.8546L33.6598 38.9634C33.5256 39.0976 33.3243 39.0529 33.2348 38.8963L31.1548 34.8258C30.9983 34.5127 31.1325 34.1996 31.1325 34.1996C32.206 31.6723 35.7621 24.3363 42.3376 19.3935C42.3376 19.4383 42.3376 19.483 42.3376 19.5277C42.3376 19.6843 42.36 19.8409 42.4047 19.9751C41.0852 21.9656 38.9828 26.3492 37.4172 35.2955C37.4172 35.2955 37.3501 35.6533 37.1041 35.8546ZM40.9286 50.9738C40.1011 50.9738 37.8421 47.0374 37.8421 39.612C37.8421 32.3656 40.526 23.889 42.6507 20.5118C42.7402 20.6684 42.852 20.8026 42.9862 20.9144C42.7849 21.4959 42.6284 22.0998 42.6284 24.3587C42.6284 34.8929 43.7914 40.4843 43.7914 41.8933C43.769 46.9927 41.5548 50.9738 40.9286 50.9738ZM50.5905 35.3178C49.6512 33.797 48.8237 32.0972 48.0856 30.3751C48.3316 31.1802 48.5553 31.9854 48.7342 32.7905C49.2039 33.7523 49.6959 34.6692 50.2327 35.5415C50.3445 35.7428 50.4787 35.9217 50.5905 36.1006C51.4852 44.0628 47.6383 46.769 47.6383 46.769C47.6383 46.769 47.5265 45.2705 44.2387 40.0817C43.9927 36.369 42.7178 34.1325 43.277 21.1381C43.4335 21.2052 43.5901 21.2723 43.7467 21.317C43.8585 21.3394 43.9927 21.3617 44.1269 21.3617C44.2611 21.3617 44.3953 21.3394 44.5295 21.317C44.7084 21.2723 44.8649 21.2052 45.0215 21.1157C45.1781 21.0262 45.3123 20.9368 45.4241 20.8026C45.5359 20.6908 45.6254 20.5789 45.6925 20.4447C45.8267 20.1987 45.9161 19.9303 45.9385 19.6396C47.2133 20.5789 52.7376 24.8508 55.8912 29.9277C59.6933 36.0335 57.7252 39.6568 58.3961 40.7527C58.4185 40.7527 54.5045 41.6026 50.5905 35.3178Z" fill="black"/>
<path d="M23.4611 38.4043C22.6559 37.532 21.4482 35.0047 23.8413 32.8353C22.0073 32.3432 19.5024 37.2413 23.4611 38.4043Z" fill="black"/>
<path d="M20.5983 21.5406C20.7101 21.6748 20.889 21.6748 21.0232 21.5853C21.1127 21.4959 21.1798 21.2946 21.068 21.1604C21.0232 21.1157 20.2181 20.1763 19.1222 19.237C19.2563 19.1475 19.4353 19.0133 19.6142 18.8791C20.0839 19.2817 21.9402 20.8696 23.1032 22.301C23.2151 22.4352 23.394 22.4576 23.5282 22.3458C23.6624 22.2339 23.6847 22.055 23.5729 21.9208C22.4323 20.4894 20.7325 19.0133 20.1062 18.4989C20.3075 18.3423 20.4865 18.2081 20.5759 18.141C21.8284 19.0357 22.5217 19.9079 22.5441 19.9303C22.6559 20.0645 22.8348 20.0868 22.969 19.975C23.1032 19.8632 23.1256 19.6843 23.0138 19.5501C22.9914 19.5053 22.1862 18.5213 20.7548 17.5148C20.643 17.4477 20.5088 17.4477 20.397 17.5148L18.4512 18.9686C18.2723 19.1028 18.317 19.3264 18.4512 19.4606C19.6589 20.4223 20.5983 21.5182 20.5983 21.5406Z" fill="black"/>
<path d="M20.0168 24.0903C18.1604 24.0903 17.5342 22.0998 15.2082 22.0998C13.9557 22.0998 13.3071 22.5918 13.3071 23.0168C13.3071 23.4417 13.7991 23.7996 13.7991 23.7996C14.0452 24.314 12.4125 24.8731 13.2624 25.2086L14.3136 25.6112C13.9781 26.2151 14.2017 27.311 14.2688 27.5794C12.1217 27.6017 12.323 28.2727 14.2017 28.2951C14.2017 28.6082 13.9781 29.4357 14.3136 29.4357C14.6714 29.4357 15.1187 29.0108 15.2976 28.228C16.8632 28.0267 18.6301 27.4899 18.6301 27.4899C18.9432 27.4004 19.2563 27.1097 18.6525 26.7518L15.7673 25.0521C15.7673 25.0521 15.5213 24.8955 15.6779 24.5376L15.9015 24.0232C15.9686 23.8667 16.1252 23.8443 16.1923 23.8443C17.0198 23.8443 18.2499 25.0744 19.8602 25.0744C20.5759 25.0744 21.3587 24.6718 21.3587 24.2693C21.3587 23.9114 20.3746 24.0903 20.0168 24.0903ZM15.2305 24.6495C15.1858 24.7389 15.074 24.7837 14.9845 24.7389L14.0899 24.314C13.8662 24.2022 13.8662 24.068 14.1123 24.0009L15.2753 23.6877C15.4989 23.6207 15.6108 23.7548 15.5213 23.9561L15.2305 24.6495ZM18.1381 27.1097C18.1381 27.1097 17.3776 27.4452 15.5437 27.557C15.4989 27.3781 15.3871 26.6847 15.5437 26.1032L18.1381 27.1097Z" fill="black"/>
<path d="M53.1179 40.775C52.5587 40.775 52.1114 41.2223 52.1114 41.7815C52.1114 42.3406 52.5587 42.7879 53.1179 42.7879C53.677 42.7879 54.1243 42.3406 54.1243 41.7815C54.1243 41.2447 53.6546 40.775 53.1179 40.775ZM53.1179 42.5866C52.6929 42.5866 52.3351 42.2288 52.3351 41.8038C52.3351 41.3789 52.6929 41.021 53.1179 41.021C53.5428 41.021 53.9007 41.3789 53.9007 41.8038C53.9007 42.2288 53.5428 42.5866 53.1179 42.5866Z" fill="black"/>
<path d="M53.5204 41.5578C53.5204 41.3789 53.3639 41.2224 53.1849 41.2224H52.6929V42.363H52.9165V41.8933H53.0731L53.2968 42.363H53.5428L53.3191 41.871C53.431 41.8262 53.5204 41.7144 53.5204 41.5578ZM53.1849 41.692H52.9165V41.446H53.1849C53.252 41.446 53.3191 41.4907 53.3191 41.5802C53.3191 41.6697 53.252 41.692 53.1849 41.692Z" fill="black"/>
</g>
<defs>
<clipPath id="clip0_33_1947">
<rect width="52" height="45.2009" fill="white" transform="translate(7 10)"/>
</clipPath>
</defs>
</svg>
