<svg width="64" height="64" viewBox="0 0 64 64" fill="none" xmlns="http://www.w3.org/2000/svg">
<g clip-path="url(#clip0_33_1935)">
<path d="M32.9128 46.3206C32.3607 46.3206 31.9125 46.7681 31.9125 47.3206C31.9125 47.8724 32.3607 48.3206 32.9128 48.3206C33.4649 48.3206 33.9125 47.8724 33.9125 47.3206C33.9125 46.7681 33.4649 46.3206 32.9128 46.3206ZM32.9128 48.1061C32.8096 48.1062 32.7074 48.0859 32.6121 48.0465C32.5168 48.007 32.4301 47.9492 32.3572 47.8762C32.2842 47.8032 32.2264 47.7166 32.1869 47.6213C32.1475 47.5259 32.1272 47.4237 32.1273 47.3206C32.1273 46.8866 32.4783 46.5356 32.9128 46.5356C33.3468 46.5356 33.6981 46.8866 33.6981 47.3206C33.6981 47.7548 33.3468 48.1061 32.9128 48.1061ZM33.3237 47.0888C33.3237 47.0442 33.3149 47.0001 33.2978 46.959C33.2808 46.9179 33.2558 46.8805 33.2243 46.8491C33.1927 46.8176 33.1553 46.7927 33.1142 46.7756C33.073 46.7586 33.0289 46.7499 32.9844 46.75H32.5025V47.8915H32.7167V47.4279H32.8704L33.0869 47.8915H33.3237L33.0977 47.4081C33.1637 47.3847 33.2209 47.3414 33.2613 47.2842C33.3018 47.2271 33.3236 47.1588 33.3237 47.0888ZM32.9844 47.2136H32.7167V46.9638H32.9844C33.0532 46.9638 33.1095 47.0198 33.1095 47.0888C33.1094 47.1219 33.0962 47.1537 33.0727 47.177C33.0493 47.2004 33.0175 47.2135 32.9844 47.2136Z" fill="#C8102E"/>
<path d="M56.0395 25.018C58.4621 22.9478 60.81 19.6095 60.81 15.7868C60.81 15.2334 60.135 15.0778 59.8613 15.454C57.3651 18.8604 55.0111 20.1546 53.5891 20.6473C55.9537 18.8572 58.2727 15.9342 58.8658 12.6194C58.931 12.0146 58.2731 11.838 57.9691 12.1546C55.074 15.0493 51.0882 18.1384 40.3767 18.1384C37.7884 18.1384 34.8296 18.0633 32.9163 18.0633C24.2197 18.0633 21.0214 23.4422 20.3004 24.9354C19.5844 24.832 18.8595 24.7682 18.1388 24.7682C9.89613 24.7682 3.19006 31.4742 3.19006 39.7176C3.19 47.9603 9.896 54.6666 18.1387 54.6666C24.2053 54.6666 29.5682 51.0842 31.9111 45.5178C32.076 45.5346 32.2509 45.5628 32.3985 45.5628C34.2927 45.5628 34.69 45.0088 34.69 44.5426C34.69 44.2926 34.4423 43.9907 34.3197 43.8148C37.0986 43.7998 37.9136 43.6696 39.1163 43.2541C39.3119 43.1931 39.4267 43.0114 39.4267 42.8181C39.4267 42.4081 38.586 41.7294 37.9771 41.202C41.8638 41.1368 44.7257 40.4426 44.7257 39.5336C44.7257 39.356 44.7088 39.1322 43.6773 38.3198C45.8701 37.7234 49.7227 36.2448 49.7227 35.282C49.7227 34.9089 49.4007 34.6802 49.0245 34.418C52.4379 33.1319 55.308 30.8656 55.308 30.053C55.308 29.398 54.3429 29.3424 53.8645 29.3054C55.5653 28.216 57.9335 26.3592 57.9335 25.5574C57.9335 24.7269 56.6321 25.054 56.0395 25.018H56.0395Z" fill="#C8102E"/>
<path d="M55.042 25.2305C57.7621 23.1922 60.3477 19.672 60.3477 15.7868C60.3477 15.7052 60.2671 15.6925 60.2333 15.7266C56.0287 21.467 52.2052 21.4106 52.2052 21.4106C52.038 21.4106 51.9985 21.176 52.1313 21.0836C54.846 19.4869 57.7576 16.1932 58.4115 12.5379C58.4204 12.4889 58.3472 12.4296 58.2957 12.4807C55.2078 15.5689 50.9641 18.6002 40.3766 18.6002C36.986 18.6002 35.2165 18.5252 32.9163 18.5252C23.7355 18.5252 20.9123 24.6273 20.5781 25.435C19.7721 25.2984 18.9562 25.2297 18.1387 25.2296C10.1376 25.2296 3.65134 31.7156 3.65134 39.7177C3.65134 47.7186 10.1376 54.2052 18.1387 54.2052C24.2653 54.2052 29.5035 50.4021 31.6217 45.0286C31.8926 45.0748 32.1541 45.101 32.398 45.101C33.8741 45.101 34.2285 44.7716 34.2285 44.5426C34.2285 44.3874 33.2845 43.3557 33.7531 43.3557C37.0269 43.3557 37.7637 43.2335 38.9657 42.8182C38.389 41.9157 36.3003 40.7475 37.3758 40.7475C42.5643 40.7475 44.2646 39.7458 44.2646 39.5336C44.2646 39.2857 42.6102 38.0943 42.6102 38.0943C45.0001 37.7003 49.2614 35.7943 49.2614 35.2821C49.2614 34.9856 48.0459 34.488 48.2407 34.207C52.03 32.9467 54.8462 30.498 54.8462 30.0531C54.8462 29.6962 52.625 29.7379 52.625 29.7379V29.5019C54.5458 28.5033 57.4717 26.0886 57.4717 25.5574C57.4717 25.219 54.7261 25.7861 55.042 25.2305Z" fill="white"/>
<path d="M21.6956 36.9806C21.2267 36.3712 20.6053 35.8858 19.8876 35.582L19.7711 35.6963L20.0117 37.3514C20.0869 37.4108 20.159 37.4739 20.2279 37.5404L21.4404 37.5504C21.5282 37.3617 21.6133 37.1718 21.6956 36.9806ZM16.4495 35.7209L17.7903 36.72C17.8854 36.7091 17.981 36.7027 18.0768 36.7008L19.2695 35.5272L19.2453 35.3665C18.8836 35.2746 18.5119 35.2281 18.1387 35.2282C17.5601 35.2279 16.9868 35.34 16.4509 35.5582L16.4495 35.7209ZM19.3538 36.107L18.6974 36.7512C18.9714 36.8024 19.2368 36.8918 19.4861 37.0166L19.3538 36.107ZM19.8407 42.21C19.6106 42.367 19.3601 42.4915 19.0961 42.5801L19.8334 43.1292L19.8407 42.21H19.8407ZM13.8532 46.3485L15.9881 44.2481C15.1535 43.852 14.4463 43.2304 13.9435 42.4633L12.1531 44.8651C12.6461 45.4382 13.2186 45.9377 13.8532 46.3485ZM20.6313 38.0153C20.7489 38.1869 20.8482 38.3704 20.9277 38.5626C21.0255 38.3835 21.1202 38.2027 21.2117 38.0202L20.6313 38.0153ZM16.6185 44.4972C16.5663 44.4804 16.5144 44.4627 16.4628 44.4442L14.2702 46.6006C15.1331 47.0867 16.0802 47.4049 17.0615 47.5385L16.6185 44.4972ZM20.6151 41.574L20.5051 41.5904C20.4458 41.6654 20.3828 41.7375 20.3165 41.8064L20.302 43.4791L20.4327 43.5759C20.8363 43.3353 21.1998 43.0331 21.51 42.6802C21.0649 42.276 20.7462 41.8928 20.6151 41.574ZM16.437 37.2252C16.6667 37.0676 16.9174 36.943 17.1817 36.8551L16.4445 36.3051L16.437 37.2251V37.2252ZM13.6841 42.0212C13.659 41.9726 13.6344 41.9237 13.6105 41.8744L10.5354 41.8484C10.8058 42.8156 11.2559 43.707 11.8464 44.4854L13.6841 42.0212ZM19.8283 43.7145L18.4882 42.715C18.3931 42.7257 18.2975 42.732 18.2018 42.7337L17.0088 43.9068L17.0318 44.0682C17.3936 44.1601 17.7654 44.2065 18.1387 44.2063C18.7174 44.2067 19.2906 44.0948 19.8267 43.8768L19.8283 43.7145ZM16.9246 43.3276L17.5801 42.6829C17.3064 42.6316 17.0411 42.5426 16.7919 42.4182L16.9246 43.3276ZM20.2959 44.246L20.2703 47.3206C21.2368 47.0504 22.1281 46.6006 22.9069 46.0096L20.4421 44.1721C20.3935 44.1972 20.3454 44.2221 20.2959 44.246ZM15.646 41.4194C15.489 41.1894 15.3648 40.9387 15.2771 40.6744L14.7269 41.4115L15.646 41.4195V41.4194ZM16.0496 41.8946L14.3776 41.8806L14.2805 42.0109C14.7674 42.8282 15.5061 43.479 16.3905 43.8526L16.5067 43.738L16.2663 42.0836C16.1912 42.0239 16.119 41.9608 16.0496 41.8946ZM15.9619 37.6283L15.9755 35.9561L15.8455 35.8586C15.0277 36.3457 14.3776 37.0844 14.0031 37.9693L14.118 38.0861L15.7729 37.8446C15.8324 37.7696 15.8955 37.6974 15.9619 37.6283ZM14.5284 38.5026L15.1729 39.1586C15.2242 38.8847 15.3136 38.6193 15.4384 38.3701L14.5284 38.5026ZM13.7876 38.6107C13.6964 38.9726 13.6502 39.3444 13.6501 39.7177C13.6498 40.2963 13.7617 40.8695 13.9799 41.4054L14.1421 41.4068L15.1417 40.0662C15.1302 39.9712 15.124 39.8756 15.1229 39.7798L13.9491 38.5878L13.7876 38.6108V38.6107ZM17.1141 44.6271L17.5456 47.5901C18.2995 47.6469 19.0577 47.5954 19.7971 47.4372L19.8222 44.4423C19.2818 44.6347 18.7124 44.7329 18.1387 44.7326C17.7877 44.7326 17.4447 44.6965 17.1141 44.6271ZM22.5258 33.7619C22.5258 33.5576 22.5213 33.3529 22.5145 33.1468C22.4845 33.1263 22.4547 33.106 22.4247 33.0864L20.2896 35.1864C20.9125 35.4829 21.4677 35.9046 21.9205 36.4252C22.2503 35.5626 22.5258 34.5926 22.5258 33.7618V33.7619ZM15.8359 35.2622C15.8843 35.2373 15.9326 35.2122 15.9818 35.189L16.0076 32.1141C15.0411 32.3841 14.1497 32.8339 13.3706 33.4251L15.8359 35.2622ZM19.1639 34.8079L18.7319 31.8444C18.536 31.8306 18.3385 31.8219 18.1387 31.8219C17.5701 31.8219 17.0149 31.8831 16.4801 31.9982L16.4553 34.9924C16.9957 34.8001 17.5651 34.7019 18.1387 34.7024C18.4903 34.7024 18.8329 34.739 19.1639 34.8079ZM24.3511 44.5879C23.4398 44.1165 22.5809 43.5619 21.9107 43.0217C21.6101 43.3636 21.2651 43.6636 20.8848 43.9139L23.2859 45.7033C23.6761 45.3677 24.0324 44.9929 24.3511 44.5879ZM22.0085 32.8346C21.1455 32.3485 20.1983 32.03 19.2169 31.896L19.6597 34.9378C19.7124 34.9547 19.7643 34.9723 19.8157 34.9904L22.0085 32.8346ZM10.2439 39.7177C10.2439 40.2867 10.3044 40.8413 10.4193 41.3758L13.4135 41.4007C13.2215 40.8604 13.1235 40.2911 13.1239 39.7177C13.1239 39.366 13.1599 39.0237 13.2287 38.6919L10.2661 39.1244C10.2512 39.3218 10.2437 39.5197 10.2439 39.7177ZM10.3175 38.6394L13.3591 38.1964C13.3757 38.1436 13.394 38.0929 13.4123 38.0406L11.2561 35.8482C10.7695 36.7109 10.451 37.658 10.3175 38.6394ZM11.5082 35.432L13.6079 37.5666C14.0042 36.7343 14.6218 36.0271 15.3931 35.5222L12.9918 33.7316C12.4184 34.2245 11.9188 34.7971 11.5082 35.432Z" fill="#C8102E"/>
<path d="M18.1386 41.3453C19.0377 41.3453 19.7665 40.6165 19.7665 39.7175C19.7665 38.8184 19.0377 38.0896 18.1386 38.0896C17.2396 38.0896 16.5107 38.8184 16.5107 39.7175C16.5107 40.6165 17.2396 41.3453 18.1386 41.3453Z" fill="#C8102E"/>
<path d="M18.1387 29.9504C12.7446 29.9504 8.37207 34.3234 8.37207 39.7177C8.37207 45.1118 12.7446 49.4844 18.1387 49.4844C21.4317 49.4844 24.3436 47.8548 26.1134 45.3581C25.7423 45.2272 25.3654 45.0729 24.9919 44.901C23.4227 46.9719 20.9374 48.3101 18.1387 48.3101C13.3931 48.3101 9.54567 44.4629 9.54567 39.7177C9.54567 34.9716 13.3931 31.1244 18.1387 31.1244C19.7241 31.1244 21.2097 31.5548 22.4845 32.3038C22.4728 31.8782 22.4707 31.4398 22.5043 30.9788C21.1907 30.3209 19.7079 29.9504 18.1387 29.9504Z" fill="#C8102E"/>
<path d="M28.994 45.7365C28.3632 45.8875 27.5493 45.7921 26.6753 45.5393C24.815 48.2621 21.6855 50.0499 18.1385 50.0499C12.4329 50.0499 7.80639 45.4241 7.80639 39.7176C7.80639 39.5345 7.81159 39.3531 7.82026 39.1728C7.50079 39.6576 7.59292 40.4575 7.02639 40.4575C6.57706 40.4575 6.82612 39.8454 6.49726 39.8454C6.29259 39.8454 6.26392 40.1262 6.00946 40.1262C5.97966 40.1262 5.95319 40.1156 5.93392 40.1156C5.87926 40.1156 5.85492 40.2343 5.75126 40.2343C5.61899 40.2343 5.52612 40.0781 5.42106 40.0781C5.30259 40.0781 5.26486 40.3042 5.10772 40.3042C4.94659 40.3042 4.79059 40.0345 4.72772 39.9111C4.83146 47.2305 10.7959 53.1309 18.1387 53.1309C23.7583 53.1309 28.5698 49.6754 30.5665 44.7733C29.0621 44.3183 27.6244 43.5507 27.6244 43.5507C27.7161 44.4471 28.994 45.7365 28.994 45.7365ZM6.05686 34.589C6.36666 34.8451 6.11972 35.293 6.34206 35.6012C8.04352 30.7247 12.6825 27.2255 18.1387 27.2255C19.9219 27.2255 21.6175 27.6001 23.152 28.2731C23.2701 27.9891 23.4006 27.7103 23.5429 27.4375C21.8893 26.7087 20.0614 26.3031 18.1387 26.3031C12.5026 26.3031 7.67979 29.78 5.69406 34.7049C5.80452 34.7773 5.92619 34.4811 6.05686 34.589ZM34.5181 20.8033H41.8984C51.3264 20.8033 55.4543 17.4326 57.0803 14.4447C57.1741 14.2651 57.0587 14.2274 56.8795 14.3866C54.827 16.2281 51.7645 19.4423 39.26 19.4423H33.9831C25.6825 19.4423 22.5567 23.1851 21.7415 25.6814C22.1545 25.7875 22.5627 25.9116 22.9649 26.0534C24.4405 23.3967 27.2529 20.8033 34.5181 20.8033Z" fill="#C8102E"/>
<path d="M34.3451 22.7065C26.9595 22.7065 22.7055 27.7789 23.1923 32.6253C23.5551 36.2363 21.5345 39.17 21.5345 39.17C21.5345 39.17 24.353 37.8937 24.353 32.7518C24.353 27.8781 29.2014 24.3309 33.2875 24.3309C37.2389 24.3309 41.8236 24.3557 44.0969 24.3557C56.1523 24.3557 59.0693 18.7861 59.4847 17.6993C59.5579 17.5363 59.4523 17.5694 59.4127 17.6451C56.8957 21.0395 53.3713 22.9778 43.808 22.9778C37.6647 22.9778 35.7221 22.7065 34.3451 22.7065Z" fill="#C8102E"/>
<path d="M37.0987 26.9268C35.1044 26.9268 34.9041 27.4819 34.9041 27.4819C34.8411 27.5593 34.8732 27.741 34.7335 27.794C34.2779 27.97 33.7737 27.5926 33.3816 28.1001C33.1447 28.4066 32.5701 28.0286 32.1975 28.245C32.1137 28.294 32.1988 28.5064 32.2636 28.5344C32.4381 28.6111 32.7261 28.5884 32.8345 28.6784C32.9489 28.7722 32.9388 28.9064 33.0451 28.985C33.1766 29.0814 33.4236 29.1243 33.5336 29.2763C33.6196 29.3933 33.6471 29.626 33.7719 29.6328C36.7656 29.8028 39.8388 29.8023 42.6797 28.7017C43.0014 28.195 39.8926 26.9268 37.0987 26.9268ZM25.3317 33.5285C25.3711 33.8181 25.2955 34.2628 25.3556 34.2686C27.4394 34.4961 29.5546 34.1256 31.4829 33.2405C32.0195 33.0128 29.3888 31.6431 27.2002 31.6431C26.4891 31.6431 26.0048 31.9456 26.0048 31.9456C25.8828 32.0158 25.785 32.3016 25.6431 32.5146C25.5374 32.6729 25.7398 32.9208 25.6549 33.0228C25.4977 33.2122 25.3038 33.3282 25.3317 33.5284V33.5285ZM28.1814 28.4561C28.0806 28.473 28.0048 28.6368 27.9301 28.743C27.741 29.0092 27.142 28.9503 27.1469 29.2533C27.1537 29.8058 26.5383 29.9069 26.4405 30.3049C26.3641 30.6168 26.1964 30.8525 26.1734 31.1881C28.3843 31.2001 30.6587 31.0575 32.6187 29.932C33.1311 29.6986 29.9193 28.205 28.1814 28.4561ZM35.2205 26.5606C35.0597 25.9193 34.2815 25.7992 33.751 25.4889C33.5406 25.3656 33.2937 25.4218 33.0507 25.5262C32.5241 25.7523 31.8471 25.3684 31.3037 25.7588C31.1489 25.8712 31.0661 26.0802 30.8661 26.132C30.6177 26.1965 30.3672 26.2068 30.1137 26.2389C30.0206 26.2518 29.8461 26.3146 29.8576 26.4202C29.9083 26.8712 29.4887 26.9652 29.1559 27.0816C28.8304 27.196 28.946 27.6252 28.9359 27.9414C31.0898 27.9688 33.3307 27.6653 35.2205 26.5606ZM24.2395 37.1962C24.7932 37.4842 27.4713 37.0973 28.8675 36.2296C27.4333 35.013 25.138 34.5716 25.138 34.5716C24.8197 35.4401 24.4905 36.3043 24.2395 37.1963V37.1962Z" fill="#C8102E"/>
<path d="M23.838 37.7032C23.5765 37.8423 23.2765 38.237 23.5139 38.3974C23.9388 38.6854 24.6439 39.3308 27.896 39.3308C31.0628 39.3308 32.2676 38.3522 32.8668 37.7445C32.8668 37.3524 30.0808 36.5498 29.7068 36.7677C29.5919 36.8247 29.5783 36.9398 29.5628 36.9905C29.4378 37.0395 29.0508 37.0456 28.9589 37.1127C28.7429 37.2712 28.7858 37.5299 28.7281 37.5452C28.2339 37.668 27.6214 37.3568 27.1535 37.57C27.028 37.628 27.0388 37.9771 26.8725 37.9898C26.5337 38.0154 26.1607 37.8139 25.838 37.9169C25.7806 37.9359 25.6061 37.9612 25.4914 38.0334C25.3141 37.9424 25.2198 37.9204 24.9881 37.8643C24.8167 37.8223 24.6511 37.9401 24.4412 37.9044C24.2447 37.8702 24.0239 37.6042 23.838 37.7032ZM36.6793 35.4168C37.2642 35.1124 37.968 35.0835 38.3977 34.5026C35.7726 33.1316 32.7071 33.2735 32.3328 33.4902C32.2404 33.5442 32.1328 33.7353 32.0155 33.8101C31.8353 33.9283 31.6681 33.8715 31.5488 33.9909C31.4773 34.0624 31.5558 34.2514 31.5053 34.3214C31.4395 34.414 31.2941 34.4304 31.2033 34.4794C31.1111 34.5298 30.9165 34.4475 30.7715 34.5087C30.6271 34.57 30.6212 34.7052 30.5267 34.7531C30.1747 34.9325 29.6639 34.7245 29.4214 34.7282C29.2963 34.7304 29.3287 34.9276 29.3691 34.9672C29.526 35.1227 29.98 35.1701 29.9627 35.4004C29.9587 35.4476 29.8499 35.6082 29.7811 35.6171C30.0218 36.131 32.2608 36.8123 35.206 35.8354C35.6978 35.6874 36.2063 35.6626 36.6793 35.4168V35.4168ZM40.0297 31.633C40.2706 31.4716 40.5776 31.4698 40.7211 31.2418C41.0389 30.8292 37.972 30.1475 36.7276 30.1475C35.4909 30.1475 33.2073 30.4578 32.8155 30.5954C32.6531 30.663 32.6445 30.9941 32.454 31.0176C32.0873 31.0626 31.724 31.1072 31.3551 31.1381C31.2338 31.148 31.2643 31.3424 31.3021 31.3722C31.5419 31.5659 31.6161 31.686 31.7171 31.9826C31.7273 32.0106 31.9763 31.986 32.0307 32.0324C32.2704 32.2392 32.4416 32.5336 32.7418 32.6065C34.1942 32.955 35.5981 33.0512 37.0848 32.7057C37.244 32.6691 37.3606 32.5396 37.5027 32.5223C38.0243 32.4548 38.567 32.4233 38.9713 32.0382C39.2567 31.766 39.712 31.8471 40.0297 31.633ZM43.5573 25.3539C43.6426 25.301 43.5732 25.0249 43.5017 25.0144C43.1687 24.9637 42.8079 24.8291 42.4477 25.1525C42.3257 25.2625 42.0987 25.0258 41.9301 25.1277C41.7936 25.2088 41.659 25.4272 41.5321 25.4837C41.1867 25.6373 40.8515 25.2784 40.4701 25.323C40.3583 25.3354 40.3855 25.5843 40.2743 25.6104C39.9463 25.688 39.6597 25.3308 39.4746 25.4508C39.1913 25.6335 38.9533 25.8662 38.6103 25.7118C38.2811 25.5622 37.8463 25.251 37.6211 25.4471C37.2301 25.7886 36.7545 25.2938 36.4107 25.4271C36.1194 25.54 35.3361 25.7266 35.8704 26.0364C37.5304 27.0414 40.9967 26.8418 43.5573 25.354V25.3539ZM27.1028 44.1982C27.0161 44.0408 26.7916 44.1252 26.6371 44.0343C26.5249 43.9663 26.4713 43.7327 26.3615 43.6424C26.2766 43.5725 26.0718 43.731 25.9665 43.6696C25.8172 43.5818 25.7032 43.3926 25.5866 43.2622C25.4569 43.1184 25.3378 42.962 25.2102 42.818C25.0906 42.6827 24.9628 42.5589 24.8101 42.4686C24.728 42.42 24.5685 42.5249 24.4693 42.4991C24.2937 42.4522 24.1914 42.1468 24.0477 42.0192C23.9651 41.946 23.8333 41.936 23.7603 41.8666C23.6855 41.7946 23.6696 41.6623 23.591 41.5752C23.4871 41.4612 23.3351 41.4207 23.2228 41.3288C23.0706 41.2042 22.9567 40.8888 22.8394 40.715C22.7223 40.5412 22.549 40.522 22.4365 40.3698C22.2955 40.1789 22.2129 39.8583 22.0405 39.6651C21.8679 39.4699 21.4357 39.7814 21.3037 40.0443C21.087 40.4744 21.0997 41.0206 21.4301 41.3893C23.0554 43.205 25.1659 44.7109 27.5813 45.1084C27.4011 44.8486 27.2112 44.3954 27.1028 44.1982ZM32.4472 43.5903C32.2012 43.5218 31.9855 43.3858 31.7601 43.2927C31.621 43.2355 31.4871 43.4512 31.3372 43.3621C31.034 43.1811 30.7732 42.9217 30.5319 42.7289C30.3405 42.5758 29.9568 42.1916 29.7919 42.269C29.7269 42.2978 29.6336 42.6548 29.4769 42.5373C29.0991 42.2542 28.8538 41.9498 28.5013 41.641C28.3397 41.5004 28.1859 41.965 27.9809 41.8666C27.5095 41.6374 27.3197 41.1266 26.9572 40.7646C26.5341 40.3433 26.1295 39.8552 25.5475 39.7009C25.4508 39.6756 25.5041 39.8166 25.4135 39.8874C24.9689 40.2345 24.4794 39.6416 24.0476 39.4436C23.6515 39.2607 23.303 38.9704 22.8574 38.9401C22.7629 38.9331 22.7671 39.0757 22.803 39.1181C25.3415 42.121 28.8639 44.3739 32.7327 44.2831C32.8225 44.281 33.0056 44.2911 32.8551 44.1046C32.7347 43.9569 32.5997 43.6328 32.4472 43.5903ZM36.0404 41.4029C35.9274 41.3862 35.7519 41.5389 35.6539 41.5204C35.3539 41.4641 35.1166 41.1946 34.7526 41.0024C34.6025 40.9233 34.5244 41.2781 34.4067 41.2706C33.8033 41.2362 32.9313 40.5964 32.3926 40.2736C32.2971 40.216 31.7214 40.3308 31.6259 40.3501C31.2795 40.4198 30.8389 39.8133 30.5666 39.6854C30.3602 39.5893 30.0729 39.4875 29.8771 39.6341C29.6113 39.8318 29.2957 39.7258 29.0046 39.7218C28.8918 39.7194 28.7921 39.9596 28.6521 40.0037C28.2553 40.131 27.816 39.855 27.4265 40.0494C27.4152 40.0548 27.362 40.1362 27.365 40.1644C27.3917 40.4085 27.6645 40.4496 27.8444 40.5593C30.6341 42.3288 34.9421 42.9018 37.3425 42.3649C37.3969 42.348 37.3121 42.1428 37.1502 42.0192C36.9828 41.8907 36.736 41.8424 36.6319 41.7694C36.3896 41.5996 36.2604 41.436 36.0404 41.4029ZM41.6561 38.8278C41.3609 38.9152 41.1325 38.6988 40.8871 38.7924C40.8309 38.8144 40.7924 38.9073 40.7455 38.9078C40.283 38.9169 39.9748 38.4192 39.5039 38.4568C39.3874 38.4659 39.3897 38.6721 39.2905 38.6955C39.0004 38.7635 38.7431 38.4124 38.4816 38.5384C38.2951 38.6296 38.1638 38.6228 37.9851 38.5703C37.7534 38.5023 37.5813 38.2963 37.3575 38.261C37.1598 38.23 36.9654 38.426 36.7423 38.3611C36.1875 38.1995 35.7571 37.672 35.1614 37.7984C34.8673 37.8606 34.6145 37.6594 34.4114 37.7811C34.1886 37.9131 34.1253 38.0738 33.8994 38.208C33.7465 38.3008 33.3884 38.2891 33.2282 38.3862C33.1069 38.4605 33.076 38.6476 32.9372 38.7051C32.6766 38.8128 32.3682 38.7363 32.1241 38.8744C32.0954 38.8904 32.0793 39.0267 32.1839 39.056C34.4585 39.8269 38.1401 40.6752 42.5377 39.534C42.6733 39.4926 42.7015 39.4115 42.5912 39.2842C42.3497 39.0048 42.0179 38.7202 41.6561 38.8278ZM46.9189 34.9736C46.5303 35.1544 46.0803 34.9536 45.6495 35.0559C45.5369 35.0826 45.6232 35.243 45.5106 35.2588C45.0883 35.3186 44.6501 35.2106 44.2543 35.3652C43.9447 35.4855 43.5732 35.3488 43.2324 35.3575C43.1027 35.361 43.0997 35.5348 43.0797 35.6757C43.0615 35.7951 42.8811 35.8666 42.8279 35.8509C42.4057 35.7254 42.0012 35.68 41.5732 35.6171C40.4983 35.4584 39.4343 35.1166 38.4237 35.4184C38.0939 35.5174 37.6568 35.6 37.4042 35.8566C37.3071 35.956 37.2037 36.152 37.0745 36.1992C36.456 36.4241 35.7825 36.4659 35.1661 36.6854C34.9799 36.751 34.6251 37.0123 34.7578 37.0466C34.7578 37.0466 36.6593 37.5986 38.734 37.5986C42.7268 37.5986 45.7707 36.6162 47.9973 35.4014C47.8695 35.24 47.2133 34.8366 46.9189 34.9736ZM51.3004 30.6006C51.0555 30.6812 50.7213 30.45 50.5119 30.6046C50.1993 30.8351 49.832 30.7934 49.5109 30.7603C49.3578 30.7441 49.1176 30.6902 48.9821 30.7962C48.8944 30.8651 49.0203 30.9756 49.1024 31.0497C48.2943 31.3278 47.4028 31.0658 46.6364 31.377C46.5789 31.4004 46.5444 31.6817 46.4028 31.7099C45.6992 31.852 45.0409 31.5758 44.3431 31.7036C44.1658 31.7364 44.2445 32.1118 44.0589 32.1208C43.4325 32.1514 42.8223 32.0988 42.1965 32.0727C41.4521 32.0417 40.7664 32.3117 40.064 32.527C39.855 32.5898 39.7924 32.9219 39.5675 32.9559C38.9603 33.0486 38.3423 32.9423 37.7886 33.2158C37.7513 33.234 37.7487 33.4203 37.7895 33.4423C38.4682 33.8258 39.2459 34.0906 39.7098 34.7106C44.4325 34.661 49.5142 34.0436 53.4463 30.8196C53.5239 30.7568 53.0582 30.6596 52.8075 30.6015C52.5631 30.5448 52.3619 30.5448 52.0655 30.4479C51.8018 30.3609 51.5583 30.5162 51.3004 30.6006ZM56.2039 26.1589C56.1559 26.13 55.4412 26.0013 55.046 26.0942C54.9613 26.1141 54.9114 26.252 54.8321 26.2648C54.3218 26.3467 53.9623 26.5904 53.4439 26.6064C53.3356 26.6089 53.1025 26.6861 52.9629 26.7524C52.7749 26.8432 52.5171 26.6226 52.3703 26.7872C52.2756 26.8934 52.4407 27.1486 52.2687 27.2297C51.8173 27.4422 51.2896 27.0609 50.8475 27.3491C50.7188 27.4324 50.9835 27.7142 50.8175 27.7668C50.1819 27.9654 49.0829 26.9788 48.6669 28.0032C48.6022 28.1641 48.4031 28.0914 48.2787 28.059C48.1584 28.0278 47.9884 27.9722 47.9169 28.0318C47.5275 28.3486 47.2987 28.4751 46.7511 28.3214C46.6127 28.2816 46.6101 28.6934 46.3411 28.628C46.0334 28.5539 45.7377 28.332 45.4564 28.4577C45.3256 28.5161 45.422 28.8582 45.2315 28.8768C44.4661 28.9498 43.6771 28.8395 42.9719 29.1528C42.7979 29.2305 42.7817 29.5433 42.538 29.5835C42.0013 29.6723 41.466 29.6097 40.9645 29.7724C40.8832 29.7985 40.9022 30.0375 41.0263 30.0556C41.3478 30.1034 41.7131 30.0534 41.9599 30.2005C42.2627 30.3813 42.4545 30.8909 42.7523 30.9029C48.8172 31.0202 53.1985 28.8468 56.2039 26.3402C56.3228 26.237 56.2611 26.1941 56.2039 26.1589ZM54.7172 22.6013C54.6262 22.6426 54.6551 22.9428 54.4817 23.0233C54.1832 23.1606 53.8436 23.1566 53.5246 23.2536C53.4039 23.291 53.4106 23.4515 53.3098 23.5144C53.1403 23.6224 52.9107 23.5326 52.7868 23.6241C52.0207 24.1856 51.1099 23.9337 50.2591 24.0744C50.2725 24.7156 49.2603 24.324 48.8454 24.603C48.3923 24.9067 48.4525 24.8237 47.7783 24.83C47.5688 24.8324 47.6819 25.1415 47.5133 25.145C46.9757 25.1546 46.2811 24.9841 45.8803 25.1007C45.8083 25.1216 45.7848 25.4604 45.6422 25.4987C45.3497 25.577 45.0427 25.6087 44.7625 25.6974C44.5455 25.766 44.8291 26.176 44.5385 26.2682C44.0448 26.4244 43.5011 26.3104 43.0033 26.5925C42.8079 26.7042 42.5213 26.5988 42.2676 26.6455C42.0518 26.6842 41.9693 26.9108 42.1456 27.0104C42.3051 27.1003 42.5715 27.0768 42.7287 27.1544C43.0933 27.3343 43.3959 27.5946 43.7878 27.6193C50.1948 28.0135 58.4821 23.4593 59.7875 17.943C59.8329 17.721 59.7311 17.7619 59.6859 17.8857C58.2959 21.1956 54.7172 22.6013 54.7172 22.6013Z" fill="#C8102E"/>
</g>
<defs>
<clipPath id="clip0_33_1935">
<rect width="64" height="42.6667" fill="white" transform="translate(0 12)"/>
</clipPath>
</defs>
</svg>
