<svg width="64" height="64" viewBox="0 0 64 64" fill="none" xmlns="http://www.w3.org/2000/svg">
<path d="M54.0526 11.9336C47.7023 8.62752 40.0345 6.88037 31.8782 6.88037C23.7208 6.88037 16.0533 8.62778 9.70425 11.9339L9.36255 12.1117V21.7839C9.36255 24.3586 9.73018 31.1431 13.1343 38.5196C16.9537 46.7954 22.4717 52.3461 31.5855 57.0792L31.8782 57.2311L32.1711 57.0792C41.2854 52.3454 46.8035 46.7946 50.6226 38.5196C54.027 31.1431 54.3946 24.3586 54.3946 21.7839V12.1114L54.0526 11.9336ZM53.7591 21.7839C53.7591 24.3166 53.3972 30.9915 50.0458 38.2533C45.9318 47.1669 39.8776 52.3604 31.8782 56.5153C23.8124 52.3267 17.7986 47.1104 13.7108 38.2533C10.3597 30.9915 9.99773 24.3166 9.99773 21.7839V12.497C16.8064 8.95159 24.566 7.51556 31.8784 7.51556C39.2593 7.51556 46.9943 8.97519 53.7594 12.497V21.7839H53.7591Z" fill="white"/>
<path d="M31.3208 26.2037C31.3208 26.2037 31.2279 26.2043 31.0444 26.2253C31.1361 26.2136 31.2283 26.2064 31.3208 26.2037Z" fill="black"/>
<path d="M40.7967 30.5803C41.7741 30.0306 43.0872 28.8087 43.0872 28.8087C43.7898 26.7318 44.3968 23.9476 44.3968 23.9476C44.3968 23.6728 44.0647 23.2259 44.0647 23.2259C43.7323 23.0542 42.9651 22.9396 42.9651 22.9396C41.8311 23.1229 40.3539 24.2339 39.1776 25.1566C39.7887 25.1566 40.8576 24.9593 40.8576 24.9593C40.6437 25.5089 39.8802 26.9447 39.8802 26.9447C40.3689 26.975 41.3157 26.7614 41.3157 26.7614C40.9491 27.8915 40.2468 29.2671 40.2468 29.2671L40.7967 30.5803Z" fill="#011E41"/>
<path d="M12.6766 23.3016C13.0308 30.2806 15.9218 42.8855 27.842 51.1175C29.4372 50.2635 30.5005 48.8272 31.1325 47.7077C32.3894 49.2273 32.5193 51.3475 32.5193 51.3488C33.8633 45.0571 27.9685 40.2009 27.9685 40.2009C27.9685 40.2009 32.2214 42.269 35.1536 45.6285C35.1536 45.6285 35.2387 45.0623 35.0621 44.1396C34.856 43.0628 34.5353 42.3071 34.5353 42.3071C34.5353 42.3071 37.5995 44.7968 39.2528 48.5026V48.5029L39.365 48.4031C43.5689 44.0537 43.6892 37.5352 43.6892 37.5352C42.773 33.7326 41.1633 32.4127 41.1633 32.4127C41.484 34.1524 41.6826 36.0613 41.6826 36.0613C40.6595 38.3213 38.8268 39.8333 38.8268 39.8333C37.1774 40.0166 35.87 39.8522 33.5812 39.0773C31.5958 38.4053 30.1222 37.3591 30.1222 37.3591C30.1222 37.3591 29.3662 37.3133 28.4959 37.405C27.7593 37.4826 26.8695 37.6798 26.8695 37.6798C27.8545 35.9389 28.4388 34.1703 28.5451 33.3658C27.8747 32.6564 27.1495 31.9816 26.4083 31.448C24.777 31.524 23.4795 31.6184 23.4795 31.6184L24.0291 29.389C24.0291 29.389 23.6539 29.7014 23.2347 30.1206C22.7846 30.5707 22.2882 31.1299 22.2882 31.1299C21.3107 31.5268 19.9362 31.7407 19.9362 31.7407C19.2338 31.5574 18.5618 31.0993 18.5618 31.0993C20.2112 28.6561 22.899 27.6784 22.899 27.6784C22.4103 27.0982 22.4409 26.6401 22.4409 26.6401C23.047 26.2384 23.669 25.861 24.3052 25.5089C24.1699 25.867 24.1512 26.1197 24.1512 26.1197C24.1512 26.1197 25.0918 25.3614 25.6642 25.0176C26.3056 24.6326 26.9305 24.3036 26.9305 24.3036C27.3453 22.9669 28.0564 21.8829 28.2397 21.7292C28.2397 21.7292 28.6143 21.6693 28.8088 21.6924C28.8453 22.1297 29.3447 22.8266 29.5477 23.0937C28.5104 23.4325 27.6118 24.1076 27.6118 24.1076C27.6118 24.1076 29.8912 23.4994 31.9087 23.432C34.6421 23.3405 36.3268 23.9567 36.3268 23.9567C35.9161 24.5497 35.36 25.1742 35.36 25.1742C39.8817 23.6415 40.3539 22.4699 42.8046 21.9431C43.698 22.0883 44.5072 22.3784 44.5072 22.3784C45.0877 22.9892 45.2251 23.6153 45.2251 23.6153C44.8891 26.2268 43.8355 29.1601 43.8355 29.1601C43.0108 30.1681 41.5905 31.0843 41.5905 31.0843C43.0108 30.901 45.1183 30.2583 45.1183 30.2583C46.4286 31.2144 48.1488 33.2929 48.8625 34.1876C50.3483 30.0664 50.9327 26.1993 51.0799 23.3018C50.4831 23.0011 43.0616 19.3785 31.8782 19.3785C20.6953 19.3782 13.2735 23.0008 12.6766 23.3016ZM21.6465 40.0166C20.547 39.146 20.1804 37.8784 20.1804 37.8784C20.211 36.9928 20.6385 36.4442 20.6385 36.4442C22.6236 37.8491 25.678 39.1014 25.678 39.1014C23.2959 39.3295 21.6465 40.0166 21.6465 40.0166ZM21.2109 33.1101C21.3722 32.9841 21.5913 32.8099 21.7354 32.7016C21.7354 32.7016 22.6021 32.5779 23.5474 32.5144C24.2803 32.4571 24.9598 32.4877 24.9598 32.4877L25.5652 33.1975C25.103 33.2495 24.647 33.3472 24.2041 33.4892C24.2041 33.4892 25.4076 33.8221 26.2346 34.3878C26.2224 34.498 26.2074 34.6074 26.1885 34.7152C25.9243 34.689 25.1727 34.633 24.405 34.7456C24.405 34.7456 25.2422 35.1378 25.9352 35.6908C25.8937 35.8132 25.8506 35.9314 25.8066 36.0439C25.2871 35.9371 24.7571 35.8896 24.2269 35.9024C24.2269 35.9024 24.8649 36.299 25.4472 36.8391C25.2987 37.1268 25.189 37.2995 25.189 37.2995C23.4183 36.7709 21.2143 35.7626 20.6522 35.5005L20.6227 33.7554C20.8117 33.518 20.9175 33.373 21.2109 33.1101ZM18.6409 32.4208C18.7824 32.646 18.9343 32.8646 19.0962 33.0757C19.2883 33.3253 19.4985 33.5473 19.7373 33.7705L20.3733 35.5594C19.9203 35.9916 19.3251 36.9329 19.3251 36.9329C18.5922 35.6804 18.0117 34.0619 18.0117 34.0619L18.6409 32.4208Z" fill="#011E41"/>
<path d="M32.6264 26.7153C32.4732 26.6503 32.3193 26.5871 32.1647 26.5258C31.7115 26.3453 31.3208 26.2035 31.3208 26.2035C31.3208 26.2035 31.2277 26.204 31.0444 26.225C30.9985 26.2302 30.9469 26.2367 30.8896 26.2447C30.7753 26.2608 30.6381 26.2833 30.4787 26.3147C29.7613 26.4558 28.5902 26.7749 26.9849 27.4977L26.847 27.2143L26.6632 26.8366L24.8227 29.3696C25.448 29.4865 26.0954 29.5246 26.6901 29.5218C27.9989 29.5155 29.0528 29.311 29.0528 29.311C29.7377 28.7336 30.3447 28.1075 30.76 27.6525C30.8984 27.5008 31.0156 27.3681 31.1074 27.2628C31.2295 27.1223 31.3065 27.0298 31.328 27.0051C31.7561 26.8833 32.0921 26.8221 32.6264 26.7153ZM28.5949 28.6561C27.5566 29.1601 26.6707 28.7476 26.6707 28.7476L26.9149 28.3341C27.0637 28.4943 27.4876 28.6613 27.8008 28.534C28.1101 28.408 28.2304 28.0842 28.2711 27.9304C28.6408 27.8618 29.014 27.8135 29.389 27.7858C29.389 27.7855 29.234 28.3458 28.5949 28.6561Z" fill="#011E41"/>
<path d="M9.99768 12.497V21.7839C9.99768 24.3166 10.3596 30.9915 13.7111 38.2533C17.7988 47.1107 23.8126 52.3267 31.8784 56.5153C39.8778 52.3604 45.932 47.1669 50.046 38.2533C53.3974 30.9915 53.7593 24.3166 53.7593 21.7839V12.497C46.9942 8.97519 39.259 7.51556 31.8784 7.51556C24.566 7.51556 16.8063 8.9516 9.99768 12.497ZM52.5714 21.7839C52.5714 24.238 52.2201 30.7076 48.9675 37.7556C45.1797 45.9624 39.4324 51.2539 31.8781 55.1773C24.3542 51.2695 18.5898 45.9909 14.7891 37.7556C11.5361 30.7073 11.1851 24.238 11.1851 21.7839V13.2175C17.1646 10.104 24.9943 8.70271 31.8781 8.70271C38.7384 8.70271 46.5799 10.0983 52.5714 13.2175V21.7839Z" fill="#011E41"/>
<path d="M30.7602 27.653C30.3449 28.108 29.7377 28.7341 29.053 29.3115C29.738 28.7339 30.3449 28.1078 30.7602 27.653Z" fill="#BC955C"/>
<path d="M11.1851 13.2174V21.7839C11.1851 24.238 11.5362 30.7076 14.7891 37.7555C18.5898 45.9912 24.3542 51.2694 31.8782 55.1773C39.4325 51.2539 45.1797 45.9624 48.9675 37.7555C52.2202 30.7073 52.5714 24.238 52.5714 21.7839V13.2174C46.58 10.0983 38.7384 8.7027 31.8782 8.7027C24.9943 8.7027 17.1647 10.104 11.1851 13.2174ZM48.8625 34.1874C48.1487 33.2927 46.4286 31.2144 45.1183 30.258C45.1183 30.258 43.0107 30.9007 41.5905 31.084C41.5905 31.084 43.0107 30.1678 43.8355 29.1598C43.8355 29.1598 44.8891 26.2265 45.2251 23.615C45.2251 23.615 45.0877 22.9889 44.5072 22.3781C44.5072 22.3781 43.698 22.088 42.8046 21.9428C40.3536 22.4696 39.8815 23.6412 35.36 25.174C35.36 25.174 35.9161 24.5494 36.3268 23.9565C36.3268 23.9565 34.6421 23.34 31.9088 23.4317C29.8912 23.4994 27.6118 24.1074 27.6118 24.1074C27.6118 24.1074 28.5104 23.4323 29.5477 23.0934C29.3447 22.8261 28.8453 22.1292 28.8088 21.6921C28.6146 21.669 28.2397 21.7289 28.2397 21.7289C28.0564 21.8829 27.3453 22.9669 26.9305 24.3034C26.9305 24.3034 26.3056 24.6324 25.6642 25.0174C25.0915 25.3609 24.1512 26.1195 24.1512 26.1195C24.1512 26.1195 24.1699 25.8667 24.3052 25.5087C23.6689 25.8606 23.0469 26.238 22.4409 26.6398C22.4409 26.6398 22.4103 27.0979 22.899 27.6781C22.899 27.6781 20.2112 28.6556 18.5618 31.0991C18.5618 31.0991 19.2338 31.5572 19.9362 31.7405C19.9362 31.7405 21.3105 31.5266 22.2882 31.1297C22.2882 31.1297 22.7846 30.5704 23.2347 30.1204C23.6539 29.7011 24.0291 29.3887 24.0291 29.3887L23.4795 31.6181C23.4795 31.6181 24.7773 31.5237 26.4083 31.4478C27.1495 31.9813 27.8747 32.6562 28.5451 33.3655C28.4388 34.17 27.8545 35.9387 26.8695 37.6796C26.8695 37.6796 27.7593 37.4823 28.4959 37.4048C29.3665 37.313 30.1222 37.3589 30.1222 37.3589C30.1222 37.3589 31.5958 38.405 33.5812 39.077C35.87 39.8517 37.1777 40.016 38.8268 39.833C38.8268 39.833 40.6593 38.321 41.6826 36.061C41.6826 36.061 41.4842 34.1521 41.1633 32.4125C41.1633 32.4125 42.773 33.7324 43.6892 37.5349C43.6892 37.5349 43.5689 44.0532 39.365 48.4028L39.2528 48.5026V48.5024C37.8928 49.7063 36.442 50.8037 34.9133 51.7846C33.9291 52.4166 32.9164 53.0029 31.8782 53.5416C31.8782 53.5416 32.4278 52.3871 32.5193 51.3485V51.3483C32.5193 51.347 32.3892 49.2267 31.1325 47.7072C30.5005 48.8264 29.4372 50.263 27.842 51.117C15.9215 42.885 13.0308 30.2801 12.6766 23.3011C13.2735 23.0003 20.695 19.3777 31.8782 19.3777C43.0616 19.3777 50.4831 23.0003 51.0799 23.3011C50.9329 26.1991 50.3486 30.0662 48.8625 34.1874ZM39.8802 26.9444C39.8802 26.9444 40.6437 25.5087 40.8576 24.959C40.8576 24.959 39.7884 25.1563 39.1776 25.1563C40.3539 24.2336 41.8311 23.1227 42.9651 22.9394C42.9651 22.9394 43.7325 23.054 44.0646 23.2256C44.0646 23.2256 44.3967 23.6723 44.3967 23.9474C44.3967 23.9474 43.7898 26.7318 43.0872 28.8085C43.0872 28.8085 41.7738 30.0304 40.7967 30.58L40.247 29.2666C40.247 29.2666 40.9494 27.891 41.316 26.7609C41.3157 26.7611 40.3689 26.9748 39.8802 26.9444ZM31.3283 27.0054C31.3438 27.2802 31.3285 27.4941 31.3285 27.4941C30.8704 28.2882 29.9998 29.235 29.4424 29.754C28.2742 30.0288 27.1366 30.0441 26.1667 29.9983L24.8227 29.3698L26.6632 26.8368C26.6632 26.8368 29.1896 25.8275 31.321 26.2035C31.321 26.2035 31.712 26.3453 32.1649 26.5257C32.316 26.5859 32.4739 26.6502 32.6266 26.7153C32.092 26.8221 31.756 26.8833 31.3283 27.0054ZM33.6969 28.8933C33.7884 28.5192 33.7262 27.3385 33.7262 27.3385C33.7262 27.3385 34.3989 27.5623 35.4373 28.387C35.4373 28.387 35.3027 29.1513 35.0937 29.9218L31.4841 31.5766C31.4838 31.5764 32.6876 30.278 33.6969 28.8933ZM51.1201 14.0981V21.7432C45.3477 19.1169 38.1992 17.9266 31.8784 17.9266C25.5367 17.9266 18.3977 19.1205 12.6367 21.7419V14.0981C12.6367 14.0981 20.2112 10.154 31.8784 10.154C43.5456 10.1543 51.1201 14.0981 51.1201 14.0981Z" fill="#BC955C"/>
<path d="M27.8008 28.5337C27.4876 28.6613 27.0637 28.4943 26.9149 28.3338C26.8003 28.5285 26.6707 28.7473 26.6707 28.7473C26.6707 28.7473 27.5566 29.1598 28.5949 28.6558C29.234 28.3455 29.389 27.7852 29.389 27.7852C29.014 27.8129 28.6408 27.8612 28.2711 27.9299C28.2304 28.0841 28.1101 28.4077 27.8008 28.5337ZM31.8784 10.1543C20.2112 10.1543 12.6367 14.0984 12.6367 14.0984V21.7424C18.3977 19.121 25.5367 17.9271 31.8784 17.9271C38.1992 17.9271 45.348 19.1174 51.1201 21.7437V14.0981C51.1201 14.0981 43.5456 10.1543 31.8784 10.1543Z" fill="#CE0E2D"/>
<path d="M23.3558 16.2806C22.8082 16.3827 22.2619 16.4942 21.7172 16.6153V12.63C21.3825 12.7044 21.0486 12.7824 20.7149 12.8638V17.8564C21.5898 17.6425 22.4704 17.4529 23.3558 17.2878V16.2806ZM31.6829 14.5822C31.7635 14.5822 31.8439 14.5824 31.9245 14.583C32.1957 15.2507 32.4661 15.9187 32.7358 16.587C33.0977 16.5953 33.4596 16.6075 33.8213 16.6236C33.5518 15.9492 33.2815 15.2751 33.0103 14.6014C33.1221 14.6045 33.2338 14.6079 33.3455 14.612C33.5039 14.3299 33.6626 14.0486 33.821 13.7681V12.4926C33.6629 12.1983 33.5045 11.9051 33.3461 11.6124C32.4509 11.581 31.5551 11.5745 30.6596 11.5927L30.6594 16.585C31.0003 16.5782 31.3412 16.5746 31.6821 16.5751V14.5822H31.6829ZM31.6829 12.5895C32.0552 12.5898 32.4272 12.5944 32.7995 12.6033V13.5884C32.4274 13.5796 32.0552 13.575 31.6829 13.5747V12.5895ZM16.72 16.9412C17.1006 16.8134 17.4825 16.6902 17.8654 16.572V15.5645C17.4825 15.6827 17.1006 15.8059 16.72 15.9337V14.9483C17.252 14.7695 17.787 14.5999 18.3248 14.4396V13.4324C17.4558 13.6914 16.5941 13.9746 15.7408 14.2817L15.7405 19.2743C16.0662 19.1568 16.3928 19.0433 16.72 18.9333V16.9412ZM46.1478 16.698C46.5074 16.8097 46.8657 16.9254 47.2232 17.0454V19.0378C47.5504 19.148 47.877 19.2616 48.2024 19.3787V15.2487C48.0507 14.9065 47.8993 14.5653 47.7474 14.2249C47.0432 13.9793 46.3334 13.7499 45.6186 13.5369C45.4651 13.7785 45.3114 14.0206 45.1576 14.2638V18.3943C45.4885 18.4892 45.8182 18.5877 46.1475 18.6899V16.698H46.1478ZM46.1478 14.7056C46.5074 14.8171 46.8657 14.933 47.2232 15.0533V16.0384C46.8661 15.9184 46.5076 15.8025 46.1478 15.691V14.7056ZM27.8015 16.7416C27.9597 16.4416 28.1181 16.1424 28.2762 15.8437V12.5763C28.1178 12.2997 27.9594 12.0241 27.8015 11.7493C27.0661 11.8076 26.3321 11.8829 25.6002 11.9751C25.4425 12.282 25.2852 12.5898 25.1278 12.8986V16.1673C25.2852 16.4333 25.4425 16.6998 25.6002 16.9674C26.3326 16.8753 27.0665 16.7999 27.8015 16.7416ZM26.1444 12.9172C26.5148 12.875 26.8853 12.8369 27.2566 12.8031V15.7805C26.8853 15.8142 26.5148 15.8523 26.1444 15.8946V12.9172ZM37.2484 11.8815C36.9093 11.8423 36.5699 11.8066 36.2301 11.7744V16.767C36.5697 16.7991 36.9093 16.8346 37.2484 16.8738V11.8815ZM42.7756 16.958L42.7624 13.6906C42.606 13.3679 42.4492 13.0455 42.2918 12.7233C41.4134 12.5305 40.5299 12.362 39.6422 12.218L39.6621 17.2103C40.5488 17.3539 41.4324 17.5222 42.3118 17.7153C42.4665 17.4623 42.6211 17.2098 42.7756 16.958ZM41.7702 16.5933C41.4041 16.5171 41.0371 16.4453 40.6694 16.3778L40.6574 13.4005C41.0252 13.4682 41.3921 13.54 41.7582 13.6159L41.7702 16.5933ZM19.3251 36.9329C19.3251 36.9329 19.9203 35.9916 20.3732 35.5594L19.7373 33.7705C19.4985 33.547 19.288 33.3253 19.0961 33.0757C18.9343 32.8646 18.7823 32.646 18.6409 32.4208L18.0117 34.0619C18.0117 34.0619 18.5921 35.6807 19.3251 36.9329ZM20.1804 37.8784C20.1804 37.8784 20.5469 39.146 21.6465 40.0166C21.6465 40.0166 23.2959 39.3293 25.6779 39.1014C25.6779 39.1014 22.6236 37.8491 20.6385 36.4442C20.6385 36.4442 20.2109 36.9928 20.1804 37.8784ZM29.053 29.3112C29.053 29.3112 27.9991 29.5158 26.6904 29.522C26.0956 29.5249 25.448 29.4867 24.8229 29.3698L26.1669 29.9983C27.1368 30.0441 28.2744 30.0288 29.4427 29.754C30.0001 29.2347 30.8707 28.2879 31.3288 27.4941C31.3288 27.4941 31.3441 27.2802 31.3285 27.0054C31.307 27.03 31.23 27.1226 31.1076 27.2631C31.0158 27.3686 30.8987 27.5013 30.7602 27.6527C30.3449 28.1077 29.7379 28.7338 29.053 29.3112ZM25.1892 37.2995C25.1892 37.2995 25.2989 37.1269 25.4475 36.8391C24.8652 36.299 24.2271 35.9024 24.2271 35.9024C24.7573 35.8896 25.2873 35.9371 25.8068 36.0439C25.8509 35.9314 25.8939 35.8132 25.9354 35.6908C25.2424 35.1381 24.4052 34.7456 24.4052 34.7456C25.1729 34.633 25.9245 34.689 26.1887 34.7152C26.2076 34.6074 26.2227 34.498 26.2348 34.3878C25.4078 33.8221 24.2043 33.4892 24.2043 33.4892C24.6473 33.3472 25.1032 33.2495 25.5654 33.1975L24.9601 32.4877C24.9601 32.4877 24.2805 32.4571 23.5476 32.5144C22.6024 32.5779 21.7356 32.7016 21.7356 32.7016C21.5915 32.8099 21.3724 32.9839 21.2112 33.1101C20.9177 33.373 20.8119 33.518 20.6234 33.7554L20.653 35.5005C21.2145 35.7626 23.4185 36.7709 25.1892 37.2995Z" fill="white"/>
<path d="M35.4373 28.3869C34.3989 27.5622 33.7261 27.3385 33.7261 27.3385C33.7261 27.3385 33.7884 28.5192 33.6968 28.8933C32.6876 30.2782 31.4841 31.5766 31.4841 31.5766L35.0937 29.9218C35.2285 29.4149 35.3431 28.9029 35.4373 28.3869Z" fill="#011E41"/>
<path d="M34.5353 42.3074C34.5353 42.3074 34.856 43.0634 35.0621 44.1398C35.2387 45.0625 35.1536 45.6288 35.1536 45.6288C32.2217 42.269 27.9685 40.2012 27.9685 40.2012C27.9685 40.2012 33.8633 45.0573 32.5193 51.3491C32.4278 52.3876 31.8781 53.5424 31.8781 53.5424C32.9163 53.0038 33.929 52.4175 34.913 51.7854C36.4417 50.8044 37.8925 49.7071 39.2525 48.5032C37.5995 44.7968 34.5353 42.3074 34.5353 42.3074ZM26.9849 27.4982C28.5905 26.7752 29.7613 26.456 30.4789 26.3152C30.6152 26.2882 30.7523 26.2648 30.8899 26.2452C30.9471 26.2372 30.9985 26.2307 31.0446 26.2255C31.2282 26.2045 31.3207 26.204 31.3207 26.204C29.1894 25.8281 26.6631 26.8374 26.6631 26.8374L26.847 27.2151L26.9849 27.4982ZM38.616 54.7928V55.7933H38.3659V54.7928H38.0763V54.5442H38.9056V54.7928H38.616ZM39.9717 55.7933V55.0562L39.7609 55.5153H39.54L39.3293 55.0562V55.7933H39.0791V54.5442H39.3293L39.6505 55.2112L39.9717 54.5442H40.2219V55.7933H39.9717Z" fill="white"/>
</svg>
