<svg width="64" height="64" viewBox="0 0 64 64" fill="none" xmlns="http://www.w3.org/2000/svg">
<g clip-path="url(#clip0_33_1936)">
<path d="M56 15.7273C56 8.88898 48.2411 8.88898 47.3205 8.88898H45.4795C45.4795 8.88898 48.1096 11.5191 48.1096 12.4397C48.1096 12.7027 47.9781 12.8342 47.7151 12.8342H41.0082C40.7452 12.8342 40.6137 12.7027 40.6137 12.4397C40.6137 11.5191 43.2438 8.88898 43.2438 8.88898C40.7452 8.88898 37.063 9.415 34.5644 11.2561C33.9069 11.1246 33.1178 11.1246 32.4603 11.1246C20.6247 11.1246 11.1562 20.7246 11.1562 32.4287C11.1562 34.7958 11.5507 37.0314 12.2082 39.004C10.6301 40.9766 8 44.9219 8 49.9191C8 54.2588 10.1041 57.941 10.1041 57.941C10.1041 57.941 13.9178 52.2862 22.4658 52.2862C23.1233 52.2862 23.2548 51.7602 23.2548 51.6287C26.0164 52.9438 29.0411 53.6013 32.3288 53.6013C44.0329 53.6013 53.6329 44.1328 53.6329 32.2972C53.6329 28.4835 52.7123 24.9328 50.8712 21.9082C53.2384 21.2506 56 19.4095 56 15.7273ZM49.5562 21.3821C51.5288 24.5383 52.7123 28.352 52.7123 32.2972C52.7123 43.6068 43.6384 52.6808 32.3288 52.6808C27.0685 52.6808 22.3342 50.7082 18.7836 47.552C18.6521 47.815 18.6521 47.9465 18.6521 47.9465C18.6521 49.7876 22.4658 51.3657 22.4658 51.3657C14.3123 51.3657 10.3671 56.2314 10.3671 56.2314C10.3671 56.2314 8.92055 53.2068 8.92055 49.7876C8.92055 44.1328 12.4712 39.9246 12.4712 39.9246C12.4712 39.9246 12.4712 43.0808 13.9178 43.0808C14.3123 43.0808 14.7068 42.9492 14.9699 42.8177C13.1288 39.9246 11.9452 36.2424 11.9452 32.4287C11.9452 21.1191 21.1507 12.0451 32.3288 12.0451C33.1178 12.0451 33.9068 12.0451 34.6959 12.1766C37.326 10.0725 41.1397 9.94103 41.1397 9.94103C41.1397 9.94103 39.1671 11.3876 39.1671 12.5712C39.1671 13.3602 39.9562 13.7547 41.2712 13.7547H47.0575C48.3726 13.7547 48.7671 13.0972 48.7671 12.4397C48.7671 11.2561 47.189 9.67802 47.189 9.67802C51.1342 9.54651 54.9479 11.3876 54.9479 15.5958C55.0795 19.804 51.5288 21.1191 49.5562 21.3821Z" fill="white"/>
<path d="M26.4109 20.3301C27.463 20.3301 29.1726 20.7246 30.6191 22.6972L34.9589 28.2205L37.4575 21.5136C37.4575 21.5136 32.3287 21.5136 32.3287 16.7794C32.3287 15.7273 32.5917 14.9383 32.9863 14.1492C32.7233 14.1492 32.4602 14.1492 32.3287 14.1492C22.3342 14.1492 14.1808 22.3027 14.1808 32.4287C14.1808 35.0588 14.7068 37.5575 15.7589 39.9246L21.4137 25.0643C22.5972 21.7766 24.3068 20.3301 26.4109 20.3301Z" fill="white"/>
<path d="M41.1397 41.5027C39.8246 45.0534 36.1424 48.7356 29.9616 48.7356C25.7534 48.7356 24.0438 46.763 21.1506 46.6315C24.3068 49.1301 28.252 50.5767 32.4602 50.5767C42.5863 50.5767 50.7397 42.4233 50.7397 32.2973C50.7397 28.8781 49.8191 25.7219 48.241 22.9603L41.1397 41.5027Z" fill="white"/>
<path d="M28.6466 40.9767L30.6192 39.0041L28.5151 35.1904L26.2795 41.1082C26.2795 41.1082 23.9124 40.4506 21.4138 40.4506C19.4412 40.4506 17.6001 40.8452 16.4165 41.2397C16.548 41.5027 16.6795 41.7657 16.811 42.0287C17.7316 41.7657 19.0466 41.5027 21.2823 41.5027C24.5699 41.3712 27.5946 42.1602 28.6466 40.9767Z" fill="white"/>
<path d="M55.0794 15.7273C55.0794 11.5191 51.2657 9.67803 47.3205 9.80954C47.3205 9.80954 48.8986 11.3876 48.8986 12.5712C48.8986 13.2287 48.5041 13.8863 47.189 13.8863H41.4027C40.0877 13.8863 39.2986 13.4917 39.2986 12.7027C39.2986 11.5191 41.2712 10.0726 41.2712 10.0726C41.2712 10.0726 37.326 10.3356 34.8274 12.3082C34.0383 12.1767 33.2493 12.1767 32.4603 12.1767C21.1507 12.0452 11.9452 21.1191 11.9452 32.4287C11.9452 36.2424 12.9972 39.9246 14.9698 43.0808C14.7068 43.2123 14.3123 43.3438 13.9178 43.3438C12.4712 43.3438 12.4712 40.1876 12.4712 40.1876C12.4712 40.1876 8.92053 44.3958 8.92053 50.0506C8.92053 53.4698 10.3671 56.4945 10.3671 56.4945C10.3671 56.4945 14.4438 51.6287 22.4657 51.6287C22.4657 51.6287 18.652 50.0506 18.652 48.2095C18.652 48.2095 18.652 47.9465 18.7835 47.815C22.3342 51.1027 27.2 52.9438 32.3288 52.9438C43.6383 52.9438 52.7123 43.8698 52.7123 32.5602C52.7123 28.4835 51.5288 24.8013 49.5561 21.6452C51.5288 21.1191 55.0794 19.8041 55.0794 15.7273ZM14.1808 32.4287C14.1808 22.3027 22.3342 14.1493 32.3288 14.1493C32.5918 14.1493 32.8548 14.1493 32.9863 14.1493C32.5918 14.9383 32.3288 15.7273 32.3288 16.7794C32.3288 21.5136 37.4575 21.5136 37.4575 21.5136L34.9589 28.2205L30.6192 22.6972C29.1726 20.7246 27.5945 20.3301 26.4109 20.3301C24.1753 20.3301 22.4657 21.9082 21.2822 24.9328L15.7589 39.7931C14.7068 37.5575 14.1808 35.0589 14.1808 32.4287ZM16.4164 41.2397C17.6 40.8452 19.4411 40.4506 21.4137 40.4506C23.9123 40.4506 26.2794 41.1082 26.2794 41.1082L28.5151 35.1904L30.6192 39.0041L28.6466 40.9767C27.463 42.1602 24.5698 41.3712 21.2822 41.3712C19.0466 41.3712 17.7315 41.6342 16.8109 41.8972C16.6794 41.7657 16.5479 41.5027 16.4164 41.2397ZM50.6082 32.4287C50.6082 42.5547 42.4548 50.7082 32.3288 50.7082C27.989 50.7082 24.1753 49.2616 21.0192 46.763C24.0438 46.8945 25.6219 48.8671 29.8301 48.8671C36.0109 48.8671 39.6931 45.0534 41.0082 41.6342L47.9781 23.2232C49.6877 25.8534 50.6082 29.0095 50.6082 32.4287Z" fill="black"/>
<path d="M49.0303 10.7301C49.0303 10.7301 49.8193 11.3876 49.8193 12.5712C49.8193 13.6233 49.0303 14.6753 47.1892 14.6753H41.4029C39.1673 14.6753 38.5097 13.4917 38.5097 12.5712C38.5097 11.6507 39.0357 11.1246 39.0357 11.1246C39.0357 11.1246 33.381 12.1767 33.381 16.7794C33.381 20.7246 37.7207 20.7246 37.7207 20.7246H39.0357L35.4851 30.0616L30.0933 23.2233C29.6988 22.8287 28.5152 21.1191 26.5426 21.1191C23.781 21.1191 22.7289 24.1438 22.2029 25.1959L16.5481 40.3191C16.5481 40.3191 18.6522 39.5301 21.4138 39.5301C23.781 39.5301 25.7536 40.0561 25.7536 40.0561L28.3837 33.0863L31.6714 39.1356L29.3042 41.6342C27.7262 43.2123 24.4385 42.4233 21.4138 42.4233C15.496 42.4233 16.1536 44.2643 13.9179 44.2643C12.3399 44.2643 11.9453 42.4233 11.9453 42.4233C11.9453 42.4233 9.70972 46.1054 9.70972 50.0507C9.70972 52.6808 10.6303 54.9164 10.6303 54.9164C10.6303 54.9164 15.233 50.9712 19.8357 50.9712C19.8357 50.9712 17.7316 50.0507 17.7316 48.078C17.7316 47.552 18.3892 45.8424 20.7563 45.8424C24.307 45.8424 25.7536 47.9465 29.9618 47.9465C35.8796 47.9465 39.1673 44.2644 40.3508 41.2397L48.1097 20.7246C48.1097 20.7246 54.2905 20.7246 54.2905 15.7274C54.159 11.1246 49.0303 10.7301 49.0303 10.7301Z" fill="#CC0000"/>
</g>
<defs>
<clipPath id="clip0_33_1936">
<rect width="48" height="49.0521" fill="white" transform="translate(8 8.88898)"/>
</clipPath>
</defs>
</svg>
