<svg width="64" height="64" viewBox="0 0 64 64" fill="none" xmlns="http://www.w3.org/2000/svg">
<path d="M51.7797 22.741C48.4476 19.4098 44.0296 17.5592 39.3238 17.5219C39.6625 15.9707 40.19 14.3142 40.8979 12.5851L40.9106 12.5524C41.0489 12.2117 41.0113 11.8242 40.8097 11.5162C40.6081 11.2088 40.2683 11.0194 39.9008 11.0095L39.8678 11.009C39.6584 11.0032 39.4438 11 39.229 11C37.4646 11 33.9451 11.2102 30.1989 12.6204C26.2404 14.1097 23.074 16.5118 20.7873 19.7606C19.8448 21.0998 18.575 23.2789 17.8777 26.0552C17.7805 26.4407 17.692 26.8308 17.6128 27.2198C17.4827 27.2221 17.3522 27.2235 17.2209 27.2235C15.6564 27.2235 13.7726 27.0512 11.623 26.7096C9.71344 26.406 6.53288 25.3423 5.8498 25.0838C5.37234 24.9033 4.87492 24.7015 4.36825 24.4817L3.79102 24.2269L1 22.9877L2.67733 26.255C3.32947 27.6458 3.92521 28.7725 4.36363 29.457C5.50508 31.239 6.82381 32.7 8.35423 33.8704L9.88031 36.6964C10.7783 38.3613 11.6878 39.6925 12.6606 40.7663C13.202 41.3634 13.8015 41.8883 14.2084 42.2224C14.7691 42.6836 15.3955 43.1047 16.0714 43.4737L16.8661 45.1976C16.9497 45.3783 17.7883 46.8579 19.0284 48.0866C19.8289 48.8799 21.2463 49.7839 22.0126 50.0974L22.1069 50.137C22.6905 50.3846 24.2409 51.0411 26.7091 51.0411C27.1655 51.0411 27.6453 51.0162 28.1352 50.9679L28.1973 50.9615C28.5669 51.4315 28.7595 51.7826 28.7861 52.0333C28.8058 52.2137 28.7373 52.3809 28.6039 52.6822C28.534 52.8234 28.3558 52.9986 28.1496 53.2022L28.1415 53.2103C28.0186 53.3318 27.8789 53.4694 27.7427 53.6221L27.7031 53.6667C27.3983 54.007 27.3303 54.4929 27.5302 54.9047C27.717 55.2882 28.1129 55.536 28.5392 55.536C28.5623 55.536 28.5857 55.5354 28.61 55.5343L28.669 55.5302C29.5618 55.4744 31.4042 54.9704 32.6475 53.4365C32.9595 53.0515 33.2218 52.6522 33.4416 52.2259C35.269 52.8491 37.1956 53.1649 39.1784 53.1649C43.9388 53.1649 48.4138 51.3109 51.78 47.9449C55.146 44.5781 57 40.1031 57 35.3427C56.9997 30.5828 55.146 26.1073 51.7797 22.741Z" fill="white"/>
<path d="M51.3379 23.1835C48.0899 19.9356 43.7717 18.1469 39.1781 18.1469C38.9762 18.1469 38.7683 18.1515 38.5589 18.1588C38.9508 16.0129 39.6663 13.946 40.3187 12.3503L40.3314 12.3179C40.3927 12.1669 40.3762 11.9951 40.2869 11.8595C40.1978 11.723 40.0474 11.6394 39.8846 11.6351L39.8505 11.6345C39.6463 11.6287 39.4375 11.6255 39.229 11.6255C37.5074 11.6255 34.0727 11.8309 30.4193 13.206C26.5799 14.6505 23.5113 16.9771 21.2986 20.1212C20.3862 21.4168 19.1577 23.5251 18.4836 26.2082C18.3436 26.7655 18.2279 27.3063 18.1316 27.8289L18.0718 27.8309C17.7944 27.843 17.5081 27.8494 17.2213 27.8494C15.6237 27.8494 13.707 27.6738 11.525 27.3274C9.56858 27.0165 6.32526 25.932 5.62859 25.6686C5.07912 25.4606 4.50623 25.2261 3.92321 24.9693L3.6586 24.8522L2.39221 24.2897L3.12561 25.8045C3.75316 27.1808 4.43711 28.4116 4.89028 29.1195C6.59797 31.7862 8.71517 33.705 11.3619 34.9853C12.9256 35.7415 14.7379 36.0747 15.6787 36.2054C16.3835 36.3037 17.5842 36.3963 18.1493 36.3963H18.1499L18.2589 36.3951C18.3081 36.586 18.3618 36.7797 18.4197 36.9758C18.3861 36.9758 18.3523 36.9761 18.319 36.9761C17.2403 36.9761 16.2695 36.8986 15.0714 36.7175C14.0797 36.5677 13.1537 36.3578 12.2396 36.0767C11.8454 35.9552 11.4348 35.8228 11.0976 35.6747L9.71116 35.0674L10.4298 36.3991C11.304 38.0189 12.1849 39.3099 13.1237 40.3458C13.6396 40.9149 14.2142 41.4175 14.6052 41.7391C15.1472 42.1851 15.7556 42.592 16.4127 42.948C18.1863 43.9084 19.857 44.337 21.8293 44.337C21.8547 44.337 21.8799 44.3367 21.9059 44.3364L22.2385 44.3332C22.3863 44.5229 22.5367 44.7115 22.6896 44.8971C22.5075 44.909 22.3357 44.9142 22.1497 44.9142C21.8932 44.9142 21.6003 44.9038 21.2283 44.8818C20.2289 44.8228 18.5834 44.4622 18.1311 44.2464L16.8288 43.6232L17.4338 44.9347C17.5079 45.0941 18.3115 46.4955 19.4692 47.6425C20.1962 48.3626 21.5413 49.2293 22.255 49.5208L22.3519 49.5613C22.9034 49.7949 24.369 50.4156 26.7097 50.4156C27.1456 50.4156 27.6045 50.3918 28.0736 50.345L28.4481 50.3074C28.5346 50.3918 28.6098 50.4737 28.6725 50.5523C29.6688 51.8124 29.473 52.2647 29.1722 52.9443C29.0574 53.1855 28.8405 53.3992 28.5892 53.6467L28.582 53.654C28.4594 53.7751 28.3327 53.9001 28.2092 54.038L28.1696 54.082C28.0357 54.2318 28.0051 54.4481 28.0933 54.6297C28.1765 54.8012 28.3506 54.9091 28.5395 54.9091C28.5499 54.9091 28.5603 54.9091 28.571 54.9085L28.63 54.9044C29.4207 54.8553 31.0549 54.4067 32.1619 53.0412C32.6108 52.4876 32.9066 51.9486 33.1157 51.4428C35.0328 52.1698 37.0725 52.5388 39.1784 52.5388C43.7717 52.5388 48.0902 50.7499 51.3382 47.5019C54.5861 44.254 56.3748 39.9354 56.3748 35.3424C56.3745 30.7497 54.5858 26.4315 51.3379 23.1835Z" fill="black"/>
<path d="M55.8783 35.3431C55.8783 39.8036 54.1413 43.9972 50.9871 47.152C47.8331 50.306 43.6395 52.0432 39.1784 52.0432C37.1242 52.0432 35.1415 51.6834 33.278 50.9746C33.3584 50.7363 33.4231 50.5061 33.4787 50.2881C33.5706 49.9295 33.6221 49.5391 33.6637 49.1281C33.8361 49.0766 34.0701 48.9899 34.5345 48.7811C35.0857 48.5329 35.4469 48.3615 35.5048 48.334C36.6945 48.6694 37.9302 48.8401 39.1787 48.8401C42.7838 48.8401 46.1732 47.436 48.7227 44.8868C51.272 42.3375 52.676 38.9479 52.676 35.3428C52.676 31.5245 51.0484 27.8694 48.21 25.312C48.2082 25.2669 48.2053 25.0636 48.2921 24.7764C48.3129 24.7082 48.334 24.6342 48.3546 24.5613C48.3754 24.4878 48.395 24.4178 48.415 24.3534C49.4344 25.3728 50.0278 25.1842 50.0487 25.1744C50.0874 25.1515 50.1302 25.14 50.1759 25.14C50.3847 25.14 50.601 25.3754 50.6253 25.402L50.6285 25.4057L50.6323 25.4017L50.6285 25.4052L50.6456 25.3875L50.6629 25.3696C50.6334 25.336 50.3916 25.0463 50.5044 24.8192C50.5151 24.7938 50.7557 24.1874 49.6782 23.0433L49.6516 23.015L49.6366 23.0514C49.6325 23.0618 49.5405 23.3016 49.6313 23.7296L49.6351 23.7576C49.6351 23.7599 49.6643 24.0023 49.5304 24.1547C49.4578 24.2374 49.3488 24.2793 49.2077 24.2793L49.0914 24.2712C48.9104 24.2137 48.7369 24.1842 48.5755 24.1842L48.4717 24.1888C48.4908 24.1399 48.5127 24.0896 48.5379 24.0355C48.5842 23.936 48.6278 23.8354 48.6495 23.7388L48.7172 23.7281C48.9139 23.7281 49.1308 23.9065 49.1565 23.9279L49.1603 23.9314L49.1634 23.9268L49.16 23.9308L49.175 23.9103L49.1895 23.8898C49.1571 23.8617 48.8757 23.6075 48.957 23.3672C48.9639 23.3406 49.1183 22.7064 47.8933 21.722L47.8623 21.6971L47.8531 21.7353C47.8508 21.746 47.7924 21.9967 47.9416 22.4079L47.9485 22.4351C47.9491 22.4374 48.0162 22.6919 47.8863 22.8617C47.8071 22.9658 47.6695 23.0184 47.4818 23.0193C47.3713 23.0002 47.2634 22.9904 47.1613 22.9904C46.8739 22.9904 46.7223 23.065 46.716 23.0682L46.6813 23.0855L46.7122 23.1098C46.9644 23.3099 47.1874 23.4537 47.3869 23.5612L47.3221 23.5855C47.2646 23.6075 47.2053 23.6304 47.1417 23.6529C46.9858 23.709 46.8322 23.7738 46.7304 23.8181C46.598 23.8765 46.4806 23.943 46.4421 23.9653C44.2752 22.5789 41.7635 21.8457 39.1787 21.8457C38.8814 21.8457 38.5812 21.8559 38.2828 21.8752C38.2269 20.8211 38.3056 19.7329 38.4722 18.6577C38.7076 18.6475 38.9439 18.6423 39.1784 18.6423C43.6389 18.6423 47.8326 20.3795 50.9871 23.5335C54.1413 26.6886 55.8783 30.8825 55.8783 35.3431Z" fill="#B79257"/>
<path d="M35.5111 40.0881C36.2957 40.9239 36.9877 41.661 37.2535 42.2481C37.2677 42.2793 37.2807 42.31 37.2923 42.34C37.3056 42.375 37.3171 42.4097 37.327 42.4436C37.3345 42.4699 37.342 42.4956 37.3475 42.5214C37.3698 42.62 37.3868 42.7151 37.4001 42.8065C37.4134 42.8979 37.4227 42.9858 37.4285 43.07C37.434 43.1544 37.4366 43.2354 37.4366 43.3132C37.4363 43.3947 37.4328 43.4725 37.4273 43.5469C37.4233 43.607 37.4169 43.6637 37.4103 43.7192C37.4082 43.7366 37.4056 43.7533 37.4036 43.7701C37.3776 43.9555 37.3411 44.1183 37.3079 44.2617C37.5699 44.0472 37.9357 43.7201 38.2223 43.4589C38.2484 43.4352 38.2732 43.4124 38.2984 43.3895C38.3967 43.2996 38.482 43.2209 38.5459 43.1622C38.5806 43.1298 38.6159 43.0977 38.6518 43.0653C38.6882 43.0329 38.7247 43 38.7622 42.967C38.8371 42.9008 38.9149 42.8334 38.9945 42.764C39.2923 42.5043 39.5963 42.24 39.832 41.9855C39.9728 41.8331 40.0894 41.6841 40.1646 41.543L40.1871 41.5014C40.2718 41.3438 40.3291 41.2373 40.3256 41.0499C40.3251 41.0066 40.3207 40.9594 40.3132 40.9056C40.299 40.8073 40.2745 40.7197 40.2392 40.6349C40.1796 40.4938 40.0905 40.3608 39.9691 40.2017C39.8409 40.0334 39.7146 39.8755 39.5905 39.726C39.4971 39.6138 39.4051 39.5059 39.3149 39.4021C39.2579 39.3367 39.201 39.2734 39.1454 39.2109C39.0807 39.1392 39.017 39.069 38.954 39.0007C38.9147 38.9579 38.8759 38.9163 38.8374 38.8752C38.8065 38.8419 38.7756 38.809 38.7452 38.776C38.7082 38.7367 38.6717 38.6979 38.6353 38.6595C38.6289 38.6525 38.6229 38.6459 38.6165 38.6389C38.5925 38.6132 38.5682 38.5883 38.5448 38.5629C38.5187 38.5354 38.4933 38.5079 38.4678 38.4813C37.96 37.9417 37.604 37.5446 37.4525 37.1045C37.4253 37.0287 37.4053 36.9535 37.3932 36.8771C37.39 36.8615 37.3886 36.8456 37.3865 36.8297C37.386 36.8245 37.3851 36.8196 37.3848 36.8147C37.3695 36.7007 37.3657 36.5836 37.3767 36.4572C37.5381 35.3386 38.9366 34.5893 39.9254 35.8332L40.3118 36.3135C40.3118 36.3135 42.1317 38.6106 43.1045 39.7891L43.6054 40.3796C43.6233 40.3987 43.6389 40.416 43.6525 40.4293C44.473 41.3932 45.969 42.1558 46.3279 42.3207C46.3019 42.2897 46.2721 42.2544 46.2394 42.2148C46.0607 41.9962 45.7972 41.6494 45.5812 41.2657C45.5222 41.161 45.4667 41.0537 45.4178 40.945C45.4079 40.9238 45.3987 40.9022 45.3889 40.8808C45.3556 40.8067 45.3223 40.7318 45.2894 40.654C45.268 40.604 45.2466 40.5534 45.2255 40.5013C45.1208 40.2422 45.0222 39.9571 44.9432 39.6274C44.9157 39.5117 44.8926 39.3983 44.8727 39.2873C44.8622 39.2286 44.853 39.171 44.8446 39.1141C44.8432 39.1039 44.8414 39.0944 44.84 39.0846C44.8319 39.0253 44.8244 38.9672 44.8177 38.9099C44.8131 38.8703 44.809 38.8312 44.8056 38.7925C44.8001 38.7335 44.7951 38.6759 44.792 38.6193C44.7917 38.6152 44.7914 38.6117 44.7914 38.6074C44.7873 38.549 44.7847 38.4926 44.7827 38.4371C44.7792 38.3486 44.7781 38.2638 44.7787 38.1831C44.7789 38.1022 44.781 38.0255 44.7844 37.9538C44.792 37.7696 44.8076 37.616 44.8229 37.5012C44.8232 37.4963 44.8241 37.4923 44.8246 37.4879C44.8353 37.4041 44.8466 37.3416 44.8536 37.3043C44.8102 37.2942 44.7359 37.2751 44.6422 37.2404C44.4551 37.1721 44.1928 37.0443 43.9545 36.8167C43.835 36.7028 43.7219 36.5645 43.6277 36.3956C43.3888 35.9702 43.1626 35.4572 43.1175 34.5966C43.0626 34.6368 43.0082 34.6784 42.953 34.72C42.7034 34.9092 42.4451 35.1055 42.125 35.2568C41.95 35.3395 41.629 35.4679 41.2476 35.5116C41.1631 35.5214 41.0758 35.5272 40.9862 35.5272C40.9115 35.5272 40.8381 35.5231 40.7661 35.5153C40.6944 35.5072 40.6241 35.4951 40.5564 35.4792C39.6463 35.2681 39.085 34.8458 38.7889 34.1509C38.7209 33.9913 38.6738 33.8267 38.6477 33.6587C38.6414 33.6168 38.6362 33.5748 38.6324 33.5323C38.6284 33.4895 38.626 33.4473 38.6249 33.4045C38.6229 33.3183 38.6255 33.2327 38.6341 33.1457C38.6521 32.9562 38.685 32.7503 38.7423 32.5456C38.7547 32.5002 38.7686 32.4539 38.7839 32.4088C38.7993 32.3637 38.8155 32.3186 38.8331 32.2734C38.8866 32.1396 38.9525 32.0085 39.0326 31.8865C39.0598 31.846 39.0882 31.8055 39.1188 31.7671C39.1949 31.6699 39.2816 31.5803 39.3811 31.5001C39.4404 31.4518 39.5046 31.4076 39.5737 31.3671C39.5966 31.3535 39.6203 31.3405 39.6446 31.3278C39.6929 31.3029 39.7432 31.2795 39.7955 31.2584C39.8326 31.2433 39.8702 31.2309 39.9083 31.2196C40.0234 31.1867 40.1455 31.1696 40.2724 31.1696C40.7328 31.1696 41.1707 31.39 41.3728 31.7147C41.3798 31.6956 41.387 31.6745 41.3948 31.6523C41.448 31.4946 41.5139 31.2595 41.5912 30.981C41.7681 30.3465 42.0099 29.4775 42.3425 28.6516C42.3914 28.5301 42.4402 28.4066 42.4897 28.2814C42.5273 28.1857 42.5649 28.0891 42.6036 27.9931C42.8726 27.3187 43.1661 26.644 43.6063 26.1067C42.9943 25.6688 42.4203 25.3947 41.9185 25.2235C41.8769 25.209 41.8355 25.1957 41.7942 25.183C41.0188 24.9386 40.4309 24.9386 40.164 24.9386L40.0685 24.9389C39.0656 24.9522 38.192 25.0913 37.3608 25.3756C37.3056 25.3944 37.2503 25.414 37.1954 25.4346C36.9522 25.5242 36.7116 25.6269 36.4721 25.7429C36.3958 25.7799 36.3194 25.818 36.2431 25.8577C36.2066 25.8767 36.1702 25.8953 36.1335 25.9146C35.4669 26.2738 34.8518 26.7374 34.3095 27.2817C34.3081 27.2831 34.3072 27.2848 34.3055 27.2857C33.5674 28.0263 32.9622 28.915 32.5399 29.8864C32.371 30.2757 32.2314 30.6783 32.1246 31.0901C32.0098 31.5314 31.9037 32.0025 31.8534 32.5172C31.8328 32.7234 31.8219 32.9366 31.8221 33.1575C31.8227 33.4337 31.8424 33.722 31.8864 34.026C31.9037 34.1471 31.9251 34.2703 31.9511 34.3961C31.9864 34.5714 32.0321 34.7513 32.085 34.9361C32.0951 34.9711 32.1058 35.0069 32.1168 35.0422C32.2744 35.5578 32.5038 36.1119 32.8283 36.7109C32.9763 36.9844 33.1464 37.2543 33.33 37.5197C33.9636 38.4391 34.7751 39.3044 35.5111 40.0881Z" fill="#B79257"/>
<path d="M49.321 38.9243L49.1394 39.7063L49.6449 41.8362C49.6449 41.8362 48.1654 42.0682 47.5069 42.1674C47.3042 42.847 46.2897 45.5139 46.2897 45.5139L46.0867 45.4136C45.9392 43.9566 45.1809 43.2114 44.3142 42.6535C43.8281 42.3409 43.2722 42.1263 42.7424 41.958C42.0264 41.7307 41.2834 41.593 40.5321 41.4829C40.662 41.1778 40.6258 40.8099 40.5318 40.5797C40.3777 40.2017 40.1452 39.9449 39.9352 39.6765C40.8601 39.5189 40.9671 38.8651 40.9298 38.466C40.8132 38.6696 40.3187 39.5065 39.5888 39.3417C38.0884 37.5738 37.8328 37.4781 37.6876 36.9075C37.5838 36.5 37.7755 35.9763 38.2035 35.6874C38.9864 35.201 39.4751 35.6946 40.2669 36.6906C40.688 37.2198 42.2089 39.2378 43.2092 40.3723C43.9741 41.2408 44.7393 41.7989 45.6873 42.2958C46.2084 42.5694 46.81 42.775 46.81 42.775L46.9346 42.576C46.9346 42.576 46.1925 41.8368 45.7203 40.8972C45.4881 40.436 45.3125 39.9469 45.2017 39.4698C44.9256 38.278 45.191 37.0495 45.191 37.0495C45.191 37.0495 44.4886 37.1655 43.8344 36.2016C43.6629 35.9488 43.5024 35.36 43.4515 34.9849C43.4154 34.7174 43.3905 34.5101 43.3862 34.2868C44.5884 33.1902 46.2249 31.2283 46.8513 31.0828C47.0404 31.4756 49.7765 37.2777 49.7765 37.2777L49.1634 37.5721L49.1657 38.2395L47.5642 39.414L49.321 38.9243Z" fill="white"/>
<path d="M30.7677 52.498C30.7749 52.4445 30.7792 52.4067 30.7801 52.3954C30.8602 51.6177 30.6372 51.0787 30.4224 50.6351C30.2196 50.2166 29.9527 49.8956 29.6965 49.6026C29.239 49.0786 28.6395 48.6211 28.3231 48.3952C28.2687 48.3565 22.8616 44.4445 20.5307 38.7734C18.7418 34.4242 18.959 30.5479 19.4555 28.0611C19.6198 27.2392 19.8231 26.4691 20.0955 25.6367L20.1042 25.6093C21.0767 22.634 22.5372 20.5862 23.5916 19.3916C27.0073 15.5204 32.4918 13.191 38.6716 12.9796C38.2243 14.0953 37.8119 15.4663 37.4446 17.0613C37.3763 17.3597 36.7887 19.9902 36.9373 22.1323C35.0391 22.6959 33.336 23.6193 31.8738 24.8782C30.8556 25.7547 29.9539 26.8945 29.3341 28.0871C28.5461 29.6048 28.3937 30.8373 28.2826 31.7373C28.2693 31.8461 28.2563 31.9505 28.243 32.0499C28.0692 33.3435 28.4928 36.6267 30.2954 38.7176C30.7896 39.2914 31.4753 40.1419 32.3441 41.2189L32.355 41.233C32.9326 41.9491 33.5838 42.7565 34.3169 43.6539C34.0529 43.9191 33.4667 44.5437 32.9511 45.7665C32.6931 46.3775 32.53 46.9683 32.4655 47.5216C32.4398 47.7396 32.4221 47.9678 32.4031 48.209C32.3513 48.8669 32.2932 49.6087 32.0618 50.343C31.9074 50.8343 31.7298 51.2334 31.5031 51.5984C31.2934 51.9373 31.0302 52.2563 30.7677 52.498Z" fill="#DA1A32"/>
<path d="M39.8715 12.131L39.8365 12.1304C39.6384 12.1247 39.434 12.1218 39.2292 12.1218C37.5412 12.1218 34.1744 12.3228 30.5942 13.6704C26.8502 15.0791 23.8591 17.3455 21.7046 20.4066C20.8168 21.6681 19.6209 23.7196 18.9653 26.329C17.8814 30.6441 18.245 33.9169 18.5579 35.4829C18.8612 37.0041 19.5339 38.8925 20.3121 40.4114C20.4683 40.7168 21.2665 42.1217 21.7966 42.8907C22.335 43.6721 22.9273 44.4329 23.5563 45.1527C24.3982 46.1158 24.9323 46.6221 25.3609 47.0293C25.5081 47.1684 25.635 47.289 25.7562 47.4105C26.3684 48.0253 27.0388 48.5404 27.6302 48.9947C28.2346 49.4591 28.7563 49.8603 29.0614 50.2455C30.2466 51.7441 29.9576 52.3965 29.623 53.1519C29.4706 53.4749 29.2118 53.7303 28.9377 54.0007C28.8179 54.1187 28.6944 54.2407 28.5788 54.3697L28.5394 54.4142L28.5987 54.4102C29.3087 54.3656 30.7772 53.9619 31.7764 52.7296C32.5167 51.8158 32.8091 50.9378 32.998 50.1998C33.1157 49.7388 33.1642 49.1986 33.216 48.6274C33.2458 48.2914 33.2773 47.9449 33.3239 47.604C33.3991 47.0551 33.5665 46.4747 33.7831 46.0114C34.1336 45.2606 34.509 44.6947 34.928 44.284C34.7993 44.1521 34.6741 44.0156 34.5495 43.8785C34.1007 44.347 33.5682 45.1501 33.308 45.7609C32.8409 46.8573 32.7851 47.4935 32.7443 47.9585C32.7336 48.0834 32.7238 48.191 32.7079 48.2946C32.6908 48.4056 32.6807 48.5493 32.6686 48.7156C32.622 49.3582 32.5439 50.4334 31.9155 51.5726C31.473 52.3739 30.8793 52.9743 30.1025 53.4058C30.2905 53.1365 30.4964 52.5894 30.4354 51.9141C30.318 50.6125 29.309 49.6043 28.483 48.9878C25.972 47.1126 23.8776 44.9682 22.2596 42.6136C20.6704 40.3021 19.6155 37.9006 19.1241 35.4769C18.5266 32.5259 18.6279 29.4364 19.4174 26.5419C20.1811 23.7434 21.5701 21.1695 23.434 19.098C27.1056 15.0163 32.5341 12.7936 39.1341 12.6675L39.0577 12.8829C38.7026 13.8876 38.3356 14.927 38.0325 16.0719C37.7977 16.9597 37.6063 17.8559 37.4472 18.8126C37.2598 19.9419 37.1927 21.1131 37.2705 22.0637L37.7856 21.946C37.5918 18.4974 38.8085 14.7323 39.8591 12.1631L39.8715 12.131Z" fill="#B79257"/>
<path d="M45.884 48.7943L45.8759 48.7805L45.886 48.8024L45.884 48.7943Z" fill="#B79257"/>
<path d="M48.7206 37.0478L47.4941 37.7902L47.5248 37.8645L49.5694 37.3717L48.7206 37.0478Z" fill="black"/>
<path d="M47.3657 34.2701C47.3657 34.2701 47.3461 33.9563 47.2639 33.8331C47.1818 33.7099 47.6321 33.5176 47.6321 33.5176L47.3993 33.3903L47.3432 33.4912L46.2917 33.8594L45.4154 34.5778L46.1667 34.336L47.7107 34.5332L47.3657 34.2701Z" fill="black"/>
<path d="M43.1342 21.005C43.1869 20.9044 43.2973 20.8537 43.4619 20.8537C43.5961 20.8537 43.7204 20.8885 43.7442 20.8957L43.7491 20.8968L43.7557 20.8731L43.7589 20.8477C43.7178 20.835 43.3581 20.7161 43.3349 20.463C43.3303 20.4356 43.2158 19.7936 41.6978 19.387L41.6599 19.3768L41.6666 19.4153C41.6683 19.4263 41.7166 19.6802 42.0206 19.9969L42.0367 20.0171C42.0382 20.0191 42.2019 20.2253 42.1516 20.433C42.1206 20.5602 42.0159 20.664 41.8444 20.7401C41.36 20.8613 41.1715 21.0839 41.1637 21.0938L41.1388 21.1244L41.1767 21.1343C41.5622 21.2352 41.9107 21.2867 42.2123 21.2867C42.9049 21.2858 43.1227 21.0203 43.1342 21.005Z" fill="black"/>
<path d="M45.3197 21.5651C45.4834 21.5651 45.6509 21.6374 45.683 21.6519L45.6876 21.6539L45.698 21.6311L45.7044 21.6068C45.6656 21.5883 45.3255 21.4211 45.3368 21.1675C45.3365 21.14 45.3119 20.4879 43.8645 19.8762L43.8281 19.8609L43.8295 19.8997C43.8298 19.9106 43.8423 20.1686 44.0991 20.5237L44.1126 20.5466C44.1141 20.5486 44.248 20.7756 44.1693 20.9746C44.121 21.0961 44.003 21.1845 43.8226 21.236C43.3263 21.2892 43.1091 21.4842 43.0996 21.4928L43.0707 21.5191L43.1071 21.5345C43.6118 21.7441 44.0539 21.8506 44.4224 21.8506C44.8776 21.8506 45.0528 21.6872 45.0632 21.6768C45.1167 21.6027 45.2029 21.5651 45.3197 21.5651Z" fill="black"/>
<path d="M47.2229 22.1412C47.2264 22.114 47.292 21.4648 45.9426 20.6591L45.9091 20.6385L45.9051 20.6779C45.9039 20.6889 45.881 20.9454 46.0858 21.332L46.0965 21.3578C46.0977 21.3601 46.1992 21.6027 46.0933 21.7893C46.0288 21.9032 45.8996 21.9743 45.7139 22.0004L45.6474 21.9992C45.1931 21.9992 44.9718 22.1484 44.9626 22.1548L44.9302 22.1768L44.9637 22.197C45.6798 22.6198 46.1653 22.7086 46.4464 22.7086C46.7408 22.7083 46.8727 22.6155 46.882 22.6085C46.932 22.5553 47.0005 22.5284 47.0853 22.5284C47.2695 22.5284 47.4742 22.6545 47.4982 22.6696L47.5029 22.6719L47.5162 22.6508L47.526 22.6276C47.4898 22.6039 47.1761 22.3914 47.2229 22.1412Z" fill="black"/>
<path d="M51.3355 26.7608L51.4298 26.7417C51.6513 26.7417 51.8529 27.0329 51.8751 27.0662L51.8774 27.07L51.8983 27.0558L51.9162 27.0384C51.8931 27.0023 51.6912 26.6813 51.8349 26.4716C51.8491 26.4479 52.171 25.8805 51.2623 24.5982L51.2395 24.5664L51.2198 24.6005C51.2146 24.6098 51.0891 24.8362 51.1212 25.2741L51.1206 25.2995C51.1206 25.3183 51.1105 25.7634 50.7114 25.7634C50.6501 25.7634 50.5813 25.7527 50.5116 25.7336C50.2056 25.5864 49.9716 25.5647 49.8597 25.5647C49.7978 25.5647 49.7637 25.5711 49.762 25.5714L49.7235 25.5786L49.7464 25.6104C50.4954 26.6541 51.0596 26.7672 51.2678 26.7672L51.3355 26.7608Z" fill="black"/>
<path d="M52.392 28.5095L52.4545 28.5014C52.6908 28.5014 52.8646 28.847 52.8842 28.8864L52.8863 28.8904L52.9085 28.8797L52.9293 28.8644C52.9108 28.8259 52.7561 28.4795 52.9273 28.2921C52.9447 28.2707 53.3417 27.7527 52.6185 26.3576L52.6005 26.3229L52.5768 26.3542C52.5699 26.3631 52.4154 26.5688 52.3859 27.0049L52.3819 27.0329C52.3787 27.0497 52.3157 27.4407 51.9791 27.4407C51.9004 27.4407 51.8113 27.4187 51.7188 27.3785C51.3394 27.1269 51.0597 27.1142 51.0076 27.1142L50.9594 27.1162L50.9773 27.1506C51.6716 28.4725 52.3076 28.5104 52.3779 28.5104L52.392 28.5095Z" fill="black"/>
<path d="M53.1968 30.3873L53.2274 30.3856C53.4813 30.3856 53.6173 30.7809 53.6329 30.8278L53.6343 30.833L53.658 30.8249L53.6806 30.8133C53.6682 30.7723 53.562 30.4079 53.7575 30.2459C53.7778 30.2271 54.2422 29.7688 53.7188 28.2875L53.706 28.2505L53.678 28.278C53.6699 28.2855 53.4883 28.4685 53.3986 28.8974L53.3914 28.9234C53.3902 28.9269 53.2835 29.2754 52.9917 29.2754C52.8983 29.2754 52.7951 29.2407 52.6869 29.1742C52.3127 28.8433 52.0221 28.8144 52.0099 28.8136L51.9706 28.8098L51.9842 28.8468C52.5148 30.3252 53.165 30.3853 53.1968 30.3873Z" fill="black"/>
<path d="M53.3961 31.0857C53.0716 30.7069 52.7873 30.6378 52.7752 30.6346L52.7373 30.6259L52.7448 30.6641C53.0676 32.2023 53.7026 32.3518 53.7339 32.3579C54.0092 32.3631 54.0951 32.8024 54.104 32.8542L54.1052 32.8594L54.1295 32.8547L54.1532 32.8458C54.1466 32.8036 54.0919 32.4282 54.3079 32.2946C54.3302 32.279 54.8539 31.8891 54.5399 30.3495L54.5318 30.3113L54.5002 30.3344C54.4916 30.3411 54.2857 30.4969 54.1382 30.9093L54.1275 30.9333C54.126 30.9368 53.9889 31.2306 53.7318 31.2306C53.6266 31.2318 53.5121 31.1815 53.3961 31.0857Z" fill="black"/>
<path d="M41.3372 20.365C41.3927 19.5428 38.8704 20.1987 38.8704 20.1987C38.8704 20.1987 41.2837 21.1597 41.3372 20.365Z" fill="black"/>
<path d="M39.8606 50.321L39.8655 50.345V50.3418L39.866 50.345L39.8646 50.295L39.8426 50.2952C39.7614 50.2952 39.3556 50.2825 39.2978 50.0257C39.2874 50.0003 39.0149 49.4077 37.4437 49.3953H37.4044L37.4206 49.4305C37.4255 49.4415 37.549 49.7061 37.9814 49.9473C38.1309 50.0676 38.2049 50.1952 38.2014 50.3262C38.1959 50.5399 37.9843 50.6958 37.9817 50.6975L37.9681 50.7082C37.5863 50.9358 37.4724 51.1712 37.4678 51.1813L37.451 51.2166L37.5048 51.2169C39.0638 51.2169 39.3403 50.6304 39.3519 50.6041C39.4401 50.367 39.8183 50.3461 39.8608 50.345L39.8606 50.321Z" fill="black"/>
<path d="M41.9373 50.1197L41.9332 50.096L41.9413 50.1188L41.941 50.1165L41.9422 50.1188L41.9335 50.0696L41.9286 50.0702L41.9326 50.0861V50.0936L41.9286 50.0702C41.9101 50.0734 41.8424 50.0827 41.7585 50.0827C41.5995 50.0827 41.3982 50.0485 41.3352 49.8802C41.3247 49.8632 41.0731 49.4667 40.0529 49.4667C39.8553 49.4667 39.6396 49.482 39.4111 49.5118L39.3727 49.517L39.3935 49.55C39.4002 49.5604 39.5595 49.805 40.0205 49.984C40.1853 50.0829 40.2758 50.1989 40.2906 50.3291C40.3146 50.5422 40.1263 50.7252 40.1246 50.727L40.1035 50.7472C39.764 51.0225 39.6853 51.2675 39.6824 51.2779L39.6706 51.3155L39.7093 51.3103C41.2666 51.0969 41.4604 50.4739 41.4682 50.4459C41.5226 50.1998 41.8927 50.1269 41.9367 50.1194L41.9373 50.1197Z" fill="black"/>
<path d="M43.9515 49.561L43.9463 49.5624C43.9209 49.57 43.7925 49.6078 43.6554 49.6078C43.4961 49.6078 43.3879 49.5581 43.3327 49.4566C43.324 49.4459 43.11 49.1914 42.4443 49.1914C42.1348 49.1914 41.7756 49.2472 41.3763 49.3574L41.3384 49.3678L41.3638 49.3976C41.3719 49.4069 41.5634 49.6278 42.0455 49.7409C42.2219 49.8161 42.3277 49.9182 42.3601 50.0451C42.4136 50.2522 42.2522 50.4601 42.2505 50.4627L42.2352 50.4824C41.9347 50.8031 41.8899 51.0579 41.8881 51.0686L41.8818 51.1073L41.9197 51.0966C43.4321 50.6709 43.5386 50.0266 43.5423 49.9983C43.562 49.7464 43.9206 49.6232 43.9611 49.6099L43.9539 49.587L43.9654 49.609L43.9648 49.6067L43.9663 49.6087L43.9515 49.561Z" fill="black"/>
<path d="M45.8802 48.7781L45.8756 48.7801L45.8843 48.7943L45.8863 48.8015L45.8756 48.7801C45.8429 48.7955 45.672 48.8718 45.5063 48.8718C45.3935 48.8718 45.3088 48.8354 45.253 48.7605C45.246 48.7538 45.0743 48.5988 44.637 48.5988C44.2636 48.5988 43.8145 48.711 43.3018 48.9325L43.2656 48.9482L43.2948 48.9742C43.3038 48.9823 43.5239 49.1743 44.0167 49.2206C44.202 49.2706 44.3209 49.3574 44.3706 49.4785C44.4519 49.6764 44.3209 49.9048 44.3197 49.9068L44.3116 49.923C44.0546 50.2854 44.045 50.5463 44.045 50.5575L44.0438 50.5969L44.08 50.581C45.5193 49.9505 45.5358 49.2975 45.5355 49.2689C45.5205 49.017 45.8585 48.8452 45.8976 48.8264L45.8872 48.8044L45.9013 48.8247L45.9002 48.8227L45.9016 48.8247L45.8802 48.7781Z" fill="black"/>
<path d="M47.6819 47.737L47.6781 47.7393L47.6882 47.752L47.6914 47.7593L47.6787 47.7387C47.6558 47.7541 47.4482 47.8856 47.2617 47.8856C47.1795 47.8856 47.1124 47.8596 47.0586 47.8055C47.0534 47.8018 46.9256 47.7139 46.6436 47.7139C46.3608 47.7139 45.8715 47.8058 45.15 48.2445L45.1167 48.2651L45.1494 48.2865C45.1583 48.2923 45.3729 48.4334 45.8093 48.4334L45.8981 48.4314C46.0887 48.4551 46.2185 48.5248 46.2848 48.6376C46.3926 48.8226 46.2946 49.0664 46.2934 49.069L46.2876 49.0852C46.0829 49.4797 46.1095 49.74 46.111 49.7512L46.1156 49.79L46.1488 49.7695C47.4875 48.9458 47.4135 48.2977 47.4097 48.2688C47.36 48.0213 47.6712 47.8044 47.7067 47.7807L47.6934 47.7601L47.7102 47.7781L47.7088 47.7758L47.7108 47.7778L47.6819 47.737Z" fill="black"/>
<path d="M49.3227 46.457L49.3189 46.4602V46.4605C49.2935 46.4819 49.0763 46.6664 48.8779 46.6664C48.8169 46.6664 48.7634 46.6491 48.7145 46.6112C48.711 46.6097 48.6249 46.5663 48.4537 46.5663C48.1538 46.5663 47.6378 46.6953 46.8848 47.3102L46.855 47.335L46.89 47.3521C46.8958 47.3553 47.0409 47.4238 47.3151 47.4238C47.4238 47.4238 47.5386 47.4131 47.6517 47.3911H47.6659C47.8515 47.3911 47.9854 47.4429 48.0638 47.5444C48.1945 47.7124 48.1315 47.9658 48.1309 47.9684L48.1271 47.9854C47.9785 48.4042 48.0415 48.6584 48.0441 48.6694L48.054 48.7073L48.0846 48.6824C49.2967 47.6818 49.1338 47.0499 49.126 47.0221C49.0425 46.7838 49.3204 46.5261 49.3522 46.4975L49.3363 46.4799L49.3554 46.4952L49.3536 46.4932L49.3556 46.4949L49.3227 46.457Z" fill="black"/>
<path d="M50.771 44.9628L50.7678 44.9665C50.7435 44.9946 50.5283 45.2343 50.3184 45.2343C50.2739 45.2343 50.2319 45.2233 50.1903 45.1996C50.1883 45.199 50.1394 45.1823 50.0474 45.1823C49.7929 45.1823 49.2504 45.3075 48.4742 46.1444L48.4479 46.1733L48.4846 46.1855C48.4881 46.1861 48.5693 46.2121 48.7174 46.2121C48.8825 46.2121 49.0613 46.1806 49.2446 46.1195C49.4456 46.0886 49.5971 46.1262 49.6905 46.2306C49.8247 46.3813 49.7996 46.6222 49.7993 46.6245L49.7958 46.6528C49.7102 47.0814 49.8059 47.3203 49.81 47.3307L49.8253 47.3671L49.8516 47.3382C50.9144 46.18 50.666 45.5761 50.6544 45.5495C50.5388 45.3251 50.7791 45.0319 50.8066 44.9992L50.7886 44.9833L50.8097 44.9957L50.8077 44.994L50.81 44.9954L50.771 44.9628Z" fill="black"/>
<path d="M51.9995 43.2823L51.9972 43.2863C51.9744 43.321 51.7757 43.6163 51.5533 43.6163L51.4573 43.5972L51.4015 43.5932C51.2389 43.5932 50.6499 43.6779 49.8881 44.7699L49.8658 44.8023L49.9043 44.8089C49.9055 44.8092 49.9358 44.8144 49.9908 44.8144C50.1041 44.8144 50.3407 44.7913 50.6481 44.6386C50.7245 44.6158 50.7953 44.6042 50.8581 44.6042C51.2502 44.6042 51.2661 45.0438 51.2664 45.0626L51.267 45.0848C51.2404 45.5256 51.3694 45.7511 51.3749 45.7604L51.3951 45.7945L51.4171 45.7618C52.3093 44.468 51.9799 43.9049 51.9648 43.8806C51.8196 43.6747 52.0154 43.352 52.0394 43.3138L52.0192 43.3011L52.0417 43.3103L52.0394 43.3089L52.0426 43.3101L51.9995 43.2823Z" fill="black"/>
<path d="M53.0277 41.4742L53.0057 41.4641L53.0294 41.4705L53.0271 41.469L53.0294 41.4696L52.9843 41.4488L52.9823 41.4534C52.9635 41.4936 52.7925 41.8435 52.5548 41.8435L52.4903 41.8354H52.4837C52.4137 41.8354 51.7795 41.8739 51.0982 43.2132L51.084 43.2499H51.1245C51.1762 43.2499 51.4544 43.2366 51.8318 42.9789C51.9305 42.9338 52.0207 42.911 52.1011 42.911C52.4328 42.911 52.5007 43.2967 52.5034 43.3132L52.5083 43.3416C52.543 43.7771 52.7006 43.9807 52.7072 43.9899L52.7315 44.0209L52.7489 43.9859C53.4539 42.581 53.0505 42.0688 53.0317 42.0463C52.8594 41.8615 53.0097 41.513 53.0277 41.4742Z" fill="black"/>
<path d="M53.735 39.602V39.6017L53.7121 39.5945L53.7364 39.5979L53.7341 39.5973H53.7364L53.689 39.5829L53.6875 39.5875C53.6725 39.6341 53.5389 40.0332 53.2833 40.0332L53.2506 40.0314C53.2231 40.0334 52.5739 40.0985 52.0522 41.5809L52.0394 41.6179L52.0782 41.6142C52.0903 41.613 52.3813 41.5815 52.7494 41.2513C52.8616 41.1804 52.9657 41.1451 53.0594 41.1451C53.3492 41.1451 53.4579 41.491 53.4591 41.4942L53.4649 41.5101C53.5565 41.9456 53.7419 42.1295 53.75 42.1376L53.7781 42.1651L53.7908 42.1281C54.3041 40.6425 53.8362 40.1882 53.8151 40.1679C53.6205 40.008 53.722 39.6456 53.735 39.602Z" fill="black"/>
<path d="M54.3434 38.202C54.1285 38.0695 54.1832 37.6939 54.1896 37.6516L54.1659 37.6476L54.1849 37.647L54.1901 37.6476L54.1878 37.647H54.1901L54.1413 37.6389L54.1407 37.6438C54.1317 37.6944 54.0461 38.1349 53.7656 38.1412C53.739 38.1467 53.1042 38.2971 52.7826 39.8356L52.7745 39.8738L52.8127 39.8648C52.8246 39.8617 53.1088 39.7931 53.4299 39.4166C53.549 39.3174 53.6635 39.2674 53.7702 39.2674C54.027 39.2674 54.1641 39.5609 54.1659 39.5641L54.1734 39.5797C54.3212 39.999 54.5302 40.1572 54.5389 40.1633L54.5704 40.1864L54.578 40.148C54.8912 38.6074 54.3671 38.2185 54.3434 38.202Z" fill="black"/>
<path d="M34.9735 49.6963C34.9735 49.6963 37.2373 50.9876 37.3984 50.1793C37.5537 49.3982 34.9735 49.6963 34.9735 49.6963Z" fill="black"/>
<path d="M54.3359 34.4679C53.9131 34.4679 53.5707 34.8103 53.5707 35.2331C53.5707 35.6559 53.9131 35.9983 54.3359 35.9983C54.7587 35.9983 55.1011 35.6559 55.1011 35.2331C55.1011 34.8106 54.7581 34.4679 54.3359 34.4679Z" fill="black"/>
<path d="M47.9855 24.6891C48.074 24.3582 48.2013 24.0919 48.286 23.9152C48.3505 23.781 48.3889 23.6997 48.3846 23.6532L48.3832 23.6413L48.3733 23.635L48.3077 23.6231C47.9161 23.6231 46.2573 24.0852 44.6511 25.5006C43.5979 26.4283 43.2031 27.4246 42.9422 28.0839L42.8992 28.1918C42.2392 29.842 41.638 32.0543 41.4885 32.9413C41.3898 32.5662 41.2505 32.1272 41.0995 31.9458C40.9514 31.7674 40.7068 31.53 40.2947 31.53C40.2308 31.53 40.1634 31.5355 40.0954 31.547C39.7004 31.6127 39.3438 31.9334 39.1853 32.3629L39.1807 32.3753C39.0743 32.6645 38.9736 32.9372 38.9881 33.415C38.9956 33.6802 39.0696 33.9618 39.1807 34.1495C39.5757 34.8178 40.1862 35.1571 40.9954 35.1571C41.0998 35.1571 41.2088 35.1516 41.3196 35.1403C41.6342 35.1088 41.9691 34.9795 42.2878 34.7667C43.0232 34.2753 43.6181 33.644 44.2483 32.976C44.6054 32.5977 44.9747 32.2061 45.3724 31.8429C45.617 31.6193 46.1911 31.0968 46.7764 30.7552C47.2125 30.5013 47.6503 30.3217 48.0775 30.2222L48.1449 30.1852L48.1307 30.0988L48.1151 30.0594C47.9699 29.6809 47.8502 29.1953 47.7484 28.5744C47.6651 28.062 47.6153 27.5547 47.6448 26.7447C47.6616 26.2996 47.7929 25.4083 47.9855 24.6891Z" fill="#B79257"/>
<path d="M35.806 47.0155C36.2817 46.7989 36.7742 46.5747 37.291 46.3547C38.4203 45.8755 39.2631 45.5814 40.2978 45.3058C41.3363 45.0293 42.3803 44.7803 43.736 44.7716H43.7589C44.1478 44.7716 44.6418 44.8303 44.9804 44.9145C44.5099 43.5165 42.8653 43.035 42.2423 42.8528C41.6504 42.6796 40.2804 42.4523 39.8319 42.41L39.7677 42.4043L39.8198 42.3664C39.9672 42.2591 40.05 42.1561 40.1535 42.0257L40.2362 41.9233L40.2449 41.9132L40.2582 41.9149C41.0523 42.0081 41.9075 42.1856 42.6041 42.4028C43.3427 42.633 43.9743 42.9427 44.4813 43.3245C44.7612 43.535 44.9998 43.7993 45.2323 44.1553C45.5253 44.603 45.6268 45.3023 45.6242 45.765V45.8098L45.5866 45.785C45.2361 45.5542 44.8766 45.4119 44.5177 45.3619C44.2609 45.3266 43.985 45.3084 43.6973 45.3084C42.9807 45.3084 42.1799 45.4162 41.2507 45.638C40.3863 45.8439 39.5349 46.1016 38.6479 46.4261C37.6546 46.7887 36.8729 47.1326 35.7939 47.6164C35.625 47.6922 35.4619 47.7668 35.3014 47.8405C34.7745 48.0817 34.2742 48.3108 33.7227 48.5014C33.7406 48.3012 33.7603 48.0982 33.7834 47.8964C34.5029 47.6086 35.1646 47.3076 35.806 47.0155Z" fill="#B79257"/>
<path d="M26.7101 49.9198C24.47 49.9198 23.0717 49.327 22.5451 49.1043L22.4465 49.0633C21.7859 48.7931 20.4944 47.96 19.8183 47.2899C18.7286 46.2106 17.9501 44.8685 17.8841 44.7265L17.8561 44.6655L17.9168 44.6947C18.4744 44.9607 20.1925 45.3188 21.1992 45.378C21.5821 45.4006 21.884 45.411 22.15 45.411C22.5217 45.411 22.8273 45.3902 23.1608 45.3558C23.1833 45.3818 23.2056 45.4078 23.2285 45.4341C23.3684 45.5941 23.4991 45.741 23.6238 45.8781C23.277 45.9113 22.8739 45.9321 22.3467 45.9446L22.2565 45.9457C21.6 45.9457 19.7379 45.8075 19.1887 45.6698C20.2405 47.0331 21.1853 47.9606 22.8404 48.6485C23.4465 48.9004 24.0813 49.0847 24.7274 49.1966C25.3665 49.3073 26.1094 49.3611 26.9984 49.3611C27.1245 49.3611 27.2558 49.3597 27.3937 49.3577C27.6196 49.5315 27.833 49.6954 28.025 49.8516C27.5797 49.8958 27.1387 49.9198 26.7101 49.9198Z" fill="#B79257"/>
<path d="M18.821 38.0235C18.7027 38.0282 18.5732 38.0305 18.432 38.0305C17.3236 38.0305 15.864 37.8974 14.5273 37.6745C13.3214 37.4735 12.4529 37.2601 12.0032 37.0556C12.0325 37.1022 12.0677 37.1591 12.1076 37.2242C12.5171 37.8894 13.477 39.4461 14.7191 40.4724C15.8085 41.3727 17.1607 42.3618 18.9367 42.8699C19.78 43.1111 20.4865 43.2319 21.5643 43.3138C21.6887 43.4902 21.8145 43.6654 21.944 43.8392C21.9059 43.8395 21.8674 43.8407 21.8295 43.8407C19.9442 43.8407 18.3464 43.4309 16.6492 42.5116C16.0207 42.1709 15.4389 41.7822 14.9206 41.3559C14.5421 41.045 13.9874 40.5592 13.4917 40.0126C12.5805 39.0065 11.7221 37.7474 10.867 36.1634L10.8337 36.1013L10.8982 36.1296C11.2594 36.2881 11.6863 36.426 12.0938 36.551C13.0319 36.8396 13.9816 37.0544 14.9976 37.2083C16.2217 37.3937 17.2154 37.4726 18.3198 37.4726C18.4228 37.4726 18.5283 37.4715 18.6342 37.4703C18.6932 37.6542 18.7559 37.8387 18.821 38.0235Z" fill="#B79257"/>
<path d="M14.0106 28.7337L13.9713 28.7296C11.7069 28.4937 9.15068 27.8832 7.65005 27.432C6.56354 27.1058 5.53198 26.7478 4.58487 26.3687L4.54843 26.3527C4.87667 27.0627 5.26187 27.7686 5.69451 28.4497C6.85881 30.2864 8.23942 31.7731 9.79645 32.8686C11.8257 34.2961 14.1185 34.8956 14.7622 35.0214L14.7628 35.0121H14.7851L14.7961 35.0136L14.8791 35.0306C15.1587 35.0859 16.6108 35.3597 17.7953 35.3597C17.8959 35.3597 17.9919 35.3577 18.0839 35.3534C18.0963 35.4199 18.1088 35.4855 18.1209 35.5471C18.1441 35.6628 18.1698 35.7811 18.197 35.9005C18.1817 35.9008 18.166 35.9008 18.1496 35.9008C17.601 35.9008 16.4335 35.8106 15.7466 35.7149C14.8342 35.5876 13.08 35.266 11.5779 34.5393C9.01533 33.3001 6.96465 31.4397 5.30699 28.8523C4.85179 28.1411 4.17884 26.9748 3.55794 25.4568L3.53191 25.3929L3.52815 25.3915L3.52584 25.3805L3.49634 25.3238L3.55244 25.3492H3.56401L3.56777 25.3559C4.21296 25.6434 4.84688 25.9048 5.45245 26.1335C6.15867 26.4005 9.4526 27.5009 11.4466 27.8181C13.6546 28.1689 15.5968 28.3467 17.2204 28.3467C17.5223 28.3467 17.815 28.3401 18.0932 28.3277C18.0651 28.5009 18.0391 28.6724 18.0154 28.841C17.5917 28.8899 17.1504 28.9139 16.6723 28.9139C15.7296 28.913 14.8163 28.8181 14.0106 28.7337Z" fill="#B79257"/>
<path d="M53.3162 48.1922C52.8012 48.1922 52.3827 48.6104 52.3827 49.126C52.3827 49.6414 52.8009 50.0595 53.3162 50.0595C53.8318 50.0595 54.25 49.6414 54.25 49.126C54.25 48.6101 53.8321 48.1922 53.3162 48.1922ZM53.3162 49.8594C52.9113 49.8594 52.5825 49.5312 52.5825 49.126C52.5825 48.7208 52.911 48.3923 53.3162 48.3923C53.722 48.3923 54.0499 48.7208 54.0499 49.126C54.0502 49.5312 53.7222 49.8594 53.3162 49.8594Z" fill="white"/>
<path d="M53.6997 48.9097C53.6997 48.7342 53.5577 48.5924 53.3833 48.5924L52.9327 48.5922V49.6593H53.1334V49.2252H53.2772L53.479 49.6593H53.6997L53.4894 49.2076C53.6118 49.1636 53.6997 49.0468 53.6997 48.9097ZM53.3833 49.026H53.1334V48.7929H53.3833C53.4478 48.7929 53.4999 48.8452 53.4999 48.9097C53.4999 48.9742 53.4478 49.026 53.3833 49.026Z" fill="white"/>
</svg>
