<svg width="80" height="64" viewBox="0 0 80 64" fill="none" xmlns="http://www.w3.org/2000/svg">
<path d="M36.2658 45.0058C35.58 45.0058 35.0232 45.5617 35.0232 46.248C35.0232 46.9336 35.58 47.4903 36.2658 47.4903C36.9516 47.4903 37.5076 46.9336 37.5076 46.2481C37.5076 45.5617 36.9516 45.0058 36.2658 45.0058ZM36.2658 47.2238C36.1376 47.2239 36.0107 47.1987 35.8923 47.1497C35.7739 47.1007 35.6663 47.0289 35.5756 46.9382C35.485 46.8476 35.4131 46.74 35.3641 46.6216C35.3152 46.5032 35.29 46.3762 35.2901 46.2481C35.2901 45.709 35.7261 45.273 36.2658 45.273C36.8049 45.273 37.2413 45.709 37.2413 46.2481C37.2413 46.7873 36.8049 47.2238 36.2658 47.2238ZM36.7763 45.96C36.7762 45.9047 36.7653 45.85 36.7441 45.7989C36.7229 45.7478 36.6918 45.7014 36.6527 45.6623C36.6135 45.6232 36.5671 45.5922 36.516 45.5711C36.4648 45.55 36.4101 45.5391 36.3547 45.5392H35.7562V46.9572H36.0222V46.3813H36.2132L36.482 46.9572H36.7763L36.4956 46.3567C36.5776 46.3276 36.6486 46.2739 36.6988 46.2029C36.7491 46.1319 36.7761 46.047 36.7763 45.96H36.7763ZM36.3547 46.1151H36.0222V45.8048H36.3547C36.4402 45.8048 36.5102 45.8743 36.5102 45.9601C36.51 46.0013 36.4936 46.0407 36.4644 46.0697C36.4353 46.0987 36.3959 46.1151 36.3547 46.1151Z" fill="#010101"/>
<path d="M50.0368 13.625H11.4V15.4486C11.4 18.2715 12.5034 20.9228 14.3916 22.845H11.4V24.669C11.4 27.4913 12.5034 30.1429 14.3916 32.064H11.4V33.8884C11.4 36.7101 12.5034 39.3614 14.3916 41.2845H11.4V43.1083C11.4 48.7692 15.7334 53.375 21.0606 53.375H30.0207L36.1022 43.0936C39.5235 47.2648 44.6522 49.751 50.0368 49.751C59.9967 49.751 68.1001 41.6487 68.1001 31.6886C68.1001 21.7282 59.9967 13.625 50.0368 13.625Z" fill="#010101"/>
<path d="M50.0368 14.2464H12.0211V15.4486C12.0211 18.7881 13.6202 21.7341 16.0426 23.4661H12.0212V24.6691C12.0212 28.0074 13.6203 30.9529 16.0426 32.6854H12.0212V33.8884C12.0212 37.2269 13.6203 40.1723 16.0426 41.9047H12.0212V43.1083C12.0212 48.4263 16.0762 52.7532 21.0606 52.7532H29.6666L36.0153 42.0201C39.3011 46.4712 44.4912 49.1299 50.0368 49.1299C59.6541 49.1299 67.4785 41.3056 67.4785 31.6886C67.4785 22.0709 59.6541 14.2464 50.0368 14.2464Z" fill="white"/>
<path d="M50.0367 15.4486H13.571C13.571 20.112 17.0797 23.892 21.4081 23.892H35.1444C35.3583 23.892 35.5323 24.0659 35.5323 24.2803C35.5323 24.4947 35.3583 24.669 35.1444 24.669H13.5711C13.5711 29.3318 17.0797 33.1117 21.4081 33.1117H29.691C29.905 33.1117 30.0795 33.2856 30.0795 33.5007C30.0795 33.7141 29.905 33.8885 29.6911 33.8885H13.571C13.571 38.551 17.0796 42.331 21.408 42.331H24.2375C24.3405 42.3311 24.4392 42.372 24.512 42.4449C24.5848 42.5177 24.6257 42.6165 24.6257 42.7194C24.6257 42.8224 24.5848 42.9212 24.512 42.9941C24.4393 43.0671 24.3406 43.1081 24.2375 43.1083H13.571C13.571 47.7702 17.0796 51.5506 21.408 51.5506H28.981L43.1374 27.6159C44.532 25.2586 47.0992 23.6776 50.0366 23.6776C54.4608 23.6776 58.0473 27.2641 58.0473 31.6886C58.0473 36.1119 54.4608 39.6993 50.0366 39.6993C45.6679 39.6993 42.1164 36.2015 42.0278 31.8537L36.671 40.9115C39.601 45.1492 44.4939 47.9276 50.0367 47.9276C59.0052 47.9276 66.2758 40.6567 66.2758 31.6886C66.2758 22.7194 59.0052 15.4486 50.0367 15.4486Z" fill="#010101"/>
<path d="M50.0367 27.0798C47.4914 27.0798 45.4286 29.1431 45.4286 31.6886C45.4286 34.233 47.4914 36.2966 50.0367 36.2966C52.5823 36.2966 54.6454 34.233 54.6454 31.6886C54.6454 29.1431 52.5823 27.0798 50.0367 27.0798Z" fill="#FA4616"/>
</svg>
