<svg width="64" height="64" viewBox="0 0 64 64" fill="none" xmlns="http://www.w3.org/2000/svg">
<g clip-path="url(#clip0_33_1952)">
<path d="M31.6481 49.8102V50.6524H31.4375V49.8102H31.1937V49.601H31.8919V49.8102H31.6481H31.6481ZM32.7894 50.6524V50.0319L32.612 50.4185H32.426L32.2486 50.0319V50.6524H32.0381V49.601H32.2486L32.519 50.1625L32.7894 49.601H32.9999V50.6524H32.7893H32.7894Z" fill="#041E42"/>
<path d="M57.9508 12H16.7179C19.4491 16.2605 20.3572 17.6617 18.0342 17.595L14.6089 12H8.04907L22.9488 36.3399C22.7481 36.3316 22.5444 36.3192 22.3464 36.3192C16.239 36.3192 11.4551 39.7377 11.4551 44.1031C11.4551 48.4675 16.239 51.886 22.3464 51.886C28.454 51.886 33.2382 48.4675 33.2382 44.1031C33.2382 42.9985 32.9304 41.9341 32.3235 40.9379L28.9845 35.4843C28.9845 35.4843 31.6724 36.0245 33.6894 35.0928L32.716 33.8392C32.716 33.8392 36.8137 34.2194 40.5892 33.094L39.3093 31.737C39.3093 31.737 45.0556 31.5907 49.0383 26.4818H48.6412C48.6412 26.4818 51.6076 25.0509 52.858 21.8867H52.4716C52.4716 21.8867 54.3727 20.4714 55.0202 17.5625H54.4596C54.4596 17.5625 57.4796 15.4335 57.9508 12Z" fill="#041E42"/>
<path d="M56.9308 12.7183H18.0538C21.2392 17.5449 20.2993 18.3223 17.636 18.3223L14.2057 12.7183H9.33203L24.3025 37.1749C23.663 37.09 23.0123 37.0378 22.3463 37.0378C16.6419 37.0378 12.1742 40.1409 12.1742 44.1031C12.1742 48.0642 16.6419 51.1665 22.3463 51.1665C28.0508 51.1665 32.5194 48.0642 32.5194 44.1031C32.5194 43.1324 32.2473 42.1938 31.7094 41.3126L27.4703 34.3879C27.4703 34.3879 30.4191 35.3591 32.4857 34.7145L31.1796 33.0321C31.1796 33.0321 36.0482 33.4367 39.304 32.7791L37.7548 31.1359C37.7548 31.1359 45.0054 31.0638 47.7112 26.5866H46.4701C46.4701 26.5866 49.8882 26.1096 51.6135 22.4173H50.3498C50.3498 22.4173 53.2914 21.0622 54.0892 17.9801H52.724C52.724 17.9801 55.7772 15.9531 56.9308 12.7183Z" fill="white"/>
<path d="M56.1194 13.2234H18.9544C21.1564 16.5755 21.575 19.0438 17.3444 18.8122L13.9228 13.2234H10.2329L25.317 37.8638C24.3412 37.6504 23.3453 37.5427 22.3465 37.5425C17.016 37.5425 12.679 40.4848 12.679 44.1031C12.679 47.719 17.0159 50.6621 22.3465 50.6621C27.6777 50.6621 32.0151 47.719 32.0151 44.1032C32.0151 43.2268 31.7677 42.3766 31.2791 41.5759L26.3655 33.5481C26.3655 33.5481 29.4622 34.6309 31.6038 34.404C31.6038 34.404 30.6325 33.2019 30.1992 32.4547C30.1992 32.4547 33.723 32.8783 38.3254 32.4768L36.5989 30.6456C36.7399 30.6485 36.89 30.6507 37.052 30.6507C44.5176 30.6507 46.7658 26.8244 46.7658 26.8244H44.7313C44.7313 26.8244 49.7728 25.5398 50.8503 22.6549H48.9808C48.9808 22.6549 52.9692 20.6997 53.3588 18.4848H51.0826C51.0826 18.4848 55.0597 16.2404 56.1194 13.2234Z" fill="#FFB81C"/>
<path d="M55.2587 13.7588H19.9097C22.8392 18.544 19.9058 19.6215 17.0346 19.3315L13.6232 13.7588H11.1882L26.4728 38.7273C25.2331 38.3128 23.8316 38.0774 22.3465 38.0774C17.3023 38.0774 13.2135 40.7748 13.2135 44.103C13.2135 47.4297 17.3023 50.1267 22.3465 50.1267C27.3907 50.1267 31.4793 47.4297 31.4793 44.1031C31.4793 43.3079 31.2455 42.5497 30.8216 41.8539L25.1557 32.5982C25.1557 32.5982 28.8161 33.8683 30.5052 33.8683C30.5052 33.8683 29.7358 32.8876 29.2716 31.8316C29.2716 31.8316 33.6563 32.3042 37.1682 32.0299L35.2587 30.0055C35.2587 30.0055 35.8283 30.1156 37.0519 30.1156C43.2311 30.1156 45.5997 27.36 45.5997 27.36H27.226L26.9574 26.9211H42.2023C42.2023 26.9211 48.4145 25.7346 49.9139 23.1901H24.6731L24.4048 22.7519H47.6375C47.6375 22.7519 51.9627 20.6643 52.584 19.0206H22.1209L21.8523 18.5813H49.849C49.849 18.5813 53.9286 16.4593 55.2587 13.7588Z" fill="#003087"/>
</g>
<defs>
<clipPath id="clip0_33_1952">
<rect width="50" height="39.886" fill="white" transform="translate(8 12)"/>
</clipPath>
</defs>
</svg>
