<svg width="72" height="64" viewBox="0 0 72 64" fill="none" xmlns="http://www.w3.org/2000/svg">
<path d="M35.415 36.7225L45.9825 31.45C53.22 33.4825 55.365 36.2275 55.365 36.2275L59.505 31.5475C59.73 31.3075 60.4125 30.46 60.4125 28.9225C60.4125 27.265 58.68 25.975 57.465 25.105C55.4025 19.6975 44.0025 18.13 43.1625 16.2475C42.87 15.595 41.2125 9.97 41.2125 9.97C40.2225 7.06 37.29 7.06 36.1875 7.06C35.0775 7.06 32.7 7.435 32.7 7.435C32.7 11.4925 32.1525 16.435 31.575 17.3425C31.575 17.3425 29.5125 18.4225 27.0975 19.2925L21.3225 15.4L22.8375 20.635C13.11 25.9825 10.74 35.305 10.74 35.305C10.74 35.305 13.2375 54.94 37.8525 54.94C50.865 54.94 58.38 48.6475 58.38 48.6475L54.1875 39.2725C54.1875 39.2725 47.7825 42.6025 39.6 42.6025C32.055 42.6025 29.1075 39.085 28.0275 37.0375C34.4175 37.225 35.415 36.7225 35.415 36.7225Z" fill="#97999B"/>
<path d="M56.52 25.795C54.51 20.365 43.4175 19.375 42.195 16.81C41.7 15.7825 41.07 13.33 40.155 10.3375C39.42 8.17749 37.2525 8.17749 36.1725 8.17749C35.1375 8.17749 33.795 8.38749 33.795 8.38749C33.795 10.6 33.375 17.0275 32.3475 18.1375C32.0925 18.4525 30.2025 19.2175 28.1475 20.0125L28.7625 20.425L28.1325 21.055L26.9475 22.24L25.65 26.305L23.955 25.42L24.555 26.9275L21.5325 27.43L23.2425 28.0225L18.3225 31.8025L19.65 31.9075L17.895 35.08C20.4225 33.9325 21.195 33.715 21.195 33.715L20.4675 32.965L25.5675 30.91C25.5675 30.91 25.185 31.93 25.185 33.91C25.185 34.195 25.23 34.615 25.3275 35.1025C25.9575 38.185 28.965 44.545 39.5925 44.545C47.28 44.545 53.2125 41.86 53.2125 41.86L55.965 48.025C55.965 48.025 48.75 53.02 37.8375 53.02C15.5325 53.02 12.705 35.485 12.705 35.485C15.78 27.2575 20.955 23.6575 24.2475 22.1275L23.22 22.015L23.13 21.7075C14.4375 26.5 11.865 35.3875 11.865 35.3875C11.865 35.3875 14.5125 53.8375 37.8525 53.8375C49.7925 53.8375 57.015 48.3025 57.015 48.3025L53.64 40.75C53.64 40.75 47.3325 43.705 39.6 43.705C28.0875 43.705 26.385 35.8525 26.385 35.8525C26.385 35.8525 32.94 36.2425 35.04 35.68L45.8775 30.265C53.22 32.335 55.335 34.5775 55.335 34.5775L58.695 30.7975C58.695 30.7975 59.31 30.22 59.31 28.9225C59.3025 27.7075 57.4875 26.485 56.52 25.795ZM32.9175 27.805L27.42 27.0625L30.1875 25.5175L32.9175 27.805ZM32.0025 20.395L28.59 25.8475L27.39 22.9825L32.0025 20.395ZM20.715 30.73L27.0975 26.4325L26.6175 29.845L20.715 30.73Z" fill="#00205B"/>
<path d="M26.1826 29.515L26.5876 27.1975L22.2676 30.13L26.1826 29.515ZM28.3576 26.9125L31.9426 27.3475L29.8351 26.1175L28.3576 26.9125ZM28.0801 23.1325L28.4776 24.9025L31.0051 21.4825L28.0801 23.1325Z" fill="#00205B"/>
<path d="M18.5024 32.185L17.2274 32.215L22.5524 28.2475L20.2424 27.3325L24.0224 26.605L22.7099 23.95L25.0424 25.2775L25.9724 22.3825C23.1674 23.3575 17.1449 26.4475 13.6499 35.56C14.0699 37.6525 17.7224 52.1125 37.8524 52.1125C46.5449 52.1125 52.8899 48.82 54.8399 47.665L52.7624 43.0075C50.8349 43.75 45.8024 45.43 39.6074 45.43C27.3674 45.4375 24.2924 37.0525 24.2924 33.9025C24.2924 33.205 24.3374 32.6125 24.3974 32.1325L21.5849 33.0625L21.9524 33.8575L19.7549 34.6525L17.8649 35.8975L21.7049 36.61L20.9099 39.355L22.5599 38.8675L24.1424 42.895L26.0324 42.655L26.6624 45.4825C26.6624 45.4825 30.2249 47.95 36.2624 48.49C44.2349 49.2025 51.3674 46.48 51.3674 46.48C51.3674 46.48 42.8624 49.8175 35.1224 49C29.2124 48.3775 25.3649 45.97 25.3649 45.97L25.3199 43.42L22.9874 43.45L21.8924 39.5425L19.8149 40.5175L20.7299 37.0225L16.7474 36.535L17.5574 34.0975L18.5024 32.185ZM26.6924 22.2175L27.8474 20.665L22.2299 16.7875L23.8349 21.52L26.6924 22.2175Z" fill="#00205B"/>
<path d="M60.12 46.36C59.49 46.36 58.98 46.87 58.98 47.5C58.98 48.13 59.49 48.64 60.12 48.64C60.75 48.64 61.26 48.13 61.26 47.5C61.26 46.87 60.75 46.36 60.12 46.36ZM60.12 48.4C59.625 48.4 59.22 47.995 59.22 47.5C59.22 47.005 59.6175 46.6075 60.12 46.6075C60.615 46.6075 61.02 47.005 61.02 47.5C61.0125 48.0025 60.615 48.4 60.12 48.4Z" fill="#041C2C"/>
<path d="M60.5926 47.2375C60.5926 47.0275 60.4201 46.8475 60.2026 46.8475H59.6551V48.1525H59.9026V47.62H60.0751L60.3226 48.1525H60.5926L60.3376 47.5975C60.4801 47.5525 60.5926 47.41 60.5926 47.2375ZM60.2026 47.38H59.8951V47.095H60.2026C60.2776 47.095 60.3451 47.155 60.3451 47.2375C60.3451 47.32 60.2776 47.38 60.2026 47.38ZM53.7901 26.1625C49.1926 25.7875 47.4076 24.28 47.4076 23.095C47.4076 22.525 47.9326 22.42 48.2851 22.42C50.1601 22.42 53.0626 23.905 53.5351 25.1725C52.7101 24.2875 51.2701 23.515 50.1751 23.515C49.9426 23.515 49.6951 23.5825 49.6951 23.875C49.6951 24.6175 51.0151 25.78 55.8376 26.32C53.9926 20.995 43.8076 20.62 41.5201 17.275C40.8826 16.345 39.8326 10.405 38.7751 9.58754C37.6126 8.69504 34.6276 9.10004 34.6276 9.10004C34.6276 9.92504 34.4251 17.215 32.9176 18.7375C31.8976 19.5925 30.1876 19.9675 28.1401 21.0475L26.9551 22.2325L25.6576 26.2975L23.9626 25.4125L24.5626 26.92L21.5401 27.4225L23.2501 28.015L18.3301 31.795L19.6576 31.9L17.9026 35.0725C20.4301 33.925 21.2026 33.7075 21.2026 33.7075L20.4751 32.9575L25.5751 30.9025C25.5751 30.9025 25.1926 31.9225 25.1926 33.9025C25.1926 34.1875 25.2376 34.6075 25.3351 35.095C25.5526 34.675 29.5651 27.2725 38.1601 26.77L34.5601 29.5525L27.4201 35.065C27.4201 35.065 33.3001 35.3125 34.7401 34.9C39.2851 32.785 42.9226 30.8125 45.7726 29.38C48.5101 28.0075 50.5276 27.145 51.9226 27.145C53.6476 27.145 56.0401 28.81 58.0876 30.22C58.0876 30.22 58.2151 30.115 58.3201 29.89C58.8151 28.1275 56.2576 26.7475 53.7901 26.1625ZM26.6176 29.845L20.7151 30.73L27.0976 26.4325L26.6176 29.845ZM32.0026 20.395L28.5901 25.8475L27.3901 22.9825L32.0026 20.395ZM27.4201 27.0625L30.1876 25.5175L32.9176 27.805L27.4201 27.0625ZM37.3951 17.95C36.5476 18.0025 34.8301 18.5575 34.8301 18.5575C34.8301 18.5575 36.3751 17.665 36.6901 17.185C37.0051 16.705 37.0876 11.2975 37.0876 11.2975C37.0876 11.2975 37.5826 16.5925 38.0026 17.125C38.4226 17.6575 39.9826 18.3175 39.9826 18.3175C39.9826 18.3175 38.0176 17.9125 37.3951 17.95Z" fill="#041C2C"/>
<path d="M38.0099 17.125C37.5899 16.5925 37.0949 11.2975 37.0949 11.2975C37.0949 11.2975 37.0124 16.705 36.6974 17.185C36.3824 17.665 34.8374 18.5575 34.8374 18.5575C34.8374 18.5575 36.5549 17.995 37.4024 17.95C38.0249 17.9125 39.9974 18.3175 39.9974 18.3175C39.9974 18.3175 38.4299 17.6575 38.0099 17.125ZM25.3274 35.0951C25.5449 34.8776 29.9399 30.4975 34.5599 29.5525L38.1599 26.77C29.5649 27.28 25.5524 34.6826 25.3274 35.0951ZM58.4999 29.1325C58.4999 28.0375 57.0599 27.295 55.8374 26.32C51.0149 25.78 49.6949 24.6175 49.6949 23.875C49.6949 23.5825 49.9424 23.515 50.1749 23.515C51.2699 23.515 52.7099 24.2875 53.5349 25.1725C53.0549 23.9125 50.1599 22.42 48.2849 22.42C47.9324 22.42 47.4074 22.5325 47.4074 23.095C47.4074 24.28 49.1924 25.7875 53.7899 26.1625C56.2574 26.7475 58.8149 28.12 58.3199 29.8975C58.4174 29.7175 58.4999 29.47 58.4999 29.1325ZM49.4549 29.125L51.2474 29.7625C51.5774 29.62 51.9374 29.4475 51.9674 29.4025C51.9899 29.35 51.9899 29.3125 51.9149 29.245C51.8624 29.1925 51.0599 28.9 50.5649 28.7125L49.4549 29.125ZM50.9624 28.555C51.4424 28.7425 52.1024 29.0125 52.1549 29.02C52.2299 29.035 52.3574 29.0425 52.4324 29.02C52.4924 29.005 52.8824 28.81 53.1674 28.66C52.8899 28.525 52.3274 28.2625 51.9524 28.2625C51.5924 28.27 50.9624 28.555 50.9624 28.555ZM52.7324 29.1775C52.7174 29.215 52.7324 29.2451 52.7924 29.2901C52.8599 29.3426 53.7899 29.8225 53.8649 29.83C53.9399 29.8375 53.9999 29.8375 54.0749 29.8225C54.1274 29.8075 54.4499 29.605 54.6674 29.455L53.4299 28.7875C53.1074 28.945 52.7624 29.1325 52.7324 29.1775ZM53.6099 30.16C53.6324 30.115 53.6399 30.0851 53.6249 30.0401C53.5649 29.9725 52.6424 29.4925 52.5449 29.4776C52.4399 29.4625 52.3799 29.4625 52.2899 29.5075C52.2074 29.545 51.7424 29.8075 51.5699 29.8975L53.0099 30.5501C53.2874 30.385 53.5874 30.1975 53.6099 30.16ZM55.3799 30.67C55.4174 30.6776 55.5074 30.6551 55.6049 30.6175C55.6574 30.595 55.8674 30.4226 56.0099 30.3025L54.8999 29.5975C54.6299 29.77 54.3524 29.9576 54.3224 29.995C54.3224 30.0026 54.3299 30.0325 54.3824 30.115L55.3799 30.67ZM55.8374 30.7826C55.8074 30.85 55.7999 30.8726 55.8149 30.8876C55.8524 30.9251 56.4299 31.3076 56.8199 31.5701L57.2699 31.1201L56.2424 30.46C56.0549 30.5875 55.8524 30.7451 55.8374 30.7826ZM55.1999 30.9701C55.2224 30.9326 55.2074 30.8876 55.1699 30.8426C55.1099 30.7901 54.2249 30.31 54.1574 30.295C54.0824 30.28 53.9474 30.3025 53.8799 30.325C53.8424 30.34 53.5799 30.5201 53.3399 30.6925L54.6974 31.3225C54.9299 31.1725 55.1774 31 55.1999 30.9701ZM55.4399 31.15C55.4024 31.1651 55.1474 31.36 54.9524 31.51L56.1824 32.2675L56.6399 31.7651C56.2649 31.5101 55.7249 31.135 55.6799 31.1201C55.6349 31.1051 55.4999 31.1276 55.4399 31.15Z" fill="white"/>
<path d="M45.7798 29.3875C52.4098 31.15 55.2373 33.445 55.2373 33.445L55.9423 32.65C55.6123 32.4025 53.1673 30.7225 48.3823 29.155C49.8073 28.5925 51.5323 27.925 51.9973 27.925C53.0548 27.925 55.2298 29.2975 57.5623 30.8275L58.0948 30.2275C56.0548 28.8175 53.6623 27.1525 51.9298 27.1525C50.5273 27.1525 48.5098 28.015 45.7798 29.3875Z" fill="white"/>
</svg>
