<svg width="64" height="64" viewBox="0 0 64 64" fill="none" xmlns="http://www.w3.org/2000/svg">
<path d="M57 32.0007C57 45.8084 45.8125 57 32.0047 57C18.197 57 7 45.8084 7 32.0007C7 18.1916 18.1929 7 32.0007 7C45.8084 7 57 18.1916 57 32.0007Z" fill="#8D8D8E"/>
<path d="M55.3202 32.0006C55.3202 44.88 44.884 55.323 32.0033 55.323C19.1225 55.323 8.67822 44.88 8.67822 32.0006C8.67822 19.1212 19.1185 8.67828 31.9992 8.67828C44.8813 8.67828 55.3202 19.1199 55.3202 32.0006Z" fill="#002D62"/>
<path d="M34.2573 14.9539L32.0006 9.27026L29.6087 14.9539C21.1941 16.0903 14.7024 23.2969 14.7024 32.0251C14.7024 41.541 22.4846 49.2557 32.0006 49.2557C41.5165 49.2557 49.1623 41.541 49.1623 32.0251C49.1623 23.2969 42.6733 16.0903 34.2573 14.9539Z" fill="white"/>
<path d="M21.4752 28.7859L22.9048 32.2237L29.4209 29.1156L29.7722 25.1239L30.256 22.8888L26.9737 20.7361L28.2952 28.5603L24.8007 25.0752L24.7048 27.8251L19.5928 25.8968L21.4887 30.917V30.4764L21.4752 28.7859Z" fill="#7A2F3E"/>
<path d="M29.0925 36.4114L24.4575 36.1019L26.3318 37.737L25.2291 39.11L27.6209 39.4978L29.0925 37.383V36.4114Z" fill="#7A2F3E"/>
<path d="M32.002 44.6599L30.5615 41.3924L30.5344 41.4613L32.002 48.5881L33.487 41.4086L33.4816 41.3937L32.002 44.6599Z" fill="#7A2F3E"/>
<path d="M34.9521 37.3831L36.4237 39.5006L38.8439 39.11L37.7413 37.7371L39.6182 36.0993L34.9521 36.4115V37.3831Z" fill="#7A2F3E"/>
<path d="M34.6223 29.1156L41.1384 32.225L42.5289 28.7427L42.5545 30.4778V30.9994L44.4815 25.8982L39.3668 27.8278L39.2708 25.0766L35.7777 28.563C35.8669 28.0197 37.0993 20.7375 37.0993 20.7375L33.7913 22.9104L34.2723 25.1252L34.6223 29.1156Z" fill="#7A2F3E"/>
<path d="M45.3719 31.0805L42.5544 31.067V33.5372L45.3719 31.0805Z" fill="#7A2F3E"/>
<path d="M18.7012 31.0805L21.4889 33.5115V31.067L18.7012 31.0805Z" fill="#7A2F3E"/>
<path d="M42.53 28.7414L41.1395 32.2237L34.6235 29.1157L34.2722 25.1239L32.0033 14.7539L29.7736 25.1239L29.4223 29.1157L22.9063 32.2237L21.4766 28.7846L21.4901 30.4765V36.4885L22.5252 35.9723L29.0939 36.4114V37.383L26.1102 41.6735V44.2761L30.2236 42.2478L30.5628 41.3924L32.0006 44.6747L33.4816 41.3937L33.8208 42.2478L37.9356 44.2761V41.6735L34.9519 37.383V36.4114L41.5206 35.9723L42.5557 36.4885V30.4765L42.53 28.7414Z" fill="#555559"/>
<path d="M30.2197 25.186L29.8481 29.4115H29.8454L29.644 31.8034L29.217 29.7115L22.6726 32.8344L21.9402 31.0723V35.7614L22.4334 35.5168L29.5427 35.9924V37.5235L26.5603 41.8153V43.5531L29.8697 41.9207L30.3818 40.6315L30.0954 39.2045L30.5778 40.3248L32.0007 43.5544V16.5714L30.2197 25.186Z" fill="#8D8D8E"/>
<path d="M29.0873 36.4115L24.8374 36.1277L26.6333 37.6952C26.6049 37.7749 25.659 38.9452 25.659 38.9452L27.763 39.2871L29.0873 37.3831V36.4115Z" fill="#A81E2D"/>
<path d="M30.1994 23.1279L27.29 21.2172C27.29 21.2172 27.2927 21.2293 27.2954 21.2523L29.6102 26.9076L29.767 25.1238L30.1994 23.1279Z" fill="#A81E2D"/>
<path d="M28.2927 28.8832L28.2846 28.8778L25.0144 25.6144L24.9185 28.1481L20.0281 26.3076L24.8023 31.3169L28.817 29.4008L28.2927 28.8832Z" fill="#A81E2D"/>
<path d="M30.9426 42.2599L32.0048 47.6246L31.9994 44.6774L30.9426 42.2599Z" fill="#A81E2D"/>
<path d="M19.3159 31.3087L21.4834 33.2006V31.2979L19.3159 31.3087Z" fill="#A81E2D"/>
<path d="M36.7615 21.2348L33.8413 23.1618L34.1683 24.6712L36.7615 21.2348Z" fill="#A81E2D"/>
<path d="M44.0827 26.3022L39.1977 28.1508L37.7708 30.6197L38.7464 31.0859L44.0827 26.3022Z" fill="#A81E2D"/>
<path d="M51.0056 51.6367C51.0056 51.1367 50.6029 50.7313 50.1029 50.7313C49.6043 50.7313 49.1975 51.1367 49.1975 51.6367C49.1975 52.1367 49.6029 52.5421 50.1029 52.5421C50.6029 52.5421 51.0056 52.1367 51.0056 51.6367ZM49.3935 51.6367C49.3935 51.2435 49.711 50.9246 50.1029 50.9246C50.4948 50.9246 50.8123 51.2435 50.8123 51.6367C50.8123 52.0286 50.4948 52.3475 50.1029 52.3475C49.711 52.3475 49.3935 52.0286 49.3935 51.6367Z" fill="#8D8D8E"/>
<path d="M50.4758 52.1543L50.2704 51.7164C50.3893 51.6745 50.4758 51.5583 50.4758 51.4272C50.4758 51.257 50.3379 51.1191 50.1677 51.1191H49.7312V52.1543H49.9258V51.7353H50.065L50.2609 52.1543H50.4758ZM50.1663 51.5394H49.9258V51.3151H50.1663C50.2312 51.3151 50.2798 51.3651 50.2798 51.4272C50.2812 51.4908 50.2312 51.5394 50.1663 51.5394Z" fill="#8D8D8E"/>
</svg>
