<svg xmlns="http://www.w3.org/2000/svg" viewBox="0 0 177.87 273.21"><title>Cleveland Guardians logo - Brandlogos.net</title><path d="M411.28,420.05v36.53A281.68,281.68,0,0,1,382.11,465c-9.43-2.88-18.54-6-27.31-9.4,0-47.6.51-95.23,1.38-142.83,9-3.75,18.86-7.54,27.35-10.34,9.14,2.84,17.66,5.9,26.4,9.21.36,8.63.18,21.45,0,43,8.7,1.64,27.28.22,48-2.59.95-7.07,2.11-14.13,3.28-21.16,4.22-25.42,8.23-50.37,11.76-73.64-18.35-2.84-38.35-4.48-48.22-3.06l-3.79,10.16c-12-6-24.22-11.65-37.4-17a866.32,866.32,0,0,0-86.35,39.08c5.43,26.59,7.54,47.53,7.54,82.6,0,51.06-3.53,90.14-9.65,115.77a812.37,812.37,0,0,0,86.6,35.76c28.48-9.87,57-20.72,89.41-36.24-2.8-18.1-8.7-48.95-13.18-68.25a447.15,447.15,0,0,0-46.62,3.93" transform="translate(-295.07 -247.39)" style="fill:#002b5c"/><path d="M419.25,427.12V462.3a274.46,274.46,0,0,1-37.66,11c-11.87-3.64-23.6-7.61-34.85-12.24-.11-51.13.47-102.45,1.46-153.58,11.18-4.88,24.51-9.94,35-13.51,12.09,3.61,23,7.65,34.2,12,.76,8.45.66,20.5.36,41.41,8.23.22,19.78-.73,32.92-2.37,4.48-27.75,9-55.28,12.93-81-12.71-1.64-24.95-2.59-33.43-2.37l-5.1,13.8c-13.51-7-27.1-13.37-41.74-19.45-27.06,10.6-52,21.89-77.43,34.82,4.7,24.25,6.59,45.41,6.59,78.12,0,47.53-3.06,85.18-8.49,111.3A820.09,820.09,0,0,0,381.49,512c27.53-9.65,54.59-20,80.23-32.23-1.42-10.82-6.12-36.45-10.34-55.54-10.45.51-21,1.46-32.12,2.88" transform="translate(-295.07 -247.39)" style="fill:#e31937"/></svg>