<svg id="Layer_1" data-name="Layer 1" xmlns="http://www.w3.org/2000/svg" viewBox="0 0 348.38 479.1"><title>NFL logo - Brandlogos.net</title><path d="M546.73,198.86c-15,10.73-43.62,25.49-80.54,16.4C402.31,199.45,384,144.45,384,144.45s-18.31,55.15-82.18,70.81c-36.92,9.09-65.51-5.52-80.54-16.4H209.81V495.95c0,7.45,1.79,22.36,14,37.12,15,18.33,40.5,30.11,75.78,35.18,28.14,4,48.83,13,63.42,27,10.72,10.43,21,28.32,21,28.32s10.57-18.33,21-28.32c14.59-14.16,35.43-23,63.42-27,35.29-5.07,60.74-17,75.78-35.18,12.21-14.76,14-29.67,14-37.12V198.86Z" transform="translate(-209.81 -144.45)" style="fill:#fff"/><path d="M547.77,210.48s-35,27.28-84.12,14.91C406.33,211.08,384,168,384,168s-22.33,43.08-79.65,57.39c-49.13,12.37-84.12-14.91-84.12-14.91V496c0,9.69,4,50.83,80.84,62,30.37,4.32,53,14.16,69.23,29.81A99.11,99.11,0,0,1,384,604.32a93.5,93.5,0,0,1,13.7-16.55c16.23-15.65,38.86-25.49,69.23-29.81,76.82-11.18,80.84-52.32,80.84-62V210.48Z" transform="translate(-209.81 -144.45)" style="fill:#013369"/><path d="M384,575.4S406.33,548,464.1,539c66.25-10.29,64.32-41.44,64.32-42.93V346.43h-289V496c0,1.64-1.93,32.79,64.32,42.93C361.67,547.83,384,575.4,384,575.4Z" transform="translate(-209.81 -144.45)" style="fill:#fff"/><path d="M316.71,455.7V384.6l-8.93-5.07V361h40.5v18.48l-8.49,5.07v145L318,523.08l-31.41-92.72v61.12l10,7.6v18.78l-43.47-11v-16.1l10-3.88V384.45L253,379.53V361h32.9l30.82,94.66Zm74.59,65,8.64,10.43v18.48l-43.18-16.1V517.86l9.53-3.88V384.75L356.75,380V361.34h74.89v37.56H415.12l-5.06-15.35H391v43.38h14.29l5.66-8.2h11.46V457H410.95l-5.36-7.75H391v71.4h.3Zm47.64,6.56V508.77l10.72-8.8V384.6l-9.08-4.77V361.19h43.17v18.63l-8.49,4.77V492.82l18.61-5.07,3.57-28.32H515v47.4l-76.08,20.42Z" transform="translate(-209.81 -144.45)" style="fill:#d50a0a"/><path d="M247,315.73l-13.1-9.84h15.93l5.21-15.21,5.21,15.21h15.93l-13.1,9.84,4.76,15.35-13-9.09-13,9.09L247,315.73Zm56.72,0-13.1-9.84h15.93l5.21-15.21L317,305.89h15.93l-13.1,9.84,4.76,15.35-13-9.09-13,9.09,5.06-15.35ZM247,264.6l-13.1-9.84h15.93l5.21-15.21,5.21,15.21h15.93l-13.1,9.84L267.87,280l-13-9.09L242,280,247,264.6Zm56.72,0-13.1-9.84h15.93l5.21-15.21L317,254.76h15.93l-13.1,9.84L324.6,280l-13-9.09-13,9.09,5.06-15.35Zm222,66.63-13-9.09-13,9.09,4.76-15.35L491.49,306h16.08l5.21-15.21L518,306h15.93l-13.1,9.84,4.91,15.35Zm-56.58,0-13-9.09-13,9.09L448,315.88,434.92,306h15.93l5.21-15.21L461.27,306H477.2l-13.1,9.84,5.06,15.35ZM525.73,280l-13-9.09-13,9.09,4.76-15.35-13.1-9.84h16.08l5.21-15.21L518,254.76h15.93l-13.1,9.84L525.73,280Zm-56.58,0-13-9.09-13,9.09L448,264.6l-13.1-9.84h15.93l5.21-15.21,5.21,15.21H477.2l-13.1,9.84L469.16,280ZM420,223.45c1.34-.15,2.08,1.49,2.83,2.53a79.59,79.59,0,0,1,2.83,48.45c-6.55,25.49-28,48.89-74,54.86-1,.15-2.23-.15-2.38-.74a172.37,172.37,0,0,1,18.46-47.7c2.08,1.34,4.17,2.68,6.1,4.17.74-1.19,1.64-2.53,3-4.77a44.16,44.16,0,0,0-19.5-8.94s-1.34,2.83-2.38,4.92a56.81,56.81,0,0,1,6.25,1.79,161,161,0,0,0-14.29,49.79c-2.83-4.47-5.06-14.91-5.81-20.57-7.29-53.67,31.26-85,73.25-85.57,2.83-.15,3.87.45,3.87.45a86,86,0,0,0-20,11.63,52.72,52.72,0,0,0-5.21-1.79c-1.64,1-3.42,2.24-5.06,3.43a43,43,0,0,1,17.57,8.79c1.34-1.19,2.68-2.53,4.17-3.88a51.61,51.61,0,0,0-6-4C413.33,227,420,223.45,420,223.45Zm-39.6,50.68c1-1.49,2.23-3.28,3.42-5.07a44.58,44.58,0,0,0-19.95-9.54c-1.19,1.79-3.27,5.22-3.27,5.22a44.94,44.94,0,0,1,19.8,9.39ZM388,263.55c1.19-1.64,2.38-3.13,3.72-4.77a45.43,45.43,0,0,0-19.8-9.54c-1.34,1.49-2.68,3.13-3.87,4.62A44.69,44.69,0,0,1,388,263.55Zm8.49-10.14a37.37,37.37,0,0,1,4.17-4.32,45.19,45.19,0,0,0-18.46-9.24A56.65,56.65,0,0,0,377.3,244a45.39,45.39,0,0,1,19.21,9.39Z" transform="translate(-209.81 -144.45)" style="fill:#fff"/></svg>