<?xml version="1.0" encoding="UTF-8"?>
<svg xmlns="http://www.w3.org/2000/svg" version="1.1" viewBox="0 0 400 400">
  <defs>
    <style>
      .cls-1 {
        fill: #c597d7;
      }
    </style>
  </defs>
  <!-- Generator: Adobe Illustrator 28.7.1, SVG Export Plug-In . SVG Version: 1.2.0 Build 142)  -->
  <g>
    <g id="Layer_1">
      <g>
        <polygon points="52.5 42.3 200 81.9 347.5 42.3 200 358.7 52.5 42.3"/>
        <path class="cls-1" d="M200,92.2L70.6,57.5l129.4,277.5L329.4,57.5l-129.4,34.7ZM186.5,213.9l3.3-43.8h8.4l-.3,39.3h4.2l-.3-39.3h8.4l3.3,43.8h-27ZM201.5,130.6h5.7l2.5,33.4h-19.4l2.5-33.4h5.7l-.2,28.7h3.4l-.2-28.7ZM185.9,99.3l-58.3,62.1-13.2-28.4,71.5-33.7ZM111.6,127.1l-11.6-24.8,83.8-5.3-72.2,30.1ZM187.3,102.1l-40.6,100.3-16.1-34.5,56.7-65.8ZM190,103.4l-17.6,154-21.8-46.8,39.4-107.2ZM210,103.4l39.4,107.2-21.8,46.8-17.6-154ZM212.7,102.1l56.7,65.8-16.1,34.5-40.6-100.3ZM214.1,99.3l71.5,33.7-13.2,28.4-58.3-62.1ZM216.2,97l83.8,5.3-11.6,24.8-72.2-30.1ZM222.6,94.2l92.7-24.8-12.4,26.6-80.3-1.7ZM198.7,99.9l-.2,20.6h2.8l-.2-20.6.8-.2,2.7-.7,2,26.4h-13.5l2-26.4,2.7.7.8.2ZM177.4,94.2l-80.3,1.7-12.4-26.6,92.7,24.8ZM181.6,277.3l4.3-56.4h11.8l-.6,74.8,2.8,6,2.8-6-.6-74.8h11.8l4.3,56.4-18.4,39.4-18.4-39.4Z"/>
      </g>
    </g>
  </g>
</svg>