<svg width="200" height="200" viewBox="0 0 200 200" fill="none" xmlns="http://www.w3.org/2000/svg">
<circle cx="100" cy="100" r="100" fill="black"/>
<path d="M169.296 150.345C168.105 151.172 166.925 152.048 165.602 152.96C162.146 155.383 158.786 157.435 155.186 159.594C153.53 160.626 151.802 161.646 150.026 162.761C137.752 170.415 123.046 178.885 107.279 183.743C102.715 185.171 98.5083 186.202 94.4208 186.862C90.6192 187.414 87.0678 187.702 83.5285 187.702H82.8492C78.1895 187.666 73.6729 187.222 69.335 186.418C85.8285 192.309 104.145 193.58 122.39 189.022C132.83 186.418 142.423 182.1 150.896 176.449C159.036 170.043 165.614 160.938 169.833 149.949C169.654 150.081 169.487 150.213 169.296 150.345ZM85.7928 183.059C96.268 181.812 104.944 179.149 114.823 174.158C116.265 173.45 117.683 172.706 119.089 171.962C120.293 171.339 121.485 170.703 122.688 170.091C131.078 165.676 140.076 160.878 150.956 154.999C154.781 152.936 158.607 150.729 162.313 148.605L166.663 146.17C168.343 145.258 169.916 144.406 171.513 143.435C171.656 143.339 171.847 143.219 172.037 143.099C173.432 137.976 174.337 132.41 174.755 126.531C164.065 131.918 148 136.644 124.44 141.407C94.2659 147.441 64.747 144.742 38.3862 133.549C20.6772 126.039 12.3114 115.638 8.7958 109.904C9.24867 113.983 9.95177 118.062 10.9767 122.153C16.7923 145.282 30.8903 164.177 49.3619 176.413L49.2785 176.257L51.8765 177.793C53.9739 179.053 56.5837 180.144 59.6464 181.032C65.4025 182.759 71.0631 183.611 76.9979 183.611C79.7865 183.611 82.6943 183.419 85.7928 183.059ZM179.831 144.13C179.76 143.758 179.676 143.746 179.486 143.746C179.2 143.746 178.568 143.879 177.281 144.706C177.054 144.886 176.804 145.042 176.542 145.222C176.328 145.366 176.101 145.51 175.911 145.654C173.622 151.76 170.583 157.531 167.104 162.677C172.157 157.279 176.518 151.28 180.105 144.862H179.986L179.831 144.13ZM183.347 121.205C183.025 121.433 182.727 121.661 182.405 121.901C181.905 122.273 181.392 122.656 180.844 123.028C180.415 128.895 179.331 134.701 177.686 140.315C180.57 139.296 181.559 140.471 181.857 141.143C181.881 141.239 181.905 141.347 181.929 141.443C186.684 132.05 189.818 121.841 191.117 111.212C189.651 114.763 187.268 118.458 183.347 121.205ZM181.13 116.178C181.357 116.01 181.583 115.843 181.786 115.698C189.508 110.3 191.498 101.531 191.772 100.091C191.772 92.7369 190.878 85.2751 188.984 77.8252C188.912 77.5253 188.841 77.2373 188.745 76.9374C188.042 83.7755 184.693 90.1097 178.783 95.7721C180.356 102.598 181.13 109.448 181.13 116.178ZM43.6179 127.359C65.3786 134.581 77.4626 136.896 93.3483 136.896C99.1281 136.896 105.706 136.549 114.084 135.853C137.287 133.837 161.753 126.124 174.897 119.705C174.874 113.275 174.29 106.761 173.158 100.283C169.261 102.658 164.851 103.774 159.417 103.774C153.959 103.774 147.357 102.73 136.643 100.139C123.987 97.1157 105.873 86.2588 89.9042 76.6976C81.1451 71.431 72.8746 66.4644 66.0222 63.0693C39.9474 50.089 25.1462 51.9125 21.2016 52.7642C11.8942 68.3478 7.21087 86.6786 8.41444 105.561C10.1663 108.081 19.0924 119.225 43.6179 127.359ZM56.9174 52.2484C65.7838 55.9794 77.4149 62.2536 89.7015 68.9117C109.091 79.3967 129.147 90.2536 142.721 93.6487C154.817 96.6598 164.744 96.3958 171.716 92.869C171.692 92.7369 171.668 92.593 171.632 92.473C171.549 91.9572 171.453 91.4773 171.299 90.9734C165.411 66.0924 134.474 11.6159 80.8947 11.6159C78.6424 11.6159 76.3305 11.7359 74.0424 11.9398C53.3303 17.9862 36.2768 30.7865 24.7291 47.3538C26.6836 46.73 29.2457 46.1662 32.7256 46.1662C39.2681 46.1662 47.4076 48.2056 56.9174 52.2484ZM177.007 88.958C178.413 87.4945 179.509 85.8869 180.356 84.2074C186.827 71.6829 181.023 57.6469 178.592 52.7644C160.573 22.8448 126.561 5.22172 91.0959 8.65272C127.813 10.6442 163.385 43.7189 177.007 88.958Z" fill="#FEFEFE"/>
<path d="M136.326 118.76C136.326 112.03 136.326 102.025 128.413 94.2626C129.297 92.7075 130.016 91.0629 130.558 89.3561C131.881 85.3492 131.988 80.9585 131.916 78.1033L131.881 59.5806V59.2926C131.666 52.4066 130.629 45.1246 125.04 38.8024C120.023 33.116 112.48 30.1289 103.208 30.1289L78.2295 30.1888C75.5124 30.1888 72.8072 31.2566 70.817 33.26C68.8985 35.2154 67.7544 37.8787 67.7544 40.6979L67.9927 162.343C67.9927 165.954 69.8279 169.313 72.9025 171.173C74.5948 172.205 76.5254 172.781 78.5633 172.781L103.959 172.732C113.135 172.708 120.81 170.081 126.804 164.887L126.887 164.839C135.265 157.269 136.159 148.355 136.374 139.826V139.73L136.326 118.76Z" fill="#FEFEFE"/>
<path d="M102.675 88.7035C100.53 89.3152 99.4933 89.4952 94.8336 89.6632L90.1979 89.6752C89.3995 89.6991 89.1849 89.3152 89.1849 88.7035C89.1849 88.3316 89.1372 49.6065 89.1372 49.6065C89.1372 48.9827 89.3517 48.6108 90.0072 48.5389H97.7653C101.197 48.6468 105.011 48.7548 107.466 50.2783C108.61 50.9741 109.289 51.8139 109.706 52.9296C110.04 54.0932 110.374 56.1086 110.564 59.5517L110.612 74.6914C110.564 74.9433 110.564 75.3392 110.564 75.8431C110.445 79.754 110.374 86.3881 102.675 88.7035ZM111.446 151.866C109.575 153.197 107.311 153.977 101.495 154.193C101.495 154.193 91.5208 154.217 90.7462 154.217C89.8523 154.217 89.4948 153.665 89.4948 152.801C89.4948 145.399 89.3993 104.611 89.3993 104.263C89.3993 103.879 89.4948 103.363 90.2694 103.363C91.0202 103.363 95.2865 103.315 95.2865 103.315C100.578 103.579 106.107 103.987 109.706 106.278C111.78 107.55 113.186 109.326 114.08 111.713C114.878 114.16 115.033 116.859 115.033 119.379L115.069 137.374C115.069 145.579 114.557 149.442 111.446 151.866ZM129.846 119.595C129.846 112.781 129.846 104.467 122.815 98.6006C121.349 97.365 119.586 96.2973 117.5 95.4456C120.754 93.2381 122.982 90.203 124.21 86.3881C125.342 82.9691 125.282 78.7463 125.246 77.0907L125.199 57.7762C125.008 52.4257 124.436 46.3314 120.134 41.3888C116.332 37.142 110.564 34.9587 103.247 34.9826L77.2082 35.0546C76.4336 35.0546 75.7065 35.3546 75.1108 35.9424C74.5268 36.4942 74.2646 37.238 74.2646 38.0058L74.4911 164.942C74.4911 165.95 75.0034 166.957 75.8854 167.473C76.3844 167.779 76.9575 167.941 77.5418 167.941L104.046 167.869C106.846 167.869 115.486 167.845 122.684 161.667C129.06 155.86 129.703 149.01 129.894 141.308L129.846 119.595V119.595Z" fill="black"/>
</svg>
