<svg width="200" height="200" viewBox="0 0 200 200" fill="none" xmlns="http://www.w3.org/2000/svg">
<g clip-path="url(#clip0_18_256)">
<circle cx="100" cy="100" r="100" fill="white"/>
<path d="M28.0334 68.0857L19.0759 65.0449L17.7868 68.844L19.3384 69.3682L17.3643 70.079L15.3351 76.0415L18.4859 80.7474L45.0618 89.7774L49.8484 88.0032L52.5801 79.9715L49.4693 75.4699L44.7743 73.8674L43.3859 77.9507L48.4526 79.6732L46.5326 85.3157L19.5934 76.154L21.5926 70.264L26.6993 72.0015L28.0334 68.0857ZM161.047 51.0941L167.538 44.2174L164.62 41.4599L163.494 42.6515L163.676 40.5682L159.09 36.2407L153.499 37.1516L134.234 57.5574L133.858 62.6457L140.029 68.474L145.42 67.5165L148.826 63.9107L145.693 60.9532L142.018 64.8465L137.683 60.7557L157.218 40.0624L161.743 44.3316L158.038 48.2582L161.047 51.0941ZM46.8393 42.8507L39.7293 36.6399L29.1693 48.7365L32.2184 51.3957L33.9084 49.4582L55.3451 68.1765L53.6551 70.1107L56.6668 72.7415L67.2259 60.6482L60.2143 54.5249L57.6351 57.4757L61.6343 60.9649L58.2901 64.8007L48.9109 56.6157L51.9418 53.1515L48.8926 50.489L45.8659 53.9565L36.8543 46.089L40.0559 42.4174L44.1209 45.9649L46.8393 42.8507ZM87.7668 50.9407L84.1459 42.3624L80.3359 43.969L82.4009 48.8574L78.2343 50.6199L67.1718 24.4015L69.3784 23.469L67.8051 19.739L59.3876 23.294L60.9576 27.0207L63.1618 26.0924L74.2234 52.3107L72.0201 53.2399L73.5751 56.9257L87.7668 50.9407ZM111.436 23.159V13.7174H91.6793V23.159H95.9409V17.7649H99.3793V46.2199H96.7276V50.2232H106.252V46.2199H103.812V17.7649H107.341V23.159H111.436ZM136.015 25.574L137.465 21.7932L128.854 18.4932L127.401 22.2707L129.838 23.2074L119.657 49.779L117.219 48.8432L115.792 52.5799L124.358 55.8657L125.794 52.1282L123.678 51.3199L133.863 24.7474L136.015 25.574ZM155.203 88.914L168.047 83.5265L169.89 80.5399L166.492 72.4349L177.256 67.9182L179.747 73.8557L174.771 75.9424L176.436 79.9132L185.152 76.2674L183.528 72.4024L182.031 73.0324L183.018 71.1857L180.552 65.3065L175.42 63.8749L163.422 68.9049L161.842 71.8807L165.203 79.9049L153.488 84.8182L150.983 78.8374L155.874 76.7865L154.195 72.7724L145.664 76.349L147.35 80.3632L148.848 79.7332L147.813 81.489L150.333 87.6524L155.203 88.914ZM154.948 113.282C151.604 108.623 145.7 105.848 140.546 105.21C135.392 104.572 131.68 105.199 127.269 106.522C121.633 107.828 117.427 109.851 111.562 112.102C114.603 108.743 118.312 104.792 120.938 100.172C124.592 93.6957 126.697 89.1857 127.006 82.3565C127.308 75.6324 123.655 67.8082 117.962 63.8449C113.5 60.7999 107.187 60.5232 102.254 63.7324C100.211 65.0507 98.7434 66.3657 97.7709 67.3715C93.4834 64.3515 89.2693 62.669 83.9584 63.529C79.1759 63.9774 75.7226 68.2315 73.6393 72.0557C66.7734 86.0574 78.4801 100.067 87.1459 110.113C71.6684 105.502 67.8476 105.407 63.8518 105.068C59.8593 104.726 53.4776 105.181 48.8951 107.793C44.3168 110.397 40.2693 114.751 39.8759 122.567C39.5918 128.272 42.7176 133.819 48.4651 137.112C45.2709 144.783 47.4234 152.597 55.4259 156.064C64.5909 160.041 72.4876 157.473 78.7418 152.881C84.9918 148.28 90.3543 142.43 95.0343 136.205C93.5843 170.157 114.733 180.614 114.733 180.614L117.089 172.203C113.086 169.337 102.439 159.506 103.419 136.565L105.277 138.408C110.763 144.087 115.764 148.764 122.353 154.177C128.938 159.589 141.528 161.454 148.828 152.599C152.149 148.567 153.184 140.473 151.133 137.093L151.198 136.303C154.364 134.267 157.03 131.834 158.148 128.071C159.895 122.982 157.593 117.272 154.948 113.282ZM0.0367539 97.3174C1.51592 42.1115 47.4734 -1.44179 102.679 0.0365479C157.885 1.51905 201.442 47.4732 199.963 102.683C198.481 157.889 152.523 201.447 97.3176 199.963C42.1043 198.482 -1.44575 152.523 0.0367539 97.3174Z" fill="#00853F"/>
</g>
<defs>
<clipPath id="clip0_18_256">
<rect width="200" height="200" fill="white"/>
</clipPath>
</defs>
</svg>
