<svg width="200" height="200" viewBox="0 0 200 200" fill="none" xmlns="http://www.w3.org/2000/svg">
<g clip-path="url(#clip0_3_1074)">
<path d="M100.027 0C126.672 0 151.759 10.4083 170.685 29.3382C189.577 48.2268 200 73.3546 200 99.9773C200 155.144 155.173 200 100.027 200C73.3176 200 48.2 189.612 29.2846 170.674C10.4351 151.777 0 126.668 0 99.9773C0 73.3546 10.4351 48.2268 29.2846 29.3381C48.2 10.4083 73.3175 0 100.027 0" fill="#FFC627"/>
<path fill-rule="evenodd" clip-rule="evenodd" d="M100.026 3.77363C74.3221 3.77363 50.1585 13.7862 31.9535 32.0051C13.8113 50.1854 3.77363 74.3602 3.77363 99.9777C3.77363 125.662 13.8115 149.819 31.9538 168.007C50.158 186.233 74.3212 196.226 100.026 196.226C153.089 196.226 196.226 153.063 196.226 99.9778C196.226 74.3594 186.2 50.1853 168.017 32.0058L168.017 32.0055C149.8 13.7853 125.666 3.77363 100.026 3.77363V0C126.671 0 151.764 10.412 170.685 29.3371C189.574 48.2221 200 73.3554 200 99.9778C200 155.145 155.175 200 100.026 200C73.3209 200 48.1968 189.61 29.2839 170.674L29.283 170.673C10.4381 151.781 0 126.667 0 99.9777C0 73.355 10.4383 48.2228 29.2833 29.3386L29.2842 29.3377C48.1963 10.4112 73.3199 0 100.026 0V3.77363Z" fill="white"/>
<path d="M100.041 192C150.752 192 192.002 150.748 192.002 99.9732C192.002 49.2907 150.752 8 100.041 8C49.2696 8 7.99951 49.2907 7.99951 99.9732C7.99951 150.748 49.2696 192 100.041 192" fill="#8B2332"/>
<path d="M15.001 99.9772C15.001 53.1319 53.1453 15.002 100.032 15.002C146.908 15.002 185.001 53.1319 185.001 99.9772C185.001 146.86 146.908 185 100.032 185C53.1453 185 15.001 146.86 15.001 99.9772" fill="#0D2240"/>
<path d="M167.075 64.3288L168.974 63.267L162.855 53.7742L161.141 55.0113C150.731 41.8793 132.253 27.236 114.665 25.0195C127.906 31.0649 142.803 46.5061 151.9 58.4092L142.343 65.3556L143.492 67.1205L100.321 95.168L57.1495 67.1205L58.3062 65.3556L48.6939 58.4092C57.8506 46.5061 72.7103 31.0649 85.9681 25.0195C68.4011 27.234 49.9063 41.8443 39.5805 54.9639L37.7887 53.6731L31.6671 63.1453L33.5763 64.2505L33.5268 64.3288C25.9248 79.2608 20.3392 102.343 25.7805 119.23C25.6382 104.64 33.4774 84.5721 40.5186 71.2133L50.83 77.0236L51.8959 75.3948L91.9866 100.595L39.1062 134.956L39.0258 134.85L31.9372 136.762L32.0135 136.937C31.6671 138.255 32.3165 140.696 33.8238 143.026C35.3269 145.422 37.2258 146.999 38.6485 147.261L38.7702 147.457L43.4774 141.768L43.4361 141.663L148.766 75.3948L149.795 77.0236L160.135 71.2133C167.166 84.5721 175.015 104.64 174.925 119.23C180.362 102.343 174.708 79.2608 167.075 64.3288Z" fill="#FFC627"/>
<path d="M161.639 134.85L161.559 134.955L112.899 103.347L104.377 108.392L157.216 141.662L157.158 141.765L161.853 147.456L161.996 147.26C163.416 146.998 165.317 145.421 166.822 143.025C168.284 140.693 168.977 138.252 168.631 136.936L168.717 136.761L161.639 134.85L161.639 134.85ZM108.667 33.5298L105.009 38.3092L99.9453 26.2227V82.0453L116.951 60.2783L134.061 64.6887L108.667 33.5298Z" fill="#FFC627"/>
<path d="M108.667 46.6167V33.5301L105.009 38.3115L108.667 46.6167ZM99.9453 26.2227L69.0835 63.8433L82.7041 60.3794L99.9453 82.0474V26.2227Z" fill="white"/>
<path d="M81.8302 167.005C86.1972 162.807 91.7601 160.244 97.7601 159.68V151.312H74.7065C75.255 157.405 77.8137 162.865 81.8302 167.005V167.005ZM97.7614 174.76V164.863C93.2851 165.409 89.1428 167.289 85.7366 170.378C89.281 172.741 93.3655 174.287 97.7614 174.76Z" fill="#FFC627"/>
<path d="M102.88 123.496V133.364C107.346 132.824 111.519 130.97 114.856 127.886C111.361 125.504 107.301 123.946 102.88 123.496V123.496ZM118.791 131.26C114.416 135.407 108.87 138.021 102.882 138.551V146.161H125.894C125.195 140.394 122.608 135.19 118.791 131.26H118.791ZM97.7619 133.362V123.497C93.366 123.946 89.2815 125.503 85.7949 127.888C89.1433 130.971 93.2856 132.822 97.7619 133.362Z" fill="white"/>
<path d="M102.88 151.314V159.681C108.868 160.244 114.455 162.807 118.789 167.007C122.816 162.867 125.468 157.405 125.946 151.314H102.88Z" fill="#FFC627"/>
<path d="M74.7603 146.163H97.7623V138.553C91.7603 138.023 86.2386 135.404 81.8304 131.26C78.0242 135.19 75.4365 140.394 74.7603 146.163Z" fill="white"/>
<path d="M102.88 174.76C107.301 174.288 111.36 172.742 114.855 170.379C111.519 167.29 107.346 165.41 102.88 164.863V174.76Z" fill="#FFC627"/>
</g>
<defs>
<clipPath id="clip0_3_1074">
<rect width="200" height="200" fill="white"/>
</clipPath>
</defs>
</svg>
