<svg width="200" height="200" viewBox="0 0 200 200" fill="none" xmlns="http://www.w3.org/2000/svg">
<path d="M45.0907 106.581C49.4821 104.196 61.2597 102.346 72.1233 100.708C72.0957 104.832 72.0314 109.242 71.912 114.063C52.7205 111.955 45.7568 108.232 45.0908 106.581H45.0907ZM91.6823 43.3768C103.106 44.9222 109.643 47.9576 110.185 52.0125C110.745 56.2011 109.767 59.6379 107.341 62.3504C103.419 65.9301 97.4517 67.8076 92.3943 68.7856C92.4495 59.052 92.2198 50.85 91.6823 43.3768ZM92.0085 88.7233C92.1096 84.8576 92.2152 80.8719 92.2887 76.8031C101.627 78.1825 107.057 80.7704 106.965 83.9073L106.671 115.392C101.756 115.516 96.5744 115.493 91.7007 115.359L91.7696 113.237C91.5583 106.115 91.7788 97.6681 92.0085 88.7233ZM126.597 114.211L126.753 100.851C148.017 103.753 153.382 106.045 154.048 107.323C154.048 107.323 154.03 107.42 153.896 107.632C150.061 110.428 140.006 112.841 126.597 114.211ZM174.333 108.223C174.245 106.373 173.336 104.643 171.627 103.075C165.219 97.2114 147.006 93.7378 126.832 94.319L127.006 79.4557C127.002 76.3695 125.991 73.8185 124.011 71.8717C122.619 70.5063 120.796 69.4822 118.554 68.804C120.653 67.5447 122.711 65.9901 124.457 64.0849C129.395 59.4903 131.664 53.7008 131.209 46.8827C130.915 42.5603 129.041 38.8975 125.633 36.0005C118.889 30.2525 106.643 28.006 90.1803 29.4776C88.9308 20.7819 87.1761 13.2442 84.8289 6.48137L82.578 0L81.8018 2.40803L81.3792 1.18556L79.2753 7.72693C76.3539 16.8377 74.4109 24.5416 73.2165 31.8164C59.6888 34.2613 50.41 37.2875 50.0058 37.4167L30.7132 43.7505L34.0848 43.4413L29.5602 44.9268L49.7347 43.0954C49.845 43.0815 60.07 42.265 71.9625 42.2143C71.2965 50.8822 71.5078 59.6148 71.7742 70.4279C71.9396 77.3152 72.1279 85.0513 72.1417 94.3559C53.9194 94.116 33.8551 96.8654 27.9755 103.771C25.4307 105.939 24.953 108.131 25.0035 109.602C25.4031 121.056 58.9354 125.337 72.2197 126.583L73.3222 161.951L77.9065 162.053L77.9984 160.83L78.3107 160.84L78.5358 169.821L83.1247 169.937L83.2165 168.714L83.7356 168.728L83.9653 177.248L88.5588 177.262L88.6001 176.067H89.7439L91.3056 127.681C96.3768 127.819 101.655 127.815 106.721 127.662L108.311 178.203L112.9 178.249L112.959 177.045L113.529 189.122L118.118 189.136L118.173 187.937L118.628 187.941L118.949 200L123.543 199.991L123.57 198.796H124.737L126.418 126.486C150.024 124.235 166.804 119.446 171.209 113.883C173.281 112.13 174.333 110.262 174.333 108.329V108.223H174.333Z" fill="#FEFEFE"/>
<path d="M170.848 109.521C170.848 117.939 138.166 125.477 98.7217 125.477C59.2729 125.477 27.5918 117.935 27.2978 109.521C27.0313 101.932 49.3694 96.9591 74.9734 97.9417C58.3404 100.451 41.5467 102.822 41.5467 107.339C41.5467 114.157 66.7649 118.968 98.7216 118.968C130.669 118.968 156.342 114.157 156.342 107.339C156.342 102.938 140.936 100.317 122.415 97.9463C148.336 96.5624 170.518 102.2 170.848 109.521" fill="#2D2925"/>
<path d="M85.3171 142.374L86.2634 177.188L88.2845 114.501C87.4715 86.9567 93.0433 41.7485 81.4632 8.4375C69.1711 46.7306 75.7857 55.3479 74.1687 115.521L75.6157 161.882L77.5404 136.524C77.6047 133.378 79.9887 133.669 79.9887 136.367L80.8339 169.761L82.8826 142.586C82.8504 138.923 85.4136 139.089 85.3171 142.374Z" fill="#2D2925"/>
<path d="M123.005 124.546L121.245 199.938L120.06 155.542C119.996 152.391 117.373 152.248 117.267 155.542L115.825 189.037L114.406 150.26C114.41 147.141 112.035 146.961 112.012 150.481L110.602 178.132L108.889 123.527L109.261 83.9282C109.573 73.3412 78.5719 73.4749 78.5719 73.4749C78.5719 73.4749 115.485 74.2454 112.462 51.7058C110.262 35.2741 49.5273 40.8005 49.5273 40.8005C49.5273 40.8005 66.6978 35.1587 88.2319 33.0598C112.371 30.7118 126.932 36.538 127.722 48.2276C129.114 68.9126 102.44 71.925 102.44 71.925C102.44 71.925 123.487 67.8239 123.524 80.6529L123.005 124.546Z" fill="#2D2925"/>
<path d="M172.037 108.33C172.037 116.749 139.359 124.291 99.9146 124.291C60.4613 124.291 28.7801 116.744 28.4907 108.33C28.2197 100.746 50.5624 95.7638 76.1618 96.751C59.5288 99.2652 42.7351 101.636 42.7351 106.148C42.7351 112.971 67.9578 117.787 99.9146 117.787C131.862 117.787 157.531 112.971 157.531 106.148C157.531 101.752 142.129 99.1314 123.603 96.751C149.519 95.3671 171.701 101.004 172.037 108.33Z" fill="#C21F32"/>
<path d="M86.5085 141.178L87.4502 175.993L89.4713 113.306C88.6583 85.7568 94.2301 40.5532 82.6592 7.24219C70.3579 45.5354 76.9725 54.1526 75.3602 114.321L76.8071 160.682L78.7318 135.324C78.7915 132.183 81.1755 132.469 81.1755 135.177L82.0299 168.566L84.074 141.39C84.0418 137.723 86.5958 137.894 86.5085 141.178Z" fill="#C21F32"/>
<path d="M124.193 123.353L122.439 198.744L121.249 154.348C121.189 151.197 118.566 151.05 118.456 154.348L117.014 187.839L115.594 149.066C115.599 145.948 113.224 145.763 113.206 149.287L111.791 176.938L110.078 122.333L110.45 82.7346C110.762 72.143 79.7652 72.2906 79.7652 72.2906C79.7652 72.2906 116.674 73.0563 113.651 50.5122C111.446 34.0805 50.7207 39.6116 50.7207 39.6116C50.7207 39.6116 67.8911 33.9605 89.4207 31.8662C113.564 29.5135 128.125 35.3398 128.915 47.0386C130.303 67.719 103.633 70.736 103.633 70.736C103.633 70.736 124.676 66.6257 124.712 79.4593L124.193 123.353Z" fill="#C21F32"/>
</svg>
