<svg width="200" height="200" viewBox="0 0 200 200" fill="none" xmlns="http://www.w3.org/2000/svg">
<mask id="mask0_2_866" style="mask-type:alpha" maskUnits="userSpaceOnUse" x="0" y="7" width="200" height="186">
<path d="M200 7H0V192.79H200V7Z" fill="white"/>
</mask>
<g mask="url(#mask0_2_866)">
<path d="M184.16 32.9171C170.348 16.2401 150.535 7.03653 128.36 6.99805L40.8291 7.00439L0 192.745L79.0328 192.79L89.4386 149.399L122.219 149.406H122.974C147.897 149.406 168.414 140.792 182.246 124.55C207.841 96.6509 203.32 56.0546 184.16 32.9171" fill="#FEFEFE"/>
</g>
<path d="M181.697 34.9641C168.538 19.0755 149.59 10.2371 128.355 10.2051L43.3994 10.2115L3.98535 189.537L76.5058 189.588L86.9116 146.191C96.6514 146.191 122.266 146.197 122.234 146.197C146.535 146.37 166.463 138.141 179.885 122.38C204.257 95.8201 199.973 57.0376 181.697 34.9641" fill="#BEC0C2"/>
<path d="M83.2015 141.464L72.7957 184.854L9.84863 184.88L47.2006 14.9316L128.34 14.9894C148.543 15.0214 165.852 23.2253 178.064 37.9794C196.064 59.7133 197.819 95.8423 176.29 119.32C163.086 134.817 143.728 141.624 122.276 141.47L83.2015 141.464Z" fill="#002D62"/>
<path d="M38.8357 52.6853L74.4011 52.7173C78.4866 52.7173 82.8346 56.1463 80.9456 61.3443C79.7866 64.5553 78.8901 68.2791 78.4802 71.7722C78.1536 74.5025 81.2017 76.2266 82.9435 76.2266L155.432 76.2779C156.796 76.2779 157.513 75.8933 157.513 75.2396C157.513 74.5922 157.449 72.1887 157.193 70.5031C156.937 68.8944 156.674 68.6188 155.374 68.6188C146.339 68.606 142.657 64.581 133.186 58.4665C123.715 52.352 109.826 48.8397 97.8894 48.827L39.7002 48.7949L38.8357 52.6853ZM82.7463 99.6698C81.4912 96.9843 80.3321 93.7861 79.6214 90.8442C78.7248 87.0756 75.5422 84.0119 70.0992 84.0119L31.9468 83.9863L32.8945 79.7049L156.528 79.7882C157.764 79.7882 157.502 80.3074 157.437 81.6725C157.367 83.0377 157.053 85.5694 156.855 87.0628C156.656 88.5497 155.427 88.1972 154.249 88.2228C151.469 88.2869 146.295 88.9471 143.279 91.2095C138.156 95.0615 127.232 101.83 121.091 103.797C114.502 105.9 89.8799 113.437 82.6694 99.548" fill="#FDBB30"/>
<path d="M25.1113 115.159L89.6721 115.204C92.5217 115.204 94.9743 115.883 96.8761 117.466C102.332 121.972 109.408 125.241 116.913 127.413C120.281 128.387 126.076 127.131 131.257 124.196C144.179 116.883 152.491 102.968 155.225 94.0081C155.936 91.6687 154.572 91.861 152.766 91.9892C147.317 92.3801 141.592 97.3089 134.068 102.116C126.531 106.91 111.214 111.454 96.6776 111.435L25.9374 111.39L25.1113 115.159ZM119.819 28.6201C120.728 28.4598 123.994 28.2611 125.813 28.9726C138.075 33.8051 149.679 46.5917 154.533 60.1729C155.468 62.7815 155.698 64.4543 154.533 64.5889C148.91 65.2106 146.285 62.4354 139.676 57.9489C133.061 53.4688 126.965 50.4052 118.589 47.7389C110.335 45.1111 95.2996 44.733 93.3529 44.6689C91.4126 44.6048 91.6559 43.7908 92.5076 42.9448C99.7116 35.7471 109.394 30.5236 119.819 28.6201H119.819ZM178.659 75.1873C178.698 75.7064 178.141 76.2961 177.487 76.2961C177.43 76.2961 163.348 76.2833 163.348 76.2833C161.536 76.2833 161.504 75.4372 161.44 74.3989C161.37 73.3607 161.081 71.284 161.017 70.0471C160.953 68.8485 160.518 67.4769 162.119 66.8039C166.057 65.1375 169.778 61.2855 171.474 57.9784C172.044 56.8631 172.896 55.0173 173.863 56.5811C177.212 61.9393 178.262 68.5472 178.659 75.1873V75.1873ZM173.597 100.62C173.354 101.101 172.451 101.453 172.156 100.678C170.095 95.1528 165.189 91.3521 161.815 89.4678C160.797 88.8973 160.707 88.2308 160.835 87.2245C160.976 86.2183 161.398 83.0008 161.463 81.6421C161.514 80.5653 161.949 79.7898 162.756 79.7898L177.491 79.7962C178.016 79.8026 178.669 80.2704 178.669 80.6615C178.669 87.6924 176.53 94.64 173.597 100.62" fill="#FDBB30"/>
<path d="M135.275 128.296C134.238 128.443 131.971 128.084 135.544 126.014C146.251 119.784 155.792 105.165 158.341 96.7687C159.308 93.5641 159.41 93.3975 160.64 93.7499C162.279 94.2178 164.86 96.4483 166.832 99.1786C168.817 101.903 169.669 107.216 168.529 108.741C160.832 119.079 148.601 126.341 135.275 128.296ZM162.516 62.1247C160.025 63.4642 159.538 63.2143 159.007 61.3427C154.358 45.0055 140.635 32.9112 135.026 29.3348C133.956 28.6618 134.231 28.2068 135.006 28.3094C148.435 30.0975 161.594 37.4297 168.222 47.4667C172 53.2222 164.917 60.8236 162.516 62.1247" fill="#FDBB30"/>
</svg>
