<svg width="200" height="200" viewBox="0 0 200 200" fill="none" xmlns="http://www.w3.org/2000/svg">
<path d="M34.7949 81.3176C34.7444 81.2895 34.6883 81.2614 34.6322 81.2333C31.1976 79.3438 30.2155 77.8762 30.1426 77.5949C30.4063 74.5583 46.7205 66.3256 81.7789 64.1494C79.7305 66.9611 78.0189 70.5882 77.3847 75.1825L77.0031 77.9492C76.7954 79.3775 76.526 81.0308 75.9424 82.566C75.0052 85.0178 72.3002 87.5821 68.0968 90.0058C53.3988 88.0882 41.5967 85.0066 34.7949 81.3176ZM148.422 71.2574C149.443 70.8862 150.145 69.964 150.251 68.9124C159.988 71.3192 167.138 74.3559 169.793 77.2857C170.253 77.7974 170.371 78.0954 170.393 78.101C170.275 78.5116 169.186 80.0299 165.595 81.9137C160.145 84.7873 151.772 87.211 141.379 88.9767C143.057 86.8848 144.224 84.0562 144.353 80.0749C144.46 76.4815 144.707 75.3849 144.836 75.0813C145.588 73.5855 147.429 71.6173 148.422 71.2574ZM190.377 63.6658C183.514 56.0798 169.282 49.7197 150.072 45.6146C150.375 45.3953 150.734 45.1423 151.155 44.8498C152.474 43.9389 154.112 42.7973 155.751 41.2396C162.446 34.8683 158.136 25.7696 154.533 21.4058L150.347 16.2885C149.544 15.3101 148.186 14.9839 147.036 15.5012C145.88 16.0186 145.212 17.2445 145.403 18.4985L146.407 25.0442C146.716 27.0574 146.643 27.9515 144.634 29.6442C144.522 28.0077 144.28 26.2532 143.814 24.33C142.619 19.3702 140.094 17.1827 139.813 16.9465C138.999 16.2941 137.905 16.1199 136.945 16.5303C136.614 16.6653 136.317 16.8677 136.064 17.1095L135.963 16.5303C135.127 11.6605 136.272 8.96126 136.277 8.80375C136.558 8.63507 136.811 8.4214 137.013 8.16834C137.978 6.98741 139.897 5.04169 139.908 5.02482C140.554 4.36128 140.84 3.42781 140.666 2.52803C140.492 1.62264 139.892 0.857892 139.05 0.481101C138.505 0.244955 136.872 -0.266777 133.427 0.171829C126.933 1.07156 120.474 4.86741 120.682 11.3175C120.766 14.0898 121.636 16.6484 122.343 18.7235C122.629 19.5782 123.033 20.7704 123.168 21.4958C122.809 21.6532 122.163 21.8726 121.074 22.0694C111.029 23.897 103.279 28.705 99.2436 35.5937C98.2896 37.2245 97.5544 38.9509 97.0437 40.7503C74.7078 40.9922 53.4886 43.9051 37.0622 48.9999C17.0441 55.2025 5.98272 64.0032 5.06234 74.429C4.57408 79.878 6.72911 87.8633 19.5975 95.2581C19.8276 95.4999 20.097 95.7023 20.4113 95.8485L25.6641 98.3622C25.8044 98.4353 25.956 98.4915 26.1075 98.5309C30.1201 100.302 34.6153 101.911 39.5371 103.345C38.7851 103.929 38.0667 104.52 37.3821 105.127C24.9963 115.322 17.8915 130.388 17.8915 146.459C17.8915 160.765 23.4473 174.216 33.5378 184.322C43.6283 194.433 57.0466 200 71.3181 200C96.5611 200 118.571 182.05 123.566 157.633C127.82 144.89 127.326 131.372 127.141 126.294C126.804 116.813 131.131 111.386 134.128 108.777C150.089 106.69 163.995 103.17 174.428 98.5703C174.58 98.5309 174.731 98.4747 174.871 98.4016L176.521 97.6143C176.544 97.6031 176.566 97.5974 176.589 97.5862L180.237 95.8429C180.534 95.7023 180.798 95.4943 181.017 95.2581C189.884 90.1127 194.873 83.8763 195.468 77.1901C195.889 72.4214 194.177 67.8721 190.378 63.6658" fill="#FEFEFE"/>
<path d="M27.3467 77.3493C27.9135 70.8768 51.1923 62.3292 88.8154 60.9965C85.3247 63.6169 81.183 68.2001 80.1617 75.5723L79.78 78.3616C79.5275 80.0823 79.2244 81.8368 78.5622 83.5744C77.1143 87.3815 73.0287 90.5194 68.657 92.9149C53.51 91.0029 40.8493 87.8089 33.4582 83.7938H33.447C29.4007 81.595 27.1783 79.25 27.3467 77.3494V77.3493ZM171.874 75.4036C173.31 76.9894 173.215 78.0129 173.187 78.356C173.03 80.1835 170.74 82.3879 166.913 84.4067H166.901C158.854 88.6468 145.026 91.8521 128.56 93.5391C129.278 93.0724 130.07 92.6619 130.923 92.3133L131.192 92.2064C135.923 90.2775 141.288 88.0957 141.541 80.2566C141.58 79.0139 141.647 75.1843 142.332 73.8178C143.213 72.0633 145.475 69.3416 147.467 68.6218C147.495 68.6049 144.139 67.9526 144.139 67.9526C143.959 67.9357 143.791 67.9245 143.617 67.9245C144.745 67.1035 145.548 66.125 146.137 65.0959C159.51 67.8851 168.506 71.6866 171.874 75.4036ZM188.3 65.5571C181.229 57.7461 165.639 51.4086 145.553 47.5734C145.643 45.2622 147.046 44.2837 149.549 42.5517C150.857 41.6463 152.333 40.6172 153.82 39.2057C160.302 33.0369 152.692 23.5895 152.366 23.1903L148.18 18.073L149.184 24.6186C149.869 29.1005 148.23 30.6863 143.37 34.0884C142.747 34.5158 142.22 34.9938 141.754 35.4999C141.956 32.5083 142.096 29.1736 141.092 24.9954C140.081 20.8116 138.033 19.1189 138.033 19.1189L137.5 25.1866C137.494 25.2203 137.029 29.9215 130.765 35.6068C131.304 34.9995 131.809 34.3697 132.258 33.7117C135.328 29.2355 134.441 24.1407 133.414 18.2474L133.201 17.0046C132.146 10.8582 133.785 7.02299 134.84 6.39319C135.867 5.13918 137.91 3.05292 137.91 3.05292C137.91 3.05292 136.826 2.56927 133.813 2.96292C129.896 3.50274 123.313 5.85333 123.487 11.2237C123.56 13.5855 124.323 15.8293 124.991 17.8087C125.709 19.9231 126.388 21.9307 125.788 22.9597C125.305 23.7751 123.851 24.4218 121.579 24.838C112.347 26.5194 105.276 30.8494 101.667 37.0239C100.472 39.0652 99.6747 41.2527 99.2763 43.547C76.3792 43.6145 54.6998 46.4768 37.8918 51.6898C19.0522 57.5325 8.66988 65.484 7.85617 74.6839C7.42406 79.5256 9.60712 86.5099 21.7011 93.2243L21.6169 93.3142L25.0514 94.9563C25.0543 94.9595 25.0583 94.9615 25.0627 94.9619L26.8697 95.8336L26.8978 95.8054C32.4705 98.3022 39.0086 100.462 46.293 102.239C43.7003 103.706 41.3095 105.393 39.1657 107.305C27.4478 116.944 20.6965 131.233 20.6965 146.461C20.6965 160.013 25.9606 172.756 35.5235 182.338C45.0864 191.921 57.7977 197.195 71.3227 197.195C95.2581 197.195 116.09 180.196 120.905 156.746C124.991 144.493 124.519 131.351 124.34 126.397C123.936 115.133 129.452 108.902 132.96 106.096C148.954 104.066 163.108 100.557 173.647 95.8504L173.664 95.8673L175.37 95.0575L175.381 95.0462L179.029 93.3086L178.928 93.213C187.408 88.4669 192.144 82.8884 192.672 76.9445C193.02 72.9856 191.549 69.1561 188.3 65.5571" fill="#2D2925"/>
<path d="M22.6474 150.048C23.9718 156.723 27.7824 164.719 35.353 170.056C37.6427 171.664 40.1345 172.969 42.7777 173.975C41.1391 171.181 39.2366 168.363 37.3004 165.495C33.675 160.147 29.9318 154.608 27.5579 148.659C25.0998 142.501 24.4264 136.062 25.4983 129.59C23.5677 134.848 22.5015 140.527 22.5015 146.46C22.5015 147.669 22.5576 148.867 22.6474 150.048Z" fill="#8B2231"/>
<path d="M30.8044 147.352C33.0436 152.959 36.6802 158.329 40.1933 163.531C42.9151 167.546 45.5696 171.477 47.59 175.447C49.8124 175.97 52.1189 176.301 54.4703 176.442C52.0403 172.972 49.9302 169.025 48.1231 164.509C41.0968 147.009 42.1126 125.376 50.8225 112.858C55.329 106.402 60.7109 102.011 67.6418 98.226C73.6018 94.9588 77.3338 93.9859 81.1275 91.7197C85.2524 89.2567 87.4579 85.1347 84.7473 75.8898C83.9504 73.1906 83.8101 71.0593 83.9729 69.4004C83.03 71.228 82.2948 73.348 81.9525 75.8167L81.975 75.7942C81.5484 78.4091 81.3689 81.2826 80.2576 84.2125C76.6098 93.7835 58.9487 99.0976 56.6198 99.8062C49.919 101.831 44.5482 104.923 40.3673 108.657C28.2733 119.438 26.1127 135.61 30.8044 147.352" fill="#8B2231"/>
<path d="M104.469 60.8628C104.649 61.4532 104.795 62.0381 104.868 62.6117C105.328 65.9576 104.318 68.6568 100.227 69.3148C96.012 69.9952 94.5753 66.3231 94.2498 63.3258C94.2161 62.2855 94.2947 61.4532 94.3789 60.8516C93.6718 60.8628 92.9703 60.874 92.2687 60.8966C90.9163 61.667 89.1596 62.8704 87.4704 64.5968C86.6287 66.4075 85.6129 68.9099 87.173 74.7808C89.9229 85.1334 88.7556 91.381 80.461 94.9576C69.8823 99.5181 63.1254 102.195 54.0563 113.622C49.7407 119.059 47.3836 128.068 46.9964 137.139C46.6204 145.939 48.4275 155.342 51.5197 163.046C53.5906 168.202 56.0094 172.684 58.8491 176.491C61.6832 176.384 64.5509 176.019 67.4186 175.389C64.2703 171.689 62.4576 167.19 62.1321 162.14C61.049 145.355 70.0731 138.292 83.9573 127.14L90.1699 121.916C114.964 100.817 107.73 79.3582 110.457 61.0371C108.499 60.9584 106.501 60.9022 104.469 60.8628Z" fill="#8B2231"/>
<path d="M114.402 61.2148C113.644 64.8757 113.302 68.694 113.061 72.6472C112.079 88.6065 112.556 106.675 92.3972 124.619L86.2969 129.562C72.8056 140.404 65.089 147.174 65.6221 161.919C65.7961 166.783 67.8445 171.04 71.2622 174.386C75.0335 173.25 78.7655 171.664 82.3516 169.617C99.8892 159.647 110.923 144.739 115.137 125.614C117.808 113.524 117.752 103.688 117.708 95.7819C117.685 91.7837 118.201 83.9447 118.201 83.9447C118.763 78.9961 119.559 72.0568 125.289 62.9637C125.475 62.6713 125.677 62.3733 125.867 62.0752C122.214 61.7153 118.392 61.4285 114.402 61.2148Z" fill="#8B2231"/>
<path d="M120.304 112.521V112.459C120.304 112.487 120.299 112.521 120.299 112.549C119.749 115.411 119.608 118.628 119.261 121.833C119.092 123.059 118.929 124.246 118.75 125.399C118.688 125.725 118.626 126.051 118.553 126.372C114.125 146.509 102.666 162.187 84.2357 172.669C81.0706 174.469 77.8548 175.947 74.6279 177.095C80.0323 180.688 86.3347 181.796 90.6671 181.144C107.217 178.652 115.282 167.833 119.165 156.26C123.15 144.383 122.723 131.708 122.532 126.461C121.904 108.933 135.434 102.466 135.434 102.466C124.912 101.893 121.46 106.487 120.304 112.521" fill="#8B2231"/>
<path d="M109.252 177.174C102.484 182.842 95.1886 184.085 91.8719 184.596C85.3563 185.597 77.6397 184.045 70.8155 178.653C70.7033 178.563 70.5967 178.467 70.49 178.377C67.5662 179.159 64.6367 179.682 61.7184 179.923C68.3967 187.11 77.1908 191.193 88.9817 191.997C89.0322 191.997 89.0884 192.002 89.1332 192.002H89.1445C97.1696 188.848 104.162 183.629 109.466 176.988C109.393 177.055 109.325 177.112 109.252 177.174ZM47.663 189.245C47.7921 185.551 46.7539 181.918 45.059 178.285C41.0128 177.116 37.0451 175.372 33.2289 173.05C31.0795 171.74 29.1433 169.738 27.4317 167.876C27.426 167.865 27.4148 167.865 27.4092 167.854C31.809 176.902 38.9082 184.387 47.663 189.251V189.245ZM81.4127 194.282C74.813 192.753 69.1673 190.408 64.2118 186.646C61.6808 184.717 59.3743 182.546 57.2754 180.083C54.604 180.049 51.9495 179.791 49.3231 179.296C50.7822 183.069 51.5174 186.916 51.046 190.953V190.959C57.2249 193.787 64.0828 195.379 71.3223 195.379C74.8074 195.379 78.2082 195.008 81.4857 194.31C81.4576 194.305 81.4352 194.288 81.4128 194.282L81.4127 194.282ZM138.13 74.1431C136.99 77.9558 133.247 77.506 132.164 75.4478C130.441 72.1974 131.092 69.6838 132.888 67.9686C134.678 66.2535 137.613 65.3369 140.459 64.0491C140.471 64.0407 140.484 64.0332 140.498 64.0266C137.209 63.4643 133.707 62.9582 130.003 62.5195C129.953 62.5814 129.902 62.6376 129.852 62.6939C129.521 63.0707 129.195 63.4418 128.875 63.8298C122.988 72.7035 122.253 79.2773 121.675 84.3328L121.496 85.8904C121.17 88.5447 121.187 91.8906 121.204 95.7595C121.209 96.2881 121.215 96.8392 121.215 97.4016C121.17 98.7512 121.12 100.084 121.058 101.383C121.092 101.394 121.114 101.4 121.142 101.405C121.187 100.866 121.209 100.658 121.204 100.933C122.871 95.6189 125.929 92.3855 130.239 90.6309C134.908 88.7359 139.516 86.987 139.729 80.1939C139.825 77.3597 140.032 74.5199 140.678 73.0747C141.856 70.4486 143.966 69.7512 143.966 69.7512C141.699 69.532 139.224 70.4823 138.13 74.1431Z" fill="#8B2231"/>
<path d="M143.78 47.2379C144.123 42.6942 148.416 41.8451 152.569 37.8862C157.906 32.8139 150.969 24.3394 150.969 24.3394C151.845 30.0359 149.213 32.2122 144.398 35.5694C142.871 36.6378 141.76 38.1336 141.608 40.0174C141.44 42.1318 141.3 44.415 140.84 46.7262C141.833 46.8893 142.809 47.0636 143.78 47.2379ZM129.09 39.3196C127.805 40.2756 126.604 41.2597 125.482 42.2663C124.685 43.0311 123.905 43.7959 123.186 44.5269C127.872 44.9318 132.429 45.4604 136.824 46.1015C139.63 40.9841 140.971 35.1752 139.304 25.2892C139.304 25.2892 138.917 31.9867 129.09 39.3196ZM102.895 43.5535C108.255 43.6041 113.513 43.8234 118.643 44.1721C118.817 44.0034 118.974 43.829 119.154 43.6603C122.599 39.9601 127.92 36.8335 130.77 32.6834C133.616 28.5277 132.471 23.4554 131.416 17.309C129.603 6.71449 134.059 4.75195 134.059 4.75195C134.059 4.75195 125.125 5.98348 125.293 11.1626C125.523 18.1132 132.673 24.6532 121.903 26.6158C110.084 28.7695 102.738 35.1746 101.122 43.5478C101.711 43.5535 102.301 43.5478 102.895 43.5535Z" fill="#F9A11A"/>
<path d="M102.865 46.33C53.3555 45.8407 12.0508 58.6453 10.6142 74.9306C10.0418 81.4144 15.8839 87.4765 26.2493 92.4532C32.6583 95.5292 40.7901 98.1834 50.2015 100.275C52.0815 99.4375 54.0514 98.6895 56.1278 98.0597C57.7666 97.5649 60.7914 96.5695 64.125 95.1187C50.2632 93.0886 39.0392 89.9733 32.1364 86.2337C27.0406 83.467 24.2963 80.3628 24.5881 77.1013C25.5534 66.1694 60.2134 57.6386 102.012 58.0491C143.805 58.4653 176.91 67.6596 175.945 78.5971C175.681 81.5719 172.92 84.3723 168.195 86.8635C159.462 91.4579 144.04 94.995 125.307 96.6426C124.662 97.5311 124.09 98.5152 123.624 99.6343C132.143 96.3952 141.958 101.181 141.958 101.181C141.958 101.181 142.615 101.434 143.075 101.749C155.506 99.5274 166.186 96.3671 174.188 92.5431C183.656 88.0276 189.397 82.5897 189.913 76.6964C191.35 60.4166 152.38 46.8136 102.865 46.33Z" fill="#FEFEFE"/>
</svg>
