<svg width="200" height="200" viewBox="0 0 200 200" fill="none" xmlns="http://www.w3.org/2000/svg">
<path d="M64.3064 171.395C63.4131 170.661 63.0395 169.473 63.3536 168.36L73.9056 130.924C73.9645 130.706 74.05 130.496 74.1601 130.298L69.3145 122.558C68.8705 121.85 68.7568 120.992 68.9897 120.192L69.6664 117.918L63.0287 117.492C56.7862 117.033 54.561 116.212 53.0775 115.396C46.8188 111.945 45.1837 102.039 44.8264 99.0845L44.4312 95.7574C44.2362 94.4071 44.5881 93.0892 45.4003 92.1386C46.0337 91.404 46.9054 90.9342 47.8475 90.8261C33.4134 77.7985 20.3653 61.6112 24.924 38.7966C29.9537 13.6002 50.365 6.00611 51.2313 5.69285C51.5561 5.57405 51.8918 5.52 52.2167 5.52C53.267 5.52 54.2686 6.08712 54.7884 7.05935C55.1511 7.73988 55.2215 8.50147 55.032 9.19817C61.7726 3.49458 68.2154 1.00462 70.9171 0.140455C71.2095 0.0432237 71.5127 0 71.805 0C72.9257 0 73.976 0.642743 74.4633 1.70681C75.0751 3.0463 74.5825 4.63961 73.3156 5.4012C67.1597 9.11181 61.7997 14.1619 57.7553 19.9736C62.6714 18.8285 65.9685 18.7043 67.1218 18.7043C67.517 18.7043 67.7173 18.7205 67.7173 18.7205C69.1575 18.8069 70.3269 19.9357 70.4515 21.3671C70.5814 22.7984 69.6501 24.1109 68.2479 24.4511C68.1721 24.4727 60.1484 26.4981 51.2908 32.8391C49.6179 37.927 48.7732 43.2418 48.7732 48.6376C48.7732 58.8674 52.0543 69.3727 57.777 77.4528C59.1414 79.381 60.4894 81.0608 61.9025 82.5948C61.3557 72.0895 64.3714 55.6753 83.402 48.0597C83.7594 47.9138 84.1275 47.849 84.4903 47.849C85.5623 47.849 86.591 48.4431 87.0945 49.4585C87.7767 50.8089 87.3002 52.4562 86.0062 53.2448L85.8655 53.3258C82.9311 55.2324 80.4622 57.6954 78.5781 60.5471C80.6463 59.9098 82.4275 59.6992 83.6295 59.5588L83.8569 59.5317C83.9706 59.5155 84.0896 59.5101 84.2033 59.5101C85.4215 59.5101 86.5314 60.2717 86.9483 61.4438C87.4085 62.7238 86.9104 64.1497 85.7626 64.8789L85.6652 64.9383C85.6257 64.9666 85.584 64.9919 85.5406 65.0139C79.4498 68.5193 76.0605 72.5972 75.4703 77.1449C74.8207 82.114 77.5765 86.7914 79.5526 89.4326C84.6744 83.5238 88.0095 73.4289 88.9407 69.6265C89.2655 68.3086 90.4458 67.4066 91.7723 67.4066C91.886 67.4066 91.9997 67.412 92.1134 67.4283C93.5752 67.5957 94.6851 68.8272 94.6905 70.2963C94.7663 82.7028 91.4258 91.1772 88.0041 96.5892C93.1313 99.1817 98.1556 99.333 99.2438 99.333C99.3683 99.333 99.5416 99.3276 99.5795 99.3276C99.612 99.3276 99.796 99.333 99.926 99.333C101.014 99.333 106.039 99.1817 111.166 96.5892C107.744 91.1772 104.403 82.7028 104.479 70.2963C104.485 68.8272 105.589 67.5957 107.051 67.4283C107.17 67.412 107.284 67.4066 107.398 67.4066C108.724 67.4066 109.904 68.3086 110.224 69.6266C111.16 73.4289 114.495 83.5238 119.617 89.4326C121.588 86.7969 124.344 82.114 123.699 77.1449C123.109 72.5972 119.72 68.5193 113.629 65.0139C113.591 64.9923 113.445 64.9005 113.445 64.9005C112.292 64.1714 111.783 62.7346 112.238 61.4545C112.655 60.2825 113.748 59.5101 114.972 59.5101C115.086 59.5101 115.199 59.5155 115.313 59.5317L115.54 59.5588C116.737 59.6992 118.524 59.9098 120.592 60.5471C118.708 57.6954 116.239 55.2324 113.304 53.3312L113.169 53.2448C111.87 52.4562 111.393 50.8089 112.07 49.4586C112.579 48.4431 113.608 47.849 114.68 47.849C115.042 47.849 115.41 47.9138 115.768 48.0596C134.798 55.6753 137.814 72.0895 137.262 82.5947C138.68 81.0608 140.028 79.381 141.393 77.4528C147.116 69.3727 150.397 58.8674 150.397 48.6376C150.397 43.2364 149.552 37.927 147.874 32.8391C138.967 26.4496 131.003 24.4727 130.922 24.4511C129.52 24.1109 128.588 22.7984 128.713 21.3671C128.843 19.9358 130.012 18.8069 131.447 18.7205C131.447 18.7205 131.653 18.7043 132.048 18.7043C133.196 18.7043 136.498 18.8285 141.409 19.9736C137.37 14.1619 132.01 9.11181 125.854 5.40116C124.587 4.63961 124.095 3.05169 124.706 1.70681C124.939 1.19798 125.312 0.766576 125.782 0.463975C126.253 0.161374 126.8 0.00032377 127.359 0C127.657 0 127.955 0.0432237 128.253 0.140455C130.954 1.00462 137.397 3.49458 144.138 9.19822C143.948 8.50147 144.013 7.73988 144.376 7.05935C144.896 6.08712 145.903 5.52 146.953 5.52C147.278 5.52 147.614 5.57401 147.939 5.69285C148.805 6.00611 169.211 13.6002 174.246 38.7966C178.804 61.6112 165.756 77.7985 151.322 90.8261C152.264 90.9342 153.136 91.3987 153.764 92.1386C154.582 93.0892 154.934 94.4071 154.739 95.7574L154.338 99.0845C153.986 102.039 152.351 111.945 146.092 115.396C144.609 116.212 142.378 117.033 136.168 117.492L129.503 117.918L130.18 120.192C130.413 120.992 130.294 121.85 129.855 122.558L125.01 130.298C125.118 130.492 125.205 130.703 125.264 130.924L135.816 168.36C136.13 169.473 135.757 170.661 134.863 171.395L99.5849 200L64.3064 171.395V171.395Z" fill="#EEE1C6"/>
<path d="M41.5846 69.2258C41.5846 69.2258 37.3129 49.9058 40.4855 38.4715C39.641 39.3843 38.7801 40.3241 37.9896 41.3503C30.2474 51.3425 41.5846 69.2258 41.5846 69.2258ZM157.582 69.2258C157.582 69.2258 168.925 51.3425 161.183 41.3503C160.387 40.3241 159.526 39.3843 158.681 38.4715C161.86 49.9058 157.582 69.2258 157.582 69.2258ZM27.784 39.3627C32.5539 15.4895 52.218 8.43016 52.218 8.43016C45.0172 13.7341 37.6702 23.7155 34.6329 37.7261C37.589 34.0641 40.3285 31.3204 43.5499 29.1274C51.525 11.9949 65.1307 5.04363 71.8063 2.9102C63.1491 8.13311 55.905 15.9054 51.5033 24.8552C61.514 21.2904 67.5616 21.6199 67.5616 21.6199C67.5616 21.6199 58.6067 23.7911 48.8233 31.0287C46.9067 36.5433 45.8563 42.4684 45.8563 48.6311C45.8563 59.482 49.3593 70.6031 55.3961 79.1315C58.7907 83.9278 62.0771 87.2441 66.1594 90.2633C64.8058 86.8714 59.6678 60.692 84.4862 50.7592L84.3129 50.8618C78.4494 54.6534 74.129 60.5515 72.3748 67.4974C76.9064 63.1657 81.6871 62.7174 84.2047 62.4149C84.1613 62.4419 84.1235 62.4689 84.0855 62.4905C61.043 75.7504 79.3644 93.7039 79.3644 93.7039C86.6302 87.6329 90.864 74.0328 91.7736 70.3114C91.8657 84.6839 87.0742 93.288 83.8148 97.4901C91.243 102.578 99.5754 102.238 99.5754 102.238H99.5916C99.597 102.238 107.924 102.578 115.352 97.4901C112.093 93.288 107.307 84.6839 107.393 70.3114C108.303 74.0328 112.542 87.6329 119.803 93.7039C119.803 93.7039 138.129 75.7504 115.087 62.4905C115.044 62.4689 115.006 62.4419 114.968 62.4149C117.48 62.7174 122.261 63.1657 126.792 67.4974C125.038 60.5515 120.718 54.6534 114.854 50.8618L114.681 50.7592C139.499 60.6919 134.361 86.8714 133.008 90.2633C137.095 87.2441 140.376 83.9278 143.771 79.1315C149.813 70.6031 153.316 59.482 153.316 48.6311C153.316 42.4684 152.266 36.5433 150.344 31.0287C140.56 23.7911 131.611 21.6199 131.611 21.6199C131.611 21.6199 137.653 21.2904 147.664 24.8551C143.262 15.9054 136.023 8.13311 127.361 2.91016C134.036 5.04363 147.642 11.995 155.617 29.1275C158.838 31.3204 161.583 34.0641 164.54 37.7261C161.502 23.7155 154.15 13.7341 146.949 8.4302C146.949 8.4302 166.619 15.4895 171.383 39.3627C176.938 67.1517 154.691 84.5057 136.749 99.3697L150.447 93.8011C151.372 93.4068 152.017 94.298 151.843 95.3674L151.443 98.7378C151.221 100.596 149.856 109.999 144.681 112.846C143.56 113.467 141.632 114.169 135.953 114.59L125.671 115.249L127.382 121.018L117.29 137.14L122.456 131.707L133.008 169.147L104.058 192.907L113.089 152.031L99.5862 168.418L86.078 152.031L95.1087 192.907L66.1594 169.147L76.7115 131.707L81.882 137.14L71.79 121.018L73.4955 115.249L63.2141 114.59C57.5347 114.169 55.6072 113.467 54.4865 112.846C49.3106 109.999 47.9462 100.596 47.7243 98.7378L47.3236 95.3674C47.1503 94.298 47.7946 93.4068 48.7205 93.8011L62.4182 99.3697C44.4812 84.5057 22.2345 67.1517 27.784 39.3627Z" fill="#00471B"/>
<path d="M52.2197 98.6777C52.2197 98.6777 53.2159 107.06 56.7459 109.005C59.1227 110.312 64.9375 110.188 70.0159 110.577C64.3907 108.4 56.107 102.464 52.2197 98.6777ZM83.3672 116.399C86.4424 118.765 89.0466 117.447 90.4435 116.08C90.9037 115.637 90.7629 114.87 90.1836 114.606C88.7164 113.936 85.9443 112.667 83.1885 111.403C82.6363 111.154 82.0029 111.495 81.9054 112.094C81.7105 113.282 81.7376 115.14 83.3672 116.399ZM88.9546 132.667L87.2979 139.948L91.3693 145.43H95.6898L91.6887 139.554L92.3222 135.93C94.1359 137.863 96.7185 139.073 99.5825 139.084C102.452 139.073 105.029 137.863 106.848 135.93L107.482 139.554L103.475 145.43H107.801L111.873 139.948L110.216 132.667C106.329 130.188 105.43 126.672 105.43 126.672L102.717 117.814L99.5825 119.332L96.4478 117.814L93.7407 126.672C93.7407 126.672 92.842 130.188 88.9546 132.667ZM108.722 116.08C110.118 117.447 112.728 118.765 115.798 116.399C117.428 115.14 117.46 113.282 117.265 112.094C117.162 111.495 116.529 111.154 115.977 111.403C113.221 112.667 110.454 113.936 108.987 114.606C108.408 114.87 108.267 115.637 108.722 116.08ZM105.451 148.806H93.7136L96.5344 152.625H102.636L105.451 148.806ZM129.155 110.577C134.233 110.188 140.048 110.312 142.425 109.005C145.949 107.06 146.951 98.6777 146.951 98.6777C143.058 102.464 134.774 108.4 129.155 110.577Z" fill="#FEFEFE"/>
</svg>
