<svg width="200" height="200" viewBox="0 0 200 200" fill="none" xmlns="http://www.w3.org/2000/svg">
<g clip-path="url(#clip0_3_1128)">
<circle cx="100" cy="100" r="100" fill="#C4CDD3"/>
<path d="M182.9 124.163C180.71 131.684 177.573 138.669 173.679 145.049C169.104 128.49 158.548 111.386 144.967 95.7611C146.192 93.6777 147.594 91.5778 149.196 89.3382C152.902 85.3152 154.648 89.0465 154.648 89.0465C157.623 80.9778 155.731 76.9153 154.289 75.1778C153.75 74.3799 153.1 74.0923 153.1 74.0923C151.852 68.4173 146.708 65.4382 146.708 65.4382C146.708 65.4382 148.481 57.4653 147.623 49.2111C175.437 60.8278 183.656 81.8423 186.046 92.8694C186.9 103.122 185.948 113.696 182.9 124.163ZM145.816 173.159C145.196 163.09 143.521 154.953 143.521 154.953C144.425 155.319 146.691 156.949 146.691 156.949C146.26 138.113 138.342 131.48 138.558 121.207C138.737 112.605 139.912 106.621 142.183 101.247C155.927 117.432 166.194 134.974 169.487 151.282C162.987 160.088 154.917 167.463 145.816 173.159ZM15.427 82.7319C21.2749 74.8048 36.3436 57.0819 52.9686 58.8569C51.654 61.2278 50.5478 63.2673 49.8895 64.5715C45.5311 71.3111 41.4415 79.3965 38.402 88.9611C35.2374 98.9236 33.5915 109.292 33.4124 120.005C29.8707 122.922 26.2165 125.63 22.477 127.996C22.477 127.996 29.1353 133.936 35.7603 136.274C35.7603 136.274 31.2082 143.43 28.302 148.099C15.8061 129.436 10.6353 106.051 15.427 82.7319ZM36.0374 42.0027C37.9457 41.8715 40.6582 41.7715 43.902 41.8611C51.7915 42.5694 54.6499 44.7444 59.2311 47.7486C58.0922 49.7419 56.9589 51.7385 55.8311 53.7382C41.1666 50.8695 27.9666 60.5569 19.1895 69.6632C23.1103 59.1986 28.8812 49.8799 36.0374 42.0027ZM75.0249 17.3798C74.6061 20.0257 74.554 23.3674 75.8415 26.6528C76.6561 28.7236 77.9103 30.5194 79.5623 32.0486C75.7707 33.6569 72.3561 35.157 69.5478 36.4194C62.8978 36.1507 51.2603 35.8153 43.0874 36.2986C42.6457 36.2923 42.179 36.2736 41.7603 36.2736C51.2978 27.5778 62.6894 21.1236 75.0249 17.3798H75.0249ZM81.0436 15.7861C91.1645 13.4986 101.796 13.007 112.483 14.5798C116.369 15.1507 120.258 15.9965 124.135 17.1278C124.281 17.1695 124.421 17.2194 124.567 17.2611C119.117 18.1028 112.104 19.6903 104.21 22.5694C97.9624 24.6611 91.477 27.1445 85.5103 29.5757C83.3353 28.3069 81.7895 26.6799 80.9936 24.6694C79.6707 21.3361 80.4603 17.6695 81.0436 15.7861ZM102.908 58.5382C99.9686 56.5486 97.0186 54.6528 94.0749 52.8798C91.8645 50.3944 87.4082 45.734 85.0728 43.3027C86.2228 41.4819 87.754 39.3111 89.6124 37.2569C98.7228 40.3986 106.283 40.9861 111.037 41.309C111.962 41.3736 112.787 41.4278 113.502 41.4986L114.192 41.557C115.446 41.6632 116.654 41.7986 117.869 41.9319C113.302 46.7152 108.5 51.8507 102.908 58.5382ZM74.704 76.8528C67.0519 84.534 54.4166 101.094 39.2332 114.953C40.5561 94.5236 47.4561 77.3132 56.9457 63.9632C57.9457 62.9799 59.1353 62.0049 60.4499 61.0548C66.3707 64.0382 71.0124 69.734 74.704 76.8528ZM78.902 73.1423C75.377 66.6757 71.0457 61.259 65.652 57.7173C68.1457 56.2778 70.7332 54.9611 73.0978 53.834C76.4832 54.2944 86.3561 55.7298 90.4936 57.2174C93.4436 58.984 96.3978 60.8819 99.3478 62.8819C98.5936 63.8152 97.8311 64.7694 97.0499 65.7652C97.0499 65.7652 88.2978 65.8736 78.902 73.1423ZM136.408 21.8277L136.412 21.7256C156.075 30.8402 171.05 46.7902 179.273 65.8069C170.271 54.6215 158.085 47.6006 146.454 43.1944C145.048 38.5798 142.389 34.5027 137.594 32.4944C136.658 30.3527 135.348 28.8548 132.777 27.8902C129.948 28.5194 125.335 31.8027 122.477 36.9986C119.373 36.5235 116.702 36.2319 114.652 36.0569L114.029 36.0027C113.273 35.9298 112.394 35.8715 111.412 35.8027C107.239 35.5173 101.427 35.0986 94.3874 33.0381C94.7707 32.7777 95.1582 32.5298 95.554 32.2985C118.019 21.4069 136.169 21.8214 136.408 21.8277ZM182.364 54.8069C170.285 32.8069 150.364 16.8277 126.264 9.80901C122.112 8.60272 117.85 7.66943 113.602 7.04435H113.6L113.592 7.04229C67.4665 0.248545 22.8353 28.9298 9.7853 73.759C2.76866 97.8569 5.55613 123.242 17.6332 145.244C29.7124 167.246 49.6353 183.226 73.7311 190.242C77.8873 191.453 82.1499 192.384 86.404 193.009C95.8332 194.399 105.192 194.282 114.239 192.874C114.352 192.928 114.46 192.992 114.573 193.044L114.681 192.805C149.704 187.174 179.871 161.813 190.214 126.292C197.231 102.196 194.444 76.8089 182.364 54.8069Z" fill="#002A5B"/>
<path d="M85.5105 29.5749C91.4771 27.1436 97.9605 24.6623 104.21 22.5686C112.102 19.6895 119.115 18.1019 124.567 17.2624C124.419 17.2186 124.281 17.1665 124.138 17.1269C120.256 15.9978 116.371 15.1519 112.483 14.5811C101.794 13.0061 91.1626 13.4998 81.0438 15.7874C80.4605 17.6686 79.6688 21.3353 80.9917 24.6686C81.7896 26.6811 83.3355 28.3082 85.5105 29.5749ZM38.4005 88.9611C41.4421 79.3944 45.5317 71.3111 49.888 64.5715C50.5484 63.2674 51.6526 61.2257 52.9672 58.8569C36.3443 57.0819 21.2755 74.8049 15.4276 82.732C10.6338 106.051 15.8068 129.436 28.3026 148.099C31.2068 143.43 35.7588 136.274 35.7588 136.274C29.1339 133.936 22.4776 127.999 22.4776 127.999C26.2171 125.63 29.8713 122.922 33.4109 120.005C33.5901 109.292 35.2359 98.9236 38.4005 88.9611V88.9611ZM41.7605 36.2744C42.1772 36.2765 42.6438 36.2911 43.0834 36.2995C51.2605 35.814 62.8959 36.1494 69.5459 36.4182C72.3563 35.1557 75.7709 33.6557 79.5626 32.0494C77.9105 30.5182 76.6563 28.7245 75.8418 26.6515C74.5542 23.3661 74.6063 20.0244 75.0251 17.3807C62.6876 21.1224 51.298 27.5765 41.7605 36.2744H41.7605ZM145.816 173.158C154.916 167.464 162.989 160.089 169.485 151.281C166.193 134.973 155.927 117.431 142.185 101.245C139.912 106.623 138.735 112.604 138.558 121.206C138.341 131.481 146.26 138.114 146.689 156.95C146.689 156.95 144.423 155.318 143.516 154.954C143.516 154.954 145.193 163.087 145.816 173.158ZM73.0969 53.8323C70.7345 54.9594 68.1449 56.2761 65.6511 57.7199C71.0449 61.2573 75.3761 66.6782 78.899 73.1449C88.2948 65.8719 97.049 65.7657 97.049 65.7657C97.8324 64.7699 98.5928 63.8157 99.3448 62.8803C96.4011 60.8845 93.4428 58.9845 90.4928 57.2178C86.3553 55.7323 76.4823 54.2949 73.0969 53.8323ZM117.868 41.9324C116.654 41.7991 115.445 41.6636 114.189 41.5574L113.502 41.499C112.787 41.4261 111.962 41.3719 111.037 41.3116C106.281 40.9844 98.7224 40.4011 89.612 37.2594C87.7536 39.3094 86.2244 41.4823 85.0744 43.3032C87.4078 45.7324 91.864 50.3949 94.0744 52.8803C97.0203 54.6511 99.9682 56.549 102.906 58.5407C108.499 51.849 113.304 46.7157 117.868 41.9324" fill="#004F83"/>
<path d="M19.189 69.6639C27.966 60.5576 41.166 50.8701 55.8306 53.7367C56.991 51.6784 58.1619 49.6201 59.2306 47.7472C54.6494 44.743 51.791 42.568 43.9015 41.8597C40.6577 41.7701 37.9431 41.8743 36.0369 42.0055C28.8806 49.8805 23.1098 59.1992 19.189 69.6639ZM182.9 124.163C185.947 113.696 186.9 103.121 186.045 92.8693C183.656 81.8422 175.437 60.8275 147.622 49.211C148.481 57.4651 146.708 65.438 146.708 65.438C146.708 65.438 151.852 68.4172 153.1 74.0922C153.1 74.0922 153.75 74.3797 154.289 75.1776C155.731 76.9151 157.622 80.9776 154.647 89.0463C154.647 89.0463 152.902 85.3151 149.195 89.338C147.593 91.5776 146.191 93.6776 144.966 95.7609C158.547 111.386 169.104 128.49 173.679 145.048C177.572 138.669 180.71 131.684 182.9 124.163" fill="#004F83"/>
<path d="M132.777 27.8912C135.344 28.8537 136.657 30.3516 137.596 32.4932C142.388 34.5037 145.048 38.5787 146.452 43.1953C158.084 47.5995 170.271 54.6203 179.271 65.8057C171.05 46.7911 156.073 30.8391 136.411 21.7266L136.407 21.8287C136.169 21.8203 118.017 21.4057 95.5545 32.2975C95.1566 32.5286 94.7691 32.7766 94.3878 33.0391C101.425 35.0974 107.236 35.5183 111.411 35.8037C112.394 35.8725 113.271 35.9307 114.027 36.0036L114.652 36.0578C116.698 36.2287 119.371 36.5224 122.477 36.9995C125.336 31.8037 129.948 28.5203 132.777 27.8912ZM74.7045 76.8516C71.0128 69.7328 66.3712 64.0391 60.4482 61.0537C59.1358 62.0058 57.9462 62.9808 56.9441 63.962C47.4545 77.312 40.5566 94.5224 39.2295 114.954C54.417 101.093 67.0482 84.5328 74.7045 76.8516Z" fill="#004F83"/>
<path d="M83.175 35.25L77.2042 43.9104C77.2042 43.9104 81.7166 47.0459 85.427 51.2876C78.9333 49.9605 71.8041 48.7605 71.8041 48.7605L60.502 54.9063L65.8 46.1146C65.8 46.1146 62.2354 43.0709 58.125 40.4188C62.6312 40.55 71.2021 41.2604 71.2021 41.2604L83.175 35.2501V35.25ZM94.3414 73.5557C94.3414 73.5557 93.0768 77.0535 92.9102 80.3035C92.9102 80.3035 84.9852 81.4723 81.1706 84.0681C81.1706 84.0681 89.0831 76.1828 94.3414 73.5557Z" fill="#7AC142"/>
<path d="M147.734 73.2047C148.615 72.9901 149.273 72.9547 149.765 72.9901C149.617 72.586 149.344 71.9797 148.853 71.3818C148.153 70.5339 147.134 69.8984 147.134 69.8984C147.79 70.9109 147.809 72.3089 147.734 73.2047H147.734ZM140.584 76.8118C141.607 76.1076 142.541 75.5242 143.389 75.0493C143.234 74.6826 142.995 74.1534 142.636 73.5138C141.957 72.2972 140.187 71.2368 140.187 71.2368C140.918 73.4013 140.762 75.5972 140.584 76.8118Z" fill="#FEFEFE"/>
<path d="M55.5718 130.306C48.8344 133.061 32.8906 129.307 32.8906 129.307C48.9969 128.379 64.751 116.84 64.751 116.84C64.7385 116.867 64.7239 116.896 64.7156 116.921C59.9927 124.165 53.4844 128.354 53.4844 128.354C54.201 129.271 54.9239 129.881 55.5718 130.306Z" fill="#C4CDD3"/>
<path d="M135.882 34.205C135.882 34.205 131.922 31.1008 127.428 35.9154C132.242 27.1404 135.024 32.1717 135.882 34.205Z" fill="#7AC142"/>
<path d="M151.519 76.7653C151.519 76.7653 151.105 76.484 151.017 76.4361C148.505 75.0986 144.001 79.0028 141.059 80.6215C138.122 82.2403 133.84 85.6882 131.749 80.9382C129.659 76.1882 134.465 68.759 136.132 64.084C139.807 53.7486 139.94 47.6632 139.165 44.3736C142.561 48.209 143.63 55.5611 143.63 55.5611C143.63 55.5611 144.892 41.7527 138.14 38.1152C138.296 38.6048 138.119 40.3257 137.982 41.6819C137.982 41.6819 137.969 41.6632 137.961 41.6528C134.815 42.2278 127.88 41.4403 125.628 40.2611C117.101 49.4069 107.805 62.134 100.807 73.8215C97.7715 80.0028 94.8006 87.2527 94.0569 93.1465C94.0569 93.1465 93.0902 90.4819 92.8611 86.9277C88.9902 88.4215 75.8277 94.8902 73.0132 114.724C73.0132 114.724 81.3778 106.092 90.6256 102.73C90.6256 102.73 84.7694 118.067 95.9486 145.255C95.9486 145.255 100.474 128.584 109.94 124.378C115.671 152.844 132.474 153.311 137.374 172.68C137.374 172.68 142.509 162.646 136.328 145.592C136.328 145.592 138.459 146.188 140.267 148.317C140.267 148.317 139.986 143.328 135.324 132.567C132.286 126.807 131.334 119.032 131.334 119.032C128.605 121.505 127.905 129.857 127.905 129.857C119.563 107.226 143.24 84.7965 147.563 81.4903C149.671 79.8715 150.971 79.8444 151.759 80.2319C152.571 78.5465 152.499 77.4694 151.519 76.7653" fill="#C4CDD3"/>
</g>
<defs>
<clipPath id="clip0_3_1128">
<rect width="200" height="200" fill="white"/>
</clipPath>
</defs>
</svg>
