<svg width="200" height="200" viewBox="0 0 200 200" fill="none" xmlns="http://www.w3.org/2000/svg">
<mask id="mask0_3_1175" style="mask-type:alpha" maskUnits="userSpaceOnUse" x="0" y="60" width="200" height="80">
<path d="M0 139.617H200V60.252H0V139.617Z" fill="white"/>
</mask>
<g mask="url(#mask0_3_1175)">
<path d="M197.194 83.4295C170.962 68.1225 132.838 60.5515 115.078 60.252C110.77 60.252 108.779 62.2845 107.863 63.9961C107.497 64.6869 107.25 65.4083 107.121 66.1541C106.141 65.5397 105.335 65.1332 105.286 65.1057L102.642 63.77L102.875 65.3013C101.812 64.7236 100.811 64.1245 100.801 64.1184L100.023 63.6477L99.2413 64.1123C99.2413 64.1123 98.2063 64.7236 97.1316 65.3044L97.3697 63.7608L94.7196 65.1057C94.6678 65.1332 93.8617 65.5397 92.8817 66.1541C92.7535 65.4083 92.5031 64.6839 92.1367 63.9931C91.2269 62.2845 89.2363 60.252 84.6718 60.252C67.1623 60.5515 29.0412 68.1225 2.77833 83.4479L0 85.1656L0.464103 86.3546C0.56786 86.6174 2.81194 92.1925 8.24949 94.8272L8.58536 95.3774C8.72581 95.6006 11.5896 100.179 16.3006 102.276L16.6273 102.805C16.783 103.055 20.0681 108.264 26.4491 110.464L27.1635 111.238C27.365 111.455 31.5233 115.881 38.1974 117.522L38.1364 117.568L39.9164 118.757C40.1209 118.894 44.377 121.694 50.932 123.06L50.1229 123.782L52.5227 124.659C53.1088 124.876 66.5028 129.687 78.5779 125.991C82.4461 134.195 90.8819 139.617 100.005 139.617C109.124 139.617 117.557 134.195 121.425 125.991C133.491 129.687 146.894 124.876 147.48 124.659L149.877 123.782L149.071 123.063C155.623 121.694 159.879 118.894 160.084 118.757L161.864 117.568L161.806 117.522C168.477 115.881 172.635 111.455 172.837 111.238L173.545 110.467C179.932 108.267 183.217 103.055 183.37 102.805L183.696 102.279C188.41 100.182 191.277 95.6005 191.415 95.3774L191.754 94.8272C197.191 92.1925 199.432 86.6174 199.536 86.3546L200 85.1656L197.194 83.4295V83.4295Z" fill="#FEFEFE"/>
</g>
<path d="M198.116 85.7963L196.424 84.7479C170.412 69.5693 132.645 62.0747 115.306 61.7812H115.077C112.226 61.7812 110.25 62.7685 109.212 64.7125C108.336 66.366 108.437 68.0227 108.864 69.4256C108.565 69.0833 108.131 68.7196 107.658 68.3711C106.251 67.3075 104.596 66.47 104.596 66.47C104.596 66.47 104.813 67.8393 104.309 67.6712C104.074 67.5978 103.784 67.4725 103.463 67.3258C102.056 66.6503 100.016 65.4277 100.016 65.4277C100.016 65.4277 97.9462 66.6503 96.5417 67.3258C96.2212 67.4725 95.9281 67.5978 95.693 67.6712C95.1892 67.8393 95.409 66.47 95.409 66.47C95.409 66.47 93.7542 67.3075 92.3437 68.3711C91.8705 68.7196 91.4369 69.0833 91.1378 69.4256C91.5652 68.0227 91.669 66.366 90.7897 64.7125C89.7516 62.7685 87.7763 61.7812 84.9247 61.7812H84.6957C67.3571 62.0747 29.5901 69.5693 3.58068 84.7479L1.88623 85.7963C1.88623 85.7963 4.43862 92.3067 10.7433 94.159L9.88534 94.5746C9.88534 94.5746 13.4483 100.361 18.9867 101.562L17.9272 102.002C17.9272 102.002 21.8322 108.32 29.4008 109.655L28.2834 110.196C28.2834 110.196 33.6843 116.041 41.9674 116.563L40.7645 117.483C40.7645 117.483 46.254 121.145 54.3478 122.065L53.0471 123.223C53.0471 123.223 67.3998 128.478 79.4199 124.098C82.7356 132.445 90.8843 138.087 99.9979 138.087H100.004C109.118 138.087 117.266 132.445 120.582 124.098C132.602 128.478 146.955 123.223 146.955 123.223L145.654 122.065C153.748 121.145 159.237 117.483 159.237 117.483L158.034 116.563C166.317 116.041 171.715 110.196 171.715 110.196L170.601 109.655C178.17 108.32 182.072 102.002 182.072 102.002L181.015 101.562C186.553 100.361 190.116 94.5746 190.116 94.5746L189.259 94.159C195.563 92.3067 198.116 85.7963 198.116 85.7963Z" fill="#B6975B"/>
<path d="M195.378 86.5453C169.934 71.7059 132.551 64.1563 115.277 63.8629C113.195 63.8293 111.778 64.3367 111.051 65.6937C109.848 67.9556 111.546 70.4803 112.27 71.5684C113.836 73.9035 115.909 77.5591 115.909 81.9544C115.909 90.479 109.024 96.7846 100.546 96.7846C100.362 96.7846 100.182 96.7877 100.002 96.7877C99.819 96.7877 99.6388 96.7846 99.4557 96.7846C90.9802 96.7846 84.0924 90.4791 84.0954 81.9544C84.0954 77.5591 86.1685 73.9036 87.7317 71.5684C88.4553 70.4803 90.1559 67.9556 88.9499 65.6937C88.2263 64.3367 86.8097 63.8293 84.7244 63.8629C67.4499 64.1563 30.0707 71.706 4.62305 86.5453C4.6444 86.6095 8.70202 93.56 16.8019 92.967C15.5532 93.5753 14.3075 94.1988 13.068 94.8407C13.0893 94.9171 16.7836 101.003 25.7048 100.122C24.2179 100.825 22.7402 101.541 21.2655 102.283C21.2838 102.366 25.546 108.347 34.9434 108.192C32.7788 109.289 31.469 109.986 31.4782 109.983C31.4843 110.029 37.6882 116.038 47.7177 114.384C46.6338 115.176 45.5408 116.016 44.2463 116.921C44.2493 116.936 51.6134 120.965 60.2782 119.712C59.1568 120.561 58.0403 121.417 56.9289 122.279C56.9075 122.166 70.1977 125.922 79.6501 121.756C87.7836 118.168 92.3022 109.377 93.3341 107.165C94.9401 107.519 96.3415 107.724 97.41 107.849C97.407 107.965 99.132 108.115 100.002 108.078C100.869 108.115 102.597 107.965 102.594 107.849C103.66 107.724 105.064 107.519 106.667 107.165C107.696 109.377 112.218 118.168 120.351 121.756C129.804 125.922 143.091 122.166 143.072 122.279C141.962 121.415 140.846 120.559 139.723 119.712C148.388 120.965 155.752 116.936 155.752 116.921C154.463 116.016 153.367 115.176 152.284 114.384C162.313 116.038 168.517 110.029 168.523 109.983C168.532 109.986 167.222 109.289 165.058 108.192C174.455 108.347 178.717 102.366 178.736 102.283C177.264 101.541 175.783 100.825 174.3 100.122C183.218 101.003 186.912 94.9171 186.93 94.8407C185.694 94.2009 184.451 93.5763 183.199 92.967C191.299 93.56 195.357 86.6095 195.378 86.5453Z" fill="#012B5F"/>
<path d="M92.6785 102.676C92.6785 102.676 69.939 95.0556 79.8188 70.8113C79.8188 70.8113 55.7786 71.8108 22.8234 85.1219C22.8234 85.1219 20.5122 86.0847 19.1658 86.5676C17.8163 87.0506 15.6486 87.9125 12.5405 86.4209C12.5405 86.4209 42.6808 70.6462 81.4064 66.9876C86.5112 66.5047 87.186 67.278 85.8365 69.2066C84.7313 70.7869 70.9038 88.4016 92.6785 102.676Z" fill="#FEFEFE"/>
<path d="M72.4769 77.6778C52.992 80.2147 33.9375 87.0093 33.9375 87.0093C37.183 92.7861 45.982 90.3623 45.982 90.3623C62.4902 85.6828 69.8573 84.0964 72.2204 83.638C72.1289 81.798 72.2052 79.8112 72.4769 77.6777V77.6778ZM72.6216 87.1756C69.367 87.8052 55.7257 90.608 41.9653 95.7705C41.9653 95.7705 46.3038 100.716 54.9105 98.2707C62.1495 96.2168 71.4309 93.2519 74.2001 92.3625C73.507 90.8006 72.9666 89.0737 72.6216 87.1756ZM75.6448 95.0975C72.7046 96.048 58.0039 100.816 51.797 103.2C51.797 103.2 55.3569 107.981 65.6367 103.931C72.7963 101.11 76.7409 99.4622 78.4812 98.7164C77.4461 97.6436 76.4875 96.4393 75.6448 95.0975ZM80.7508 100.795C78.1831 101.911 68.6422 106.083 63.1252 108.745C63.1252 108.745 70.068 112.163 78.803 106.759L84.2344 103.192C83.0529 102.501 81.8774 101.706 80.7508 100.795ZM86.8763 104.58C85.1299 105.671 77.894 110.229 74.3616 112.842C74.3616 112.842 80.3579 115.324 86.5099 109.523C88.5127 107.637 89.6058 106.567 90.2072 105.956C89.1478 105.574 88.0273 105.121 86.8763 104.58Z" fill="#B6975B"/>
<path d="M107.324 102.676C107.324 102.676 130.064 95.0556 120.184 70.8113C120.184 70.8113 144.224 71.8108 177.176 85.1219C177.176 85.1219 179.488 86.0847 180.837 86.5676C182.186 87.0506 184.354 87.9125 187.459 86.4209C187.459 86.4209 157.319 70.6462 118.596 66.9876C113.488 66.5047 112.817 67.278 114.163 69.2066C115.271 70.7869 129.099 88.4016 107.324 102.676" fill="#FEFEFE"/>
<path d="M127.524 77.6778C147.009 80.2147 166.064 87.0093 166.064 87.0093C162.821 92.7861 154.019 90.3623 154.019 90.3623C137.511 85.6828 130.147 84.0964 127.784 83.638C127.875 81.798 127.796 79.8112 127.524 77.6777V77.6778ZM127.381 87.1756C130.633 87.8052 144.274 90.608 158.037 95.7705C158.037 95.7705 153.696 100.716 145.092 98.2707C137.853 96.2168 128.572 93.2519 125.803 92.3625C126.493 90.8006 127.033 89.0737 127.381 87.1756ZM124.358 95.0975C127.295 96.048 141.999 100.816 148.203 103.2C148.203 103.2 144.646 107.981 134.366 103.931C127.206 101.11 123.262 99.4622 121.521 98.7164C122.556 97.6436 123.515 96.4393 124.358 95.0975H124.358ZM119.252 100.795C121.819 101.911 131.36 106.083 136.877 108.745C136.877 108.745 129.935 112.163 121.197 106.759L115.768 103.192C116.95 102.501 118.122 101.706 119.252 100.795ZM113.126 104.58C114.873 105.671 122.109 110.229 125.641 112.842C125.641 112.842 119.642 115.324 113.487 109.523C111.49 107.637 110.397 106.567 109.795 105.956C110.855 105.574 111.975 105.121 113.126 104.58Z" fill="#B6975B"/>
<path d="M118.621 115.912C118.621 126.213 110.286 134.56 100 134.56C89.7144 134.56 81.3794 126.213 81.3794 115.912C81.3794 105.618 89.7144 97.2676 100 97.2676C110.286 97.2676 118.621 105.618 118.621 115.912Z" fill="#FEFEFE"/>
<path d="M114.769 119.769C114.769 127.942 108.156 134.559 100.001 134.559C91.8433 134.559 85.2334 127.942 85.2334 119.769C85.2334 111.605 91.8434 104.984 100.001 104.984C108.156 104.984 114.769 111.605 114.769 119.769Z" fill="#B6975B"/>
<path d="M109.802 130.022C109.054 129.435 107.991 128.396 107.802 127.112C107.784 126.999 107.774 126.886 107.759 126.77C111.545 125.18 114.742 122.442 116.903 118.933C116.088 123.508 113.465 127.461 109.802 130.022H109.802ZM83.0961 118.918C85.2577 122.436 88.4543 125.177 92.2463 126.77C92.2311 126.886 92.2219 126.999 92.2036 127.115C92.0112 128.402 90.9518 129.438 90.2038 130.022C86.5339 127.461 83.9082 123.502 83.0961 118.918ZM87.053 104.638C86.2866 108.883 88.0452 112.884 89.6573 116.543C90.7778 119.092 91.8525 121.537 92.1974 124.013C87.7643 121.797 84.3968 117.741 83.1419 112.658C83.7251 109.626 85.1051 106.875 87.053 104.638ZM105.222 125.021C103.946 125.431 102.612 125.7 101.241 125.801V98.769C103.995 98.9677 106.568 99.8143 108.812 101.162C112.22 106.089 110.299 110.488 108.074 115.54C106.739 118.572 105.372 121.69 105.222 125.021ZM101.241 128.286C102.664 128.2 104.044 127.971 105.372 127.607C105.649 129.206 106.636 130.477 107.552 131.348C105.622 132.302 103.491 132.898 101.241 133.06V128.286ZM94.6338 127.607C95.9619 127.971 97.3419 128.2 98.7586 128.286V133.06C96.5115 132.898 94.3804 132.302 92.4509 131.348C93.3699 130.477 94.356 129.206 94.6338 127.607ZM91.193 101.162C93.434 99.8143 96.0108 98.9677 98.7586 98.769V125.801C97.3877 125.706 96.0566 125.446 94.7834 125.052C94.643 121.708 93.2691 118.584 91.9288 115.54C89.7 110.488 87.7827 106.089 91.193 101.162ZM116.864 112.673C115.624 117.649 112.22 121.711 107.814 123.955C108.168 121.497 109.234 119.07 110.345 116.543C111.957 112.881 113.716 108.88 112.946 104.638C114.9 106.881 116.28 109.635 116.864 112.673ZM100.001 95.8164C88.9367 95.8164 79.9331 104.833 79.9331 115.913C79.9331 126.993 88.9367 136.007 100.001 136.007C111.069 136.007 120.072 126.993 120.072 115.913C120.072 104.833 111.069 95.8164 100.001 95.8164H100.001Z" fill="#012B5F"/>
<path d="M105.963 69.7329C105.963 69.7329 105.813 70.3656 105.429 70.3656C105.044 70.3656 102.635 69.2072 101.478 68.5776C100.983 68.3116 100.29 67.9082 100.049 67.7676C100.049 67.7676 99.017 68.3116 98.5224 68.5776C97.3652 69.2072 94.9594 70.3656 94.5717 70.3656C94.187 70.3656 94.0374 69.7329 94.0374 69.7329C94.0374 69.7329 87.7144 73.5536 87.7144 84.1108C87.7144 91.9691 91.7994 95.536 91.7994 95.536L92.3551 97.7581H107.642L108.198 95.536C108.198 95.536 112.286 91.9691 112.286 84.1108C112.286 73.5536 105.963 69.7329 105.963 69.7329Z" fill="#012B5F"/>
<path d="M108.976 81.4411C108.976 78.1798 107.651 75.5207 106.222 73.9373C106.222 73.9373 106.173 74.8727 104.616 73.8304C103.272 72.9043 101.691 72.3633 99.9933 72.3633C98.2867 72.3633 96.7021 72.9073 95.3557 73.8365C93.8536 74.8605 93.7803 73.9374 93.7803 73.9374C92.3545 75.5207 91.0264 78.1798 91.0264 81.4411C91.0264 84.1523 91.6889 85.4849 91.9209 85.867C93.2612 89.3178 96.3693 91.7385 99.9933 91.7385C103.572 91.7385 106.649 89.3697 108.017 85.9739C108.096 85.8639 108.976 84.5649 108.976 81.4411Z" fill="#FEFEFE"/>
<path d="M103.378 88.812C103.369 88.7937 103.353 88.7754 103.344 88.757C103.344 88.757 102.456 87.0882 103.918 85.9328C103.918 85.9328 107.228 86.6236 107.307 82.2313C107.307 82.2313 107.228 81.7637 107.692 80.8437C107.692 80.8437 106.843 80.0704 104.996 81.4611C103.146 82.8427 102.147 86.7764 101.146 85.8533C100.157 84.9363 100.52 79.8167 100.004 79.6211H99.9858C99.4759 79.8198 99.8393 84.9363 98.847 85.8533C97.8487 86.7764 96.8442 82.8427 94.997 81.4611C93.1468 80.0704 92.3042 80.8437 92.3042 80.8437C92.7652 81.7637 92.6858 82.2313 92.6858 82.2313C92.7652 86.6236 96.0748 85.9328 96.0748 85.9328C97.5403 87.0881 96.6549 88.7631 96.6549 88.7631C96.6457 88.7814 96.6335 88.7998 96.6243 88.8151C92.6736 84.5665 90.3777 85.1442 91.5104 89.9032C92.6248 94.5797 96.8991 114.649 97.5769 119.304C97.4853 123.491 96.9999 124.986 96.8747 125.307L96.4412 126.172L96.9175 127.122C97.6716 128.22 98.1906 129.445 98.3768 129.913L100.007 134.058L101.622 129.922C101.815 129.445 102.337 128.22 103.085 127.122L103.582 126.218L103.134 125.31C103.005 124.995 102.535 123.555 102.428 119.518C102.99 115.346 107.359 94.6592 108.492 89.9032C109.621 85.1442 107.329 84.5665 103.378 88.812Z" fill="#012B5F"/>
<path d="M97.3224 109.737C95.9027 102.27 94.7852 96.7435 93.8816 92.7364C93.1946 89.6769 95.0325 90.8995 96.0218 92.8128L97.3224 109.737ZM102.68 109.737C104.1 102.27 105.217 96.7435 106.121 92.7364C106.808 89.6769 104.97 90.8995 103.981 92.8128L102.68 109.737H102.68ZM95.079 84.4429C94.8011 84.3665 94.6332 84.0761 94.7156 83.7919C94.7461 83.6849 94.8133 83.5993 94.8958 83.529C94.7095 83.3212 94.4928 83.1103 94.2302 82.9238C94.2302 82.9238 93.7692 85.0848 95.6957 84.8525C95.6957 84.8525 95.6285 84.6599 95.485 84.3848C95.3659 84.4551 95.2224 84.4796 95.079 84.4429V84.4429ZM105.769 82.9238C105.507 83.1103 105.29 83.3212 105.104 83.529C105.189 83.5993 105.256 83.6849 105.29 83.7949C105.366 84.0761 105.198 84.3665 104.92 84.4429C104.777 84.4796 104.633 84.4582 104.517 84.3879C104.374 84.6569 104.307 84.8525 104.307 84.8525C106.233 85.0848 105.769 82.9238 105.769 82.9238ZM100.903 112.507C101.514 100.972 102.433 92.7985 102.433 91.7776C102.433 91.417 102.393 90.9463 102.241 90.4328L101.572 92.6273L101.364 88.7486C101.029 88.3146 100.571 87.8805 99.9905 87.4649H99.9538C99.3768 87.8806 98.9707 88.3146 98.6318 88.7486L98.4334 92.6273L97.7587 90.4297C97.609 90.9463 97.5663 91.417 97.5663 91.7776C97.5663 92.7985 98.4822 100.972 99.0929 112.507C99.7065 124.045 98.2777 126.191 98.2777 126.191C99.1051 127.389 99.9997 129.523 99.9997 129.523C99.9997 129.523 100.894 127.389 101.722 126.191C101.722 126.191 100.293 124.045 100.903 112.507Z" fill="#C8102E"/>
<path d="M195.378 86.5453C169.934 71.7059 132.551 64.1563 115.277 63.8629C113.195 63.8293 111.778 64.3367 111.051 65.6937C109.848 67.9556 111.546 70.4803 112.27 71.5684C113.836 73.9035 115.909 77.5591 115.909 81.9544C115.909 90.479 109.024 96.7846 100.546 96.7846C100.362 96.7846 100.182 96.7877 100.002 96.7877C99.819 96.7877 99.6388 96.7846 99.4557 96.7846C90.9802 96.7846 84.0924 90.4791 84.0954 81.9544C84.0954 77.5591 86.1685 73.9036 87.7317 71.5684C88.4553 70.4803 90.1559 67.9556 88.9499 65.6937C88.2263 64.3367 86.8097 63.8293 84.7244 63.8629C67.4499 64.1563 30.0707 71.706 4.62305 86.5453C4.6444 86.6095 8.70202 93.56 16.8019 92.967C15.5532 93.5753 14.3075 94.1988 13.068 94.8407C13.0893 94.9171 16.7836 101.003 25.7048 100.122C24.2179 100.825 22.7402 101.541 21.2655 102.283C21.2838 102.366 25.546 108.347 34.9434 108.192C32.7788 109.289 31.469 109.986 31.4782 109.983C31.4843 110.029 37.6882 116.038 47.7177 114.384C46.6338 115.176 45.5408 116.016 44.2463 116.921C44.2493 116.936 51.6134 120.965 60.2782 119.712C59.1568 120.561 58.0403 121.417 56.9289 122.279C56.9075 122.166 70.1977 125.922 79.6501 121.756C87.7836 118.168 92.3022 109.377 93.3341 107.165C94.9401 107.519 96.3415 107.724 97.41 107.849C97.407 107.965 99.132 108.115 100.002 108.078C100.869 108.115 102.597 107.965 102.594 107.849C103.66 107.724 105.064 107.519 106.667 107.165C107.696 109.377 112.218 118.168 120.351 121.756C129.804 125.922 143.091 122.166 143.072 122.279C141.962 121.415 140.846 120.559 139.723 119.712C148.388 120.965 155.752 116.936 155.752 116.921C154.463 116.016 153.367 115.176 152.284 114.384C162.313 116.038 168.517 110.029 168.523 109.983C168.532 109.986 167.222 109.289 165.058 108.192C174.455 108.347 178.717 102.366 178.736 102.283C177.264 101.541 175.783 100.825 174.3 100.122C183.218 101.003 186.912 94.9171 186.93 94.8407C185.694 94.2009 184.451 93.5763 183.199 92.967C191.299 93.56 195.357 86.6095 195.378 86.5453Z" fill="#012B5F"/>
<path d="M92.6785 102.676C92.6785 102.676 69.939 95.0556 79.8188 70.8113C79.8188 70.8113 55.7786 71.8108 22.8234 85.1219C22.8234 85.1219 20.5122 86.0847 19.1658 86.5676C17.8163 87.0506 15.6486 87.9125 12.5405 86.4209C12.5405 86.4209 42.6808 70.6462 81.4064 66.9876C86.5112 66.5047 87.186 67.278 85.8365 69.2066C84.7313 70.7869 70.9038 88.4016 92.6785 102.676Z" fill="#FEFEFE"/>
<path d="M72.4769 77.6778C52.992 80.2147 33.9375 87.0093 33.9375 87.0093C37.183 92.7861 45.982 90.3623 45.982 90.3623C62.4902 85.6828 69.8573 84.0964 72.2204 83.638C72.1289 81.798 72.2052 79.8112 72.4769 77.6777V77.6778ZM72.6216 87.1756C69.367 87.8052 55.7257 90.608 41.9653 95.7705C41.9653 95.7705 46.3038 100.716 54.9105 98.2707C62.1495 96.2168 71.4309 93.2519 74.2001 92.3625C73.507 90.8006 72.9666 89.0737 72.6216 87.1756ZM75.6448 95.0975C72.7046 96.048 58.0039 100.816 51.797 103.2C51.797 103.2 55.3569 107.981 65.6367 103.931C72.7963 101.11 76.7409 99.4622 78.4812 98.7164C77.4461 97.6436 76.4875 96.4393 75.6448 95.0975ZM80.7508 100.795C78.1831 101.911 68.6422 106.083 63.1252 108.745C63.1252 108.745 70.068 112.163 78.803 106.759L84.2344 103.192C83.0529 102.501 81.8774 101.706 80.7508 100.795ZM86.8763 104.58C85.1299 105.671 77.894 110.229 74.3616 112.842C74.3616 112.842 80.3579 115.324 86.5099 109.523C88.5127 107.637 89.6058 106.567 90.2072 105.956C89.1478 105.574 88.0273 105.121 86.8763 104.58Z" fill="#B6975B"/>
<path d="M107.324 102.676C107.324 102.676 130.064 95.0556 120.184 70.8113C120.184 70.8113 144.224 71.8108 177.176 85.1219C177.176 85.1219 179.488 86.0847 180.837 86.5676C182.186 87.0506 184.354 87.9125 187.459 86.4209C187.459 86.4209 157.319 70.6462 118.596 66.9876C113.488 66.5047 112.817 67.278 114.163 69.2066C115.271 70.7869 129.099 88.4016 107.324 102.676" fill="#FEFEFE"/>
<path d="M127.524 77.6778C147.009 80.2147 166.064 87.0093 166.064 87.0093C162.821 92.7861 154.019 90.3623 154.019 90.3623C137.511 85.6828 130.147 84.0964 127.784 83.638C127.875 81.798 127.796 79.8112 127.524 77.6777V77.6778ZM127.381 87.1756C130.633 87.8052 144.274 90.608 158.037 95.7705C158.037 95.7705 153.696 100.716 145.092 98.2707C137.853 96.2168 128.572 93.2519 125.803 92.3625C126.493 90.8006 127.033 89.0737 127.381 87.1756ZM124.358 95.0975C127.295 96.048 141.999 100.816 148.203 103.2C148.203 103.2 144.646 107.981 134.366 103.931C127.206 101.11 123.262 99.4622 121.521 98.7164C122.556 97.6436 123.515 96.4393 124.358 95.0975H124.358ZM119.252 100.795C121.819 101.911 131.36 106.083 136.877 108.745C136.877 108.745 129.935 112.163 121.197 106.759L115.768 103.192C116.95 102.501 118.122 101.706 119.252 100.795ZM113.126 104.58C114.873 105.671 122.109 110.229 125.641 112.842C125.641 112.842 119.642 115.324 113.487 109.523C111.49 107.637 110.397 106.567 109.795 105.956C110.855 105.574 111.975 105.121 113.126 104.58Z" fill="#B6975B"/>
<path d="M118.621 115.912C118.621 126.213 110.286 134.56 100 134.56C89.7144 134.56 81.3794 126.213 81.3794 115.912C81.3794 105.618 89.7144 97.2676 100 97.2676C110.286 97.2676 118.621 105.618 118.621 115.912Z" fill="#FEFEFE"/>
<path d="M114.769 119.769C114.769 127.942 108.156 134.559 100.001 134.559C91.8433 134.559 85.2334 127.942 85.2334 119.769C85.2334 111.605 91.8434 104.984 100.001 104.984C108.156 104.984 114.769 111.605 114.769 119.769Z" fill="#B6975B"/>
<path d="M109.802 130.022C109.054 129.435 107.991 128.396 107.802 127.112C107.784 126.999 107.774 126.886 107.759 126.77C111.545 125.18 114.742 122.442 116.903 118.933C116.088 123.508 113.465 127.461 109.802 130.022H109.802ZM83.0961 118.918C85.2577 122.436 88.4543 125.177 92.2463 126.77C92.2311 126.886 92.2219 126.999 92.2036 127.115C92.0112 128.402 90.9518 129.438 90.2038 130.022C86.5339 127.461 83.9082 123.502 83.0961 118.918ZM87.053 104.638C86.2866 108.883 88.0452 112.884 89.6573 116.543C90.7778 119.092 91.8525 121.537 92.1974 124.013C87.7643 121.797 84.3968 117.741 83.1419 112.658C83.7251 109.626 85.1051 106.875 87.053 104.638ZM105.222 125.021C103.946 125.431 102.612 125.7 101.241 125.801V98.769C103.995 98.9677 106.568 99.8143 108.812 101.162C112.22 106.089 110.299 110.488 108.074 115.54C106.739 118.572 105.372 121.69 105.222 125.021ZM101.241 128.286C102.664 128.2 104.044 127.971 105.372 127.607C105.649 129.206 106.636 130.477 107.552 131.348C105.622 132.302 103.491 132.898 101.241 133.06V128.286ZM94.6338 127.607C95.9619 127.971 97.3419 128.2 98.7586 128.286V133.06C96.5115 132.898 94.3804 132.302 92.4509 131.348C93.3699 130.477 94.356 129.206 94.6338 127.607ZM91.193 101.162C93.434 99.8143 96.0108 98.9677 98.7586 98.769V125.801C97.3877 125.706 96.0566 125.446 94.7834 125.052C94.643 121.708 93.2691 118.584 91.9288 115.54C89.7 110.488 87.7827 106.089 91.193 101.162ZM116.864 112.673C115.624 117.649 112.22 121.711 107.814 123.955C108.168 121.497 109.234 119.07 110.345 116.543C111.957 112.881 113.716 108.88 112.946 104.638C114.9 106.881 116.28 109.635 116.864 112.673ZM100.001 95.8164C88.9367 95.8164 79.9331 104.833 79.9331 115.913C79.9331 126.993 88.9367 136.007 100.001 136.007C111.069 136.007 120.072 126.993 120.072 115.913C120.072 104.833 111.069 95.8164 100.001 95.8164H100.001Z" fill="#012B5F"/>
<path d="M105.963 69.7329C105.963 69.7329 105.813 70.3656 105.429 70.3656C105.044 70.3656 102.635 69.2072 101.478 68.5776C100.983 68.3116 100.29 67.9082 100.049 67.7676C100.049 67.7676 99.017 68.3116 98.5224 68.5776C97.3652 69.2072 94.9594 70.3656 94.5717 70.3656C94.187 70.3656 94.0374 69.7329 94.0374 69.7329C94.0374 69.7329 87.7144 73.5536 87.7144 84.1108C87.7144 91.9691 91.7994 95.536 91.7994 95.536L92.3551 97.7581H107.642L108.198 95.536C108.198 95.536 112.286 91.9691 112.286 84.1108C112.286 73.5536 105.963 69.7329 105.963 69.7329Z" fill="#012B5F"/>
<path d="M108.976 81.4411C108.976 78.1798 107.651 75.5207 106.222 73.9373C106.222 73.9373 106.173 74.8727 104.616 73.8304C103.272 72.9043 101.691 72.3633 99.9933 72.3633C98.2867 72.3633 96.7021 72.9073 95.3557 73.8365C93.8536 74.8605 93.7803 73.9374 93.7803 73.9374C92.3545 75.5207 91.0264 78.1798 91.0264 81.4411C91.0264 84.1523 91.6889 85.4849 91.9209 85.867C93.2612 89.3178 96.3693 91.7385 99.9933 91.7385C103.572 91.7385 106.649 89.3697 108.017 85.9739C108.096 85.8639 108.976 84.5649 108.976 81.4411Z" fill="#FEFEFE"/>
<path d="M103.378 88.812C103.369 88.7937 103.353 88.7754 103.344 88.757C103.344 88.757 102.456 87.0882 103.918 85.9328C103.918 85.9328 107.228 86.6236 107.307 82.2313C107.307 82.2313 107.228 81.7637 107.692 80.8437C107.692 80.8437 106.843 80.0704 104.996 81.4611C103.146 82.8427 102.147 86.7764 101.146 85.8533C100.157 84.9363 100.52 79.8167 100.004 79.6211H99.9858C99.4759 79.8198 99.8393 84.9363 98.847 85.8533C97.8487 86.7764 96.8442 82.8427 94.997 81.4611C93.1468 80.0704 92.3042 80.8437 92.3042 80.8437C92.7652 81.7637 92.6858 82.2313 92.6858 82.2313C92.7652 86.6236 96.0748 85.9328 96.0748 85.9328C97.5403 87.0881 96.6549 88.7631 96.6549 88.7631C96.6457 88.7814 96.6335 88.7998 96.6243 88.8151C92.6736 84.5665 90.3777 85.1442 91.5104 89.9032C92.6248 94.5797 96.8991 114.649 97.5769 119.304C97.4853 123.491 96.9999 124.986 96.8747 125.307L96.4412 126.172L96.9175 127.122C97.6716 128.22 98.1906 129.445 98.3768 129.913L100.007 134.058L101.622 129.922C101.815 129.445 102.337 128.22 103.085 127.122L103.582 126.218L103.134 125.31C103.005 124.995 102.535 123.555 102.428 119.518C102.99 115.346 107.359 94.6592 108.492 89.9032C109.621 85.1442 107.329 84.5665 103.378 88.812Z" fill="#012B5F"/>
<path d="M97.3224 109.737C95.9027 102.27 94.7852 96.7435 93.8816 92.7364C93.1946 89.6769 95.0325 90.8995 96.0218 92.8128L97.3224 109.737ZM102.68 109.737C104.1 102.27 105.217 96.7435 106.121 92.7364C106.808 89.6769 104.97 90.8995 103.981 92.8128L102.68 109.737H102.68ZM95.079 84.4429C94.8011 84.3665 94.6332 84.0761 94.7156 83.7919C94.7461 83.6849 94.8133 83.5993 94.8958 83.529C94.7095 83.3212 94.4928 83.1103 94.2302 82.9238C94.2302 82.9238 93.7692 85.0848 95.6957 84.8525C95.6957 84.8525 95.6285 84.6599 95.485 84.3848C95.3659 84.4551 95.2224 84.4796 95.079 84.4429V84.4429ZM105.769 82.9238C105.507 83.1103 105.29 83.3212 105.104 83.529C105.189 83.5993 105.256 83.6849 105.29 83.7949C105.366 84.0761 105.198 84.3665 104.92 84.4429C104.777 84.4796 104.633 84.4582 104.517 84.3879C104.374 84.6569 104.307 84.8525 104.307 84.8525C106.233 85.0848 105.769 82.9238 105.769 82.9238ZM100.903 112.507C101.514 100.972 102.433 92.7985 102.433 91.7776C102.433 91.417 102.393 90.9463 102.241 90.4328L101.572 92.6273L101.364 88.7486C101.029 88.3146 100.571 87.8805 99.9905 87.4649H99.9538C99.3768 87.8806 98.9707 88.3146 98.6318 88.7486L98.4334 92.6273L97.7587 90.4297C97.609 90.9463 97.5663 91.417 97.5663 91.7776C97.5663 92.7985 98.4822 100.972 99.0929 112.507C99.7065 124.045 98.2777 126.191 98.2777 126.191C99.1051 127.389 99.9997 129.523 99.9997 129.523C99.9997 129.523 100.894 127.389 101.722 126.191C101.722 126.191 100.293 124.045 100.903 112.507Z" fill="#C8102E"/>
</svg>
