<svg width="200" height="200" viewBox="0 0 200 200" fill="none" xmlns="http://www.w3.org/2000/svg">
<path d="M107.431 68.274V68.2781L107.427 68.2823L107.431 68.274ZM113.657 97.9484V97.9442H113.661C113.657 97.9442 113.657 97.9484 113.657 97.9484ZM199.954 76.2215C199.946 76.1841 199.959 76.1467 199.95 76.1092C199.925 76.0136 199.867 75.9388 199.834 75.8474C199.784 75.7185 199.743 75.5897 199.673 75.4733C199.606 75.3694 199.523 75.2862 199.44 75.1948C199.349 75.0992 199.27 74.9994 199.163 74.9163C199.051 74.8373 198.93 74.7833 198.806 74.7251C198.702 74.6752 198.603 74.617 198.491 74.5838C198.35 74.5464 198.205 74.5422 198.056 74.5339C197.956 74.5256 197.865 74.4882 197.761 74.4965C185.719 75.465 173.336 77.3189 160.9 79.9334C161.627 77.9762 162.318 76.0056 162.972 74.0226C174.75 71.8903 186.602 69.9699 198.222 68.3197C198.313 68.3072 198.383 68.2573 198.47 68.2324C198.595 68.1991 198.715 68.1659 198.827 68.1118C198.947 68.0495 199.051 67.9747 199.158 67.8957C199.258 67.8209 199.349 67.7502 199.432 67.6629C199.523 67.5631 199.594 67.4551 199.664 67.3387C199.726 67.2348 199.793 67.135 199.838 67.0187C199.888 66.8939 199.909 66.7609 199.934 66.6238C199.95 66.5323 199.996 66.4533 200 66.3577C200 66.3203 199.983 66.2829 199.983 66.2455C199.983 66.2081 200 66.1707 199.996 66.1291C199.992 66.0252 199.942 65.9337 199.921 65.834C199.896 65.7093 199.876 65.5846 199.83 65.4682C199.776 65.3435 199.697 65.2354 199.623 65.1232C199.556 65.0193 199.498 64.9195 199.411 64.8322C199.32 64.7325 199.204 64.6618 199.092 64.5828C198.993 64.5122 198.906 64.4374 198.794 64.3875C198.661 64.3251 198.52 64.3002 198.379 64.2711C198.28 64.2461 198.193 64.1963 198.089 64.1879C187.758 63.3816 177.005 63.1862 166.094 63.5478C166.388 62.4421 166.678 61.324 166.96 60.1893C167.192 59.254 166.753 58.2813 165.899 57.8407C141.93 45.4622 122.84 40.416 100.014 40.416C77.1851 40.416 58.095 45.4622 34.1132 57.8408C33.2593 58.2814 32.8199 59.254 33.0479 60.1893L34.4988 66.0502C36.6793 74.8415 39.718 83.2421 43.4697 91.1648C28.3386 97.6574 14.0283 105.139 0.961593 113.469C0.0703283 114.039 -0.253015 115.19 0.211258 116.142C0.571925 116.87 1.3057 117.302 2.07259 117.302C2.30889 117.302 2.54935 117.26 2.78148 117.177C15.2512 112.634 28.2391 108.278 41.3845 104.142C38.9759 109.246 36.6047 114.376 34.3247 119.526L33.9557 120.349C32.6955 123.125 30.9668 126.933 32.1939 130.129C32.7743 131.642 33.9101 132.773 35.8751 133.6C36.1155 133.662 36.3518 133.717 36.5923 133.758C27.4058 140.193 18.7542 146.997 10.7575 154.084C9.96565 154.787 9.82888 155.975 10.4382 156.84C10.8403 157.41 11.4788 157.721 12.1338 157.721C12.4851 157.722 12.8306 157.631 13.137 157.459C31.2902 147.384 50.4756 137.591 70.1709 128.342C78.4909 136.423 88.1334 143.771 98.949 150.268C99.604 150.659 100.421 150.659 101.08 150.268C126.575 134.943 143.882 116.699 155.353 93.0145C169.833 87.7771 184.359 82.9179 198.537 78.5576C198.628 78.5285 198.694 78.4661 198.781 78.4287C198.893 78.3788 198.997 78.329 199.096 78.2624C199.212 78.1793 199.308 78.0837 199.407 77.9839C199.486 77.8967 199.565 77.8177 199.631 77.7179C199.71 77.6015 199.76 77.481 199.813 77.3521C199.859 77.2441 199.909 77.136 199.934 77.0155C199.963 76.8783 199.963 76.7411 199.967 76.5998C199.967 76.5084 200 76.4211 199.988 76.3296C199.983 76.2922 199.959 76.2589 199.954 76.2215V76.2215Z" fill="#FEFEFE"/>
<path d="M197.928 76.5703C183.498 81.0055 168.802 85.927 153.911 91.3265C155.238 88.5457 156.481 85.6776 157.659 82.7222L197.928 76.5703ZM157.66 82.7222C171.423 79.6546 184.912 77.6136 197.929 76.5703L157.66 82.7222ZM12.1313 155.64C23.6434 145.436 36.623 135.726 50.8463 126.789C53.5201 125.43 56.1981 124.083 58.8886 122.749C59.9954 122.2 62.1635 121.144 64.8913 119.831C66.7236 121.897 68.6222 123.9 70.5872 125.854C50.1623 135.406 30.6203 145.378 12.1313 155.64Z" fill="#0070B9"/>
<path d="M197.928 66.2601C185.968 67.9602 173.785 69.9346 161.418 72.1917C162.102 70.0718 162.745 67.9062 163.367 65.7031" fill="#EF5133"/>
<path d="M163.368 65.7028C175.265 65.1998 186.827 65.3951 197.929 66.2598L163.368 65.7028Z" fill="#ED2A37"/>
<path d="M2.07324 115.224C15.4342 106.707 30.2337 98.9508 46.2146 92.2129C46.7453 93.2853 47.2966 94.3536 47.8521 95.4052C46.9981 97.1676 46.14 98.9259 45.2943 100.697C30.4369 105.294 16.0146 110.145 2.07324 115.224Z" fill="#EF5133"/>
<path d="M100.011 46.6328C122.534 46.6328 140.198 51.916 160.138 61.8836C150.383 98.7533 132.529 123.519 100.015 143.641C87.7985 136.063 77.414 127.617 68.7375 117.99C72.597 116.153 76.9497 114.083 80.7719 112.271C82.3182 112.412 83.8023 112.487 85.1827 112.524C85.0957 114.648 84.4283 116.207 83.3587 117.325C83.9805 118.036 84.6148 118.751 85.249 119.449C86.9363 117.936 88.0182 115.708 88.1053 112.533C92.0601 112.47 95.8781 112.063 99.4225 111.311C99.2236 117.117 98.4152 121.395 96.7653 123.091C96.7073 123.145 96.6782 123.186 96.6492 123.244C96.2388 123.677 95.8698 124.042 95.5506 124.321C97.1467 124.03 98.7095 123.66 100.256 123.224C102.246 119.096 102.271 111.868 102.3 110.612C105.993 109.681 109.276 108.746 112.232 107.732C112.348 111.128 113.7 114.37 116.286 115.567C117.451 114.744 118.579 113.867 119.669 112.961C119.014 113.061 114.927 113.343 114.985 106.747C123.636 103.475 129.27 99.5347 134.228 93.6447C135.538 90.681 136.595 87.5719 137.342 84.3504C131.413 93.732 125.95 99.2063 115.283 103.5C115.586 101.609 116.133 99.3477 117.016 96.6375C120.125 95.3323 123.371 93.7736 125.328 92.9672L129.992 88.054C131.165 83.5149 132.33 78.9717 133.495 74.4326L129.846 75.5715L134.133 71.0532C135.037 67.4993 135.92 63.937 136.803 60.3831C134.655 60.699 132.504 61.0191 130.352 61.3557C130.713 59.5767 130.97 57.8184 131.107 56.0601C130.07 55.7983 129.034 55.5447 127.989 55.312C127.77 57.2863 127.384 59.4769 126.8 61.9169L126.505 61.9626C124.49 62.3034 122.426 62.9685 120.631 64.4857L121.207 62.7357C117.75 63.3634 114.305 63.9994 110.86 64.6686L107.428 68.2849L107.539 67.9939L108.65 65.0968C105.243 65.7992 101.844 66.5183 98.4401 67.2624C97.7312 62.6526 97.0181 58.4876 96.4005 55.1166C95.4346 55.2288 94.4687 55.366 93.5111 55.5031C94.1329 58.9116 94.8584 63.1805 95.5838 67.8942L93.1711 68.4387L90.1076 71.6768C87.9602 69.3989 83.6033 70.8371 80.8548 71.5313C77.8783 72.2836 74.906 73.0651 71.9337 73.8673C71.0465 74.1125 70.1635 74.3828 69.2971 74.682C67.071 71.4647 64.9775 68.1436 63.2488 64.5689L62.9379 63.908C62.038 64.2737 61.1439 64.6534 60.2558 65.0468L60.6371 65.8366C62.3202 69.3324 64.3474 72.5995 66.5321 75.7711C63.3276 77.201 60.3677 79.1837 57.8016 82.0185C57.8016 82.0185 53.6354 86.3913 53.1462 86.9275C52.0642 88.1746 51.1315 89.5005 50.3065 90.8514C45.933 82.0227 42.4633 72.4166 39.8599 61.8878C59.8039 51.9201 77.4762 46.6287 100.011 46.6328H100.011ZM102.212 102.444C104.285 101.53 106.358 100.624 108.422 99.7135L109.393 98.7034C109.799 98.7699 110.267 98.7824 110.794 98.7325C111.602 98.5953 112.589 98.3168 113.658 97.9427C112.962 100.491 112.539 102.694 112.348 104.61C109.401 105.653 106.093 106.638 102.333 107.59C102.329 105.944 102.287 104.223 102.212 102.444V102.444ZM87.869 108.925L89.8132 108.018L94.8044 103.995L95.9155 100.919C96.6367 102.382 97.0264 102.956 97.7436 104.431L99.3852 103.708C99.4433 105.292 99.4682 106.834 99.4682 108.305C95.8657 109.132 91.973 109.577 87.9561 109.64L87.869 108.925Z" fill="#FEFEFE"/>
<path d="M112.144 54.1797C116.903 54.1797 121.6 54.4291 126.23 54.9279C129.754 55.6678 133.244 56.5656 136.706 57.6131C138.024 62.2478 138.737 67.1443 138.737 72.1988C138.737 76.3846 138.256 80.4457 137.34 84.3488C131.412 93.7304 125.948 99.2088 115.282 103.503C115.584 101.611 116.136 99.346 117.015 96.64C120.124 95.3307 123.37 93.7761 125.322 92.9655L129.99 88.0524C131.163 83.5133 132.328 78.97 133.493 74.431L129.845 75.5699L134.136 71.0516C135.035 67.4977 135.922 63.9396 136.801 60.3856C134.654 60.6973 132.502 61.0174 130.351 61.3541C130.711 59.5792 130.968 57.8168 131.105 56.0585C130.07 55.7958 129.03 55.5478 127.988 55.3145C127.772 57.2847 127.383 59.4794 126.798 61.9194L126.504 61.9651C124.485 62.306 122.424 62.971 120.63 64.4841L121.206 62.7341C117.748 63.3618 114.303 64.0019 110.859 64.667L107.426 68.2832L107.542 67.9923L108.649 65.0993C105.246 65.7976 101.842 66.5208 98.4386 67.2649C97.7297 62.6551 97.0208 58.4902 96.399 55.1191C101.56 54.4914 106.808 54.1797 112.144 54.1797ZM134.227 93.6431C130.906 101.167 125.89 107.763 119.672 112.959C119.013 113.059 114.921 113.342 114.983 106.745C123.639 103.474 129.269 99.5331 134.227 93.6431ZM116.285 115.565C111.464 118.97 106.066 121.584 100.258 123.222C102.244 119.094 102.269 111.866 102.302 110.615C105.992 109.684 109.275 108.744 112.231 107.734C112.347 111.126 113.698 114.368 116.285 115.565ZM95.5533 124.323C93.9241 124.627 92.2742 124.851 90.6036 125.001C88.7626 123.204 86.9764 121.352 85.2476 119.448C86.9306 117.935 88.0167 115.707 88.1038 112.535C92.0586 112.469 95.8766 112.065 99.421 111.309C99.2221 117.116 98.4137 121.393 96.7679 123.089C96.7057 123.143 96.6767 123.189 96.6518 123.243C96.2332 123.679 95.8683 124.041 95.5533 124.323ZM83.3614 117.324C82.0804 115.852 80.8326 114.347 79.618 112.818L80.7704 112.269C82.3167 112.415 83.8008 112.489 85.1812 112.523C85.0983 114.647 84.4268 116.21 83.3614 117.324ZM60.4615 79.4813C58.8489 75.3787 57.4229 71.1763 56.2041 66.8824C57.5431 66.2465 58.8987 65.6354 60.2584 65.0452L60.6356 65.8391C62.3187 69.3349 64.3459 72.5979 66.5306 75.7694C64.3832 76.7254 62.3436 77.935 60.4615 79.4813V79.4813ZM62.9364 63.9063C72.8691 59.8286 83.0256 57.0187 93.5137 55.5057C94.1314 58.9141 94.8568 63.1789 95.5823 67.8967L93.1696 68.437L90.1061 71.6793C87.9546 69.4014 83.5976 70.8396 80.8533 71.5296C77.8768 72.2903 74.9003 73.0634 71.9322 73.8656C71.045 74.1109 70.162 74.3811 69.2956 74.6804C67.0694 71.4631 64.976 68.1419 63.2473 64.5672L62.9364 63.9063ZM102.215 102.443C104.284 101.528 106.357 100.622 108.421 99.716L109.391 98.7059C109.797 98.7682 110.266 98.789 110.792 98.7308C111.596 98.5936 112.583 98.3152 113.661 97.9452C112.96 100.489 112.542 102.692 112.347 104.608C109.399 105.656 106.091 106.637 102.331 107.593C102.327 105.943 102.286 104.226 102.215 102.443ZM87.8675 108.923L89.8117 108.021L94.803 103.993L95.914 100.917C96.6353 102.385 97.0291 102.954 97.7422 104.434L99.3838 103.706C99.4418 105.294 99.4667 106.836 99.4667 108.312C95.8643 109.131 91.9716 109.576 87.9546 109.638L87.8676 108.923L87.8675 108.923Z" fill="#EF5133"/>
<path d="M100.984 137.505C91.4123 131.004 82.8808 123.352 75.5059 114.764L79.6183 112.815C80.8329 114.344 82.0807 115.845 83.3617 117.32C83.9837 118.036 84.6125 118.745 85.2479 119.449C90.7117 125.463 96.76 130.971 103.351 135.917C102.567 136.454 101.778 136.983 100.984 137.505V137.505ZM55.8852 84.0339C53.087 77.8945 50.7324 71.5098 48.8545 64.9049C65.5443 57.0072 82.827 52.7466 101.171 52.252C109.748 52.3268 118.085 53.2246 126.235 54.9247C121.6 54.4301 116.903 54.1765 112.144 54.1765C106.805 54.1765 101.56 54.4924 96.3993 55.1159C95.4334 55.2282 94.4717 55.3611 93.5141 55.5025C83.0218 57.0155 72.8694 59.8254 62.9368 63.9031C62.0372 64.2731 61.1459 64.6513 60.2546 65.0462C58.8991 65.6323 57.5435 66.2433 56.2045 66.8793C57.4232 71.1731 58.8451 75.3755 60.4619 79.4781C59.5374 80.2347 58.6462 81.0826 57.8046 82.0137L55.8853 84.0339H55.8852Z" fill="#FCB424"/>
<path d="M35.0612 59.6883C56.6344 48.5526 75.5587 42.4922 100.013 42.4922C124.455 42.4922 143.383 48.5526 164.948 59.6883C154.929 100.166 135.797 126.972 100.013 148.483C86.507 140.369 74.7047 130.863 64.8923 119.831C62.1645 121.145 59.9965 122.196 58.8855 122.745C55.5068 124.433 52.1282 126.128 48.7662 127.845C44.9731 129.786 40.7613 132.721 36.3919 131.586C31.6163 129.508 34.7627 123.676 36.2219 120.363C39.9363 111.971 43.8124 103.649 47.8543 95.4024C42.9999 86.266 39.1818 76.3316 36.508 65.5492L35.0612 59.6883ZM100.013 46.6322C77.4739 46.6281 59.8057 51.9195 39.8576 61.8872C42.4651 72.4077 45.9307 82.0304 50.3084 90.8509C51.1292 89.5 52.0619 88.1739 53.148 86.9228C53.6331 86.3908 57.8035 82.0179 57.8035 82.0179C60.3654 79.1789 63.3295 77.1962 66.5298 75.7705C64.3451 72.5989 62.3221 69.3318 60.6349 65.836L60.2576 65.0463C61.1489 64.6514 62.0402 64.2731 62.9397 63.9032L63.2506 64.5683C64.9793 68.1388 67.0687 71.46 69.299 74.6814C70.1654 74.3821 71.0442 74.112 71.9355 73.8667C74.9037 73.0603 77.876 72.283 80.8566 71.5265C83.601 70.8365 87.9579 69.3983 90.1053 71.6761L93.1729 68.4381L95.5815 67.8936C94.8602 63.1799 94.1306 58.911 93.5129 55.5026C94.4705 55.3654 95.4364 55.2282 96.3982 55.116C97.02 58.487 97.7289 62.652 98.4378 67.2618C101.841 66.5177 105.245 65.7986 108.652 65.0961L107.541 67.9892L107.425 68.2801L110.858 64.6639C114.303 63.9988 117.752 63.3587 121.205 62.731L120.629 64.4851C122.424 62.968 124.488 62.3029 126.503 61.962L126.801 61.9163C127.382 59.4763 127.771 57.2858 127.987 55.3114C129.032 55.5441 130.072 55.7977 131.109 56.0554C130.968 57.8137 130.711 59.5761 130.35 61.351C132.501 61.0185 134.657 60.6984 136.8 60.3825C135.921 63.9364 135.034 67.4946 134.135 71.0527L129.844 75.5668L133.492 74.4279C132.331 78.9711 131.162 83.5102 129.993 88.0534L125.326 92.9625C123.373 93.773 120.123 95.3317 117.014 96.6369C116.135 99.3429 115.584 101.608 115.281 103.5C125.947 99.2057 131.411 93.7273 137.339 84.3457C136.593 87.5712 135.536 90.6804 134.226 93.6441C129.268 99.5341 123.638 103.475 114.987 106.746C114.924 113.343 119.016 113.056 119.671 112.956C118.581 113.866 117.449 114.743 116.284 115.562C113.697 114.369 112.346 111.127 112.23 107.731C109.274 108.745 105.995 109.681 102.301 110.612C102.268 111.863 102.243 119.095 100.258 123.223C98.7069 123.661 97.1368 124.027 95.5525 124.32C95.8675 124.042 96.2365 123.676 96.651 123.24C96.6759 123.186 96.7049 123.144 96.7671 123.09C98.4129 121.394 99.2213 117.117 99.4202 111.31C95.8758 112.062 92.0578 112.466 88.1071 112.532C88.0201 115.704 86.934 117.936 85.2509 119.445C84.6125 118.755 83.9824 118.035 83.3605 117.321C84.4301 116.206 85.0975 114.648 85.1804 112.52C83.7999 112.486 82.32 112.411 80.7696 112.266C76.9474 114.078 72.5988 116.157 68.7352 117.99C77.4117 127.617 87.8004 136.063 100.013 143.636C132.526 123.518 150.381 98.7485 160.14 61.883C140.195 51.9154 122.536 46.6322 100.013 46.6322ZM102.214 102.44C102.289 104.223 102.326 105.944 102.33 107.59C106.095 106.634 109.399 105.653 112.346 104.605C112.541 102.689 112.959 100.486 113.66 97.9421C112.586 98.3204 111.6 98.5947 110.796 98.7278C110.269 98.7818 109.801 98.7652 109.39 98.6986L108.424 99.7129C106.356 100.619 104.283 101.525 102.214 102.44ZM87.8667 108.924L87.9538 109.639C91.9708 109.581 95.8634 109.132 99.47 108.305C99.47 106.833 99.4451 105.291 99.3829 103.703L97.7413 104.431C97.0283 102.955 96.6344 102.381 95.9173 100.918L94.8021 103.994L89.811 108.022L87.8667 108.924Z" fill="#081E3F"/>
<path d="M72.3103 75.5656C67.2362 76.9498 62.7093 79.1237 59.0861 83.1432C57.0051 85.5333 55.521 88.2725 54.1364 91.0741C50.0821 99.3417 46.1936 107.68 42.4709 116.093C41.5008 118.288 38.5161 123.625 41.6916 125.005C45.2069 125.919 49.6012 122.96 52.702 121.376C56.0723 119.66 59.4468 117.955 62.8337 116.272C68.6001 113.404 73.7695 109.925 77.2766 104.334C78.6736 101.973 79.7142 99.4415 80.7381 96.9142C82.9394 91.4815 85.1821 86.0487 87.4663 80.6367C88.3244 78.6083 89.8209 76.052 89.3442 73.8365C88.3824 70.8644 83.3747 72.6809 81.1941 73.2254C78.2342 73.9819 75.2702 74.7592 72.3103 75.5656H72.3103ZM65.8972 106.608C63.215 107.809 60.5453 109.014 57.8715 110.249C61.7475 101.237 65.7687 92.2879 69.9681 83.4093C72.3144 82.6611 74.6691 81.9336 77.0362 81.2062C73.1933 89.6193 69.4872 98.0906 65.8972 106.608ZM111.788 66.2547C108.074 71.1221 104.405 76.027 100.782 80.9651C102.473 76.4468 104.189 71.9327 105.918 67.4352C102.067 68.225 98.228 69.0687 94.3934 69.9416C93.4027 72.2694 92.4077 74.593 91.4294 76.9249C92.2585 76.6921 93.0917 76.4635 93.9167 76.2348C90.8946 83.5589 87.9555 90.9079 85.0702 98.2693C83.89 101.264 82.7127 104.259 81.5382 107.256C85.3894 105.435 89.2406 103.627 93.1042 101.848C94.8536 97.0057 96.6154 92.1673 98.4021 87.3415C100.04 90.6336 101.669 93.9339 103.286 97.2426C105.769 96.1245 108.264 95.0271 110.764 93.9381C109.243 90.4631 107.701 86.9964 106.146 83.5298C108.911 79.3232 111.697 75.1333 114.512 70.96C115.302 70.769 116.094 70.582 116.887 70.3989L118.665 64.962C116.373 65.3818 114.076 65.8058 111.788 66.2547V66.2547ZM126.695 63.6984C124.627 64.0433 122.757 64.7084 121.215 66.263C119.951 67.6347 119.279 69.26 118.715 70.9974C117.069 76.185 115.411 81.3766 113.757 86.5683C113.11 88.6217 112.053 92.3586 115.332 92.0801C116.452 91.8972 117.505 91.4358 118.553 90.9827C121.87 89.5653 125.195 88.1645 128.528 86.7845C129.377 83.5298 130.223 80.2668 131.056 76.9997C129.303 77.5484 127.558 78.1095 125.808 78.6706C125.394 80.1421 124.987 81.6177 124.577 83.085C123.362 83.534 122.148 83.9745 120.933 84.4276C122.471 79.1612 124.009 73.8988 125.535 68.6281C126.612 68.3954 127.686 68.1668 128.768 67.9423C128.511 68.8651 128.262 69.7879 128.005 70.7148C129.576 70.3366 131.152 69.9625 132.723 69.605C133.32 67.2306 133.916 64.8558 134.51 62.4805C131.906 62.867 129.299 63.2702 126.695 63.6984Z" fill="#FEFEFE"/>
<path d="M140.694 58.8832C142.274 59.4027 143.75 59.9306 145.226 60.4835C148.923 61.8634 152.194 63.2684 154.897 64.5694C146.548 93.3045 129.448 117.401 105.317 134.551L103.348 135.919C96.2837 130.615 92.1133 126.45 92.1133 126.45L95.438 125.901C105.528 124.213 115.253 119.629 123.296 112.109C137.001 99.2859 142.564 80.9841 139.741 63.7381C139.671 63.3474 139.592 62.9567 139.53 62.5659L139.496 62.3955L139.463 62.2126L139.422 62.0214L139.385 61.8427L139.351 61.6432L139.31 61.4561L139.264 61.2483L139.219 61.0529L139.177 60.8659L139.148 60.7079L139.09 60.4876L139.049 60.2798L139.007 60.126L138.978 59.9722L138.941 59.8226C138.788 59.2032 138.651 58.6753 138.502 58.1641C139.233 58.402 139.964 58.6416 140.694 58.8832ZM140.96 59.2198C142.436 59.7269 143.957 60.2631 145.408 60.8077C143.932 60.2424 142.448 59.7186 140.96 59.2198Z" fill="#0070B9"/>
</svg>
