<svg width="200" height="200" viewBox="0 0 200 200" fill="none" xmlns="http://www.w3.org/2000/svg">
<mask id="mask0_17_1047" style="mask-type:luminance" maskUnits="userSpaceOnUse" x="12" y="0" width="176" height="200">
<path d="M187.655 0H12.3457V200H187.655V0Z" fill="white"/>
</mask>
<g mask="url(#mask0_17_1047)">
<path d="M187.654 0L162.565 25.1879L141.596 4.24611L120.532 25.1908L99.5988 4.24611L78.6732 25.1879L57.7337 4.24611L36.8121 25.1988L12.3452 0.50202V112.03C12.3452 160.534 51.2582 200 99.7343 200C123.051 199.968 145.403 190.688 161.885 174.196C178.368 157.704 187.635 135.347 187.654 112.03V0Z" fill="white"/>
</g>
<mask id="mask1_17_1047" style="mask-type:luminance" maskUnits="userSpaceOnUse" x="12" y="0" width="176" height="200">
<path d="M187.655 0H12.3457V200H187.655V0Z" fill="white"/>
</mask>
<g mask="url(#mask1_17_1047)">
<path d="M20.1714 127.303C22.2398 137.807 26.3897 147.791 32.3766 156.666C36.0221 150.272 43.316 142.33 57.6411 138.955C56.5408 135.277 55.5604 131.366 54.7287 127.303L20.1714 127.303Z" fill="#63727A"/>
</g>
<mask id="mask2_17_1047" style="mask-type:luminance" maskUnits="userSpaceOnUse" x="12" y="0" width="176" height="200">
<path d="M187.655 0H12.3457V200H187.655V0Z" fill="white"/>
</mask>
<g mask="url(#mask2_17_1047)">
<path d="M38.0923 164.225C45.6378 173.142 55.0173 180.326 65.5914 185.289C76.1654 190.252 87.6853 192.876 99.3655 192.982C97.1493 191.85 94.981 190.604 92.8952 189.263C82.9332 182.824 69.2375 170.292 60.3943 147.061C46.4762 150.094 40.5845 157.984 38.0923 164.225Z" fill="#63727A"/>
</g>
<mask id="mask3_17_1047" style="mask-type:luminance" maskUnits="userSpaceOnUse" x="12" y="0" width="176" height="200">
<path d="M187.655 0H12.3457V200H187.655V0Z" fill="white"/>
</mask>
<g mask="url(#mask3_17_1047)">
<path d="M68.9692 145.842C75.2459 161.621 84.7289 173.746 97.1756 181.885C103.673 186.148 110.898 189.182 118.491 190.834C131.552 187.772 143.653 181.53 153.718 172.662C145.781 171.793 137.642 167.225 129.052 162.408C115.638 154.879 98.9341 145.51 76.3819 145.51C73.9468 145.51 71.4586 145.627 68.9692 145.842Z" fill="#63727A"/>
</g>
<mask id="mask4_17_1047" style="mask-type:luminance" maskUnits="userSpaceOnUse" x="12" y="0" width="176" height="200">
<path d="M187.655 0H12.3457V200H187.655V0Z" fill="white"/>
</mask>
<g mask="url(#mask4_17_1047)">
<path d="M102.88 86.2617H73.8794V120.789H85.9272V93.0935H94.978V120.79H106.46V91.098C106.459 88.4675 104.852 86.2617 102.88 86.2617Z" fill="#5A2D81"/>
</g>
<mask id="mask5_17_1047" style="mask-type:luminance" maskUnits="userSpaceOnUse" x="12" y="0" width="176" height="200">
<path d="M187.655 0H12.3457V200H187.655V0Z" fill="white"/>
</mask>
<g mask="url(#mask5_17_1047)">
<path d="M111.536 86.2617V115.881C111.536 118.518 113.13 120.79 115.096 120.79H144.068V99.8266L132.501 99.8133V113.949H123.454V92.9257H144.069V86.2617L111.536 86.2617Z" fill="#5A2D81"/>
</g>
<mask id="mask6_17_1047" style="mask-type:luminance" maskUnits="userSpaceOnUse" x="12" y="0" width="176" height="200">
<path d="M187.655 0H12.3457V200H187.655V0Z" fill="white"/>
</mask>
<g mask="url(#mask6_17_1047)">
<path d="M41.8162 86.2617L35.2631 100.205H31.4785V86.2617H19.4863V120.789H31.4785V106.896H35.2631L41.8162 120.789H53.7969L45.3467 103.55L53.7969 86.2617H41.8162Z" fill="#5A2D81"/>
</g>
<mask id="mask7_17_1047" style="mask-type:luminance" maskUnits="userSpaceOnUse" x="12" y="0" width="176" height="200">
<path d="M187.655 0H12.3457V200H187.655V0Z" fill="white"/>
</mask>
<g mask="url(#mask7_17_1047)">
<path d="M69.4033 86.2617H56.9883V120.789H69.4033V86.2617Z" fill="#5A2D81"/>
</g>
<mask id="mask8_17_1047" style="mask-type:luminance" maskUnits="userSpaceOnUse" x="12" y="0" width="176" height="200">
<path d="M187.655 0H12.3457V200H187.655V0Z" fill="white"/>
</mask>
<g mask="url(#mask8_17_1047)">
<path d="M180.546 95.5995V86.2617H148.714V102.036C148.714 104.666 150.311 106.802 152.273 106.802H168.492V114.327H148.714V120.79H180.562V104.94C180.562 102.488 179.207 100.183 177.384 100.183H160.661V92.9534H169.027V95.6001L180.546 95.5995Z" fill="#5A2D81"/>
</g>
<mask id="mask9_17_1047" style="mask-type:luminance" maskUnits="userSpaceOnUse" x="12" y="0" width="176" height="200">
<path d="M187.655 0H12.3457V200H187.655V0Z" fill="white"/>
</mask>
<g mask="url(#mask9_17_1047)">
<path d="M146.682 51.2473H136.518L157.482 30.273L141.597 14.416L120.532 35.3568L99.5989 14.416L62.7958 51.2473H52.6319L73.5603 30.2413L57.7333 14.416L36.8119 35.3568L19.4873 18.1591V52.5226V79.9291H180.543V53.349V17.3618L146.682 51.2473Z" fill="#5A2D81"/>
</g>
<mask id="mask10_17_1047" style="mask-type:luminance" maskUnits="userSpaceOnUse" x="12" y="0" width="176" height="200">
<path d="M187.655 0H12.3457V200H187.655V0Z" fill="white"/>
</mask>
<g mask="url(#mask10_17_1047)">
<path d="M54.6709 73.2908C54.6713 73.7212 54.842 74.1339 55.1457 74.4389C55.4493 74.7438 55.8613 74.9162 56.2917 74.9185H65.3424V72.4868H57.966V64.5997H65.3424V62.1738H54.6709V73.2908Z" fill="white"/>
</g>
<mask id="mask11_17_1047" style="mask-type:luminance" maskUnits="userSpaceOnUse" x="12" y="0" width="176" height="200">
<path d="M187.655 0H12.3457V200H187.655V0Z" fill="white"/>
</mask>
<g mask="url(#mask11_17_1047)">
<path d="M39.9155 62.1725V74.9172H43.2077V71.5829H47.2913V74.9172H50.5864V63.7967C50.5819 63.5687 50.5307 63.344 50.4357 63.1367C50.3408 62.9293 50.2042 62.7437 50.0344 62.5913C49.8647 62.439 49.6654 62.3232 49.449 62.2512C49.2326 62.1791 49.0037 62.1524 48.7765 62.1725H39.9155ZM47.2919 69.1587H43.2077V64.6014H47.2919V69.1587Z" fill="white"/>
</g>
<mask id="mask12_17_1047" style="mask-type:luminance" maskUnits="userSpaceOnUse" x="12" y="0" width="176" height="200">
<path d="M187.655 0H12.3457V200H187.655V0Z" fill="white"/>
</mask>
<g mask="url(#mask12_17_1047)">
<path d="M172.946 62.1738H165.479C165.051 62.1745 164.641 62.3446 164.338 62.6469C164.035 62.9493 163.865 63.3592 163.863 63.7871V73.292C163.864 73.7212 164.034 74.1327 164.337 74.4372C164.639 74.7416 165.05 74.9144 165.479 74.9179H172.946C173.375 74.9136 173.786 74.7399 174.089 74.4345C174.391 74.1291 174.561 73.7166 174.561 73.2868V63.7871C174.56 63.3591 174.39 62.9489 174.087 62.6465C173.784 62.3441 173.374 62.1741 172.946 62.1738ZM171.253 72.4684H167.183V64.5975H171.253V72.4684Z" fill="white"/>
</g>
<mask id="mask13_17_1047" style="mask-type:luminance" maskUnits="userSpaceOnUse" x="12" y="0" width="176" height="200">
<path d="M187.655 0H12.3457V200H187.655V0Z" fill="white"/>
</mask>
<g mask="url(#mask13_17_1047)">
<path d="M25.1484 68.137C25.1498 68.5668 25.3213 68.9787 25.6255 69.2825C25.9296 69.5863 26.3416 69.7574 26.7715 69.7583H32.5242V72.4862H25.1484V74.9179H35.8199V68.9502C35.821 68.5499 35.6734 68.1635 35.4056 67.8659C35.1379 67.5684 34.7691 67.3809 34.3709 67.3398L34.281 67.3318H28.4378V64.5998H35.8199V62.1738H25.1484V68.137Z" fill="white"/>
</g>
<mask id="mask14_17_1047" style="mask-type:luminance" maskUnits="userSpaceOnUse" x="12" y="0" width="176" height="200">
<path d="M187.655 0H12.3457V200H187.655V0Z" fill="white"/>
</mask>
<g mask="url(#mask14_17_1047)">
<path d="M92.9595 62.1738H83.9146V74.9185H87.2096V71.5842H91.2938V74.9185H94.5912V63.798C94.5888 63.3667 94.4159 62.9538 94.1102 62.6495C93.8045 62.3452 93.3909 62.1742 92.9595 62.1738ZM91.2932 69.16H87.2091V64.6027H91.2932L91.2932 69.16Z" fill="white"/>
</g>
<mask id="mask15_17_1047" style="mask-type:luminance" maskUnits="userSpaceOnUse" x="12" y="0" width="176" height="200">
<path d="M187.655 0H12.3457V200H187.655V0Z" fill="white"/>
</mask>
<g mask="url(#mask15_17_1047)">
<path d="M149.507 64.5966H153.201V74.9175H156.489V64.5966H160.18V62.1738H149.507V64.5966Z" fill="white"/>
</g>
<mask id="mask16_17_1047" style="mask-type:luminance" maskUnits="userSpaceOnUse" x="12" y="0" width="176" height="200">
<path d="M187.655 0H12.3457V200H187.655V0Z" fill="white"/>
</mask>
<g mask="url(#mask16_17_1047)">
<path d="M115.346 62.1738H98.9619V74.9191H102.256V64.6015H106.296V74.9191H109.635V64.6015H113.672V74.9191H116.968V63.7957C116.966 63.3663 116.794 62.9549 116.491 62.6511C116.187 62.3474 115.776 62.1758 115.346 62.1738Z" fill="white"/>
</g>
<mask id="mask17_17_1047" style="mask-type:luminance" maskUnits="userSpaceOnUse" x="12" y="0" width="176" height="200">
<path d="M187.655 0H12.3457V200H187.655V0Z" fill="white"/>
</mask>
<g mask="url(#mask17_17_1047)">
<path d="M144.545 62.1738H135.499V74.9191H138.791V64.6015H142.875V74.9191H146.171V63.7957C146.169 63.3655 145.997 62.9534 145.692 62.6496C145.387 62.3457 144.975 62.1747 144.545 62.1738Z" fill="white"/>
</g>
<mask id="mask18_17_1047" style="mask-type:luminance" maskUnits="userSpaceOnUse" x="12" y="0" width="176" height="200">
<path d="M187.655 0H12.3457V200H187.655V0Z" fill="white"/>
</mask>
<g mask="url(#mask18_17_1047)">
<path d="M121.454 73.2908C121.453 73.7215 121.624 74.1348 121.928 74.44C122.232 74.7451 122.644 74.9172 123.075 74.9185H132.117V72.4868H124.749V69.7548H132.117V67.3341H124.749V64.5997H132.117V62.1738H121.454L121.454 73.2908Z" fill="white"/>
</g>
<mask id="mask19_17_1047" style="mask-type:luminance" maskUnits="userSpaceOnUse" x="12" y="0" width="176" height="200">
<path d="M187.655 0H12.3457V200H187.655V0Z" fill="white"/>
</mask>
<g mask="url(#mask19_17_1047)">
<path d="M78.0439 70.2796H79.8058V63.7931C79.7998 63.5657 79.7474 63.342 79.6519 63.1355C79.5563 62.9291 79.4197 62.7443 79.2502 62.5925C79.0808 62.4408 78.8822 62.3252 78.6665 62.2528C78.4509 62.1805 78.2227 62.1529 77.996 62.1718H69.1338V74.9165H72.426V70.2802H74.8151L76.7868 74.9165H79.996L78.0439 70.2796ZM76.5101 67.8559H72.4266V64.5983H76.5101V67.8559Z" fill="white"/>
</g>
<mask id="mask20_17_1047" style="mask-type:luminance" maskUnits="userSpaceOnUse" x="12" y="0" width="176" height="200">
<path d="M187.655 0H12.3457V200H187.655V0Z" fill="white"/>
</mask>
<g mask="url(#mask20_17_1047)">
<path d="M74.6241 137.084C91.7832 136.735 108.752 141.032 130.405 153.37C146.41 162.49 153.441 165.256 158.24 164.075C162.662 162.987 166.764 160.375 174 145.08C176.594 139.401 178.51 133.437 179.711 127.311H63.3008C64.1112 130.837 64.9071 134.344 65.9717 137.57C68.8446 137.248 71.7332 137.086 74.6241 137.084Z" fill="#63727A"/>
</g>
</svg>
