<svg width="64" height="64" viewBox="0 0 64 64" fill="none" xmlns="http://www.w3.org/2000/svg">
<path d="M54.3627 51.8492L54.3591 49.5468L49.0674 46.7254L48.1608 44.2214L44.8084 39.989L45.726 39.1818L46.4234 39.5904L48.3803 37.8328L48.9992 43.4005L51.2329 37.9356L54.8957 44.3633L53.8967 35.277L49.637 30.5811L47.5362 32.284L47.3828 32.1552L47.162 28.5084L37.3596 24.2933L36.3959 23.4991L40.5661 23.8954L36.0033 20.4994L36.2448 20.259L35.728 11.7768L30.7534 17.6821L30.3247 17.6798L30.5258 13.1233L26.2535 5.58661L26.8893 12.5628L26.3154 13.5562L20.7763 10.4425L24.9221 15.8667L23.0311 19.0472L21.9579 28.1364L17.194 31.3424L20.3701 36.6564L12.4828 42.3257L15.9121 47.22L12.0602 49.5237L12.0573 51.8836L11.1581 54.3834L28.1591 54.3937L32.9185 50.3158L34.5349 50.4703L37.4057 48.1L37.1275 46.7034L38.4401 45.5382L42.5375 49.9942L42.545 52.6343L43.2658 54.4517L55.6064 54.4641L54.3627 51.8492ZM28.5307 49.0894L24.5677 49.0795L22.1644 44.5475L24.7051 43.0074L29.4332 46.0091L28.8545 47.0587L29.6196 48.1475L28.5307 49.0894ZM37.6927 34.287L36.5156 32.2172L38.3499 32.5703L37.6927 34.287ZM39.3896 32.7469L41.9694 33.1589L39.5367 34.2281L39.3896 32.7469ZM41.3712 38.201L39.8509 37.7498L42.6268 33.8554L42.8819 36.9454L41.3712 38.201Z" fill="#EDE1C6"/>
<path d="M29.2512 17.3983L29.4363 13.3673L27.7833 10.4645L27.9925 12.6616L29.2512 17.3983Z" fill="#791026"/>
<path d="M28.568 36.7033L35.884 36.7038L35.8892 30.7538L35.8944 24.7087L32.8996 24.4907L34.67 26.9957L30.5705 26.0502L25.568 31.5488L22.2458 29.936L22.3222 29.2006L18.6534 31.6687L19.2422 32.6257L27.4055 33.3755L28.568 36.7033ZM28.4807 30.7538C29.0351 29.7964 30.0701 29.1505 31.254 29.1505C31.3487 29.1505 31.442 29.1554 31.5347 29.1635C31.5569 29.1631 31.5787 29.1622 31.6012 29.1622V29.1696C32.638 29.2818 33.5275 29.8913 34.027 30.7538C34.3001 31.2252 34.4573 31.7717 34.4573 32.3546C34.4573 34.121 33.0201 35.5584 31.254 35.5584C29.4872 35.5584 28.0507 34.121 28.0507 32.3546C28.0505 31.7717 28.2077 31.2252 28.4807 30.7538Z" fill="#791026"/>
<path d="M41.0532 32.4297L42.4273 32.6652L45.809 29.1046L42.6619 27.7511L41.0532 32.4297Z" fill="#791026"/>
<path d="M37.786 31.8673L38.9459 26.1534L36.5066 25.1033L36.505 31.641L37.786 31.8673Z" fill="#791026"/>
<path d="M24.9617 42.2377L29.0371 39.8821L27.9664 36.8164L21.7357 36.8234L19.6047 33.2454L19.6003 33.245L24.9617 42.2377Z" fill="#791026"/>
<path d="M33.0699 41.1431L35.8737 41.1371H35.8769L35.8782 40.6058H35.8739H33.0744L33.0699 41.1431Z" fill="#791026"/>
<path d="M33.0699 42.2058L35.8733 42.1998H35.8769L35.8782 41.6692H35.8735L33.0744 41.6688L33.0699 42.2058Z" fill="#791026"/>
<path d="M49.2787 35.4442L49.4465 37.1707L50.3124 37.312L50.7483 36.2473L50.7732 34.5167L51.7174 36.5338L52.1811 37.4017L53.0474 37.0677L52.8837 35.6974L51.1241 33.8654L49.2787 35.4442Z" fill="#791026"/>
<path d="M30.1425 23.2999C30.5345 23.2999 30.8523 22.9821 30.8523 22.5905C30.8523 22.1985 30.5345 21.8807 30.1425 21.8807C29.7505 21.8807 29.4334 22.1985 29.4334 22.5905C29.4334 22.9821 29.7505 23.2999 30.1425 23.2999Z" fill="#791026"/>
<path d="M26.1658 49.6537L26.1669 49.6498L23.8255 49.6532L22.6153 53.3135L24.9822 53.3169L26.1658 49.6537Z" fill="#791026"/>
<path d="M47.081 44.6262L43.6605 40.3115L38.92 44.4641L40.4734 46.1578L47.081 44.6262Z" fill="#035130"/>
<path d="M36.4479 37.3542L36.4434 42.3425L40.8674 38.6438L36.4479 37.3542Z" fill="#035130"/>
<path d="M21.5308 44.2342L24.4273 42.4592L21.3459 37.2806L13.957 42.5946L15.4222 44.6673L21.5308 44.2342Z" fill="#035130"/>
<path d="M52.1762 37.4016L53.3173 39.4734L53.0499 37.0701L52.1762 37.4016Z" fill="#035130"/>
<path d="M49.4414 37.1683L49.6325 38.9547L50.316 37.3127L50.3124 37.312L49.4414 37.1683Z" fill="#035130"/>
<path d="M28.9242 12.4682L27.7833 10.4645L27.9925 12.6643L28.9242 12.4682Z" fill="#035130"/>
<path d="M26.1523 14.7785L24.5117 13.7366L25.8316 15.3172L26.1523 14.7785Z" fill="#035130"/>
<path d="M53.2778 51.9544V50.1968L48.1822 47.4871L47.3469 45.1641L40.8843 46.6334L43.5944 49.5673V51.9577L53.2778 51.9544Z" fill="#B95B27"/>
<path d="M43.0476 32.8344L43.4344 36.709L46.281 38.2691L48.6974 36.1103L48.5505 34.6012L46.3559 32.6981L46.1283 29.6196L43.0476 32.8344Z" fill="#B95B27"/>
<path d="M39.2137 37.5634L41.9663 33.7718L39.0756 35.0202L38.813 33.0186L37.7397 35.5098L36.4612 33.2632L36.4683 36.749L39.2137 37.5634Z" fill="#B95B27"/>
<path d="M31.0543 46.823L33.7511 44.5773L29.1853 40.4668L25.3125 42.7077L30.1844 45.8093L29.5112 46.9912L31.527 50.0766L32.2242 49.455L31.0543 46.823Z" fill="#B95B27"/>
<path d="M34.9725 45.696L32.2038 47.9136L32.768 49.214L34.1591 49.3581L36.2174 47.6662L35.9466 46.4335L34.9725 45.696Z" fill="#B95B27"/>
<path d="M23.9017 49.084L21.6424 44.7987L15.7988 45.222L17.468 47.5506L13.1672 50.1156L13.1681 51.9827L18.2893 51.9787L19.2715 49.073L23.9017 49.084Z" fill="#B95B27"/>
<path d="M27.8832 20.4038L28.2641 21.7327L25.1623 28.8767L25.4832 30.7538L30.3596 25.4067L30.3627 25.4033L33.3224 26.0769L31.7258 23.8178L35.4034 24.0989L32.954 22.0818L36.8032 22.4535L34.3558 20.6237L35.1333 19.8316L34.8198 14.5577L31.2583 18.7858L29.6331 18.7289L27.8832 20.4038ZM30.1439 21.2802C30.8654 21.2802 31.4505 21.8645 31.4505 22.5858C31.4505 23.3066 30.8656 23.8913 30.1439 23.8913C29.4231 23.8913 28.8388 23.3066 28.8388 22.5858C28.8388 21.8645 29.4231 21.2802 30.1439 21.2802Z" fill="#B95B27"/>
<path d="M41.0303 30.7538L40.5132 32.3393L41.0694 32.436L41.6424 30.7538L42.6653 27.7439L42.0902 27.4965L41.0303 30.7538Z" fill="#4A3291"/>
<path d="M37.786 31.8673L38.3424 31.9664L39.5191 26.3934L38.9474 26.1458L37.786 31.8673Z" fill="#4A3291"/>
<path d="M27.7907 36.3136L21.428 36.3073L21.7357 36.8235L27.9664 36.8165H27.9801L27.8054 36.3066H27.8029L27.8054 36.3136H27.7907Z" fill="#4A3291"/>
<path d="M35.8352 37.2771L33.474 37.2769L34.6471 38.8795L35.8352 37.2771Z" fill="#4A3291"/>
<path d="M29.4649 26.3925L29.4663 26.3967L30.3663 25.404L30.3602 25.4031L29.1199 25.2183L29.4649 26.3925Z" fill="#4A3291"/>
<path d="M28.0615 26.2029L28.3773 27.595L28.378 27.5977L29.4557 26.4091L29.4512 26.4084L28.0615 26.2029Z" fill="#4A3291"/>
<path d="M26.7058 27.4323L26.9905 29.1003L25.1623 28.8768H25.1614L25.1616 28.8784L25.2403 29.3372L25.4848 30.7628L28.3683 27.6104L28.3654 27.6099L26.7058 27.4323Z" fill="#4A3291"/>
<path d="M32.101 33.9949C33.3654 33.9949 33.9299 33.3964 33.933 32.0551C33.9207 31.9438 33.9013 31.8347 33.8757 31.7276C33.7902 31.3705 33.6341 31.0403 33.4221 30.7538C33.0582 30.2622 32.5314 29.898 31.9222 29.742C31.7902 29.7082 31.6541 29.6844 31.5153 29.6709C30.6501 29.6943 30.073 30.0708 29.8301 30.7538C29.744 30.996 29.6997 31.2765 29.6997 31.5934C29.6993 32.9176 30.7768 33.9949 32.101 33.9949Z" fill="#4A3291"/>
<path d="M31.1166 37.2793L32.2852 38.8916L33.474 37.2768L31.1431 37.2685L31.1166 37.2793L31.0878 37.2661L28.7457 37.2766L29.9273 38.8862L31.1166 37.2793Z" fill="#4A3291"/>
<path d="M44.6925 48.0018L42.9556 46.1603L42.2989 46.3103L44.023 48.1599L44.6925 48.0018Z" fill="#4A3291"/>
<path d="M45.9954 47.704L44.2601 45.8641L43.6029 46.0132L45.3268 47.8623L45.9954 47.704Z" fill="#4A3291"/>
<path d="M47.3116 47.4046L45.5701 45.5656L44.9224 45.7131L46.6422 47.5627L47.3116 47.4046Z" fill="#4A3291"/>
<path d="M26.6932 49.6362L26.1624 49.6395L24.9783 53.3237H25.4965L26.6932 49.6362Z" fill="#4A3291"/>
<path d="M22.615 53.3146L23.223 51.4796L21.3817 52.1419L22.615 53.3146Z" fill="#4A3291"/>
<path d="M21.9741 50.3095L23.2229 51.4796L23.8255 49.6532L21.9741 50.3095Z" fill="#4A3291"/>
<path d="M19.0483 47.1404L17.5826 45.0875L16.9156 45.1358L18.3642 47.2045L19.0483 47.1404Z" fill="#4A3291"/>
<path d="M20.4011 47.0396L18.9429 44.989L18.2702 45.0375L19.7163 47.1039L20.4011 47.0396Z" fill="#4A3291"/>
<path d="M21.773 46.9391L20.3154 44.8895L19.643 44.9381L21.0889 47.0034L21.773 46.9391Z" fill="#4A3291"/>
<path d="M34.3624 16.5971L32.4606 18.823L34.4858 18.8578L34.3624 16.5971Z" fill="#4A3291"/>
<path d="M53.862 51.962L53.8591 49.847L48.6621 47.0763L47.7182 44.4674L44.1213 39.9266L45.6673 38.5675L46.3616 38.9742L48.7691 36.8106L49.2792 41.3946L51.1592 36.7955L54.1348 42.0178L53.417 35.4922L49.5837 31.2668L47.5284 32.9324L46.8957 32.3985L46.6814 28.8457L37.0963 24.7242L34.8178 22.8458L38.8314 23.2279L35.2377 20.5527L35.7309 20.0635L35.3045 13.0545L30.9846 18.1833L29.802 18.177L30.02 13.2445L26.9613 7.84955L27.4017 12.6755L26.5009 14.2341L22.6486 12.0687L25.5253 15.8322L23.5156 19.2114L22.4277 28.4227L17.8665 31.4924L21.0354 36.794L13.1759 42.4431L16.6302 47.3731L12.5595 49.8072L12.5566 51.9712L11.8695 53.8838L27.9743 53.8937L32.755 49.798L34.3765 49.953L36.8577 47.9048L36.5808 46.5199L38.476 44.8383L43.0359 49.7985L43.044 52.5376L43.6049 53.952L54.8152 53.9632L53.862 51.962ZM51.1241 33.8653L52.8837 35.6976L53.316 39.4498L53.3043 39.4433L51.7174 36.534L50.7735 34.5168L50.7485 36.2472L49.6328 38.9548L49.279 35.4443L51.1241 33.8653ZM49.521 32.0661L50.7411 33.406L49.4213 34.5508L47.9665 33.3278L49.521 32.0661ZM46.1283 29.6196L46.3559 32.6981L48.5508 34.601L48.6976 36.11L46.2813 38.2689L43.4347 36.7087L43.0479 32.8341L46.1283 29.6196ZM36.5066 25.1033L45.809 29.1046L42.4273 32.665L36.5052 31.641L36.5066 25.1033ZM42.8819 36.9453L41.3712 38.201L39.8509 37.7498L42.6268 33.8554L42.8819 36.9453ZM41.9694 33.1589L39.5367 34.2281L39.3896 32.7469L41.9694 33.1589ZM38.3499 32.5703L37.6927 34.287L36.5156 32.2172L38.3499 32.5703ZM37.7397 35.5098L38.8127 33.0185L39.0754 35.0202L41.9661 33.7715L39.2135 37.5631L36.4683 36.7488L36.4609 33.2632L37.7397 35.5098ZM36.4479 37.3542L40.8674 38.6438L36.4434 42.3425L36.4479 37.3542ZM31.2583 18.7859L34.8198 14.5575L35.1333 19.8314L34.3558 20.6235L36.8032 22.4533L32.954 22.0816L35.4034 24.0987L31.7258 23.8176L33.3224 26.0767L30.3627 25.4031L25.4832 30.7536L25.1612 28.8788L25.1614 28.8781L25.1612 28.8765L25.1621 28.8767L28.2639 21.7327L27.8829 20.4038L29.6329 18.7292L31.2583 18.7859ZM29.4363 13.3673L29.2512 17.3982L27.9925 12.6613L27.7833 10.4643L29.4363 13.3673ZM24.5117 13.7366L26.1521 14.7786L25.8314 15.3174L24.5117 13.7366ZM24.0765 19.4021L27.6173 13.4586L28.976 18.5592L27.1446 20.2313L27.5849 21.6963L24.5344 28.6494L22.8697 29.5665L24.0765 19.4021ZM19.242 32.6254L18.6532 31.6685L22.322 29.2004L22.2456 29.9358L25.5678 31.5486L30.5703 26.05L34.6698 26.9954L32.8994 24.4905L35.8942 24.7084L35.889 30.7536L35.8838 36.7036L28.5678 36.7031L27.4053 33.375L19.242 32.6254ZM35.873 42.8229L34.2083 44.2083L29.7314 40.1774L28.7477 37.2827L28.7448 37.2789H28.7463L28.7457 37.2766L35.8753 37.2771L35.873 42.8229ZM19.6003 33.245V33.238L26.9509 33.9094L29.0371 39.8821L24.9617 42.2375L19.6003 33.245ZM29.6194 48.1477L28.5307 49.0894L24.5677 49.0795L22.1644 44.5475L24.7051 43.0073L29.4332 46.0091L28.8545 47.0587L29.6194 48.1477ZM15.4223 44.6673L13.9572 42.5946L21.3462 37.2807L24.4275 42.4593L21.531 44.2342L15.4223 44.6673ZM17.8665 53.3L12.7304 53.2952L12.9983 52.5519L18.0887 52.5564L17.8665 53.3ZM13.1681 51.9827L13.1674 50.1158L17.4682 47.5508L15.799 45.2222L21.6426 44.7989L23.902 49.0842L19.2717 49.0732L18.2895 51.9789L13.1681 51.9827ZM27.7687 53.3135H18.4715L19.6877 49.6543L28.7405 49.6532L29.9048 48.6629L31.1013 50.4689L27.7687 53.3135ZM31.527 50.0767L29.5112 46.9912L30.1844 45.8094L25.3125 42.7078L29.1853 40.4668L33.7511 44.5774L31.0543 46.823L32.2242 49.455L31.527 50.0767ZM34.1591 49.3581L32.768 49.214L32.2035 47.9136L34.9723 45.696L35.9464 46.4335L36.2171 47.6662L34.1591 49.3581ZM36.2997 45.9857L34.9638 44.9548L31.9496 47.3758L31.7706 46.9764L34.6966 44.5614L43.3258 37.3092L45.1023 38.2866L36.2997 45.9857ZM40.4734 46.1578L38.9202 44.464L43.6607 40.3117L47.0812 44.6264L40.4734 46.1578ZM43.5944 51.9578V49.5673L40.8843 46.6332L47.3466 45.1639L48.1821 47.4867L53.2777 50.1963V51.9539L43.5944 51.9578ZM43.6355 52.5412L53.5478 52.5393L53.9457 53.3722H43.9857L43.6355 52.5412Z" fill="#010101"/>
<path d="M31.2538 35.5584C33.0199 35.5584 34.457 34.1211 34.457 32.3547C34.457 31.7717 34.2998 31.2252 34.0268 30.7538C33.5273 29.8913 32.6378 29.2821 31.601 29.1696V29.1622C31.5785 29.1622 31.5567 29.1631 31.5344 29.1636C31.4418 29.1555 31.3484 29.1505 31.2538 29.1505C30.0699 29.1505 29.0351 29.7964 28.4805 30.7538C28.2075 31.2252 28.0503 31.7717 28.0503 32.3547C28.0505 34.1211 29.4869 35.5584 31.2538 35.5584ZM29.8297 30.7538C30.0726 30.071 30.6499 29.6943 31.5149 29.6709C31.6539 29.6844 31.7897 29.7083 31.9217 29.742C32.5312 29.8979 33.0579 30.2622 33.4216 30.7538C33.6337 31.0404 33.7898 31.3703 33.8752 31.7277C33.9009 31.8345 33.9202 31.9438 33.9326 32.0551C33.9294 33.3964 33.3649 33.9949 32.1005 33.9949C30.7763 33.9949 29.6988 32.9176 29.6988 31.5934C29.6992 31.2763 29.7435 30.9961 29.8297 30.7538ZM29.0853 30.7538C29.1928 30.6088 29.3142 30.4747 29.448 30.354C29.388 30.4783 29.339 30.6121 29.2996 30.7538C29.2294 31.0075 29.1925 31.288 29.1925 31.5934C29.1925 33.1974 30.497 34.5021 32.1007 34.5021C32.4527 34.5021 32.7669 34.4575 33.0422 34.3698C32.5658 34.7929 31.9397 35.0508 31.2538 35.0508C29.7667 35.0508 28.557 33.8411 28.557 32.3547C28.557 31.7558 28.7535 31.2018 29.0853 30.7538Z" fill="#010101"/>
<path d="M26.7337 21.1136L24.9212 20.5073L24.6666 21.1811L26.4517 21.7633L26.7337 21.1136Z" fill="#010101"/>
<path d="M27.1095 15.4031L25.2525 18.536H26.3066L27.1095 15.4031Z" fill="#010101"/>
<path d="M24.307 27.7007C24.1631 27.7007 24.0479 27.8163 24.0479 27.9594C24.0479 28.1026 24.1631 28.2182 24.307 28.2182C24.4494 28.2182 24.5654 28.1026 24.5654 27.9594C24.5654 27.8166 24.4494 27.7007 24.307 27.7007Z" fill="#010101"/>
<path d="M24.4287 27.3645C24.571 27.3645 24.6871 27.2486 24.6871 27.1058C24.6871 26.9632 24.571 26.8467 24.4287 26.8467C24.2856 26.8467 24.1689 26.963 24.1689 27.1058C24.1689 27.2486 24.2856 27.3645 24.4287 27.3645Z" fill="#010101"/>
<path d="M24.5506 26.5105C24.6931 26.5105 24.809 26.3949 24.809 26.2517C24.809 26.1084 24.6929 25.993 24.5506 25.993C24.4066 25.993 24.2915 26.1086 24.2915 26.2517C24.2915 26.3949 24.4066 26.5105 24.5506 26.5105Z" fill="#010101"/>
<path d="M23.581 28.077C23.438 28.077 23.3219 28.1931 23.3219 28.3357C23.3219 28.4789 23.438 28.5948 23.581 28.5948C23.7241 28.5948 23.8401 28.4789 23.8401 28.3357C23.8401 28.1931 23.7241 28.077 23.581 28.077Z" fill="#010101"/>
<path d="M23.7036 27.2233C23.5603 27.2233 23.4438 27.3389 23.4438 27.4821C23.4438 27.6249 23.5605 27.7405 23.7036 27.7405C23.8459 27.7405 23.962 27.6249 23.962 27.4821C23.962 27.3389 23.8459 27.2233 23.7036 27.2233Z" fill="#010101"/>
<path d="M23.8246 26.3693C23.6815 26.3693 23.5662 26.4854 23.5662 26.6282C23.5662 26.7712 23.6815 26.8873 23.8246 26.8873C23.9676 26.8873 24.0837 26.7712 24.0837 26.6282C24.0837 26.4851 23.9678 26.3693 23.8246 26.3693Z" fill="#010101"/>
<path d="M28.8388 22.5856C28.8388 23.3064 29.4231 23.8911 30.1439 23.8911C30.8654 23.8911 31.4506 23.3064 31.4506 22.5856C31.4506 21.8643 30.8656 21.28 30.1439 21.28C29.4231 21.2803 28.8388 21.8645 28.8388 22.5856ZM30.1425 21.8807C30.5345 21.8807 30.8523 22.1985 30.8523 22.5905C30.8523 22.9821 30.5345 23.2999 30.1425 23.2999C29.7505 23.2999 29.4334 22.9821 29.4334 22.5905C29.4334 22.1985 29.7505 21.8807 30.1425 21.8807Z" fill="#010101"/>
<path d="M57.3194 53.531C57.3194 53.3641 57.1849 53.2298 57.0187 53.2298L56.5914 53.2296V54.2423H56.7821V53.8303H56.918L57.1101 54.2423H57.3194L57.1197 53.8137C57.2362 53.7716 57.3194 53.6612 57.3194 53.531ZM57.0187 53.6407H56.7821V53.4197H57.0187C57.0799 53.4197 57.1294 53.4691 57.1294 53.531C57.1294 53.5913 57.0799 53.6407 57.0187 53.6407Z" fill="#010101"/>
<path d="M56.9556 52.8499C56.4666 52.8499 56.0695 53.2466 56.0695 53.7363C56.0695 54.2254 56.4666 54.6224 56.9556 54.6224C57.4452 54.6224 57.8417 54.2254 57.8417 53.7363C57.8419 53.2466 57.4452 52.8499 56.9556 52.8499ZM56.9556 54.4325C56.5712 54.4325 56.2593 54.1206 56.2593 53.7363C56.2593 53.3512 56.5712 53.04 56.9556 53.04C57.3406 53.04 57.6519 53.3514 57.6519 53.7363C57.6521 54.1206 57.3406 54.4325 56.9556 54.4325Z" fill="#010101"/>
</svg>
