<svg width="73" height="64" viewBox="0 0 73 64" fill="none" xmlns="http://www.w3.org/2000/svg">
<path d="M61.6907 32.7969C61.0609 32.7969 60.5496 33.3074 60.5496 33.9376C60.5496 34.5671 61.0609 35.0783 61.6907 35.0783C62.3204 35.0783 62.8309 34.5671 62.8309 33.9376C62.8309 33.3074 62.3204 32.7969 61.6907 32.7969ZM61.6907 34.8336C61.573 34.8337 61.4565 34.8106 61.3477 34.7656C61.239 34.7206 61.1401 34.6546 61.0569 34.5714C60.9737 34.4882 60.9077 34.3894 60.8627 34.2806C60.8177 34.1719 60.7946 34.0553 60.7947 33.9376C60.7947 33.4426 61.1951 33.0422 61.6907 33.0422C62.1857 33.0422 62.5865 33.4426 62.5865 33.9376C62.5865 34.4328 62.1857 34.8336 61.6907 34.8336ZM62.1593 33.6732C62.1593 33.6224 62.1493 33.5721 62.1298 33.5252C62.1103 33.4783 62.0818 33.4356 62.0459 33.3998C62.0099 33.3639 61.9673 33.3354 61.9203 33.316C61.8734 33.2966 61.8231 33.2867 61.7723 33.2867H61.2227V34.5888H61.467V34.06H61.6423L61.8892 34.5888H62.1594L61.9016 34.0374C61.9769 34.0107 62.0421 33.9613 62.0882 33.8961C62.1344 33.8309 62.1593 33.753 62.1594 33.6732H62.1593ZM61.7723 33.8155H61.467V33.5307H61.7723C61.8508 33.5307 61.915 33.5944 61.915 33.6732C61.9149 33.711 61.8998 33.7472 61.873 33.7738C61.8463 33.8005 61.8101 33.8155 61.7723 33.8155Z" fill="white"/>
<path d="M59.09 34.0449C60.8517 31.4926 61.7556 28.9421 61.7556 26.4578C61.7556 19.9048 55.0542 15.5001 45.0784 15.5001C45.0784 15.5001 44.6019 15.5082 44.2705 15.5134C43.2615 13.8597 41.3823 12.9386 39.8021 12.6015L36.7801 7.82501L30.3775 18.2877C18.7855 22.6032 10.7032 30.6622 10.7032 37.9354C10.7032 40.6546 11.8698 43.0647 14.0588 44.9482L9.22652 52.8417C9.22652 52.8417 17.7036 51.4912 30.5286 50.7483L31.3114 48.6773C35.0686 48.2803 38.9794 47.313 42.7022 45.8665C42.7359 46.1172 42.7928 46.3807 42.9231 46.6404L43.6242 48.04C44.6736 50.1401 46.7541 52.6433 50.7012 52.6433C60.7675 52.6433 63.7709 44.1385 63.7709 44.1385C63.9009 37.4474 59.09 34.0449 59.09 34.0449Z" fill="white"/>
<path d="M58.3271 34.16C60.1426 31.6716 61.1919 29.0477 61.1919 26.4577C61.1919 20.5512 55.3105 16.0632 45.0784 16.0632C44.7073 16.0632 44.3352 16.0717 43.9625 16.0833C43.0135 14.2264 40.8747 13.3538 39.4498 13.0992L36.7889 8.89136L30.7591 18.742C19.9855 22.7026 11.2668 30.4607 11.2668 37.9354C11.2668 40.6266 12.4913 43.0218 14.7883 44.8335L10.3342 52.1109C10.3342 52.1109 19.5375 50.7762 30.1311 50.2057L30.9059 48.1555C35.1228 47.7486 39.3506 46.6447 43.2539 45.0465C43.2303 45.2069 43.1576 45.8483 43.4272 46.3879L44.1275 47.7895C45.2362 50.0055 47.2449 52.08 50.7006 52.08C60.3569 52.08 63.2077 44.0419 63.2077 44.0419C63.2077 39.5523 61.147 36.2948 58.3271 34.16Z" fill="#236192"/>
<path d="M60.2542 41.486C59.6382 42.4245 58.6293 43.5217 58.3326 43.8387L58.3271 46.6465L58.1454 46.6646L57.7623 46.7011L56.7938 45.203C49.7701 50.1351 44.4994 47.1015 44.4994 47.1015L46.0821 49.5369C48.901 53.1507 58.1105 51.8475 62.0368 45.1601L61.5042 45.1394C61.4117 43.6201 60.2542 41.486 60.2542 41.486Z" fill="#010101"/>
<path d="M49.9177 31.0475L41.3747 17.5402C41.0808 17.4771 40.7656 17.4474 40.4327 17.4474L49.01 31.0089C49.3079 31.0127 49.6111 31.0245 49.9177 31.0475ZM23.9073 32.7969L36.8091 11.7186L37.6422 13.0366C37.9821 13.0709 38.3053 13.1157 38.6102 13.1699L36.7989 10.3056L23.7903 31.5587C23.7918 31.8148 23.8109 32.2676 23.9073 32.7969Z" fill="#A2AAAD"/>
<path d="M38.2347 41.2907C33.3343 41.2907 30.0552 43.744 25.5916 43.744C19.3779 43.744 17.473 39.3593 17.473 36.3251C17.473 26.9755 28.4953 21.339 28.4953 21.339L28.7123 20.9846C28.6754 21.0008 28.5804 21.0461 28.4389 21.1153C26.608 22.0182 16.7158 27.3108 16.7158 36.3251C16.7158 37.7684 17.0477 39.0705 17.6311 40.1884C17.762 40.4384 17.9063 40.6811 18.0632 40.9156L11.7991 51.1476C11.7991 51.1476 19.5278 50.0456 29.6036 49.4863L31.9396 43.3052C33.9832 42.7037 35.9774 42.1003 38.5512 42.1003C44.0017 42.1003 47.5051 45.0187 47.5051 45.0187C47.5051 45.0187 45.5097 41.2907 38.2347 41.2907Z" fill="#A2AAAD"/>
<path d="M40.4327 17.4474C38.1942 17.4538 35.1294 18.856 31.8862 21.1463L33.3618 18.7411L34.3722 17.9239L35.1418 15.1338L36.3919 14.7492L36.7604 12.9693C37.0681 12.9836 37.3594 13.0076 37.6422 13.0366L36.8091 11.7187L23.9073 32.797C24.1819 34.3069 25.089 36.4411 28.0249 36.4411C33.904 36.4411 42.4038 31.0067 48.8697 31.0067C48.9156 31.0067 48.9629 31.0089 49.0099 31.0089L40.4327 17.4475V17.4474ZM18.545 41.5584L13.2552 50.1996C13.2552 50.1996 19.845 49.3183 29.0767 48.7696L31.043 43.5645C29.2892 44.0626 27.4346 44.4955 25.0981 44.4955C22.467 44.4955 20.0898 43.4115 18.545 41.5584Z" fill="#6F263D"/>
<path d="M53.32 48.8492L53.7519 48.136C47.9033 50.0734 45.4866 48.0686 45.4866 48.0686C47.4647 50.292 51.718 49.3196 53.32 48.8492Z" fill="#A2AAAD"/>
<path d="M46.3688 49.2565C48.0532 51.3199 53.1801 51.1063 57.1952 48.7041L57.4963 47.91C54.9797 49.6369 49.3835 51.2362 46.3688 49.2565ZM36.8865 26.9181L34.2353 33.9659C34.2353 33.9659 30.5444 35.3606 28.109 35.7587C32.9927 36.1285 41.4749 30.6015 47.0182 30.6015C44.523 29.8217 38.5281 32.1843 38.5281 32.1843L36.8865 26.9181Z" fill="#A2AAAD"/>
<path d="M36.8204 29.2158C36.3176 30.5519 35.7444 32.077 35.1989 33.5269L37.8267 32.4434C37.5145 31.4432 37.1612 30.3112 36.8204 29.2158Z" fill="#236192"/>
<path d="M28.4389 21.1153C20.1709 24.3301 13.759 30.0844 13.759 35.8707C13.759 38.3706 14.8768 40.3172 16.6466 41.7969L17.6312 40.1885C17.0478 39.0705 16.7159 37.7685 16.7159 36.3252C16.7159 27.3108 26.6081 22.0183 28.439 21.1153H28.4389ZM57.2261 33.4063C58.2121 31.7784 58.7647 30.0857 58.7647 28.3895C58.7647 21.9378 51.3167 19.1668 44.4247 18.6195C44.3795 19.1539 44.2583 19.7334 44.0426 20.3609L50.865 31.1466C52.9947 31.4342 55.2413 32.1754 57.2261 33.4063ZM41.3747 17.5404C42.345 17.7476 43.0948 18.3077 43.5434 19.2872C44.1027 17.1534 43.4044 14.0179 38.6103 13.17C38.2894 13.1135 37.9665 13.069 37.6423 13.0367C37.349 13.0059 37.0549 12.9834 36.7604 12.9693L36.3919 14.7492L35.1418 15.1337L34.3722 17.9239L33.3618 18.7412L31.8862 21.1464C35.1294 18.856 38.1942 17.4538 40.4327 17.4474C40.7656 17.4474 41.0808 17.4772 41.3747 17.5404Z" fill="white"/>
<path d="M48.875 31.5976C41.7908 31.5976 34.0083 37.1173 27.8983 37.1173C26.0846 37.1173 25.5376 36.4442 25.5376 36.4442L25.273 36.8551C25.273 36.8551 17.7834 33.2599 28.0105 22.1299C28.0105 22.1299 19.2046 26.7215 18.5032 36.0114L19.0359 35.5671C19.0359 35.5671 18.7587 41.8189 25.838 41.8189C31.5316 41.8189 33.5507 39.7053 38.8331 39.7053C50.1025 39.7053 51.9082 46.1295 51.9082 46.1295C51.9082 46.1295 44.523 48.3066 44.0359 44.2284C44.0359 44.2284 42.9094 49.0064 52.375 46.6017C52.375 46.6017 52.9728 45.6658 52.9015 44.4458C52.9015 44.4458 53.775 45.3234 53.9264 45.9934C53.9264 45.9934 54.6432 45.174 53.4936 42.966C53.4936 42.966 54.4748 43.863 55.1136 45.171L55.5096 44.8377C55.5096 44.8377 55.5393 43.8819 53.6372 41.3162L52.344 42.1284C52.344 42.1284 49.3314 36.4376 38.1318 37.1682C38.1318 37.1682 47.4586 33.8598 52.8846 40.5958L54.0536 39.7957C54.0536 39.7957 57.309 42.9593 58.1454 46.6647L58.3272 46.6466L58.3326 43.8388L58.3396 40.4847L59.2831 41.5893C59.2831 41.5893 59.7398 40.7589 59.1923 39.0238C59.1923 39.0238 61.3835 41.1652 62.0368 45.1602L62.2057 42.9368C62.2057 41.0211 59.0248 31.5976 48.875 31.5976ZM57.0294 37.9835L56.7059 40.3943L55.194 38.7999L54.4541 39.1865C53.4369 37.8977 49.5162 34.6342 44.9254 34.6342C38.3396 34.6342 32.7052 39.3897 27.0648 39.3897C20.908 39.3897 20.6601 35.7139 20.6601 34.2592C20.6601 31.5588 22.241 28.6143 22.241 28.6143C21.6996 30.2664 19.3918 38.4015 27.4929 38.4015C33.8679 38.4015 37.2838 34 44.7145 34C51.8639 34 54.7501 38.0751 54.7501 38.0751L55.3059 37.7248L56.3612 38.8616L56.4419 37.6855L57.0914 36.5491C55.59 33.5871 52.2344 32.5458 52.2344 32.5458C56.6292 33.371 57.9459 36.5788 57.9459 36.5788L57.0294 37.9835Z" fill="white"/>
<path d="M32.4487 44.0706L31.8237 45.7262C35.5348 45.5976 39.2887 44.8402 42.7686 43.6297C38.9523 41.8587 33.053 43.8576 32.4487 44.0706Z" fill="white"/>
<path d="M42.5006 16.8928C40.4797 14.9698 35.7025 16.5401 35.7025 16.5401L35.5746 17.0535C40.3838 15.2579 42.5006 16.8928 42.5006 16.8928Z" fill="#236192"/>
<path d="M33.5218 19.4795C39.5016 16.1364 41.9489 17.0345 42.8685 17.8397C40.0218 14.8524 34.0196 18.7169 34.0196 18.7169L33.5219 19.4796L33.5218 19.4795Z" fill="#A2AAAD"/>
</svg>
