<svg width="64" height="64" viewBox="0 0 64 64" fill="none" xmlns="http://www.w3.org/2000/svg">
<g clip-path="url(#clip0_33_1943)">
<path d="M31.9952 57C45.8022 57 56.9904 45.8119 56.9904 32.0048C57 18.1978 45.8022 7 31.9952 7C18.1881 7 7 18.1978 7 31.9952C7 45.8022 18.1881 57 31.9952 57ZM31.9952 8.62719C33.5742 12.5748 36.0295 14.0768 36.0295 16.8979C36.0295 18.8236 34.4408 20.7108 31.9952 20.7108C29.5592 20.7108 27.9609 18.8332 27.9609 16.8979C27.9705 14.0768 30.4161 12.5748 31.9952 8.62719ZM30.6087 8.20354C27.7587 12.6807 26.4685 14.3272 26.4685 16.8305C26.4685 19.8346 28.9911 22.2706 32.0048 22.2706C35.0089 22.2706 37.5411 19.8346 37.5411 16.8305C37.5411 14.3272 36.2509 12.6807 33.4009 8.20354C45.9178 8.92567 55.8542 19.305 55.8542 32.0048C55.8542 45.1764 45.1764 55.8446 32.0144 55.8446C18.8332 55.8446 8.1554 45.1668 8.1554 31.9952C8.1554 19.2954 18.0919 8.91604 30.6087 8.20354Z" fill="white"/>
<path d="M17.0135 28.8467C16.5128 28.8467 16.1084 29.2511 16.1084 29.7517V37.0789C16.1084 37.5796 16.5128 37.984 17.0135 37.984C17.5142 37.984 17.9186 37.5796 17.9186 37.0789V29.7517C17.9186 29.2511 17.5142 28.8467 17.0135 28.8467Z" fill="white"/>
<path d="M40.5066 31.5715C40.9399 31.5715 41.2865 31.2249 41.2865 30.7916V29.6266C41.2865 29.1933 40.9399 28.8467 40.5066 28.8467C40.0734 28.8467 39.7267 29.1933 39.7267 29.6266V30.7916C39.7267 31.2249 40.0734 31.5715 40.5066 31.5715Z" fill="white"/>
<path d="M31.9952 53.6686C43.9632 53.6686 53.6686 43.9632 53.6686 31.9952C53.6686 21.9528 46.8421 13.5087 37.57 11.0439C38.0611 11.6601 39.6979 13.9131 39.6979 16.8209C39.6979 21.0189 36.2413 24.4369 31.9952 24.4369C27.7491 24.4369 24.2925 21.0189 24.2925 16.8209C24.2925 13.9131 25.9293 11.6601 26.4204 11.0439C17.1579 13.5087 10.3314 21.9624 10.3314 31.9952C10.3314 43.9632 20.0272 53.6686 31.9952 53.6686ZM44.5024 34.5948H46.0622V37.0597C46.0622 37.57 46.4762 37.9744 46.9769 37.9744C47.4872 37.9744 47.8916 37.5604 47.8916 37.0597V36.0102C47.8916 35.7598 47.7375 35.4132 47.5546 35.2495L44.8394 32.8328C44.6468 32.6691 44.5024 32.3225 44.5024 32.0722V27.3447C44.5024 26.4011 45.2727 25.6308 46.2163 25.6308H48.2382C49.1818 25.6308 49.9521 26.4011 49.9521 27.3447V30.8783H47.8916V29.5014C47.8916 29.1355 47.5931 28.8371 47.2272 28.8371C46.8614 28.8371 46.5629 29.1355 46.5629 29.5014V31.1094C46.5629 31.3597 46.7169 31.7063 46.9095 31.87L49.6247 34.2963C49.8076 34.46 49.9617 34.8066 49.9617 35.057V35.7502C49.9617 40.5933 47.8723 44.9549 44.5024 48.0841V34.5948ZM37.0019 37.984C37.3678 37.984 37.6663 37.6855 37.6663 37.3293V29.5111C37.6663 29.1452 37.3678 28.8467 37.0019 28.8467V25.6308H41.6332C42.5768 25.6308 43.347 26.4011 43.347 27.3447V31.5715C43.347 32.2262 42.6056 32.5247 42.6056 32.5247C42.6056 32.5247 43.347 32.8232 43.347 33.4779V37.3196C43.347 37.6855 43.6455 37.9744 44.0114 37.9744V46.8517C44.0114 48.527 43.5877 48.8833 43.5877 48.8833C42.7789 49.538 41.9124 50.1253 40.9977 50.6356C41.0844 50.3275 41.1518 49.9713 41.1518 49.5284V34.1904C41.1518 33.7957 40.834 33.4779 40.4393 33.4779C40.0445 33.4779 39.7268 33.7957 39.7268 34.1904V37.05C39.7268 37.5603 40.1408 37.9744 40.6511 37.9744V49.3743C40.6511 50.8186 39.8616 51.2037 39.8616 51.2037C38.7543 51.714 37.5893 52.1184 36.3761 52.4169C36.742 52.051 37.0116 51.5407 37.0116 50.8764V37.984H37.0019ZM29.9347 25.6212H36.5109V30.8783H34.9511V29.7421C34.9511 29.2415 34.5467 28.8371 34.046 28.8371C33.5454 28.8371 33.141 29.2415 33.141 29.7421V31.5715H34.9415V33.9208H33.141V37.0886C33.141 37.5892 33.5454 37.9936 34.046 37.9936C34.5467 37.9936 34.9511 37.5892 34.9511 37.0886V34.6044H36.5109V50.886C36.5109 52.3976 34.797 52.7346 34.797 52.7346C33.8824 52.8694 32.9484 52.9464 31.9952 52.9464C31.2153 52.9464 30.445 52.8983 29.694 52.802C29.9347 52.648 30.4258 52.2147 30.4258 51.2711V37.984C30.7917 37.984 31.0805 37.6855 31.0805 37.3293V30.0021C31.0805 29.3666 30.5606 28.8467 29.9251 28.8467V25.6212H29.9347ZM24.3407 49.5476V37.984C24.7065 37.984 24.9954 37.6855 24.9954 37.3293V29.5111C24.9954 29.1452 24.6969 28.8467 24.3407 28.8467V25.6308H27.7202V28.8467C27.3543 28.8467 27.0655 29.1452 27.0655 29.5111V37.3293C27.0655 37.6951 27.364 37.984 27.7202 37.984C28.0861 37.984 28.3749 37.6855 28.3749 37.3293V34.6044H29.9347V51.2711C29.9347 52.8309 28.3749 52.5998 28.3749 52.5998C26.6707 52.2628 25.0532 51.7044 23.5608 50.9437C23.8207 50.8378 24.3407 50.5201 24.3407 49.5476ZM20.4701 45.86V37.984C20.8359 37.984 21.1248 37.6855 21.1248 37.3293V29.5111C21.1248 29.1452 20.8263 28.8467 20.4701 28.8467V25.6308H23.8496V28.8467C23.4837 28.8467 23.1949 29.1452 23.1949 29.5111V37.3293C23.1949 37.6951 23.4934 37.984 23.8496 37.984V49.5476C23.8496 50.886 22.675 50.4431 22.675 50.4431C21.3944 49.7017 20.2197 48.8063 19.1799 47.7857C19.6228 47.7664 20.4701 47.5064 20.4701 45.86ZM14.0383 27.335C14.0383 26.3915 14.8086 25.6212 15.7522 25.6212H18.2555C19.1991 25.6212 19.9694 26.3915 19.9694 27.335V45.86C19.9694 47.6894 18.7755 47.4968 18.2555 46.8228C15.6174 43.838 14.0287 39.9771 14.0287 35.7598V27.335H14.0383Z" fill="white"/>
<path d="M52.4939 51.2133C52.4939 50.5008 51.9162 49.9327 51.2134 49.9327C50.5009 49.9327 49.9328 50.5104 49.9328 51.2133C49.9328 51.9258 50.5105 52.5035 51.2134 52.5035C51.9162 52.4939 52.4939 51.9162 52.4939 51.2133ZM50.2024 51.2133C50.2024 50.6549 50.6549 50.2023 51.2134 50.2023C51.7718 50.2023 52.2243 50.6549 52.2243 51.2133C52.2243 51.7718 51.7718 52.2243 51.2134 52.2243C50.6549 52.2243 50.2024 51.7718 50.2024 51.2133Z" fill="#00205B"/>
<path d="M51.7429 51.9451L51.4541 51.3193C51.6274 51.2615 51.7429 51.0978 51.7429 50.9053C51.7429 50.6646 51.5503 50.472 51.3096 50.472H50.6934V51.9451H50.9726V51.3482H51.1748L51.4541 51.9451H51.7429ZM51.3 51.0689H50.9534V50.7512H51.3C51.3867 50.7512 51.4637 50.8186 51.4637 50.9149C51.4637 51.0015 51.3867 51.0689 51.3 51.0689Z" fill="#00205B"/>
<path d="M36.0294 16.9076C36.0294 14.0865 33.5838 12.5748 31.9952 8.63684C30.4161 12.5845 27.9609 14.0865 27.9609 16.9076C27.9609 18.8333 29.5592 20.7204 31.9952 20.7204C34.4408 20.7108 36.0294 18.8333 36.0294 16.9076Z" fill="#D14520"/>
<path d="M33.3913 8.20355C36.2413 12.6807 37.5315 14.3272 37.5315 16.8306C37.5315 19.8346 35.0089 22.2706 31.9952 22.2706C28.9911 22.2706 26.4589 19.8346 26.4589 16.8306C26.4589 14.3272 27.7491 12.6807 30.5991 8.20355C18.0919 8.91605 8.1554 19.2954 8.1554 31.9952C8.1554 45.1668 18.8332 55.835 31.9952 55.835C45.1668 55.835 55.835 45.1571 55.835 31.9952C55.8446 19.2954 45.9081 8.91605 33.3913 8.20355ZM31.9952 53.6686C20.0271 53.6686 10.3218 43.9632 10.3218 31.9952C10.3218 21.9528 17.1483 13.5088 26.4204 11.0439C25.9293 11.6601 24.2925 13.9132 24.2925 16.8209C24.2925 21.0189 27.7491 24.4369 31.9952 24.4369C36.2413 24.4369 39.6979 21.0189 39.6979 16.8209C39.6979 13.9132 38.061 11.6601 37.57 11.0439C46.8421 13.5088 53.6686 21.9528 53.6686 31.9952C53.6686 43.9632 43.9632 53.6686 31.9952 53.6686Z" fill="#00205B"/>
<path d="M36.5109 34.5948H34.9608V37.0789C34.9608 37.5796 34.5564 37.984 34.0557 37.984C33.555 37.984 33.1506 37.5796 33.1506 37.0789V33.9112H34.9511V31.5619H33.1506V29.7325C33.1506 29.2318 33.555 28.8275 34.0557 28.8275C34.5564 28.8275 34.9608 29.2318 34.9608 29.7325V30.8783H36.5109V25.6212H29.9348V28.8371C30.5702 28.8371 31.0902 29.3474 31.0902 29.9925V37.3197C31.0902 37.6855 30.7917 37.9744 30.4354 37.9744V51.2519C30.4354 52.2051 29.9348 52.6287 29.7037 52.7828C30.4547 52.8791 31.225 52.9272 32.0048 52.9272C32.9581 52.9272 33.892 52.8502 34.8067 52.7154C34.8067 52.7154 36.5205 52.3784 36.5205 50.8667V34.5948H36.5109Z" fill="#00205B"/>
<path d="M29.9347 34.5948H28.3749V37.3293C28.3749 37.6952 28.0765 37.984 27.7202 37.984C27.3543 37.984 27.0655 37.6855 27.0655 37.3293V29.5014C27.0655 29.1356 27.364 28.8371 27.7202 28.8371V25.6212H24.3407V28.8371C24.7065 28.8371 24.9954 29.1356 24.9954 29.5014V37.3197C24.9954 37.6855 24.6969 37.9744 24.3407 37.9744V49.538C24.3407 50.5009 23.8111 50.8186 23.5608 50.9149C25.0532 51.6755 26.6707 52.2436 28.3749 52.571C28.3749 52.571 29.9347 52.8117 29.9347 51.2422V34.5948Z" fill="#00205B"/>
<path d="M23.8496 49.5476V37.984C23.4837 37.984 23.1949 37.6855 23.1949 37.3293V29.511C23.1949 29.1452 23.4934 28.8563 23.8496 28.8563V25.6404H20.4701V28.8563C20.8359 28.8563 21.1248 29.1548 21.1248 29.511V37.3293C21.1248 37.6951 20.8263 37.984 20.4701 37.984V45.86C20.4701 47.5064 19.6228 47.7664 19.1895 47.7856C20.2293 48.8062 21.404 49.7017 22.6846 50.4431C22.6846 50.4527 23.8496 50.8956 23.8496 49.5476Z" fill="#00205B"/>
<path d="M49.9521 30.8783V27.3351C49.9521 26.3915 49.1818 25.6212 48.2382 25.6212H46.2163C45.2727 25.6212 44.5024 26.3915 44.5024 27.3351V32.0626C44.5024 32.3129 44.6565 32.6595 44.8394 32.8232L47.545 35.2496C47.7279 35.4132 47.882 35.7599 47.882 36.0102V37.0597C47.882 37.57 47.468 37.9744 46.9673 37.9744C46.457 37.9744 46.0526 37.5604 46.0526 37.0597V34.5948H44.4928V48.0842C47.8531 44.9646 49.9521 40.5933 49.9521 35.7502V35.057C49.9521 34.8067 49.798 34.46 49.6151 34.2964L46.9095 31.87C46.7169 31.6967 46.5629 31.3597 46.5629 31.1094V29.5014C46.5629 29.1356 46.8614 28.8371 47.2272 28.8371C47.5931 28.8371 47.8916 29.1356 47.8916 29.5014V30.8783H49.9521Z" fill="#00205B"/>
<path d="M19.979 45.86V27.3351C19.979 26.3915 19.2087 25.6212 18.2652 25.6212H15.7618C14.8182 25.6212 14.0479 26.3915 14.0479 27.3351V35.7599C14.0479 39.9771 15.6366 43.838 18.2748 46.8228C18.7755 47.4968 19.979 47.6894 19.979 45.86ZM17.9185 37.0789C17.9185 37.5796 17.5141 37.984 17.0135 37.984C16.5128 37.984 16.1084 37.5796 16.1084 37.0789V29.7518C16.1084 29.2511 16.5128 28.8467 17.0135 28.8467C17.5141 28.8467 17.9185 29.2511 17.9185 29.7518V37.0789Z" fill="#00205B"/>
<path d="M43.347 37.3197V33.4876C43.347 32.8329 42.6056 32.5248 42.6056 32.5248C42.6056 32.5248 43.347 32.2263 43.347 31.5715V27.3447C43.347 26.4011 42.5767 25.6309 41.6332 25.6309H37.0019V28.8467C37.3678 28.8467 37.6663 29.1452 37.6663 29.5015V37.3197C37.6663 37.6855 37.3678 37.9744 37.0019 37.9744V50.8764C37.0019 51.5407 36.7323 52.051 36.3665 52.4169C37.5796 52.1281 38.7543 51.7237 39.8519 51.2037C39.8519 51.2037 40.6414 50.8186 40.6414 49.3744V37.984C40.1311 37.984 39.7171 37.57 39.7171 37.0597V34.2001C39.7171 33.8053 40.0349 33.4876 40.4296 33.4876C40.8244 33.4876 41.1421 33.8053 41.1421 34.2001V49.538C41.1421 49.9713 41.0843 50.3372 40.9881 50.6357C41.9028 50.1254 42.7693 49.538 43.5781 48.8833C43.5781 48.8833 44.0017 48.5271 44.0017 46.8517V37.9744C43.6455 37.984 43.347 37.6855 43.347 37.3197ZM41.2865 30.7917C41.2865 31.2249 40.9399 31.5715 40.5066 31.5715C40.0734 31.5715 39.7267 31.2249 39.7267 30.7917V29.6266C39.7267 29.1933 40.0734 28.8467 40.5066 28.8467C40.9399 28.8467 41.2865 29.1933 41.2865 29.6266V30.7917Z" fill="#00205B"/>
</g>
<defs>
<clipPath id="clip0_33_1943">
<rect width="50" height="50" fill="white" transform="translate(7 7)"/>
</clipPath>
</defs>
</svg>
