<svg width="64" height="64" viewBox="0 0 64 64" fill="none" xmlns="http://www.w3.org/2000/svg">
<path d="M46.554 40.4954V44.0574C46.554 45.3121 46.3324 45.6929 45.188 46.2607L31.9858 52.8098L18.7841 46.2607C17.6397 45.6934 17.4181 45.3121 17.4181 44.0574V40.4954H0L7.6234 17.8339H17.4186V12H46.5545V17.8339H63.9732L56.3498 40.4954H46.5545H46.554Z" fill="#010101"/>
<path d="M31.9861 51.2337L44.2742 45.1865C45.0028 44.8279 45.1631 44.5089 45.1631 43.7587V39.1043H55.3505L62.0376 19.2257H45.1631V13.3918H18.8092V19.2257H8.62179L1.93463 39.1043H18.8092V43.7587C18.8092 44.5089 18.9694 44.8284 19.698 45.1865L31.9861 51.2337Z" fill="white"/>
<path d="M31.9862 50.1912L43.4669 44.5413C44.0796 44.2399 44.2275 43.9719 44.2275 43.3186V38.169H54.6874L60.7454 20.1608H44.2275V14.327H19.745V20.1608H9.28506L3.22705 38.169H19.745V43.3186C19.745 43.9719 19.8924 44.2393 20.5055 44.5413L31.9862 50.1912Z" fill="#A2AAAD"/>
<path d="M32.3732 38.1231C32.4664 38.1231 32.4979 38.1757 32.4979 38.2411V38.3977H32.5911C32.7107 38.3977 32.7524 38.4797 32.7524 38.5843V39.301C32.9936 39.1588 33.2368 39.2639 33.3239 39.3412C33.5356 39.2083 33.8427 39.2582 34.0081 39.4386C34.241 39.3427 34.5553 39.4005 34.7357 39.6426C34.9784 39.5746 35.2963 39.6689 35.4622 39.9554C35.8136 39.8998 36.1115 40.1239 36.2032 40.4037C36.6066 40.3784 36.9235 40.684 36.9673 41.0287C37.4589 41.0993 37.6707 41.5244 37.647 41.8403C37.9566 41.985 38.1473 42.2695 38.1473 42.6132C38.1473 42.9981 37.9334 43.3253 37.497 43.4304C37.3996 43.453 37.3368 43.4572 37.2981 43.5108C37.4465 43.5546 37.5321 43.7246 37.4877 43.8699C37.4676 43.9369 37.1925 44.7113 37.1925 44.7113C37.1271 44.9066 37.0018 45.004 36.8024 44.9494C36.6138 44.8973 36.5505 44.9231 36.417 45.1282C36.315 45.2848 36.2382 45.4126 36.1589 45.5347C35.9244 45.898 35.7147 46.253 35.5962 46.4339C35.4746 46.6013 35.3844 46.6585 35.2633 46.726C34.6033 47.0944 33.2497 47.3588 31.9857 47.3588C30.7217 47.3588 29.3681 47.095 28.7081 46.726C28.587 46.6585 28.4968 46.6013 28.3752 46.4339C28.2567 46.253 28.0475 45.8985 27.8125 45.5347C27.7332 45.4121 27.6569 45.2848 27.5544 45.1282C27.4209 44.9231 27.357 44.8973 27.1685 44.9494C26.9696 45.004 26.8444 44.9066 26.7789 44.7113C26.7789 44.7113 26.5038 43.9369 26.4837 43.8699C26.4399 43.7241 26.5244 43.5546 26.6733 43.5108C26.6346 43.4572 26.5718 43.4536 26.4739 43.4304C26.038 43.3253 25.8236 42.9981 25.8236 42.6132C25.8236 42.2695 26.0143 41.985 26.3239 41.8403C26.3007 41.5244 26.5125 41.0993 27.0036 41.0287C27.0474 40.6845 27.3643 40.3784 27.7677 40.4037C27.8594 40.1239 28.1567 39.8998 28.5087 39.9554C28.6746 39.6689 28.9925 39.5751 29.2352 39.6426C29.415 39.4005 29.7293 39.3427 29.9628 39.4386C30.1282 39.2577 30.4353 39.2083 30.647 39.3412C30.7341 39.2639 30.9773 39.1588 31.2185 39.301V38.5843C31.2185 38.4797 31.2602 38.3977 31.3797 38.3977H31.473V38.2411C31.473 38.1762 31.5039 38.1231 31.5977 38.1231H32.3716H32.3732Z" fill="white"/>
<path fill-rule="evenodd" clip-rule="evenodd" d="M37.4244 41.9645C37.443 41.9073 37.4538 41.846 37.4538 41.7821C37.4538 41.4606 37.1936 41.2003 36.872 41.2003C36.8494 41.2003 36.8262 41.2019 36.8035 41.204C36.8081 41.1766 36.8102 41.1483 36.8102 41.1194C36.8102 40.8165 36.5639 40.5707 36.2609 40.5707C36.2094 40.5707 36.1594 40.5779 36.1125 40.5913V40.5825C36.1125 40.3022 35.8858 40.0755 35.6055 40.0755C35.5298 40.0755 35.4581 40.092 35.3932 40.1219C35.3541 39.8916 35.1541 39.7159 34.9125 39.7159C34.8233 39.7159 34.7399 39.7396 34.6677 39.7813C34.5992 39.6107 34.4322 39.4902 34.237 39.4902C34.1287 39.4902 34.0293 39.5273 33.9505 39.5891C33.8799 39.4582 33.7413 39.3696 33.5826 39.3696C33.4641 39.3696 33.3579 39.4185 33.2816 39.4974C33.2131 39.4005 33.1008 39.3377 32.974 39.3377C32.8024 39.3377 32.6582 39.452 32.6128 39.6087C32.4392 39.5736 32.3877 39.5 32.3877 39.3835C32.3877 39.3376 32.3959 39.3325 32.4402 39.3325H32.4752C32.5618 39.3325 32.6133 39.2676 32.6133 39.2073V38.6472C32.6133 38.5508 32.5747 38.4746 32.4649 38.4746H32.3794V38.3556C32.3794 38.2953 32.3506 38.2468 32.2645 38.2468H31.7085C31.6225 38.2468 31.5936 38.2953 31.5936 38.3556V38.4746H31.5081C31.3978 38.4746 31.3592 38.5514 31.3592 38.6472V39.2073C31.3592 39.2676 31.4112 39.3325 31.4978 39.3325H31.5323C31.5766 39.3325 31.5854 39.3376 31.5854 39.3835C31.5854 39.5 31.5339 39.5731 31.3602 39.6087C31.3144 39.4526 31.1701 39.3377 30.999 39.3377C30.8717 39.3377 30.7594 39.4005 30.6914 39.4974C30.6151 39.4185 30.5085 39.3696 30.3905 39.3696C30.2313 39.3696 30.0937 39.4587 30.0226 39.5891C29.9437 39.5273 29.8448 39.4902 29.7366 39.4902C29.5413 39.4902 29.3744 39.6107 29.3058 39.7813C29.2337 39.7396 29.1502 39.7159 29.0611 39.7159C28.8194 39.7159 28.6185 39.8916 28.5798 40.1219C28.5154 40.092 28.4438 40.0755 28.368 40.0755C28.0877 40.0755 27.8605 40.3022 27.8605 40.5825C27.8605 40.5851 27.8605 40.5887 27.8605 40.5913C27.8131 40.5779 27.7631 40.5707 27.7116 40.5707C27.4086 40.5707 27.1628 40.8165 27.1628 41.1194C27.1628 41.1483 27.1649 41.1761 27.169 41.204C27.1469 41.2019 27.1242 41.2003 27.101 41.2003C26.7795 41.2003 26.5187 41.4606 26.5187 41.7821C26.5187 41.846 26.5291 41.9073 26.5486 41.9645C26.2276 41.9933 25.9767 42.2628 25.9767 42.5905C25.9767 42.8997 26.1998 43.1573 26.494 43.2099C26.6594 43.2393 26.8119 43.2516 26.8743 43.4165C26.8913 43.4613 26.9129 43.5149 26.9371 43.5835L26.8186 43.6329C26.6481 43.704 26.6002 43.8488 26.6537 43.9864L26.8295 44.4754C26.8954 44.6738 26.9985 44.7923 27.2004 44.7366C27.3921 44.6841 27.4586 44.6671 27.5246 44.7897C27.7188 45.1762 27.8688 45.3745 28.1439 45.372C27.9527 45.4956 27.9594 45.5327 28.1228 45.7806L28.451 46.2716C28.5623 46.4437 28.6138 46.4901 28.7334 46.5638C29.3728 46.9337 30.7058 47.2053 31.9873 47.2053C33.2688 47.2053 34.6023 46.9337 35.2417 46.5638C35.3608 46.4906 35.4128 46.4437 35.5241 46.2716L35.8518 45.7806C36.0157 45.5332 36.0224 45.4961 35.8307 45.372C36.1058 45.3745 36.2558 45.1762 36.4505 44.7897C36.516 44.6671 36.583 44.6841 36.7741 44.7366C36.9761 44.7923 37.0792 44.6738 37.1456 44.4754L37.3214 43.9864C37.3749 43.8488 37.3265 43.704 37.1565 43.6329L37.038 43.5835C37.0622 43.5149 37.0838 43.4613 37.1003 43.4165C37.1626 43.2516 37.3157 43.2393 37.4811 43.2099C37.7748 43.1573 37.9979 42.9002 37.9979 42.5905C37.9979 42.2628 37.7464 41.9933 37.4265 41.9645" fill="#A2AAAD"/>
<path d="M31.7286 39.1217V39.2567C31.7286 39.3046 31.7677 39.3433 31.8151 39.3433H32.1578C32.2057 39.3433 32.2439 39.3046 32.2439 39.2567V39.1217H32.3794C32.4273 39.1217 32.4659 39.0826 32.4659 39.0352V38.6925C32.4659 38.6446 32.4268 38.6065 32.3794 38.6065H32.2439V38.4709C32.2439 38.4235 32.2176 38.3849 32.1578 38.3849H31.8151C31.7518 38.3849 31.7286 38.4235 31.7286 38.4709V38.6065H31.5936C31.5457 38.6065 31.507 38.6451 31.507 38.6925V39.0352C31.507 39.0831 31.5457 39.1217 31.5936 39.1217H31.7286Z" fill="#010101"/>
<path d="M28.8246 46.187C29.7454 45.6733 31.2191 45.5295 31.9863 45.5285C32.7536 45.5295 34.2272 45.6723 35.148 46.187C35.3088 46.2767 35.316 46.2756 35.4319 46.1185L35.6901 45.732C35.7725 45.6036 35.7639 45.5103 35.6643 45.4522C35.3201 45.2513 34.8167 45.0539 34.3153 44.9215C33.5914 44.7304 32.8107 44.6335 31.9868 44.6335C31.1629 44.6335 30.3813 44.7304 29.6583 44.9215C29.157 45.0539 28.6536 45.2518 28.3094 45.4522C28.2097 45.5103 28.2012 45.6036 28.2836 45.732L28.5417 46.1185C28.6572 46.2756 28.6644 46.2772 28.8257 46.187" fill="#010101"/>
<path d="M31.8348 42.1319C31.7085 42.1319 31.606 42.2339 31.606 42.3607V42.5725H31.4535C31.3273 42.5725 31.2252 42.6745 31.2252 42.8012V43.1083C31.2252 43.2274 31.3149 43.3356 31.4308 43.3356C31.7235 43.3356 31.7462 43.4752 31.7462 43.6303C31.7462 43.7854 31.5988 43.925 31.4308 43.925C31.3566 43.925 31.2876 43.9008 31.2335 43.8606C31.2196 43.8508 31.2087 43.8534 31.1979 43.8658C31.1376 43.9364 31.0475 43.9807 30.947 43.9807C30.8712 43.9807 30.8017 43.9554 30.746 43.9121C30.7357 43.9049 30.7234 43.906 30.7125 43.9183C30.6687 43.9683 30.6074 44.0064 30.5358 44.0224C30.3719 44.0595 30.1973 43.9539 30.1638 43.8045C30.1292 43.653 30.1483 43.5061 30.407 43.4479C30.5198 43.4226 30.5837 43.2964 30.558 43.181L30.4905 42.8811C30.4626 42.7579 30.3405 42.6801 30.2174 42.7085L30.0659 42.7425L30.019 42.5354C29.9917 42.4127 29.869 42.3349 29.7464 42.3627L29.446 42.4302C29.3234 42.4581 29.2456 42.5802 29.2734 42.7033L29.3198 42.91L29.1709 42.9434C29.0482 42.9713 28.9704 43.0934 28.9982 43.2165L29.0657 43.5164C29.092 43.6324 29.2033 43.7184 29.3172 43.6932C29.6016 43.6288 29.6557 43.7601 29.6892 43.9111C29.7222 44.058 29.6093 44.2311 29.446 44.2677C29.3363 44.2919 29.2322 44.2584 29.158 44.1909C29.1435 44.1785 29.1271 44.1801 29.1183 44.1945C29.0786 44.2682 29.0121 44.3269 28.9261 44.3512C28.8524 44.3723 28.7767 44.3646 28.7107 44.3352C28.6886 44.3249 28.6731 44.3331 28.668 44.3558C28.6437 44.4619 28.5633 44.5464 28.4644 44.5861C28.3222 44.6423 28.1712 44.5526 28.1079 44.4151C28.0342 44.2553 28.0094 44.1471 28.2707 44.0363C28.3712 43.9936 28.4119 43.8642 28.3763 43.7529L28.266 43.468C28.2274 43.349 28.1099 43.2871 28.0027 43.3294L27.8059 43.4015L27.7482 43.233C27.707 43.097 27.6091 43.048 27.4596 43.1078L27.1417 43.2263C27.05 43.2624 27.0031 43.3562 27.0495 43.4695C27.0835 43.552 27.1087 43.6133 27.1268 43.6581L26.9372 43.7359C26.8192 43.7823 26.7718 43.8946 26.8176 44.0121L26.9454 44.3336C26.9913 44.4516 27.1093 44.499 27.2422 44.4552C27.4483 44.3867 27.4973 44.4351 27.6374 44.6881C27.7874 44.9767 28.0367 45.123 28.3454 45.123C28.654 45.123 28.9117 44.953 29.0451 44.7031C29.1992 44.7726 29.3764 44.7953 29.5542 44.7551C29.7665 44.7072 29.9396 44.5805 30.0504 44.4125C30.2225 44.5171 30.4333 44.5573 30.645 44.5099C30.7909 44.4769 30.9181 44.4068 31.0201 44.3115C31.1402 44.3826 31.2804 44.4238 31.4303 44.4238C31.6457 44.4238 31.8415 44.3393 31.9858 44.2022C32.1295 44.3393 32.3258 44.4238 32.5407 44.4238C32.6906 44.4238 32.8308 44.3826 32.9514 44.3115C33.0529 44.4068 33.1802 44.4769 33.326 44.5099C33.5378 44.5573 33.749 44.5166 33.9206 44.4125C34.0309 44.5805 34.205 44.7072 34.4168 44.7551C34.5946 44.7948 34.7718 44.7726 34.9259 44.7031C35.0599 44.953 35.3237 45.123 35.6256 45.123C35.9276 45.123 36.2022 44.9463 36.3336 44.6881C36.4732 44.4351 36.5237 44.3816 36.7288 44.4552C36.8576 44.5016 36.9797 44.4516 37.0256 44.3336L37.1529 44.0121C37.1987 43.8941 37.1508 43.7818 37.0333 43.7359L36.8437 43.6581C36.8623 43.6138 36.8875 43.5525 36.921 43.4695C36.9674 43.3557 36.921 43.2624 36.8288 43.2263L36.5108 43.1078C36.3619 43.048 36.2635 43.097 36.2228 43.233L36.1651 43.4015L35.9678 43.3294C35.8611 43.2866 35.7431 43.3484 35.705 43.468L35.5947 43.7529C35.5586 43.8642 35.5993 43.9936 35.6998 44.0363C35.9616 44.1471 35.9363 44.2548 35.8632 44.4151C35.7993 44.5526 35.6483 44.6423 35.5061 44.5861C35.4071 44.5464 35.3273 44.4619 35.3025 44.3558C35.2974 44.3331 35.2819 44.3249 35.2603 44.3352C35.1943 44.3646 35.1186 44.3723 35.0444 44.3512C34.9589 44.3269 34.8924 44.2682 34.8522 44.1945C34.844 44.1801 34.827 44.1785 34.813 44.1909C34.7388 44.2584 34.6342 44.2919 34.5245 44.2677C34.3606 44.2311 34.2483 44.058 34.2813 43.9111C34.3158 43.7596 34.3689 43.6288 34.6538 43.6932C34.7672 43.7184 34.8785 43.6324 34.9048 43.5164L34.9723 43.2165C35.0001 43.0934 34.9228 42.9713 34.7996 42.9434L34.6507 42.91L34.6971 42.7033C34.7244 42.5802 34.6476 42.4581 34.5245 42.4302L34.2241 42.3627C34.1015 42.3354 33.9788 42.4127 33.9515 42.5354L33.9051 42.7425L33.7537 42.7085C33.631 42.6807 33.5084 42.7579 33.4811 42.8811L33.4136 43.181C33.3873 43.2964 33.4512 43.4226 33.564 43.4479C33.8232 43.5061 33.8418 43.6535 33.8078 43.8045C33.7737 43.9544 33.5986 44.06 33.4352 44.0224C33.3631 44.0064 33.3028 43.9683 33.2585 43.9183C33.2482 43.9065 33.2358 43.9049 33.2255 43.9121C33.1693 43.9554 33.0998 43.9807 33.024 43.9807C32.9236 43.9807 32.8339 43.9364 32.7731 43.8658C32.7628 43.8534 32.7515 43.8513 32.7375 43.8606C32.6829 43.9003 32.6144 43.925 32.5402 43.925C32.3727 43.925 32.2248 43.7808 32.2248 43.6303C32.2248 43.4798 32.248 43.3356 32.5402 43.3356C32.6561 43.3356 32.7463 43.2274 32.7463 43.1083V42.8012C32.7463 42.6745 32.6438 42.5725 32.5175 42.5725H32.365V42.3607C32.365 42.2339 32.263 42.1319 32.1362 42.1319H31.8332H31.8348Z" fill="#010101"/>
<path d="M31.9862 46.9115C33.296 46.9115 34.4224 46.6703 35.0747 46.3869C34.7728 46.2231 34.4703 46.1046 34.0303 46.0077C33.4862 46.0886 32.6993 46.1963 31.9857 46.1963C31.2721 46.1963 30.4852 46.0891 29.9411 46.0077C29.5016 46.1046 29.1991 46.2226 28.8967 46.3869C29.5495 46.6703 30.6759 46.9115 31.9852 46.9115" fill="#010101"/>
<path d="M33.6944 40.6257C33.6944 40.5098 33.5991 40.416 33.4832 40.4171C33.3672 40.4171 33.2735 40.5119 33.2745 40.6283C33.2745 40.7443 33.3693 40.8375 33.4857 40.837C33.6012 40.837 33.6949 40.7417 33.6944 40.6257Z" fill="#010101"/>
<path d="M32.7 40.058C32.7 39.9596 32.6201 39.8797 32.5217 39.8797C32.4233 39.8797 32.3434 39.9596 32.3434 40.058C32.3434 40.1564 32.4233 40.2363 32.5217 40.2363C32.6201 40.2363 32.7 40.1564 32.7 40.058Z" fill="#010101"/>
<path d="M33.1656 40.3218C33.1656 40.2234 33.0858 40.1435 32.9874 40.1435C32.8889 40.1435 32.8091 40.2234 32.8091 40.3218C32.8091 40.4202 32.8889 40.5001 32.9874 40.5001C33.0858 40.5001 33.1656 40.4202 33.1656 40.3218Z" fill="#010101"/>
<path d="M34.3152 41.0853C34.3152 40.939 34.1966 40.8205 34.0503 40.8205C33.904 40.8205 33.7855 40.939 33.7855 41.0853C33.7855 41.2317 33.904 41.3502 34.0503 41.3502C34.1966 41.3502 34.3152 41.2317 34.3152 41.0853Z" fill="#010101"/>
<path d="M34.9412 41.7397C34.9412 41.565 34.7995 41.4233 34.6243 41.4233C34.4491 41.4233 34.3079 41.565 34.3079 41.7397C34.3079 41.9144 34.4496 42.0566 34.6243 42.0566C34.799 42.0566 34.9412 41.9149 34.9412 41.7397Z" fill="#010101"/>
<path d="M35.5848 42.5312C35.5848 42.3334 35.4246 42.1726 35.2262 42.1726C35.0278 42.1726 34.8671 42.3329 34.8671 42.5312C34.8671 42.7296 35.0278 42.8899 35.2262 42.8899C35.4246 42.8899 35.5848 42.7296 35.5848 42.5312Z" fill="#010101"/>
<path d="M34.4498 39.8848C34.4457 39.7441 34.3282 39.6333 34.1875 39.6374C34.0468 39.6416 33.9361 39.759 33.9402 39.8997C33.9443 40.0409 34.0618 40.1512 34.2024 40.147C34.3431 40.1429 34.4539 40.0254 34.4498 39.8848Z" fill="#010101"/>
<path d="M35.1624 40.1507C35.1578 39.9909 35.0243 39.8657 34.8656 39.8704C34.7059 39.8755 34.5807 40.0085 34.5853 40.1677C34.59 40.3274 34.7229 40.4521 34.8821 40.448C35.0419 40.4433 35.1671 40.3104 35.1624 40.1512" fill="#010101"/>
<path d="M35.8761 40.5403C35.8709 40.3666 35.7261 40.2295 35.552 40.2347C35.3783 40.2399 35.2413 40.3852 35.2464 40.5588C35.2521 40.7324 35.3969 40.8695 35.5705 40.8644C35.7447 40.8592 35.8812 40.7139 35.8761 40.5403Z" fill="#010101"/>
<path d="M33.1419 39.6967C33.1409 39.5895 33.0538 39.503 32.9466 39.5035C32.8395 39.5035 32.7529 39.5916 32.7534 39.6988C32.7534 39.8059 32.8415 39.8925 32.9487 39.892C33.0559 39.892 33.1419 39.8039 33.1419 39.6967Z" fill="#010101"/>
<path d="M33.7732 39.7323C33.7722 39.6091 33.6717 39.5097 33.5486 39.5102C33.4254 39.5102 33.326 39.6117 33.3265 39.7349C33.3275 39.858 33.4285 39.9574 33.5517 39.9569C33.6748 39.9569 33.7742 39.8554 33.7737 39.7323" fill="#010101"/>
<path d="M36.5701 41.0602C36.5685 40.8716 36.4155 40.7201 36.2274 40.7216C36.0388 40.7227 35.8873 40.8762 35.8884 41.0643C35.8899 41.2529 36.0435 41.4044 36.2315 41.4028C36.4201 41.4018 36.5716 41.2482 36.5701 41.0602Z" fill="#010101"/>
<path d="M37.2136 41.7114C37.2121 41.5089 37.0472 41.3456 36.8447 41.3466C36.6417 41.3482 36.4783 41.5131 36.4799 41.7161C36.4809 41.9186 36.6463 42.0819 36.8488 42.0804C37.0513 42.0793 37.2152 41.9139 37.2136 41.7114Z" fill="#010101"/>
<path d="M37.7532 42.5091C37.7517 42.2917 37.5749 42.117 37.3575 42.1185C37.1406 42.1201 36.9654 42.2968 36.9669 42.5138C36.9685 42.7312 37.1452 42.9064 37.3627 42.9048C37.5796 42.9033 37.7548 42.726 37.7532 42.5091Z" fill="#010101"/>
<path d="M33.7887 42.5462C33.8211 42.2823 33.9211 42.1705 34.1298 42.2082C34.1488 42.2118 34.1628 42.1922 34.1571 42.1731C34.0056 41.6635 33.2636 40.6881 32.35 40.2713C32.2913 40.2445 32.2563 40.2254 32.247 40.2367C32.2367 40.2486 32.264 40.2764 32.3088 40.3156C33.1709 41.073 33.3466 42.253 33.3661 42.625C33.3677 42.6503 33.4002 42.6585 33.4141 42.6374C33.4141 42.6374 33.514 42.4555 33.7887 42.5457" fill="#010101"/>
<path d="M33.1203 40.0811C34.4379 40.501 35.7699 41.8093 36.0223 43.1366C36.0265 43.1593 36.061 43.1645 36.0687 43.1428C36.096 43.0676 36.1074 43.0202 36.1388 42.9651C36.1867 42.8816 36.3037 42.8507 36.4088 42.8867C36.5665 42.9398 36.7947 43.0284 36.9112 43.0758C36.9338 43.0851 36.9575 43.0686 36.9483 43.0449C36.3222 41.4146 34.5322 40.2233 33.1286 40.0265C33.0549 40.0162 33.0121 40.0157 33.0101 40.0296C33.008 40.0461 33.0312 40.0533 33.1203 40.0811Z" fill="#010101"/>
<path d="M30.1834 42.5461C30.4581 42.456 30.558 42.6379 30.558 42.6379C30.5724 42.659 30.6054 42.6507 30.6059 42.6255C30.625 42.2535 30.8007 41.0735 31.6633 40.3161C31.7081 40.2764 31.7359 40.2491 31.7251 40.2372C31.7158 40.2259 31.6808 40.245 31.622 40.2717C30.7085 40.6886 29.9665 41.664 29.815 42.1736C29.8093 42.1922 29.8232 42.2122 29.8423 42.2086C30.051 42.171 30.151 42.2828 30.1834 42.5467" fill="#010101"/>
<path d="M30.8517 40.0811C30.9409 40.0537 30.9646 40.046 30.962 40.0295C30.9599 40.0151 30.9172 40.0156 30.8435 40.0264C29.4399 40.2238 27.6498 41.4151 27.0238 43.0449C27.0145 43.0681 27.0382 43.0846 27.0609 43.0758C27.1773 43.0279 27.4056 42.9398 27.5633 42.8867C27.6684 42.8511 27.7854 42.8815 27.8333 42.965C27.8647 43.0201 27.876 43.0676 27.9034 43.1428C27.9116 43.1649 27.9456 43.1598 27.9497 43.1366C28.2022 41.8093 29.5342 40.501 30.8517 40.0811Z" fill="#010101"/>
<path d="M32.3902 41.5826C32.3902 41.3595 32.2093 41.1781 31.9857 41.1781C31.7621 41.1781 31.5812 41.359 31.5812 41.5826C31.5812 41.8062 31.7621 41.9871 31.9857 41.9871C32.2093 41.9871 32.3902 41.8062 32.3902 41.5826Z" fill="#010101"/>
<path d="M32.1755 40.3326C32.1755 40.2264 32.0889 40.1393 31.9822 40.1393C31.8756 40.1393 31.789 40.2259 31.789 40.3326C31.789 40.4392 31.8751 40.5258 31.9822 40.5258C32.0894 40.5258 32.1755 40.4397 32.1755 40.3326Z" fill="#010101"/>
<path d="M32.2207 40.8519C32.2207 40.7205 32.1145 40.6138 31.9826 40.6138C31.8507 40.6138 31.7446 40.72 31.7446 40.8519C31.7446 40.9838 31.8507 41.0899 31.9826 41.0899C32.1145 41.0899 32.2207 40.9838 32.2207 40.8519Z" fill="#010101"/>
<path d="M32.2573 39.776C32.2573 39.6246 32.1346 39.5014 31.9826 39.5014C31.8306 39.5014 31.708 39.624 31.708 39.776C31.708 39.928 31.8306 40.0507 31.9826 40.0507C32.1346 40.0507 32.2573 39.928 32.2573 39.776Z" fill="#010101"/>
<path d="M33.3085 43.5268C33.3085 43.3851 33.1941 43.2707 33.0524 43.2707C32.9107 43.2707 32.7963 43.3851 32.7963 43.5268C32.7963 43.6685 32.9107 43.7829 33.0524 43.7829C33.1941 43.7829 33.3085 43.6685 33.3085 43.5268Z" fill="#010101"/>
<path d="M35.4411 43.9214C35.4411 43.7797 35.3267 43.6653 35.185 43.6653C35.0433 43.6653 34.929 43.7797 34.929 43.9214C34.929 44.0631 35.0433 44.1775 35.185 44.1775C35.3267 44.1775 35.4411 44.0631 35.4411 43.9214Z" fill="#010101"/>
<path d="M30.6641 43.5268C30.6641 43.6685 30.7785 43.7829 30.9202 43.7829C31.0619 43.7829 31.1763 43.6685 31.1763 43.5268C31.1763 43.3851 31.0619 43.2707 30.9202 43.2707C30.7785 43.2707 30.6641 43.3851 30.6641 43.5268Z" fill="#010101"/>
<path d="M28.5309 43.9214C28.5309 44.0631 28.6453 44.1775 28.787 44.1775C28.9287 44.1775 29.0431 44.0631 29.0431 43.9214C29.0431 43.7797 28.9287 43.6653 28.787 43.6653C28.6453 43.6653 28.5309 43.7797 28.5309 43.9214Z" fill="#010101"/>
<path d="M29.7701 40.147C29.9108 40.1512 30.0282 40.0404 30.0324 39.8997C30.0365 39.759 29.9262 39.6416 29.785 39.6374C29.6444 39.6333 29.5269 39.7436 29.5228 39.8848C29.5186 40.0254 29.6294 40.1429 29.7701 40.147Z" fill="#010101"/>
<path d="M29.0899 40.448C29.2496 40.4527 29.3826 40.3269 29.3867 40.1677C29.3919 40.008 29.2661 39.875 29.1064 39.8709C28.9467 39.8663 28.8137 39.992 28.8091 40.1512C28.8044 40.3104 28.9302 40.4439 29.0894 40.448" fill="#010101"/>
<path d="M28.4019 40.8644C28.5756 40.8695 28.7209 40.733 28.7261 40.5588C28.7312 40.3852 28.5941 40.2399 28.4205 40.2347C28.2469 40.2295 28.1015 40.3666 28.0964 40.5403C28.0912 40.7139 28.2283 40.8592 28.4019 40.8644Z" fill="#010101"/>
<path d="M31.0232 39.892C31.1304 39.892 31.218 39.8065 31.2185 39.6988C31.2195 39.5916 31.1329 39.504 31.0253 39.5035C30.9181 39.5025 30.8305 39.589 30.83 39.6967C30.8289 39.8039 30.9155 39.8915 31.0232 39.892Z" fill="#010101"/>
<path d="M30.4209 39.957C30.544 39.958 30.645 39.8585 30.6455 39.7349C30.6466 39.6117 30.5471 39.5107 30.4235 39.5097C30.3003 39.5097 30.1993 39.6086 30.1988 39.7318C30.1978 39.8549 30.2972 39.9554 30.4209 39.9564" fill="#010101"/>
<path d="M27.7414 41.4033C27.93 41.4044 28.0836 41.2523 28.0841 41.0648C28.0856 40.8762 27.9336 40.7227 27.7456 40.7216C27.557 40.7206 27.4034 40.8726 27.4029 41.0607C27.4014 41.2487 27.5534 41.4028 27.7414 41.4033Z" fill="#010101"/>
<path d="M27.1231 42.0804C27.3256 42.0819 27.491 41.9181 27.492 41.7156C27.4935 41.5131 27.3302 41.3477 27.1277 41.3466C26.9247 41.3451 26.7598 41.5084 26.7583 41.7114C26.7567 41.9139 26.9206 42.0788 27.1231 42.0804Z" fill="#010101"/>
<path d="M26.6101 42.9044C26.8275 42.9059 27.0042 42.7307 27.0058 42.5138C27.0068 42.2963 26.8321 42.1196 26.6147 42.1181C26.3978 42.1165 26.221 42.2917 26.2195 42.5086C26.2179 42.7261 26.3926 42.9028 26.6101 42.9044Z" fill="#010101"/>
<path d="M30.4863 40.837C30.6023 40.838 30.6971 40.7443 30.6976 40.6283C30.6986 40.5124 30.6049 40.4176 30.4889 40.4171C30.373 40.416 30.2782 40.5098 30.2777 40.6257C30.2766 40.7417 30.3704 40.8365 30.4863 40.837Z" fill="#010101"/>
<path d="M31.4503 40.2363C31.5487 40.2363 31.6286 40.1564 31.6286 40.058C31.6286 39.9596 31.5487 39.8797 31.4503 39.8797C31.3519 39.8797 31.272 39.9596 31.272 40.058C31.272 40.1564 31.3519 40.2363 31.4503 40.2363Z" fill="#010101"/>
<path d="M30.9846 40.5001C31.083 40.5001 31.1628 40.4202 31.1628 40.3218C31.1628 40.2234 31.083 40.1435 30.9846 40.1435C30.8861 40.1435 30.8063 40.2234 30.8063 40.3218C30.8063 40.4202 30.8861 40.5001 30.9846 40.5001Z" fill="#010101"/>
<path d="M29.922 41.3502C30.0683 41.3502 30.1869 41.2317 30.1869 41.0853C30.1869 40.939 30.0683 40.8205 29.922 40.8205C29.7757 40.8205 29.6572 40.939 29.6572 41.0853C29.6572 41.2317 29.7757 41.3502 29.922 41.3502Z" fill="#010101"/>
<path d="M29.347 42.0561C29.5217 42.0561 29.6639 41.9144 29.6639 41.7392C29.6639 41.564 29.5217 41.4229 29.347 41.4229C29.1724 41.4229 29.0302 41.5646 29.0302 41.7392C29.0302 41.9139 29.1724 42.0561 29.347 42.0561Z" fill="#010101"/>
<path d="M28.7463 42.8899C28.9442 42.8899 29.1049 42.7296 29.1049 42.5313C29.1049 42.3329 28.9447 42.1721 28.7463 42.1721C28.5479 42.1721 28.3877 42.3324 28.3877 42.5313C28.3877 42.7302 28.5479 42.8899 28.7463 42.8899Z" fill="#010101"/>
<path d="M32.1795 38.8641C32.1795 38.9707 32.0929 39.0573 31.9863 39.0573C31.8796 39.0573 31.7925 38.9707 31.7925 38.8641C31.7925 38.7574 31.8796 38.6708 31.9863 38.6708C32.0929 38.6708 32.1795 38.7574 32.1795 38.8641Z" fill="white"/>
<path d="M31.9831 44.8442C32.1223 44.8442 32.2346 44.9571 32.2346 45.0957C32.2346 45.2343 32.1217 45.3471 31.9831 45.3471C31.8445 45.3471 31.7317 45.2343 31.7317 45.0957C31.7317 44.9571 31.8445 44.8442 31.9831 44.8442Z" fill="white"/>
<path d="M30.3013 45.2276C30.2828 45.0895 30.3802 44.9633 30.5177 44.9447C30.6558 44.9262 30.7821 45.0235 30.8006 45.1616C30.8192 45.2992 30.7223 45.4255 30.5842 45.444C30.4461 45.4626 30.3199 45.3657 30.3013 45.2276Z" fill="white"/>
<path d="M28.9745 45.6207C28.9297 45.4971 28.993 45.3636 29.1152 45.3229C29.2378 45.2822 29.3733 45.3497 29.4176 45.4739C29.4624 45.5975 29.3991 45.731 29.2769 45.7717C29.1543 45.8119 29.0188 45.7444 28.9745 45.6207Z" fill="white"/>
<path d="M33.1713 45.1617C33.1898 45.0236 33.3161 44.9273 33.4542 44.9453C33.5917 44.9638 33.6886 45.0901 33.6706 45.2277C33.652 45.3657 33.5258 45.4621 33.3877 45.4446C33.2501 45.426 33.1533 45.2998 33.1713 45.1617Z" fill="white"/>
<path d="M34.5544 45.4734C34.5992 45.3498 34.7347 45.2823 34.8568 45.3225C34.9795 45.3632 35.0423 45.4966 34.9975 45.6203C34.9532 45.744 34.8171 45.812 34.695 45.7713C34.5724 45.7306 34.51 45.5971 34.5544 45.4734Z" fill="white"/>
<path d="M31.982 42.7167C32.1155 42.7167 32.2242 42.8249 32.2242 42.9589C32.2242 43.0929 32.1155 43.2006 31.982 43.2006C31.8486 43.2006 31.7399 43.0924 31.7399 42.9589C31.7399 42.8255 31.8486 42.7167 31.982 42.7167Z" fill="white"/>
<path d="M34.1952 42.962C34.3286 42.962 34.4374 43.0702 34.4374 43.2042C34.4374 43.3382 34.3286 43.4459 34.1952 43.4459C34.0617 43.4459 33.953 43.3377 33.953 43.2042C33.953 43.0708 34.0617 42.962 34.1952 42.962Z" fill="white"/>
<path d="M36.3829 43.6385C36.5164 43.6385 36.6251 43.7468 36.6251 43.8807C36.6251 44.0147 36.5164 44.1224 36.3829 44.1224C36.2495 44.1224 36.1407 44.0142 36.1407 43.8807C36.1407 43.7473 36.249 43.6385 36.3829 43.6385Z" fill="white"/>
<path d="M30.0184 43.2037C30.0184 43.3371 29.9102 43.4458 29.7762 43.4458C29.6422 43.4458 29.5345 43.3371 29.5345 43.2037C29.5345 43.0702 29.6428 42.9615 29.7762 42.9615C29.9097 42.9615 30.0184 43.0702 30.0184 43.2037Z" fill="white"/>
<path d="M27.831 43.8807C27.831 44.0142 27.7228 44.1229 27.5888 44.1229C27.4549 44.1229 27.3472 44.0142 27.3472 43.8807C27.3472 43.7473 27.4554 43.6385 27.5888 43.6385C27.7223 43.6385 27.831 43.7473 27.831 43.8807Z" fill="white"/>
<path d="M24.9317 16.8652C24.6235 16.8652 24.4602 16.9291 24.335 17.0265C24.1139 17.2017 24.0011 17.5077 24.0011 17.99C24.0011 18.4723 24.1139 18.7784 24.335 18.9536C24.4602 19.0515 24.6235 19.1148 24.9317 19.1148C25.2398 19.1148 25.4031 19.051 25.5278 18.9536C25.7489 18.7784 25.8617 18.4723 25.8617 17.99C25.8617 17.5077 25.7489 17.2017 25.5278 17.0265C25.4026 16.9286 25.2393 16.8652 24.9317 16.8652ZM24.9317 17.2377C25.0337 17.2377 25.0955 17.2759 25.1342 17.3341C25.1867 17.415 25.2058 17.5263 25.2058 17.99C25.2058 18.4538 25.1872 18.5656 25.1342 18.646C25.095 18.7042 25.0332 18.7423 24.9317 18.7423C24.8302 18.7423 24.7678 18.7042 24.7286 18.646C24.6761 18.5651 24.657 18.4538 24.657 17.99C24.657 17.5263 24.6756 17.4145 24.7286 17.3341C24.7678 17.2759 24.8296 17.2377 24.9317 17.2377ZM23.7775 18.0426V18.9628C23.7775 19.0437 23.7476 19.0772 23.6636 19.0772H21.8967V18.7372C22.107 18.7372 22.1487 18.6727 22.1487 18.4878V17.0507C22.1487 16.8271 22.109 16.7709 21.8967 16.7709V16.4308H23.1323V16.7709C22.8629 16.7709 22.8139 16.8616 22.8139 17.0584V18.6372C22.8139 18.6867 22.8304 18.7068 22.885 18.7068C23.2261 18.7068 23.3493 18.5857 23.4863 18.0431H23.7769L23.7775 18.0426ZM30.9613 18.5743L30.4311 16.5911C30.3992 16.4725 30.3543 16.4303 30.2219 16.4303H29.0718V16.7498C29.2646 16.7611 29.3125 16.8415 29.2579 17.0466L28.8709 18.5099C28.8276 18.6717 28.7735 18.7248 28.6267 18.7325V19.0767H29.6639V18.7325C29.4099 18.7325 29.3491 18.6588 29.3877 18.5043L29.4068 18.4249C29.4171 18.3847 29.4336 18.3662 29.4841 18.3662H30.1549C30.2059 18.3662 30.2219 18.3847 30.2317 18.4249L30.2528 18.5094C30.2894 18.6578 30.2312 18.7325 30.0143 18.7325V19.0767H31.169V18.7325C31.0433 18.7263 30.9886 18.6841 30.9603 18.5743M30.0545 18.0184H29.5845C29.5263 18.0184 29.5119 17.9993 29.5263 17.9411L29.7669 16.9672C29.7767 16.9286 29.7937 16.9116 29.8195 16.9116C29.8453 16.9116 29.8628 16.9286 29.8721 16.9672L30.1127 17.9411C30.1271 17.9998 30.1127 18.0184 30.0539 18.0184M36.4036 17.2939C36.3485 17.3604 36.3242 17.4814 36.3242 17.7324C36.3242 17.7808 36.3418 17.7983 36.3887 17.7983H36.8019C36.8488 17.7983 36.8642 17.7808 36.8663 17.7324C36.8751 17.5201 36.8472 17.3604 36.7926 17.2939C36.7555 17.2485 36.7035 17.2181 36.602 17.2181C36.5005 17.2181 36.4412 17.2485 36.4036 17.2939ZM36.6916 18.7557C36.9091 18.7557 37.0539 18.6398 37.1502 18.3868H37.4243V18.7562C37.4243 18.9268 37.38 18.9814 37.2352 19.0293C37.0729 19.0829 36.8715 19.1143 36.6277 19.1143C36.3011 19.1143 36.0903 19.0463 35.9419 18.9062C35.7575 18.732 35.675 18.4512 35.675 18.0008C35.675 17.5505 35.7662 17.2815 35.9527 17.0893C36.0877 16.9502 36.283 16.8642 36.6339 16.8642C36.94 16.8642 37.1482 16.9466 37.2775 17.0857C37.431 17.2506 37.4841 17.4912 37.4841 17.8761C37.4841 18.0962 37.4496 18.1389 37.2852 18.1389H36.3892C36.3418 18.1389 36.3248 18.157 36.3248 18.2049C36.3248 18.6223 36.4495 18.7552 36.6921 18.7552M39.4931 17.2939C39.438 17.3604 39.4138 17.4814 39.4138 17.7324C39.4138 17.7808 39.4313 17.7983 39.4782 17.7983H39.8915C39.9389 17.7983 39.9538 17.7808 39.9559 17.7324C39.9646 17.5201 39.9363 17.3604 39.8822 17.2939C39.8446 17.2485 39.7925 17.2181 39.691 17.2181C39.5895 17.2181 39.5308 17.2485 39.4926 17.2939M39.7807 18.7557C39.9981 18.7557 40.1434 18.6398 40.2393 18.3868H40.5139V18.7562C40.5139 18.9268 40.4696 18.9814 40.3243 19.0293C40.1625 19.0829 39.9605 19.1143 39.7173 19.1143C39.3901 19.1143 39.1793 19.0463 39.0315 18.9062C38.847 18.732 38.764 18.4512 38.764 18.0008C38.764 17.5505 38.8552 17.2815 39.0423 17.0893C39.1773 16.9502 39.3721 16.8642 39.7235 16.8642C40.029 16.8642 40.2372 16.9466 40.3665 17.0857C40.5201 17.2506 40.5732 17.4912 40.5732 17.8761C40.5732 18.0962 40.5386 18.1389 40.3743 18.1389H39.4782C39.4308 18.1389 39.4138 18.157 39.4138 18.2049C39.4138 18.6223 39.5385 18.7552 39.7812 18.7552M38.4296 18.5383C38.4296 18.6748 38.4904 18.7366 38.627 18.7366V19.0767H38.0803C37.886 19.0767 37.802 18.986 37.802 18.7969V16.9708C37.802 16.8348 37.7418 16.7724 37.6047 16.7724V16.4324H38.4291V18.5383H38.4296ZM27.6404 17.5665H27.4024C27.2978 17.3248 27.104 17.2094 26.8825 17.2094C26.715 17.2094 26.648 17.2872 26.648 17.3908C26.648 17.5077 26.716 17.5768 26.8753 17.6329L27.1669 17.735C27.5997 17.8864 27.7625 18.075 27.7625 18.4306C27.7625 18.8948 27.4529 19.1148 26.8907 19.1148C26.6903 19.1148 26.4775 19.0881 26.3347 19.0546C26.1451 19.0092 26.1127 18.9603 26.1127 18.8258V18.3873H26.3682C26.4893 18.6289 26.6676 18.7676 26.9268 18.7676C27.1159 18.7676 27.205 18.6805 27.205 18.5537C27.205 18.427 27.1236 18.3564 26.9453 18.2945L26.6614 18.1961C26.2678 18.0596 26.107 17.8658 26.107 17.5082C26.107 17.1079 26.3584 16.8657 26.9232 16.8657C27.0968 16.8657 27.2653 16.8873 27.4183 16.9224C27.6069 16.9662 27.6404 17.0213 27.6404 17.179V17.567V17.5665ZM42.3802 17.5665H42.1427C42.0381 17.3248 41.8443 17.2094 41.6228 17.2094C41.4548 17.2094 41.3883 17.2872 41.3883 17.3908C41.3883 17.5077 41.4563 17.5768 41.6155 17.6329L41.9072 17.735C42.34 17.8864 42.5028 18.075 42.5028 18.4306C42.5028 18.8948 42.1932 19.1148 41.631 19.1148C41.43 19.1148 41.2177 19.0881 41.0745 19.0546C40.8849 19.0092 40.8529 18.9603 40.8529 18.8258V18.3873H41.1085C41.2296 18.6289 41.4079 18.7676 41.6671 18.7676C41.8562 18.7676 41.9448 18.6805 41.9448 18.5537C41.9448 18.427 41.8639 18.3564 41.6856 18.2945L41.4017 18.1961C41.0075 18.0596 40.8473 17.8658 40.8473 17.5082C40.8473 17.1079 41.0992 16.8657 41.664 16.8657C41.8371 16.8657 42.0056 16.8873 42.1586 16.9224C42.3472 16.9662 42.3807 17.0213 42.3807 17.179V17.567L42.3802 17.5665ZM33.43 18.7366V19.0767H32.8678C32.6736 19.0767 32.5896 18.986 32.5896 18.7969C32.5896 18.4239 32.6004 18.0075 32.6004 17.586C32.6004 17.3933 32.5391 17.3171 32.4159 17.3171C32.2557 17.3171 32.1526 17.4382 32.1526 17.6912V18.5383C32.1526 18.6748 32.2129 18.7366 32.35 18.7366V19.0767H31.3272V18.7366C31.4642 18.7366 31.5245 18.6748 31.5245 18.5383V17.4418C31.5245 17.3057 31.4642 17.2434 31.3272 17.2434V16.9033H31.7806C31.9774 16.9033 32.0527 16.9662 32.096 17.1424C32.1042 17.1769 32.1269 17.18 32.147 17.1491C32.2665 16.9631 32.4324 16.8652 32.6993 16.8652C33.0739 16.8652 33.2424 17.0667 33.2424 17.4866C33.2424 17.9065 33.2316 18.1652 33.2316 18.5383C33.2316 18.6748 33.2924 18.7366 33.429 18.7366M34.4976 18.2018C34.5785 18.2018 34.6254 18.1781 34.6635 18.1384C34.7316 18.0689 34.7568 17.9632 34.7568 17.7195C34.7568 17.4758 34.7316 17.3707 34.6635 17.3011C34.6254 17.2614 34.5785 17.2377 34.4976 17.2377C34.4167 17.2377 34.3698 17.2614 34.3317 17.3011C34.2637 17.3707 34.2384 17.4763 34.2384 17.7195C34.2384 17.9627 34.2637 18.0689 34.3317 18.1384C34.3698 18.1781 34.4167 18.2018 34.4976 18.2018ZM34.5095 19.6306C34.8207 19.6306 34.9093 19.609 34.9608 19.5662C34.999 19.5353 35.0165 19.4936 35.0165 19.4456C35.0165 19.3529 34.9552 19.3148 34.8197 19.3148C34.5826 19.3148 34.3508 19.321 34.1287 19.321C33.9937 19.321 33.9319 19.372 33.9319 19.459C33.9319 19.5049 33.9499 19.5441 33.9885 19.5724C34.0416 19.611 34.1122 19.6301 34.4482 19.6301H34.5084L34.5095 19.6306ZM35.2144 17.2702C35.3354 17.3887 35.3993 17.5556 35.3993 17.7726C35.3993 18.2451 35.0876 18.5743 34.4791 18.5743C34.3508 18.5743 34.3327 18.5681 34.2328 18.5681C34.1416 18.5681 34.104 18.6073 34.104 18.6578C34.104 18.7222 34.1467 18.7717 34.29 18.7717C34.512 18.7717 34.6759 18.7609 34.9134 18.7609C35.3808 18.7609 35.5591 18.9551 35.5591 19.2808C35.5591 19.4683 35.4962 19.6147 35.3751 19.7182C35.2247 19.847 35.0294 19.9084 34.4883 19.9084H34.3585C33.8989 19.9084 33.7433 19.8646 33.6423 19.7862C33.5624 19.7249 33.5253 19.6399 33.5253 19.5353C33.5253 19.3905 33.6098 19.2751 33.7824 19.2287C33.8097 19.221 33.8056 19.1994 33.7824 19.1849C33.6567 19.1071 33.5959 18.9989 33.5959 18.8495C33.5959 18.6681 33.7005 18.5233 33.9112 18.4702C33.9406 18.463 33.9411 18.4404 33.9185 18.4234C33.7067 18.2662 33.6072 18.0472 33.6072 17.7195C33.6072 17.1738 33.9118 16.8652 34.5182 16.8652C34.7367 16.8652 34.8743 16.9033 35.1603 16.9033H35.59V17.2217H35.2329C35.1974 17.2217 35.1881 17.2444 35.2144 17.2702Z" fill="#010101"/>
<path d="M47.8714 26.6393C47.8714 26.7084 47.9101 26.7759 48.1986 26.8181C48.3383 26.8388 48.5042 26.8614 48.6783 26.8841C48.6943 27.1866 48.7469 27.4782 48.8339 27.7626L49.257 27.7534C49.1405 27.4107 49.0772 27.0577 49.0705 26.6842L47.8709 26.6393H47.8714Z" fill="white"/>
<path d="M44.3538 23.1942C44.9788 23.2545 45.3647 23.6502 45.4822 24.6833L45.865 24.6447C45.7311 23.5446 45.2849 23.1844 44.5604 23.1844C44.4898 23.1844 44.4213 23.1875 44.3538 23.1937" fill="white"/>
<path d="M47.3257 31.5323H46.9388L46.2107 33.6985L46.6059 33.6737L47.3257 31.5323Z" fill="white"/>
<path d="M50.2309 31.0227C50.4896 31.0577 50.9394 31.102 51.4078 31.1412C51.6814 31.472 51.8627 31.7843 51.9612 32.0981L52.3852 32.0888C52.2848 31.7085 52.0683 31.3318 51.7143 30.9315L49.8918 30.8506C49.8918 30.9299 49.9418 30.9835 50.2309 31.0232" fill="white"/>
<path d="M50.7317 22.8964C51.5551 22.1941 52.6614 21.82 54.0521 21.7947C53.9717 21.7932 53.8923 21.7927 53.8145 21.7927C52.3388 21.7927 51.1758 22.1771 50.3215 22.9185L50.7317 22.8964Z" fill="white"/>
<path d="M53.8661 23.1813C53.8017 23.1813 53.7383 23.1844 53.676 23.1891C54.1954 23.2287 54.537 23.4364 54.7271 23.9053L55.0966 23.8636C54.8786 23.3689 54.4808 23.1813 53.8661 23.1813Z" fill="white"/>
<path d="M46.2618 28.0001C46.2618 28.0728 46.3154 28.1346 46.606 28.1707C47.1326 28.2356 48.126 28.3222 49.0937 28.3938C49.3354 28.8647 49.6785 29.3249 50.1232 29.7958L50.6045 29.7819C50.065 29.2192 49.6615 28.6792 49.4044 28.1191L46.2618 28.0001Z" fill="white"/>
<path d="M48.4774 30.0215C48.4774 30.1009 48.5341 30.1586 48.8236 30.1957C49.2884 30.2555 50.0289 30.3173 50.6704 30.3596L50.9151 30.6105L51.3799 30.578L50.9419 30.1298L48.4769 30.0221L48.4774 30.0215Z" fill="white"/>
<path d="M26.1812 32.584L26.8784 30.5136L24.3566 30.4095C24.3566 30.493 24.4112 30.5538 24.7008 30.5883C25.1151 30.6368 25.7618 30.6996 26.41 30.7548L25.787 32.6056L26.1812 32.5835V32.584Z" fill="white"/>
<path d="M20.1249 32.903L20.6937 31.2124L17.4841 31.1072C17.4841 31.1907 17.5697 31.2711 17.8469 31.2963C18.3977 31.3463 19.3298 31.4087 20.2243 31.4587L19.7343 32.9153L20.1254 32.903H20.1249Z" fill="white"/>
<path d="M34.0855 27.7962C34.1706 27.8142 34.2648 27.8338 34.3638 27.8539L33.1091 31.5788L33.0988 32.2914C33.0947 32.5444 33.1689 32.549 33.2529 32.2991L34.8059 27.688L33.7568 27.6045C33.7568 27.6833 33.8006 27.7349 34.0855 27.7957" fill="white"/>
<path d="M34.218 25.4356C34.4076 25.4696 34.776 25.5206 35.1351 25.5629L34.5209 27.388L34.9177 27.357L35.5618 25.4444C35.5742 25.4083 35.5855 25.3733 35.5973 25.3382L33.8763 25.2516C33.8763 25.3284 33.931 25.3841 34.218 25.4356Z" fill="white"/>
<path d="M39.7421 24.3422C39.9786 23.9991 40.2223 23.7033 40.4799 23.4457C41.5455 22.3816 42.895 21.8303 44.9319 21.7989C44.8633 21.7973 44.7938 21.7958 44.7289 21.7958C42.5874 21.7958 41.1915 22.3497 40.093 23.4457C39.8297 23.7085 39.5813 24.0114 39.3397 24.3644L39.7416 24.3422H39.7421Z" fill="white"/>
<path d="M35.3153 25.0038L35.7064 24.9822C36.0511 23.7625 35.7992 23.408 34.8784 23.2081L35.2762 22.0256H34.8892L34.4399 23.3606C35.4653 23.5832 35.659 23.8455 35.3148 25.0038" fill="white"/>
<path d="M49.2132 23.3504C49.3776 23.3782 49.5883 23.4102 49.8166 23.4401C49.4729 23.8657 49.1973 24.3691 48.9953 24.9539C48.818 25.4671 48.716 25.9386 48.6846 26.3838L49.0813 26.3359C49.1117 25.9072 49.2107 25.4512 49.3822 24.9539C49.6141 24.2825 49.9418 23.7157 50.3607 23.2541L48.8721 23.1649C48.8721 23.2546 48.9257 23.302 49.2132 23.3504Z" fill="white"/>
<path d="M37.8763 28.419C38.0278 27.9795 38.1757 27.574 38.322 27.1963L37.3023 27.1154C37.3023 27.1803 37.3466 27.2344 37.4837 27.2741C37.5893 27.3045 37.7207 27.3349 37.8701 27.3643C37.7449 27.6946 37.6187 28.0434 37.4894 28.4185C37.411 28.6447 37.3384 28.8617 37.2683 29.0745L37.6651 29.0441C37.7321 28.8411 37.8021 28.6334 37.8763 28.4185" fill="white"/>
<path d="M38.8295 25.9854L37.9443 25.9153C37.9443 25.9916 37.9984 26.0354 38.1591 26.0797C38.2225 26.0977 38.2957 26.1153 38.3761 26.1333C38.2684 26.3734 38.1602 26.6285 38.0515 26.8995L38.4513 26.8686C38.5781 26.5538 38.7038 26.2585 38.8295 25.9854Z" fill="white"/>
<path d="M39.5158 24.689L37.9443 24.6097C37.9443 24.6828 38.0185 24.7498 38.1571 24.7741C38.3812 24.8127 38.6899 24.8549 39.0088 24.889C38.8625 25.1389 38.7187 25.4114 38.575 25.7082L38.9758 25.6773C39.1541 25.3115 39.3334 24.9843 39.5158 24.689Z" fill="white"/>
<path d="M8.95214 32.8081L9.44474 31.3427L8.00714 31.2546C8.00714 31.3293 8.0427 31.4014 8.33073 31.4483C8.51829 31.4787 8.74449 31.5127 8.98976 31.5452L8.56105 32.8189L8.95163 32.8081H8.95214Z" fill="white"/>
<path d="M37.5527 29.3899L36.413 29.2997C36.413 29.379 36.4568 29.4429 36.7432 29.5053C36.8417 29.5269 36.9669 29.5511 37.1065 29.5764C36.7597 30.6827 36.5361 31.5967 36.4295 32.3655L36.8185 32.3429C36.9329 31.5354 37.175 30.5688 37.5522 29.3899" fill="white"/>
<path d="M53.2421 25.3068C53.6301 25.3517 54.2634 25.4078 54.9147 25.4491C54.9095 25.6773 54.8971 25.9257 54.877 26.1967H55.264C55.2908 25.8391 55.3042 25.5196 55.3037 25.2357L52.9304 25.1317C52.9304 25.2311 53.0035 25.279 53.2416 25.3068" fill="white"/>
<path d="M42.1144 28.8292L41.6656 30.1643C42.6595 30.3245 42.8924 30.4724 42.608 31.5045L42.9945 31.4942C43.2763 30.4193 43.0362 30.1509 42.1036 30.0123L42.5014 28.8297H42.1144V28.8292Z" fill="white"/>
<path d="M55.2063 24.2L53.9949 24.1469C53.9949 24.2216 54.0449 24.2747 54.3329 24.3211C54.4607 24.3417 54.6482 24.3695 54.8585 24.3984C54.8832 24.5483 54.8997 24.7137 54.909 24.8966L55.2954 24.8858C55.2815 24.622 55.2521 24.3948 55.2063 24.2Z" fill="white"/>
<path d="M36.7768 32.6916L35.2949 32.5978C35.2949 32.6746 35.3464 32.7364 35.6329 32.79C35.8055 32.822 36.0755 32.8642 36.3718 32.9049C36.3398 33.364 36.3573 33.7649 36.4238 34.121L36.8082 34.1086C36.734 33.701 36.7232 33.2347 36.7773 32.6916" fill="white"/>
<path d="M45.9077 25.5763C45.9103 25.3604 45.9056 25.1631 45.8953 24.9806L44.6937 24.926C44.6937 25.0059 44.7628 25.0605 44.9684 25.0925C45.1147 25.1151 45.3126 25.1404 45.5166 25.1615C45.5212 25.2939 45.5212 25.4377 45.5192 25.5871L45.9077 25.5763Z" fill="white"/>
<path d="M52.447 32.452L49.377 32.3356C49.377 32.4103 49.4321 32.4701 49.7228 32.5061C50.2978 32.5772 51.2583 32.6689 52.0507 32.7282C52.0446 32.9905 51.9879 33.2631 51.8864 33.5573L52.2811 33.5356C52.4125 33.1512 52.4738 32.7962 52.447 32.4515" fill="white"/>
<path d="M42.7853 32.1784C42.8249 32.0599 42.8615 31.9481 42.894 31.8425L40.5784 31.741C40.5784 31.8198 40.6412 31.8662 40.8231 31.8894C41.2451 31.9445 41.8629 32.0079 42.4405 32.0532C42.4266 32.0939 42.4138 32.1351 42.3988 32.1784L42.1417 32.9426L42.5359 32.9214L42.7858 32.1784H42.7853Z" fill="white"/>
<path d="M49.9907 35.0908C50.0556 35.0949 50.1221 35.097 50.1917 35.097C51.0779 35.097 51.7432 34.7136 52.1358 33.8959L50.5256 33.799C50.5256 33.8763 50.5822 33.9515 50.8718 33.9907C51.1037 34.0216 51.3691 34.0546 51.6494 34.0855C51.2794 34.7193 50.7157 35.0434 49.9912 35.0903" fill="white"/>
<path d="M42.4133 33.2837L40.7712 33.1852C40.7712 33.26 40.831 33.3084 41.0293 33.3419C41.3035 33.3877 41.6173 33.4326 41.962 33.4743L41.7584 34.0797L42.1552 34.0488L42.4128 33.2831L42.4133 33.2837Z" fill="white"/>
<path d="M45.8434 26.7367C45.8697 26.4441 45.8872 26.1751 45.8975 25.9252L43.536 25.8221C43.536 25.8989 43.5896 25.9546 43.8797 25.9927C44.3146 26.0504 44.8494 26.1091 45.4992 26.1633C45.4889 26.3446 45.4745 26.5348 45.4564 26.7367H45.8434Z" fill="white"/>
<path d="M41.278 35.0408C41.4048 35.0351 41.528 35.0263 41.6439 35.0098C41.7779 34.9908 41.8618 34.9228 41.9123 34.7739L42.0463 34.3761L41.0245 34.2952C41.0245 34.3601 41.0879 34.4132 41.226 34.4487C41.3218 34.4735 41.4605 34.5008 41.6104 34.5224L41.5259 34.7739C41.479 34.9119 41.4259 34.9939 41.2786 35.0413" fill="white"/>
<path d="M30.3719 25.2255C30.376 24.9781 30.2998 24.9792 30.2204 25.2172L29.9746 25.9458L29.9185 29.8567L30.3059 29.8165L30.3719 25.226V25.2255Z" fill="white"/>
<path d="M11.3657 24.3273L11.746 24.3046C11.8655 23.6059 11.6594 23.3889 11.1714 23.2086L11.5692 22.0261H11.1823L10.7335 23.3611C11.2776 23.526 11.4806 23.693 11.3652 24.3278" fill="white"/>
<path d="M8.47513 25.7082C9.07542 25.77 9.96168 25.8298 10.8953 25.8808L10.2131 27.9089L10.6068 27.8888L11.3653 25.634L8.14587 25.5278C8.14587 25.6144 8.24017 25.684 8.47462 25.7087" fill="white"/>
<path d="M28.5346 24.1469L28.938 24.116C28.9926 23.5678 28.768 23.3709 28.2125 23.2081L28.6103 22.0256H28.2233L27.7745 23.3606C28.3218 23.4828 28.568 23.6404 28.5346 24.1474" fill="white"/>
<path d="M8.04652 29.9865C8.38505 30.0262 8.92454 30.0808 9.46557 30.1318L9.1662 31.0227L9.56038 31.0006L9.92776 29.9072L7.71365 29.8046C7.71159 29.8896 7.81207 29.9587 8.046 29.986" fill="white"/>
<path d="M16.8121 24.7008L16.5066 24.9811L17.0718 24.9621L17.0919 24.9435C18.0993 24.0202 18.0071 23.3637 17.194 23.2086L17.5917 22.0261H17.2048L16.756 23.3616C17.6536 23.4621 17.6819 23.9047 16.8121 24.7013" fill="white"/>
<path d="M22.3868 22.0256L21.938 23.3606C22.5079 23.5332 22.7037 23.7074 22.5512 24.4195L22.9319 24.4004C23.0876 23.6255 22.8851 23.3972 22.376 23.2086L22.7732 22.0261H22.3863L22.3868 22.0256Z" fill="white"/>
<path d="M10.3738 24.7323C10.6 24.7714 10.8912 24.8142 11.2328 24.8585C11.1936 24.9884 11.1478 25.1306 11.0952 25.2872L11.4842 25.28C11.56 25.0486 11.6203 24.8461 11.6667 24.6663L10.1337 24.5674C10.1337 24.6539 10.194 24.7024 10.3733 24.7328" fill="white"/>
<path d="M37.2935 35.286C37.1172 35.0381 36.9838 34.7645 36.8916 34.4569L34.7331 34.3544C34.7331 34.4281 34.7887 34.4863 35.0773 34.5249C35.4035 34.5682 36.0481 34.6388 36.5845 34.6888C36.669 34.9047 36.7761 35.1025 36.9065 35.2865C37.4403 36.0393 38.5878 36.4876 40.1939 36.4876C40.282 36.4876 40.3701 36.4866 40.4577 36.4855C38.9171 36.4628 37.8139 36.0197 37.2935 35.287" fill="white"/>
<path d="M8.80334 33.2502L8.83065 33.1683L6.46712 33.059C6.46712 33.1435 6.52637 33.2043 6.8345 33.243C7.21889 33.2909 7.73674 33.3491 8.36073 33.4104C7.94388 34.5899 7.62802 34.7939 6.84275 34.9258L6.39343 36.2614H6.7804L7.17819 35.0789C8.0526 34.8692 8.35764 34.5749 8.80283 33.2507" fill="white"/>
<path d="M30.2271 35.2937L30.2457 33.9757L28.3309 33.8865C28.3309 33.969 28.3866 34.0215 28.6751 34.0653C29.0044 34.1153 29.4176 34.1632 29.8556 34.1993L29.8402 35.2937C29.8262 36.0218 30.0303 36.2604 30.644 36.2604H31.0309C30.4173 36.2604 30.2132 36.0213 30.2271 35.2937Z" fill="white"/>
<path d="M45.9727 35.556L46.4962 33.9989L45.3333 33.9371C45.3333 34.0309 45.3817 34.088 45.6677 34.1427C45.7815 34.1643 45.9083 34.1854 46.0397 34.205L45.6465 35.3752C45.5043 35.7946 45.6079 35.9698 46.1917 36.1094C45.9031 36.0404 45.8537 35.9069 45.9727 35.5555" fill="white"/>
<path d="M26.0436 32.992L26.0622 32.9374L24.5318 32.8436C24.5318 32.9245 24.572 32.9761 24.8585 33.0322C25.094 33.0781 25.3413 33.1172 25.601 33.1543C25.1357 34.4801 24.8018 34.6981 23.8831 34.9258L23.4338 36.2609H23.8207L24.2185 35.0789C25.162 34.8403 25.5479 34.4631 26.0436 32.9925" fill="white"/>
<path d="M13.9812 34.1473L13.9668 33.7789L11.9083 33.6774C11.9083 33.7572 11.9696 33.8216 12.152 33.8484C12.5555 33.9072 13.0512 33.9654 13.5891 34.0133L13.5943 34.1473C13.6783 35.9296 14.0276 36.3058 15.5446 36.3058C15.6234 36.3058 15.7017 36.3047 15.7795 36.3042C14.3909 36.2779 14.0621 35.8678 13.9812 34.1468" fill="white"/>
<path d="M18.3832 35.0784C19.2576 34.8686 19.5627 34.5744 20.0078 33.2512L17.87 33.1523C17.87 33.2347 17.9385 33.2966 18.0941 33.3234C18.4878 33.3893 19.0098 33.4542 19.5333 33.5011C19.1324 34.6022 18.8124 34.797 18.0478 34.9258L17.5984 36.2614H17.9854L18.3832 35.0789V35.0784Z" fill="white"/>
<path d="M30.3013 30.1472L29.2012 30.089C29.2012 30.1678 29.2569 30.2431 29.5454 30.2863C29.6469 30.3013 29.7727 30.3193 29.9118 30.3373L29.8974 31.339L30.2843 31.3184L30.3013 30.1472Z" fill="white"/>
<path d="M16.7013 25.3017L14.8469 25.2162C14.8469 25.2981 14.8938 25.3507 15.0597 25.377C15.3101 25.4166 15.6311 25.4568 15.9562 25.4862L15.0138 26.3513L15.6131 26.2993L16.7013 25.3017Z" fill="white"/>
<path d="M26.1668 27.3092C26.5259 27.3545 27.0072 27.4055 27.523 27.4498L27.1695 28.4999L27.5652 28.4747L27.9826 27.2334L25.8236 27.1329C25.8236 27.2138 25.8715 27.2721 26.1663 27.3092" fill="white"/>
<path d="M27.1536 25.6814C27.4009 25.7283 27.7163 25.7819 28.0667 25.8371L27.7101 26.8959L28.1012 26.8836L28.5392 25.5841L26.8171 25.4975C26.8171 25.5805 26.8666 25.6289 27.1541 25.682" fill="white"/>
<path d="M28.6575 25.227C28.759 24.9179 28.8342 24.6592 28.8827 24.4423L27.8367 24.3593C27.8367 24.4438 27.8815 24.4974 28.1675 24.5551C28.2566 24.5732 28.3525 24.5912 28.454 24.6103C28.4091 24.7921 28.3447 25.0044 28.2638 25.2487L28.6575 25.227Z" fill="white"/>
<path d="M13.822 30.0298C13.8153 29.8556 13.7411 29.8324 13.6185 29.9447L13.4381 30.1096L13.5092 31.9533L13.8952 31.9239L13.822 30.0292V30.0298Z" fill="white"/>
<path d="M13.9096 32.2888L12.3092 32.2104C12.3092 32.2955 12.3716 32.3594 12.6271 32.3996C12.8389 32.433 13.1486 32.4743 13.5314 32.5139L13.567 33.4347L13.9529 33.4188L13.9091 32.2888H13.9096Z" fill="white"/>
<path d="M14.0312 26.6002C14.0312 26.6769 14.0791 26.7465 14.3666 26.7944C14.4073 26.8006 14.4552 26.8088 14.5057 26.8161L13.3407 27.8852L13.0995 28.602L15.2235 26.6558L14.0306 26.6007L14.0312 26.6002Z" fill="white"/>
<path d="M21.8653 27.7286L17.1646 27.6179C17.1646 27.707 17.2573 27.7786 17.5273 27.7987C18.7634 27.8884 19.964 27.9538 21.3861 28.0048L21.1337 28.7556L21.5237 28.7458L21.8659 27.7286H21.8653Z" fill="white"/>
<path d="M21.3409 24.84C21.667 24.8915 22.0437 24.9399 22.3992 24.9791C22.3678 25.0806 22.3328 25.1883 22.2931 25.3048L22.1792 25.6438L22.5677 25.6371L22.6404 25.4217C22.7238 25.1744 22.7908 24.9585 22.8434 24.7668L21.0709 24.6648C21.0709 24.7508 21.1548 24.8111 21.3403 24.8405" fill="white"/>
<path d="M30.2513 33.6191L30.2791 31.6765L28.6163 31.5765C28.6163 31.6574 28.6725 31.7162 28.9616 31.7641C29.2006 31.8038 29.5175 31.8491 29.889 31.8888L29.8638 33.6392L30.2513 33.6196V33.6191Z" fill="white"/>
<path d="M26.9969 30.1616L27.4519 28.8106L26.1993 28.7256C26.1993 28.8065 26.2441 28.8523 26.5296 28.9147C26.6635 28.9441 26.8238 28.9755 26.999 29.008L26.6074 30.1709L26.9974 30.1611L26.9969 30.1616Z" fill="white"/>
<path d="M22.4506 25.9891L19.0065 25.8835C19.0065 25.9829 19.1348 26.0458 19.3693 26.0643C20.0654 26.1184 20.9682 26.1751 21.9832 26.2292L21.5983 27.3747L21.9868 27.3695L22.4511 25.9891H22.4506Z" fill="white"/>
<path d="M10.0492 29.5475L10.4836 28.2552L8.72705 28.1542C8.72705 28.2253 8.79249 28.2711 8.96562 28.3C9.22325 28.3428 9.6231 28.4005 10.0312 28.4505L9.65763 29.5609L10.0492 29.5475Z" fill="white"/>
<path d="M20.8121 30.8589L21.4001 29.1111L18.6815 28.9988C18.6794 29.0766 18.7578 29.1461 18.9546 29.1683C19.4997 29.2306 20.2721 29.3048 20.9291 29.36L20.4226 30.8661L20.8116 30.8589H20.8121Z" fill="white"/>
<path d="M57.5364 22.6764L56.3503 26.1967H55.2636C55.2903 25.8386 55.3037 25.5196 55.3032 25.2352L52.9299 25.1316C52.9299 25.043 53.0149 24.9492 53.3736 24.9389L55.2945 24.8853C55.2806 24.6215 55.2512 24.3943 55.2053 24.1995L53.9939 24.1464C53.9939 24.0537 54.0717 23.9784 54.4304 23.9383L55.0956 23.863C54.8776 23.3679 54.4803 23.1808 53.8656 23.1808C52.9454 23.1808 52.3002 23.6739 51.9767 24.5854C51.5892 25.6763 51.7618 26.3667 52.6852 27.3066L53.5194 28.1573C55.3712 30.0457 55.6629 31.4493 54.9394 33.4295C54.2134 35.4148 52.6651 36.4835 49.7811 36.4835C48.5558 36.4835 47.1811 36.3449 46.1907 36.1089C45.9022 36.0404 45.8532 35.9064 45.9722 35.555L46.4957 33.9978L45.3328 33.936C45.3328 33.85 45.39 33.7577 45.6553 33.7325L46.605 33.6727L47.3253 31.5313H48.4795C48.2353 34.2751 48.7681 35.0959 50.1907 35.0959C51.0765 35.0959 51.7422 34.7125 52.1343 33.8948L50.5241 33.7979C50.5241 33.7129 50.6107 33.6248 50.9678 33.6052L52.2801 33.5346C52.4121 33.1502 52.4729 32.7952 52.4466 32.4505L49.3766 32.334C49.3766 32.248 49.4652 32.1506 49.8203 32.1413L52.3848 32.0867C52.2838 31.7064 52.0679 31.3298 51.7139 30.9289L49.8919 30.8485C49.8919 30.7578 49.9759 30.6738 50.3324 30.6491L51.38 30.5759L50.942 30.1277L48.477 30.02C48.477 29.9329 48.562 29.8376 48.9206 29.8278L50.604 29.7804C50.0645 29.2172 49.661 28.6772 49.4039 28.1176L46.2613 27.9986C46.2613 27.9012 46.3499 27.8146 46.7049 27.8059L49.2576 27.7512C49.1411 27.4086 49.0783 27.0556 49.0711 26.6821L47.8715 26.6372C47.8715 26.545 47.9483 26.4687 48.3064 26.4265L49.0808 26.3337C49.1113 25.905 49.2102 25.449 49.3823 24.9518C49.6142 24.2799 49.9413 23.7136 50.3608 23.2519L48.8722 23.1628C48.8722 23.0695 48.9587 22.9896 49.3158 22.9701L50.7318 22.8938C51.584 22.1668 52.7403 21.7901 54.2016 21.7901C55.211 21.7901 56.4291 21.9138 57.3056 22.1183C57.6178 22.191 57.6647 22.293 57.5364 22.6743M47.0965 30.0112L47.4943 28.8292H42.5014L42.1041 30.0112C43.0368 30.1503 43.2774 30.4188 42.995 31.4931L41.0221 31.5488C40.6634 31.5591 40.5784 31.6508 40.5784 31.7415L42.894 31.8425C42.8616 31.9481 42.8255 32.0599 42.7853 32.1784L42.5354 32.9214L41.2148 32.9926C40.8582 33.0116 40.7716 33.0997 40.7716 33.1853L42.4138 33.2837L42.1562 34.0494L41.4683 34.1024C41.1091 34.1303 41.0251 34.2081 41.0251 34.2952L42.0469 34.376L41.9129 34.7733C41.8625 34.9227 41.778 34.9902 41.6445 35.0093C41.4348 35.0397 41.205 35.0469 40.9628 35.0469C40.4264 35.0469 39.942 34.8954 39.7251 34.561C39.3608 33.9994 39.4062 32.9946 40.7943 28.9575C42.0294 25.3583 42.5416 24.3726 43.1862 23.7347C43.5427 23.3818 44.0008 23.1844 44.5614 23.1844C45.2859 23.1844 45.7321 23.5441 45.8666 24.6447L45.1318 24.7184C44.7727 24.7544 44.6949 24.8328 44.6949 24.9255L45.8965 24.9806C45.9073 25.162 45.9114 25.3599 45.9089 25.5758L43.9802 25.6299C43.6216 25.6402 43.5366 25.7355 43.5366 25.8226L45.8986 25.9256C45.8882 26.175 45.8707 26.444 45.8445 26.7372H47.0002L48.376 22.6501C48.5135 22.241 48.463 22.1528 48.1235 22.089C47.1295 21.9055 45.9851 21.7963 45.1174 21.7963C42.9759 21.7963 41.5796 22.3502 40.4815 23.4462C40.2239 23.7033 39.9802 23.9996 39.7437 24.3427L38.3895 24.4175C38.0319 24.437 37.9459 24.5221 37.9459 24.6102L39.5175 24.6895C39.3351 24.9848 39.1557 25.312 38.9775 25.6778L38.3895 25.7237C38.0304 25.751 37.9464 25.8226 37.9464 25.9159L38.8311 25.9859C38.7054 26.259 38.5797 26.5543 38.4529 26.8691L37.748 26.9237C37.3889 26.9515 37.3044 27.0314 37.3044 27.1164L38.3236 27.1973C38.1778 27.575 38.0299 27.9805 37.8784 28.4201C37.8042 28.6349 37.7341 28.8426 37.6671 29.0456L36.8587 29.1079C36.499 29.1358 36.415 29.2131 36.415 29.3007L37.5553 29.3908C37.1781 30.5703 36.9349 31.5364 36.8216 32.3438L35.7411 32.4062C35.384 32.4258 35.2979 32.5123 35.2979 32.5989L36.7793 32.6927C36.7252 33.2358 36.736 33.7021 36.8102 34.1097L35.1789 34.1622C34.8198 34.1735 34.7353 34.2658 34.7353 34.3549L36.8937 34.4575C36.986 34.7661 37.1199 35.0392 37.2956 35.2865C37.8294 36.0393 38.977 36.4876 40.5825 36.4876C41.8588 36.4876 43.0852 36.3475 44.0261 36.0759C44.2069 36.0239 44.2796 35.9486 44.3522 35.7338L45.8202 31.3695C46.1361 30.4317 46.3468 30.1977 47.0991 30.0122M38.995 23.2081L39.3928 22.0256H35.2763L34.8785 23.2081C35.7988 23.408 36.0513 23.7625 35.7065 24.9822L34.32 25.059C33.9629 25.0785 33.8768 25.1615 33.8768 25.2517L35.5978 25.3388C35.5865 25.3738 35.5751 25.4083 35.5623 25.4449L34.9182 27.3571L34.2009 27.4132C33.8413 27.4405 33.7573 27.5173 33.7573 27.6059L34.8069 27.6889L33.2533 32.3C33.1694 32.5505 33.0952 32.5453 33.0993 32.2923L33.2322 23.0051C33.242 22.2755 33.056 22.0266 32.365 22.0266H28.6103L28.2125 23.2092C28.7679 23.372 28.9926 23.5683 28.938 24.1165L28.2805 24.1675C27.9213 24.1954 27.8368 24.2665 27.8368 24.3603L28.8834 24.4432C28.8354 24.6601 28.7592 24.9188 28.6577 25.228L27.2597 25.3053C26.9021 25.3248 26.8161 25.4057 26.8161 25.4975L28.5386 25.5845L28.1007 26.884L26.2668 26.9412C25.9077 26.9526 25.8237 27.0371 25.8237 27.1339L27.9827 27.2339L27.5648 28.4757L26.6425 28.5339C26.2849 28.5566 26.1988 28.6349 26.1988 28.7266L27.4514 28.8117L26.9964 30.1627L24.7999 30.2183C24.4448 30.2276 24.3562 30.3168 24.3562 30.4111L26.8779 30.5151L26.1808 32.5855L24.958 32.6535C24.6004 32.6731 24.5314 32.7571 24.5314 32.8462L26.0617 32.9395L26.0432 32.9941C25.5475 34.4652 25.1621 34.8419 24.2181 35.0804L23.8208 36.263H27.9373L28.3351 35.0804C27.3071 34.8573 27.1119 34.4425 27.6513 32.8436L30.22 25.2192C30.2998 24.9806 30.3756 24.9801 30.3715 25.2275L30.3055 29.818L29.6439 29.8865C29.2847 29.9236 29.2008 30.003 29.2008 30.0906L30.3009 30.1488L30.2839 31.32L29.0601 31.3859C28.703 31.4045 28.6164 31.4782 28.6164 31.5781L30.2792 31.6781L30.2514 33.6207L28.7746 33.6959C28.417 33.7155 28.331 33.7933 28.331 33.8881L30.2462 33.9777L30.2277 35.2958C30.2138 36.0239 30.4173 36.2624 31.0315 36.2624H33.4775L37.1704 25.296C37.6661 23.8249 38.052 23.4482 38.9955 23.2097M22.8702 32.8648L25.5037 25.0368C25.9494 23.7126 26.2539 23.4183 27.1289 23.2086L27.5261 22.0261H22.7738L22.376 23.2086C22.8856 23.3972 23.0876 23.6255 22.9325 24.4005L21.515 24.4726C21.1574 24.4927 21.0714 24.5741 21.0714 24.6653L22.8439 24.7673C22.7919 24.959 22.7244 25.1754 22.6414 25.4222L22.5687 25.6376L19.4503 25.6907C19.0938 25.6974 19.0067 25.7953 19.0067 25.8834L22.4507 25.989L21.9865 27.3694L17.6083 27.4256C17.2527 27.4302 17.1646 27.5276 17.1646 27.6183L21.8659 27.7291L21.5233 28.7462L19.1257 28.8065C18.7707 28.8153 18.6826 28.9024 18.6826 28.9987L21.4006 29.111L20.8127 30.8588L17.9277 30.915C17.5712 30.9217 17.4841 31.0139 17.4841 31.1077L20.6937 31.2133L20.1253 32.9034L18.3137 32.9601C17.9545 32.9714 17.87 33.0539 17.87 33.1528L20.0079 33.2517C19.5627 34.5749 19.2581 34.8697 18.3832 35.0789L17.9859 36.2614H22.7383L23.136 35.0789C22.4502 34.8248 22.3209 34.5002 22.8707 32.8653M16.8858 33.9561L16.4989 27.5853C16.486 27.3699 16.5277 27.2808 16.6777 27.1432L19.7209 24.3561C20.6452 23.5096 20.9755 23.3287 21.5578 23.2092L21.9561 22.0256H17.5918L17.194 23.2081C18.0071 23.3637 18.0998 24.0202 17.092 24.943L17.0719 24.9616L15.2906 25.0224C14.9314 25.0337 14.8469 25.129 14.8469 25.2151L16.7014 25.3006L15.6131 26.2982L14.4713 26.3971C14.1122 26.4327 14.0323 26.5089 14.0323 26.5991L15.2246 26.6542L13.1007 28.6004L14.3002 25.0353C14.7454 23.711 14.9994 23.5693 15.8733 23.3591L16.3227 22.024H11.5698L11.1725 23.2066C11.6605 23.3874 11.8661 23.6038 11.7466 24.3025L10.5779 24.3721C10.2208 24.3922 10.1343 24.47 10.1343 24.5648L11.6672 24.6643C11.6208 24.8436 11.5605 25.0461 11.4848 25.2774L8.59054 25.3336C8.23397 25.3403 8.14689 25.4341 8.14689 25.5263L11.3663 25.6319L10.6078 27.8873L9.17176 27.9599C8.81416 27.9795 8.72811 28.0486 8.72811 28.1526L10.4847 28.2541L10.0503 29.5459L8.15823 29.6108C7.79909 29.6217 7.7151 29.7129 7.7151 29.803L9.9292 29.9056L9.5613 30.9995L8.45245 31.0608C8.09485 31.0804 8.0088 31.1639 8.0088 31.2535L9.44691 31.3416L8.9538 32.8065L6.91282 32.8653C6.5578 32.874 6.46918 32.9668 6.46918 33.0575L8.83271 33.1667L8.8054 33.2486C8.36021 34.5729 8.05569 34.8666 7.18076 35.0768L6.78298 36.2594H11.864L12.2618 35.0768C11.2689 34.8753 11.1035 34.542 11.6682 32.8632L12.2185 31.2283L13.6206 29.9437C13.7432 29.8314 13.8174 29.8546 13.8241 30.0287L13.8973 31.9234L12.7518 32.0099C12.3948 32.0352 12.3113 32.1192 12.3113 32.2088L13.9112 32.2877L13.955 33.4176L12.3535 33.4841C11.9959 33.5037 11.9099 33.5841 11.9099 33.6768L13.9684 33.7783L13.9828 34.1468C14.0668 35.9286 14.4162 36.3052 15.9331 36.3052C16.4814 36.3052 17.0085 36.2831 17.3779 36.2465L17.77 35.0696C17.1249 34.9805 16.9374 34.7702 16.8874 33.9546" fill="#010101"/>
<path d="M42.6111 48.9412V49.8403H42.3859V48.9412H42.1257V48.7175H42.8713V48.9412H42.6111ZM43.8297 49.8408V49.1782L43.6406 49.5914H43.4417L43.2526 49.1782V49.8408H43.0274V48.7175H43.2526L43.5411 49.3173L43.8297 48.7175H44.0548V49.8408H43.8297Z" fill="#010101"/>
</svg>
