<svg width="64" height="64" viewBox="0 0 64 64" fill="none" xmlns="http://www.w3.org/2000/svg">
<g clip-path="url(#clip0_33_1930)">
<path d="M33.8672 25.2654C26.7544 25.4959 20.3557 27.2685 20.3557 27.2685L20.2094 26.3265L19.5574 27.4272C19.5574 27.4272 16.3419 28.6073 14.2173 29.7204C16.9394 28.7808 19.1483 28.2032 19.1483 28.2032L18.4889 29.6014L19.6938 28.523C19.9888 28.6792 20.2665 28.8329 20.564 28.9891L20.4425 27.9528C20.445 27.9528 27.6197 25.9571 33.8672 25.2654Z" fill="white"/>
<path d="M61.2124 23.5423C61.2124 23.5423 59.1125 22.8431 57.2953 22.4961C57.3201 22.4911 59.3257 20.8871 59.3257 20.8871C59.3257 20.8871 51.2312 18.75 41.5997 19.3897C41.5997 19.3897 40.199 14.8082 33.7209 14.8082C28.9014 14.8082 26.1495 17.8303 25.2942 20.183C16.2056 22.2134 9.29118 26.8644 9.29118 26.8644L10.9597 28.1238C6.6831 30.4021 2.28754 34.0192 2.28754 34.0192C2.28754 34.0192 2.71891 36.1885 5.34435 39.642C5.34435 39.642 7.10208 40.9857 11.7332 42.736C11.7332 42.736 12.6182 42.5129 13.0595 42.2873C13.6942 42.5005 14.3512 42.679 14.9957 42.798C14.9685 43.3806 14.7999 44.216 15.8783 45.2052L15.0949 45.6192C15.0949 45.6192 16.0618 48.0141 21.3895 49.2735C23.4249 48.7827 32.6796 47.0324 35.8753 52.8559L51.9775 37.0215H48.5488L61.2124 23.5423ZM49.1934 37.914L36.0637 51.5098C36.0637 51.5098 32.6152 45.9217 21.4093 48.3662C21.4093 48.3662 17.4799 47.3175 16.4262 45.9217L17.3658 45.3738C16.6692 45.1185 15.8015 44.2086 15.8015 43.7574C15.8015 43.6483 15.9056 43.564 16.0742 43.564C16.518 43.564 17.4427 44.1194 19.3938 44.1194C21.5705 44.1194 23.4398 43.688 23.4398 42.4286C23.4398 41.5584 21.0523 41.5261 21.0523 40.8791C21.0523 40.0436 24.5653 39.5899 26.3553 39.5899C26.3553 39.5899 23.896 39.4387 21.7217 39.4387C18.0922 39.4387 17.1377 40.0362 17.1377 40.4626C17.1377 41.0477 18.7269 41.2063 18.7269 41.7294C18.7269 42.0319 17.8617 42.1261 17.0857 42.1261C14.966 42.1261 12.9802 41.3377 12.9802 41.3377C12.9802 41.3377 12.3579 41.6873 11.7803 41.8187C11.7803 41.8187 7.78137 40.2618 5.96166 38.9949C5.96166 38.9949 3.99816 36.4637 3.32879 34.3663C3.32879 34.3663 8.06895 30.5335 12.643 28.2824L10.8679 26.9412C10.8679 26.9412 18.1691 22.4812 25.9264 20.9515C25.9264 20.9515 27.6246 15.8891 33.292 15.8891C39.1552 15.8891 40.3601 20.4631 40.3601 20.4631C40.3601 20.4631 46.387 19.9078 55.188 21.6705L53.5592 22.9274C53.5592 22.9274 56.1797 23.4729 58.1382 24.2166L46.1043 37.914H49.1934ZM39.3585 50.942C39.2286 50.9354 39.0987 50.9553 38.9767 51.0005C38.8546 51.0456 38.7431 51.1151 38.6488 51.2048C38.5545 51.2944 38.4794 51.4023 38.4281 51.5218C38.3768 51.6414 38.3503 51.7701 38.3503 51.9002C38.3503 52.0303 38.3768 52.1591 38.4281 52.2786C38.4794 52.3982 38.5545 52.506 38.6488 52.5957C38.7431 52.6853 38.8546 52.7548 38.9767 52.8C39.0987 52.8451 39.2286 52.865 39.3585 52.8584C39.6042 52.8459 39.8357 52.7395 40.0052 52.5612C40.1747 52.3829 40.2692 52.1462 40.2692 51.9002C40.2692 51.6542 40.1747 51.4176 40.0052 51.2393C39.8357 51.0609 39.6042 50.9545 39.3585 50.942ZM39.3585 52.6551C39.1586 52.6551 38.9669 52.5757 38.8256 52.4344C38.6843 52.293 38.6049 52.1013 38.6049 51.9015C38.6049 51.7016 38.6843 51.5099 38.8256 51.3685C38.9669 51.2272 39.1586 51.1478 39.3585 51.1478C39.5584 51.1478 39.7501 51.2272 39.8914 51.3685C40.0328 51.5099 40.1122 51.7016 40.1122 51.9015C40.1122 52.1013 40.0328 52.293 39.8914 52.4344C39.7501 52.5757 39.5584 52.6551 39.3585 52.6551Z" fill="#DDC9A3"/>
<path d="M39.7504 51.6784C39.7504 51.5923 39.7162 51.5097 39.6553 51.4488C39.5943 51.3879 39.5117 51.3536 39.4256 51.3536H38.9645V52.4494H39.1702V52.0032H39.3165L39.5248 52.4494H39.7529L39.5347 51.9858C39.5978 51.9629 39.6524 51.9211 39.691 51.8661C39.7296 51.8111 39.7503 51.7456 39.7504 51.6784ZM39.4256 51.7974H39.1702V51.5594H39.4256C39.4925 51.5594 39.5471 51.6139 39.5471 51.6784C39.5464 51.7102 39.5333 51.7405 39.5106 51.7627C39.4879 51.785 39.4574 51.7974 39.4256 51.7974Z" fill="#DDC9A3"/>
<path d="M38.5355 22.0027C34.9563 21.8847 31.3739 22.0947 27.833 22.63C27.775 23.0978 27.7784 23.5712 27.8429 24.0381C31.217 23.6762 34.9358 23.5547 38.652 23.9489C38.7306 23.2984 38.6911 22.6392 38.5355 22.0027ZM33.24 28.7486C35.2481 28.7486 36.9984 27.6627 37.9455 26.0463C35.1721 26.4066 32.412 26.8622 29.67 27.4123C30.627 28.2453 31.874 28.7486 33.24 28.7486ZM33.24 17.8477C31.9102 17.8479 30.6264 18.3341 29.6301 19.2149C28.6338 20.0957 27.9938 21.3102 27.8305 22.63C27.8305 22.63 30.565 21.4003 38.0025 20.6491C37.5309 19.7997 36.8405 19.0919 36.0031 18.5993C35.1656 18.1067 34.2116 17.8472 33.24 17.8477Z" fill="#EBA900"/>
<path d="M38.5354 22.0028C38.691 22.6392 38.7305 23.2985 38.6519 23.949C41.0171 24.1993 43.3822 24.658 45.6581 25.3968C43.0793 25.4941 40.5064 25.7117 37.9479 26.0488C37.5442 26.7407 36.993 27.3351 36.3334 27.7895C35.6738 28.244 34.9221 28.5474 34.1318 28.6781C33.3415 28.8087 32.5321 28.7635 31.7613 28.5456C30.9905 28.3277 30.2773 27.9424 29.6724 27.4173C24.4042 28.466 20.7053 29.5246 20.7053 29.5246C23.3109 29.6411 24.7835 30.246 24.7835 30.246C18.0476 31.6096 11.7827 34.2053 9.74982 35.0928C10.2357 35.8663 10.8679 36.7687 10.8679 36.7687L9.86386 38.0108C11.6637 38.338 13.89 38.1471 13.89 38.1471L17.2319 36.1018L19.8524 36.8877L20.6433 35.8093H19.7805L21.5085 33.0252L22.9613 35.8068H22.3093L22.7506 36.7662L24.5604 36.444L25.3314 35.4622H24.6422L25.671 33.8805H24.8975L26.5263 31.1212L27.9172 33.9697H27.3023L28.237 35.6308H27.5007L29.008 38.3777L30.5153 36.2605H29.4815L31.0384 33.9177H30.0393L32.2879 30.0626L34.2341 33.9673H33.4234L34.7522 36.2605H33.8151L35.1018 39.1066L37.2834 35.544H36.081L37.8636 32.6459H36.7703L39.1552 27.7991L41.6592 32.874H40.7741L42.3856 35.544H41.2823L42.517 38.1868L44.5325 35.1201H43.4491L45.7895 31.7484H44.5325L48.2785 26.5769L50.2544 30.1345L54.4566 24.9654C49.6148 23.1507 44.0937 22.1838 38.5354 22.0028ZM27.7907 23.2994C27.791 23.0756 27.8051 22.8521 27.8329 22.63C22.7654 23.406 18.0402 24.8538 14.2049 26.9314C14.2049 26.9314 20.1227 24.8613 27.8403 24.0382C27.8075 23.7933 27.7909 23.5465 27.7907 23.2994Z" fill="#AA182C"/>
<path d="M58.1382 24.2167C56.1772 23.473 53.5592 22.9276 53.5592 22.9276L55.188 21.6706C46.3869 19.908 40.3601 20.4633 40.3601 20.4633C40.3601 20.4633 39.1527 15.8892 33.292 15.8892C27.6246 15.8892 25.9264 20.9517 25.9264 20.9517C18.1666 22.4788 10.8679 26.9413 10.8679 26.9413L12.6455 28.2801C8.0714 30.5312 3.33124 34.3665 3.33124 34.3665C4.00061 36.4638 5.96411 38.9951 5.96411 38.9951C7.78382 40.2619 11.7827 41.8188 11.7827 41.8188C12.3579 41.6874 12.9826 41.3379 12.9826 41.3379C12.9826 41.3379 14.9684 42.1262 17.0881 42.1262C17.8641 42.1262 18.7293 42.0345 18.7293 41.7296C18.7293 41.2065 17.1402 41.0478 17.1402 40.4627C17.1402 40.0363 18.0947 39.4388 21.7242 39.4388C23.8984 39.4388 26.3577 39.5901 26.3577 39.5901C24.5678 39.5901 21.0548 40.0437 21.0548 40.8792C21.0548 41.5238 23.4422 41.5585 23.4422 42.4287C23.4422 43.6881 21.5729 44.1195 19.3962 44.1195C17.4451 44.1195 16.5204 43.5642 16.0766 43.5642C15.9056 43.5642 15.8039 43.6485 15.8039 43.7575C15.8039 44.2112 16.6716 45.1211 17.3683 45.374L16.4287 45.9218C17.4823 47.3176 21.4118 48.3663 21.4118 48.3663C32.6176 45.9218 36.0662 51.5099 36.0662 51.5099L49.1958 37.9141H46.1043L58.1382 24.2167ZM44.5325 35.1201L42.5169 38.1868L41.2823 35.5441H42.3856L40.7741 32.8765H41.6517L39.1478 27.8016L36.7628 32.6484H37.8561L36.0761 35.5441H37.2785L35.0968 39.1066L33.8101 36.263H34.7472L33.4184 33.9698H34.2291L32.2829 30.0651L30.0343 33.9202H31.0334L29.479 36.263H30.5128L29.0055 38.3802L27.4982 35.6333H28.2345L27.2998 33.9723H27.9147L26.5263 31.1212L24.8975 33.8805H25.671L24.6422 35.4622H25.3314L24.5603 36.444L22.7505 36.7663L22.3093 35.8068H22.9588L21.5085 33.0252L19.7805 35.8093H20.6433L19.8524 36.8902L17.2319 36.1019L13.89 38.1472C13.89 38.1472 11.6637 38.3381 9.86384 38.0108L10.8704 36.7663C10.8704 36.7663 10.2382 35.8639 9.75228 35.0904C11.7852 34.2028 18.0476 31.6071 24.7859 30.2436C24.7859 30.2436 23.3133 29.6387 20.7077 29.5222C20.7077 29.5222 24.4066 28.4636 29.6699 27.4124C32.4117 26.8611 35.1718 26.4054 37.9454 26.0464C40.504 25.7104 43.0768 25.4929 45.6556 25.3943C43.3767 24.67 41.0287 24.1848 38.6494 23.9465C34.9307 23.5523 31.2144 23.6738 27.8403 24.0358C20.1226 24.8588 14.2049 26.929 14.2049 26.929C18.0401 24.8539 22.7654 23.4061 27.8328 22.6301C27.9733 21.4884 28.4714 20.4205 29.2558 19.5793C30.0402 18.738 31.0707 18.1665 32.1997 17.9466C33.3287 17.7268 34.4984 17.8698 35.5411 18.3553C36.5839 18.8407 37.4463 19.6437 38.0049 20.6492C30.5674 21.4004 27.8328 22.6301 27.8328 22.6301C31.2987 22.0995 34.9257 21.8863 38.5354 22.0028C44.0937 22.1838 49.6173 23.1507 54.4591 24.963L50.2569 30.132L48.281 26.5744L44.535 31.746H45.7919L43.4516 35.1176H44.5325V35.1201ZM20.5639 28.9916L19.6937 28.5255L18.4889 29.604C18.712 29.1329 18.9277 28.6842 19.1483 28.2057C19.1483 28.2057 16.9369 28.7858 14.2173 29.723C16.3394 28.6073 19.5574 27.4297 19.5574 27.4297L20.2094 26.329L20.3557 27.2736C20.3557 27.2736 26.7544 25.4985 33.8671 25.2704C27.6196 25.9596 20.4449 27.9553 20.4424 27.9578L20.5639 28.9916Z" fill="#124734"/>
</g>
<defs>
<clipPath id="clip0_33_1930">
<rect width="59.5" height="39.6667" fill="white" transform="translate(2 14)"/>
</clipPath>
</defs>
</svg>
