<svg width="64" height="64" viewBox="0 0 64 64" fill="none" xmlns="http://www.w3.org/2000/svg">
<g clip-path="url(#clip0_33_1956)">
<path d="M54.5755 31.0522L58.611 26.8114L56.3172 16.2408L46.1147 13.2125L45.1965 14.0625C41.7882 13.046 35.6482 11.9942 31.5531 12C16.3762 12.0237 4.44747 20.4666 4.40002 31.2156C4.40002 40.4132 12.3317 50.6303 31.6842 50.6303C47.0182 50.6303 60.8044 40.4222 60.8044 40.4222L54.5755 31.0522ZM57.0689 44.1874C56.9188 44.1871 56.7701 44.2164 56.6314 44.2736C56.4926 44.3309 56.3665 44.4149 56.2602 44.5209C56.1539 44.6269 56.0696 44.7528 56.012 44.8914C55.9545 45.03 55.9248 45.1786 55.9247 45.3287C55.9245 45.4789 55.9541 45.6275 56.0115 45.7662C56.069 45.9049 56.1533 46.0309 56.2596 46.1369C56.3659 46.2429 56.4921 46.3269 56.631 46.384C56.7698 46.4411 56.9186 46.4702 57.0687 46.4696C57.6957 46.4696 58.204 45.9616 58.204 45.3283C58.204 44.6985 57.696 44.1874 57.0687 44.1874H57.0689ZM57.0689 46.2261C56.8309 46.2261 56.6027 46.1316 56.4344 45.9633C56.2661 45.795 56.1715 45.5667 56.1715 45.3287C56.1715 45.0907 56.2661 44.8625 56.4344 44.6942C56.6027 44.5259 56.8309 44.4313 57.0689 44.4313C57.559 44.4313 57.9663 44.8326 57.9663 45.3287C57.9663 45.8249 57.559 46.2261 57.0689 46.2261Z" fill="white"/>
<path d="M57.5384 45.0639C57.5384 44.85 57.3632 44.6777 57.149 44.6777H56.5963V45.9794H56.8429V45.4475H57.0181L57.2676 45.9794H57.5379L57.2761 45.4267C57.4283 45.373 57.5384 45.2336 57.5384 45.0642V45.0639ZM57.149 45.2067H56.8429V44.9214H57.149C57.2296 44.9214 57.2916 44.984 57.2916 45.0639C57.2916 45.1438 57.2293 45.2067 57.149 45.2067Z" fill="white"/>
<path d="M53.2233 30.9362L57.4612 26.4873L55.4167 17.073L46.3942 14.3952L45.4671 15.2541C42.4269 14.2497 35.9129 13.0491 31.5564 13.0549C16.7535 13.082 5.49925 21.2037 5.45762 31.2184C5.41018 41.7237 15.6004 49.5721 31.6833 49.5721C42.9436 49.5721 54.477 43.5661 59.3509 40.1484L53.2233 30.9362Z" fill="#192168"/>
<path d="M51.6394 31.914C51.6394 31.914 45.2502 36.2765 38.207 37.5901V25.2124C45.8533 26.1756 50.3855 31.1741 50.3855 31.1741L55.4849 25.9084L53.8475 18.5203L46.8816 16.4816L45.999 17.4445C43.1726 16.339 37.3393 14.9063 30.8786 14.9063C17.9392 14.9063 7.36878 22.2407 7.3511 31.2867C7.3332 40.0981 16.3022 47.7266 30.7806 47.7266C44.1537 47.7266 53.8088 41.3522 56.8339 39.6463L51.6394 31.914ZM29.5681 29.5807V24.5115C31.336 24.4253 33.3009 24.5144 34.6915 24.6809V29.5814H29.5681V29.5807ZM34.6883 32.9362V38.0417C33.2471 38.214 31.0509 38.2557 29.5649 38.1487V32.9362H34.6883ZM25.8919 24.8082V37.798C23.7581 37.798 16.9527 35.2956 16.9527 31.3552C16.9527 26.4811 23.9098 25.135 25.8919 24.8082Z" fill="white"/>
<path d="M24.0226 35.5335V27.0727C21.5829 27.783 18.8428 29.1652 18.8428 31.3551C18.8428 32.8527 21.155 34.6627 24.0226 35.5333V35.5335ZM48.311 31.7269C46.3998 30.0446 43.6155 28.2823 40.0913 27.4234V35.2302C42.7507 34.4933 45.6692 33.2455 48.311 31.7269ZM30.9439 28.0948H33.3362V26.1127L30.9439 26.0176V28.0948ZM30.8902 34.4989H33.351V36.5819H30.8904V34.4985L30.8902 34.4989Z" fill="white"/>
<path d="M51.2679 33.7477C42.9083 38.6569 37.3394 39.6109 30.5546 39.5483C21.0152 39.4592 15.5798 35.6405 15.5798 31.0936C15.5798 26.9956 20.5636 23.0876 30.7477 23.0876C37.6005 23.0876 45.8592 24.9242 50.2723 29.2748L53.9424 25.5304L52.6914 19.5871L47.2769 18.006L46.2933 19.1176C43.3246 17.9288 38.3052 16.2822 30.5875 16.2822C18.9411 16.2822 8.72699 23.0106 8.72699 31.1529C8.72699 39.6584 17.6214 46.327 30.2426 46.327C43.0451 46.327 50.5576 41.5037 54.8964 39.2244L51.2679 33.7477Z" fill="#AF1E2D"/>
</g>
<defs>
<clipPath id="clip0_33_1956">
<rect width="56.4044" height="38.6302" fill="white" transform="translate(4.40002 12)"/>
</clipPath>
</defs>
</svg>
