<svg width="64" height="64" viewBox="0 0 64 64" fill="none" xmlns="http://www.w3.org/2000/svg">
<g clip-path="url(#clip0_33_1934)">
<path d="M1.15866 28.7977C1.2896 28.8138 14.2298 30.6196 14.2298 38.2433C14.2298 41.0385 12.2719 43.8715 12.253 43.8981C11.7466 44.6182 12.0586 45.7813 13.104 45.9708L20.5544 47.3152C21.3574 47.9341 23.302 49.1611 26.0895 49.1611C29.501 49.1611 30.6774 47.886 31.038 46.7071C32.6969 45.9309 34.839 44.2502 34.839 42.6179C34.839 41.4548 33.8094 40.6758 32.8437 40.6707C32.6159 40.4297 32.3303 40.2506 32.0141 40.1505C32.7778 39.5968 33.6227 39.1648 34.5188 38.8701C37.1383 38.0006 40.4247 37.2487 42.6256 36.7871C39.2483 44.8939 29.6693 49.1647 29.5703 49.2097C28.5916 49.6393 28.7998 50.6717 28.7998 50.6717L28.1569 50.96C26.7887 51.5737 27.3088 53.6247 28.808 53.4968C39.9631 52.5473 48.2004 48.6635 53.9892 41.6318H56.0248C56.2486 41.6318 56.4698 41.5755 56.6675 41.4663C58.7348 40.3117 60.1276 40.3354 60.1404 40.3354C60.3982 40.3471 60.6538 40.2834 60.876 40.1522C61.0983 40.0209 61.2774 39.8278 61.3917 39.5964C62.4479 37.4467 63.5897 36.2969 63.6005 36.2836C64.0165 35.8675 64.094 35.3154 63.8992 34.8351L62.1865 30.6418C62.0633 30.3378 61.8312 30.0905 61.5357 29.9482L58.2817 28.3773L57.361 27.6704L55.998 25.9818L55.5366 23.9119C55.4963 23.7307 55.4185 23.56 55.3082 23.4107C55.198 23.2614 55.0578 23.1368 54.8965 23.0449L52.6397 21.7619L51.2313 20.3477C51.1137 20.228 50.9756 20.1347 50.8206 20.0679L41.7264 16.1112C41.4783 16.0018 41.2025 15.9719 40.9367 16.0255L28.6103 18.4882C25.3266 18.2427 22.4404 18.6294 22.1177 18.6749C21.1068 18.8427 20.9387 19.7577 20.9894 20.0111C19.8718 20.2352 3.03422 23.5991 3.03422 23.5991C2.71665 23.6629 2.43318 23.8402 2.23684 24.0978L0.273307 26.6797C-0.35887 27.5065 0.176895 28.6693 1.15866 28.7977ZM0.713939 27.0127L2.67696 24.4308C2.79181 24.2813 2.95654 24.1781 3.14112 24.14L21.6911 20.4352C21.4298 20.171 21.4323 19.3496 22.1924 19.224C22.3177 19.2053 25.2735 18.7841 28.6507 19.045L41.0436 16.5695C41.1992 16.5397 41.3602 16.5575 41.5055 16.6206L50.5989 20.5763C50.6897 20.6162 50.7697 20.6697 50.8393 20.739L52.3008 22.2064L54.6239 23.5267C54.7179 23.5807 54.7997 23.6537 54.864 23.741C54.9283 23.8283 54.9737 23.928 54.9973 24.0339L55.4857 26.2291L56.9716 28.0696L57.9904 28.854L61.2955 30.4523C61.4685 30.5354 61.6044 30.6798 61.6771 30.8574L63.3897 35.0481C63.5422 35.4189 63.3821 35.7284 63.2166 35.8941C63.2059 35.9048 62.0108 37.0999 60.9012 39.3567C60.8327 39.4918 60.7269 39.6043 60.5963 39.6809C60.4658 39.7575 60.3159 39.795 60.1647 39.7889C60.1514 39.7889 58.6469 39.7378 56.4089 40.9863C56.2939 41.0502 56.1634 41.085 56.0304 41.085H53.7416C48.0515 48.1164 39.8782 52.0057 28.7683 52.9526C27.9203 53.0248 27.571 51.8325 28.3898 51.4719L29.5422 50.9574C29.2834 50.7919 29.1714 49.9997 29.7979 49.7273C29.9104 49.6795 40.4365 44.9875 43.5117 36.0514C41.4901 36.4595 37.4513 37.329 34.3544 38.356C32.3458 39.0202 31.0894 40.0605 30.3291 40.9356C30.6385 40.8052 31.0359 40.6211 31.4042 40.6211C32.2604 40.6211 32.6125 41.2745 32.6125 41.2745C32.69 41.2612 32.7621 41.2346 32.8396 41.2346C33.5411 41.2346 34.2935 41.7947 34.2935 42.6299C34.2935 43.9689 32.2207 45.6309 30.5751 46.3324C30.359 47.362 29.4202 48.6187 26.0964 48.6187C23.2902 48.6187 21.3615 47.2633 20.7881 46.8045L13.2089 45.4363C12.5977 45.3269 12.4166 44.6469 12.7128 44.2252C12.734 44.1958 14.7909 41.2484 14.7909 38.2527C14.7909 30.1142 1.37322 28.2765 1.23692 28.2576C0.629035 28.1722 0.367418 27.4735 0.71445 27.0147" fill="white"/>
<path d="M20.4844 25.7197C20.4844 25.7197 18.0518 26.7069 16.3793 29.2274C17.2115 29.0015 18.0474 28.7898 18.8868 28.5924C19.631 26.8636 20.4844 25.7197 20.4844 25.7197ZM57.7207 31.9297C57.7207 31.9297 59.7748 33.2314 60.6949 31.5615L57.5552 30.0833C56.6776 30.593 55.8162 30.8572 55.0183 30.9718C56.5336 31.3907 57.7207 31.9297 57.7207 31.9297Z" fill="white"/>
<path d="M12.4663 25.6448L23.6112 23.1506C23.6112 23.1506 24.0511 24.5832 25.9533 25.733L25.9213 26.0851C25.0382 26.2642 23.6539 26.8319 22.3333 27.8671C24.5105 27.4607 26.7046 27.1501 28.909 26.9362L29.4717 25.6159C25.9747 26.1281 24.4009 23.1536 24.4009 23.1536L24.1314 22.2468L3.84241 26.7869C6.03252 26.9388 8.44385 27.6349 10.6444 28.7553C11.1674 27.0053 12.4663 25.6448 12.4663 25.6448ZM46.4425 31.2096C45.5116 31.676 44.7035 32.311 43.788 33.09L44.8416 31.1106C44.8416 31.1106 42.0651 30.9986 39.4054 31.0492L37.669 32.959C37.0064 32.7601 36.3199 32.6516 35.6282 32.6363C35.5883 31.6706 35.9671 30.5689 36.8154 29.5153C35.6896 30.3633 35.0094 31.4517 34.8682 32.6573C34.3746 32.6946 33.8918 32.7826 33.4251 32.9105C33.1826 32.1074 33.2092 31.1183 33.58 30.0432C32.9238 31.0436 32.6543 32.1026 32.7906 33.1161C32.3261 33.2919 31.8795 33.5117 31.4567 33.7723C31.046 33.1483 30.7951 32.3159 30.7764 31.3262C30.5391 32.3427 30.6056 33.2897 30.9657 34.106C29.4798 35.2133 28.8106 36.5521 28.8106 36.5521C24.0943 35.7013 21.2403 39.6491 21.1385 42.4179C20.8401 40.4973 21.4536 37.0986 25.252 35.4798L26.5138 32.5322C26.5939 32.3455 26.6954 32.1801 26.8207 32.031C22.5822 32.823 19.9573 34.5009 19.9573 34.5009C19.9573 34.5009 18.8157 36.5442 19.3036 38.6302C19.3036 38.6302 18.5594 37.6196 18.1196 35.8939C17.9555 36.049 17.7971 36.21 17.6444 36.3764C17.7991 36.9876 17.8818 37.6167 17.8818 38.265C17.8818 41.3543 16.5908 43.2959 16.5908 43.2959L20.9122 44.1735C20.9122 44.1735 22.5448 46.5503 26.0525 46.5503C27.1624 46.5503 28.6185 46.4276 28.6185 45.7207C28.6185 45.1873 27.3061 44.4589 27.3061 42.9117C27.3061 40.3989 30.4644 37.7901 33.8521 36.6726C37.8109 35.3683 43.8609 33.8503 46.9018 33.8503C55.5311 33.8503 55.2457 39.5481 55.2457 39.5481L55.6646 39.5291C57.5851 38.4489 59.287 38.2433 59.7806 38.206C60.6151 35.109 59.0359 32.3164 46.4428 31.209M35.8873 25.1648C34.0601 25.242 32.6277 25.9038 31.5365 26.7252C33.0099 26.6348 34.4858 26.5911 35.962 26.5943C36.7036 25.6123 37.146 24.5402 37.146 23.4173C37.146 21.4806 36.1538 20.3444 36.1538 20.3444L40.9554 19.2798L42.4489 20.0132C42.4489 20.0132 38.9198 21.3686 38.9198 25.1934C38.9198 25.7381 39.0001 26.2317 39.1254 26.6767C41.6649 26.8045 44.2869 27.0848 46.9545 27.5676C46.9545 27.5676 47.8163 29.659 50.19 29.659C51.3398 29.659 52.2173 29.0215 52.2173 29.0215C54.7915 30.9658 57.1468 29.8935 57.1468 29.8935L56.2635 29.1601L55.4231 29.611L55.9459 28.8241L55.6231 28.4584L54.4869 29.0455L55.1989 27.9653L54.9508 27.6799L53.9905 28.1014L54.5424 27.1654L54.1557 26.5703C53.7957 28.1548 52.3819 28.344 51.1682 28.2479L51.1043 27.5467C50.8447 27.7089 50.5464 27.7987 50.2403 27.8067C49.9343 27.8148 49.6317 27.7408 49.3638 27.5925C49.096 27.4442 48.8728 27.2269 48.7173 26.9632C48.5618 26.6995 48.4796 26.399 48.4794 26.0928C48.4794 25.5514 45.8065 23.1585 45.8065 23.1585L49.2666 24.2254C52.1659 25.1218 52.038 26.5595 52.07 27.3385C52.5584 27.5543 53.657 27.7119 54.1532 26.5675L53.7875 24.6627L51.4859 23.5452L49.9039 22.0645L41.048 18.4857L32.3305 20.4196C34.3846 20.9132 36.0837 21.9855 36.0837 21.9855C36.0837 21.9855 36.7379 23.4922 35.8868 25.1648M53.2389 25.4555L52.8067 27.1229C52.8067 25.8609 52.06 25.1384 49.8537 23.8393L53.2389 25.4555Z" fill="white"/>
<path d="M11.8206 29.4087C12.2446 29.6644 12.6581 29.9396 13.0558 30.2276C13.4184 30.1074 13.845 29.9688 14.3332 29.8194C15.0825 26.9519 16.6194 25.05 16.6194 25.05C13.4343 26.2396 12.0845 28.8379 11.8201 29.4087M25.027 22.8655C25.027 22.8655 26.2993 25.0316 28.5694 25.0316L30.9248 24.8689L32.8614 22.8471L35.505 22.4417C34.526 21.8466 33.4189 21.4198 32.2929 21.1157L30.0844 24.2019L31.4879 20.9209C31.0824 20.8315 30.674 20.7559 30.2634 20.694L28.3587 23.3486L29.5376 20.5902C29.0415 20.5288 28.5556 20.4861 28.0945 20.4567L26.6379 22.4893L27.5181 20.4299C25.4615 20.3419 23.9596 20.5071 23.9596 20.5071L24.4667 20.9444L25.0272 22.865L25.027 22.8655ZM28.0063 43.1997C28.284 44.4559 29.1239 44.8109 29.2042 45.2827C29.2042 45.2827 31.3856 44.8318 32.8371 42.6768C30.0148 44.0961 28.0063 43.1997 28.0063 43.1997ZM50.5626 35.5786C46.6064 35.5786 46.6627 43.981 32.7169 51.0979C44.5928 49.3826 53.5581 41.3058 53.5581 37.9896C53.5611 36.7596 51.5232 35.5781 50.5629 35.5781" fill="white"/>
<path d="M63.3891 35.0451L61.6761 30.8544C61.6036 30.6766 61.4676 30.5322 61.2946 30.449L57.9895 28.8537L56.9704 28.0694L55.4845 26.2289L54.9966 24.0337C54.973 23.9283 54.9276 23.829 54.8633 23.7422C54.799 23.6554 54.7172 23.5831 54.6232 23.5299L52.2999 22.2064L50.8381 20.739C50.769 20.67 50.689 20.6137 50.5982 20.5764L41.505 16.6202C41.3598 16.5572 41.1989 16.5396 41.0434 16.5698L28.6505 19.0453C25.2758 18.7809 22.3175 19.2051 22.1922 19.2238C21.4319 19.3491 21.4293 20.1708 21.6935 20.435L3.14044 24.1406C2.95586 24.1785 2.79116 24.2818 2.67654 24.4313L0.713514 27.013C0.363925 27.4718 0.627843 28.1732 1.23087 28.2507C1.36692 28.2694 14.7848 30.1048 14.7848 38.2433C14.7848 41.2413 12.7279 44.1866 12.7065 44.2155C12.4078 44.6369 12.5888 45.3144 13.2026 45.4267L20.781 46.7948C21.3547 47.2536 23.2832 48.6088 26.0893 48.6088C29.4131 48.6088 30.3519 47.3523 30.568 46.3225C32.2139 45.6213 34.2864 43.9595 34.2864 42.6202C34.2864 41.7852 33.5371 41.2252 32.8326 41.2252C32.7525 41.2252 32.6804 41.2549 32.6032 41.2653C32.6032 41.2653 32.2485 40.6117 31.3948 40.6117C31.0291 40.6117 30.632 40.7958 30.3197 40.9267C31.0797 40.0547 32.3362 39.0138 34.345 38.3471C37.4419 37.3201 41.48 36.4506 43.5023 36.0425C40.4294 44.9758 29.9008 49.6706 29.7888 49.7161C29.1622 49.9885 29.274 50.7833 29.5331 50.9487L28.3805 51.4635C27.5616 51.8236 27.9109 53.0159 28.759 52.9442C39.8719 51.9998 48.0427 48.1109 53.7322 41.0763H56.0211C56.1546 41.0763 56.2824 41.0416 56.3996 40.9802C58.6378 39.7291 60.1422 39.7798 60.1555 39.7798C60.307 39.7869 60.4573 39.7499 60.588 39.6731C60.7188 39.5964 60.8244 39.4833 60.8921 39.3476C62.0014 37.091 63.1962 35.8959 63.2072 35.8849C63.3778 35.7253 63.5381 35.4134 63.3891 35.0451ZM60.2036 39.009C60.2036 39.009 58.5311 38.9077 56.0262 40.303H53.9266L53.543 40.0946C47.8744 47.4086 39.7972 51.2288 28.6976 52.173C28.6976 52.173 32.464 50.5166 34.5048 49.4391L30.1011 50.4314C30.1011 50.4314 42.0326 45.2535 44.6414 35.0315C44.6414 35.0315 38.4874 36.1624 34.1051 37.6134C29.7678 39.0486 28.5858 42.1988 28.5858 42.1988C30.1305 42.0548 30.9278 41.3881 31.3999 41.3881C31.96 41.3881 32.1735 41.9694 32.0265 42.2975C32.2855 42.1855 32.6029 41.9988 32.8377 41.9988C33.1205 41.9988 33.5154 42.2392 33.5154 42.6177C33.5154 43.5618 31.4107 45.2722 29.8553 45.7734C29.8553 46.3496 29.6285 47.8329 26.0914 47.8329C23.0532 47.8329 21.1191 46.067 21.1191 46.067L13.3407 44.6638C13.3407 44.6638 15.563 41.5349 15.563 38.2431C15.563 29.3179 1.33444 27.4797 1.33444 27.4797L3.29746 24.9001L23.3599 20.8935L22.3032 19.9892C22.3032 19.9892 25.328 19.5468 28.7024 19.8237L41.1948 17.3298L50.2913 21.286L51.825 22.8276L54.2391 24.1983L54.7675 26.5726L56.4239 28.6267L57.579 29.5148L60.956 31.1474L62.6686 35.3384C62.6712 35.3389 61.3938 36.5872 60.2041 39.0092" fill="#FFB81C"/>
<path d="M57.7204 31.9298C57.7204 31.9298 56.5333 31.3881 55.0183 30.9746C52.663 31.3135 50.8728 30.3238 50.8728 30.3238C48.9206 30.3238 47.5867 30.6358 46.4425 31.2068C59.0357 32.3142 60.6148 35.1068 59.7827 38.2012C59.8786 38.193 59.9295 38.193 59.9295 38.193C59.9295 38.193 60.7803 36.6033 61.77 35.451C61.77 35.451 60.4867 32.7622 55.9893 32.5382L57.7202 31.9295L57.7204 31.9298ZM18.887 28.5924C17.9771 28.8057 17.1368 29.0221 16.3793 29.2274C15.8084 30.0882 15.3881 31.0398 15.1364 32.0415C16.342 33.3166 17.2381 34.7784 17.6437 36.3763C17.7963 36.2098 17.9547 36.0488 18.1186 35.8934C17.9091 35.0713 17.8033 34.2262 17.8035 33.3778C17.8035 31.6094 18.3132 29.9261 18.8865 28.5922M46.9568 27.568C44.2895 27.0851 41.6672 26.8051 39.1277 26.677C39.6289 28.4564 40.8777 29.4274 40.8777 29.4274L39.4052 31.0462C42.0648 30.9958 44.8442 31.1076 44.8442 31.1076L43.7905 33.087L46.5328 30.0703L46.9568 27.568ZM28.6981 30.2701L27.3483 30.5851L28.9088 26.9332C26.532 27.1652 24.3235 27.4959 22.3333 27.8692C20.4555 29.3423 18.7055 31.759 18.7055 35.3546C18.7055 37.155 19.3029 38.6306 19.3029 38.6306C18.8144 36.5443 19.9565 34.5009 19.9565 34.5009C19.9565 34.5009 22.584 32.8233 26.8174 32.0336C27.1135 31.6789 27.5483 31.4308 28.1728 31.2679C31.2135 30.4785 34.3212 28.7633 35.9617 26.5944C34.4442 26.5918 32.9663 26.6371 31.5365 26.7248C29.5438 28.2298 28.6983 30.2703 28.6983 30.2703M14.0779 31.0337C14.1444 30.6122 14.2324 30.2066 14.3337 29.82C13.8452 29.9691 13.4187 30.1079 13.056 30.2279C13.408 30.4816 13.7489 30.7504 14.0777 31.0334M50.4304 27.2803C50.7905 27.2803 51.057 27.1089 51.057 27.1089C51.0332 26.9811 51.0038 26.8609 50.9746 26.7437C50.8867 26.8 50.7613 26.8532 50.6115 26.8532C50.2223 26.8532 49.9798 26.5545 49.9798 26.2236C49.9798 25.9435 50.1716 25.6873 50.4463 25.618C50.1018 25.1295 49.755 24.9244 49.755 24.9244C49.755 24.9244 49.1576 25.2633 49.1576 26.0047C49.1576 26.7489 49.7821 27.2803 50.4304 27.2803Z" fill="#FFB81C"/>
<path d="M15.5605 38.2439C15.5605 41.5352 13.3381 44.6644 13.3381 44.6644L21.1168 46.0676C21.1168 46.0676 23.0507 47.8334 26.0891 47.8334C29.6233 47.8334 29.853 46.3502 29.853 45.774C31.4079 45.2727 33.5126 43.5626 33.5126 42.6182C33.5126 42.2397 33.118 41.9993 32.8354 41.9993C32.6006 41.9993 32.283 42.186 32.0247 42.298C32.1712 41.9674 31.9608 41.3884 31.3976 41.3884C30.9255 41.3884 30.1305 42.0553 28.5835 42.1991C28.5835 42.1991 29.765 39.0489 34.1023 37.6137C38.4856 36.163 44.6391 35.0318 44.6391 35.0318C42.0331 45.2536 30.0985 50.4314 30.0985 50.4314L34.5023 49.4417C32.462 50.5194 28.6953 52.1755 28.6953 52.1755C39.7947 51.2319 47.8718 47.4117 53.5405 40.0972L53.9241 40.3056H56.0236C58.5283 38.9078 60.2011 39.0116 60.2011 39.0116C61.3908 36.5898 62.6684 35.3413 62.6684 35.3413L60.9557 31.1505L57.5788 29.5207L56.4241 28.6272L54.7677 26.5731L54.2396 24.1992L51.8255 22.8284L50.2916 21.2863L41.1951 17.3306L28.7032 19.8248C25.3288 19.5473 22.304 19.9903 22.304 19.9903L23.355 20.8946L3.29261 24.9009L1.3324 27.4825C1.3324 27.4825 15.5605 29.3182 15.5605 38.2439ZM32.8379 42.6742C31.3869 44.8321 29.2047 45.2802 29.2047 45.2802C29.1244 44.8109 28.2841 44.4562 28.0068 43.1998C28.0068 43.1998 30.0154 44.0959 32.8377 42.674M32.7175 51.0979C46.6607 43.9808 46.6075 35.5783 50.5634 35.5783C51.5235 35.5783 53.5614 36.7598 53.5614 37.9899C53.5614 41.3055 44.5928 49.3829 32.7175 51.0979ZM27.5184 20.4271L26.6382 22.4891L28.0946 20.459C28.5768 20.4893 29.0581 20.5338 29.5377 20.5925L28.3587 23.3453L30.2634 20.6907C30.669 20.7521 31.0772 20.8296 31.4884 20.9178L30.0849 24.1989L32.2937 21.1127C33.419 21.417 34.5263 21.8436 35.5052 22.4384L32.862 22.844L30.9253 24.8687L28.57 25.0311C26.2998 25.0311 25.0275 22.865 25.0275 22.865L24.4675 20.9444L23.9606 20.5071C23.9606 20.5071 25.4623 20.3417 27.5189 20.4271M3.84218 26.7869L24.1312 22.2464L24.3979 23.1532C24.3979 23.1532 25.9745 26.1274 29.4691 25.6154L28.906 26.9358L27.346 30.5877L28.6955 30.2731C28.6955 30.2731 29.5413 28.2298 31.5337 26.7279C32.6247 25.9062 34.057 25.242 35.8845 25.1674C36.7353 23.4949 36.0819 21.9929 36.0819 21.9929C36.0819 21.9929 34.3828 20.9206 32.3288 20.4271L41.0463 18.4932L49.9049 22.073L51.4866 23.5537L53.7888 24.6712L54.154 26.5757L54.5406 27.1705L53.9882 28.1099L54.9488 27.6884L55.1968 27.9738L54.4846 29.0543L55.6239 28.4674L55.9467 28.8331L55.4239 29.6197L56.2668 29.1717L57.1496 29.9026C57.1496 29.9026 54.7918 30.9749 52.2201 29.0305C52.2201 29.0305 51.3424 29.6652 50.1929 29.6652C47.8186 29.6652 46.9571 27.5738 46.9571 27.5738L46.53 30.0785L43.788 33.0954C44.7002 32.3164 45.5086 31.6817 46.4425 31.2147C47.5867 30.6439 48.9206 30.3291 50.8729 30.3291C50.8729 30.3291 52.6651 31.3188 55.0178 30.98C55.8157 30.8649 56.677 30.5984 57.5547 30.0918L60.6916 31.5643C59.774 33.2317 57.7174 31.9326 57.7174 31.9326L55.9835 32.5433C60.4837 32.7673 61.7639 35.4535 61.7639 35.4535C60.7742 36.6059 59.9233 38.1958 59.9233 38.1958C59.9233 38.1958 59.8727 38.1958 59.7766 38.204C59.2804 38.2413 57.5813 38.4469 55.6605 39.5271L55.2447 39.5458C55.2447 39.5458 55.5301 33.848 46.9008 33.848C43.8601 33.848 37.8099 35.3684 33.8514 36.6726C30.4637 37.7902 27.3054 40.3992 27.3054 42.9118C27.3054 44.459 28.6178 45.1871 28.6178 45.7208C28.6178 46.4276 27.1614 46.5504 26.0518 46.5504C22.5443 46.5504 20.9089 44.1736 20.9089 44.1736L16.5878 43.2959C16.5878 43.2959 17.8787 41.3539 17.8787 38.2651C17.8787 37.6168 17.7964 36.9874 17.6416 36.3765C17.2389 34.7787 16.3425 33.3169 15.137 32.0418C15.3881 31.0399 15.8084 30.0881 16.3799 29.2277C18.0524 26.7043 20.4852 25.72 20.4852 25.72C20.4852 25.72 19.6315 26.867 18.8873 28.5929C18.3137 29.9269 17.8043 31.6101 17.8043 33.3788C17.8043 34.3283 17.9347 35.174 18.1188 35.8942C18.5592 37.6173 19.3034 38.628 19.3034 38.628C19.3034 38.628 18.706 37.1557 18.706 35.3553C18.706 31.7623 20.456 29.343 22.3339 27.87C23.6542 26.8353 25.0388 26.267 25.9218 26.0883L25.9564 25.7336C24.0545 24.583 23.6146 23.1504 23.6146 23.1504L12.4671 25.6446C12.4671 25.6446 11.168 27.0025 10.6422 28.7548C8.44362 27.6347 6.0323 26.9381 3.84218 26.7862M11.8206 29.4082C12.0848 28.8374 13.4343 26.2392 16.6195 25.0495C16.6195 25.0495 15.083 26.9514 14.3332 29.8189C14.228 30.219 14.1426 30.6241 14.0775 31.0327C13.7481 30.7503 13.4072 30.4815 13.0558 30.2271C12.6557 29.937 12.2436 29.6638 11.8206 29.4082Z" fill="#041E42"/>
<path d="M52.0707 27.3444C52.0388 26.5626 52.1641 25.1246 49.2671 24.2311L45.807 23.1642C45.807 23.1642 48.4799 25.5543 48.4799 26.0985C48.4801 26.5533 48.6608 26.9895 48.9825 27.3112C49.3041 27.6328 49.7403 27.8136 50.1952 27.8137C50.5164 27.8135 50.8313 27.7238 51.1046 27.5549L51.1685 28.2564C52.3822 28.3497 53.7959 28.163 54.156 26.5788C53.6573 27.715 52.5582 27.5575 52.0702 27.3442M50.4297 27.2802C49.7814 27.2802 49.1574 26.7491 49.1574 26.0049C49.1574 25.2633 49.7602 24.9247 49.7602 24.9247C49.7602 24.9247 50.1041 25.1298 50.4506 25.6177C50.3173 25.6537 50.1994 25.7325 50.1151 25.842C50.0308 25.9515 49.9848 26.0856 49.9842 26.2238C49.9842 26.5542 50.2246 26.8529 50.6164 26.8529C50.7657 26.8529 50.891 26.7972 50.9795 26.7437C51.0112 26.8588 51.0409 26.981 51.0619 27.1094C51.0588 27.1089 50.792 27.2797 50.4294 27.2797" fill="#041E42"/>
<path d="M52.8067 27.1227L53.2389 25.4579L49.8565 23.8416C52.0625 25.1382 52.8067 25.8609 52.8067 27.1227ZM21.1383 42.4156C21.2395 39.6465 24.0938 35.7013 28.8103 36.5496C28.8103 36.5496 29.4796 35.2106 30.9654 34.1035C30.6053 33.2902 30.5414 32.3402 30.7761 31.3267C30.7946 32.319 31.0454 33.1486 31.4564 33.7728C31.879 33.5123 32.3255 33.2925 32.7898 33.1166C32.6538 32.1031 32.9233 31.0441 33.5793 30.0439C33.2084 31.1191 33.1818 32.1085 33.4245 32.9115C33.8913 32.7836 34.3741 32.6954 34.8677 32.6583C35.0091 31.4523 35.6893 30.3644 36.8148 29.5159C35.964 30.572 35.5847 31.6712 35.6277 32.6368C36.3374 32.653 37.0202 32.7622 37.6685 32.9596L39.4049 31.0498L40.8774 29.431C40.8774 29.431 39.6287 28.4594 39.1274 26.68C38.991 26.1974 38.9219 25.6983 38.9221 25.1967C38.9221 21.3717 42.4512 20.0168 42.4512 20.0168L40.9577 19.2834L36.156 20.3478C36.156 20.3478 37.1483 21.4814 37.1483 23.4207C37.1483 24.5433 36.7059 25.6187 35.9642 26.5977C34.3237 28.7663 31.216 30.4818 28.1751 31.2687C27.5511 31.4313 27.1163 31.6794 26.8197 32.0343C26.6913 32.1835 26.5869 32.3518 26.5102 32.533L25.2487 35.4809C21.4531 37.0966 20.8398 40.4951 21.1383 42.4156ZM42.2727 51.5835C42.6993 51.5835 43.0328 51.9144 43.0328 52.3307C43.0328 52.7548 42.7021 53.0801 42.2699 53.0801C41.8428 53.0801 41.5014 52.7522 41.5014 52.3307C41.5014 51.9172 41.8428 51.584 42.2696 51.584H42.2722L42.2727 51.5835ZM42.262 51.7331C41.9339 51.7331 41.6884 52.0026 41.6884 52.3279C41.6884 52.6586 41.9339 52.9228 42.2699 52.9228C42.5978 52.9279 42.8376 52.6583 42.8376 52.3277C42.8376 51.9996 42.5978 51.7328 42.2643 51.7328H42.2617L42.262 51.7331ZM42.15 52.7146H41.9766V51.973C42.0706 51.9549 42.1662 51.946 42.262 51.9464C42.4034 51.9464 42.4673 51.9707 42.5208 52.0052C42.5438 52.025 42.5622 52.0496 42.5746 52.0772C42.5871 52.1049 42.5933 52.135 42.5929 52.1653C42.5929 52.2507 42.529 52.3146 42.4382 52.3412V52.3489C42.5103 52.3732 42.5533 52.4318 42.5742 52.5305C42.598 52.6456 42.6113 52.6906 42.6274 52.712H42.4407C42.4167 52.6852 42.4034 52.621 42.3819 52.533C42.3691 52.4504 42.3236 52.4154 42.2275 52.4154H42.1448V52.7146H42.15ZM42.1525 52.2985H42.2351C42.3313 52.2985 42.4085 52.2666 42.4085 52.1891C42.4085 52.12 42.3581 52.074 42.2487 52.074C42.2034 52.074 42.1714 52.0796 42.1525 52.0822V52.2985Z" fill="#041E42"/>
</g>
<defs>
<clipPath id="clip0_33_1934">
<rect width="64" height="37.502" fill="white" transform="translate(0 16)"/>
</clipPath>
</defs>
</svg>
