<svg width="64" height="64" viewBox="0 0 64 64" fill="none" xmlns="http://www.w3.org/2000/svg">
<g clip-path="url(#clip0_33_1951)">
<path d="M55.6353 24.9397L54.889 26.2695L55.0135 27.0422C53.0357 30.9153 50.8793 34.5092 50.1066 35.7731C49.8071 35.0938 49.413 34.6937 48.6487 34.284C48.6487 34.284 52.1576 27.9179 53.1052 22.8684C50.4516 24.1826 47.6723 25.4824 47.6723 25.4824L52.4283 17.7902C52.4283 17.7902 43.2841 19.7908 36.0507 20.512C28.2519 9.02578 21.1611 7 21.1611 7C21.1611 7 26.0728 15.0408 26.9832 20.663C17.04 19.7297 8.92968 17.7914 8.92968 17.7914L17.5875 31.7982C12.5224 32.0977 4 32.3744 4 32.3744C6.17074 34.5475 13.1597 37.3005 22.4022 39.585L24.0542 42.2541C18.6177 46.3512 15.3413 51.9937 15.3413 51.9937L15.8899 53C15.8899 53 18.589 52.8383 21.8978 52.7209C21.8978 52.7209 22.7975 49.8122 26.5016 46.2135L30.6814 52.9724L35.9214 44.4979L36.4916 44.4321L36.8091 44.6225C36.7228 44.7088 36.6641 44.8765 36.5395 45.0754C36.9732 45.3713 36.9864 45.4204 37.0067 45.9463C37.0067 45.9463 37.5865 46.15 38.3017 45.9152L38.4994 45.5558L38.7426 45.666C38.7749 45.9199 38.8444 46.1967 38.8444 46.1967C39.5105 46.5106 40.0747 46.0937 40.0747 46.0937C41.8537 46.459 43.0589 46.2506 43.4578 46.1535C45.2177 46.6387 46.3581 46.3105 46.8289 46.1056C47.64 46.4411 48.4762 46.6579 50.8003 46.6579C51.8712 46.6579 53.0141 46.592 53.0141 45.793C53.0141 44.6705 51.9407 40.5518 50.8542 38.272C50.8542 38.272 51.6532 38.8339 52.3696 38.9777L53.3639 38.2577C52.9123 37.727 52.9973 37.5712 53.0596 37.1591C52.7038 36.8584 52.2079 36.7889 52.2079 36.7889C53.1794 35.6724 55.2124 33.068 57.6407 28.4055C58.1511 28.3276 58.8051 28.0281 58.8854 27.2231C58.9705 26.3474 59.0232 25.97 59.0232 25.1374C57.4838 24.4342 55.6353 24.9397 55.6353 24.9397ZM51.404 18.5186L46.7187 26.0946C46.2156 26.3246 45.7088 26.5558 45.2285 26.7786C45.0823 26.8481 44.9385 26.914 44.7984 26.9799C44.4162 27.1596 44.064 27.3297 43.7525 27.4842L47.8568 20.978C44.9721 21.5219 41.0259 22.1928 37.1732 22.6169C37.063 22.4288 36.9528 22.2419 36.8414 22.0574C36.7923 21.9747 36.7432 21.8921 36.694 21.8118C36.5251 21.5363 36.355 21.2655 36.1837 20.996C43.4363 20.2592 51.404 18.5186 51.404 18.5186ZM52.5217 45.793C52.5217 46.011 52.0941 46.1679 50.7991 46.1679C48.4115 46.1679 47.6831 45.9487 46.811 45.5701C46.811 45.5701 45.6789 46.3069 43.4554 45.648C43.4554 45.648 42.1437 46.0721 39.9525 45.5725C39.5728 45.9104 39.2577 45.8145 39.2577 45.8145C39.2577 45.8145 39.211 45.6097 39.2122 45.3341C38.9259 45.2203 38.6216 45.0766 38.2981 44.91C38.146 45.2287 37.9723 45.4935 37.9723 45.4935C37.7147 45.5653 37.4715 45.5258 37.4715 45.5258C37.4512 45.1413 37.1673 44.946 37.1673 44.946C37.2775 44.7519 37.4188 44.6225 37.5901 44.5207C37.2739 44.3398 36.9432 44.1385 36.6006 43.9229C36.27 43.9624 35.9465 44.0008 35.6266 44.0355L30.6802 52.038L26.6023 45.4443C22.6501 49.0898 21.5456 52.2405 21.5456 52.2405C19.0838 52.31 16.1691 52.4909 16.1691 52.4909L15.9055 52.0045C18.9196 47.0784 23.0838 43.5444 24.7059 42.3787L22.97 39.5719C23.315 39.6569 23.8146 39.7779 24.3393 39.8941C24.4567 39.9205 24.5717 39.9456 24.6879 39.9708C25.0042 40.0379 25.3132 40.1002 25.5924 40.1481L26.7916 42.0493C28.1117 42.1487 30.1986 42.2925 32.9611 42.2925C33.3709 42.2925 33.7458 42.2913 34.0896 42.2865C32.7227 41.3772 31.2037 40.3649 29.5397 39.3502C29.7661 39.5886 29.9937 39.8354 30.2226 40.0858C29.0006 40.0858 27.1318 40.1756 24.6184 39.6066C13.137 37.0094 5.35971 33.2908 5.35971 32.8069C5.35971 32.8069 11.4706 32.6631 18.4356 32.2354L9.95515 18.5186C9.95515 18.5186 19.8037 20.6701 27.5702 21.1996C26.9125 15.6458 22.619 9.03776 22.619 8.13808C26.9569 10.3064 33.6895 16.3586 38.0777 24.9685C38.7785 25.4609 40.5887 26.7834 42.6995 28.6643L42.9547 28.3109C43.9095 27.6448 48.2186 25.8694 52.1444 23.8795C52.2378 23.8316 52.3073 23.8771 52.3073 24.0305C52.3073 24.6606 50.5211 29.9329 48.0545 34.3523L48.2749 34.6362C49.6155 35.313 49.7125 35.7731 50.3187 38.2936C51.4196 40.4883 52.5217 44.7519 52.5217 45.793ZM52.5205 37.3963C52.4451 37.8408 52.6823 38.1439 52.6823 38.1439L52.2702 38.441C51.755 38.2972 51.041 37.8096 51.041 37.8096L50.9608 37.5197C50.9608 37.5197 51.9827 37.0489 52.5205 37.3963ZM58.532 25.4824C58.532 25.8059 58.4769 26.3665 58.3954 27.1752C58.3164 27.9706 57.3304 27.9395 57.3304 27.9395C53.9282 34.5367 51.2567 37.0908 51.2567 37.0908L50.9764 37.0669L50.5702 37.3496L50.2252 36.5122C50.2252 36.5122 53.0141 32.0497 55.5203 27.1213L55.3981 26.3593L55.9576 25.3638C55.9576 25.3662 57.3065 25.0368 58.532 25.4824Z" fill="white"/>
<path d="M30.6802 48.2117L33.1649 44.2704C30.9761 44.4465 29.2523 44.5004 28.3478 44.5172L30.6802 48.2117Z" fill="white"/>
<path d="M37.6764 41.8779C36.7815 42.1643 36.397 41.963 36.397 41.963C36.5719 41.7881 36.6869 41.4455 36.6869 41.4455C35.8938 41.6659 35.6482 41.4467 35.6482 41.4467C35.774 41.37 35.9022 41.0681 35.9022 41.0681C34.8755 41.0681 34.3125 41.237 34.3125 41.237C35.1655 41.3437 35.7249 41.7186 36.1981 42.2026C36.869 42.1547 37.2775 42.0948 37.565 42.0481L37.6764 41.8779Z" fill="white"/>
<path d="M40.9876 44.8753C41.5937 44.5171 42.0358 44.1769 42.0358 44.1769C40.0424 44.2643 39.2924 44.0211 39.2924 44.0211C39.6494 43.6653 40.0939 43.3587 40.3754 43.0759C40.161 43.1095 39.9393 43.1334 39.7249 43.1514C39.7213 43.2484 39.6147 43.3587 39.3128 43.5431C38.715 43.6366 38.128 43.7252 37.5518 43.8031C37.7147 43.9768 37.8896 44.1469 38.0837 44.3075C38.2178 44.2643 38.3628 44.22 38.5161 44.1685C38.5161 44.2895 38.4838 44.4308 38.4359 44.5722C38.6731 44.7327 38.939 44.8801 39.2421 45.0035C39.2721 44.8082 39.332 44.6045 39.4482 44.4201C39.5512 44.4488 39.6063 44.7435 39.6614 44.8238C39.8099 45.0394 40.0016 45.0754 40.04 45.2539C40.8761 45.4467 41.9352 45.4994 43.3344 45.3233L43.7214 45.0083C41.6752 45.0442 40.9876 44.8753 40.9876 44.8753Z" fill="white"/>
<path d="M35.9441 41.3591C35.9441 41.3591 36.3778 41.3855 36.8785 41.207C36.8785 41.207 36.9061 41.5448 36.6785 41.8443C36.6785 41.8443 37.1037 41.8407 37.9759 41.6395C37.9759 41.6395 37.9004 41.8144 37.7962 42.0085C37.9543 41.9821 38.0717 41.9653 38.1987 41.9653C38.4802 41.9653 38.5126 42.024 38.7581 42.024C39.2218 42.024 39.2793 42.1199 39.3476 42.6613C39.4422 42.7991 39.5488 42.8926 39.6267 42.9728C39.9693 42.9465 40.3646 42.9093 40.7624 42.8518C40.7624 42.8518 40.3203 43.4664 39.6518 43.9204C39.6518 43.9204 41.5051 44.0941 42.4671 43.9731C42.4671 43.9731 42.0538 44.4799 41.4812 44.7698C41.4812 44.7698 42.763 44.8513 44.1407 44.8285C44.1407 44.8285 43.8699 45.128 43.6016 45.3448C43.6016 45.3448 45.3015 45.7282 46.5127 45.4407C42.1424 43.7024 39.7369 41.0704 36.0795 41.0704C36.0244 41.2262 35.9441 41.3591 35.9441 41.3591Z" fill="white"/>
<path d="M18.3123 49.2276L17.3287 50.4866C17.3287 50.4866 20.2195 50.0362 21.9517 50.2985L22.4333 49.4731C21.4881 48.9844 18.3123 49.2276 18.3123 49.2276Z" fill="white"/>
<path d="M18.7614 48.6634L18.4572 49.0456C18.4572 49.0456 21.4413 48.8191 22.5291 49.3223L23.2371 48.2573C22.2715 48.1004 18.7614 48.6634 18.7614 48.6634Z" fill="white"/>
<path d="M19.2766 48.032L18.9304 48.4536C18.9304 48.4536 22.504 47.8966 23.3486 48.1026L23.4121 48.0164C22.5268 47.7241 19.2766 48.032 19.2766 48.032Z" fill="white"/>
<path d="M20.4806 46.6483L19.4408 47.8367C19.4408 47.8367 22.3351 47.536 23.5259 47.8702L24.7263 46.4818C23.5079 46.2805 20.4806 46.6483 20.4806 46.6483Z" fill="white"/>
<path d="M22.0356 45.0851L20.6615 46.4484C20.6615 46.4484 23.1952 46.1045 24.8664 46.3238L25.5229 45.5978C24.8988 45.0647 22.0356 45.0851 22.0356 45.0851Z" fill="white"/>
<path d="M22.2967 44.8478L22.2249 44.9125C22.2249 44.9125 24.6963 44.8717 25.6451 45.4671L25.7852 45.3174C25.0197 44.8813 22.2967 44.8478 22.2967 44.8478Z" fill="white"/>
<path d="M23.6624 43.6665L22.4824 44.68C22.4824 44.68 25.2342 44.7303 25.9098 45.1843L26.9245 44.1852C26.0344 43.6785 23.6624 43.6665 23.6624 43.6665Z" fill="white"/>
<path d="M22.0835 50.41L22.1206 50.6591L22.5148 49.9667L22.4764 49.7271L22.0835 50.41Z" fill="white"/>
<path d="M22.6106 49.5079L22.6489 49.7475L23.3126 48.7783L23.2683 48.5052L22.6106 49.5079Z" fill="white"/>
<path d="M23.4084 48.3099L23.454 48.5962L23.5175 48.5135L23.4624 48.2332L23.4084 48.3099Z" fill="white"/>
<path d="M23.5977 48.0537L23.6564 48.3436L24.7849 47.0749L24.7369 46.7287L23.5977 48.0537Z" fill="white"/>
<path d="M24.8832 46.5632L24.9311 46.9119L25.6139 46.1835L25.5289 45.8492L24.8832 46.5632Z" fill="white"/>
<path d="M25.6642 45.7018L25.7504 46.0396L25.8834 45.9018L25.8355 45.5149L25.6642 45.7018Z" fill="white"/>
<path d="M25.9854 45.358L26.0345 45.7497L26.9294 44.8692L26.9186 44.4152L25.9854 45.358Z" fill="white"/>
<path d="M34.5868 51.0773C34.5868 50.5454 34.1555 50.1141 33.6248 50.1141C33.0929 50.1141 32.6616 50.5454 32.6616 51.0773C32.6616 51.6092 33.0929 52.0393 33.6248 52.0393C34.1555 52.0393 34.5868 51.6104 34.5868 51.0773ZM32.8677 51.0773C32.8677 50.6592 33.2067 50.3202 33.6248 50.3202C34.0405 50.3202 34.3807 50.658 34.3807 51.0773C34.3807 51.4954 34.0417 51.8332 33.6248 51.8332C33.2067 51.8332 32.8677 51.4954 32.8677 51.0773Z" fill="white"/>
<path d="M34.0202 51.6283L33.8021 51.1623C33.9291 51.1168 34.0202 50.9958 34.0202 50.8556C34.0202 50.6747 33.874 50.5286 33.6931 50.5286H33.2295V51.6295H33.4355V51.1815H33.5841L33.7913 51.6283H34.0202ZM33.6931 50.9742H33.4355V50.7334H33.6931C33.7602 50.7334 33.8141 50.7885 33.8141 50.8544C33.8141 50.9215 33.7614 50.9742 33.6931 50.9742Z" fill="white"/>
<path d="M27.5751 44.5853C27.508 44.6416 27.4469 44.6979 27.381 44.7542L30.679 50.0181L34.34 44.1672C34.2322 44.178 34.1292 44.1875 34.0226 44.1983L30.679 49.5437L27.5751 44.5853Z" fill="#F3880B"/>
<path d="M49.0776 20.1406L44.7984 26.9798C44.9386 26.914 45.0835 26.8481 45.2285 26.7786L49.6179 19.768C46.8685 20.3191 41.6717 21.2834 36.6929 21.8094C36.742 21.8908 36.7911 21.9735 36.8402 22.0549C41.5279 21.5506 46.3713 20.6701 49.0776 20.1406Z" fill="#F3880B"/>
<path d="M25.9517 41.9893L24.6891 39.9719C24.5729 39.9468 24.4579 39.9228 24.3405 39.8953L25.6391 41.9702C25.7313 41.975 25.8343 41.9809 25.9517 41.9893Z" fill="#F3880B"/>
<path d="M37.6392 45.3317C37.9771 44.8752 38.2059 44.5841 38.2622 44.402C37.9639 44.5302 37.5805 44.6033 37.3733 44.9196C37.3733 44.9196 37.5266 45.0669 37.6392 45.3317Z" fill="#F3880B"/>
<path d="M39.3787 45.6442C39.3787 45.6442 39.6027 45.6155 39.8016 45.4178C39.8016 45.4178 39.5895 45.0944 39.4674 44.7925C39.3164 45.171 39.3787 45.6442 39.3787 45.6442Z" fill="#F3880B"/>
<path d="M38.3353 37.6611C38.5162 39.0963 38.86 39.7048 38.86 39.7048C38.86 39.7048 39.4015 40.1289 40.4306 40.5494C39.3907 38.6254 38.3353 37.6611 38.3353 37.6611Z" fill="#F3880B"/>
<path d="M27.0647 44.0666L27.4792 43.8342C27.4792 43.8342 29.1827 44.1085 39.3835 43.0567C39.1391 42.8794 39.0193 42.9153 39.0193 42.5092C39.0193 42.3798 39.0409 42.3583 38.8205 42.3583C38.5965 42.3583 38.503 42.2984 38.2407 42.2984C37.9112 42.2984 37.426 42.6278 32.4269 42.6278C28.4472 42.6278 25.6631 42.2936 25.4798 42.2936C25.2965 42.2936 24.9383 42.6338 23.8733 43.4904C23.8733 43.4904 25.9686 43.4628 27.0647 44.0666Z" fill="#F3880B"/>
<path d="M21.8667 50.4565C20.3333 50.1642 17.1682 50.6937 17.1682 50.6937L16.3176 51.9169L21.2725 51.6845L21.8667 50.4565Z" fill="#F3880B"/>
<path d="M55.9468 26.9463C54.2912 29.9221 52.4883 33.8646 50.5176 36.3037L51.0866 35.9455L51.21 35.8245L51.1094 36.1588L51.3478 36.0437L50.9872 36.6823L51.3238 36.4115C51.3238 36.4115 53.0106 34.5151 57.2754 26.8133C56.3254 26.6696 55.9468 26.9463 55.9468 26.9463Z" fill="#F3880B"/>
<path d="M56.1216 25.7914L55.7766 26.3376C55.7766 26.3376 56.6104 26.1795 57.7221 26.2717L58.1235 25.7051C56.9003 25.4751 56.1216 25.7914 56.1216 25.7914Z" fill="#F3880B"/>
<path d="M50.8614 36.3599C50.8614 36.3599 50.7033 36.4881 50.4601 36.5564L50.6685 36.9973L50.7967 36.8978L50.7452 36.7397L50.9608 36.3312L50.8614 36.3599Z" fill="#F3880B"/>
<path d="M52.342 37.5028C51.9946 37.3219 51.319 37.589 51.319 37.589C51.319 37.589 52.0042 37.7496 52.3924 37.9257C52.3924 37.9257 52.3229 37.7687 52.342 37.5028Z" fill="#F3880B"/>
<path d="M28.3477 44.5171C27.896 44.5243 27.6457 44.5243 27.6457 44.5243C27.6217 44.5447 27.6013 44.5663 27.5762 44.5854L30.6801 49.5439L34.0237 44.1985C33.7314 44.2236 33.4451 44.25 33.1647 44.2704L30.6801 48.2117L28.3477 44.5171Z" fill="#006D80"/>
<path d="M25.9518 41.9893C26.183 42.0049 26.4657 42.0253 26.7927 42.0504L25.5936 40.1492C25.3144 40.1013 25.0054 40.0378 24.6891 39.9719L25.9518 41.9893Z" fill="#006D80"/>
<path d="M47.8556 20.9769L43.7513 27.4831C44.0616 27.3285 44.415 27.1584 44.7972 26.9787L49.0763 20.1395C46.3701 20.669 41.5267 21.5495 36.839 22.055C36.9504 22.2395 37.0606 22.4264 37.1708 22.6145C41.0259 22.1904 44.9721 21.5195 47.8556 20.9769Z" fill="#006D80"/>
<path d="M27.6565 22.5558C27.6565 22.2527 27.6433 21.9461 27.6158 21.6346C24.9479 21.9173 23.3569 22.5474 22.746 22.8338C23.6828 22.5714 25.3432 22.4923 27.6565 22.5558Z" fill="#006D80"/>
<path d="M47.9334 34.8578C47.9334 34.8578 44.6881 30.3007 38.4478 25.7088C38.9774 26.8038 39.4709 27.9358 39.9142 29.1063C39.9777 29.2704 39.9681 29.4142 39.8291 29.4142C38.461 29.4142 33.6344 26.7594 28.8964 27.235C31.357 29.5795 33.8069 32.8703 31.4325 31.6699C31.4325 31.6699 33.9087 33.1998 36.821 36.2666C38.9893 36.2666 39.4206 36.6332 39.5488 36.9363C39.7944 37.5221 40.1538 38.5607 41.5734 40.2355C42.2251 40.2355 42.3449 40.1924 42.5833 39.6078C42.5833 39.6078 42.7606 40.3553 42.4323 40.904C45.3925 43.2412 51.1392 45.5965 52.0162 45.5965C52.3708 45.5965 51.6424 42.3811 49.9796 38.514C49.4357 36.0653 49.135 35.3789 47.9334 34.8578Z" fill="#006D80"/>
<path d="M20.9633 32.0725C20.9633 32.0725 21.8103 32.5708 23.1987 33.6191C22.8585 33.0285 21.9576 32.3863 20.9729 31.7874L18.8105 31.9455L18.9699 32.2042C19.63 32.1623 20.296 32.118 20.9633 32.0725Z" fill="#006D80"/>
<path d="M33.6979 35.8606C33.3577 37.7115 33.7171 39.1958 33.7171 39.1958C33.6584 38.5776 34.1436 36.5039 34.1436 36.5039L33.6979 35.8606Z" fill="#006D80"/>
<path d="M32.6125 34.8039C32.2711 36.9267 32.7515 38.6207 32.7515 38.6207C32.6485 37.8408 33.057 35.543 33.057 35.543L32.6125 34.8039Z" fill="#006D80"/>
<path d="M31.5391 33.8431C31.1869 36.1121 31.7356 37.9247 31.7356 37.9247C31.6314 36.8932 31.9836 34.4865 31.9836 34.4865L31.5391 33.8431Z" fill="#006D80"/>
<path d="M29.0917 30.0984C29.0917 30.0984 24.9167 26.6446 19.7367 25.7749C19.5498 25.7749 19.1748 26.5608 19.1748 26.5608C19.1748 26.5608 19.7235 26.0672 19.8912 26.0672C24.3273 26.9238 29.0917 30.0984 29.0917 30.0984Z" fill="#006D80"/>
<path d="M49.6177 19.7668L45.2283 26.7774C45.7087 26.5546 46.2155 26.3234 46.7186 26.0934L51.4039 18.5173C51.4039 18.5173 43.4362 20.258 36.1836 20.9924C36.3537 21.2619 36.525 21.5326 36.6939 21.8082C41.6715 21.2823 46.8684 20.3179 49.6177 19.7668Z" fill="black"/>
<path d="M30.2237 40.0881C29.9949 39.8377 29.7673 39.5909 29.5408 39.3525C31.2048 40.3672 32.7239 41.3795 34.0908 42.2888C33.747 42.2936 33.372 42.2948 32.9623 42.2948C30.1997 42.2948 28.1129 42.151 26.7927 42.0516C26.4656 42.0264 26.1829 42.0061 25.9517 41.9905C25.8343 41.9821 25.7325 41.9761 25.639 41.9713L24.3404 39.8964C23.8157 39.7802 23.3162 39.6592 22.9711 39.5742L24.707 42.381C23.0837 43.5467 18.9208 47.0807 15.9067 52.0068L16.1702 52.4932C16.1702 52.4932 19.0849 52.3123 21.5467 52.2428C21.5467 52.2428 22.6501 49.0921 26.6034 45.4467L30.6813 52.0403L35.6278 44.0378C35.9476 44.0031 36.2723 43.966 36.6017 43.9252C36.9444 44.1397 37.275 44.3409 37.5913 44.523C37.4212 44.6236 37.2786 44.753 37.1684 44.9483C37.1684 44.9483 37.4523 45.1436 37.4727 45.5281C37.4727 45.5281 37.7159 45.5677 37.9734 45.4958C37.9734 45.4958 38.1471 45.231 38.2993 44.9124C38.6227 45.0789 38.927 45.2214 39.2133 45.3364C39.2097 45.6096 39.2565 45.8144 39.2565 45.8144C39.2565 45.8144 39.5715 45.9103 39.9513 45.5725C42.1436 46.072 43.4542 45.6479 43.4542 45.6479C45.6788 46.3068 46.8097 45.5701 46.8097 45.5701C47.683 45.9486 48.4102 46.1678 50.7978 46.1678C52.0928 46.1678 52.5205 46.0109 52.5205 45.7929C52.5205 44.7518 51.4183 40.4882 50.3186 38.2947C49.7112 35.7742 49.6154 35.3142 48.2748 34.6373L48.0544 34.3534C50.5211 29.9352 52.3072 24.6629 52.3072 24.0316C52.3072 23.8782 52.239 23.8327 52.1443 23.8806C48.2185 25.8705 43.9094 27.6459 42.9546 28.312L42.6995 28.6654C40.5874 26.7833 38.7785 25.462 38.0776 24.9696C33.6895 16.3585 26.9568 10.3063 22.6189 8.138C22.6189 9.03768 26.9125 15.6457 27.5702 21.1984C19.8037 20.6701 9.95509 18.5185 9.95509 18.5185L18.4368 32.2377C11.4717 32.6642 5.36084 32.8092 5.36084 32.8092C5.36084 33.2932 13.1381 37.0129 24.6196 39.6089C27.1329 40.1779 29.0018 40.0881 30.2237 40.0881ZM19.8911 26.0682C19.7246 26.0682 19.1747 26.5617 19.1747 26.5617C19.1747 26.5617 19.5497 25.7758 19.7366 25.7758C24.9167 26.6456 29.0916 30.0994 29.0916 30.0994C29.0916 30.0994 24.3272 26.9235 19.8911 26.0682ZM31.7355 37.9246C31.7355 37.9246 31.1869 36.1132 31.5391 33.843L31.9835 34.4864C31.9835 34.4864 31.6301 36.8931 31.7355 37.9246ZM32.7526 38.6218C32.7526 38.6218 32.2722 36.9278 32.6137 34.805L33.0581 35.5442C33.0581 35.5442 32.6496 37.8407 32.7526 38.6218ZM33.7158 39.1956C33.7158 39.1956 33.3564 37.7101 33.6966 35.8604L34.1423 36.5037C34.1423 36.5037 33.6571 38.5774 33.7158 39.1956ZM34.3124 41.237C34.3124 41.237 34.8755 41.0681 35.9021 41.0681C35.9021 41.0681 35.7739 41.3711 35.6481 41.4466C35.6481 41.4466 35.8937 41.6658 36.6868 41.4454C36.6868 41.4454 36.573 41.788 36.3969 41.9629C36.3969 41.9629 36.7814 42.1642 37.6763 41.8779L37.5649 42.048C37.2774 42.0947 36.8689 42.1546 36.198 42.2025C35.7248 41.7186 35.1654 41.3436 34.3124 41.237ZM21.2724 51.6833L16.3176 51.9157L17.1681 50.6926C17.1681 50.6926 20.3332 50.1631 21.8666 50.4554L21.2724 51.6833ZM17.3287 50.4866L18.3122 49.2275C18.3122 49.2275 21.488 48.9831 22.4344 49.4731L21.9529 50.2985C20.2194 50.0361 17.3287 50.4866 17.3287 50.4866ZM22.1206 50.6591L22.0834 50.4099L22.4764 49.7282L22.5159 49.9666L22.1206 50.6591ZM18.4559 49.0454L18.7602 48.6632C18.7602 48.6632 22.2715 48.1002 23.2347 48.2559L22.5267 49.3209C21.4401 48.819 18.4559 49.0454 18.4559 49.0454ZM22.6489 49.7474L22.6105 49.5078L23.2694 48.5039L23.3138 48.777L22.6489 49.7474ZM18.9303 48.4536L19.2766 48.0319C19.2766 48.0319 22.5267 47.724 23.412 48.0163L23.3485 48.1026C22.5039 47.8965 18.9303 48.4536 18.9303 48.4536ZM23.4539 48.5961L23.4084 48.3098L23.4623 48.2332L23.5174 48.5135L23.4539 48.5961ZM19.4407 47.8366L20.4805 46.6482C20.4805 46.6482 23.5078 46.2805 24.7262 46.4817L23.5258 47.8702C22.3338 47.5359 19.4407 47.8366 19.4407 47.8366ZM23.6564 48.3434L23.5989 48.0535L24.737 46.7285L24.7849 47.0747L23.6564 48.3434ZM20.6626 46.4482L22.0367 45.0849C22.0367 45.0849 24.8999 45.0657 25.524 45.5988L24.8675 46.3248C23.1964 46.1044 20.6626 46.4482 20.6626 46.4482ZM24.931 46.9118L24.8819 46.5632L25.5276 45.8492L25.6139 46.1822L24.931 46.9118ZM22.2236 44.9124L22.2955 44.8477C22.2955 44.8477 25.0185 44.8812 25.784 45.3173L25.6438 45.467C24.695 44.8716 22.2236 44.9124 22.2236 44.9124ZM25.7504 46.0397L25.6642 45.7018L25.8367 45.5137L25.8846 45.9007L25.7504 46.0397ZM22.4824 44.6812L23.6624 43.6677C23.6624 43.6677 26.0332 43.6796 26.9245 44.1876L25.9098 45.1867C25.2341 44.7303 22.4824 44.6812 22.4824 44.6812ZM26.0344 45.7498L25.9852 45.358L26.9185 44.4152L26.9293 44.8704L26.0344 45.7498ZM30.6801 50.0182L27.3821 44.7542C27.448 44.6979 27.5091 44.6416 27.5762 44.5853C27.6013 44.5649 27.6217 44.5446 27.6456 44.5242C27.6456 44.5242 27.8972 44.5242 28.3477 44.517C29.2521 44.5003 30.9772 44.4464 33.1647 44.2702C33.4439 44.2499 33.7302 44.2247 34.0237 44.1984C34.1303 44.1876 34.2345 44.178 34.3412 44.1672L30.6801 50.0182ZM27.4791 43.8342L27.0646 44.0666C25.9685 43.4628 23.8732 43.4904 23.8732 43.4904C24.9382 42.6338 25.2952 42.2936 25.4797 42.2936C25.6642 42.2936 28.4483 42.6278 32.4268 42.6278C37.4248 42.6278 37.9111 42.2984 38.2406 42.2984C38.5029 42.2984 38.5964 42.3583 38.8204 42.3583C39.0408 42.3583 39.0193 42.3798 39.0193 42.5092C39.0193 42.9153 39.1391 42.8806 39.3834 43.0567C29.1827 44.1097 27.4791 43.8342 27.4791 43.8342ZM37.6392 45.3317C37.5254 45.0669 37.3732 44.9196 37.3732 44.9196C37.5805 44.6033 37.9638 44.5302 38.2621 44.402C38.2058 44.5841 37.9782 44.8752 37.6392 45.3317ZM39.3787 45.6443C39.3787 45.6443 39.3176 45.1711 39.4673 44.7926C39.5895 45.0933 39.8015 45.4179 39.8015 45.4179C39.6015 45.6156 39.3787 45.6443 39.3787 45.6443ZM43.3344 45.3221C41.9351 45.4982 40.8761 45.4455 40.0399 45.2526C40.0028 45.0741 39.8111 45.0393 39.6614 44.8225C39.6051 44.7411 39.5512 44.4464 39.4481 44.4188C39.3307 44.6033 39.2708 44.8069 39.2421 45.0022C38.939 44.8788 38.673 44.7327 38.4358 44.5709C38.4838 44.4296 38.5161 44.2894 38.5161 44.1672C38.3628 44.2187 38.2178 44.2631 38.0836 44.3062C37.8896 44.1457 37.7147 43.9755 37.5517 43.8018C38.128 43.724 38.7162 43.6353 39.3128 43.5419C39.6147 43.3574 39.7213 43.2472 39.7249 43.1501C39.9393 43.1322 40.1597 43.1082 40.3754 43.0747C40.0938 43.3562 39.6494 43.6629 39.2924 44.0199C39.2924 44.0199 40.0423 44.2631 42.0358 44.1756C42.0358 44.1756 41.5937 44.517 40.9875 44.874C40.9875 44.874 41.6764 45.0429 43.7225 45.007L43.3344 45.3221ZM43.6003 45.346C43.8687 45.1292 44.1394 44.8297 44.1394 44.8297C42.7617 44.8537 41.4799 44.771 41.4799 44.771C42.0525 44.4799 42.4658 43.9743 42.4658 43.9743C41.5039 44.0941 39.6506 43.9216 39.6506 43.9216C40.3191 43.4676 40.7611 42.853 40.7611 42.853C40.3634 42.9093 39.9681 42.9465 39.6254 42.974C39.5476 42.8938 39.4409 42.8003 39.3463 42.6626C39.2768 42.1223 39.2205 42.0252 38.7569 42.0252C38.5101 42.0252 38.4778 41.9665 38.1974 41.9665C38.0705 41.9665 37.9531 41.9833 37.7949 42.0097C37.9003 41.8156 37.9746 41.6407 37.9746 41.6407C37.1025 41.8419 36.6772 41.8455 36.6772 41.8455C36.9048 41.5448 36.8773 41.2082 36.8773 41.2082C36.3765 41.3867 35.9429 41.3604 35.9429 41.3604C35.9429 41.3604 36.0231 41.2274 36.077 41.0728C39.7345 41.0728 42.14 43.7036 46.5102 45.4431C45.3015 45.7294 43.6003 45.346 43.6003 45.346ZM38.3352 37.661C38.3352 37.661 39.3906 38.6254 40.4305 40.5493C39.4014 40.1288 38.8599 39.7047 38.8599 39.7047C38.8599 39.7047 38.5161 39.0962 38.3352 37.661ZM39.8279 29.4129C39.9669 29.4129 39.9764 29.2692 39.913 29.105C39.4697 27.9346 38.9761 26.8013 38.4466 25.7076C44.6869 30.2994 47.9322 34.8565 47.9322 34.8565C49.1338 35.3776 49.4345 36.0641 49.9772 38.514C51.6412 42.381 52.3695 45.5964 52.0137 45.5964C51.1368 45.5964 45.3901 43.2412 42.4299 40.9039C42.7582 40.3553 42.5809 39.6077 42.5809 39.6077C42.3425 40.1935 42.2227 40.2355 41.571 40.2355C40.1514 38.5607 39.792 37.5208 39.5464 36.9362C39.4182 36.6331 38.9869 36.2665 36.8186 36.2665C33.9063 33.1997 31.4301 31.6699 31.4301 31.6699C33.8033 32.8691 31.3546 29.5794 28.8939 27.235C33.6343 26.7594 38.461 29.4129 39.8279 29.4129ZM27.6564 22.5557C25.3431 22.4922 23.6827 22.5713 22.7459 22.8324C23.3569 22.5461 24.9478 21.916 27.6157 21.6332C27.6421 21.9459 27.6564 22.2526 27.6564 22.5557ZM20.9633 32.0724C20.296 32.1179 19.6288 32.1623 18.9699 32.2042L18.8106 31.9454L20.9729 31.7873C21.9588 32.3863 22.8585 33.0284 23.1987 33.619C21.8103 32.5708 20.9633 32.0724 20.9633 32.0724Z" fill="black"/>
<path d="M50.9607 37.5196L51.041 37.8107C51.041 37.8107 51.755 38.2982 52.2701 38.442L52.6822 38.1449C52.6822 38.1449 52.445 37.8418 52.5205 37.3974C51.9826 37.0488 50.9607 37.5196 50.9607 37.5196ZM51.3177 37.5902C51.3177 37.5902 51.9934 37.3231 52.3408 37.504C52.3216 37.7699 52.3899 37.9269 52.3899 37.9269C52.0029 37.7508 51.3177 37.5902 51.3177 37.5902Z" fill="black"/>
<path d="M55.9574 25.3659L55.398 26.3615L55.5202 27.1234C53.014 32.0519 50.2251 36.5143 50.2251 36.5143L50.5701 37.3517L50.9762 37.069L51.2566 37.0929C51.2566 37.0929 53.9281 34.5377 57.3303 27.9416C57.3303 27.9416 58.3162 27.9727 58.3953 27.1773C58.4768 26.3686 58.5319 25.808 58.5319 25.4845C57.3064 25.0365 55.9574 25.3659 55.9574 25.3659ZM50.7953 36.8977L50.6672 36.9971L50.4587 36.5563C50.7031 36.488 50.86 36.3598 50.86 36.3598L50.9583 36.331L50.7426 36.7395L50.7953 36.8977ZM51.3224 36.4113L50.9858 36.682L51.3464 36.0435L51.108 36.1585L51.2086 35.8243L51.0852 35.9453L50.5162 36.3035C52.4869 33.8644 54.2898 29.9218 55.9454 26.9461C55.9454 26.9461 56.324 26.6693 57.2728 26.8131C53.0092 34.5161 51.3224 36.4113 51.3224 36.4113ZM58.1246 25.705L57.7233 26.2716C56.6115 26.1794 55.7777 26.3375 55.7777 26.3375L56.1227 25.7912C56.1227 25.7912 56.9002 25.4749 58.1246 25.705Z" fill="black"/>
</g>
<defs>
<clipPath id="clip0_33_1951">
<rect width="55.0208" height="46" fill="white" transform="translate(4 7)"/>
</clipPath>
</defs>
</svg>
