<svg width="68" height="64" viewBox="0 0 68 64" fill="none" xmlns="http://www.w3.org/2000/svg">
<g clip-path="url(#clip0_33_1942)">
<path d="M50.0929 46.0142C49.5063 46.0142 49.03 46.4897 49.03 47.0767C49.03 47.6631 49.5063 48.1394 50.0929 48.1394C50.6795 48.1394 51.155 47.6631 51.155 47.0768C51.155 46.4897 50.6795 46.0142 50.0929 46.0142ZM50.0929 47.9113C49.9833 47.9114 49.8747 47.8899 49.7734 47.848C49.6721 47.8061 49.5801 47.7446 49.5026 47.6671C49.425 47.5896 49.3636 47.4976 49.3217 47.3963C49.2798 47.295 49.2582 47.1864 49.2583 47.0768C49.2583 46.6157 49.6313 46.2427 50.0929 46.2427C50.554 46.2427 50.9273 46.6157 50.9273 47.0768C50.9273 47.5381 50.554 47.9113 50.0929 47.9113ZM50.5295 46.8304C50.5295 46.7831 50.5201 46.7363 50.502 46.6926C50.4839 46.6489 50.4573 46.6092 50.4238 46.5758C50.3903 46.5423 50.3506 46.5158 50.3069 46.4978C50.2631 46.4797 50.2163 46.4704 50.169 46.4705H49.657V47.6833H49.8846V47.1908H50.0479L50.2778 47.6833H50.5295L50.2894 47.1697C50.3596 47.1448 50.4203 47.0989 50.4633 47.0381C50.5062 46.9774 50.5294 46.9048 50.5296 46.8304H50.5295ZM50.169 46.963H49.8846V46.6976H50.169C50.2421 46.6976 50.3019 46.7571 50.3019 46.8305C50.3018 46.8657 50.2877 46.8994 50.2628 46.9242C50.2379 46.9491 50.2041 46.963 50.169 46.963Z" fill="#00205B"/>
<path d="M58.2947 30.502C58.2947 25.5742 55.2313 20.7168 49.7945 17.7319L47.7112 19.385C51.4267 21.723 53.6133 25.2168 53.6133 29.1816C53.6133 38.4359 42.1777 46.818 29.4512 46.818C28.1449 46.818 26.8639 46.7225 25.6265 46.5388L21.3319 49.7169C24.0436 50.6343 27.0698 51.1213 30.2322 51.1213C45.3398 51.1213 58.2947 40.9216 58.2947 30.502Z" fill="#00205B"/>
<path d="M39.079 33.9428L31.3066 35.4625L48.5467 21.2962L40.5208 22.3722L56.1208 10L37.96 14.7783C37.7205 14.7733 37.4804 14.7696 37.2375 14.7696C22.3545 14.7696 9.70532 24.8844 9.70532 35.556C9.70532 40.7918 12.5255 44.957 16.8967 47.6557L10.1855 55.3333L39.079 33.9428ZM11.78 33.9779C11.78 24.4086 23.7544 16.3419 35.9426 16.3419C36.0267 16.3419 36.1098 16.3435 36.194 16.3444L24.4105 29.5268L31.1863 28.4551L17.8364 41.3661L23.2507 40.3881L19.4688 44.7141C14.8736 42.538 11.78 38.7853 11.78 33.9779" fill="#00205B"/>
</g>
<defs>
<clipPath id="clip0_33_1942">
<rect width="68" height="45.3333" fill="white" transform="translate(0 10)"/>
</clipPath>
</defs>
</svg>
