<svg width="64" height="64" viewBox="0 0 64 64" fill="none" xmlns="http://www.w3.org/2000/svg">
<path d="M61.7835 36.7128C61.8268 28.3698 53.1092 23.1758 50.328 22.2745C50.328 22.2745 55.602 29.9263 55.2127 35.2002C55.0409 37.5257 53.8872 38.2839 52.725 38.44C52.7019 33.864 50.7973 30.0491 49.4571 27.9287L50.4706 26.8263C50.4706 26.8263 48.3626 21.2177 39.8134 14.4188L38.4518 15.301L30.2688 10L22.0971 15.2937L20.8256 14.4701L3 26.0167L13.3237 31.5786L11.2129 32.9458L22.5601 39.0602L20.5017 40.3936C20.5017 40.3936 28.4222 44.7843 36.2694 44.1488C37.0091 44.6096 37.7786 45.0473 38.569 45.4456C34.6392 47.5035 30.0345 46.3813 30.0345 46.3813L24.4434 49.9027C38.7701 56.8357 46.7847 51.1083 49.6464 47.6421C56.1321 47.2967 61.7446 44.2378 61.7835 36.7128Z" fill="#6CACE4"/>
<path d="M60.6422 37.0179C60.6422 32.2955 57.3793 27.2559 52.9064 24.6651C56.874 31.8994 57.4109 36.7041 54.8128 38.7501C53.9988 39.3912 52.7881 39.7044 51.4328 39.692C51.4637 39.2949 51.4818 38.8944 51.4818 38.491C51.4818 34.4434 49.9748 30.7547 47.859 27.8175L48.9637 26.6007C48.9637 26.6007 46.6585 21.7126 39.7233 15.9875L38.4518 16.8111L30.2688 11.5101L22.0965 16.8037L20.8251 15.9801L5.48657 25.9168L15.8103 31.4786L13.6994 32.8464L25.0473 38.9608L23.0728 40.2402L23.3939 40.3973C25.7131 41.4474 30.8767 43.3886 36.4041 42.8591C37.6868 43.7272 39.1537 44.5266 40.806 45.1524C38.2744 47.7731 33.6235 48.1702 30.2688 47.5821L26.9406 49.738C30.0694 51.1886 33.6928 51.8815 36.8429 51.8815C41.1322 51.8815 45.0389 50.5965 47.7598 47.9055C48.1902 47.4796 48.58 47.0261 48.9349 46.5507C55.7012 46.4611 60.6422 43.0354 60.6422 37.0179Z" fill="#010101"/>
<path d="M47.1207 36.3971C47.1207 36.3971 48.2789 36.045 49.4162 36.3103C49.3785 36.0546 49.334 35.8005 49.2839 35.5482C49.1408 34.96 48.5498 33.7111 45.9579 32.9557C45.9579 32.9557 46.8469 32.447 48.4653 32.7585C48.373 32.5214 48.2761 32.287 48.1741 32.0555C47.8767 31.4747 46.9494 30.1604 44.6031 30.019C44.6031 30.019 45.5805 29.4478 46.7483 29.4224C46.3173 28.76 45.8515 28.1341 45.3597 27.5539L46.443 26.3286C45.4667 24.7873 43.3435 21.8642 39.5568 18.5382L38.4521 19.2537L30.2691 13.9527L23.0015 18.6605L33.3206 20.1359L38.7151 23.6302L34.0958 22.4624L24.6751 26.0261L30.2685 28.0626L23.4104 30.2004L32.5472 35.0997C32.5472 35.0997 33.5409 34.1409 35.2123 33.3421H35.2118C36.2827 32.8301 37.6318 32.3833 39.1782 32.2966C39.1782 32.2966 37.5676 29.3408 33.8806 27.7285L34.6107 26.8728C34.6107 26.8728 33.3212 26.3979 30.2685 26.1658C30.2685 26.1658 33.8333 24.4172 37.4972 24.6656L41.9549 27.5533H43.864L41.8208 29.9469C43.6195 32.1721 44.7761 34.813 45.2284 37.4646C45.6678 37.8026 46.1117 38.1018 46.5573 38.3524C47.5099 38.8887 48.5335 39.2633 49.5424 39.478C49.5486 39.389 49.5526 39.2994 49.5576 39.2104C49.5486 38.6223 49.3092 37.09 47.1207 36.3971Z" fill="white"/>
<path d="M43.4585 45.9539C43.3773 46.0525 43.294 46.1494 43.2089 46.2435C41.435 48.218 38.8233 49.2528 36.1357 49.6133C35.3656 49.7164 34.591 49.7683 33.8328 49.7677C34.8563 49.9091 35.8692 49.9789 36.8421 49.9789C40.7252 49.9789 44.0911 48.8573 46.4222 46.5527C46.4571 46.5184 46.4892 46.4818 46.5236 46.4468C45.7005 46.3674 43.6376 45.995 43.4585 45.9539Z" fill="white"/>
<path d="M38.7146 23.6302L33.2706 18.4644L26.8395 17.4657L30.268 13.9527L23.001 18.6605L33.3202 20.1359L38.7146 23.6302Z" fill="#6CACE4"/>
<path d="M34.0959 22.4626L24.6753 26.0268L30.2686 28.0627L27.0616 25.9851L34.0959 22.4626Z" fill="#6CACE4"/>
<path d="M38.4512 19.2531L40.5873 20.6366L39.5564 18.5377L38.4512 19.2531Z" fill="#6CACE4"/>
<path d="M32.5471 35.1004C32.5471 35.1004 33.5409 34.1416 35.2123 33.3428L23.4104 30.201L32.5471 35.1004Z" fill="#6CACE4"/>
<path d="M45.2279 37.4641C45.6673 37.8021 46.1112 38.1012 46.5568 38.3519C46.6695 38.4155 46.7839 38.4758 46.8982 38.535C46.8329 37.4472 46.6357 36.3081 46.3005 35.1307C45.7287 33.1388 44.7851 31.26 43.5475 29.5982L43.8635 27.5527L41.8203 29.9475C43.619 32.1726 44.7756 34.813 45.2279 37.4641Z" fill="#6CACE4"/>
<path d="M46.5273 46.4472C46.5273 46.4472 45.1944 46.2664 43.4582 45.9537C43.3771 46.0523 43.2937 46.1492 43.2087 46.2433C41.4347 48.2178 38.8231 49.2526 36.1354 49.6132C35.3659 49.7162 34.5908 49.7681 33.8325 49.7675C33.8325 49.7675 35.2166 49.8684 36.2881 49.7985C36.4272 49.7884 36.5647 49.7765 36.701 49.7636C36.8176 49.7529 36.9337 49.7405 37.0497 49.7264C37.0565 49.7258 37.0632 49.7247 37.07 49.7241C37.2418 49.7039 37.4136 49.6808 37.5838 49.6537C40.1796 49.2611 42.2859 48.2769 43.8379 46.8444L46.5273 46.4472Z" fill="#6CACE4"/>
<path d="M34.2551 36.6876C37.0279 34.4371 39.7212 34.1858 39.7212 34.1858C39.7212 34.1858 40.369 35.1936 41.5447 36.4431C44.1315 39.1922 47.5031 41.2185 51.278 41.2185C53.6958 41.2185 55.89 40.3273 56.9682 38.341C58.509 35.5029 57.3231 31.426 55.8145 28.384C57.1417 29.9101 58.5107 32.1798 58.9979 34.6461C59.3703 36.5321 59.3382 38.7635 58.1439 40.7256C56.4843 43.4499 53.0052 44.7055 49.2015 44.7055C44.0527 44.705 38.5111 41.9694 34.2551 36.6876Z" fill="white"/>
<path d="M36.4668 35.2502C35.7716 35.6028 35.0162 36.0693 34.2551 36.6873C37.3478 40.5253 41.3081 43.298 45.8897 44.343C46.9899 44.5942 48.2202 44.7238 49.4725 44.7024C51.607 44.3266 52.5652 43.4214 52.5652 43.4214C43.3885 44.5954 38.1326 37.8545 36.4668 35.2502Z" fill="#6CACE4"/>
<path d="M37.2428 26.6156L37.24 26.6145C37.24 26.6145 37.9825 28.4273 39.3328 29.2402L40.2544 28.567L41.0572 28.4808L37.2428 26.6156Z" fill="#6CACE4"/>
<path d="M21.7585 22.7973L17.9768 27.6493L24.7937 23.4463L22.7545 22.1253L24.6078 20.873L20.8639 18.4478L18.6979 23.2914L21.7585 22.7973Z" fill="white"/>
<path d="M15.8798 24.7763L19.3894 24.1775L17.9771 27.6493L21.7588 22.7973L18.6982 23.2914L20.8642 18.4478L9.41895 25.7019L16.8465 22.6869L15.8798 24.7763Z" fill="#6CACE4"/>
</svg>
