<svg width="64" height="64" viewBox="0 0 64 64" fill="none" xmlns="http://www.w3.org/2000/svg">
<path d="M61.5992 36.7955C61.0471 36.7955 60.5989 37.2431 60.5989 37.7956C60.5989 38.3475 61.0471 38.7957 61.5992 38.7957C62.1513 38.7957 62.5989 38.3475 62.5989 37.7957C62.5989 37.2431 62.1513 36.7955 61.5992 36.7955ZM61.5992 38.5811C61.496 38.5812 61.3938 38.561 61.2985 38.5215C61.2032 38.4821 61.1165 38.4242 61.0436 38.3512C60.9706 38.2783 60.9128 38.1917 60.8733 38.0963C60.8339 38.001 60.8136 37.8988 60.8137 37.7956C60.8137 37.3616 61.1647 37.0107 61.5992 37.0107C62.0332 37.0107 62.3845 37.3616 62.3845 37.7956C62.3845 38.2297 62.0332 38.5811 61.5992 38.5811ZM62.0101 37.5638C62.0101 37.5193 62.0013 37.4752 61.9842 37.4341C61.9672 37.3929 61.9422 37.3556 61.9107 37.3241C61.8792 37.2926 61.8418 37.2677 61.8006 37.2507C61.7594 37.2337 61.7153 37.225 61.6708 37.225H61.1889V38.3665H61.4031V37.9029H61.5568L61.7733 38.3665H62.0101L61.7841 37.8831C61.8501 37.8597 61.9073 37.8164 61.9477 37.7593C61.9882 37.7021 62.01 37.6338 62.0101 37.5638ZM61.6708 37.6886H61.4031V37.4388H61.6707C61.7039 37.4388 61.7357 37.452 61.7592 37.4755C61.7827 37.4989 61.7959 37.5307 61.7959 37.5639C61.7958 37.597 61.7826 37.6287 61.7591 37.6521C61.7357 37.6754 61.7039 37.6886 61.6708 37.6886Z" fill="#041E42"/>
<path d="M13.6799 38.7208H18.2606L16.7011 42.4881H20.5381L22.0981 38.7207H33.3803L33.0529 39.5123C32.3042 41.3195 32.4061 43.6404 33.1735 44.8705L37.542 51.8705L40.9229 46.9621H46.4611L49.4849 43.2441H42.473L40.3573 45.8464L36.1461 42.3454C36.052 42.2568 35.943 41.7998 36.1181 41.3787L38.0353 36.7479C38.0353 36.7479 38.4393 38.7208 40.9998 38.7208H56.2143C56.9369 38.7208 59.1369 38.7208 59.9849 36.6724C60.7558 34.8085 59.6053 33.7863 59.6053 33.7863H60.8179L62.2012 30.4495H54.7627C53.8224 30.4495 52.9517 30.6888 52.2667 31.0998L55.7789 22.6193H51.9413L48.0854 31.9311C48.0854 31.9311 47.3978 30.4495 45.1414 30.4495H40.6441L47.9537 12.7961H44.1164L36.8062 30.4495H27.4207C24.9729 30.4495 22.7103 31.481 21.1163 33.2113C21.1163 33.2113 21.0979 30.4495 17.8217 30.4495H9.47068C6.13228 30.4495 2.69128 32.4422 1.63748 34.9863C0.893278 36.7825 1.94094 38.7208 4.31981 38.7208H7.57341C8.92721 38.7208 10.3658 37.8198 10.9861 37.3812C10.9861 37.3812 11.6764 38.7208 13.6801 38.7208H13.6799Z" fill="white"/>
<path d="M42.9133 44.1694L41.3949 46.0371H46.0202L47.5389 44.1694H42.9133ZM17.3267 25.6575L18.6547 24.6925L19.9828 25.6575L19.4756 24.096L20.8033 23.1317H19.1619L18.6547 21.5697L18.1477 23.1317H16.5055L17.834 24.096L17.3267 25.6575ZM25.9309 25.6575L27.2586 24.6925L28.5873 25.6575L28.0798 24.096L29.4082 23.1317H27.7669L27.2586 21.5697L26.7519 23.1317H25.1099L26.4381 24.096L25.9309 25.6575ZM36.3703 23.1317L35.8633 21.5697L35.3561 23.1317H33.7147L35.0426 24.096L34.5351 25.6575L35.8633 24.6925L37.1917 25.6575L36.684 24.096L38.0121 23.1317H36.3703ZM14.0582 27.7222H14.0632L13.9623 29.2702H14.4972L15.9895 27.329H15.5543L14.4228 28.8457H14.4171L14.5214 27.329H13.9727L12.8387 28.8457H12.8338L12.9482 27.329H12.4801L12.3699 29.2703H12.8945L14.0582 27.7222ZM17.1381 28.8353L17.1815 29.2703H17.6975L17.5094 27.329H16.9614L15.167 29.2703H15.6347L16.0199 28.8353H17.1381ZM17.0599 27.6734L17.1142 28.5174H16.3068L17.0599 27.6734ZM18.1967 28.6621C18.0245 29.0788 18.2761 29.3214 18.8378 29.3214C19.4969 29.3214 19.9397 29.0848 20.1056 28.6837C20.4595 27.8288 18.8516 28.3335 19.0598 27.831C19.1332 27.6538 19.3695 27.5649 19.55 27.5649C19.8511 27.5649 19.9875 27.6566 19.8994 27.9092H20.3349C20.4844 27.5162 20.2766 27.2778 19.7089 27.2778C19.2576 27.2778 18.7629 27.4576 18.5779 27.9065C18.2543 28.686 19.8115 28.3034 19.6313 28.7377C19.5732 28.8782 19.377 29.0331 19.0169 29.0331C18.6727 29.0331 18.5609 28.8929 18.6324 28.6621H18.1967H18.1967ZM20.7474 29.2703L21.0925 28.4366H22.1492L21.8038 29.2703H22.2395L23.0435 27.329H22.6086L22.2805 28.1198H21.2241L21.551 27.329H21.1153L20.3107 29.2703H20.7474ZM23.2663 29.2703L24.0711 27.329H23.6354L22.8311 29.2703H23.2663ZM24.2566 29.2703L24.8851 27.7538H24.8901L25.3893 29.2703H25.9745L26.7789 27.329H26.3867L25.7696 28.8187H25.7634L25.2811 27.329H24.6679L23.8643 29.2703H24.2566ZM29.2042 27.9546C29.3921 27.5008 29.0462 27.2778 28.4605 27.2778C27.696 27.2778 27.1047 27.7125 26.8632 28.2935C26.5721 28.9985 26.9303 29.3215 27.6541 29.3215C27.9357 29.3215 28.3833 29.267 28.709 29.1492L29.0853 28.2426H28.039L27.9139 28.5434H28.5347L28.3819 28.9147C28.1385 28.9817 27.9819 29.0035 27.8123 29.0035C27.2157 29.0035 27.1672 28.6512 27.3171 28.2911C27.5261 27.786 27.9911 27.579 28.3998 27.579C28.6152 27.579 28.8509 27.6834 28.7521 27.9547L29.2042 27.9546ZM29.7394 29.2703H30.1754L30.8479 27.646H31.5876L31.7193 27.329H29.8046L29.6731 27.646H30.4133L29.7394 29.2703ZM32.2766 29.3214C32.9923 29.3214 33.5495 28.9801 33.8317 28.2984C34.1141 27.6184 33.8386 27.2778 33.1229 27.2778C32.4078 27.2778 31.8497 27.6184 31.5677 28.2984C31.2853 28.98 31.5613 29.3214 32.2765 29.3214H32.2766ZM32.0193 28.2984C32.2083 27.8412 32.572 27.5938 32.9916 27.5938C33.4138 27.5938 33.5697 27.8412 33.3801 28.2985C33.1908 28.7566 32.8298 29.0035 32.4078 29.0035C31.9887 29.0035 31.8298 28.7566 32.0193 28.2984ZM35.8193 28.8187H35.8138L35.3319 27.329H34.718L33.9139 29.2703H34.3063L34.9348 27.7538H34.94L35.4383 29.2703H36.0249L36.8287 27.329H36.4361L35.8193 28.8187Z" fill="#C8102E"/>
<path d="M8.92891 32.8615H11.3566L11.972 31.3749H9.47051C6.52351 31.3749 3.39945 33.1501 2.49184 35.3399C1.94431 36.6639 2.74864 37.7956 4.31965 37.7956H7.57331C8.98751 37.7956 10.7092 36.435 10.7092 36.435L9.18845 35.7939C9.18845 35.7939 8.49851 36.3094 7.75058 36.3094H4.63245C4.24178 36.3094 4.08058 35.9339 4.28578 35.4359C4.87525 34.0137 6.95398 32.8615 8.92891 32.8615ZM13.6798 37.7956H15.565C16.2422 37.7956 16.8228 37.4014 16.8228 37.4014L16.66 37.7956H18.4938L19.9952 34.1703C20.6346 32.6265 19.6616 31.3749 17.8217 31.3749H13.0539L12.4384 32.8615H17.6011C18.7033 32.8615 18.3673 33.6715 18.3673 33.6715H14.6493C13.172 33.6715 12.0823 34.3522 11.734 35.1929C11.1394 36.6291 12.01 37.7956 13.6798 37.7956ZM13.3444 35.7327C13.4761 35.4161 13.8403 35.158 14.1584 35.158H16.7318C17.3201 35.158 17.8446 34.9346 17.8446 34.9346L17.5431 35.6621C17.3957 36.0192 16.8806 36.3095 16.4786 36.3095H13.6813C13.3633 36.3095 13.2124 36.0512 13.3444 35.7328V35.7327ZM39.7566 31.3749L39.1413 32.8615H44.9203C46.0231 32.8615 45.6867 33.6715 45.6867 33.6715H41.969C40.4918 33.6715 39.4017 34.3522 39.0546 35.1929C38.4588 36.6291 39.3293 37.7956 40.9998 37.7956H42.8842C43.5618 37.7956 44.1432 37.4014 44.1432 37.4014L43.9792 37.7956H45.8137L47.3148 34.1703C47.9543 32.6265 46.9815 31.3749 45.1413 31.3749H39.7566ZM44.8632 35.6622C44.7151 36.0192 44.2008 36.3094 43.7992 36.3094H41.0012C40.6834 36.3094 40.5323 36.0512 40.6638 35.7327C40.7955 35.4161 41.1601 35.158 41.4779 35.158H44.0518C44.6393 35.158 45.1643 34.9346 45.1643 34.9346L44.8632 35.6621V35.6622ZM48.4926 37.7956L54.3935 23.5449H52.56L46.6581 37.7956H48.4926ZM34.5591 31.3749H32.7251L32.1094 32.8615H33.9428L34.5591 31.3749ZM31.8996 37.7956L33.6078 33.6716H31.7732L30.0652 37.7956H31.8996ZM51.8476 32.8518C51.282 34.2191 52.0172 35.3283 53.4922 35.3283H57.215C57.486 35.3283 57.6149 35.548 57.5021 35.819C57.3898 36.0901 57.0794 36.3094 56.8089 36.3094H49.9993L49.384 37.7956H56.2142C57.4866 37.7956 58.6386 37.5047 59.129 36.3189C59.6954 34.9507 58.9597 33.8421 57.485 33.8421H53.7626C53.4912 33.8421 53.362 33.6225 53.4748 33.3517C53.5873 33.0802 53.8979 32.8615 54.1688 32.8615H60.2L60.8155 31.3749H54.7626C53.4907 31.3749 52.2326 31.9219 51.8476 32.8518ZM19.9201 41.5624L22.0505 36.4177C22.8638 34.4537 24.6556 32.8615 27.4904 32.8615H29.3094L28.1571 35.6437C28.0056 36.0097 27.5814 36.3095 27.2158 36.3095H22.9773L22.3613 37.7957H27.4344C28.3506 37.7957 29.2734 37.3772 29.7896 36.1297L31.7594 31.3749H27.4208C24.0169 31.3749 21.4264 33.4953 20.3432 36.1104L18.0859 41.5624H19.9201Z" fill="#041E42"/>
<path d="M33.9074 39.8657C33.3014 41.3318 33.3244 43.3631 33.9586 44.3805L37.5804 50.1836L39.9643 46.7225L35.5548 43.0568C35.0904 42.6723 34.9592 41.7573 35.2634 41.0241L46.5691 13.721H44.7346L37.4245 31.3748H35.2503L34.6346 32.8615H36.8095L33.9075 39.8657H33.9074Z" fill="#041E42"/>
</svg>
