<svg width="64" height="64" viewBox="0 0 64 64" fill="none" xmlns="http://www.w3.org/2000/svg">
<g clip-path="url(#clip0_33_1949)">
<path d="M29.5229 45.8605H21.6418L19.3676 48.1361C22.2363 50.3848 25.7185 51.8852 29.5229 52.3449V45.8605Z" fill="white"/>
<path d="M38.6536 45.8606H34.4772V52.345C38.2815 51.8853 41.7637 50.3848 44.6325 48.1362L40.5302 44.0339L38.6536 45.8606Z" fill="white"/>
<path d="M22.2309 38.2681V34.4772H11.6564C12.1147 38.2815 13.6152 41.7651 15.8638 44.6338L22.2309 38.2681Z" fill="white"/>
<path d="M22.2309 25.7333L15.8652 19.3676C13.6165 22.2377 12.1161 25.7185 11.6577 29.5242H22.2323L22.2309 25.7333Z" fill="white"/>
<path d="M40.5302 19.9675L44.6325 15.8652C41.7637 13.6152 38.2815 12.1161 34.4772 11.6577V18.1408H38.6536L40.5302 19.9675Z" fill="white"/>
<path d="M43.4973 34.4772V39.9963L48.1348 44.6338C50.3848 41.7651 51.8839 38.2815 52.345 34.4772H43.4973Z" fill="white"/>
<path d="M29.5229 18.1408V11.6577C25.7185 12.1147 22.2377 13.6152 19.3676 15.8652L21.6418 18.1408H29.5229Z" fill="white"/>
<path d="M43.4973 29.5242H52.3436C51.8839 25.7185 50.3835 22.2377 48.1335 19.3676L43.496 24.0051L43.4973 29.5242Z" fill="white"/>
<path d="M35.6891 27.7366V26.127L35.131 25.585H29.7722V28.2785H35.131L35.6891 27.7366Z" fill="white"/>
<path d="M35.6891 37.8744V36.2648L35.131 35.7228H29.7722V38.4164H35.131L35.6891 37.8744Z" fill="white"/>
<path d="M51.2126 52.4987C51.923 52.4987 52.4987 51.9244 52.4987 51.2139C52.4987 50.5048 51.9244 49.9305 51.2126 49.9305C50.5035 49.9305 49.9278 50.5048 49.9278 51.2139C49.9278 51.9244 50.5035 52.4987 51.2126 52.4987ZM51.2126 50.2042C51.772 50.2042 52.2237 50.6558 52.2237 51.2126C52.2237 51.7694 51.772 52.2223 51.2126 52.2223C50.6558 52.2223 50.2042 51.7694 50.2042 51.2126C50.2042 50.6558 50.6558 50.2042 51.2126 50.2042Z" fill="white"/>
<path d="M50.9605 51.3514H51.1586L51.4364 51.9486H51.741L51.4512 51.3258C51.6197 51.2665 51.741 51.1047 51.741 50.916C51.741 50.676 51.5456 50.4805 51.3056 50.4805H50.6855V51.95H50.9605V51.3514ZM50.9605 50.7555H51.3056C51.3932 50.7555 51.4647 50.827 51.4647 50.916C51.4647 51.0049 51.3932 51.075 51.3056 51.075H50.9605V50.7555Z" fill="white"/>
<path d="M32.0007 57.0014C45.808 57.0014 57.0013 45.8094 57.0013 32.0007C57 18.1934 45.8067 7 32.0007 7C18.1933 7 7 18.1934 7 32.0007C7 45.808 18.1933 57.0014 32.0007 57.0014ZM32.0007 7.92885C45.2944 7.92885 56.0725 18.707 56.0725 32.0007C56.0725 45.2958 45.2944 56.0726 32.0007 56.0726C18.707 56.0726 7.92885 45.2958 7.92885 32.0007C7.9275 18.707 18.7056 7.92885 32.0007 7.92885Z" fill="#FDB41F"/>
<path d="M47.4177 18.502C46.8218 17.8212 46.1788 17.1795 45.4966 16.5823L41.3323 20.748L43.279 22.6407L47.4177 18.502Z" fill="#FDB41F"/>
<path d="M33.3568 11.5526C32.9079 11.523 32.4563 11.5027 32.0006 11.5027C31.5436 11.5027 31.092 11.523 30.6418 11.5526V18.1408H33.3568V11.5526Z" fill="#FDB41F"/>
<path d="M20.5027 18.5829L18.5021 16.5823C17.8186 17.1795 17.1782 17.8212 16.5824 18.502L20.5027 22.4237V18.5829Z" fill="#FDB41F"/>
<path d="M18.5021 47.4191L20.5013 45.4185V41.579L16.5824 45.4993C17.1782 46.1801 17.8199 46.8218 18.5021 47.4191Z" fill="#FDB41F"/>
<path d="M22.2309 30.6432H11.5526C11.5229 31.0921 11.5027 31.5437 11.5027 32.0007C11.5027 32.4577 11.5243 32.9107 11.5526 33.3583H22.2309V30.6432Z" fill="#FDB41F"/>
<path d="M42.0926 32.0007L43.4879 33.3583H52.4488C52.4771 32.9094 52.4973 32.4564 52.4973 32.0007C52.4973 31.5437 52.4771 31.0921 52.4488 30.6432H43.4879L42.0926 32.0007Z" fill="#FDB41F"/>
<path d="M41.3323 43.2533L45.4966 47.419C46.1788 46.8218 46.8191 46.1801 47.4177 45.4993L43.279 41.3606L41.3323 43.2533Z" fill="#FDB41F"/>
<path d="M30.6418 52.4475C31.092 52.4771 31.5436 52.4973 32.0006 52.4973C32.4577 52.4973 32.9079 52.4758 33.3568 52.4475V45.8606H30.6418V52.4475Z" fill="#FDB41F"/>
<path d="M37.6088 38.6847V35.4546L35.9102 33.8032H27.8539V40.3361H35.9102L37.6088 38.6847ZM28.7234 39.4679V34.6713H35.5597L36.742 35.8213V38.318L35.5597 39.4679H28.7234Z" fill="#FDB41F"/>
<path d="M37.6088 28.5455V25.3168L35.9102 23.664H27.8539V30.1969H35.9102L37.6088 28.5455ZM28.7234 29.3301V24.5335H35.5597L36.742 25.6848V28.1815L35.5597 29.3315H28.7234V29.3301Z" fill="#FDB41F"/>
<path d="M23.2811 39.3749L21.5529 41.056V44.8105H38.2263L42.4472 40.7028V33.8139L40.5841 32.0007L42.4472 30.1889V23.2987L38.2276 19.1923H21.5542V22.9468L23.2825 24.6279V39.3749H23.2811ZM22.421 22.5788V20.0605H37.8744L41.579 23.6654V29.8222L39.3398 32.0007L41.579 34.1806V40.3374L37.8744 43.9436H22.421V41.4227L24.1493 39.7429V24.2599L22.421 22.5788Z" fill="#FDB41F"/>
<path d="M32.0007 56.0712C45.2944 56.0712 56.0725 45.2944 56.0725 31.9993C56.0725 18.7056 45.2944 7.92749 32.0007 7.92749C18.707 7.92749 7.92883 18.7056 7.92883 31.9993C7.92749 45.2944 18.7056 56.0712 32.0007 56.0712ZM16.5823 45.4993L20.5013 41.579V45.4198L18.502 47.4204C17.8199 46.8218 17.1782 46.1801 16.5823 45.4993ZM21.5542 22.9454V19.1923H38.2276L42.4472 23.2986V30.1875L40.5841 31.9993L42.4472 33.8125V40.7027L38.2276 44.8091H21.5542V41.0546L23.2824 39.3735V24.6279L21.5542 22.9454ZM19.3675 48.1362L21.6418 45.8606H29.5228V52.345C25.7185 51.8853 22.2363 50.3849 19.3675 48.1362ZM32.0007 52.4974C31.5437 52.4974 31.092 52.4758 30.6418 52.4475V45.8606H33.3569V52.4475C32.9079 52.4771 32.4563 52.4974 32.0007 52.4974ZM34.4771 52.345V45.8606H38.6536L40.5301 44.0339L44.6324 48.1362C41.7637 50.3849 38.2815 51.8853 34.4771 52.345ZM45.4979 47.419L41.3336 43.2534L43.2803 41.3606L47.419 45.4993C46.8204 46.1801 46.1801 46.8218 45.4979 47.419ZM48.1348 44.6338L43.4973 39.9963V34.4772H52.3436C51.8839 38.2815 50.3835 41.7651 48.1348 44.6338ZM52.4973 32.0007C52.4973 32.4577 52.4771 32.9107 52.4488 33.3582H43.4879L42.0926 32.0007L43.4879 30.6431H52.4488C52.4771 31.0921 52.4973 31.5437 52.4973 32.0007ZM52.3436 29.5242H43.4973V24.0051L48.1348 19.3676C50.3835 22.2363 51.8839 25.7185 52.3436 29.5242ZM47.4176 18.5021L43.2789 22.6408L41.3323 20.748L45.4966 16.5824C46.1801 17.1796 46.8218 17.8213 47.4176 18.5021ZM44.6324 15.8652L40.5301 19.9675L38.6536 18.1408H34.4771V11.6577C38.2815 12.1161 41.7637 13.6152 44.6324 15.8652ZM32.0007 11.504C32.4577 11.504 32.9079 11.5242 33.3569 11.5539V18.1421H30.6418V11.5526C31.092 11.5229 31.5437 11.504 32.0007 11.504ZM29.5228 11.6577V18.1408H21.6431L19.3675 15.8652C22.2363 13.6152 25.7185 12.1161 29.5228 11.6577ZM18.502 16.5824L20.5026 18.583V22.4237L16.5823 18.5021C17.1782 17.8213 17.8186 17.1796 18.502 16.5824ZM15.8651 19.3676L22.2309 25.7333V29.5242H11.6564C12.1147 25.7185 13.6152 22.2363 15.8651 19.3676ZM11.5027 32.0007C11.5027 31.5437 11.5242 31.0921 11.5525 30.6431H22.2309V33.3582H11.5525C11.5229 32.9093 11.5027 32.4564 11.5027 32.0007ZM22.2309 34.4772V38.2681L15.8651 44.6338C13.6165 41.7651 12.1161 38.2815 11.6577 34.4772H22.2309Z" fill="black"/>
<path d="M36.7406 25.6835L35.5583 24.5322H28.7221V29.3287H35.5583L36.7406 28.1788V25.6835ZM35.6891 27.7366L35.131 28.2799H29.7723V25.585H35.131L35.6891 26.127V27.7366Z" fill="black"/>
<path d="M36.7406 35.8213L35.5583 34.6713H28.7221V39.4679H35.5583L36.7406 38.318V35.8213ZM35.6891 37.8744L35.131 38.4164H29.7723V35.7215H35.131L35.6891 36.2648V37.8744Z" fill="black"/>
<path d="M22.421 41.4213V43.9423H37.8744L41.579 40.3361V34.1792L39.3398 31.9994L41.579 29.8208V23.664L37.8744 20.0591H22.421V22.5788L24.1493 24.2599V39.7415L22.421 41.4213ZM27.8539 23.6653H35.9102L37.6088 25.3181V28.5468L35.9102 30.1996H27.8539V23.6653ZM27.8539 33.8031H35.9102L37.6088 35.4546V38.6846L35.9102 40.3361H27.8539V33.8031Z" fill="black"/>
</g>
<defs>
<clipPath id="clip0_33_1949">
<rect width="50" height="50.0014" fill="white" transform="translate(7 7)"/>
</clipPath>
</defs>
</svg>
