<svg width="75" height="64" viewBox="0 0 75 64" fill="none" xmlns="http://www.w3.org/2000/svg">
<path d="M52.4645 44.6562C51.8175 44.6562 51.2922 45.1808 51.2922 45.8283C51.2922 46.475 51.8175 47.0002 52.4645 47.0002C53.1115 47.0002 53.636 46.475 53.636 45.8283C53.636 45.1808 53.1115 44.6562 52.4645 44.6562ZM52.4645 46.7487C52.3436 46.7489 52.2239 46.7251 52.1121 46.6789C52.0004 46.6327 51.8989 46.5649 51.8134 46.4794C51.7279 46.3939 51.6601 46.2924 51.6139 46.1807C51.5677 46.0689 51.5439 45.9492 51.544 45.8283C51.544 45.3197 51.9553 44.9084 52.4645 44.9084C52.9731 44.9084 53.3848 45.3197 53.3848 45.8283C53.3848 46.337 52.9731 46.7487 52.4645 46.7487ZM52.9461 45.5566C52.946 45.5045 52.9357 45.4528 52.9157 45.4046C52.8957 45.3564 52.8664 45.3126 52.8295 45.2757C52.7926 45.2389 52.7487 45.2096 52.7005 45.1897C52.6523 45.1698 52.6006 45.1596 52.5484 45.1596H51.9837V46.4973H52.2347V45.954H52.4149L52.6685 46.4973H52.9461L52.6813 45.9309C52.7586 45.9034 52.8256 45.8527 52.873 45.7857C52.9204 45.7187 52.9459 45.6387 52.9461 45.5566ZM52.5484 45.7029H52.2347V45.4102H52.5484C52.629 45.4102 52.695 45.4757 52.695 45.5566C52.6949 45.5955 52.6794 45.6326 52.6519 45.6601C52.6245 45.6875 52.5872 45.7029 52.5484 45.7029Z" fill="#A2AAAD"/>
<path d="M53.8399 43.1298L64.2422 19.1906C64.2422 19.1906 56.7139 23.6489 48.1129 27.0563L62.8925 16.068L53.5898 17.6688C52.2585 16.8714 47.6312 14.4732 40.157 14.4732C40.157 14.4732 39.5019 14.4887 38.9427 14.5021C38.6683 13.6953 37.3673 9.875 37.3673 9.875L34.9822 14.8199C21.3608 16.5715 10.7578 24.6164 10.7578 33.2973C10.7578 37.1767 12.4227 42.279 20.0877 45.0345L16.221 54.5909L26.4508 46.5238C28.6489 46.8205 31.0831 46.9756 33.7124 46.9756C36.7894 46.9756 39.8154 46.7428 42.7208 46.2962L53.9144 56.125L50.0949 44.6C50.0949 44.6 52.3468 43.873 53.8399 43.1298Z" fill="#A2AAAD"/>
<path d="M62.3209 21.3523C62.3209 21.3523 53.5479 26.4607 43.7778 29.8348L43.4342 28.8876L60.1898 17.2663L41.5652 22.036L51.9877 17.8374C51.9877 17.8374 47.5743 15.3743 40.157 15.3743C39.5373 15.3743 38.9188 15.3893 38.3022 15.4182L37.223 12.2485L31.4241 24.2714L22.5773 26.7841L30.7882 23.4155L33.481 17.9264L34.0452 16.7769L34.5355 15.7782C22.1748 17.5485 11.6588 24.9171 11.6588 33.2974C11.6588 37.9943 14.2421 42.2973 21.3191 44.51L17.6631 52.4767L26.181 45.583C28.3868 45.9025 30.8878 46.0753 33.7123 46.0753C37.2512 46.0753 40.3658 45.7739 43.0087 45.3457L52.454 53.7399L48.9243 44.0176C51.6716 43.2093 53.1437 42.4707 53.1437 42.4707L62.321 21.3522L62.3209 21.3523Z" fill="#041E42"/>
<path d="M26.7896 32.5925L27.5199 31.0005L23.2431 29.8239C23.2431 29.8239 22.0264 31.9981 26.7896 32.5925Z" fill="#A2AAAD"/>
<path d="M52.9243 20.7214L39.2986 24.0225L36.8986 16.52L33.097 25.594L22.7595 28.1811L29.9958 29.9521L28.6075 32.7268C28.7326 32.7298 28.8605 32.7332 28.9906 32.7357C29.1645 32.7385 29.342 32.7408 29.5263 32.7408C30.0259 32.7408 30.5327 32.7248 31.048 32.6935C32.3096 32.6175 33.6168 32.4514 34.9484 32.2142C35.9607 32.0336 36.9874 31.8116 38.0187 31.5564C39.38 31.2204 40.7507 30.8246 42.111 30.3894L41.327 28.3031L52.9243 20.7214ZM47.5593 44.8744C47.1935 45.0103 46.8941 45.1363 46.652 45.3353C46.4238 45.5237 46.247 45.7779 46.1181 46.1686C46.069 46.3211 46.0294 46.4765 45.9995 46.6339L49.1584 49.1261L47.5593 44.8745V44.8744ZM23.0634 45.0516C22.9645 45.0179 22.8628 44.9927 22.7595 44.9764C22.6702 44.9631 22.5801 44.9551 22.4898 44.9526L20.7714 48.3859L23.9995 45.9807C23.7946 45.6057 23.5564 45.2272 23.0634 45.0516Z" fill="#A2AAAD"/>
<path d="M38.9024 40.1767C34.9036 39.4206 32.5113 38.647 32.5113 38.647C32.5113 38.647 34.3573 37.9319 37.0856 36.68C39.521 35.5622 42.6602 34.0171 45.8138 32.171C48.3502 30.6875 50.8966 29.0108 53.0951 27.2049C53.0951 27.2049 40.2977 34.187 29.6684 34.187C22.5282 34.187 19.2237 30.8753 19.2237 28.6539C19.2237 22.0354 30.8735 18.6108 33.481 17.9264L34.0452 16.7768C22.8518 18.9802 18.6893 23.3776 18.6893 23.3776C18.6893 23.3776 14.9477 25.6407 13.5311 29.8404C13.1998 30.8211 12.9959 31.9068 12.9959 33.0943C12.9959 38.1547 16.3123 44.7725 33.3161 44.7725C45.3755 44.7725 51.795 41.5736 51.795 41.5736C49.8313 41.5158 47.8703 41.3876 45.9158 41.1893C43.2488 40.9197 40.8788 40.5503 38.9025 40.1767H38.9024ZM48.9337 17.7493C48.9337 17.7493 45.4277 16.0426 38.5913 16.2678L38.9061 17.1922C39.662 17.1049 43.7786 16.7135 48.9337 17.7493Z" fill="#C8102E"/>
<path d="M27.5191 37.9164C31.7319 37.9164 35.2562 37.1635 37.0856 36.6801C39.521 35.5622 42.6602 34.0171 45.8138 32.171C43.1638 33.1758 34.7773 36.1653 28.8366 36.1653C19.8247 36.1653 17.0089 30.945 17.0089 27.9991C17.0089 25.3652 18.6894 23.3777 18.6894 23.3777C18.6894 23.3777 15.5842 25.5468 15.5842 29.1601C15.5842 35.1043 21.5227 37.9164 27.5191 37.9164Z" fill="white"/>
<path d="M30.9853 40.6987C14.239 40.6987 13.4947 31.7781 13.5311 29.8405C13.1999 30.8212 12.9959 31.9069 12.9959 33.0944C12.9959 33.0944 13.17 42.9646 32.3024 42.9646C38.5313 42.9646 44.1385 41.6512 45.9158 41.1894C43.2488 40.9197 40.8788 40.5504 38.9025 40.1767C37.5744 40.3857 34.9322 40.6987 30.9853 40.6987ZM52.0583 33.543C51.5134 32.4002 49.925 32.2021 48.508 33.0969C47.0917 33.9953 46.3814 35.646 46.9252 36.7888C47.4665 37.9326 49.0534 38.1303 50.4715 37.2342C51.8901 36.335 52.5957 34.6853 52.0583 33.543Z" fill="white"/>
<path d="M37.8823 37.8016L37.8714 37.4003L37.5183 37.8417L36.966 37.9137L37.3097 38.0991L36.966 38.5466L37.5536 38.2391L37.9605 38.5302L37.8874 38.0516L38.4339 37.7404L37.8823 37.8016ZM42.1326 35.7879L42.1198 35.378L41.7534 35.8339L41.1776 35.9068L41.531 36.1027L41.1763 36.5654L41.7909 36.2455L42.2092 36.5503L42.1393 36.0508L42.7039 35.7269L42.1326 35.7879ZM45.2231 36.1185L45.2115 35.7418L44.8786 36.1559L44.3575 36.2235L44.6803 36.4027L44.3575 36.823L44.9106 36.5323L45.2941 36.807L45.2301 36.3562L45.7404 36.0612L45.2231 36.1185ZM40.9581 38.4357V38.063L40.6174 38.4714L40.0955 38.523L40.414 38.7095L40.0785 39.1267L40.6406 38.848L41.0179 39.1322L40.9628 38.6757L41.4819 38.3913L40.9581 38.4357ZM44.0176 38.8667L44.0143 38.4899L43.6719 38.9011L43.1486 38.9535L43.4674 39.1392L43.1376 39.5545L43.6958 39.273L44.0728 39.5587L44.0185 39.1054L44.5378 38.8177L44.0176 38.8667ZM46.5432 33.1287L46.5269 32.6518L46.1074 33.1801L45.4419 33.2631L45.8518 33.4909L45.4419 34.0223L46.1466 33.6535L46.6339 34.0059L46.5479 33.4295L47.2031 33.054L46.5432 33.1287ZM50.7116 30.6545L50.3317 31.3476L51.1257 30.822L51.8386 31.1884L51.5802 30.5042L52.31 29.9736L51.4907 30.1387L51.3459 29.565L50.9506 30.2533L50.1304 30.4291L50.7116 30.6545ZM57.3522 27.2334L56.3704 27.3448L56.2867 26.6188L55.7203 27.4229L54.7351 27.5529L55.3845 27.8957L54.8386 28.713L55.8483 28.149L56.6261 28.6826L56.4243 27.8088L57.3522 27.2334ZM52.1547 39.2298L52.1511 38.6526L51.6237 39.2807L50.8177 39.3656L51.3113 39.648L50.7953 40.2888L51.6558 39.8591L52.2397 40.294L52.1555 39.5959L52.9572 39.1574L52.1547 39.2298ZM53.6926 35.4291L53.679 34.9011L53.205 35.4876L52.4658 35.5848L52.9277 35.8339L52.4641 36.4282L53.2519 36.0202L53.7962 36.4106L53.7022 35.769L54.4264 35.3493L53.6926 35.4291ZM55.0179 31.691L55.0012 31.1137L54.4883 31.7527L53.6853 31.8559L54.1839 32.1273L53.6853 32.7762L54.5384 32.3302L55.1272 32.7562L55.0287 32.0591L55.816 31.6029L55.0179 31.691ZM47.8839 38.8095L47.4895 39.2837L46.8864 39.3435L47.2517 39.5574L46.8685 40.0363L47.5155 39.7137L47.9541 40.0404L47.8886 39.5189L48.4855 39.1914L47.8865 39.2422L47.8839 38.8095ZM36.8986 17.7969L34.9484 26.6564L38.772 24.1755L36.8986 17.7969ZM50.7082 21.8737L34.9484 26.6564C34.9484 26.6564 40.739 27.9202 40.9151 27.9447C41.0934 27.9705 50.7082 21.8737 50.7082 21.8737Z" fill="white"/>
<path d="M38.0187 31.5564L34.9484 26.6564V32.2142C35.9607 32.0335 36.9874 31.8115 38.0187 31.5564ZM28.9906 32.7357C29.1645 32.7384 29.342 32.7407 29.5263 32.7407C30.0259 32.7407 30.5327 32.7247 31.0481 32.6934L34.9484 26.6564L30.3699 30.0266L28.9906 32.7357Z" fill="white"/>
<path d="M33.2945 25.7496L24.8 28.0431L34.9484 26.6564L33.2945 25.7496ZM46.1181 46.1685L48.2127 47.8263L46.6521 45.3353C46.4237 45.5237 46.247 45.7779 46.1181 46.1685ZM21.4512 47.5478L23.0634 45.0516C22.9645 45.0178 22.8628 44.9927 22.7595 44.9764L21.4512 47.5478V47.5478Z" fill="white"/>
<path d="M48.7206 33.4263C47.567 34.1536 46.9615 35.5161 47.3678 36.4677C47.7709 37.418 49.0347 37.5972 50.1871 36.8685C51.3395 36.1394 51.9418 34.7778 51.5393 33.8302C51.1291 32.877 49.8721 32.6994 48.7206 33.4263Z" fill="#C8102E"/>
</svg>
