<svg width="75" height="64" viewBox="0 0 75 64" fill="none" xmlns="http://www.w3.org/2000/svg">
<path d="M46.715 53.6846C46.0681 53.6846 45.5428 54.209 45.5428 54.8564C45.5428 55.5032 46.0681 56.0284 46.715 56.0284C47.3621 56.0284 47.8865 55.5032 47.8865 54.8565C47.8865 54.209 47.3621 53.6846 46.715 53.6846ZM46.715 55.777C46.5941 55.7771 46.4744 55.7534 46.3626 55.7071C46.2509 55.6609 46.1494 55.5931 46.0639 55.5076C45.9784 55.4221 45.9106 55.3206 45.8644 55.2088C45.8182 55.0971 45.7944 54.9774 45.7946 54.8564C45.7946 54.3479 46.2058 53.9366 46.715 53.9366C47.2236 53.9366 47.6353 54.3479 47.6353 54.8564C47.6353 55.3653 47.2236 55.777 46.715 55.777ZM47.1966 54.5848C47.1966 54.5326 47.1862 54.481 47.1662 54.4328C47.1462 54.3846 47.1169 54.3408 47.08 54.3039C47.0431 54.267 46.9993 54.2378 46.951 54.2179C46.9028 54.198 46.8511 54.1877 46.7989 54.1878H46.2342V55.5255H46.4853V54.9822H46.6654L46.919 55.5255H47.1966L46.9318 54.959C47.0092 54.9316 47.0761 54.8809 47.1235 54.8139C47.1709 54.7469 47.1964 54.6669 47.1966 54.5848ZM46.7989 54.7311H46.4853V54.4383H46.7989C46.8378 54.4384 46.875 54.4538 46.9025 54.4813C46.93 54.5088 46.9455 54.546 46.9456 54.5849C46.9454 54.6237 46.9299 54.6609 46.9024 54.6882C46.8749 54.7156 46.8377 54.731 46.7989 54.7311Z" fill="#010101"/>
<path d="M47.9909 37.3879C48.2577 36.9294 48.5009 36.4652 48.7142 36.0023L67.9263 25.7132H47.7108C46.1952 24.1248 44.0036 23.1575 41.3092 22.8845L39.7074 7L30.1638 22.8033H25.0269L23.2875 25.7133H7.07376L18.0196 34.5316L11.2241 45.9051H16.2108L9.50907 57L30.2267 45.9039C30.8406 45.8994 31.4544 45.8818 32.0675 45.8509L44.6433 55.9841L43.2941 42.5858C45.1738 41.2816 46.714 39.5753 47.9908 37.3879H47.9909Z" fill="#00843D"/>
<path d="M47.9035 35.2474L63.7466 26.7623H47.2427C45.7577 24.9911 43.388 23.9967 40.3543 23.8668L38.9792 10.2343L30.756 23.8513H25.6213L23.8831 26.7623H10.0472L19.3881 34.2867L13.0726 44.8546H18.0692L12.3831 54.2706L29.9627 44.8546C30.7796 44.8545 31.5964 44.8303 32.4119 44.7822L43.3489 53.5927L42.1875 42.0607C44.1703 40.8076 45.7748 39.1032 47.0842 36.8595C47.3969 36.3238 47.6726 35.7828 47.9035 35.2474Z" fill="#010101"/>
<path d="M46.539 29.8342C46.539 29.8342 46.3798 29.3149 46.1482 28.8597L42.9284 30.4325C43.1378 30.9795 43.4378 32.2868 42.6383 34.2297C41.7262 36.4425 39.0107 40.3563 31.6041 40.3563H21.6665L16.7709 42.7567H25.5428L24.419 43.0606L18.1301 48.8126L29.4368 42.7567H29.9085C31.0466 42.7567 32.1025 42.7133 33.0848 42.6291L35.0743 42.389C35.4593 42.3265 35.8307 42.2562 36.1908 42.1795C39.887 41.3901 42.2705 39.8198 44.008 37.6552C44.4704 37.0784 44.8886 36.4603 45.2721 35.8022C45.8118 34.8757 46.1925 33.99 46.429 33.1536C46.7754 31.9243 46.8052 30.8033 46.5389 29.8342H46.539ZM23.6488 31.2437L15.9958 28.8602L15.9953 28.8597L22.1239 33.7972L23.6488 31.2437ZM35.3323 25.9497H38.4555L37.5228 16.7043L35.3323 25.9497ZM47.2421 30.8939C47.3173 31.0407 47.3859 31.1908 47.4477 31.3436C47.4605 31.3751 47.471 31.4077 47.4831 31.4392C47.5293 31.5583 47.5715 31.679 47.6096 31.801C47.6229 31.8463 47.635 31.8911 47.6489 31.9365C47.6822 32.0577 47.7124 32.1799 47.7395 32.3027C47.7478 32.3436 47.7577 32.3834 47.7661 32.4248C47.7994 32.5945 47.8267 32.7653 47.8478 32.9369L47.8483 32.9365L52.7461 30.2878L55.3853 28.8597L47.2421 30.8939ZM40.0898 42.3695C39.866 42.3935 39.6434 42.4117 39.4223 42.4265C39.4063 42.4275 39.3897 42.4287 39.3737 42.4293C39.1593 42.4442 38.9456 42.4542 38.7356 42.4617C38.7173 42.463 38.6996 42.4635 38.6814 42.4639C38.4687 42.4712 38.26 42.4756 38.0555 42.4772H38.0284C37.8184 42.4785 37.6125 42.4779 37.4136 42.475V42.4756L40.7588 48.8126L40.0898 42.3695Z" fill="#8D9093"/>
<path d="M38.046 28.201H28.939L28.9213 28.1921L21.6666 40.3562L26.576 37.9584L29.3771 33.3844L30.2346 31.9845L29.6003 31.4739L28.3329 30.4524L28.3324 30.4519H35.9307C36.075 30.4519 36.2135 30.4535 36.35 30.4575C36.361 30.4575 36.3716 30.458 36.3814 30.4585C36.5025 30.4617 36.6213 30.4667 36.7367 30.4734C36.7738 30.4757 36.8086 30.4784 36.8467 30.4812C36.9323 30.4867 37.0169 30.4922 37.0998 30.4999C37.1472 30.5044 37.1931 30.5104 37.24 30.5148C37.3069 30.5226 37.3748 30.5303 37.4406 30.5381C37.4925 30.5453 37.5428 30.5535 37.5937 30.5612C37.65 30.5696 37.7053 30.5784 37.7583 30.5883C37.8125 30.5977 37.8633 30.6082 37.9147 30.6192C37.9614 30.6289 38.008 30.639 38.0545 30.6497C38.1081 30.6623 38.1595 30.6767 38.2092 30.6906C38.2489 30.7016 38.2898 30.7126 38.3274 30.7242C38.378 30.74 38.4283 30.757 38.4782 30.7751C38.5609 30.8044 38.6423 30.837 38.7224 30.8728L38.8059 30.9121C38.8756 30.9478 38.9439 30.9861 39.0107 31.027C39.0539 31.0546 39.0959 31.0823 39.1367 31.1121C39.1561 31.1259 39.1742 31.1403 39.1926 31.1546C39.2335 31.1867 39.2715 31.2192 39.3085 31.254C39.3235 31.2678 39.3368 31.2823 39.3512 31.2967C39.3882 31.3342 39.4241 31.3717 39.456 31.4121C39.4671 31.4248 39.4765 31.4381 39.4865 31.4513C39.5201 31.4945 39.5521 31.5386 39.581 31.5861C39.5865 31.5955 39.5926 31.6065 39.5982 31.6165C39.6289 31.6681 39.6568 31.7214 39.6815 31.7762C39.6838 31.7807 39.6843 31.7856 39.6871 31.79C39.7135 31.8513 39.7368 31.9149 39.7566 31.9817L39.7571 31.9812L42.9285 30.4325C42.0594 28.4238 39.5904 28.201 38.0462 28.201H38.046Z" fill="#8D9093"/>
<path d="M33.0848 42.6298L40.7588 48.8126L37.4135 42.4757C36.4224 42.4617 35.5863 42.4036 35.0742 42.389L33.0847 42.6291M21.0578 43.9674L18.1301 48.8127L24.419 43.0606M26.5759 37.9584L21.6665 40.3562H31.6041C39.0106 40.3562 41.7263 36.4426 42.6383 34.2297C43.4378 32.2868 43.1378 30.9795 42.9284 30.4326L39.757 31.9812C39.7753 32.0431 39.7919 32.1049 39.8051 32.1719C40.0858 33.6464 38.8803 35.7542 36.8393 36.9479C35.2267 37.8911 33.2863 37.9584 31.6101 37.9584H26.5757" fill="white"/>
<path d="M28.9212 28.1922L28.9389 28.2011H38.0461C39.5903 28.2011 42.0594 28.4237 42.9284 30.4325L46.1482 28.8597C46.3798 29.315 46.5389 29.8342 46.5389 29.8342C46.8217 30.18 47.0526 30.5309 47.2422 30.8939L55.3853 28.8597H46.1482C45.1581 27.0414 42.9101 25.9497 39.6731 25.9497H35.3323L37.5228 16.7043V16.7038L31.9388 25.9497H26.8124L25.0732 28.8597H15.9958V28.8602L23.6488 31.2436L22.124 33.7972L16.7709 42.7567L21.6666 40.3562L28.9212 28.1922H28.9212Z" fill="white"/>
</svg>
