<svg width="64" height="64" viewBox="0 0 64 64" fill="none" xmlns="http://www.w3.org/2000/svg">
<g clip-path="url(#clip0_33_1932)">
<path d="M31.9103 5.98749C16.7229 5.98749 4.41028 17.8659 4.41028 32.5159C4.41028 47.1658 16.7229 59.0442 31.9103 59.0442C47.0977 59.0442 59.4103 47.1658 59.4103 32.5159C59.4103 17.8659 47.0981 5.98749 31.9103 5.98749ZM53.1461 51.54C52.3936 51.54 51.7835 52.1501 51.7835 52.9029C51.7835 53.6556 52.3969 54.2657 53.1463 54.2657C53.9024 54.2657 54.5127 53.6522 54.5127 52.9029C54.5126 52.7236 54.4771 52.5462 54.4084 52.3806C54.3396 52.2151 54.2389 52.0648 54.112 51.9382C53.9851 51.8116 53.8345 51.7113 53.6688 51.643C53.5031 51.5747 53.3253 51.5397 53.1461 51.54ZM53.1461 53.9775C52.5561 53.9775 52.0753 53.4967 52.0753 52.9064C52.0753 52.3162 52.559 51.8354 53.1459 51.8354C53.7394 51.8354 54.2169 52.3162 54.2169 52.9064C54.2169 53.4967 53.7392 53.9775 53.1456 53.9775H53.1461Z" fill="white"/>
<path d="M53.7067 52.5879C53.7068 52.5269 53.6949 52.4665 53.6716 52.4101C53.6483 52.3537 53.6141 52.3025 53.5709 52.2593C53.5278 52.2162 53.4766 52.182 53.4202 52.1587C53.3638 52.1354 53.3034 52.1235 53.2424 52.1236H52.5857V53.6821H52.8804V53.052H53.0892L53.3841 53.6821H53.7058L53.3973 53.0255C53.4875 52.9932 53.5657 52.9339 53.6209 52.8556C53.6762 52.7772 53.7059 52.6838 53.706 52.5879H53.7067ZM53.2457 52.7573H52.8842V52.4123H53.2457C53.2684 52.4121 53.2909 52.4165 53.3119 52.4251C53.3329 52.4338 53.3519 52.4465 53.368 52.4625C53.384 52.4786 53.3967 52.4976 53.4053 52.5186C53.414 52.5396 53.4183 52.5621 53.4182 52.5848C53.4182 52.6806 53.342 52.7564 53.2457 52.7564V52.7573Z" fill="white"/>
<path d="M31.9103 7.94055C17.8037 7.94055 6.37024 18.9434 6.37024 32.5159C6.37024 46.0883 17.8037 57.0912 31.9103 57.0912C46.0168 57.0912 57.4503 46.0888 57.4503 32.5159C57.4503 18.943 46.017 7.94055 31.9103 7.94055Z" fill="#F47D30"/>
<path d="M55.8024 31.0634C55.7757 30.6589 55.7527 30.2543 55.7066 29.8564L55.7164 29.8531C54.9935 23.8443 51.8631 18.5453 47.2707 14.8612C46.7693 14.4596 46.2515 14.079 45.7186 13.7204C41.8127 11.0774 37.0544 9.51557 31.911 9.51557C28.8399 9.51354 25.7951 10.0814 22.9312 11.1902C20.6406 12.0771 18.4981 13.3071 16.5774 14.8382C11.3013 19.0562 7.93884 25.4095 7.93884 32.5159C7.93884 45.2197 18.6693 55.5159 31.9108 55.5159C45.1522 55.5159 55.8827 45.2194 55.8827 32.5156C55.8827 32.0282 55.8593 31.5407 55.8292 31.0565" fill="#00539B"/>
<path d="M29.5526 45.5181L32.8255 44.7389C32.9692 44.7045 33.1032 44.638 33.2174 44.5443C33.3317 44.4507 33.4233 44.3324 33.4853 44.1983L35.5175 39.874L37.3147 36.0508L38.5786 33.3548L39.2018 32.0286L40.4884 29.2958L47.2664 14.8679C46.7652 14.4662 46.2474 14.0856 45.7145 13.7271L41.4667 22.3489L36.3699 11.3694C36.3106 11.2368 36.1813 11.1572 36.0355 11.1572H27.1914C26.9859 11.1572 26.8237 11.3231 26.8237 11.525V18.7145L22.9302 11.1904C20.6396 12.0768 18.4972 13.3068 16.5767 14.838V28.2183C16.5767 28.4238 16.7425 28.5861 16.9444 28.5861H21.9686C22.1706 28.5861 22.3364 28.4205 22.3364 28.2183V22.2392L26.0339 28.4073C26.1037 28.5201 26.2198 28.5897 26.3527 28.5897H31.9832C32.1887 28.5897 32.3509 28.4238 32.3509 28.2219V16.6154L38.1441 29.0934L37.4514 30.4999L33.379 38.7829L32.6795 40.199C32.5368 40.4942 32.2551 40.6932 31.9301 40.7396L20.9241 42.2553C20.8283 42.2682 20.7385 42.3215 20.6789 42.398C20.6495 42.4375 20.6282 42.4825 20.6163 42.5303C20.6043 42.5781 20.6019 42.6278 20.6092 42.6766L21.279 47.0766C21.2955 47.1792 21.3519 47.2724 21.4381 47.3285C21.5244 47.3851 21.6305 47.4016 21.7301 47.382L22.8208 47.1235" fill="white"/>
<path d="M35.7736 39.3371L33.6413 38.2493L33.379 38.7832L35.5211 39.8745L35.773 39.3373H35.7734L35.7736 39.3371ZM36.6157 37.5398L34.5167 36.4655L34.2548 37.0026L36.3679 38.077L36.6162 37.5398H36.6157ZM33.817 37.8914L35.9426 38.9724L36.1945 38.4352L34.0791 37.3575L33.817 37.8914ZM26.1269 46.334L25.9348 45.1169C25.9296 45.0852 25.9152 45.0557 25.8934 45.0322C25.8716 45.0086 25.8434 44.9919 25.8122 44.9843L23.6701 44.464C23.6283 44.4533 23.584 44.4595 23.5468 44.4812C23.5095 44.5029 23.4823 44.5384 23.471 44.58L22.8246 47.1204L21.6967 51.5175C21.6771 51.6 21.7235 51.6865 21.8064 51.713L23.0665 52.1243C23.1097 52.1367 23.156 52.1319 23.1957 52.1109C23.215 52.1002 23.2317 52.0855 23.2449 52.0678C23.258 52.0501 23.2673 52.0299 23.272 52.0084L23.5996 50.7216L25.3242 51.2815L25.573 52.8467C25.583 52.9064 25.626 52.9559 25.6822 52.976L26.9989 53.4039C27.0555 53.4236 27.1119 53.4106 27.1583 53.3739C27.2013 53.3337 27.2247 53.2807 27.2147 53.2212L26.1269 46.3335V46.334Z" fill="#F47D30"/>
<path d="M37.4547 30.5C35.9791 30.2677 34.142 31.2458 32.8487 30.5595C31.3631 30.5131 29.6289 30.6125 28.3156 29.9162C27.4567 29.7802 26.5413 29.7907 25.7622 29.4788C25.345 30.2612 24.8706 29.2234 24.3735 29.3763C24.0749 29.469 23.823 29.7972 23.8825 30.152C23.7265 30.9611 22.745 30.4902 22.2375 30.8285C21.3093 31.3557 20.792 30.0227 19.9033 30.0359C19.2965 29.87 18.577 29.9463 18.2386 30.563C17.7179 30.6959 17.4527 30.016 16.8589 30.2349C16.4478 29.9795 17.0448 29.807 16.889 29.4953C16.5511 29.1276 15.9209 28.8556 15.4435 29.167C15.3572 29.8 16.037 30.3473 15.6753 31.0171C15.324 31.0866 15.3438 30.5728 15.0422 30.45C14.7072 30.2873 14.6907 30.7019 14.5084 30.8646C13.8453 30.8348 13.9846 30.0956 13.7721 29.6908C13.0031 29.5714 12.3857 30.0423 11.7491 30.321C11.3048 30.6625 11.5966 31.3887 11.2152 31.7435C10.9166 31.5177 10.9464 31.0904 10.6513 30.8252C10.4025 30.6589 10.1041 30.5428 9.7958 30.6491C9.51049 30.7186 9.43114 30.9576 9.3714 31.2063C9.37809 31.3557 9.52743 31.4716 9.6897 31.4283C9.87872 31.4747 10.0278 31.6969 9.93846 31.886C9.84261 32.0219 9.77574 32.2903 9.54392 32.2404C9.29205 32.0019 8.93384 31.6631 8.57876 31.8093C8.42986 31.9419 8.57876 32.1242 8.57876 32.2669C8.41649 32.8139 8.81437 33.1289 9.10927 33.5136C9.2089 33.9416 9.25192 34.5581 8.92716 34.8699C8.48938 34.9562 8.37659 35.4437 8.33691 35.8117C8.43945 36.1831 8.84736 36.1565 9.00005 36.4648C9.07628 36.7171 8.80099 36.9093 8.57564 37.0519C8.66292 37.4718 8.76358 37.8889 8.87745 38.3024C9.14605 38.1961 9.4512 38.0967 9.62684 38.1232C9.77619 38.1961 9.8756 38.3287 9.8756 38.478C10.0216 38.76 10.3198 39.0384 10.658 38.8759C10.9997 38.7297 11.3082 38.2589 11.6762 38.4513V42.6927L12.8003 44.3042C13.0789 44.7121 13.2612 44.6127 13.2612 44.2641V38.355C13.8515 38.3385 14.5213 38.4014 15.0652 38.1825C16.1431 38.2583 17.4297 38.5569 18.3648 37.944C19.1904 37.7946 19.9599 37.516 20.8486 37.5191C21.4553 37.4728 21.9827 37.7414 22.5498 37.7015C23.4351 36.7002 24.6919 37.8874 25.7395 37.2507C26.5553 36.8362 27.2485 37.5624 28.1207 37.4297C28.6682 37.4231 29.4972 36.8132 29.9708 37.5427C30.3691 37.7385 30.9329 37.6653 31.2748 37.4135C31.4834 36.6474 32.3654 36.9425 32.9459 36.7671C33.3306 36.6839 34.0833 36.2927 34.594 36.3257L34.7003 36.1135L36.7927 37.1779L37.0446 36.6407L34.9623 35.5797L37.4558 30.4997L37.4552 30.4991L37.4547 30.5ZM41.0096 31.0104C41.6065 30.2245 43.1249 31.1629 43.321 29.9525C43.5529 29.3195 44.2661 29.5546 44.7102 29.2428C44.8428 29.011 44.6076 28.8449 44.5608 28.6361C45.1413 28.0059 45.9239 27.565 46.5473 26.9117C46.9945 26.4739 47.6908 26.5736 48.2646 26.5635C48.5331 26.4008 48.9177 26.1656 48.9778 25.8538L48.9014 25.7513C48.0856 25.6316 47.2038 25.7776 46.451 26.0263C45.6022 26.7891 44.67 27.3392 43.6558 27.6446C42.9626 28.5233 41.52 28.9345 40.4922 29.2896L39.2056 32.025C39.8554 31.8527 40.7176 31.3884 41.0093 31.0104H41.0096Z" fill="#F47D30"/>
<path d="M17.5552 41.2371L15.2671 39.1746C14.3818 38.3788 13.7648 39.0788 13.7648 39.5892V41.7215C13.7648 42.1294 13.9007 42.3679 14.0866 42.6135L16.1596 45.3162C16.2755 45.4687 16.3223 45.6216 16.3223 45.8003V46.1022C16.3223 46.3407 16.1099 46.321 15.9441 46.1717L15.4965 45.7905C15.3307 45.6679 15.3471 45.4123 15.3471 45.1932V44.9181C15.3471 44.7721 15.1916 44.5102 15.0358 44.3843L14.001 43.4354C13.8419 43.286 13.7657 43.4122 13.7657 43.8134V45.0467C13.7657 45.3717 13.9743 46.0186 14.4618 46.4561L16.8328 48.5915C17.4101 49.1057 17.9038 48.6049 17.9038 47.4179V46.0582C17.9038 45.3822 17.602 44.7023 17.2507 44.2416L15.5099 41.9702C15.5099 41.9702 15.3505 41.7645 15.3505 41.4959V41.2605C15.3505 41.2605 15.4136 40.919 15.6886 41.1676L16.1329 41.5652C16.2457 41.6713 16.3252 41.8338 16.3252 42.0262V42.3478C16.3252 42.5368 16.3749 42.6762 16.5475 42.8353L17.3834 43.5847C17.7346 43.903 17.9072 43.6743 17.9072 43.3957V42.1158C17.9005 41.6444 17.6976 41.3624 17.5554 41.2364L17.5552 41.2371ZM21.4217 50.0578L20.1649 49.3117V43.0542C20.1645 43.0189 20.1556 42.9841 20.1389 42.953C20.1223 42.9218 20.0983 42.8951 20.0691 42.8752L18.8951 42.1784C18.8638 42.1605 18.8284 42.151 18.7923 42.151C18.7562 42.151 18.7208 42.1605 18.6896 42.1784C18.6271 42.215 18.5803 42.2845 18.5803 42.3608V49.7622C18.5803 49.8317 18.6205 49.9015 18.68 49.9378L21.2135 51.4402C21.2445 51.4588 21.28 51.4687 21.3162 51.4687C21.3524 51.4687 21.3879 51.4588 21.419 51.4402C21.4509 51.4226 21.4773 51.3966 21.4954 51.365C21.5135 51.3334 21.5225 51.2974 21.5215 51.261V50.2334C21.5209 50.1981 21.5114 50.1636 21.494 50.1329C21.4766 50.1022 21.4516 50.0764 21.4217 50.0578ZM37.6968 45.1568L34.4072 45.8099C34.3607 45.8198 34.319 45.8453 34.2888 45.8821C34.2587 45.9188 34.2419 45.9648 34.2414 46.0123V53.4071C34.2414 53.4668 34.2717 53.523 34.3149 53.5631C34.3379 53.583 34.365 53.5975 34.3944 53.6055C34.4237 53.6135 34.4544 53.6148 34.4843 53.6092L37.6972 53.0319C39.2821 52.7502 39.2821 51.7986 39.2821 51.5929V45.793C39.2821 45.793 39.2821 44.8412 37.6972 45.1566L37.6968 45.1568ZM43.3574 42.9483C43.334 42.9329 43.3071 42.9238 43.2791 42.9221C43.2512 42.9203 43.2233 42.9259 43.1982 42.9383L40.2336 44.3872C40.2061 44.4002 40.1829 44.4209 40.167 44.4469C40.1511 44.4729 40.1431 44.5029 40.144 44.5334V51.9778C40.144 52.0376 40.1708 52.0871 40.2169 52.1171C40.2631 52.1472 40.3194 52.1541 40.3723 52.1305L43.3369 50.7944C43.3662 50.7824 43.3911 50.7616 43.4083 50.7349C43.4254 50.7081 43.434 50.6768 43.4327 50.6451V49.5941C43.4328 49.5668 43.4262 49.5398 43.4136 49.5156C43.4009 49.4914 43.3825 49.4706 43.36 49.455C43.3372 49.4399 43.311 49.4308 43.2837 49.4285C43.2565 49.4261 43.2291 49.4307 43.204 49.4417L41.9575 50.0056C41.9041 50.0288 41.8479 50.0221 41.8015 49.9922C41.7552 49.9624 41.7286 49.9127 41.7286 49.8563V48.4469C41.7286 48.3804 41.7688 48.3243 41.8245 48.2944L43.3371 47.6145C43.3664 47.6024 43.3913 47.5816 43.4085 47.5549C43.4256 47.5282 43.4341 47.4969 43.4329 47.4652V46.4073C43.4323 46.3801 43.4254 46.3533 43.4128 46.3292C43.4002 46.305 43.3822 46.2841 43.3603 46.268C43.3366 46.253 43.3095 46.2445 43.2816 46.2434C43.2537 46.2422 43.2259 46.2484 43.2011 46.2613L41.964 46.8676C41.9388 46.8792 41.911 46.8844 41.8833 46.8827C41.8556 46.881 41.8287 46.8724 41.8051 46.8578C41.7811 46.8435 41.7613 46.8231 41.7479 46.7986C41.7345 46.7741 41.7279 46.7464 41.7289 46.7185V45.2132C41.7289 45.1501 41.7656 45.0937 41.8187 45.0672L43.344 44.3214C43.3715 44.3075 43.3945 44.2861 43.4104 44.2597C43.4262 44.2332 43.4343 44.2029 43.4336 44.1721V43.0843C43.4337 43.0571 43.4267 43.0303 43.4134 43.0066C43.4 42.9829 43.3807 42.963 43.3574 42.949L43.3578 42.9483H43.3574ZM46.932 45.369C46.932 45.369 47.8606 44.6758 47.8606 43.416V41.466C47.8606 40.4313 47.198 40.3353 46.4419 40.8559L43.9715 42.5605C43.9495 42.5756 43.9317 42.596 43.9197 42.6197C43.9076 42.6434 43.9017 42.6698 43.9024 42.6964V50.058C43.9024 50.1211 43.9354 50.1739 43.9884 50.204C44.0415 50.2339 44.1043 50.2272 44.1578 50.194L45.4143 49.3385C45.4366 49.3243 45.455 49.3047 45.4678 49.2815C45.4805 49.2583 45.4872 49.2323 45.4872 49.2058V46.3672L45.7458 46.1849L47.1255 47.9921C47.1511 48.0251 47.1882 48.0472 47.2293 48.054C47.2705 48.0608 47.3127 48.0517 47.3475 48.0287L48.2659 47.4046C48.3027 47.3788 48.3278 47.3396 48.3356 47.2953C48.3403 47.2732 48.3398 47.2503 48.334 47.2284C48.3282 47.2065 48.3173 47.1863 48.3022 47.1694L46.9327 45.3684V45.3688L46.932 45.369ZM50.3937 36.86L48.7988 38.6209C48.3909 39.0819 48.3013 39.5694 48.3013 40.1331V40.8825C48.3013 41.4063 48.4074 41.8802 49.0837 42.0228L49.9593 42.2185C50.2412 42.285 50.397 42.3612 50.397 42.5634V42.7595C50.397 43.0678 50.3275 43.1407 50.1946 43.27C50.062 43.3993 49.7667 43.7077 49.7667 43.3235V42.9947C49.7667 42.7227 49.6541 42.7227 49.4785 42.8988L48.4698 43.9331C48.3504 44.0394 48.2973 44.1687 48.2973 44.3811V45.0409C48.2973 46.2279 48.911 46.463 49.5344 45.6376L51.0435 43.6449C51.6667 42.8255 51.6667 42.0066 51.6667 41.5322C51.6667 40.9683 51.1825 40.7365 50.8375 40.6734L50.0981 40.5477C49.836 40.498 49.7629 40.3188 49.7629 40.0635V39.6623C49.7629 39.5397 49.7629 39.2181 49.9751 38.9958L50.124 38.8434C50.28 38.6844 50.3892 38.6878 50.3892 38.9727V39.5531C50.3892 39.6726 50.4588 39.7421 50.5649 39.6293L51.4868 38.6775C51.6428 38.5148 51.6624 38.2629 51.6624 38.0906V37.1224C51.6669 36.1202 50.977 36.2129 50.3932 36.8598L50.3937 36.86ZM39.965 37.8548C38.1009 37.8548 36.5925 38.3621 36.5925 38.9923V40.8624C36.5925 41.4888 38.1009 41.9997 39.965 41.9997C41.8249 41.9997 43.3375 41.4923 43.3375 40.8622V38.992C43.3337 38.3648 41.8218 37.8541 39.965 37.8541V37.8548ZM39.3743 35.1889C40.0943 35.7395 40.2133 34.688 40.7969 34.6283C41.1647 34.5458 41.4734 34.8675 41.7054 35.1327C42.5806 35.5072 43.6351 35.2587 44.3446 34.6684C45.1076 34.343 46.0823 34.4758 46.8585 34.1442C47.3756 33.7993 47.8765 33.3914 48.606 33.514C50.7682 32.7684 53.8587 31.7005 56.1067 30.9114C56.0804 30.5102 56.1566 30.2583 56.1067 29.8602L55.2084 30.0296C54.903 31.1669 53.5932 30.4108 53.0427 31.2199C52.3361 31.2629 51.5704 31.3193 51.1957 32.0291C50.9701 32.0986 50.6451 32.0986 50.5591 31.8235C50.7116 31.1736 49.6505 30.9449 50.1378 30.2516C50.1082 29.9565 49.7533 29.9233 49.5279 30.0163C49.057 30.1888 49.0242 30.6928 48.9676 31.104C48.3278 31.2199 48.2712 30.0992 47.5749 30.3613C46.8616 31.0412 45.9633 31.3528 44.9386 31.1704C43.1247 31.0311 42.5246 33.3954 40.9759 33.8898C40.3094 33.9957 39.3079 33.6112 38.5819 33.3526L37.3181 36.0484L38.0581 35.8625C38.5452 35.7495 38.9297 35.4245 39.3741 35.1894L39.3743 35.1889ZM33.1634 45.8926L31.9896 45.7535C31.9611 45.75 31.9322 45.7526 31.9048 45.7611C31.8773 45.7697 31.8521 45.7841 31.8307 45.8032C31.8084 45.8226 31.7906 45.8466 31.7786 45.8735C31.7666 45.9005 31.7606 45.9298 31.7612 45.9593V50.0642L29.5957 45.5683C29.5856 45.5482 29.5658 45.5315 29.5526 45.5184C29.5192 45.4818 29.4831 45.4553 29.4332 45.452L27.7291 45.2498C27.7 45.246 27.6704 45.2485 27.6423 45.2571C27.6143 45.2658 27.5884 45.2803 27.5664 45.2997C27.5449 45.3189 27.5277 45.3424 27.5158 45.3687C27.5039 45.3949 27.4976 45.4234 27.4973 45.4522V53.2943C27.4973 53.3968 27.5699 53.4867 27.6727 53.4998L28.8467 53.6625C28.8763 53.6663 28.9063 53.6638 28.9348 53.6552C28.9634 53.6466 28.9898 53.6321 29.0123 53.6126C29.0341 53.5928 29.0515 53.5687 29.0635 53.5419C29.0755 53.515 29.0819 53.486 29.0821 53.4566V48.6976L31.6421 53.6951C31.6822 53.7682 31.7551 53.811 31.8383 53.8081L33.1512 53.7318C33.2033 53.7283 33.2521 53.7051 33.2878 53.667C33.3235 53.6288 33.3434 53.5786 33.3435 53.5263V46.0986C33.3469 45.9894 33.2673 45.9062 33.1645 45.8928H33.1636L33.1634 45.8926Z" fill="#F47D30"/>
<path d="M37.0074 46.8047L35.83 47.0365V52.0108L37.0805 51.7886C37.7001 51.6793 37.7001 50.9794 37.7001 50.9794V47.3054C37.6968 47.3054 37.6968 46.6656 37.0069 46.8047H37.0074ZM46.0728 42.6993L45.5623 43.0544C45.54 43.0684 45.5218 43.088 45.5096 43.1113C45.4973 43.1346 45.4915 43.1607 45.4925 43.187V44.4968C45.4925 44.5599 45.5255 44.6127 45.5786 44.6428C45.6316 44.6722 45.6945 44.6655 45.748 44.6323L46.1024 44.3871C46.2919 44.2543 46.4474 43.9427 46.4474 43.6772V42.9142C46.4441 42.6922 46.278 42.5562 46.073 42.6989L46.0728 42.6993ZM25.0721 49.7029L24.6051 46.7552L23.952 49.3351L25.0726 49.7029H25.0721ZM13.2606 38.3554V36.7505L11.6753 35.3578V38.4551C12.1594 38.3251 12.7564 38.4907 13.2601 38.3548L13.2606 38.3552V38.3554Z" fill="#00539B"/>
<path d="M39.965 40.1331C41.8276 40.1331 43.3375 39.6238 43.3375 38.9956C43.3375 38.3674 41.8276 37.8582 39.965 37.8582C38.1024 37.8582 36.5925 38.3674 36.5925 38.9956C36.5925 39.6238 38.1024 40.1331 39.965 40.1331Z" fill="white"/>
</g>
<defs>
<clipPath id="clip0_33_1932">
<rect width="55" height="55" fill="white" transform="translate(4 5)"/>
</clipPath>
</defs>
</svg>
