<svg width="64" height="64" viewBox="0 0 64 64" fill="none" xmlns="http://www.w3.org/2000/svg">
<g clip-path="url(#clip0_33_1953)">
<path d="M40.6352 10L42.5628 11.7961L44.32 10.0876H56.8541L53.106 16.7368V49.1793C53.106 52.2167 50.643 54.6748 47.6105 54.6748H37.3301C35.1154 54.6748 33.0369 55.9745 32.0196 57.8777C31.0022 55.9794 28.9286 54.6748 26.709 54.6748H16.4335C13.401 54.6748 10.938 52.2118 10.938 49.1793V16.7368L7.18994 10.0876H19.724L21.4812 11.7961L23.4088 10H40.6401H40.6352Z" fill="#084F95"/>
<path d="M52.7945 16.654L56.3186 10.404H44.4514L42.5725 12.2294L40.5184 10.3164H23.5304L21.4763 12.2294L19.5974 10.404H7.72534L11.2495 16.6589V49.1793C11.2495 50.5666 11.7898 51.8662 12.7682 52.8446C13.7466 53.823 15.0462 54.3633 16.4335 54.3633H26.7139C28.8361 54.3633 30.8611 55.4877 32.0244 57.2693C33.1878 55.4877 35.2127 54.3633 37.335 54.3633H47.6153C50.4726 54.3633 52.7993 52.0366 52.7993 49.1793V16.654H52.7945Z" fill="white"/>
<path d="M51.417 16.654V16.2938L51.5922 15.9774L53.9579 11.7766H45.0063L43.5266 13.2126L42.5871 14.1277L41.6282 13.2321L39.9684 11.689H24.0708L22.4109 13.2321L21.452 14.1277L20.5126 13.2126L19.0328 11.7766H10.0813L12.447 15.9774L12.6222 16.2938V49.1793C12.6222 50.1966 13.0165 51.1507 13.7369 51.8711C14.4573 52.5915 15.4113 52.9858 16.4287 52.9858H26.709C28.6755 52.9858 30.6713 53.6185 32.0196 55.4488C33.363 53.6672 35.3588 52.9858 37.3301 52.9858H47.6105C49.7084 52.9858 51.417 51.2772 51.417 49.1793V16.654Z" fill="#084F95"/>
<path d="M55.7637 52.1632C56.3576 52.1632 56.781 52.6499 56.781 53.2486C56.781 53.9934 56.2115 54.3438 55.7978 54.3438C55.1407 54.3438 54.7415 53.8571 54.7415 53.2535C54.7415 52.6499 55.1553 52.1632 55.7637 52.1632ZM55.7637 51.8322C54.9411 51.8322 54.3326 52.4114 54.3326 53.2535C54.3326 54.0956 54.9265 54.67 55.7637 54.67C56.6009 54.67 57.1899 54.0956 57.1899 53.2486C57.1899 52.4017 56.5815 51.8322 55.7637 51.8322ZM55.1991 52.4893V54.0177H55.5252V53.3752H55.681L56.0363 54.0177H56.4208L56.0314 53.3508C56.2602 53.3411 56.3965 53.2048 56.3965 52.9517C56.3965 52.6158 56.1872 52.4893 55.754 52.4893H55.1991ZM55.5252 52.7473H55.7588C55.9049 52.7473 56.0509 52.7667 56.0509 52.9225C56.0509 53.0929 55.9487 53.1123 55.8075 53.1123H55.5301V52.7473H55.5252Z" fill="#084F95"/>
<path d="M50.3559 23.8872H13.6833V24.7682H50.3559V23.8872Z" fill="white"/>
<path d="M25.9058 26.0972H24.6354L50.3606 44.5162V43.606L25.9058 26.0972Z" fill="white"/>
<path d="M50.3607 41.8001V26.0972H28.4272L50.3607 41.8001Z" fill="#BF1F36"/>
<path d="M13.693 30.405L43.3756 51.9004H44.6363L13.693 29.4899V30.405Z" fill="white"/>
<path d="M43.142 16.1575H40.7228V22.7871H41.7839V19.5307H42.4313L43.5752 22.7871H44.6363L43.473 19.4869C44.0035 19.3993 44.4708 18.8639 44.4708 18.2457V17.4669C44.4708 16.7611 43.8088 16.1818 43.1468 16.1575H43.142ZM42.9424 18.5231H41.7839V17.2186H42.9229C42.9229 17.2186 43.4048 17.2089 43.4048 17.647V18.0899C43.4048 18.5377 42.9375 18.5183 42.9375 18.5183L42.9424 18.5231Z" fill="white"/>
<path d="M44.6656 42.131L43.5704 41.3279L43.3027 41.1332L42.7137 40.7048L38.8051 46.0543L39.6618 46.6822L41.4092 44.2874L41.9301 44.6719L41.1026 47.7385L41.9593 48.3664L42.7916 45.2512C43.2735 45.4946 43.9647 45.3388 44.3298 44.8374L44.9626 43.971C45.3812 43.4015 45.1865 42.5399 44.6656 42.131ZM42.9328 44.156L41.9982 43.4745L42.9425 42.1846L43.8625 42.8563C43.8625 42.8563 44.2568 43.1338 43.9988 43.4891L43.5656 44.0829C43.3027 44.4431 42.9328 44.156 42.9328 44.156Z" fill="white"/>
<path d="M37.7244 22.7823H38.1235C38.1235 22.7823 39.5838 22.5827 39.5984 21.322V17.6615C39.613 16.2353 38.2063 16.1526 38.2063 16.1526H37.7244C36.3177 16.1526 36.2495 17.5788 36.2495 17.5788V21.2052C36.2495 22.6654 37.7244 22.7774 37.7244 22.7774V22.7823ZM38.0067 21.7211H37.8753C37.8753 21.7211 37.3106 21.7065 37.3106 21.1419V17.793C37.3106 17.793 37.3301 17.2283 37.8753 17.2137H38.0262C38.0262 17.2137 38.5422 17.2965 38.5422 17.8124V21.1419C38.5276 21.6724 38.0116 21.7211 38.0116 21.7211H38.0067Z" fill="white"/>
<path d="M22.0653 17.2186V16.1575H20.4736H19.8798H19.4174V22.7823H19.8798H20.4736H22.0653V21.726H20.4736V19.9688H22.0653V18.9077H20.4736V17.2186H22.0653Z" fill="white"/>
<path d="M40.8152 40.6512L41.448 39.7994L40.1727 38.8502L39.6908 38.4949L39.3209 38.2174L35.3635 43.5377L35.7383 43.8151L36.2154 44.1705L37.4907 45.1197L38.1235 44.2678L36.8481 43.3187L37.8947 41.9119L39.17 42.8562L39.8076 42.0093L38.5275 41.0601L39.5399 39.702L40.8152 40.6512Z" fill="white"/>
<path d="M16.9301 16.1575V20.3193L15.1388 16.1575H14.0776V22.7823H15.1388V18.6205L16.9301 22.7823H17.9912V16.1575H16.9301Z" fill="white"/>
<path d="M34.5604 16.1575L33.6648 18.5913L32.7691 16.1575H31.708L33.1342 20.0321V22.7823H34.1954V20.0321L35.6216 16.1575H34.5604Z" fill="white"/>
<path d="M50.0346 22.7823L48.034 18.2554L49.3385 16.1575H48.2823L46.8901 18.3868V16.1575H45.829V22.7823H46.8901V20.1002L47.4109 19.2581L48.9783 22.7823H50.0346Z" fill="white"/>
<path d="M27.9308 16.1575L27.2639 20.2122L26.5727 16.1575H25.5116L24.8253 20.2122L24.1535 16.1575H23.0924L24.1876 22.7823H24.3872H25.2488H25.4483L26.0422 19.2776L26.6409 22.7823H26.8405H27.702H27.9016L28.9919 16.1575H27.9308Z" fill="white"/>
<path d="M33.0807 33.7637L30.6566 37.1515L31.6253 32.7269L30.7588 32.1087L26.9037 37.4971L27.7653 38.1153L30.1893 34.7323L29.2207 39.157L30.0871 39.7752L33.9422 34.3819L33.0807 33.7637Z" fill="white"/>
<path d="M36.9553 36.5674L36.4588 36.1975L36.4199 36.1683C35.276 35.3457 34.3901 36.4652 34.3901 36.4652L32.2727 39.415C31.4208 40.5978 32.555 41.5519 32.555 41.5519L33.0271 41.8975C33.0271 41.8975 33.3435 42.0678 33.7573 42.1116L33.7378 42.3794L34.2002 42.7104L34.9206 41.7514C34.9742 41.6979 35.0277 41.6395 35.0764 41.5713L35.7725 40.6027L36.2544 39.931L35.3879 39.3176L34.5264 38.7043L34.0445 39.3809L34.906 39.9942L34.3219 40.8071C34.0007 41.2306 33.5528 40.9678 33.5528 40.9678L33.2949 40.773C33.2949 40.773 32.847 40.4323 33.178 39.9748L35.1299 37.2538C35.1299 37.2538 35.4707 36.806 35.9234 37.1126L36.1911 37.3171C36.1911 37.3171 36.561 37.6821 36.2592 38.1007L35.8309 38.6995L36.6876 39.3225L37.2084 38.5972C38.0505 37.4485 36.9553 36.5626 36.9553 36.5626V36.5674Z" fill="white"/>
<path d="M28.5781 30.5072L27.7458 29.8695L22.3719 34.1871L23.2286 34.815L24.3725 33.9437L25.8036 35.0048L25.3314 36.3532L26.1881 36.9811L28.5781 30.5072ZM27.1568 31.617L26.1443 34.1043L25.1027 33.3596L27.1568 31.6218V31.617Z" fill="white"/>
<path d="M48.3066 44.3361C49.0367 44.9494 49.2898 45.5871 48.8907 46.3805C48.696 46.7456 48.3698 47.1691 48.3698 47.1691L47.5326 46.546C47.5326 46.546 48.3698 45.7526 47.703 45.1685C47.4353 44.9543 47.1773 44.8424 46.783 44.9494C46.2281 45.2658 46.2232 45.8402 46.4082 46.4779C46.7781 47.466 47.299 48.8387 46.4958 49.7976C46.0431 50.2454 45.2838 50.5423 44.7532 50.2746C44.0912 50.0361 43.4341 49.5152 43.1177 48.8533C42.7526 47.8797 43.8527 46.7748 43.8527 46.7748L44.5682 47.281C44.5682 47.281 43.7943 48.2059 44.101 48.6099C44.2129 48.9214 45.0258 49.5055 45.5564 49.2427C46.7976 48.3032 44.3054 46.2247 45.5223 44.6574C45.8387 44.2874 46.2086 44.0197 46.6613 43.9175C47.3233 43.7569 47.8003 44.0343 48.3066 44.341V44.3361Z" fill="white"/>
<path d="M32.0196 53.9593C30.1505 51.7105 26.7675 51.8857 25.9108 51.9052H17.0128C13.3037 51.9052 13.6931 48.4394 13.6931 48.4394C13.6931 48.4346 13.6931 40.5296 13.6931 32.2206L40.8738 51.9052H37.3837C36.5124 51.9052 34.0397 51.764 32.0196 53.9593Z" fill="white"/>
<path d="M24.5624 27.6304L23.4672 26.8272L23.1994 26.6325L22.6105 26.2042L18.7018 31.5537L19.5585 32.1767L21.3059 29.7867L21.8268 30.1664L20.9993 33.233L21.856 33.856L22.6883 30.7408C23.1702 30.9841 23.8614 30.8284 24.2265 30.327L24.8593 29.4606C25.2779 28.8911 25.0832 28.0295 24.5624 27.6206V27.6304ZM22.8295 29.6553L21.8949 28.9738L22.8392 27.6839L23.7592 28.3556C23.7592 28.3556 24.1584 28.6331 23.8955 28.9884L23.4623 29.5823C23.1994 29.9425 22.8295 29.6553 22.8295 29.6553Z" fill="white"/>
<path d="M36.0061 38.1493C35.9039 38.2856 35.6265 38.2467 35.3831 38.0666C35.1397 37.8816 35.0277 37.6285 35.13 37.4922L35.422 37.1028C35.5242 36.9665 35.8017 37.0055 36.0451 37.1856C36.2885 37.3657 36.4004 37.6236 36.2982 37.7599L36.0061 38.1493Z" fill="#084F95"/>
<path d="M34.0104 40.958C33.9082 41.0943 33.6307 41.0554 33.3874 40.8753C33.144 40.6951 33.032 40.4372 33.1342 40.3009L33.4263 39.9115C33.5285 39.7752 33.806 39.8141 34.0493 39.9942C34.2927 40.1743 34.4047 40.4323 34.3025 40.5686L34.0104 40.958Z" fill="#084F95"/>
<path d="M33.5188 41.9948C33.436 42.1067 33.0855 41.9802 32.7351 41.7173C32.3846 41.4545 32.1656 41.1527 32.2483 41.0407L32.482 40.7243C32.5647 40.6173 32.9152 40.739 33.2656 41.0018C33.6161 41.2647 33.8352 41.5664 33.7524 41.6735L33.5188 41.9851V41.9948Z" fill="white"/>
<path d="M37.0332 37.3997C36.9505 37.5117 36.5562 37.351 36.1522 37.0492C35.7482 36.7426 35.4853 36.4116 35.5681 36.2996L35.8017 35.9832C35.8845 35.8762 36.2788 36.0319 36.6828 36.3337C37.0868 36.6355 37.3496 36.9714 37.2669 37.0785L37.0332 37.3948V37.3997Z" fill="white"/>
</g>
<defs>
<clipPath id="clip0_33_1953">
<rect width="50" height="47.8777" fill="white" transform="translate(7.18994 10)"/>
</clipPath>
</defs>
</svg>
