<svg width="72" height="64" viewBox="0 0 72 64" fill="none" xmlns="http://www.w3.org/2000/svg">
<g clip-path="url(#clip0_33_1954)">
<path d="M39.2417 50.6632C38.6292 50.6632 38.132 51.1597 38.132 51.7726C38.132 52.3849 38.6292 52.8821 39.2417 52.8821C39.8542 52.8821 40.3507 52.3849 40.3507 51.7727C40.3507 51.1597 39.8542 50.6632 39.2417 50.6632ZM39.2417 52.644C39.1272 52.6441 39.0139 52.6217 38.9081 52.5779C38.8023 52.5342 38.7062 52.47 38.6253 52.3891C38.5443 52.3081 38.4802 52.212 38.4364 52.1062C38.3926 52.0005 38.3702 51.8871 38.3703 51.7727C38.3703 51.2912 38.7596 50.9018 39.2417 50.9018C39.7232 50.9018 40.1129 51.2912 40.1129 51.7727C40.1129 52.2543 39.7232 52.644 39.2417 52.644ZM39.6975 51.5154C39.6975 51.466 39.6877 51.4171 39.6688 51.3715C39.6498 51.3259 39.6221 51.2844 39.5872 51.2495C39.5522 51.2146 39.5107 51.1869 39.465 51.1681C39.4194 51.1492 39.3705 51.1395 39.3211 51.1396H38.7865V52.406H39.0241V51.8917H39.1947L39.4347 52.406H39.6976L39.4469 51.8697C39.5201 51.8437 39.5835 51.7957 39.6284 51.7323C39.6732 51.6689 39.6973 51.5931 39.6975 51.5154ZM39.3211 51.6539H39.0241V51.3768H39.3211C39.3975 51.3768 39.46 51.4389 39.46 51.5155C39.4598 51.5522 39.4451 51.5874 39.4191 51.6134C39.3931 51.6393 39.3578 51.6539 39.3211 51.6539Z" fill="#010101"/>
<path d="M57.2135 16.0428H54.0056C53.8752 15.6703 53.6571 15.3054 53.3354 14.9844C52.4046 14.0523 51.1541 13.9008 50.4258 14.6286C50.272 14.783 50.1571 14.9668 50.0807 15.1709C49.8663 15.0139 49.5976 14.8719 49.2771 14.745C48.8267 13.7993 48.1907 12.4623 46.761 12.4623C46.2504 12.4623 45.7932 12.6208 45.4337 12.7992C44.3797 11.9645 42.0944 10.402 39.7617 10.402C37.2074 10.402 33.6632 12.7475 32.624 12.7475C31.8669 12.7475 30.1683 9 27.5314 9C26.1148 9 24.6797 9.96005 22.9696 10.9916C21.3383 11.9686 20.9022 13.1503 20.4303 14.3963C20.2694 14.8025 19.5581 15.5458 19.0642 16.0428H10.8793L24.817 40.28H15.2749L12.236 45.7524H26.237C26.717 45.7524 27.2502 45.5882 27.7252 45.3382L34.0471 56.3333L40.1988 45.6342H45.3223V42.6337H44.9783C44.9749 41.5914 44.1859 40.455 43.7903 39.9533L43.7147 39.5199L44.8901 37.4741L51.7414 34.9475C52.8537 34.5374 53.3704 33.5407 53.6108 32.7619C53.6108 32.7619 54.3666 32.7543 55.0559 31.9627C55.539 32.0872 56.1535 32.2157 56.6297 32.2157C57.6663 32.2157 58.7552 31.6232 59.0364 30.52C59.0364 30.52 60.1337 29.8456 60.6208 27.7724L52.0922 24.949L57.2135 16.0428Z" fill="white"/>
<path d="M50.5683 26.5403L51.639 26.8945L51.632 27.5851C51.0617 27.5634 50.6055 27.4548 50.6055 29.1222C50.6055 30.3662 50.8427 30.7693 50.8427 31.1201C50.8427 31.7152 50.792 31.8565 48.9213 31.8565C48.9213 31.8565 48.6291 31.5018 47.6028 31.1044C47.6028 31.1044 47.5835 31.0094 47.5416 30.8352L55.4657 17.0547H53.065C53.2427 16.7136 53.0676 16.1464 52.6203 15.699C52.1139 15.1931 51.4515 15.0338 51.1414 15.3438C51.0002 15.4845 50.9573 15.6986 50.9987 15.9379L50.0119 16.9726C50.0385 16.8163 50.0943 15.9951 48.5443 15.5526C48.0774 14.6285 47.6879 13.4734 46.761 13.4734C46.0036 13.4734 45.3463 14.0494 45.3463 14.0494C45.3463 14.0494 42.5147 11.413 39.7617 11.413C37.372 11.413 34.075 13.7593 32.6239 13.7593C31.0755 13.7593 29.7073 10.0109 27.5313 10.0109C26.3617 10.0109 24.9807 10.9515 23.4943 11.8566C22.0087 12.7589 21.7316 13.865 21.3694 14.7719C21.1295 15.3731 20.3695 16.1788 19.4817 17.0547H12.6293L26.5475 41.2605C26.4417 41.2796 26.3389 41.2927 26.2448 41.2927H15.8703L13.9548 44.7403H26.2369C26.7593 44.7403 27.4753 44.4263 27.8279 44.0407L28.0239 43.8286L34.047 54.3033L39.613 44.6223H44.3111V43.6455H43.1823L42.9819 43.0174H43.154L43.9673 42.6412C43.9673 41.7026 42.8388 40.3849 42.8388 40.3849L42.6547 39.3338L44.1962 36.6521L51.3918 33.9982C52.6676 33.5281 52.8099 31.6687 52.8099 31.6687C52.8099 31.6687 53.9798 32.2183 54.626 30.7908C54.626 30.7908 55.9235 31.2054 56.6295 31.2054C57.2423 31.2054 58.099 30.8744 58.099 29.9539C58.099 29.9539 59.0439 29.3878 59.3528 28.4193L50.8752 25.6113L50.5683 26.5403ZM51.2731 16.3211C51.5686 16.3211 51.7384 16.4355 51.7384 16.6011C51.7384 16.7658 51.1407 17.5509 50.3828 17.5509C50.223 17.5509 50.1861 17.4636 50.1861 17.4141C50.1861 17.1726 50.9759 16.3211 51.273 16.3211H51.2731ZM50.6342 17.9491C51.3334 18.7925 51.3583 19.7182 51.3583 19.7182L50.432 18.0924C50.432 17.9268 50.6342 17.9491 50.6342 17.9491ZM50.2039 18.5036C50.2039 18.5036 51.2249 19.6335 51.2249 20.2707C51.2249 20.6198 50.9461 20.4795 50.9461 20.4795L49.9567 18.9975L50.2039 18.5036ZM50.3689 21.2418C49.8837 21.2418 49.4217 19.9252 49.4217 19.9252C49.4217 19.9252 49.4704 19.659 49.7299 19.659C50.5584 20.3657 50.3689 21.2418 50.3689 21.2418ZM48.7193 20.542C49.5423 20.542 49.8662 22.041 49.7935 22.3131C48.995 22.3131 48.7193 20.542 48.7193 20.542ZM49.0086 23.2391C47.8459 23.2391 47.2569 21.1377 47.2569 21.1377C47.2569 21.1377 47.2803 20.8466 48.1035 20.9111C48.1035 20.9111 49.2718 22.098 49.0086 23.2391ZM49.7814 17.9674C49.7814 19.0235 48.5595 20.3207 47.9541 20.3207C47.6352 20.3207 47.5872 20.068 47.5872 20.068C47.5872 20.068 48.3421 18.4624 49.4613 17.7417C49.4613 17.7417 49.7814 17.75 49.7814 17.9674ZM48.7005 16.3407C49.2069 16.0514 49.9551 16.9871 49.2406 17.3492C48.1854 17.8656 47.0506 20.0479 47.0506 20.0479C46.5418 20.1337 46.3524 19.8219 46.3524 19.8219C46.3524 19.8219 46.5771 17.7163 48.7005 16.3407ZM35.847 34.617C35.4541 35.0645 34.3515 34.2967 34.77 33.8586L46.293 21.7478C46.7197 21.3217 47.2855 21.8493 46.8811 22.3019L35.8471 34.6169L35.847 34.617ZM36.6302 36.0291L36.5293 36.3592L36.138 36.298L36.2005 35.7186C36.4294 35.6558 36.5246 35.9663 36.6302 36.0291ZM35.4442 35.4651C35.8406 35.4651 35.8245 36.0351 35.8245 36.979C35.8245 37.6086 35.5839 37.8613 35.4185 37.8613C35.1216 37.8613 35.1368 37.4059 35.0457 37.244C35.0457 37.244 35.1682 37.0836 35.1682 36.7626C35.1682 36.4403 35.0065 35.4651 35.4442 35.4651ZM30.06 34.3412C29.8012 34.5986 29.3364 34.5662 29.3364 34.5662C29.3364 34.5662 28.0713 33.4531 28.8432 32.383C29.6612 32.8841 30.0599 34.3412 30.0599 34.3412H30.06ZM29.4587 32.0141C29.4587 31.5351 30.4775 31.1989 30.4775 32.0975C30.4775 33.2347 30.6964 33.2163 30.6964 33.3725C30.6964 33.5839 30.2849 33.4332 30.2849 33.4332C30.2849 33.0858 29.4588 32.492 29.4588 32.0141H29.4587ZM31.5917 34.2037C32.0863 34.2037 31.9141 34.8336 31.9141 34.8336C31.0269 34.622 29.7094 35.8828 29.7094 35.8828C29.7094 35.8828 29.6202 35.6859 29.6202 35.4648C29.6202 35.0363 30.5861 34.2037 31.5916 34.2037H31.5917ZM30.8837 31.9309C30.8837 31.2797 31.5022 30.9671 31.5022 32.7758C31.2863 32.9908 30.8837 32.6565 30.8837 31.9309V31.9309ZM30.45 35.9459C31.2727 38.5923 32.0211 40.0158 32.0211 40.0158L31.7287 40.1686C31.7287 40.1686 30.2336 39.1118 30.0181 36.6255L30.45 35.9459ZM31.0496 35.6168C32.4954 34.8192 33.0676 37.244 33.0676 37.244C33.0676 39.5549 32.8416 39.9413 32.8416 39.9413C32.504 39.8536 31.7041 38.2916 31.0496 35.6168ZM32.5522 33.6179C32.3906 33.709 32.0397 33.7265 32.0397 33.1999C32.0397 32.6906 31.8726 31.9539 32.1004 31.4569C32.897 31.8333 32.3512 33.218 32.5522 33.6179ZM32.4653 34.7507C32.4653 34.5772 32.6828 34.2976 33.0945 34.2976C33.507 34.2976 33.8898 34.3685 33.8898 34.8064C33.8898 35.3416 33.2426 35.6997 33.1293 35.6997C32.9299 35.6997 32.4653 35.2053 32.4653 34.7507ZM32.903 31.7247C32.903 31.7247 33.5311 31.6588 33.5311 32.4342C33.5311 32.7389 33.5316 33.2493 33.5622 33.4746C33.421 33.6933 33.0066 33.5159 33.0066 33.5159C33.0066 33.5159 32.7991 32.3662 32.903 31.7247ZM33.6444 36.6255C33.6444 36.6255 34.4891 35.7764 34.4891 37.819C34.4891 39.5449 33.327 40.4142 33.327 39.7341C33.327 39.3158 33.7632 39.3635 33.6443 36.6255H33.6444ZM34.0556 32.3217C34.0556 32.3217 34.4601 32.1354 34.4601 32.9775C34.4601 33.8266 34.3706 33.7763 34.2424 33.8476C34.2424 33.8476 33.897 33.3231 34.0556 32.3217ZM34.4587 36.0937C34.3345 36.0937 34.1189 35.9608 34.1189 35.7887C34.1189 35.2608 34.2609 34.9544 34.5173 34.9544C34.673 34.9544 34.7379 35.1253 34.7379 35.3071C34.7379 35.8967 34.545 36.0937 34.4587 36.0937ZM46.0821 20.663C46.0821 20.663 46.4884 20.4854 46.7167 21.2087C46.3542 21.1896 46.1337 21.3494 46.1337 21.3494C46.1337 21.3494 45.9192 20.9052 46.0821 20.663ZM47.2198 13.9598L47.668 14.9201C47.1929 14.9201 46.8627 14.2027 46.8627 14.0633C46.8627 13.8818 47.1772 13.8674 47.2198 13.9598ZM46.2265 14.0153L47.6476 15.9492C47.6476 15.9492 47.5366 16.1797 47.3404 15.9699L45.7936 14.3229C45.7936 14.3229 45.8673 14.0153 46.2265 14.0153ZM45.5058 14.7327L47.1968 16.6697C47.2881 16.7613 46.9789 17.0064 46.8041 16.835L44.8884 14.9612C44.8884 14.9612 45.2811 14.4756 45.5058 14.7327ZM44.4976 15.3881C44.782 15.3881 46.6022 16.794 46.6022 17.2091C46.6022 17.2572 46.4693 17.4448 46.3921 17.3901L44.0851 15.7423C44.0851 15.7423 44.2136 15.3881 44.4976 15.3881ZM43.7016 16.2966C44.5921 16.7002 45.3831 17.2033 46.1849 17.7354C46.3181 17.8252 46.1085 18.2419 45.9791 18.1734L43.553 16.8567C43.553 16.8567 43.4787 16.5928 43.7016 16.2966ZM43.4261 17.3901C43.9208 17.5314 45.5422 18.4266 45.752 18.5655C45.9325 18.6826 45.6753 18.9508 45.5887 18.9142L43.3016 17.8442C43.3016 17.8442 43.1491 17.6727 43.4261 17.3901ZM42.9905 18.3167C43.8991 18.5728 45.0517 19.1826 45.0517 19.1826C43.4311 19.2637 42.9301 18.5037 42.9301 18.5037L42.9905 18.3167ZM32.7453 18.0842C36.1924 18.0842 40.0159 21.3623 42.6369 24.9972L35.4722 32.5258C31.471 30.4123 27.5933 27.057 27.5933 22.7441C27.5933 20.3485 29.6686 18.0842 32.7453 18.0842ZM23.4085 12.9216C23.983 12.6475 24.3867 13.1955 24.3867 13.1955C24.3081 13.4075 23.6808 13.853 23.6808 14.2974C23.6808 14.5367 24.8646 14.5569 24.8646 15.4717C24.8646 15.8715 24.6604 16.0723 24.6604 16.0723L24.192 16.1113C24.192 16.1113 24.3937 15.9133 24.3937 15.5376C24.3937 15.2148 24.0685 14.9365 23.8419 14.9365C23.1691 14.9365 23.3272 15.9099 22.8602 15.5237C22.9988 14.7659 23.3222 14.1732 23.4085 12.9216ZM21.1431 16.1804C22.3967 17.435 22.9624 18.8142 22.9624 18.8142C22.7095 19.4412 19.9533 20.6948 19.9533 20.6948L21.5836 17.6864L17.5068 21.1979C17.5068 21.1979 17.5696 19.5671 18.0708 19.0026C18.5731 18.4403 21.1431 16.1804 21.1431 16.1804ZM16.3557 44.3123H14.6831L16.1222 41.7214H17.7961L16.3557 44.3123ZM27.512 43.7504C27.2386 44.0494 26.6432 44.3123 26.2369 44.3123H25.0085L26.1807 41.7214H26.2448C26.8776 41.7214 27.7212 41.3696 28.1678 40.9197L30.1479 38.9228L30.9232 40.0297L27.512 43.7504ZM40.536 43.0174H41.8311L41.6512 43.6455H40.1755L40.536 43.0174V43.0174ZM36.4987 42.4235C36.3925 42.2883 36.5068 42.0225 36.7498 41.8311C36.9965 41.6374 37.2835 41.5932 37.3881 41.73C37.4956 41.8653 37.3829 42.1322 37.1375 42.3247C36.8911 42.5164 36.6049 42.5604 36.4987 42.4235ZM42.9419 43.9765H43.9818V44.2932H35.7426C35.8716 43.6002 36.2681 43.1194 36.3587 43.0174H36.6446L37.1877 43.9765H38.0839L38.3884 43.0174H38.8909L39.242 43.9765H41.9007L42.1736 43.0174H42.636L42.9419 43.9765ZM43.2791 35.0658C42.1094 35.0658 39.8814 34.5141 37.4645 33.4763L43.6705 26.5484C45.0043 28.7304 45.836 30.8922 45.836 32.4247C45.836 34.7673 44.3611 35.0657 43.2791 35.0657V35.0658ZM52.7443 27.8883L53.093 27.3758L55.1636 28.0606L55.1821 28.6967L52.7443 27.8883ZM56.7062 30.6566C56.4028 30.7293 56.1242 30.6526 56.0847 30.4831C56.0425 30.3165 56.257 30.119 56.5597 30.0457C56.8606 29.973 57.1415 30.0525 57.1807 30.22C57.2221 30.3884 57.0094 30.5839 56.7062 30.6566ZM56.341 29.0807L56.7079 28.5729L57.1496 28.7197L57.283 29.3928L56.341 29.0807ZM51.0847 26.0286L58.913 28.6197C58.6379 29.1512 58.1669 29.5088 57.9943 29.6284L57.6424 29.5123L57.4363 28.4658L56.5832 28.1835L56.0123 28.9712L55.5159 28.8067L55.4852 27.8207L52.9596 26.9844L52.4177 27.7809L51.961 27.6293L51.9712 26.6566L50.9847 26.3301L51.0846 26.0285L51.0847 26.0286Z" fill="#010101"/>
<path d="M29.482 36.4324C29.0373 35.3612 29.2338 35.1171 29.2338 35.1171C29.2338 35.1171 27.8054 33.9436 28.2292 32.4836C28.2292 32.4836 24.5527 27.1564 24.5527 23.9978C24.5527 22.3628 25.3462 22.5219 25.3462 21.1853C25.3462 20.0879 24.5953 19.2678 24.0575 19.2678C23.4409 19.2678 21.5163 20.5386 18.6976 22.1998L19.7644 19.7549L17.1936 22.3895C17.1936 22.3895 16.6914 19.8177 18.0747 18.4357C18.2989 18.2096 18.5288 17.9865 18.7572 17.7631H13.853L27.2365 41.0363C27.4803 40.9199 27.7055 40.7768 27.8627 40.6172L29.9725 38.4902C29.6351 37.6999 29.482 36.8811 29.482 36.4324H29.482ZM45.5966 20.1314L45.3462 19.5671C44.0495 19.7855 42.889 19.1281 42.5573 18.957C42.2248 18.7883 42.5876 18.0619 42.5876 18.0619C42.5876 18.0619 42.4977 17.9051 42.2939 17.7631H40.9375C40.6821 17.9923 40.6225 18.346 40.8313 18.5613C42.2706 20.055 43.4261 21.6581 44.3466 23.2034L45.8511 21.6217L45.5966 20.1314V20.1314ZM51.0967 17.9787C51.8841 18.9094 51.5592 19.8624 51.5592 19.8624C51.5592 20.5824 51.1786 20.5703 51.1786 20.5703C51.1786 22.2449 50.2996 21.9508 50.2996 21.9508C50.2996 24.1548 47.8719 23.2613 47.8719 23.2613C47.4759 23.2101 47.146 23.1003 46.8776 22.97L45.234 24.8041C46.2995 26.8786 46.9383 28.7221 47.2789 29.871L54.239 17.7631H51.2903L51.0967 17.9787ZM39.8278 35.555C39.8278 35.407 37.6209 34.821 36.755 34.4893C35.9635 34.8003 36.9917 34.9591 36.9917 35.9872C36.9917 36.5965 36.6951 37.3111 36.6951 37.3111L36.2543 37.4361C36.2543 37.4361 35.3772 39.0542 34.8136 38.8159C34.0093 40.2306 33.6801 40.5579 32.4022 40.5579C31.9918 40.5579 31.6305 40.4383 31.313 40.2384L28.5251 43.2791L34.047 52.8821L38.7961 44.6224H35.3819C35.3819 43.7429 35.9412 43.0175 35.9412 43.0175C35.9412 41.6176 36.8034 41.3194 37.4457 41.2621C38.8104 41.142 39.3668 41.2605 39.3668 40.5937C39.3668 40.1228 39.3258 39.5672 39.3258 39.5672H39.8278C39.8278 37.7334 39.315 37.2881 39.315 36.3522C39.315 35.9937 39.8278 35.8389 39.8278 35.555ZM39.428 43.5226L39.7184 43.0175H39.2413L39.428 43.5226Z" fill="#FFB81C"/>
<path d="M37.379 43.6455H37.8428L38.0429 43.0174H37.0236L37.379 43.6455ZM42.0138 39.0251L43.0842 37.1633L41.8903 37.7493L42.0138 39.0251Z" fill="#FFB81C"/>
</g>
<defs>
<clipPath id="clip0_33_1954">
<rect width="71" height="47.3333" fill="white" transform="translate(0.25 9)"/>
</clipPath>
</defs>
</svg>
