<svg width="64" height="64" viewBox="0 0 64 64" fill="none" xmlns="http://www.w3.org/2000/svg">
<path d="M12.8849 47.085C22.2382 47.9033 28.1699 50.54 31.0566 56C40.9416 54.3983 50.0849 48.0583 50.0849 39.885C50.0849 28.9967 36.8932 27.285 36.5416 24.1133C42.0899 26.125 48.1982 24.0083 51.1132 17.085C42.4949 16.4483 36.1849 13.305 33.4566 8C22.8849 9.88167 14.4282 16.7233 14.4282 24.115C14.4282 34.91 28.3032 37.7683 29.8566 40.0583C22.2849 37.1867 15.7532 40.4583 12.8849 47.085Z" fill="#001425"/>
<path d="M29.2915 23.5567C28.1082 22.355 27.6149 21.4133 27.6149 20.17C27.6149 18.7483 28.2999 18.0533 28.2999 17.2567C28.2999 16.5733 27.8699 16.0367 27.0465 15.8733C27.5349 15.3467 28.1982 15.03 28.8132 15.03C32.3415 15.03 33.3832 22.8283 40.7449 22.5483C43.3682 22.2967 45.8482 21.0217 47.4065 18.785C40.9782 17.95 35.1099 15.2183 32.2415 10.575C29.2665 11.1167 16.7932 15.4217 17.1082 24.4183C17.4365 33.8 31.3115 36.4083 35.1932 40.4367C38.2532 43.6133 36.0982 46.815 34.1249 47.9783C31.0782 40.0533 21.0632 39.49 17.0765 45.21C23.5049 46.045 29.3732 48.7767 32.2415 53.42C39.3332 51.9317 42.7532 45.7133 41.4515 41.2283C39.2965 33.805 25.3049 32.5 21.5932 25.5467C19.6099 21.635 21.2399 17.4583 24.8665 15.0283C23.4432 16.8633 22.7632 18.9767 22.7932 20.955C23.1149 21.305 23.2515 22.1283 23.2549 22.145C23.3015 22.4317 23.3865 23.0383 23.2365 23.41C23.3949 23.8267 23.5982 24.2233 23.8415 24.6033C24.3265 24.725 24.8732 25.3583 24.8832 25.3717C25.4165 25.985 25.4999 26.3733 25.5132 26.52C25.8432 26.815 26.1965 27.0983 26.5715 27.375C26.8832 27.3383 27.3599 27.49 27.8432 27.7967C28.3999 28.1617 28.6782 28.5233 28.7565 28.7933C29.1449 29.02 29.5432 29.2417 29.9499 29.46C30.2615 29.375 30.7749 29.4733 31.2899 29.7383C31.8065 30.0033 32.1865 30.365 32.2982 30.67C32.7065 30.8733 33.1182 31.0783 33.5315 31.2817C33.8432 31.1917 34.3615 31.2817 34.8815 31.5467C35.3899 31.8067 35.7632 32.1633 35.8815 32.465C36.3032 32.6833 36.7199 32.905 37.1315 33.13C37.5149 33.0517 38.1249 33.285 38.4582 33.4833C38.9499 33.7767 39.2865 34.1583 39.3865 34.4667C39.8032 34.7367 40.2049 35.015 40.5899 35.3017C40.9149 35.2867 41.3949 35.4733 41.8415 35.8533C42.3232 36.2733 42.5715 36.735 42.5815 37.055C42.9149 37.4117 43.2215 37.7817 43.4949 38.17C43.8899 38.2683 44.2865 38.725 44.5082 39.1833C44.8149 39.8517 44.7749 40.3217 44.6849 40.565C45.2165 42.225 45.3599 44.3167 44.5049 46.7217C44.4965 46.7467 44.4849 46.7767 44.4715 46.8067C46.2615 44.8567 47.4732 42.4567 47.3715 39.575C47.0465 30.1933 33.1732 27.585 29.2915 23.5567Z" fill="#96D8D8"/>
<path d="M34.6167 24.54C33.0317 22.7167 32.0183 19.4833 30.27 18.2217C29.4867 21.005 31.1183 24.05 34.6167 24.54Z" fill="#C8102E"/>
<path d="M33.3599 50.7017C32.7882 52.3783 32.2415 53.4183 32.2415 53.4183C29.3749 48.775 23.5049 46.0433 17.0765 45.2083C23.7199 41.8783 30.5965 45.3817 33.3599 50.7017ZM47.4065 18.7817C40.7649 22.1117 33.8865 18.6083 31.1232 13.2867C31.6949 11.61 32.2415 10.57 32.2415 10.57C29.4332 11.0817 16.7899 15.34 17.1082 24.4133C17.4365 33.795 31.3115 36.4033 35.1932 40.4317C38.2532 43.6083 36.0982 46.81 34.1249 47.9733C33.8999 48.9933 33.6265 49.915 33.3599 50.7C34.8049 50.4483 39.1865 48.1283 39.2149 43.665C39.2549 37.5133 31.3032 35.8833 25.2782 32.15C20.3182 29.0767 19.3549 26.0283 19.1032 24.0983C18.5115 19.5583 21.7149 15.4117 26.3732 13.4567C25.7049 14.0267 25.1865 14.5817 24.8665 15.025C23.4432 16.86 22.7632 18.9733 22.7932 20.9517C23.1149 21.3033 23.2515 22.125 23.2549 22.1417C23.3015 22.4283 23.3865 23.035 23.2365 23.4067C23.3949 23.8233 23.5982 24.22 23.8415 24.6C24.3265 24.7217 24.8732 25.355 24.8832 25.3683C25.4165 25.9817 25.4999 26.37 25.5132 26.5167C25.8432 26.8117 26.1965 27.095 26.5715 27.3717C26.8832 27.335 27.3599 27.4867 27.8432 27.7933C28.3999 28.1583 28.6782 28.52 28.7565 28.79C29.1449 29.0167 29.5432 29.2383 29.9499 29.4567C30.2615 29.3717 30.7749 29.47 31.2899 29.735C31.8065 30 32.1865 30.3617 32.2982 30.6667C32.7065 30.87 33.1182 31.075 33.5315 31.2783C33.8432 31.1883 34.3615 31.2783 34.8815 31.5433C35.3899 31.8033 35.7632 32.16 35.8815 32.4617C36.3032 32.68 36.7199 32.9017 37.1315 33.1267C37.5149 33.0483 38.1249 33.2817 38.4582 33.48C38.9499 33.7733 39.2865 34.155 39.3865 34.4633C39.8032 34.7333 40.2049 35.0117 40.5899 35.2983C40.9149 35.2833 41.3949 35.47 41.8415 35.85C42.3232 36.27 42.5715 36.7317 42.5815 37.0517C42.9149 37.4083 43.2215 37.7783 43.4949 38.1667C43.8899 38.265 44.2865 38.7217 44.5082 39.18C44.8149 39.8483 44.7749 40.3183 44.6849 40.5617C45.2165 42.2217 45.3599 44.3133 44.5049 46.7183C46.7932 42.84 46.5732 38.9883 44.0149 35.7333C38.6682 28.93 25.2165 28.1183 25.2665 20.32C25.2782 18.465 26.0532 16.99 27.0449 15.87C27.5332 15.3433 28.1965 15.0267 28.8115 15.0267C32.3399 15.0267 33.3815 22.825 40.7432 22.545C43.3699 22.2933 45.8499 21.0183 47.4065 18.7817Z" fill="#639FB6"/>
<path d="M42.845 53.935V52.9234H42.4667V52.7117H43.4617V52.9234H43.0933V53.935H42.845ZM43.61 53.935V52.71H43.9967L44.22 53.5534L44.445 52.71H44.8317V53.935H44.595V52.9584L44.33 53.935H44.105L43.8417 52.9584V53.935H43.61Z" fill="#96D8D8"/>
</svg>
