<svg width="64" height="64" viewBox="0 0 64 64" fill="none" xmlns="http://www.w3.org/2000/svg">
<path d="M43.1755 54.4158V55.3765H42.9352V54.4158H42.6571V54.1772H43.4536V54.4158H43.1755ZM44.4773 55.3765V54.6687L44.275 55.1097H44.0628L43.8605 54.6687V55.3766H43.6203V54.1771H43.8605L44.1689 54.8176L44.4773 54.1771H44.7175V55.3765L44.4773 55.3765Z" fill="#00205B"/>
<path d="M55.0015 26.4437C55.0074 26.4333 55.0109 26.4218 55.012 26.4099C55.013 26.398 55.0115 26.3861 55.0074 26.3748C55.0034 26.3636 54.997 26.3534 54.9887 26.3449C54.9804 26.3363 54.9703 26.3297 54.9591 26.3254C54.2661 26.0654 53.6127 25.8855 52.9512 25.7914C52.9388 25.7898 52.9271 25.7852 52.9168 25.7781C52.9066 25.771 52.8982 25.7615 52.8924 25.7505C52.8866 25.7394 52.8835 25.7272 52.8835 25.7147C52.8834 25.7022 52.8862 25.6899 52.8919 25.6788C53.434 24.5919 53.7847 23.343 54.0463 21.9899C54.0575 21.9317 54.0044 21.8802 53.9471 21.8952C52.7283 22.2117 51.3333 22.7848 50.1727 23.3392C50.1624 23.3442 50.151 23.3469 50.1395 23.3469C50.1281 23.3469 50.1167 23.3443 50.1064 23.3393C50.096 23.3343 50.087 23.327 50.0798 23.318C50.0727 23.309 50.0677 23.2984 50.0653 23.2872C49.8947 22.5357 49.692 21.6877 49.2758 20.9531C49.27 20.9432 49.2622 20.9346 49.253 20.9279C49.2437 20.9212 49.2331 20.9165 49.2219 20.9142C49.2107 20.9118 49.1992 20.9118 49.188 20.9142C49.1768 20.9165 49.1662 20.9212 49.1569 20.9279C47.9289 21.8164 46.8315 22.7934 45.8758 23.8662C45.8675 23.8755 45.8572 23.8827 45.8456 23.8873C45.8341 23.8918 45.8216 23.8936 45.8092 23.8924C45.7969 23.8912 45.7849 23.887 45.7745 23.8804C45.764 23.8737 45.7552 23.8646 45.749 23.8539C45.5026 23.4473 45.1817 23.0838 44.7584 22.7792C44.7421 22.7675 44.7221 22.7625 44.7023 22.7652C44.6825 22.7678 44.6645 22.7779 44.6519 22.7934C43.0752 24.7434 41.0908 26.9584 38.53 28.7926C38.4768 28.8306 38.404 28.7788 38.423 28.7162C39.0044 26.8146 39.8798 25.0025 40.733 23.3385C40.7385 23.328 40.7415 23.3163 40.7418 23.3044C40.7421 23.2926 40.7397 23.2808 40.7347 23.27C40.7298 23.2592 40.7224 23.2497 40.7132 23.2422C40.704 23.2346 40.6932 23.2293 40.6816 23.2266C40.3225 23.1453 39.8436 23.0996 39.3898 23.0739C39.3761 23.0733 39.363 23.069 39.3516 23.0615C39.3402 23.054 39.331 23.0436 39.3249 23.0314C39.3189 23.0192 39.3162 23.0056 39.3172 22.992C39.3181 22.9784 39.3227 22.9653 39.3305 22.954C40.4099 21.3536 41.235 19.407 41.7582 17.6567C41.7617 17.6451 41.7623 17.6328 41.7601 17.6209C41.7579 17.609 41.7529 17.5978 41.7454 17.5883C41.738 17.5787 41.7284 17.571 41.7174 17.5659C41.7065 17.5608 41.6944 17.5584 41.6823 17.5589C40.7801 17.5992 39.6906 17.8022 38.7886 18.1151C38.7762 18.1196 38.7628 18.1207 38.7499 18.1183C38.7369 18.1159 38.7248 18.1102 38.7148 18.1016C38.7048 18.0931 38.6972 18.082 38.6929 18.0696C38.6885 18.0571 38.6875 18.0438 38.69 18.0308C38.9536 16.5185 38.8314 14.8225 38.5431 13.2509C38.5411 13.2396 38.5367 13.2289 38.5301 13.2195C38.5235 13.2101 38.5149 13.2023 38.505 13.1966C38.495 13.1909 38.4839 13.1874 38.4725 13.1865C38.4611 13.1855 38.4496 13.1871 38.4388 13.1911C37.8021 13.431 37.0728 13.7982 36.4091 14.1991C36.397 14.2066 36.3831 14.2106 36.3689 14.2106C36.3547 14.2107 36.3407 14.2068 36.3286 14.1994C36.3165 14.1919 36.3066 14.1813 36.3002 14.1686C36.2937 14.156 36.2909 14.1418 36.2921 14.1276C36.392 12.7057 36.2345 11.1343 35.9297 9.8683C35.9273 9.85815 35.9228 9.84862 35.9165 9.84031C35.9102 9.832 35.9023 9.82511 35.8931 9.82007C35.884 9.81504 35.8739 9.81197 35.8635 9.81107C35.8531 9.81017 35.8427 9.81145 35.8328 9.81484C35.3694 9.97596 34.8246 10.2613 34.3046 10.5716C34.2946 10.5777 34.2834 10.5814 34.2717 10.5825C34.26 10.5836 34.2483 10.5821 34.2373 10.5781C34.2263 10.574 34.2163 10.5676 34.2081 10.5592C34.2 10.5508 34.1938 10.5406 34.1901 10.5295C33.7007 9.09708 32.9154 7.70388 32.0691 6.31995C32.0619 6.30816 32.0517 6.29842 32.0396 6.29167C32.0275 6.28492 32.0139 6.28137 32 6.28137C31.9861 6.28137 31.9725 6.28492 31.9604 6.29167C31.9483 6.29842 31.9381 6.30816 31.9308 6.31995C31.0845 7.70388 30.2993 9.09708 29.8099 10.5295C29.8062 10.5406 29.8 10.5508 29.7918 10.5592C29.7837 10.5676 29.7737 10.574 29.7627 10.5781C29.7517 10.5821 29.74 10.5836 29.7283 10.5825C29.7166 10.5814 29.7054 10.5777 29.6953 10.5716C29.1753 10.2612 28.6305 9.97604 28.1672 9.81484C28.1573 9.81146 28.1469 9.81019 28.1365 9.8111C28.1261 9.81201 28.116 9.81507 28.1069 9.82011C28.0978 9.82514 28.0898 9.83203 28.0835 9.84033C28.0772 9.84863 28.0727 9.85816 28.0703 9.8683C27.7654 11.1342 27.608 12.7057 27.7079 14.1275C27.709 14.1417 27.7062 14.1559 27.6998 14.1686C27.6934 14.1812 27.6835 14.1919 27.6714 14.1993C27.6593 14.2067 27.6453 14.2106 27.6311 14.2105C27.6169 14.2105 27.603 14.2065 27.5909 14.199C26.9272 13.7982 26.1979 13.431 25.5611 13.1911C25.5503 13.1871 25.5389 13.1856 25.5274 13.1865C25.516 13.1875 25.5049 13.1909 25.495 13.1966C25.4851 13.2023 25.4765 13.2102 25.4699 13.2195C25.4633 13.2289 25.4589 13.2396 25.4569 13.2509C25.1686 14.8225 25.0463 16.5185 25.31 18.0308C25.3125 18.0438 25.3115 18.0571 25.3071 18.0695C25.3027 18.082 25.2951 18.093 25.2851 18.1016C25.2751 18.1101 25.263 18.1159 25.2501 18.1182C25.2371 18.1206 25.2238 18.1195 25.2114 18.1151C24.3094 17.8023 23.2199 17.5992 22.3177 17.5589C22.3056 17.5584 22.2935 17.5608 22.2826 17.5659C22.2716 17.571 22.262 17.5787 22.2545 17.5883C22.2471 17.5978 22.2421 17.609 22.2399 17.6209C22.2376 17.6328 22.2383 17.6451 22.2418 17.6567C22.765 19.407 23.5901 21.3536 24.6695 22.954C24.6773 22.9653 24.6818 22.9784 24.6828 22.992C24.6838 23.0056 24.6811 23.0192 24.6751 23.0314C24.669 23.0436 24.6598 23.054 24.6484 23.0615C24.637 23.069 24.6238 23.0733 24.6102 23.0739C24.1564 23.0996 23.6775 23.1453 23.3183 23.2267C23.3068 23.2294 23.296 23.2347 23.2868 23.2422C23.2776 23.2497 23.2703 23.2593 23.2653 23.27C23.2604 23.2808 23.2579 23.2926 23.2582 23.3045C23.2585 23.3163 23.2615 23.328 23.2669 23.3385C24.1217 25.0053 24.9984 26.8205 25.5797 28.7255C25.5981 28.7859 25.5289 28.8368 25.4772 28.8007C23.2085 27.2145 21.0315 24.8875 19.3481 22.7937C19.3355 22.7782 19.3175 22.768 19.2977 22.7653C19.2779 22.7626 19.2578 22.7676 19.2416 22.7793C18.8182 23.0839 18.4974 23.4474 18.251 23.8539C18.2448 23.8646 18.236 23.8737 18.2255 23.8804C18.2151 23.887 18.2032 23.8912 18.1908 23.8924C18.1784 23.8936 18.166 23.8918 18.1544 23.8873C18.1428 23.8827 18.1325 23.8755 18.1243 23.8662C17.1685 22.7934 16.0711 21.8164 14.843 20.9279C14.8337 20.9212 14.8232 20.9165 14.812 20.9142C14.8008 20.9118 14.7893 20.9118 14.7781 20.9142C14.7669 20.9166 14.7563 20.9213 14.7471 20.928C14.7378 20.9347 14.7301 20.9432 14.7243 20.9531C14.308 21.6877 14.1053 22.5357 13.9346 23.2873C13.9321 23.2985 13.9272 23.309 13.92 23.318C13.9129 23.327 13.9039 23.3343 13.8935 23.3393C13.8832 23.3443 13.8719 23.3469 13.8604 23.3468C13.8489 23.3468 13.8376 23.3442 13.8273 23.3392C12.6667 22.7848 11.2717 22.2117 10.0529 21.8952C9.99546 21.8803 9.94241 21.9317 9.9537 21.9899C10.2153 23.343 10.566 24.5919 11.1082 25.6788C11.1138 25.69 11.1167 25.7023 11.1166 25.7148C11.1166 25.7272 11.1135 25.7395 11.1076 25.7506C11.1018 25.7616 11.0934 25.7711 11.0832 25.7782C11.0729 25.7853 11.0611 25.7899 11.0487 25.7915C10.3873 25.8855 9.73376 26.0653 9.04086 26.3253C9.02971 26.3296 9.01962 26.3362 9.01128 26.3448C9.00293 26.3533 8.99653 26.3636 8.99251 26.3748C8.98849 26.386 8.98695 26.398 8.98798 26.4099C8.98902 26.4218 8.99262 26.4333 8.99853 26.4437C9.8133 27.8449 10.7535 29.0009 11.8355 29.9031C11.8451 29.9111 11.8527 29.9213 11.8576 29.9329C11.8625 29.9444 11.8645 29.957 11.8635 29.9695C11.8624 29.982 11.8584 29.9941 11.8517 30.0047C11.845 30.0153 11.8358 30.0241 11.825 30.0304C11.3916 30.2895 10.9902 30.5984 10.6288 30.951C10.6211 30.9586 10.615 30.9676 10.6109 30.9776C10.6067 30.9875 10.6046 30.9982 10.6046 31.009C10.6046 31.0198 10.6067 31.0305 10.6109 31.0404C10.6151 31.0504 10.6212 31.0594 10.6289 31.067C12.0013 32.4172 13.5054 33.6268 15.1185 34.6777C15.1294 34.6848 15.1384 34.6945 15.1448 34.7058C15.1512 34.7171 15.1548 34.7298 15.1553 34.7428C15.1558 34.7558 15.1532 34.7687 15.1476 34.7804C15.1421 34.7922 15.1338 34.8025 15.1235 34.8103C14.525 35.2734 13.9978 35.754 13.5456 36.2946C13.5321 36.3109 13.5255 36.3318 13.5272 36.3528C13.5288 36.3739 13.5385 36.3935 13.5543 36.4076C14.731 37.4489 16.0783 38.2926 17.6424 38.9311C17.6556 38.9365 17.6672 38.9453 17.6759 38.9566C17.6846 38.968 17.6902 38.9814 17.6919 38.9956C17.6937 39.0098 17.6917 39.0242 17.686 39.0373C17.6804 39.0505 17.6714 39.0619 17.6599 39.0704C17.1035 39.4886 16.6514 39.9511 16.2353 40.4518C16.2276 40.4611 16.222 40.472 16.2191 40.4837C16.2161 40.4954 16.2158 40.5076 16.2182 40.5195C16.2205 40.5313 16.2255 40.5425 16.2328 40.5522C16.24 40.5619 16.2493 40.5698 16.26 40.5754C17.3778 41.1499 18.7344 41.5212 20.1416 41.7758C20.2055 41.7874 20.2106 41.8758 20.1485 41.8951C18.3515 42.4512 16.701 43.1697 15.1209 44.0495C15.1091 44.0562 15.0992 44.0656 15.092 44.0771C15.0848 44.0885 15.0806 44.1016 15.0797 44.1151C15.0788 44.1285 15.0813 44.142 15.087 44.1543C15.0926 44.1666 15.1012 44.1773 15.112 44.1854C16.2702 45.0457 17.4514 45.7955 18.8258 46.3314C18.8389 46.3363 18.8505 46.3447 18.8594 46.3556C18.8682 46.3665 18.874 46.3795 18.8762 46.3934C18.8785 46.4072 18.877 46.4214 18.8719 46.4345C18.8669 46.4477 18.8585 46.4592 18.8476 46.468C16.9692 47.999 15.4333 49.7614 14.0918 51.6786C14.0516 51.7359 14.0996 51.8144 14.1692 51.8056C16.0834 51.5621 17.8649 51.263 19.3998 50.8423C19.4142 50.8381 19.4295 50.8383 19.4438 50.8428C19.4581 50.8473 19.4708 50.8558 19.4803 50.8674C19.4898 50.879 19.4957 50.8932 19.4972 50.9081C19.4988 50.923 19.4959 50.938 19.489 50.9513C19.1602 51.6075 18.8637 52.3059 18.5932 53.0386C18.5723 53.0952 18.6192 53.1546 18.6791 53.1481C20.4051 52.9611 21.9739 52.742 23.2256 52.458C23.2956 52.4421 23.3479 52.519 23.3085 52.5791C22.779 53.3856 22.4038 54.2586 22.1024 55.2175C22.084 55.2758 22.1357 55.3334 22.1956 55.322C25.2215 54.7441 27.9752 53.8783 30.418 52.7059C30.4839 52.6742 30.5594 52.7196 30.5644 52.7927C30.7115 54.9624 31.5339 56.4712 32.6598 57.6835C32.7016 57.7285 32.7722 57.7306 32.8172 57.6891L34.398 56.2299C34.4459 56.1856 34.4504 56.1118 34.4075 56.0627C34.0949 55.7052 32.6561 54.0724 32.9106 52.831C32.941 52.6832 33.1051 52.6041 33.2426 52.6663C35.0652 53.4909 38.8426 54.7501 41.8087 55.3226C41.8672 55.334 41.9165 55.2775 41.8986 55.2206C41.597 54.2605 41.2215 53.3865 40.6915 52.5792C40.6521 52.519 40.7044 52.4421 40.7744 52.4581C42.0261 52.742 43.5949 52.9611 45.3209 53.1481C45.3809 53.1546 45.4277 53.0952 45.4068 53.0385C45.1362 52.3059 44.8398 51.6075 44.511 50.9513C44.5041 50.938 44.5013 50.923 44.5028 50.9081C44.5044 50.8932 44.5103 50.8791 44.5198 50.8675C44.5292 50.8559 44.5419 50.8473 44.5562 50.8429C44.5705 50.8384 44.5858 50.8382 44.6002 50.8423C46.1351 51.263 47.9165 51.5621 49.8308 51.8056C49.9003 51.8144 49.9484 51.7359 49.9081 51.6785C48.5667 49.7615 47.0308 47.999 45.1524 46.4679C45.1415 46.4591 45.1331 46.4476 45.1281 46.4345C45.1231 46.4214 45.1216 46.4072 45.1238 46.3933C45.126 46.3795 45.1318 46.3665 45.1407 46.3556C45.1495 46.3447 45.1611 46.3363 45.1742 46.3314C46.5486 45.7955 47.7297 45.0457 48.888 44.1854C48.8988 44.1773 48.9074 44.1666 48.9131 44.1543C48.9187 44.142 48.9212 44.1285 48.9203 44.1151C48.9195 44.1016 48.9152 44.0885 48.908 44.0771C48.9008 44.0656 48.8909 44.0562 48.8791 44.0495C47.299 43.1697 45.6484 42.4512 43.8515 41.8951C43.7894 41.8759 43.7945 41.7874 43.8585 41.7758C45.2656 41.5212 46.6222 41.1498 47.74 40.5754C47.7507 40.5698 47.76 40.5619 47.7673 40.5522C47.7745 40.5425 47.7795 40.5314 47.7819 40.5195C47.7842 40.5076 47.7839 40.4954 47.7809 40.4837C47.778 40.472 47.7724 40.4611 47.7647 40.4518C47.3486 39.951 46.8965 39.4886 46.34 39.0704C46.3285 39.0619 46.3195 39.0505 46.3139 39.0373C46.3083 39.0242 46.3062 39.0098 46.308 38.9956C46.3098 38.9814 46.3153 38.968 46.3241 38.9566C46.3328 38.9453 46.3443 38.9365 46.3576 38.9311C47.9217 38.2926 49.2689 37.4489 50.4457 36.4075C50.4784 36.3786 50.4823 36.3281 50.4543 36.2946C50.0021 35.754 49.475 35.2733 48.8764 34.8103C48.8661 34.8025 48.8578 34.7922 48.8523 34.7804C48.8467 34.7687 48.8441 34.7558 48.8446 34.7428C48.8451 34.7298 48.8487 34.7171 48.8551 34.7058C48.8615 34.6945 48.8705 34.6848 48.8814 34.6777C50.4946 33.6268 51.9986 32.4172 53.3711 31.067C53.4033 31.0353 53.4036 30.9825 53.3711 30.9511C53.0098 30.5985 52.6083 30.2895 52.175 30.0305C52.1642 30.0242 52.155 30.0154 52.1482 30.0048C52.1415 29.9942 52.1375 29.9821 52.1364 29.9696C52.1354 29.957 52.1374 29.9445 52.1423 29.9329C52.1472 29.9213 52.1548 29.9111 52.1645 29.9031C53.2465 29.0009 54.1868 27.8449 55.0015 26.4437Z" fill="#00205B"/>
<path d="M31.6983 26.5117C31.7121 26.5204 31.7204 26.5352 31.7207 26.5517C31.7315 27.1536 31.7464 27.7082 31.766 28.2474C31.7668 28.2677 31.7833 28.2838 31.8037 28.284L32.2327 28.2859H32.2331C32.2383 28.2858 32.2435 28.2848 32.2483 28.2827C32.2531 28.2806 32.2574 28.2776 32.261 28.2739C32.2646 28.2701 32.2674 28.2656 32.2692 28.2607C32.2711 28.2558 32.2719 28.2506 32.2717 28.2454C32.256 27.8668 32.2413 27.4838 32.2282 27.1073C32.2279 27.0972 32.23 27.0872 32.2344 27.0781C32.2387 27.069 32.2452 27.0611 32.2533 27.055C34.2872 25.5146 35.8939 23.7164 36.6614 22.1212L36.6391 22.1092C35.6958 23.6873 34.2167 25.2021 32.2429 26.6116C32.2312 26.6194 32.2116 26.6131 32.2111 26.5958C32.1351 24.1801 32.1356 22.1885 32.2128 20.507C32.2193 20.2803 32.2252 20.0427 32.2309 19.7804C32.2312 19.7669 32.235 19.7537 32.2419 19.7421C32.2489 19.7305 32.2587 19.7209 32.2705 19.7143C33.1394 19.2263 33.9335 18.5908 34.6981 17.7714L34.6804 17.7532C33.8387 18.49 33.0507 19.0343 32.2712 19.4174C32.2668 19.4195 32.262 19.4201 32.2572 19.4193C32.2525 19.4185 32.2482 19.4163 32.2448 19.4129C32.2426 19.4107 32.241 19.4081 32.2398 19.4053C32.2387 19.4025 32.2382 19.3995 32.2383 19.3965C32.2905 16.4159 32.2208 12.9374 32.0762 11.3052L32.0508 11.3064C32.0654 13.0664 32.0453 14.8266 31.9905 16.5859C31.9904 16.5899 31.9886 16.5938 31.9856 16.5966C31.9826 16.5994 31.9787 16.6009 31.9746 16.6008C31.9746 16.6008 31.9673 16.6 31.9636 16.5959C31.2469 15.839 30.5882 14.9951 30.0056 14.0877L29.9837 14.1003C30.4659 15.0276 31.1047 15.9651 31.9368 16.9667C31.9628 16.998 31.9765 17.0376 31.975 17.0783C31.9363 18.2054 31.8827 19.332 31.8144 20.4577C31.7959 20.8332 31.7794 21.2304 31.7626 21.7078C31.7621 21.724 31.7439 21.7303 31.7331 21.7229C30.8166 21.0721 29.9734 20.178 29.2946 19.1373L29.2726 19.1502C29.8747 20.2809 30.6895 21.2432 31.6947 22.0101C31.73 22.0371 31.7503 22.0794 31.749 22.1235C31.7087 23.4365 31.6968 24.7502 31.7132 26.0638C31.7133 26.0668 31.7121 26.0698 31.71 26.072C31.7081 26.0738 31.7057 26.0749 31.7032 26.0753C31.7006 26.0756 31.698 26.0751 31.6957 26.0739C29.8922 24.9731 28.3986 23.5462 27.2563 21.8329L27.2348 21.8461C28.2614 23.6627 29.8884 25.3632 31.6983 26.5117ZM18.693 31.2769C18.6988 31.2769 18.7046 31.2757 18.7099 31.2732L19.003 31.1346C19.0079 31.1324 19.0121 31.129 19.0154 31.1247C19.0186 31.1205 19.0208 31.1155 19.0217 31.1103C19.0228 31.105 19.0225 31.0996 19.021 31.0945C19.0195 31.0894 19.0167 31.0847 19.013 31.0809C18.9058 30.969 18.7979 30.8577 18.6893 30.747C18.6664 30.7235 18.6534 30.6921 18.6529 30.6593C18.633 29.5213 18.2533 28.5121 17.5242 27.6595L17.5039 27.6749C18.0545 28.5039 18.3216 29.3853 18.3202 30.3693C18.3202 30.3714 18.3181 30.372 18.316 30.3711C17.6183 29.6759 16.8577 28.9645 16.0554 28.2563C16.0431 28.2453 16.0335 28.2317 16.0274 28.2164C16.0213 28.2011 16.0188 28.1845 16.0202 28.1681C16.0908 27.3291 15.9484 26.5367 15.5969 25.8129L15.5735 25.8226C15.8188 26.5258 15.8789 27.2322 15.7574 27.9817L15.7451 27.9862C14.8576 27.1695 13.8776 26.1994 12.7496 25.0209L12.7307 25.0379C13.6791 26.1684 14.7993 27.3612 16.1552 28.6843C16.3739 28.8887 16.5889 29.097 16.8 29.3091C16.6677 29.319 16.5331 29.3238 16.3998 29.3238C15.4683 29.3239 14.5258 29.091 13.5187 28.6116L13.5066 28.6339C14.5713 29.2847 15.6926 29.6011 16.9347 29.6011C16.9765 29.6011 17.0184 29.6006 17.0618 29.5999C17.0811 29.5999 17.0991 29.6074 17.1123 29.6207C17.5624 30.0786 18.0698 30.6162 18.6634 31.2639C18.6711 31.2723 18.6818 31.2769 18.693 31.2769ZM48.0706 28.3042C49.1 27.2634 50.0755 26.2057 50.9699 25.1608L50.9512 25.1436C49.8915 26.2085 48.812 27.2615 47.651 28.3625C47.649 28.3643 47.6464 28.3654 47.6437 28.3653C47.6393 28.3653 47.6339 28.3626 47.6331 28.3565C47.5232 27.617 47.5476 26.81 47.7037 26.0223L47.6793 26.0155C47.4025 26.7798 47.3025 27.6092 47.3736 28.5513C47.3763 28.5867 47.362 28.622 47.3356 28.6457C46.4551 29.4315 45.6245 30.2267 44.8668 31.0093C44.8632 31.013 44.8606 31.0174 44.859 31.0223C44.8575 31.0273 44.8572 31.0324 44.858 31.0375C44.8589 31.0426 44.8609 31.0474 44.8639 31.0515C44.8669 31.0557 44.8709 31.059 44.8755 31.0614L45.174 31.2152C45.183 31.2198 45.1933 31.2213 45.2032 31.2195C45.2132 31.2177 45.2222 31.2127 45.2291 31.2053C45.5407 30.864 45.8567 30.5267 46.1769 30.1934C46.1904 30.1796 46.2066 30.1685 46.2243 30.1608C46.2421 30.1532 46.2613 30.1491 46.2806 30.1489C47.5297 30.1341 48.6021 29.8424 49.559 29.2573L49.5472 29.2348C48.6159 29.6459 47.7829 29.8374 46.9256 29.8374C46.8022 29.8374 46.6788 29.8334 46.5556 29.8256C46.5535 29.8255 46.5515 29.8247 46.5498 29.8235C46.5481 29.8222 46.5469 29.8205 46.5462 29.8186C46.5454 29.8167 46.5451 29.8147 46.5455 29.8128C46.5459 29.8108 46.5468 29.809 46.5482 29.8076C47.0462 29.297 47.5538 28.7958 48.0706 28.3042ZM33.0993 49.2666C32.2163 49.2666 31.3781 49.5088 30.9719 50.1055C30.9672 50.1125 30.9587 50.115 30.9516 50.1103C30.6855 49.9368 29.8096 49.4066 28.7892 49.4066C28.2401 49.4066 27.6415 49.6731 27.037 50.0152C27.0297 50.0193 27.0213 50.0209 27.013 50.0197C25.4057 49.7829 23.8649 50.0943 22.3573 50.6801C23.9324 50.2815 25.4171 50.0271 26.5977 50.2579C26.6049 50.2594 26.6064 50.2689 26.6002 50.2726C25.9 50.6982 25.2062 51.1638 24.5868 51.3739C25.8647 51.2258 27.5316 49.7733 28.8244 49.7733C29.6862 49.7733 30.5542 50.3108 30.7832 50.4634C30.7905 50.4683 30.7929 50.4767 30.7903 50.4851C30.7273 50.688 30.7026 50.9192 30.7247 51.1818C31.1459 50.0163 32 49.7476 33.1704 49.7476C34.0704 49.7476 34.9719 50.068 36.0244 50.3075C36.0343 50.3097 36.0435 50.3144 36.0512 50.321C36.6942 50.8805 37.8754 51.4399 38.4391 51.5344L38.6811 51.575L38.4526 51.4857C37.97 51.2972 37.1147 50.8716 36.6854 50.4538C36.6801 50.4487 36.6849 50.4401 36.6922 50.4414C37.1303 50.5154 37.5963 50.5644 38.0992 50.5644C39.9723 50.5644 40.8155 50.23 41.3454 50.0123C40.7822 50.1317 40.2461 50.3025 38.3651 50.3025C36.6507 50.3025 34.4961 49.2666 33.0993 49.2666ZM20.0364 33.7075C20.3529 33.5475 20.671 33.3907 20.9908 33.2372L20.6191 32.5197C19.6862 32.9677 18.7669 33.4436 17.8625 33.9468L18.234 34.6643C18.5439 34.4919 18.8556 34.3227 19.1689 34.1566L19.2257 34.1265L21.0838 37.7156C21.3339 37.5835 21.5851 37.4535 21.8373 37.3255L19.9792 33.7364L20.0365 33.7074L20.0364 33.7075ZM23.798 36.4015C23.9025 36.4015 24.0065 36.3836 24.1071 36.3482C24.4807 36.2165 24.8559 36.0892 25.2326 35.9664C25.469 35.8893 25.6593 35.7267 25.7686 35.5087C25.8758 35.2943 25.8921 35.0499 25.8142 34.8202L24.8476 31.9704C24.7197 31.5931 24.3529 31.3296 23.9555 31.3296C23.8598 31.3296 23.765 31.3448 23.6738 31.3745C23.2981 31.497 22.9238 31.6239 22.5511 31.7552C22.0723 31.9237 21.8168 32.4563 21.9818 32.9422L22.9483 35.7921C23.0084 35.9697 23.1227 36.1241 23.2751 36.2334C23.4276 36.3428 23.6104 36.4015 23.798 36.4015ZM23.1108 32.4158C23.284 32.356 23.4574 32.2972 23.6313 32.2392C23.7237 32.2088 23.8244 32.2161 23.9115 32.2595C23.9986 32.3029 24.065 32.3789 24.0964 32.471L24.8994 34.8394C24.915 34.8847 24.9213 34.9327 24.9182 34.9804C24.915 35.0282 24.9023 35.0749 24.8809 35.1178C24.8596 35.1609 24.8298 35.1993 24.7935 35.2309C24.7571 35.2624 24.7149 35.2865 24.6692 35.3016C24.4955 35.3592 24.3226 35.418 24.1498 35.4777C24.1114 35.491 24.071 35.4978 24.0304 35.4978H24.0302C23.9542 35.4978 23.8801 35.474 23.8183 35.4297C23.7566 35.3854 23.7102 35.3229 23.6858 35.2509L22.8827 32.8826C22.8177 32.691 22.9199 32.4816 23.1108 32.4158ZM32.6976 34.9312C33.2176 34.9312 33.6164 34.5363 33.6164 34.0325V31.0232C33.6164 30.5101 33.2036 30.0878 32.696 30.0819C32.3009 30.0772 31.9057 30.0772 31.5106 30.0819C31.0029 30.0876 30.5901 30.5099 30.5901 31.0232V34.0325C30.5901 34.5365 30.9888 34.9313 31.4977 34.9313C31.5953 34.9307 32.0475 34.9237 32.6976 34.9312ZM31.4626 31.256C31.4624 31.0537 31.6267 30.8882 31.8284 30.8872C32.0117 30.8862 32.195 30.8862 32.3782 30.8872C32.5798 30.8884 32.744 31.0539 32.744 31.256V33.7569C32.7437 33.8534 32.7051 33.9459 32.6367 34.0141C32.5684 34.0823 32.4758 34.1206 32.3792 34.1206C32.1959 34.1196 32.0125 34.1196 31.8292 34.1206C31.6262 34.1206 31.4626 33.9574 31.4626 33.7569V31.256ZM31.2523 46.4186H32.5521L32.7541 47.2113H33.6126L32.4709 42.9933H31.3335L30.1917 47.2113H31.0503L31.2523 46.4186ZM31.9022 43.8684L32.3501 45.6258H31.4543L31.9022 43.8684ZM34.1197 39.6143V38.2953C34.1197 37.8349 33.7463 37.4628 33.286 37.4628H31.4645V41.6807H32.2913V40.448H33.286C33.7463 40.448 34.1196 40.0747 34.1196 39.6144L34.1197 39.6143ZM33.2938 39.399C33.2938 39.4669 33.2668 39.5321 33.2188 39.5802C33.1707 39.6282 33.1056 39.6552 33.0376 39.6553H32.2913V38.2555H33.0376C33.1056 38.2555 33.1707 38.2825 33.2188 38.3306C33.2668 38.3786 33.2938 38.4438 33.2938 38.5117V39.399ZM22.9748 42.9934V47.2113H25.4437V46.4185H23.8099V42.9934H22.9748ZM26.1204 37.4628H25.4632L24.5476 39.5769L23.632 37.4628H22.9747V41.6807H23.8016V39.7346L24.5476 41.423L25.2936 39.7346V41.6806H26.1204V37.4628ZM27.8205 35.3243L27.5887 33.8885L27.6508 33.8776C27.7682 33.8573 27.8858 33.8374 28.0036 33.818L28.0428 33.8115L28.0658 33.8438C28.3711 34.273 28.6767 34.7039 28.9827 35.1364C29.2575 35.0953 29.5342 35.0565 29.8073 35.0205C29.5062 34.5912 29.2051 34.1633 28.9045 33.7373L28.859 33.6729L28.9315 33.6421C29.1165 33.564 29.2699 33.4261 29.3673 33.2504C29.4646 33.0747 29.5001 32.8715 29.4682 32.6732L29.2202 31.1368C29.1472 30.6859 28.7505 30.3458 28.2973 30.3458C28.2521 30.3458 28.2063 30.3493 28.1613 30.3561C27.5096 30.4541 26.86 30.5653 26.2129 30.6899L26.9859 35.4773C27.2637 35.4239 27.5419 35.3729 27.8205 35.3243ZM27.2383 31.3238C27.4924 31.2798 27.7468 31.2379 28.0015 31.198C28.2012 31.1667 28.3896 31.3083 28.4212 31.5034L28.5881 32.537C28.5959 32.5843 28.5942 32.6326 28.5832 32.6792C28.5721 32.7258 28.5518 32.7697 28.5236 32.8084C28.4954 32.8474 28.4598 32.8803 28.4187 32.9054C28.3777 32.9305 28.332 32.9471 28.2845 32.9543C28.0304 32.9941 27.7767 33.0359 27.5232 33.0797L27.4599 33.0906L27.1763 31.3345L27.2383 31.3238ZM29.5443 41.6807H30.3942L29.3555 37.4628H28.2294L27.1907 41.6807H28.0407L28.219 40.888H29.3659L29.5443 41.6807ZM28.3972 40.0953L28.7925 38.3379L29.1877 40.0953H28.3972ZM37.263 43.7861V42.9933H34.6178V47.2113H35.4529V45.4986H36.7432V44.706H35.4529V43.7861H37.263ZM35.2796 30.2409L34.4704 35.0223C34.7482 35.0607 35.03 35.1021 35.3097 35.1455L35.7744 32.3989L35.8555 32.6357C36.1709 33.556 36.4835 34.4772 36.7933 35.3994C37.0137 35.4405 37.2341 35.4831 37.4542 35.5272L38.2633 30.7459C37.9861 30.6903 37.7084 30.6371 37.4303 30.5862L36.9653 33.3341L36.8846 33.0942C36.5748 32.1744 36.2623 31.2556 35.9468 30.3378C35.7246 30.3041 35.5022 30.2717 35.2796 30.2409ZM39.2027 47.2113H40.3898C40.8548 47.2113 41.2318 46.8381 41.2318 46.3776V45.7738C41.2318 45.4609 41.1105 45.1743 40.8292 45.0317C40.8292 45.0317 39.3515 44.3743 39.3314 44.3634C39.261 44.3254 39.1927 44.2314 39.1927 44.136V44.0429C39.1927 43.9011 39.3089 43.7861 39.4521 43.7861H40.1376C40.2806 43.7861 40.3967 43.9009 40.3967 44.0425V44.2187H41.2318V43.827C41.2318 43.3666 40.8548 42.9933 40.3898 42.9933H39.2027C38.7376 42.9933 38.3607 43.3666 38.3607 43.827V44.2616C38.3607 44.5744 38.482 44.861 38.7634 45.0035C38.7634 45.0035 40.2411 45.6611 40.2611 45.672C40.3315 45.7099 40.3998 45.8039 40.3998 45.8993V46.1618C40.3998 46.3035 40.2836 46.4185 40.1404 46.4185H39.4549C39.3119 46.4185 39.1959 46.3037 39.1959 46.1621V45.9833H38.3606V46.3777C38.3606 46.8381 38.7376 47.2113 39.2027 47.2113ZM41.2317 40.8879H39.623V39.9681H40.7171V39.1755H39.6229V38.2556H41.2317V37.4629H38.7961V41.6807H41.2317L41.2317 40.8879ZM37.7259 40.8879H36.2V37.4628H35.3731V41.6807H37.7259V40.8879ZM39.8802 36.2703L41.1677 32.4394L41.2285 32.4605C41.5636 32.5766 41.8974 32.6962 42.2301 32.8192L42.4875 32.0533C41.5167 31.6943 40.5354 31.3645 39.5448 31.0644L39.2875 31.8303C39.6269 31.9331 39.9652 32.0394 40.3023 32.1492L40.3635 32.169L39.0759 36C39.3447 36.0879 39.6128 36.178 39.8802 36.2703ZM29.1867 43.7861V42.9933H26.5413V47.2113H29.1867V46.4185H27.3765V45.4986H28.6668V44.706H27.3765V43.7861H29.1867ZM45.481 33.4777C45.1321 33.2922 44.7809 33.1108 44.4276 32.9336C44.3007 32.8696 44.1606 32.8365 44.0185 32.8368C43.6681 32.8368 43.3382 33.0372 43.1779 33.3473L41.7966 36.0209C41.6853 36.2364 41.6647 36.4806 41.7388 36.7086C41.8142 36.9405 41.9781 37.1297 42.2003 37.2412C42.5544 37.4189 42.9064 37.6007 43.2561 37.7867C43.3895 37.8578 43.5382 37.8953 43.6894 37.8958C44.0255 37.8958 44.3302 37.7096 44.4851 37.41L45.8665 34.7365C46.1021 34.2807 45.9292 33.716 45.481 33.4777ZM44.9844 34.5429L43.8365 36.7648C43.8059 36.8241 43.7596 36.8739 43.7027 36.9086C43.6457 36.9433 43.5802 36.9615 43.5135 36.9614C43.455 36.9614 43.3964 36.947 43.344 36.9196C43.182 36.8348 43.0196 36.7509 42.8567 36.6679C42.8139 36.6462 42.7758 36.6162 42.7447 36.5797C42.7135 36.5432 42.6899 36.5009 42.6751 36.4552C42.6604 36.4096 42.6548 36.3614 42.6588 36.3136C42.6627 36.2657 42.6761 36.2192 42.6982 36.1765L43.8461 33.9548C43.8906 33.8681 43.9676 33.8027 44.0602 33.7727C44.1529 33.7428 44.2537 33.7508 44.3405 33.7949C44.5037 33.8782 44.6665 33.9623 44.8288 34.0473C45.0075 34.141 45.0773 34.3634 44.9844 34.5429Z" fill="white"/>
</svg>
