<svg xmlns="http://www.w3.org/2000/svg" viewBox="0 0 96 96" role="img" aria-label="Prop Builder">
  <rect width="96" height="96" rx="20" fill="#07111f"/>
  <path d="M24 66V30h27c8.7 0 15 5.7 15 13.8 0 8.2-6.3 13.9-15 13.9H37.5V66H24Zm13.5-19.4h12c2 0 3.5-1.1 3.5-2.8 0-1.8-1.5-2.9-3.5-2.9h-12v5.7Z" fill="#f8fafc"/>
  <path d="M46 66V30h18.6c7.7 0 12.4 4.1 12.4 10.5 0 3.5-1.6 6.5-4.7 8.2 4 1.6 6.2 4.8 6.2 8.8 0 5.4-4.4 8.5-11.8 8.5H46Zm12.5-22h4.3c1.9 0 3.1-1 3.1-2.6s-1.2-2.6-3.1-2.6h-4.3V44Zm0 13.2h5.9c2 0 3.1-1 3.1-2.7 0-1.6-1.2-2.6-3.1-2.6h-5.9v5.3Z" fill="#38bdf8"/>
  <path d="M21 75h54" stroke="#38bdf8" stroke-width="5" stroke-linecap="round"/>
</svg>
