<svg clip-rule="evenodd" fill-rule="evenodd" stroke-linejoin="round" stroke-miterlimit="2" viewBox="0 0 2500 2500" xmlns="http://www.w3.org/2000/svg" xmlns:xlink="http://www.w3.org/1999/xlink"><linearGradient id="a" gradientTransform="matrix(0 1143.15 -1143.15 0 1655.6 477.175)" gradientUnits="userSpaceOnUse" x1="0" x2="1" y1="0" y2="0"><stop offset="0" stop-color="#ffd100"/><stop offset=".22" stop-color="#ffd100"/><stop offset=".3" stop-color="#ffd724"/><stop offset=".47" stop-color="#ffe87f"/><stop offset=".71" stop-color="#fff"/><stop offset="1" stop-color="#fff"/></linearGradient><linearGradient id="b" gradientUnits="userSpaceOnUse" x1="580.455" x2="1910.965" y1="1271.26" y2="1271.26"><stop offset="0" stop-color="#ffa300"/><stop offset=".13" stop-color="#ffa800"/><stop offset=".29" stop-color="#ffb600"/><stop offset=".45" stop-color="#ffcd00"/><stop offset=".48" stop-color="#ffd100"/><stop offset="1" stop-color="#ffd100"/></linearGradient><path d="m0 0h2500v2500h-2500z" fill="none"/><g fill-rule="nonzero"><path d="m2119.26 705.378c-314.849-314.952-805.351-371.067-1183.2-135.362-104.167 69.105-194.382 157.218-265.921 259.729-.251.302-.512.594-.768.896h-197.306l-372.071 841.843h482.708c69.806 130.124 175.577 237.416 304.69 309.074 246.289 135.54 547.25 124.214 782.655-29.453 27.241-17.835 39.627-51.377 30.515-82.636-9.111-31.258-37.581-52.891-70.138-53.295-7.364.01-14.687 1.098-21.735 3.232-48.113 14.448-98.085 21.764-148.32 21.714-144.548.345-282.376-61.004-378.862-168.636h450.766l77.414-107.866 300.47.031s-9.147 23.251-14.166 34.631l-32.264 73.235h491.768l10.468-38.482c90.326-331.394-3.821-685.781-246.706-928.655zm196.347 914.945h-371.871c15.41-34.944 28.14-71.01 38.077-107.886h-399.312l-77.005 107.886h-357.952l535.172-749.715-.062-.025c-70.537-28.822-146.069-43.441-222.267-43.02-9.727 0-19.387.248-28.981.743-290.33 14.627-521.866 247.71-521.866 532.109-.003 18.476.98 36.939 2.944 55.31h316.142l-94.141 132.459c-29.704 39.947-69.082 72.104-129.109 72.104h-25.771c94.386 162.761 274.535 272.968 480.803 272.968 55.334.054 110.377-8.007 163.371-23.927 2.157-.665 4.4-1.01 6.658-1.025 9.483.392 17.628 6.864 20.153 16.013s-1.147 18.882-9.086 24.083c-171.071 111.682-382.024 144.086-578.727 88.896-196.704-55.19-360.011-192.6-448.017-376.973h-434.655l325.949-737.475h188.332c130.493-169.552 330.649-271.015 544.544-276.041 5.121-.107 10.299-.163 15.415-.163 301.428 0 554.248 180.363 656.609 445.691l-185.332 259.652h282.187c-1.151-251.75-127.3-486.478-336.619-626.353-209.318-139.875-474.452-166.617-707.487-71.36 315.978-196.956 720.338-180.294 1019.04 41.992 298.702 222.285 430.785 604.828 332.864 964.057zm-1048.9-256.779h-304.926c0-1.024-.076-2.074-.076-3.119 0-255.822 207.461-466.668 472.352-480.009 8.819-.451 17.674-.677 26.314-.677 46.871-.05 93.55 5.998 138.86 17.992zm661.167-244.319c13.279 45.847 21.842 92.932 25.555 140.519h-125.816z" fill="#003594"/><path d="m963.706 614.274c285.752-116.811 613.803-48.528 829.212 172.6 215.41 221.129 275.077 550.856 150.821 833.449h371.871c98.015-359.247-34.042-741.861-332.779-964.172-298.736-222.311-703.157-238.929-1019.12-41.877" fill="url(#a)"/><path d="m1910.88 1052.44-71.581 100.307c-68.627-70.556-162.901-110.315-261.328-110.212-6.145 0-12.241.154-18.288.461l123.035-172.385c91.759 37.745 170.891 100.808 228.162 181.829zm70.941 460.005c17.305-64.332 26.045-130.666 25.996-197.285v-3.211h-77.384c17.834 65.765 16.947 135.203-2.56 200.491z" fill="#d7d2cb"/><path d="m1641.48 1908.45c-219.239 143.085-499.508 153.633-728.881 27.43-56.607-71.35-98.395-153.286-122.912-241.001 79.212-3.687 193.925 3.16 278.719 39.603 104.792 102.279 245.558 159.313 391.988 158.824 55.334.054 110.377-8.007 163.372-23.927 2.157-.664 4.4-1.009 6.657-1.024 9.482.396 17.623 6.868 20.145 16.016 2.523 9.148-1.149 18.879-9.088 24.079zm-729.024-492.675c-1.969-18.371-2.953-36.834-2.95-55.31 0-284.425 231.557-517.508 521.891-532.109-336.601 13.695-612.257 264.574-659.302 587.45z" fill="#ffd100"/><path d="m979.572 1620.32h-206.165c4.005 25.142 9.434 50.036 16.26 74.562 79.212-3.687 193.925 3.16 278.72 39.604-34.609-33.884-64.484-72.286-88.815-114.166z" fill="#ffa300"/><path d="m614.763 1620.32c25.707 53.736 58.081 104.019 96.358 149.662 19.993-30.795 46.886-56.508 78.546-75.1-6.826-24.526-12.255-49.42-16.26-74.562z" fill="#ff8200"/><path d="m1682.66 870.583c-70.537-28.822-146.069-43.441-222.267-43.02-9.727 0-19.387.248-28.981.743-336.596 13.695-612.253 264.574-659.298 587.45h-191.656l236.074-532.908h-122.14c130.493-169.552 330.649-271.015 544.544-276.041 5.121-.107 10.299-.163 15.415-.163 301.428 0 554.253 180.363 656.614 445.691l-.082.117c-57.28-81.046-136.436-144.125-228.223-181.869zm-892.99 824.287c-31.66 18.592-58.553 44.305-78.546 75.099 56.359 67.244 124.663 123.489 201.469 165.901-56.605-71.35-98.393-153.286-122.913-241z" fill="url(#b)"/><path d="m1943.17 1407.72c0 35.466-5.148 70.744-15.302 104.726h-345.369l-77.005 107.881h-357.952l412.131-577.34c6.06-.297 12.156-.451 18.288-.461 98.427-.103 192.701 39.655 261.328 110.212l-113.669 159.233h204.793c8.468 31.211 12.757 63.409 12.757 95.749zm-1437.12-524.868-325.949 737.475h825.235c60.027 0 99.426-32.136 129.109-72.108l94.141-132.454h-648.138l236.074-532.913z" fill="#fff"/></g></svg>