<svg clip-rule="evenodd" fill-rule="evenodd" stroke-linejoin="round" stroke-miterlimit="2" viewBox="0 0 1600 503" xmlns="http://www.w3.org/2000/svg"><g fill="#115740" fill-rule="nonzero"><path d="m1264.17 247.609-62.7 110.504c-6.627 11.709-1.511 26.681 10.855 31.647l114.259 45.88h-245.193l-37.651 66.359h367.958c7.761 0 14.961-4.218 18.821-11.044l62.71-110.504c6.627-11.709 1.501-26.681-10.866-31.647l-141.83-56.925h202.947l31.391-55.314h-291.84c-7.761 0-14.96 4.218-18.83 11.044h-.041z"/><path d="m1195.58 291.879 31.391-55.314h-347.913l-31.39 55.314h86.973l-119.263 210.161h173.956l119.263-210.161z"/><path d="m804.14 291.879 31.391-55.314h-282.649l-150.654 265.475h358.768l37.65-66.4h-184.811l25.131-44.228h97.798l31.39-55.315h-97.828l25.131-44.228h108.694z"/><path d="m1536.36 169.292s-25.785-5.299-101.535-10.628l-265.525-26.567c-145.945-13.111-274.03-47.241-392.803-132.052h-3.982l100.238 164.624h-507.389l-147.487 259.927c-3.901 6.826-11.06 11.055-18.831 11.055h-161.385l-37.651 66.358h322.782c15.532 0 29.889-8.436 37.65-22.13l163.224-287.574h1076.3c-13.378-7.937-34.843-17.995-63.599-23.044v.042l-.01-.011z"/></g></svg>