<svg width="200" height="200" viewBox="0 0 200 200" fill="none" xmlns="http://www.w3.org/2000/svg">
<path d="M195.424 34.3026C190.929 46.1373 185.044 58.5078 182.101 63.5954C177.124 72.1103 167.225 77.1979 161.447 79.1791C161.447 79.1791 158.611 86.0337 155.668 89.7827H167.493V105.848L178.837 111.257L167.493 116.933V130.536L156.524 137.283C156.524 137.283 147.802 136.212 143.521 135.73L108.847 155.812C101.998 187.247 100.232 196.297 100.232 196.297C100.232 196.297 98.5737 187.676 91.6178 155.812L56.9403 135.733C52.7131 136.215 43.9375 137.286 43.9375 137.286L32.9683 130.539V116.936L21.6244 111.313L32.9683 105.905V89.7317H44.7936C41.9041 86.1438 38.9612 79.0214 38.9612 79.0214C35.5366 77.8433 32.112 76.2903 29.1689 74.416C24.4601 71.4706 20.6608 67.5614 18.1997 63.5449C13.812 55.1375 8.19339 42.6594 5.19689 34.252C3.16356 29.1646 0.702148 21.3997 0.702148 21.3997C0.702148 21.3997 7.17668 24.4521 9.10286 25.4161C6.05289 16.0977 3.3239 3.78125 3.3239 3.78125C3.3239 3.78125 47.6826 33.0741 78.8214 57.9754L79.303 57.6005V55.9404C79.303 55.5655 79.303 54.9764 79.517 54.1732C79.8916 53.1022 80.6942 51.924 82.46 50.7459C80.2127 48.9788 75.9855 46.2476 75.6109 45.7657C72.6679 43.1417 72.0793 40.1963 72.2933 38.804L72.7749 35.4838L89.6304 48.0145C98.8339 45.3905 105.308 46.6221 110.178 48.0145L127.033 35.4838L127.515 38.804C127.729 40.3569 127.301 43.1952 124.197 45.7657C123.823 46.1405 119.703 48.9788 117.348 50.7459C119.221 51.924 119.97 53.1022 120.291 54.1732C120.505 54.9765 120.505 55.5656 120.505 55.9404V57.6005L120.987 57.9754C152.931 32.4849 196.595 3.83462 196.595 3.83462C196.595 3.83462 194.348 14.0098 190.816 25.4694C192.582 24.6661 199.217 21.453 199.217 21.453C198.04 27.665 195.418 34.3054 195.418 34.3054L195.424 34.3026Z" fill="#A1A1A4"/>
<path d="M49.2382 91.6556H35.0585V107.025L26.5504 111.149L35.0585 115.647V129.249L44.4761 135.033C47.9007 134.551 52.288 133.962 57.4789 133.48L93.7043 154.365L100.339 184.729C100.339 184.622 107.081 154.365 107.081 154.365L143.307 133.48C148.39 134.069 152.885 134.551 156.31 135.033L165.621 129.249V115.647L174.129 111.256L165.621 107.025V91.6556H151.441C151.441 91.6556 153.688 89.5135 156.417 84.801C157.594 82.8196 158.665 80.3026 159.949 77.4644C170.222 74.412 177.767 67.7718 181.085 61.399C189.914 45.3336 196.549 25.5191 196.549 25.5191C196.549 25.5191 192.75 27.3935 188.148 29.6426C191.787 18.2896 194.141 8.59701 194.141 8.59701C194.141 8.59701 153.528 35.5336 121.797 60.8099L119.068 59.1498C119.068 58.9356 119.175 56.6864 119.175 56.4186C119.175 56.4186 119.55 53.7946 114.787 52.188C114.413 52.0809 114.199 51.9738 113.985 51.9738C116.232 50.2066 119.871 47.5826 122.385 45.8153C126.506 42.9771 126.024 39.8176 126.024 39.8176L110.935 51.063C99.377 47.2608 89.6921 51.063 89.6921 51.063L74.603 39.8176C74.603 39.8176 74.1214 42.87 78.2416 45.8153C80.8635 47.5825 84.5021 50.2066 86.7497 51.9738C86.5356 52.0809 86.1611 52.188 85.947 52.188C81.2382 53.8481 81.5593 56.4186 81.5593 56.4186C81.5593 56.6328 81.6663 58.882 81.6663 59.1498L78.9373 60.5421C47.1926 35.3258 6.6333 8.44336 6.6333 8.44336C6.6333 8.44336 8.88067 18.136 12.6263 29.4889C7.65001 27.1326 4.22559 25.3655 4.22559 25.3655C4.22559 25.3655 10.8071 45.2333 19.5828 61.2454C22.7933 67.725 30.4453 74.2586 40.719 77.3108C40.719 77.3108 42.4848 81.3272 43.9295 84.1654C45.8024 87.8069 49.2269 91.6626 49.2269 91.6626L49.2382 91.6556Z" fill="#1D1160"/>
<path d="M186.167 19.6816C156.95 37.5675 130.895 57.6502 117.298 68.6281C117.194 69.1099 116.927 69.5924 116.816 69.9133C131.11 60.5957 155.883 44.4221 183.708 26.322C183.708 26.322 183.708 26.9113 186.167 19.6816ZM14.2939 19.735C16.6483 26.8038 16.7557 26.3754 16.7557 26.3754C44.5803 44.3153 69.5151 60.6491 83.8051 69.9674C83.5385 69.5924 83.4274 69.1099 83.3237 68.6281C69.8898 57.6502 43.7768 37.5675 14.2939 19.735ZM100.678 52.6301C98.3751 52.6167 95.9533 52.8836 93.5389 53.4728C96.057 57.0068 95.6867 61.9877 95.6867 61.9877C94.7165 57.4894 91.7763 55.4007 90.0136 54.4364C89.3175 54.6506 88.5102 54.8655 87.5474 55.2398C89.4211 55.9899 91.6726 57.8644 93.2205 61.3984C93.9685 63.1655 94.398 69.9141 98.1973 71.5743C95.0423 74.5191 91.1319 73.7156 88.1917 71.0918C91.8281 79.0174 97.9825 82.0712 100.338 83.0347C102.426 81.4263 103.493 76.5544 102.478 71.5743C106.277 69.9141 106.759 63.1655 107.455 61.3984C109.01 57.7036 111.254 56.0433 113.128 55.2398C112.328 55.0256 111.469 54.6506 110.669 54.4364C108.899 55.3473 105.959 57.5961 104.996 61.9877C104.996 61.9877 104.67 57.0068 107.136 53.4728C105.181 52.9369 102.989 52.6434 100.678 52.6301ZM154.009 78.2688L151.277 79.0693C142.078 81.5301 124.741 83.8871 124.741 83.8871C133.087 83.9983 140.308 84.695 144.322 85.1768C145.181 84.1021 146.196 82.9235 146.574 81.8562C146.574 81.8562 146.196 85.0137 145.5 87.052C144.707 89.661 143.589 91.8624 143.174 92.3516C143.885 91.8253 150.314 86.8667 154.009 78.2688ZM143.174 92.3516C143.137 92.3812 143.041 92.4553 143.041 92.4553C143.063 92.4628 143.115 92.4257 143.174 92.3516ZM46.5104 78.3207C50.5237 87.5338 57.4802 92.5146 57.4802 92.5146C57.4802 92.5146 56.0886 90.0465 55.0185 87.1039C54.323 85.1249 53.9483 81.9081 53.9483 81.9081C54.323 82.8717 55.3932 84.1614 56.196 85.2287C60.2094 84.7469 67.3792 84.1613 75.7814 83.9464C75.7814 83.9464 58.3364 81.4782 49.2395 79.1212L46.5104 78.3207ZM60.9041 125.446C59.6198 125.557 58.4438 125.661 57.2662 125.824L81.9358 140.122C80.5953 138.676 79.5288 137.283 78.6179 135.726L60.9041 125.446ZM139.727 125.446L122.012 135.726C121.212 137.283 120.138 138.676 118.694 140.122L143.363 125.824C142.186 125.661 141.008 125.557 139.727 125.446ZM98.7935 126.306C93.8166 126.41 90.0692 127.003 87.4474 127.692C88.0325 128.389 88.7287 128.982 89.3212 129.567C92.2614 132.406 94.8831 133.696 94.8831 137.602C94.8831 138.78 94.298 139.855 93.4908 140.655C93.0094 141.352 92.0466 141.834 91.2467 142.316C91.032 142.479 90.6542 142.583 90.4469 142.686C93.7574 144.725 96.1125 145.525 97.0753 145.903C97.0753 145.903 95.209 146.222 92.9575 146.007C93.7055 147.185 94.4017 148.26 95.0979 149.542C95.6904 149.327 97.5567 148.26 100.178 148.26C102.911 148.26 104.674 149.327 105.052 149.542C105.637 148.26 106.496 147.185 107.192 146.007C105.052 146.385 103.074 145.903 103.074 145.903C104.037 145.525 106.496 144.828 109.703 142.686C109.495 142.531 109.118 142.419 108.903 142.316C108.207 141.938 107.355 141.352 106.659 140.655C105.852 139.855 105.266 138.891 105.266 137.602C105.266 133.799 107.888 132.406 110.828 129.567C111.421 128.982 112.006 128.285 112.702 127.692C109.977 127.003 106.333 126.41 101.356 126.306L100.075 142.746H99.9637L98.7935 126.306ZM85.9514 127.966C83.4852 128.93 82.041 129.841 81.2411 130.427C83.0038 132.087 86.3217 134.229 92.2095 135.511C91.5652 133.747 89.6915 131.82 87.714 129.73L85.9514 127.966ZM114.628 128.07L112.865 129.834C110.939 131.82 109.066 133.747 108.37 135.623C114.361 134.333 117.575 132.191 119.338 130.531C118.642 129.841 117.087 128.87 114.628 128.07ZM81.3448 132.621C83.0038 135.838 85.3589 138.78 88.2991 140.655C88.4102 140.707 91.7281 139.64 92.4243 138.195C84.6109 136.423 81.3448 132.621 81.3448 132.621ZM119.338 132.673C119.338 132.673 116.124 136.586 108.258 138.247C108.955 139.64 112.384 140.707 112.384 140.707C115.324 138.565 117.79 135.889 119.338 132.673Z" fill="#00788C"/>
<path d="M183.975 26.2695C156.15 44.3162 131.317 60.5432 117.09 69.8608C116.498 71.4136 115.913 72.6989 115.217 73.9841L171.399 43.4068L127.629 75.0551L129.77 74.6801L152.884 72.4305C152.884 72.4305 168.563 70.8777 177.339 59.2031C181.457 52.8303 188.411 34.5168 188.411 34.5168L178.087 39.7104C181.405 31.8923 183.975 26.2695 183.975 26.2695ZM16.7603 26.3763C16.7603 26.3763 19.2214 31.8923 22.6459 39.7104L12.5337 34.6236C12.5337 34.6236 19.4895 52.9378 23.5561 59.3106C32.3316 70.9845 48.0088 72.5373 48.0088 72.5373L71.1253 74.7876L73.265 75.1619L29.4951 43.5135L85.5205 74.0908C84.8243 72.8056 84.2319 71.5211 83.6468 69.9683C69.4131 60.65 44.5849 44.4229 16.7603 26.3763ZM91.6727 65.951C91.7246 65.951 87.9253 72.3246 94.9907 71.9495C94.9907 71.9495 92.1541 70.0743 91.6727 65.951ZM109.166 65.951C108.684 70.0743 105.848 71.9495 105.848 71.9495C112.81 72.3246 109.166 65.951 109.166 65.951ZM62.2936 88.4982V94.6576L63.1505 95.4581H67.3771V93.2122H65.7189V93.9016H64.1133V90.1585H65.7189V90.6403H67.3771V88.4982H62.2936ZM71.2838 88.4982V95.4581H72.9428V93.2122H74.9202V95.4581H76.5792V88.4982H74.9202V91.6557H72.9428V88.4982H71.2838ZM80.3785 88.4982V95.3543H82.1485V93.1011H84.1778V95.3543H85.7849V89.2987L84.9851 88.4982H80.3785ZM85.7849 95.3543V95.4581L85.8368 95.3543H85.7849ZM99.4861 88.4982V95.4581H103.767V93.9016H101.249V88.4982H99.4861ZM107.188 88.4982V94.6576L107.988 95.4581H112.595V89.2987L111.788 88.4982H107.188ZM116.394 88.4982V90.1585H117.942V95.4581H119.816V90.1585L121.208 90.0473V88.4982H116.394ZM124.741 88.4982V90.1585H126.289V95.4581H128.162V90.1585L129.451 90.0473V88.4982H124.741ZM133.458 88.4982V95.4581H138.546V93.9016H135.117V92.8342H138.546V91.2258H135.117V90.1585H138.546V88.4982H133.458ZM89.799 88.6539V95.5099H91.5617V93.1011H92.8503L93.9168 95.4581H95.6868L94.5611 93.1011H95.2573V89.4618L94.45 88.6539H89.799ZM82.1485 89.9954H84.1778V91.6557H82.1485V89.9954ZM91.5617 90.0473H93.5983V91.4408H91.5617V90.0473ZM108.847 90.1066H110.825V93.9016H108.847V90.1066ZM144.7 95.3543L146.574 97.4964V108.74L156.365 112.973V119.236C156.365 119.236 154.113 119.021 151.277 118.539V116.56L146.574 115.967V122.341C151.758 122.927 156.58 123.624 161.068 124.483C160.964 120.948 160.964 115.752 160.964 113.18C162.519 112.491 163.904 111.794 165.356 111.045C160.645 108.792 155.935 106.917 151.062 105.042V99.6384H156.15V101.617H160.964V95.3543H144.7ZM39.3414 95.4581V109.385C39.3414 109.385 35.4347 111.253 35.4347 111.364L39.3414 113.395V124.75C40.893 124.535 42.3913 124.165 44.0502 123.95V113.076L49.4537 110.83V122.986C51.006 122.771 52.5035 122.504 54.1625 122.393V95.4581H49.4537V105.153L44.0502 107.399V95.4581H39.3414ZM74.441 99.4754L76.3148 101.721V120.362C77.9737 120.251 79.3661 120.251 81.025 120.147V112.913H80.9732C82.1508 112.913 83.2172 112.809 84.5059 112.809C85.4687 115.055 86.2685 117.627 87.1202 119.881C88.7792 119.881 90.1715 119.769 91.8305 119.769C90.8677 117.523 90.0678 114.952 89.2087 112.698H91.0825V101.617L88.9421 99.4754H74.441ZM55.9821 99.5791L57.7485 101.721V119.451L59.6215 121.696C63.7415 121.215 68.2362 120.896 72.731 120.629V101.832L70.4832 99.5791H55.9821ZM130.413 99.5791V103.974H134.531V121.111C136.294 121.215 137.953 121.326 139.723 121.593V103.974H143.84V99.5791H130.413ZM92.8496 99.6384L94.7159 101.884V119.932H99.5372C99.4854 119.769 99.4854 103.974 99.4854 103.974H104.884V119.821C106.543 119.821 108.202 119.821 109.861 119.932V101.884L107.617 99.6384H92.8496ZM111.735 99.7422L113.498 101.988V120.199C118.319 120.303 123.185 120.577 127.784 120.896V116.078H127.68V116.019C124.629 115.915 121.526 115.648 118.475 115.537V112.217C121.526 112.328 124.629 112.431 127.68 112.595V107.881C124.629 107.777 121.526 107.777 118.475 107.666V104.137H127.68V99.7422H111.735ZM62.4536 103.974H67.8578V116.234C65.9848 116.345 64.3266 116.449 62.4536 116.612V103.974ZM80.9702 103.974H86.3693V108.207C84.5029 108.207 82.8366 108.207 80.9702 108.31V103.974ZM100.233 153.079C97.982 153.079 97.3969 153.672 96.7007 154.153L100.337 168.77L103.766 154.257C103.285 153.672 102.477 153.079 100.233 153.079Z" fill="white"/>
</svg>
