<svg width="200" height="200" viewBox="0 0 200 200" fill="none" xmlns="http://www.w3.org/2000/svg">
<mask id="mask0_2_878" style="mask-type:alpha" maskUnits="userSpaceOnUse" x="0" y="0" width="199" height="200">
<path d="M198.758 0H0V200H198.758V0Z" fill="white"/>
</mask>
<g mask="url(#mask0_2_878)">
<path d="M183.028 98.5419L175.105 95.8853C187.212 90.9859 199.848 81.2015 198.683 60.7471C197.879 46.5927 191.708 34.2238 188.016 26.8217L174.604 0L177.271 28.9008C178.099 37.9585 177.801 49.8942 174.393 56.3723C169.844 65.8294 154.757 64.7898 149.356 64.4289C139.816 63.7935 108.743 62.7348 99.3175 62.7348C86.7248 62.7877 72.9093 63.8033 61.6692 64.6311C56.3211 65.0257 51.7047 65.3674 48.5999 65.4829C48.2774 65.4925 47.8104 65.5359 47.1846 65.5936C27.4819 67.4128 24.1316 58.1819 23.0244 55.145C20.9833 49.5477 21.0363 37.0007 21.0603 31.596L21.147 8.04696L10.8071 27.1634C7.73592 32.8473 2.02201 43.4162 0.077197 61.2668C-1.2369 86.4041 14.5907 93.7243 19.7895 96.1259C20.4923 96.4532 21.1951 96.7563 21.8979 97.0403C21.4695 97.1751 21.0652 97.305 20.6801 97.4398C17.2912 98.5948 13.7723 100.202 12.7085 100.698L6.80202 103.509L10.6579 108.87C11.144 109.53 12.4293 111.224 13.8445 112.615C17.4163 116.128 26.4277 121.706 37.4463 120.339C41.3021 119.863 44.3493 119.17 46.7032 118.462C47.1123 119.656 47.5648 120.907 48.0269 122.052C51.4062 130.446 59.0841 146.424 61.9724 151.978C63.8738 155.636 65.7704 158.971 67.2386 161.508L67.1086 161.618C66.7861 161.907 66.5069 162.157 66.117 162.552L64.8077 164.111L64.7258 165.955C64.644 167.692 64.2493 183.242 75.008 194.822L75.9034 195.688L76.9383 196.083C81.9927 198.018 88.5779 200 99.12 200C109.985 200 119.087 197.392 122.582 195.626L123.598 195.082L124.262 194.297C131.565 185.658 134.775 173.001 134.92 167.716L135.035 167.567L134.925 167.48L134.78 165.358L132.758 163.308C132.316 162.884 131.979 162.562 131.704 162.119C132.46 160.627 133.384 158.707 134.39 156.603L134.597 156.17C135.189 154.938 135.69 153.889 135.984 153.316C138.776 147.883 146.921 130.412 150.151 122.158C150.834 120.421 151.407 118.987 151.893 117.812C154.218 118.515 157.28 119.189 161.198 119.593C172.207 120.739 182.634 113.933 186.239 108.976C186.432 108.716 186.701 108.389 186.889 108.163L191.852 102.339L185.094 99.2879C185.002 99.2494 184.583 99.0713 183.028 98.5419" fill="#FEFEFE"/>
</g>
<path d="M193.878 61.0196C193.127 47.8422 187.225 36.022 183.702 28.9568L183.283 28.1145L181.747 25.0488L182.06 28.4659C182.493 33.1872 183.538 49.3197 178.729 58.4592C172.77 70.857 155.238 69.6586 149.476 69.2591L149.038 69.2302C139.569 68.5998 108.771 67.5073 99.3359 67.5458C86.8587 67.5987 73.0914 68.6142 62.0245 69.4276C56.6091 69.827 51.9253 70.1735 48.7723 70.2939C48.5172 70.3035 48.1417 70.3372 47.6315 70.3853C32.1167 71.8292 22.3159 67.257 18.4987 56.794C16.1592 50.3737 16.2217 37.6824 16.2458 31.5846L16.2506 29.7605L16.2603 27.2001L15.0424 29.4525C12.1253 34.8428 6.705 44.8775 4.88058 61.5202C3.86008 81.1371 14.0508 88.1734 21.8105 91.7589C29.9121 95.5081 38.1917 96.0471 40.9115 96.2252L41.1088 96.2396L41.0318 96.23C41.5902 96.3311 42.2304 96.36 42.9044 96.3888C43.742 96.4274 44.6469 96.4755 45.576 96.6487C44.1078 96.9327 42.1775 97.2648 40.4831 97.5535C38.6779 97.8616 36.9738 98.1551 36.0881 98.3428C34.2492 98.7327 26.4413 100.557 22.2341 101.991C18.6624 103.213 14.8161 105.028 14.7776 105.042L14.0748 105.374L14.5321 106.005C14.5851 106.077 15.8751 107.867 17.2182 109.186C19.9669 111.891 27.6159 116.713 36.8535 115.563C44.2378 114.649 48.1946 112.935 49.7206 112.127C50.1972 113.715 51.3428 117.392 52.4933 120.256C55.8196 128.524 63.3916 144.276 66.2414 149.753C68.5472 154.186 70.8337 158.123 72.35 160.726L72.894 161.665C72.3981 163.364 71.214 164.422 70.3283 165.197C70.0924 165.404 69.8902 165.582 69.7169 165.76L69.5436 165.934L69.534 166.179C69.4618 167.705 69.1056 181.397 78.4202 191.427L78.5212 191.538L78.6608 191.591C83.3013 193.367 89.3618 195.191 99.1192 195.191C109.074 195.191 117.445 192.828 120.382 191.345L120.502 191.287L120.589 191.186C127.087 183.5 130.043 171.94 130.115 167.738V167.469L129.927 167.276C129.768 167.113 129.6 166.949 129.422 166.781C128.411 165.809 127.159 164.605 126.442 161.761C127.236 160.404 128.786 157.165 130.048 154.527C130.755 153.05 131.362 151.774 131.699 151.12C134.452 145.763 142.481 128.543 145.668 120.405C147.685 115.26 148.816 112.685 149.307 111.621C150.718 112.382 154.516 114.066 161.693 114.807C171.003 115.77 179.879 109.537 182.349 106.144C182.763 105.572 183.471 104.749 183.475 104.744L184.034 104.089L183.254 103.738C183.201 103.714 182.883 103.579 181.497 103.103L176.346 101.38L171.21 99.6567C169.809 99.1802 163.522 97.8182 158.94 96.822L155.464 96.0664L156.6 95.8594C167.229 93.9776 195.466 88.9771 193.878 61.0196Z" fill="black"/>
<path d="M7.29004 55.356C8.84008 47.3426 11.401 39.8491 14.8958 32.654L14.9343 32.5673H15.1028V32.7214V32.5673H15.2568L15.252 32.7262C15.1557 34.8775 15.0932 37.0914 15.0932 39.3245C15.0932 44.6331 15.459 50.033 16.6432 54.8843L16.7587 55.356L16.3977 55.0335C14.8524 53.6522 13.3169 52.0689 11.7187 50.6972C10.3131 52.2709 8.96522 53.9795 7.54516 55.4859L7.18896 55.8661L7.29004 55.356ZM191.144 52.0688L191 52.1025L191.139 52.0592C189.089 45.2924 187.255 38.439 183.9 32.2305L183.616 32.3075C183.75 34.4588 183.818 36.5957 183.818 38.7181C183.818 43.9111 183.413 49.003 182.571 53.9458L182.523 54.2346L182.788 54.1046C184.434 53.3105 185.994 52.2421 187.678 51.525L191.732 54.4559L191.144 52.0688ZM124.878 124.444L124.565 124.583C122.26 125.599 119.896 126.609 117.398 127.105C115.78 127.519 114.139 127.736 112.517 127.736C107.448 127.731 102.605 125.637 99.611 121.051L99.5146 120.901L99.3847 121.022C98.783 121.551 98.4172 122.21 97.7913 122.774C94.5999 126.446 89.969 127.856 85.2371 127.856C81.5642 127.856 77.8335 127.004 74.7142 125.705L74.3917 125.575L74.512 125.902C76.9093 132.24 78.3775 139.277 78.3775 146.347C78.3775 149.518 78.0839 152.69 77.4437 155.813C77.0056 158.003 76.2739 160.275 75.6915 162.412L75.5951 162.744L75.9033 162.585C82.6569 159.009 90.9029 157.195 99.1247 157.195C106.909 157.195 114.673 158.817 121.133 162.094C122.197 162.532 123.193 163.273 124.166 163.586L124.455 163.678L124.358 163.394C122.476 157.816 121.364 151.891 121.364 145.687V145.423C121.355 145.03 121.35 144.637 121.35 144.243C121.35 137.462 122.77 130.787 124.768 124.766L124.878 124.444ZM58.8414 131.001C58.1194 130.106 57.5321 129.129 57.3154 127.988L57.248 127.642L57.5465 127.829C58.7596 128.614 60.093 128.936 61.4601 128.936C64.2809 128.936 67.2462 127.55 69.4654 125.991L69.5664 125.919L69.6531 126.01L69.7301 126.082L69.6194 126.188L69.7301 126.082L69.7782 126.131L69.7734 126.203C69.4654 129.086 68.44 132.382 65.3833 133.513C64.926 133.629 64.4831 133.682 64.0499 133.682C61.9992 133.682 60.2182 132.488 58.8414 131.001H58.8414ZM130.586 129.904C129.932 128.927 129.571 127.873 129.359 126.684L129.287 126.29L129.6 126.535C131.116 127.734 133.027 128.253 134.981 128.253C137.278 128.253 139.627 127.536 141.432 126.372L141.793 126.141L141.658 126.55C140.763 129.158 138.5 131.825 135.752 132.421C135.516 132.455 135.275 132.474 135.039 132.474C133.239 132.474 131.617 131.502 130.586 129.904Z" fill="#CE1141"/>
<path d="M134.101 133.731C134.457 133.808 134.818 133.837 135.179 133.837C136.214 133.837 137.254 133.563 138.27 133.245L138.573 133.149L138.452 133.443C134.664 142.914 130.091 152.073 125.369 161.164L125.21 161.467L125.094 161.145C124.141 158.532 123.872 155.755 123.872 152.915C123.872 150.831 124.016 148.713 124.151 146.596C124.83 140.488 126.303 134.607 128.127 128.952L128.238 128.606L128.406 128.928C129.528 131.113 131.655 133.365 134.091 133.731H134.101ZM74.2771 161.2C68.5631 152.484 64.2212 143.267 60.0283 133.916L59.8455 133.512L60.2353 133.719C61.3714 134.33 62.8974 134.811 64.3463 134.811C65.3283 134.811 66.267 134.595 67.0516 134.06C68.8857 132.775 69.9639 130.754 70.6908 128.713L70.8063 128.377L70.9651 128.699C74.1182 135.071 75.6297 142.791 75.6297 150.424C75.6297 154.038 75.2879 157.638 74.6236 161.07L74.614 161.113L74.5851 161.147L74.3781 161.354L74.2771 161.2ZM79.2992 190.383L79.2703 190.368L79.2463 190.344C73.4264 183.958 71.2314 175.747 70.9137 167.06V166.978L70.9811 166.93C78.635 161.357 88.869 158.411 98.9585 158.411C105.582 158.411 112.148 159.682 117.881 162.314C121.545 163.951 125.073 165.741 128.308 168.34L128.217 168.46L128.308 168.34L128.375 168.393L128.366 168.475C127.384 176.652 124.462 183.938 119.301 190.258L119.277 190.291L119.244 190.306C113.101 192.698 105.861 193.992 98.6553 193.992C91.8631 193.992 85.0998 192.847 79.2993 190.383H79.2992ZM181.687 104.495C181.687 104.495 178.086 103.114 177.162 102.768C167.294 99.0522 154.605 96.7854 143.822 96.5255C142.792 84.5176 141.41 77.0096 139.071 70.2235L139.037 70.1321L138.941 70.1225C133.381 69.8 108.725 68.8086 99.194 68.8086C89.6579 68.8086 65.4448 70.3102 59.8897 70.6326L59.7934 70.6374L59.7597 70.7337C57.5214 77.2021 54.9749 85.2635 53.7907 97.1367C42.8924 97.8057 28.2249 100.924 18.3519 104.64C17.6347 104.909 17.1148 105.164 16.7586 105.352C16.5852 105.448 16.4505 105.525 16.3542 105.578C16.3301 105.588 16.3109 105.602 16.2917 105.612L15.9932 105.27L16.0991 105.814C16.1029 105.843 16.1164 105.871 16.1376 105.891C17.6491 107.605 23.209 114.27 33.5344 114.501C33.703 114.506 33.8763 114.506 34.0591 114.506C37.4336 114.506 43.1475 113.851 46.9696 112.181C47.8987 111.768 49.7038 111.026 50.1948 110.829C50.3778 111.176 50.9217 112.23 51.1913 112.985C52.2984 116.061 53.6174 120.479 54.5898 122.409C56.0243 125.272 58.3638 127.573 62.157 127.659H62.3062C65.7336 127.65 68.0971 124.916 68.5111 124.334L68.67 124.112L68.3956 124.098C58.85 123.617 54.946 118.549 54.2962 110.892L54.2865 110.776L54.1758 110.757C53.0494 110.555 52.3321 110.396 51.8892 110.155C51.4464 109.915 51.249 109.616 51.0998 109.029C51.0372 108.769 51.0083 108.509 51.0083 108.245C51.0083 107.306 51.3886 106.286 52.0963 105.107C52.8328 104.12 53.9207 103.148 56.0869 103.143C56.9822 103.143 58.0605 103.312 59.3746 103.73C62.3447 104.669 64.7275 106.584 66.3835 108.038C68.3667 109.77 74.124 115.772 77.6139 117.87C79.6646 119.097 82.7791 120.243 85.9513 120.243C88.4882 120.243 91.0635 119.507 93.1286 117.48C97.5669 113.13 98.1061 109.385 98.6885 107.07L98.7318 106.887L98.5441 106.883C90.8854 106.666 83.6311 105.915 76.9496 104.991C76.1746 104.881 75.9436 104.553 75.9436 104.279C75.9484 103.942 76.319 103.543 76.9352 103.543C77.0507 103.543 77.1759 103.557 77.3107 103.591C77.3299 103.595 89.942 105.266 98.7752 105.318H98.9147L98.9244 105.179C98.9966 104.149 99.011 102.344 99.0736 100.313L99.0784 100.159L98.9244 100.154C93.6918 100.039 84.8971 99.4853 76.5645 97.8057C75.8425 97.6565 75.5585 97.2233 75.5585 96.8623C75.5681 96.511 75.8039 96.203 76.3238 96.1982C76.4394 96.1982 76.5693 96.2127 76.7138 96.2511C77.9558 96.5784 91.5256 98.4987 98.9148 98.4987H98.9725L99.1266 98.5035V98.3543C99.1603 96.7757 99.1747 94.5522 99.1844 92.4154V92.2662H98.5681C93.7929 92.2662 86.8804 91.7849 77.0507 90.2881C76.2468 90.163 75.9628 89.7731 75.9628 89.4747C75.9628 89.1667 76.2516 88.8346 76.8678 88.8298C76.9207 88.8298 76.9736 88.8346 77.0362 88.8395C77.0314 88.8395 89.0321 90.625 98.39 90.625C98.6067 90.625 98.8184 90.625 99.0351 90.6202H99.1843V90.471C99.1843 89.0223 99.1746 87.333 99.1602 85.6293V85.6004C99.165 84.6812 99.5742 84.3106 99.8726 84.3106C100.152 84.3106 100.513 84.6331 100.518 85.4801C100.518 86.125 100.556 87.9587 100.556 90.2496V90.5335L100.71 90.5287C109.755 90.2544 117.712 89.1956 121.448 88.5266C121.664 88.4881 121.852 88.4688 122.016 88.4688C122.757 88.4833 122.95 88.7817 122.959 89.0705C122.959 89.364 122.709 89.7058 122.334 89.7731C121.111 89.9945 110.627 92.0207 100.652 92.2373H100.503L100.508 92.3865C100.508 94.148 100.575 96.434 100.604 98.2966L100.609 98.4506L100.758 98.4458C107.464 98.2052 115.229 97.9549 121.896 96.4821C122.208 96.4148 122.478 96.3811 122.714 96.3811C123.489 96.3907 123.778 96.6988 123.778 96.9586C123.792 97.2618 123.388 97.7239 122.435 97.8827C115.898 98.9704 106.472 100.092 100.806 100.135H100.652L100.657 100.289C100.696 101.921 100.71 103.899 100.792 105.193L100.802 105.338H100.946C111.642 105.083 121.77 103.562 123.494 103.263C123.619 103.244 123.734 103.235 123.845 103.235C124.514 103.239 124.822 103.6 124.822 103.937C124.822 104.269 124.529 104.674 123.72 104.789C121.838 105.049 109.288 106.666 101.254 106.868L101.057 106.873L101.11 107.061C101.904 109.78 102.058 113.741 106.005 117.134C107.936 118.794 110.53 119.54 113.207 119.54C115.845 119.54 118.564 118.814 120.817 117.514C124.346 115.473 129.92 109.366 131.898 107.633C133.545 106.19 137.3 102.72 142.315 102.72C142.388 102.72 142.455 102.72 142.527 102.724C145.103 102.777 146.359 103.456 147.018 104.192C147.683 104.933 147.755 105.752 147.914 106.194C148.029 106.507 148.126 106.931 148.126 107.359C148.121 107.985 147.928 108.601 147.302 108.986C146.426 109.53 145.598 109.385 144.669 109.809L144.597 109.842L144.583 109.919C143.928 114.107 142.614 118.866 139.331 121.355C137.559 122.702 135.273 123.458 133.429 123.877C131.59 124.295 130.199 124.367 130.199 124.367L129.882 124.387L130.093 124.623C130.093 124.623 130.873 125.474 131.133 125.725C131.716 126.273 133.367 127.072 135.528 127.077C135.759 127.077 135.995 127.067 136.236 127.053C138.599 126.851 141.324 125.056 142.484 123.862C144.241 121.581 145.854 116.845 147.047 113.799C147.466 112.711 148.424 110.829 148.814 109.862C149.786 110.319 150.354 110.622 152.213 111.373C156.073 112.918 160.969 113.596 164.256 113.596C164.444 113.596 164.627 113.596 164.805 113.592C170.177 113.452 176.252 110.203 179.916 106.81C180.556 106.214 181.745 104.736 181.75 104.731L181.88 104.568L181.687 104.495H181.687Z" fill="#CE1141"/>
<path d="M104.896 170.468C104.328 171.421 104.077 172.513 104.077 173.625C104.077 175.425 104.742 177.268 105.781 178.611C105.844 178.698 105.931 178.736 106.032 178.741C106.147 178.741 106.277 178.678 106.373 178.572V178.476C106.383 177.413 105.695 176.489 105.685 175.319C105.685 175.049 105.724 174.761 105.825 174.467L105.926 174.154L106.094 174.433C107.144 176.166 108.828 177.259 110.59 177.846C111.279 178.024 111.967 178.115 112.636 178.115C114.985 178.11 117.166 177.052 118.706 175.155C119.438 174.13 119.996 172.831 119.996 171.56C119.996 170.963 119.876 170.371 119.587 169.808C118.48 167.652 116.232 166.406 113.974 166.035C113.589 165.992 113.204 165.973 112.819 165.973C109.55 165.973 106.494 167.436 104.896 170.468ZM92.0953 179.464C92.2831 179.474 92.5093 179.257 92.6634 178.993C93.5202 177.645 94.1027 175.893 94.1027 174.185C94.1027 173.063 93.8524 171.961 93.2747 170.999L93.4047 170.922L93.2699 170.989C92.3698 169.266 90.5309 167.875 88.7787 167.288C87.7774 166.965 86.7184 166.797 85.669 166.797C83.1562 166.797 80.7012 167.76 79.1512 169.829C78.5543 170.614 78.2559 171.624 78.2559 172.63C78.2559 173.155 78.3377 173.679 78.5061 174.17C79.3293 176.471 81.5147 178.29 83.8302 178.728C84.3501 178.819 84.8603 178.867 85.3561 178.867C88.0518 178.867 90.425 177.549 92.1098 175.234L92.2783 175.003L92.3746 175.272C92.4468 175.474 92.4756 175.691 92.4756 175.903C92.4708 176.379 92.3505 176.861 92.3023 177.246C92.2205 177.924 91.6862 178.449 91.7054 178.916C91.7054 179.07 91.7488 179.219 91.8835 179.397C91.9654 179.445 92.0328 179.464 92.0953 179.464ZM79.9084 188.348C85.7908 185.879 92.8237 184.449 99.8084 184.449C105.079 184.449 110.317 185.263 115.02 187.063C116.199 187.563 117.446 187.972 118.635 188.343C118.933 187.953 119.078 187.866 119.28 187.525C113.542 184.709 106.803 183.4 100.03 183.4C92.8044 183.4 85.5405 184.892 79.4174 187.616C79.5377 187.924 79.6918 188.122 79.9084 188.348ZM85.0389 144.859C88.5577 149.243 93.8144 151.183 99.1864 151.188C101.16 151.188 103.148 150.923 105.069 150.422C114.027 147.939 119.433 138.179 121.282 129.641C121.022 129.4 120.791 129.347 120.454 129.246C119.332 134.271 117.19 139.204 114.018 143.357C110.224 147.978 104.626 150.312 99.1143 150.312C97.1551 150.312 95.2055 150.018 93.3474 149.426C85.1496 146.871 80.8895 137.88 80.0952 129.742C79.7583 129.747 79.5319 129.766 79.2672 129.949C79.8256 135.556 81.5056 140.551 85.0389 144.859Z" fill="black"/>
<path d="M18.4128 60.5124C23.111 69.5749 32.5844 72.4963 42.2216 72.0343C47.6129 71.9861 52.7926 71.4278 58.1165 71.0861L58.1117 71.4567C55.4016 79.0898 53.6494 86.8625 52.5278 94.8661C38.5776 95.3763 24.2759 94.2742 13.9697 84.9614C6.98977 77.8625 5.20872 68.1263 6.72502 58.5103C8.39057 56.537 10.0994 54.8814 11.8372 52.9082C14.1237 55.2713 17.7822 57.2012 18.4128 60.5124V60.5124ZM191.896 56.4442C192.248 57.8447 192.315 59.1682 192.45 60.6361C193.114 71.3686 188.479 81.2637 179.318 86.7262C169.291 92.7712 157.704 94.8406 145.41 95.1438C145.203 94.0417 145.068 92.6412 144.929 91.3946C143.956 84.3343 142.628 77.1969 140.649 70.4253C153.81 70.2761 169.82 73.7462 178.509 61.666C179.669 59.9816 180.83 58.4415 181.845 56.6126C183.79 55.7415 185.662 54.4998 187.54 53.4795C189.119 54.2976 190.317 55.5538 191.896 56.4441V56.4442ZM141.881 110.776C141.934 114.891 140.62 119.145 136.937 121.109C135.209 122.057 133.197 122.413 131.252 122.326C131.185 121.966 131.04 121.518 131.19 121.08C134.208 121.171 137.091 120.084 138.685 117.596C139.773 115.762 140.211 113.707 140.225 111.43C140.731 111.137 141.303 110.92 141.881 110.776H141.881ZM67.6073 121.95C67.0634 122.041 66.8035 122.181 65.7829 121.954C60.9403 121.954 55.8762 118.075 56.1699 111.501C56.7427 111.28 57.3877 111.366 57.9798 111.559C57.9798 115.289 59.4865 120.386 67.41 120.386C67.9491 121.252 67.4292 121.338 67.6073 121.95" fill="#FEFEFE"/>
</svg>
