<svg width="200" height="200" viewBox="0 0 200 200" fill="none" xmlns="http://www.w3.org/2000/svg">
<path d="M200 48.2642V33.5789L196.417 29.9486C150.3 -13.9197 51.5315 43.6736 18.0155 71.428L1.45652 97.1916L22.044 92.0857C-9.5984 131.691 1.71416 157.713 3.04918 160.406C6.37502 169.775 13.987 177.269 26.3067 182.188C35.6752 185.935 46.2851 186.38 55.3961 185.959C94.7207 184.132 141.212 159.61 171.238 133.448L171.941 132.839L178.007 102.766L166.297 109.254C142.444 119.77 118.042 128.996 93.1983 136.891C71.8613 143.543 62.0712 144.62 55.0916 143.004L54.1782 142.816C53.5416 142.608 52.9804 142.217 52.564 141.693C52.1476 141.168 51.8945 140.533 51.836 139.865C51.5081 126.515 74.4611 97.7068 86.0313 85.4106C96.8052 73.8404 113.739 61.146 128.073 55.1032C137.676 51.0748 143.859 49.4587 146.81 49.7632C145.743 52.9903 144.411 56.1238 142.828 59.1317C142.828 59.1317 131.68 81.1245 127.979 88.3851C127.911 88.5277 127.89 88.6881 127.918 88.8435C127.947 88.999 128.023 89.1414 128.138 89.2505C128.252 89.3596 128.398 89.4298 128.555 89.4511C128.711 89.4723 128.87 89.4435 129.01 89.3688L200 48.2642Z" fill="#B4975A"/>
<path d="M108.937 46.1103C95.7043 53.1367 80.5506 67.1896 75.7961 72.1783C37.1273 113.377 10.0287 168.417 94.7206 142.044C119.801 134.082 144.429 124.762 168.498 114.126C52.8197 211.84 -56.3711 170.923 51.0865 68.2435C41.2963 70.4686 31.4359 72.5999 21.7628 75.27C56.2158 46.7895 150.534 -6.28346 192.669 33.814L147.559 61.4045C166.882 23.532 132.078 32.4322 108.844 46.1103" fill="#72253D"/>
</svg>
