<svg width="200" height="200" viewBox="0 0 200 200" fill="none" xmlns="http://www.w3.org/2000/svg">
<g clip-path="url(#clip0_17_1048)">
<mask id="mask0_17_1048" style="mask-type:alpha" maskUnits="userSpaceOnUse" x="0" y="0" width="200" height="200">
<path d="M200 0H0V200H200V0Z" fill="white"/>
</mask>
<g mask="url(#mask0_17_1048)">
<path d="M100.002 0C44.8618 0 -0.00146484 44.8621 -0.00146484 100.006C-0.00146484 155.145 44.8618 200.001 100.002 200.001C155.142 200.001 200 155.145 200 100.006C200 44.8621 155.142 0 100.002 0Z" fill="#FEFEFE"/>
</g>
<path d="M100.003 2.74219C46.2719 2.74219 2.74121 46.2991 2.74121 100.006C2.74121 153.714 46.2719 197.26 100.003 197.26C153.717 197.26 197.258 153.714 197.258 100.006C197.258 46.2991 153.717 2.74219 100.003 2.74219Z" fill="#1D428A"/>
<path d="M174.548 135.172C159.753 131.86 146.049 126.793 133.546 120.783C131.621 119.85 129.723 118.896 127.853 117.926C118.701 113.182 110.261 107.967 102.584 102.637C101.037 101.557 99.5129 100.476 98.0378 99.3962C97.9391 99.3304 97.8513 99.2591 97.7636 99.1988C95.7894 97.7565 93.8865 96.3143 92.0275 94.8721C89.0005 92.5196 86.1214 90.1836 83.4014 87.8804C80.4061 85.3434 77.4696 82.738 74.5943 80.0662C72.2034 77.8507 69.977 75.7067 67.9315 73.6667C67.4928 73.239 67.0815 72.8167 66.6647 72.3945C63.4402 69.1317 60.6544 66.1431 58.3841 63.6096C58.3183 61.6793 58.269 59.9904 58.2251 58.5153C58.11 54.8247 58.0551 52.6697 58.0551 52.6697L55.4503 51.4907L53.6406 53.07L53.0264 53.6019C53.0264 53.6019 53.0538 55.0277 53.1087 57.4843C52.5493 56.7989 52.1216 56.2615 51.7542 55.8063C51.7322 53.7335 51.7212 52.1378 51.7103 51.0794C51.6994 50.1362 51.6994 49.6152 51.6994 49.6152H48.091L48.0252 51.7593L45.8536 52.2967C45.8536 52.2967 45.7658 56.8482 45.6342 64.1031C40.4575 75.9315 35.0394 85.3141 30.1479 92.569C27.6691 96.243 25.3221 99.3633 23.2163 101.974C20.776 104.984 18.6428 107.326 16.9921 109.009C16.685 106.887 16.4711 104.737 16.3286 102.571C16.197 100.696 16.1147 98.8094 16.1147 96.9011C16.1147 94.9818 16.197 93.0899 16.3286 91.198C17.6337 71.7968 25.514 54.1996 37.7978 40.6384C40.4629 37.6937 43.3474 34.9354 46.4019 32.3965C59.6235 21.4017 76.2834 14.41 94.5281 13.2474C96.3268 13.1323 98.1255 13.05 99.9516 13.05C102.074 13.05 104.169 13.1597 106.253 13.3132C124.607 14.6732 141.294 21.9391 154.461 33.219C157.387 35.7224 160.137 38.4231 162.692 41.302C174.477 54.5944 182.094 71.6542 183.525 90.4413C183.69 92.5799 183.794 94.7295 183.794 96.9011C183.794 98.4749 183.739 100.032 183.657 101.579C182.988 113.632 179.774 125.005 174.548 135.172ZM18.9444 118.54C18.6099 117.284 18.3082 116.017 18.034 114.745C18.9114 113.517 19.8931 112.118 21.0008 110.517L18.9444 118.54ZM27.713 101.628L22.7666 129.688C21.8124 127.434 20.9569 125.12 20.2002 122.768L23.9127 106.185C24.845 104.781 25.8375 103.262 26.8356 101.694C27.2359 101.074 27.6253 100.471 28.0311 99.8239L27.713 101.628ZM43.5174 78.9639L40.962 93.3531L39.6349 100.871L31.7107 145.585C30.5043 143.902 29.3472 142.191 28.2724 140.42L35.2424 101.129L36.6791 93.068L37.8855 86.2298L38.7356 81.4535C41.1046 77.0118 43.4023 72.3616 45.53 67.6073L43.5174 78.9639ZM82.5953 94.8283L84.0211 99.3303L97.1987 140.902C95.3891 141.023 93.6178 141.138 91.8575 141.264L78.6963 99.4181L77.2321 94.7569L76.5741 92.6622L72.0608 78.3224C72.9766 79.2217 73.887 80.0936 74.7918 80.9655C76.4314 82.5338 78.0546 84.0748 79.6505 85.5608L82.5953 94.8283ZM89.5872 94.8721L90.9746 99.2426L97.8294 120.837L104.065 140.458L104.07 140.491H104.065C102.365 140.584 100.681 140.683 99.0194 140.787L97.4784 135.901L85.9185 99.2974L84.5092 94.8447L82.354 88.023C84.7339 90.1836 87.0811 92.2619 89.3843 94.2525L89.5872 94.8721ZM118.624 139.8C116.869 139.866 115.131 139.943 113.404 140.019L102.655 105.938L102.321 104.885C102.425 104.973 102.529 105.039 102.633 105.121C104.774 106.788 106.936 108.426 109.121 110.035L118.624 139.8ZM133.348 139.383C131.456 139.422 129.57 139.46 127.7 139.509L120.971 118.326C123.494 119.987 125.918 121.534 128.27 122.971L133.348 139.383ZM147.935 133.642C154.373 136.663 159.237 138.456 162.21 139.422C158.02 139.323 153.858 139.268 149.718 139.246L147.935 133.642ZM139.227 129.26C141.372 130.414 143.54 131.524 145.731 132.589L147.842 139.246C147.206 139.246 146.575 139.252 145.939 139.252C144.744 139.252 143.548 139.252 142.358 139.257L140.165 132.26L139.227 129.26ZM130.579 124.358C132.689 125.621 134.82 126.848 136.973 128.037L140.499 139.279C139.534 139.29 138.58 139.306 137.609 139.317C136.814 139.328 136.013 139.334 135.218 139.345L131.999 128.959L130.579 124.358H130.579ZM118.662 116.779C118.767 116.84 118.854 116.911 118.959 116.977L118.701 116.9L125.863 139.559C124.048 139.614 122.249 139.674 120.461 139.734L111.72 111.943C114.094 113.654 116.398 115.25 118.652 116.768L118.69 116.895L118.701 116.9L118.662 116.779V116.779ZM91.852 96.3692C93.0036 97.3452 94.1333 98.2829 95.2575 99.2097C96.1897 99.9774 97.111 100.723 98.0323 101.464C98.5916 101.913 99.1565 102.385 99.7158 102.823L102.82 112.59L111.572 140.096C109.658 140.184 107.766 140.288 105.896 140.387L103.67 133.395L97.9117 115.376L92.7623 99.2262L91.852 96.3692ZM148.955 154.293C139.112 153.811 124.75 153.4 104.92 153.416C102.321 153.421 99.6281 153.432 96.8368 153.449C90.5578 153.493 83.8511 153.569 76.5685 153.707C83.3959 153.394 90.2014 153.164 96.8533 152.999C99.5623 152.928 102.233 152.873 104.871 152.824C121.174 152.517 136.161 152.566 147.568 152.703C153.573 152.774 158.59 152.879 162.303 152.961C161.678 153.652 161.031 154.326 160.384 154.995C157.581 154.781 153.803 154.529 148.955 154.293V154.293ZM62.9851 156.673C72.7353 156.454 84.4378 156.295 96.7052 156.317C99.5019 156.322 102.315 156.339 105.139 156.366C121.591 156.525 138.465 157.063 152.668 158.318C154 158.439 155.349 158.554 156.633 158.686C156.007 159.267 155.355 159.815 154.708 160.375C140.017 173.064 120.889 180.758 99.9517 180.758C87.3333 180.758 75.3731 177.95 64.6357 172.954C64.0489 168.463 63.4951 162.925 62.9851 156.673ZM56.9309 168.874C56.2783 168.491 55.6422 168.079 55.0061 167.674C54.7758 164.356 54.5619 160.731 54.359 156.887C54.9732 156.865 55.6148 156.854 56.2455 156.832C56.4757 161.554 56.7006 165.639 56.9309 168.874ZM61.3454 132.567C61.0328 127.242 60.7477 121.802 60.479 116.363L64.208 128.114L66.4837 135.259L69.0009 143.172C66.5879 143.408 64.2793 143.644 62.0419 143.88C62.009 143.447 61.987 143.002 61.9541 142.569C61.7457 139.306 61.5428 135.967 61.3454 132.567ZM59.4919 94.2854C59.448 93.1502 59.3986 91.9713 59.3493 90.8581L60.4406 94.3238L62.1735 99.8568L68.5128 120.042L70.646 126.853L75.576 142.564C73.9637 142.706 72.3734 142.854 70.8215 143.002L67.6957 133.066L65.4583 125.97L60.1279 109.009C59.9909 105.949 59.8537 102.922 59.7276 99.9445C59.6474 98.0582 59.5688 96.1718 59.4918 94.2853L59.4919 94.2854ZM39.9091 146.501L44.8226 118.748C44.7184 128.498 44.6581 137.908 44.6636 145.887C42.9526 146.101 41.3842 146.304 39.9091 146.501ZM44.7787 160.013C43.7642 159.124 42.7716 158.22 41.8065 157.277C42.6839 157.249 43.6435 157.216 44.7349 157.178C44.7458 158.181 44.7623 159.124 44.7787 160.013V160.013ZM42.7552 93.4683L45.3764 78.6514C45.2997 83.3125 45.2174 88.3575 45.1406 93.6054C45.1078 95.8976 45.0748 98.2281 45.0474 100.581C45.0036 103.514 44.9652 106.476 44.9268 109.448L44.68 109.404L38.0501 146.753C36.1965 147.006 34.5788 147.236 33.1749 147.433L41.4555 100.767L42.7552 93.4683H42.7552ZM61.7402 67.9089C62.837 69.0604 63.9448 70.1955 65.036 71.3197C66.2041 72.5151 67.3557 73.6886 68.5073 74.8348C68.6499 74.9828 68.8089 75.1418 68.9515 75.2844L69.5273 77.0995L72.9163 87.7214L75.1482 94.7241L76.6563 99.462L76.7166 99.6539L90.0259 141.396C88.282 141.522 86.5656 141.653 84.8711 141.78L75.4005 111.532L73.2727 104.754L71.655 99.5771L70.1086 94.6144L62.6396 70.7713L61.7402 67.9089ZM58.4006 64.3938C58.5487 64.5473 58.6857 64.6899 58.8283 64.838L60.5448 70.2942L68.1728 94.5705L69.7686 99.6265L72.5434 108.472L74.6217 115.074L83.0669 141.928C81.1366 142.081 79.2502 142.24 77.3912 142.399L71.7373 124.199L69.637 117.459L64.1422 99.791L62.4586 94.395L59.0696 83.477C58.8831 78.4759 58.7187 73.908 58.5871 69.8501C58.5212 67.9088 58.4554 66.0553 58.4005 64.3938H58.4006ZM51.7761 57.1773C52.2313 57.6872 52.6864 58.1698 53.1361 58.6743C53.2129 61.6629 53.3171 65.8634 53.4378 70.892C53.6077 77.4559 53.8161 85.4402 54.0574 94.0605C54.1122 96.0621 54.1671 98.0966 54.2274 100.158C54.6057 113.16 55.05 127.116 55.5161 139.52C55.5764 141.231 55.6422 142.92 55.708 144.565C55.0554 144.642 54.4357 144.713 53.7996 144.785C53.7558 143.666 53.7174 142.509 53.668 141.374C53.158 128.131 52.7687 113.687 52.4725 100.23C52.4287 98.1184 52.3903 96.0347 52.3465 93.9837C52.1819 85.8515 52.0613 78.273 51.9626 71.7364C51.8748 65.9237 51.82 60.9116 51.7761 57.1773H51.7761ZM32.3578 92.7444C33.5862 90.6716 34.831 88.5549 36.0704 86.334L35.5659 89.2404L34.9133 92.9419L33.4601 101.239L26.9946 138.199C25.9089 136.29 24.8943 134.338 23.9621 132.337L29.413 101.513L30.3836 96.0292C30.6194 95.6508 30.8608 95.2341 31.091 94.8557C31.5169 94.1541 31.9392 93.4504 32.3578 92.7444ZM99.9516 7.45117C50.5313 7.45117 10.4663 47.4985 10.4663 96.923C10.4663 146.353 50.5313 186.4 99.9516 186.4C125.079 186.4 147.765 176.036 164.019 159.36C164.568 159.07 165.22 158.28 165.796 157.496C180.46 141.56 189.42 120.3 189.42 96.923C189.42 47.4985 149.372 7.45117 99.9516 7.45117Z" fill="#FDB927"/>
<path d="M16.1143 96.9038C16.1143 98.8122 16.1965 100.699 16.3281 102.568C17.5236 102.453 19.8487 102.239 23.2158 101.971C25.3216 99.366 27.6687 96.2458 30.1474 92.5662C22.6729 91.952 17.9568 91.3982 16.3281 91.2008C16.1965 93.0872 16.1143 94.9846 16.1143 96.9038ZM183.794 96.9038C183.794 94.7268 183.689 92.5772 183.525 90.444C163.547 92.3249 144.941 93.4875 127.93 94.1455C128.791 81.0395 135.114 69.2276 144.058 57.7722C151.285 48.4938 158.897 43.4488 162.692 41.3047C160.136 38.4203 157.389 35.7223 154.461 33.2162C147.924 39.6706 126.564 63.0695 125.045 94.2662C117.154 94.5459 109.63 94.7158 102.479 94.8036C102.046 46.1797 105.868 16.1839 106.252 13.3105C104.168 13.1569 102.079 13.0527 99.9512 13.0527C98.125 13.0527 96.3263 13.135 94.5277 13.2447C94.9389 17.1545 97.8783 46.9858 98.0209 94.8475C95.9973 94.8584 93.9957 94.8694 92.027 94.8694C93.8861 96.3116 95.7889 97.7538 97.7631 99.196H98.0373V99.3934C99.5124 100.479 101.037 101.559 102.583 102.634C102.567 101.472 102.551 100.326 102.529 99.185C109.652 99.185 117.138 99.2344 124.985 99.366C125.111 105.321 125.988 111.529 127.853 117.928C129.723 118.899 131.62 119.853 133.545 120.785C129.975 113.223 128.187 106.144 127.875 99.4208C144.935 99.7389 163.613 100.408 183.656 101.576C183.739 100.03 183.794 98.4777 183.794 96.9038H183.794ZM46.4015 32.3937C43.347 34.9381 40.4625 37.691 37.7974 40.6412C39.9634 41.7653 44.7509 44.5511 50.1908 49.618H51.6989C51.6989 49.618 51.6989 50.1335 51.7098 51.0766C52.346 51.7127 52.9931 52.3708 53.6401 53.0672L55.4498 51.4934L58.0546 52.6669C58.0546 52.6669 58.1095 54.8275 58.2246 58.518C61.9865 63.4095 65.2604 68.3722 67.8323 73.472L74.4732 79.6247C68.1997 54.482 50.8269 36.6216 46.4014 32.3937" fill="#FEFEFE"/>
</g>
<defs>
<clipPath id="clip0_17_1048">
<rect width="200" height="200" fill="white"/>
</clipPath>
</defs>
</svg>
