<svg width="200" height="200" viewBox="0 0 200 200" fill="none" xmlns="http://www.w3.org/2000/svg">
<path d="M99.6663 181.091L86.4124 163.882C69.5472 158.321 57.8096 143.087 56.7241 125.362L48.5006 114.688C40.6825 118.058 32.8518 123.395 32.8518 123.395L8.18972 98.6524L18.5842 75.8735L0 51.7435H29.57L35.2931 39.2794L49.9366 33.3725L51.5585 28.9603L63.4271 34.3775L66.2485 24.5185L68.183 23.8768C77.5722 20.7481 88.3848 19.0676 99.4594 19.0043C99.7761 18.9832 103.294 19.0465 103.379 19.0465C103.793 19.0465 105.52 19.1395 105.52 19.1395C114.884 19.5912 123.686 21.1492 131.678 23.7754L133.642 24.4215L136.235 33.8201L140.509 30.5943L164.491 39.119L170.282 51.7477H200L181.213 75.9748L191.451 98.4244L166.405 124.205C166.405 124.205 157.222 117.509 150.925 115.013L143.377 124.746C142.516 142.893 130.166 158.811 112.802 164.152L99.6663 181.091Z" fill="#FEFEFE"/>
<path d="M99.6889 169.167L185.13 59.0433L14.814 59.0391L99.6889 169.167Z" fill="#B3B1B1"/>
<path d="M185.13 59.04L99.6887 169.164L14.8137 59.0358L185.13 59.04ZM7.79395 55.582L99.6802 174.809L192.179 55.5863L7.79395 55.582Z" fill="#006BB6"/>
<path d="M172.795 66.7005L172.765 66.6288L172.697 66.5865L167.232 62.9132L169.268 59.0245L169.327 58.9063L169.272 58.7839L161.75 42.2961L161.699 42.1947L161.593 42.1568L141.311 34.9367L141.168 34.8861L141.049 34.9747L135.672 39.0788L135.613 39.1252L135.584 39.1928L134.663 41.4474C134.663 41.4474 126.254 39.3363 113.904 38.1034C112.645 37.9768 109.283 37.7023 103.919 37.2801L103.399 37.2378L102.859 37.1999L102.732 37.1872L102.643 37.2759L98.635 41.2701L98.6393 37.1703C98.6393 37.1703 87.2691 37.8121 79.8227 38.8254C72.3764 39.8345 65.0567 41.6797 65.0567 41.6797L63.7094 38.7959L63.6671 38.7072L63.5742 38.6608L54.0033 34.2823L53.733 34.1641L53.6316 34.4385L52.5208 37.47L52.2674 36.8621L52.1618 36.613L51.9126 36.7143L38.2152 42.2032L38.1138 42.2454L38.0674 42.3468L12.8013 97.8352L33.5438 118.604L34.511 118.051C35.1361 117.697 36.0231 117.177 37.0199 116.586C39.5288 115.108 42.9668 113.086 44.6099 112.292L44.9435 112.132C47.068 111.106 48.1366 110.586 58.2186 106.275L59.0591 105.959C59.0718 105.959 60.1952 105.52 62.2691 104.831C67.8063 102.995 82.1922 98.7134 96.1346 98.7134H96.2909C96.8484 98.7134 97.4017 98.7219 97.9592 98.7388C107.429 99.0006 118.495 101.01 126.11 102.649C133.442 104.228 138.954 105.748 140.521 106.187L141.577 106.512C148.512 109.193 156.989 113.614 164.846 118.642L165.842 119.284L186.838 97.6663L172.795 66.7006V66.7005Z" fill="#006BB6"/>
<path d="M170.537 68.6244L150.357 55.1597L146.847 45.3092L153.098 47.5301L155.624 53.6861L165.123 56.7304L159.581 44.4859L141.652 38.1188L138.361 40.6648L144.321 60.0279L163.509 73.5854L168.43 85.8384L160.451 82.241L157.71 74.6157L147.92 71.7319L153.153 88.967C154.766 89.5624 156.371 90.1746 157.959 90.8164C162.314 92.5813 166.584 94.5319 170.753 96.6684C173.642 98.1419 176.484 99.7126 179.276 101.363L183.449 97.0821L170.537 68.6244H170.537ZM34.4393 77.7537L41.1634 71.7496L42.7684 73.6201L36.1288 92.7088C39.7647 91.1053 43.4603 89.6405 47.2075 88.3176L52.0183 72.5772L47.8664 65.7203L56.4658 57.5503L61.492 40.8092L55.3169 38.0352L49.767 53.8179L40.8719 61.4727L48.9814 41.0161L40.2638 44.4909L16.2437 97.1674L20.0027 100.934C22.2328 99.6374 24.4925 98.3877 26.7817 97.197L34.4393 77.7537ZM95.3064 40.1906L87.9403 40.5791L84.4768 80.0906C87.6066 79.7951 90.7617 79.5924 93.9379 79.4826L95.3064 40.1906L95.3064 40.1906ZM117.162 71.8898L108.609 71.379L107.236 47.1814L114.484 47.5318L113.635 40.8649L103.891 40.1725L99.528 44.5214L99.5195 74.7863L104.094 79.4687C108.816 79.6123 113.491 79.9669 118.108 80.5243L117.162 71.8898V71.8898ZM68.6976 55.7867L71.7851 70.8094L69.7873 82.1925C72.7777 81.6182 75.7892 81.1242 78.8302 80.7231L78.8513 80.7189L83.6115 41.0976L76.7732 42.094L74.5263 55.0646L71.9836 42.854L63.9417 44.868L52.7532 86.4696C55.9874 85.4585 59.254 84.5544 62.5479 83.7589L68.6976 55.7866V55.7867ZM128.142 69.7036L130.549 66.4524L134.063 69.3489L137.299 84.0802C140.695 84.9331 144.052 85.8958 147.364 86.9682L141.328 65.3588L135.102 60.2711L138.646 55.5464L135.702 44.5771L128.188 42.9051L131.145 53.9504L126.465 60.2035L123.01 42.0395L116.054 41.1571C116.054 41.1571 119.542 67.7993 121.19 80.922C124.34 81.3696 127.462 81.9142 130.553 82.5434L128.142 69.7036Z" fill="#F58426"/>
<path d="M85.5576 87.5946C85.5576 87.5946 88.4551 85.8973 94.2541 85.2555L94.0683 80.6913C90.8879 80.7969 87.7285 80.9953 84.5946 81.2909C84.8691 83.0768 85.2788 85.7369 85.5576 87.5946ZM103.985 84.979C106.341 85.2534 108.863 86.0261 111.08 86.651C113.083 87.1323 115.241 87.9936 117.006 88.779L117.982 81.749C113.319 81.1747 108.914 80.8285 104.145 80.6808C104.078 82.0445 104.073 83.9699 103.985 84.979ZM73.4753 96.118C76.1742 94.1125 77.7961 92.0478 80.6386 90.3167C80.0981 87.7665 79.38 84.4605 78.8563 81.9356C75.7645 82.3452 72.7023 82.856 69.6698 83.4429C70.8313 87.226 72.3138 92.2969 73.4753 96.118H73.4753ZM119.36 90.1939C121.992 91.7181 124.044 93.4407 126.397 95.725L126.861 96.0796L130.57 83.8141C127.377 83.1512 124.272 82.5769 121.012 82.1167L119.36 90.1938V90.1939ZM131.061 100.851L139.902 102.933L147.34 88.2309C143.91 87.112 140.603 86.1916 137.084 85.3092L131.061 100.851ZM59.9443 102.931C62.2505 102.082 65.4731 100.917 68.4804 100.115L62.7403 84.9444C59.2727 85.7846 56.2486 86.667 52.8696 87.7352C55.0068 92.8188 57.4016 98.0544 59.9443 102.931V102.931ZM46.6106 108.392C47.1216 107.953 52.1393 105.786 55.5732 104.334C52.963 99.6136 49.8248 94.4034 47.2061 89.5985C43.4639 90.9327 40.0554 92.3176 36.4357 93.9263L46.6106 108.392ZM34.092 115.029C35.6885 114.071 37.3822 113.087 39.2449 112.011L27.5157 98.1785C25.2856 99.3354 23.085 100.547 20.9141 101.805L34.092 115.029ZM144.582 104.75C151.623 107.482 161.469 113.001 165.384 115.627C167.192 113.9 176.986 103.619 178.334 102.209C170.191 97.4333 161.633 93.3715 152.73 90.0993L144.582 104.75ZM102.631 84.7489L99.2685 84.6306L99.2094 76.4648L102.707 80.0918L102.631 84.7489Z" fill="#B3B1B1"/>
<path d="M100.036 83.1328C78.1824 83.1328 60.4725 100.841 60.4683 122.687C60.4725 144.528 78.1824 162.236 100.036 162.236C121.885 162.236 139.603 144.528 139.603 122.687C139.603 100.841 121.885 83.1329 100.036 83.1329" fill="#006BB6"/>
<path d="M102.469 86.0935C99.432 87.1533 96.5093 88.6944 93.6118 90.0371C91.6351 88.8549 90.5032 88.5551 89.1685 87.6938C93.3288 86.1822 97.8059 85.9542 102.469 86.0935ZM130.813 102.885C121.491 93.4951 107.506 94.1749 95.6421 90.852C95.6421 90.852 102.624 87.5291 106.227 86.6087C115.92 88.2595 125.305 94.0608 130.813 102.885ZM78.407 104.297C69.4527 118.032 68.2405 134.954 75.3701 149.783C66.154 142.043 60.6633 127.059 64.7982 112.509C68.1857 107.776 72.5445 103.592 78.407 104.297" fill="#F58426"/>
<path d="M87.9943 114.076C92.822 128.423 93.8906 144.303 106.388 158.751C96.6444 160.727 86.9891 157.81 79.2935 152.933C69.7565 139.025 70.6561 118.277 80.189 104.791C84.835 106.129 87.365 112.201 87.9943 114.076Z" fill="#F58426"/>
<path d="M81.2954 103.278C82.7442 101.234 84.3787 99.3045 86.216 97.5059C106.485 103.227 125.813 124.237 129.124 144.883C128.157 146.441 125.843 148.616 124.288 150.17C119.249 154.696 113.7 157.039 108.373 158.31C98.9082 148.493 95.7911 135.751 92.446 123.19C89.8822 113.55 88.0998 106.28 81.3039 103.328L81.2954 103.278Z" fill="#F58426"/>
<path d="M128.654 103.186C118.863 94.5517 105.225 95.6579 93.7829 91.6341C91.574 92.9894 89.4114 94.5896 87.5657 96.2447C107.835 102.599 126.229 122.41 130.609 142.883C133.785 138.294 135.707 132.965 136.48 127.312C136.974 118.631 136.89 110.731 128.654 103.186V103.186ZM84.5453 96.8718C82.5898 98.7507 81.1241 100.6 79.5994 102.758L79.5529 102.745C74.1889 101.546 69.9567 104.32 66.5566 107.778C68.1786 103.682 71.5786 98.8224 75.1772 95.6473C78.497 95.7909 80.913 95.7402 84.5453 96.8718ZM85.9826 95.6156C87.9002 93.9099 89.7586 92.4194 92.0647 91.0345L86.8654 88.459C83.4062 89.8734 79.702 91.7143 77.1593 94.0408C81.0916 94.501 82.7727 94.7417 85.9826 95.6156Z" fill="#F58426"/>
<path d="M94.4316 34.6453L92.8309 36.2371L90.0897 36.4018L89.0676 35.5151L87.7793 36.6086L84.7932 36.8873L83.4796 35.6375L85.2029 23.9504L87.4626 23.6422L86.2419 33.9613L87.8638 33.784L89.1224 23.4438L91.3568 23.2242L90.4234 33.4927L92.0115 33.3449L92.8266 23.1271C93.777 23.0257 94.2669 23.0342 95.099 22.9877L94.4317 34.6453H94.4316ZM101.763 22.829L101.784 30.1841L103.225 30.1756L103.136 22.8628C103.136 22.8628 104.652 22.9092 105.332 22.9683L105.624 31.2143L104.234 32.6035L103.778 32.6246L103.845 36.1543L101.391 36.0826L101.362 32.5486L100.872 32.5105L99.3852 30.9948L99.4781 22.791C100.272 22.791 101.763 22.829 101.763 22.829ZM83.5582 24.1919L83.1738 26.6071L80.4411 27.1221L79.9469 29.9468C80.9479 29.7653 81.5604 29.6682 82.7515 29.5077C82.5867 30.5591 82.5361 30.9222 82.3544 31.9144L79.609 32.3071L79.0938 35.0093L81.9067 34.6039C81.9067 34.6039 81.628 36.4237 81.4844 37.2344C79.5161 37.4793 77.5352 37.7621 75.6472 38.0915C75.6472 38.0915 77.7633 28.2875 78.287 25.2644L83.5582 24.1919ZM73.2558 38.5239L70.4048 39.0854L71.7141 33.7401L70.8272 31.8232L68.5886 39.5161L65.8052 40.1494C66.9625 35.9863 68.1493 31.8189 69.3066 27.6559C70.2654 27.3349 70.9792 27.1154 71.8239 26.8663C72.1323 27.5672 72.8841 28.9816 72.8841 28.9816L73.5599 26.3723C73.5599 26.3723 75.3254 25.9078 76.2123 25.7052L73.2558 38.5239ZM109.576 25.66L110.29 33.64L111.705 33.754L110.953 25.812L109.576 25.66ZM113.331 25.0942C113.614 28.4425 114.167 31.6471 114.505 34.7715L113.259 36.6716L109.23 36.4056L107.777 34.8222C107.519 31.4064 107.342 27.9611 107.131 24.5327C107.502 24.0429 108.068 23.6629 108.512 23.1858L111.87 23.5109L113.331 25.0942ZM126.35 26.2908C126.852 28.2077 127.832 32.1597 127.832 32.1597L128.787 32.3539L129.251 31.7164L128.056 26.8059C128.056 26.8059 129.239 27.1352 130.506 27.5195L131.773 32.2737L131.177 33.1308L132.284 34.3468L133.956 40.1397L131.203 39.5233L130.121 35.4615L128.407 35.0772L129.344 39.1221L126.552 38.5732C125.577 34.2159 123.811 25.6364 123.811 25.6364C123.811 25.6364 125.23 25.9319 126.35 26.2908ZM118.116 26.9254L118.593 30.2525L120.11 30.4214L119.468 27.1703L118.116 26.9254V26.9254ZM121.989 26.7565L122.91 31.536L122.378 32.2707L123.315 33.3896L124.126 38.1354L121.444 37.6667L120.714 33.7147L119.1 33.5374L119.67 37.3923L116.992 37.0545L115.214 23.9445L120.333 24.8481L121.989 26.7565Z" fill="#006BB6"/>
</svg>
