<?xml version="1.0" encoding="UTF-8"?><svg id="uuid-e924ba93-ccf8-4987-ab04-8171971ade20" xmlns="http://www.w3.org/2000/svg" viewBox="0 0 377.28 316.67">
<title>Orlando Magic 2025 logo - Brandlogos.net</title><path d="M162.79,10.37C181.59,3.19,201.76-.22,221.86.01c19.87.51,39.71,4.45,58.06,12.19,14.68,6.1,28.39,14.48,40.59,24.67,21.15,17.65,37.58,40.9,47.08,66.75,5.99,16.16,9.18,33.33,9.7,50.55v8.22c-.66,24.74-7.1,49.32-18.9,71.08-12.53,23.25-30.97,43.28-53.12,57.67-25.75,16.87-56.56,25.85-87.34,25.52-33.49-.11-66.83-11.32-93.56-31.51-25.02-18.69-44.36-44.93-54.6-74.45-.44-1.36-1.26-2.56-2.32-3.52-3.89-3.59-7.63-7.32-11.54-10.88-11.25,6.38-22.31,13.1-33.49,19.59-7.49,4.32-14.82,8.91-22.42,13.04,12.01-18.81,24.33-37.43,36.4-56.21-5.51-5.5-11.26-10.75-16.85-16.16-3.2-3.09-6.55-6.03-9.59-9.29,10.53-.03,21.06,0,31.6-.02,9.02-13.83,18.01-27.67,26.97-41.53-9.12-8.89-18.52-17.51-27.61-26.43,13.73-.15,27.46.04,41.19-.1,17.88-31.33,46.97-56.04,80.69-68.83ZM201.3,13.22c-30.32,3.61-59.3,17.25-81.6,38.07-.36.42-.82.88-.84,1.47-.19,2.37-.06,4.75.04,7.12,1.43-1.1,2.73-2.36,4.01-3.61,8.45-7.98,17.88-14.9,28.03-20.56,20.75-11.59,44.51-17.78,68.28-17.68,30.09-.06,60.09,9.96,84.08,28.13,22.71,17,40.04,41.06,48.91,68.01,6.27,18.78,8.35,38.9,6.37,58.59-1.83,17.95-7.17,35.53-15.65,51.45-12.41,23.37-31.55,43.1-54.57,56.16-15.1,8.65-31.85,14.36-49.06,16.87-19.94,2.85-40.5,1.48-59.83-4.23-26.78-7.85-51.01-24.01-68.65-45.62-10.15-12.31-18.08-26.4-23.59-41.37-1.74.82-3.41,1.79-5.03,2.81,1.39,4.89,3.71,9.47,5.84,14.07,3.91,7.9,8.52,15.47,13.77,22.55,17.04,23.06,40.98,40.96,68,50.62,16.63,5.98,34.36,8.84,52.03,8.52,27.76-.49,55.33-9.09,78.37-24.6,23.16-15.45,41.75-37.65,52.85-63.19,14.76-33.58,16.11-72.76,3.79-107.3-9.57-27.18-27.46-51.32-50.58-68.5-25.61-19.15-57.69-29.6-89.69-28.79-5.13-.15-10.21.46-15.3,1ZM209.78,30.33c-5.67,1.03-10.55,5.76-11.38,11.51-.16,2.44-.25,5,.81,7.27,1.83,4.66,6.35,8.09,11.3,8.69,6.25.93,12.85-2.73,15.16-8.64,2.3-5.23.7-11.74-3.59-15.46-3.27-3.01-7.97-4.13-12.3-3.38ZM247.56,33.64c-2.45,7.72-4.82,15.45-7.25,23.17-.28.84-.4,1.73-.51,2.61,2.13.4,4.22.98,6.32,1.55,1.06-2.92,1.83-5.94,2.88-8.86.93,3.46,1.58,6.99,2.42,10.48,2.57.85,5.07,1.87,7.58,2.89-.83-3.98-1.93-7.89-2.91-11.83,1.6-.4,3.33-.76,4.59-1.91,1.99-1.66,2.91-4.33,2.96-6.86,0-3.43-2.32-6.45-5.26-8.02-3.35-1.76-7.15-2.39-10.81-3.21ZM269.77,70.92c4.44,2.54,8.58,5.56,12.69,8.6,1.27-1.76,2.44-3.57,3.69-5.34-2.22-1.81-4.51-3.52-6.86-5.14,3.81-5.57,7.64-11.12,11.41-16.71-1.9-1.21-3.66-2.69-5.76-3.53-5.17,7.29-10.13,14.74-15.18,22.12ZM177.26,59.85c-4.5,6.89-9,13.79-13.43,20.73-9.74.14-19.49-.12-29.23.13,1.91,2.24,4.19,4.12,6.28,6.18,3.82,3.7,7.74,7.3,11.53,11.03-2.34,3.87-4.78,7.7-7.42,11.37-.12-3.34.13-6.7-.18-10.03-1.65,1.62-2.77,3.65-4,5.57-5.98,9.19-11.97,18.39-17.91,27.62-.5.74-1.13,1.62-2.15,1.48-10.95.04-21.9,0-32.84.02,6.81,6.81,13.98,13.25,20.84,20-.95,1.73-1.99,3.4-3.1,5.03-5.58,8.58-11.15,17.16-16.72,25.74-1.46,2.29-3.12,4.47-4.25,6.95,3.42-1.45,6.45-3.65,9.69-5.44,9.96-5.81,19.85-11.77,29.86-17.49,1.88,1.63,3.65,3.38,5.47,5.07,1.05,1,2.34,1.95,2.64,3.45.66,2.45,1.22,4.93,1.78,7.4-8.02.18-16.05-.06-24.07.12,1.62,1.99,3.63,3.61,5.47,5.39,4.03,3.82,8.21,7.5,12.14,11.43-7.13,11.22-14.4,22.36-21.43,33.65,3.44-1.73,6.72-3.76,10.09-5.61,8.55-4.87,17.14-9.67,25.68-14.57.92-.51,2.03-.87,3.07-.52.98.37,1.76,1.09,2.57,1.74,6.12,5.2,12.56,10.04,19.31,14.4,11.7,7.6,24.73,13.53,38.64,15.44,6.09,1.09,12.31,1.03,18.48.88,16.43-.84,32.54-6.51,45.96-16.01,12.42-8.73,22.53-20.69,29.09-34.38,7.14-14.96,10.05-31.95,8.08-48.41-1.89-16.93-8.87-33.23-19.75-46.34-9.75-11.84-22.61-21.08-36.95-26.52-18.33-7.02-39.01-7.63-57.73-1.77-2.91.84-5.67,2.14-8.6,2.93-.25-8.95.03-17.91-.14-26.86-2.44,3.27-4.51,6.8-6.77,10.21ZM105.5,68.18c-4.33,6.76-8.76,13.45-13.09,20.21-.46.66-.98,1.52-1.92,1.4-7.65.1-15.31-.15-22.95.11,1.73,2.16,3.87,3.91,5.84,5.84,2.91,2.8,5.87,5.54,8.75,8.37-5.98,9.51-12.29,18.81-18.27,28.33,2.78-1.35,5.34-3.08,8.02-4.61,7.25-4.22,14.43-8.55,21.72-12.71,5.05,4.33,9.49,9.33,14.64,13.54.21-7.32-.14-14.67.16-21.99.99-1.16,2.46-1.73,3.73-2.52,5.7-3.34,11.4-6.69,17.09-10.04,2.23-1.36,4.62-2.48,6.63-4.17-2.26-.22-4.54-.15-6.81-.15-6.87.01-13.75-.01-20.63.02-.29-8.55,0-17.12-.14-25.68-.97,1.32-1.89,2.68-2.77,4.05ZM315.77,78.37c-8.54,2.68-17.1,5.31-25.59,8.12,1.62,1.61,3.1,3.34,4.65,5.02,1.47.17,2.85-.87,4.32-1.07,2,2.53,4.3,4.94,5.82,7.79-.62,1.23-1.48,2.33-2.18,3.51,1.34,1.96,2.54,4.01,3.76,6.06.12-.02.36-.06.48-.08,5.22-8.21,10.42-16.45,15.53-24.74-1.25-1.84-2.68-3.54-4.01-5.33-.94.21-1.87.42-2.77.72ZM311.21,116.79c.87,2.11,1.78,4.19,2.58,6.32,4.54-1.51,9.13-2.86,13.66-4.39-3.36,4.95-6.98,9.72-10.49,14.56.49,1.9.84,3.84,1.31,5.75,1.5-.18,2.92-.72,4.36-1.17,7.13-2.29,14.28-4.51,21.39-6.85-.38-2.21-.99-4.37-1.55-6.53-4.5,1.16-8.84,2.85-13.32,4.07,3.27-4.75,6.81-9.33,10.06-14.12-.64-1.99-1.44-3.93-2.24-5.86-8.59,2.73-17.18,5.42-25.75,8.22ZM69.48,141.2c-3.68,5.57-7.24,11.22-10.93,16.79-7.32.12-14.64-.04-21.96.08,4.28,4.51,9.01,8.57,13.39,12.97-5.4,8.85-11.37,17.35-16.79,26.19,9.26-5.15,18.22-10.85,27.51-15.97,2.52,2.24,4.9,4.62,7.36,6.93,1.94,1.81,3.71,3.82,5.9,5.35.28-6.73.05-13.47.11-20.21,6-3.65,12.11-7.13,18.15-10.72,2.41-1.49,4.99-2.71,7.22-4.49-8.45-.27-16.92.13-25.37-.2-.05-7.69.19-15.4-.12-23.09-1.82,1.88-3.01,4.22-4.46,6.38ZM319.97,151.33c.16,4.27-.27,8.6.63,12.81.7,3.29,2.49,6.44,5.36,8.28,6.05,3.67,15.02,1.97,18.73-4.25,3.03-4.71,2.32-10.53,2.15-15.84-5.02-.44-10.08-.16-15.09-.75-3.93-.08-7.86-.12-11.79-.25ZM322.4,185.81c-6.96,1.86-11.71,9.53-10.16,16.58.9,5.07,4.83,9.49,9.83,10.81,3.85,1.2,8.17.32,11.48-1.9,5.7-3.73,8.02-11.74,5.11-17.91-2.6-6.06-9.93-9.58-16.26-7.58ZM149.96,232.26c-5.14,7.43-10.41,14.76-15.45,22.25,1.8,1.38,3.41,3.01,5.35,4.2,2.29-3.49,4.79-6.83,7.11-10.29.57-.81,1.12-1.65,1.93-2.24-.38,3.82-.34,7.67-.81,11.49-.38,1.2.92,2.01,1.96,1.51,3.67-1.44,7.2-3.25,10.89-4.63-2.77,4.41-6.04,8.5-8.79,12.92,2.06,1.32,4.21,2.51,6.35,3.71,5.31-7.35,10.44-14.83,15.6-22.28-2.05-.95-3.99-2.12-5.98-3.2-.59-.4-1.27-.1-1.84.15-3.72,1.66-7.44,3.32-11.21,4.86-.12-4.57.52-9.11.57-13.67-1.99-1.48-3.71-3.27-5.68-4.78ZM276.68,248.03c-.11,6.91,5.79,13.13,12.62,13.74,4.75.39,9.57-1.86,12.53-5.56.43-.61,1.3-1.41.74-2.2-1.3-1.86-2.7-3.65-4.08-5.45-1.16,3.17-3.96,5.96-7.46,6.2-4.61.3-8.64-4.94-6.92-9.29,1.1-3.39,4.69-5.05,7.98-5.54-1.41-1.98-2.84-3.95-4.34-5.87-6.25,1.44-11.35,7.45-11.08,13.98ZM253.33,253.52c.32,1.29.81,2.53,1.32,3.77,2.86,7.08,5.62,14.22,8.52,21.29,2.32-.84,4.61-1.78,6.86-2.78-3.17-8.4-6.57-16.72-9.92-25.05-2.22,1.02-4.5,1.9-6.78,2.77ZM175.52,278.74c2.22.85,4.46,1.68,6.8,2.14.77-1.11,1.52-2.23,2.27-3.35,3.1.95,6.26,1.73,9.43,2.36.16,1.38.41,2.76.51,4.15,2.48.33,4.91,1.02,7.43,1.08-1.37-9.22-2.44-18.48-3.6-27.72-2.24-.56-4.49-1.11-6.72-1.69-5.34,7.7-10.8,15.31-16.12,23.02ZM217.92,264.65c-2.6,3.6-3.23,8.51-1.63,12.65,2,5.43,7.66,9.27,13.45,9.08,5.15.14,9.9-3.39,11.86-8.04,1.39-2.88,1.26-6.14.97-9.23-4.19-.03-8.32.77-12.51.71-.74,2.13-1.49,4.25-2,6.45,2.57-.32,5.16-.61,7.76-.51-.76,1.71-2.1,3.2-3.93,3.74-3.64,1.3-7.92-1.04-8.91-4.74-1.24-3.39.43-7.67,3.84-9.05,2.39-.95,5.14-.62,7.38.59,1.55-1.53,2.91-3.25,4.14-5.04-2.49-1.45-5.21-2.75-8.16-2.62-4.76-.29-9.54,2.1-12.25,6.01Z" style="fill:#040707;"/><path d="M210.65,36.89c2.09-.48,4.41-.13,6.1,1.26,3.49,2.63,3.72,8.39.49,11.33-1.79,1.79-4.53,2.26-6.9,1.56-2.2-.75-3.94-2.58-4.63-4.79-1.37-3.77,1.04-8.37,4.93-9.35Z" style="fill:#040707;"/><path d="M250.43,47.27c.64-1.92,1.21-3.87,1.89-5.78,1.54.48,3.4.81,4.26,2.36.33,1.38.07,3.08-1.24,3.86-1.55,1.03-3.34.02-4.9-.43Z" style="fill:#040707;"/><path d="M305.03,88.52c2.61-1.1,5.35-1.85,8.03-2.76-1.45,2.44-3.05,4.79-4.59,7.17-1.14-1.48-2.26-2.97-3.44-4.41Z" style="fill:#040707;"/><path d="M326.57,158.38c4.65.21,9.29.15,13.93.54-.05,1.9-.06,3.97-1.27,5.55-2.6,3.67-8.85,3.61-11.42-.06-1.27-1.74-1.27-3.98-1.24-6.03Z" style="fill:#040707;"/><path d="M324.44,192.47c4.33-.97,9.06,2.84,8.81,7.36.02,4.38-4.7,7.83-8.87,6.63-3.28-.81-5.96-3.98-5.72-7.44,0-3.24,2.66-5.99,5.78-6.55Z" style="fill:#040707;"/><path d="M188.06,272.6c1.27-2.48,2.92-4.75,4.55-7.02.33,2.72.67,5.44.74,8.19-1.8-.17-3.54-.76-5.29-1.17Z" style="fill:#040707;"/><path d="M201.3,13.22c5.09-.54,10.17-1.15,15.3-1,32-.81,64.07,9.64,89.69,28.79,23.13,17.18,41.01,41.32,50.58,68.5,12.32,34.54,10.97,73.72-3.79,107.3-11.1,25.54-29.68,47.74-52.85,63.19-23.04,15.51-50.61,24.11-78.37,24.6-17.67.32-35.4-2.54-52.03-8.52-27.01-9.65-50.95-27.56-68-50.62-5.26-7.08-9.87-14.65-13.77-22.55-2.14-4.6-4.46-9.17-5.84-14.07,1.63-1.02,3.3-1.99,5.03-2.81,5.51,14.96,13.44,29.05,23.59,41.37,17.65,21.6,41.88,37.77,68.65,45.62,19.33,5.71,39.89,7.08,59.83,4.23,17.21-2.52,33.96-8.22,49.06-16.87,23.01-13.06,42.15-32.8,54.57-56.16,8.48-15.92,13.83-33.51,15.65-51.45,1.98-19.69-.1-39.81-6.37-58.59-8.87-26.95-26.21-51.01-48.91-68.01-23.99-18.17-53.99-28.19-84.08-28.13-23.77-.1-47.53,6.09-68.28,17.68-10.15,5.65-19.59,12.58-28.03,20.56-1.29,1.26-2.59,2.51-4.01,3.61-.1-2.37-.23-4.75-.04-7.12.02-.6.48-1.05.84-1.47,22.3-20.83,51.28-34.47,81.6-38.07Z" style="fill:#1d55a6;"/><path d="M177.26,59.85c2.26-3.4,4.33-6.93,6.77-10.21.17,8.95-.11,17.91.14,26.86,2.93-.79,5.69-2.09,8.6-2.93,18.73-5.86,39.4-5.25,57.73,1.77,14.34,5.45,27.2,14.68,36.95,26.52,10.88,13.1,17.86,29.41,19.75,46.34,1.97,16.47-.94,33.46-8.08,48.41-6.56,13.69-16.67,25.65-29.09,34.38-13.42,9.49-29.54,15.16-45.96,16.01-6.16.14-12.38.2-18.48-.88-13.91-1.91-26.94-7.84-38.64-15.44-6.75-4.36-13.19-9.2-19.31-14.4-.8-.65-1.59-1.37-2.57-1.74-1.04-.35-2.15,0-3.07.52-8.53,4.9-17.13,9.7-25.68,14.57-3.38,1.86-6.65,3.88-10.09,5.61,7.03-11.28,14.29-22.43,21.43-33.65-3.93-3.93-8.11-7.6-12.14-11.43-1.84-1.78-3.85-3.39-5.47-5.39,8.02-.18,16.05.07,24.07-.12-.56-2.47-1.12-4.95-1.78-7.4-.31-1.51-1.6-2.46-2.64-3.45-1.83-1.69-3.59-3.45-5.47-5.07-10.02,5.72-19.9,11.68-29.86,17.49-3.24,1.79-6.27,3.98-9.69,5.44,1.13-2.48,2.78-4.66,4.25-6.95,5.57-8.59,11.14-17.16,16.72-25.74,1.11-1.62,2.15-3.3,3.1-5.03-6.86-6.75-14.03-13.2-20.84-20,10.95-.02,21.9.03,32.84-.02,1.02.14,1.65-.74,2.15-1.48,5.94-9.23,11.93-18.42,17.91-27.62,1.23-1.93,2.36-3.96,4-5.57.32,3.33.06,6.69.18,10.03,2.64-3.68,5.08-7.5,7.42-11.37-3.8-3.73-7.71-7.32-11.53-11.03-2.09-2.06-4.37-3.94-6.28-6.18,9.74-.25,19.49.01,29.23-.13,4.44-6.94,8.93-13.84,13.43-20.73ZM167.01,86.36c-5.95.17-11.93-.24-17.87.24,3.6,3.5,7.19,7,10.87,10.42-4.19,6.81-8.75,13.38-12.92,20.21-3.36,5.65-5.6,11.84-7.78,18.02-.4-5.51.29-11.08-.41-16.57-4.81,6.89-9.12,14.13-13.87,21.06-7.48,0-14.96-.08-22.44.05,4.41,4.61,9.21,8.84,13.78,13.3-4.41,7.21-9.33,14.11-13.66,21.37,7.54-4.2,14.88-8.76,22.38-13.05,3.87,3.71,7.82,7.32,11.64,11.08.96.82,1.07,2.15,1.35,3.3.78,3.78,1.87,7.5,3.2,11.12.65,1.3-.59,2.45-1.03,3.6-5.17.09-10.33-.09-15.49.11,2.79,3.04,6.02,5.64,8.97,8.52.53.6,1.76,1.22,1.08,2.15-3.73,6.01-7.81,11.82-11.45,17.89,4.28-2.2,8.32-4.84,12.51-7.22,2.78-1.57,5.56-3.81,8.94-3.49,3.85.32,6.58,3.35,9.41,5.63,9.55,7.87,19.85,14.98,31.18,20.05,8.8,3.85,18.27,6.27,27.86,6.86,5.49.69,11.03.11,16.51-.42,17.52-2.27,34.26-10.33,46.87-22.71,11.19-10.72,19.19-24.69,22.88-39.73,4.24-17.12,2.82-35.59-4.06-51.84-5.98-14.26-16.03-26.76-28.68-35.66-12.54-8.88-27.6-14.21-42.95-14.99-4.44-.65-8.9-.01-13.34.29-9.15.96-18.13,3.45-26.47,7.34-1.9.91-3.75,1.92-5.68,2.76-.17-5.58.05-11.17-.12-16.75-3.89,5.58-7.45,11.39-11.19,17.07Z" style="fill:#1d55a6;"/><path d="M105.5,68.18c.88-1.38,1.8-2.74,2.77-4.05.14,8.55-.14,17.12.14,25.68,6.88-.03,13.76,0,20.63-.02,2.27,0,4.54-.07,6.81.15-2.01,1.69-4.4,2.81-6.63,4.17-5.69,3.36-11.39,6.7-17.09,10.04-1.27.79-2.75,1.36-3.73,2.52-.29,7.32.05,14.66-.16,21.99-5.15-4.21-9.59-9.22-14.64-13.54-7.29,4.15-14.47,8.49-21.72,12.71-2.68,1.53-5.25,3.26-8.02,4.61,5.98-9.51,12.29-18.82,18.27-28.33-2.88-2.82-5.84-5.57-8.75-8.37-1.97-1.93-4.12-3.68-5.84-5.84,7.65-.26,15.31-.01,22.95-.11.94.13,1.46-.74,1.92-1.4,4.33-6.76,8.76-13.45,13.09-20.21ZM94.06,94.6c-4.96.05-9.92-.07-14.88.07,2.91,2.67,5.74,5.42,8.59,8.15.65.36.3,1.04,0,1.52-2.88,4.55-6,8.95-8.7,13.6,5.18-2.8,10.11-6.06,15.32-8.83,3.01,2.82,5.99,5.68,9,8.5.13-4.67,0-9.34.08-14.01,5.09-2.91,10.16-5.86,15.15-8.93-5.05-.16-10.11-.01-15.16-.09-.04-4.75.03-9.51-.04-14.26-3.21,4.69-6.19,9.54-9.36,14.26Z" style="fill:#1d55a6;"/><path d="M227.05,83.96c3.15-.03,6.24.66,9.29,1.35,16.93,3.96,32.35,14.06,42.72,28.02,2.05,2.97,2.23,7.11.42,10.24-2.44,4.47-7.55,6.48-12.29,7.39-2.15-6.47-4.46-12.94-7.9-18.86-7.1-12.64-18.2-23.65-32.25-28.14Z" style="fill:#1d55a6;"/><path d="M182.34,92.9c8.59-4.71,18.18-8.44,28.15-7.89,9.06.57,17.67,4.46,24.89,9.84,11.72,8.91,19.84,22.1,23.66,36.23-7.74-.95-14.91-4.28-21.69-7.95-9.36-5.1-18.32-10.97-28.13-15.19-8.14-3.58-16.95-5.81-25.88-5.78-4.61.23-9.22,1.05-13.54,2.73-1.97.73-3.83,1.73-5.75,2.57,5.16-5.88,11.52-10.67,18.31-14.54Z" style="fill:#1d55a6;"/><path d="M173.41,109.78c8.56-1.83,17.52-.41,25.68,2.52,16,5.8,29.34,16.95,45.13,23.21,5.36,2.15,11.03,3.54,16.8,3.95.93,5.02,1.43,10.11,1.67,15.21-8.93.56-17.9.11-26.83.65-6.72.11-13.43.13-20.15.21-6.41.45-12.84.39-19.26.45-6.7.4-13.43.27-20.14.47-7.47.58-14.99,0-22.45.62.04.92.05,1.85.04,2.78,8.2,0,16.39.55,24.6.48,7.43.49,14.89.28,22.33.46,6.99.55,14.01.31,21.02.44,8.16.6,16.36.09,24.51.66,5.41.07,10.81.1,16.23.12-.02,5.15-.71,10.28-1.58,15.35-7.14.57-14.09,2.59-20.58,5.58-9.61,4.37-18.42,10.24-27.67,15.29-6.95,3.76-14.22,7.12-22,8.67-7.5,1.57-15.52,1.49-22.68-1.45-7.7-3.08-13.69-9.48-17.46-16.76-3.89-7.67-5.63-16.25-6.46-24.75-.11-3.91-.16-7.83.04-11.74,1.1-10.43,3.52-21.19,9.93-29.74,4.63-6.36,11.53-11.09,19.27-12.69Z" style="fill:#1d55a6;"/><path d="M285.69,124.08c4.98,9.35,7.71,19.86,8.24,30.42-7.77.02-15.54.15-23.31.15-.22-5.14-.63-10.29-1.7-15.33,4.51-.87,9.15-2.26,12.52-5.53,2.7-2.47,4.19-6.07,4.26-9.71Z" style="fill:#1d55a6;"/><path d="M69.48,141.2c1.45-2.15,2.64-4.5,4.46-6.38.31,7.69.07,15.39.12,23.09,8.45.33,16.92-.07,25.37.2-2.22,1.78-4.81,3-7.22,4.49-6.04,3.59-12.15,7.07-18.15,10.72-.06,6.73.17,13.48-.11,20.21-2.19-1.53-3.96-3.54-5.9-5.35-2.46-2.31-4.84-4.68-7.36-6.93-9.29,5.12-18.24,10.82-27.51,15.97,5.42-8.84,11.39-17.34,16.79-26.19-4.39-4.4-9.12-8.46-13.39-12.97,7.32-.12,14.64.04,21.96-.08,3.69-5.56,7.25-11.21,10.93-16.79ZM61.1,162.55c-4.3.05-8.61-.09-12.91.08,2.35,2.78,5.18,5.1,7.79,7.63-2.61,4.53-5.71,8.75-8.4,13.23,4.54-2.71,9.1-5.37,13.65-8.04,2.83,2.28,5.23,5.04,8.05,7.34.15-4.01.06-8.02.07-12.04,4.28-2.86,9.05-4.99,13.16-8.11-4.37-.2-8.75,0-13.13-.11-.07-4.12.06-8.23-.08-12.34-2.95,3.98-5.39,8.29-8.2,12.36Z" style="fill:#1d55a6;"/><path d="M270.63,162.11c1.98-.04,3.97.05,5.95.21,5.79.1,11.59.14,17.38.14-.63,10.44-3.27,20.86-8.24,30.1-.21-3.42-1.49-6.82-4.02-9.2-3.33-3.39-8.04-4.96-12.63-5.7.68-5.17,1.41-10.33,1.55-15.56Z" style="fill:#1d55a6;"/><path d="M250.18,187.9c2.86-.98,5.82-1.76,8.85-1.96-4.12,14.77-12.81,28.59-25.52,37.41-8.21,5.63-18.2,9.48-28.29,8.34-3.04-.13-6.02-.88-8.91-1.79-12.24-3.88-23.45-10.97-32.17-20.4,4.44,2.13,9.04,4.02,13.94,4.72,9.01,1.24,18.23-.31,26.7-3.49,9.17-3.39,17.59-8.43,26.02-13.3,6.24-3.59,12.54-7.18,19.37-9.53Z" style="fill:#1d55a6;"/><path d="M266.98,186.04c4.44.47,8.98,2.4,11.73,6.03,2.38,3.1,2.73,7.66.59,10.97-12.13,16.58-31.37,27.71-51.8,29.93,4.13-1.83,8.34-3.58,12.05-6.21,13.91-9.46,22.97-24.74,27.43-40.73Z" style="fill:#1d55a6;"/><path d="M209.78,30.33c4.33-.76,9.03.36,12.3,3.38,4.29,3.72,5.89,10.23,3.59,15.46-2.31,5.91-8.91,9.57-15.16,8.64-4.95-.6-9.48-4.03-11.3-8.69-1.06-2.27-.96-4.83-.81-7.27.83-5.76,5.71-10.48,11.38-11.51ZM210.65,36.89c-3.9.98-6.3,5.59-4.93,9.35.7,2.21,2.43,4.04,4.63,4.79,2.37.7,5.11.23,6.9-1.56,3.22-2.94,2.99-8.7-.49-11.33-1.69-1.38-4.01-1.73-6.1-1.26Z" style="fill:#fff;"/><path d="M247.56,33.64c3.66.82,7.46,1.45,10.81,3.21,2.94,1.57,5.25,4.59,5.26,8.02-.06,2.53-.97,5.2-2.96,6.86-1.26,1.15-2.99,1.51-4.59,1.91.98,3.94,2.08,7.85,2.91,11.83-2.5-1.02-5.01-2.04-7.58-2.89-.84-3.49-1.49-7.01-2.42-10.48-1.04,2.92-1.82,5.94-2.88,8.86-2.1-.57-4.19-1.15-6.32-1.55.11-.88.23-1.76.51-2.61,2.44-7.72,4.81-15.45,7.25-23.17ZM250.43,47.27c1.56.45,3.35,1.46,4.9.43,1.31-.78,1.57-2.48,1.24-3.86-.86-1.55-2.72-1.88-4.26-2.36-.68,1.91-1.25,3.86-1.89,5.78Z" style="fill:#fff;"/><path d="M269.77,70.92c5.05-7.38,10.01-14.82,15.18-22.12,2.1.84,3.86,2.32,5.76,3.53-3.77,5.59-7.6,11.14-11.41,16.71,2.35,1.62,4.64,3.33,6.86,5.14-1.25,1.76-2.43,3.58-3.69,5.34-4.11-3.04-8.24-6.06-12.69-8.6Z" style="fill:#fff;"/><path d="M167.01,86.36c3.74-5.68,7.3-11.49,11.19-17.07.17,5.58-.05,11.17.12,16.75,1.93-.84,3.78-1.85,5.68-2.76,8.34-3.89,17.32-6.38,26.47-7.34,4.44-.3,8.89-.94,13.34-.29,15.35.77,30.42,6.11,42.95,14.99,12.64,8.89,22.7,21.4,28.68,35.66,6.88,16.25,8.3,34.72,4.06,51.84-3.69,15.04-11.69,29.01-22.88,39.73-12.61,12.38-29.35,20.44-46.87,22.71-5.48.53-11.01,1.12-16.51.42-9.59-.6-19.05-3.02-27.86-6.86-11.33-5.07-21.63-12.18-31.18-20.05-2.83-2.28-5.56-5.31-9.41-5.63-3.38-.33-6.16,1.92-8.94,3.49-4.19,2.37-8.23,5.02-12.51,7.22,3.64-6.07,7.72-11.88,11.45-17.89.68-.93-.55-1.54-1.08-2.15-2.95-2.88-6.18-5.48-8.97-8.52,5.16-.2,10.33-.01,15.49-.11.45-1.16,1.68-2.3,1.03-3.6-1.33-3.63-2.42-7.34-3.2-11.12-.28-1.15-.39-2.47-1.35-3.3-3.82-3.76-7.77-7.37-11.64-11.08-7.5,4.29-14.83,8.84-22.38,13.05,4.33-7.26,9.25-14.16,13.66-21.37-4.57-4.45-9.36-8.68-13.78-13.3,7.48-.13,14.96-.04,22.44-.05,4.75-6.93,9.06-14.17,13.87-21.06.7,5.49,0,11.05.41,16.57,2.17-6.17,4.41-12.37,7.78-18.02,4.16-6.82,8.72-13.4,12.92-20.21-3.67-3.42-7.27-6.92-10.87-10.42,5.94-.47,11.91-.07,17.87-.24ZM227.05,83.96c14.04,4.49,25.14,15.49,32.25,28.14,3.44,5.92,5.74,12.39,7.9,18.86,4.75-.91,9.86-2.92,12.29-7.39,1.8-3.13,1.63-7.26-.42-10.24-10.36-13.97-25.79-24.06-42.72-28.02-3.06-.69-6.14-1.38-9.29-1.35ZM182.34,92.9c-6.78,3.88-13.14,8.66-18.31,14.54,1.93-.84,3.78-1.84,5.75-2.57,4.32-1.68,8.92-2.5,13.54-2.73,8.92-.03,17.74,2.2,25.88,5.78,9.81,4.22,18.78,10.09,28.13,15.19,6.79,3.67,13.95,7,21.69,7.95-3.81-14.13-11.94-27.32-23.66-36.23-7.22-5.38-15.82-9.27-24.89-9.84-9.96-.55-19.56,3.19-28.15,7.89ZM173.41,109.78c-7.74,1.6-14.64,6.34-19.27,12.69-6.4,8.55-8.82,19.31-9.93,29.74-.2,3.91-.15,7.83-.04,11.74.83,8.5,2.57,17.09,6.46,24.75,3.76,7.28,9.75,13.67,17.46,16.76,7.16,2.94,15.19,3.02,22.68,1.45,7.78-1.55,15.06-4.92,22-8.67,9.25-5.05,18.06-10.91,27.67-15.29,6.49-2.99,13.44-5.01,20.58-5.58.87-5.07,1.56-10.2,1.58-15.35-5.41-.02-10.82-.05-16.23-.12-8.16-.57-16.36-.06-24.51-.66-7.01-.13-14.03.11-21.02-.44-7.44-.18-14.9.04-22.33-.46-8.21.07-16.4-.48-24.6-.48,0-.93,0-1.86-.04-2.78,7.46-.61,14.98-.04,22.45-.62,6.71-.2,13.44-.07,20.14-.47,6.42-.07,12.85,0,19.26-.45,6.72-.08,13.43-.1,20.15-.21,8.93-.55,17.9-.09,26.83-.65-.25-5.1-.74-10.19-1.67-15.21-5.77-.41-11.44-1.8-16.8-3.95-15.79-6.26-29.13-17.41-45.13-23.21-8.16-2.93-17.11-4.35-25.68-2.52ZM285.69,124.08c-.07,3.64-1.56,7.24-4.26,9.71-3.37,3.27-8.01,4.67-12.52,5.53,1.07,5.04,1.48,10.19,1.7,15.33,7.77,0,15.54-.13,23.31-.15-.53-10.56-3.26-21.07-8.24-30.42ZM270.63,162.11c-.14,5.22-.87,10.39-1.55,15.56,4.59.74,9.29,2.31,12.63,5.7,2.53,2.38,3.81,5.78,4.02,9.2,4.97-9.23,7.6-19.65,8.24-30.1-5.79,0-11.59-.04-17.38-.14-1.98-.16-3.97-.26-5.95-.21ZM250.18,187.9c-6.83,2.36-13.13,5.94-19.37,9.53-8.43,4.87-16.86,9.9-26.02,13.3-8.47,3.18-17.69,4.74-26.7,3.49-4.9-.69-9.51-2.59-13.94-4.72,8.72,9.43,19.93,16.52,32.17,20.4,2.89.91,5.86,1.66,8.91,1.79,10.08,1.13,20.07-2.71,28.29-8.34,12.71-8.82,21.4-22.64,25.52-37.41-3.03.2-5.98.98-8.85,1.96ZM266.98,186.04c-4.46,15.98-13.52,31.26-27.43,40.73-3.71,2.63-7.92,4.38-12.05,6.21,20.43-2.22,39.67-13.35,51.8-29.93,2.14-3.31,1.79-7.87-.59-10.97-2.76-3.63-7.29-5.56-11.73-6.03Z" style="fill:#fff;"/><path d="M315.77,78.37c.91-.3,1.83-.51,2.77-.72,1.32,1.79,2.76,3.49,4.01,5.33-5.1,8.29-10.3,16.52-15.53,24.74-.12.02-.36.06-.48.08-1.22-2.04-2.42-4.1-3.76-6.06.7-1.18,1.56-2.28,2.18-3.51-1.52-2.85-3.82-5.26-5.82-7.79-1.47.21-2.85,1.24-4.32,1.07-1.55-1.67-3.03-3.41-4.65-5.02,8.5-2.81,17.05-5.44,25.59-8.12ZM305.03,88.52c1.18,1.44,2.3,2.93,3.44,4.41,1.55-2.38,3.14-4.73,4.59-7.17-2.68.92-5.42,1.66-8.03,2.76Z" style="fill:#fff;"/><path d="M94.06,94.6c3.17-4.72,6.14-9.57,9.36-14.26.07,4.75,0,9.51.04,14.26,5.05.07,10.11-.07,15.16.09-4.99,3.07-10.06,6.02-15.15,8.93-.08,4.67.05,9.34-.08,14.01-3.01-2.82-5.99-5.68-9-8.5-5.21,2.76-10.14,6.03-15.32,8.83,2.7-4.65,5.82-9.05,8.7-13.6.3-.48.65-1.16,0-1.52-2.85-2.73-5.68-5.49-8.59-8.15,4.96-.14,9.92-.02,14.88-.07Z" style="fill:#fff;"/><path d="M311.21,116.79c8.56-2.8,17.16-5.49,25.75-8.22.8,1.93,1.6,3.87,2.24,5.86-3.25,4.78-6.78,9.36-10.06,14.12,4.48-1.22,8.83-2.91,13.32-4.07.56,2.17,1.17,4.32,1.55,6.53-7.11,2.34-14.26,4.55-21.39,6.85-1.44.45-2.85.99-4.36,1.17-.47-1.91-.81-3.84-1.31-5.75,3.51-4.84,7.13-9.61,10.49-14.56-4.53,1.53-9.12,2.88-13.66,4.39-.8-2.13-1.72-4.22-2.58-6.32Z" style="fill:#fff;"/><path d="M61.1,162.55c2.81-4.07,5.25-8.39,8.2-12.36.14,4.11.01,8.23.08,12.34,4.37.11,8.76-.09,13.13.11-4.11,3.13-8.87,5.25-13.16,8.11,0,4.01.08,8.03-.07,12.04-2.82-2.29-5.21-5.06-8.05-7.34-4.55,2.68-9.12,5.34-13.65,8.04,2.69-4.48,5.79-8.7,8.4-13.23-2.61-2.53-5.45-4.85-7.79-7.63,4.3-.17,8.6-.03,12.91-.08Z" style="fill:#fff;"/><path d="M319.97,151.33c3.93.13,7.86.17,11.79.25,5.01.59,10.07.32,15.09.75.16,5.31.88,11.13-2.15,15.84-3.71,6.22-12.68,7.92-18.73,4.25-2.87-1.84-4.66-4.99-5.36-8.28-.9-4.21-.47-8.54-.63-12.81ZM326.57,158.38c-.03,2.05-.04,4.29,1.24,6.03,2.57,3.67,8.82,3.73,11.42.06,1.22-1.58,1.22-3.65,1.27-5.55-4.64-.39-9.29-.34-13.93-.54Z" style="fill:#fff;"/><path d="M322.4,185.81c6.33-2,13.66,1.52,16.26,7.58,2.91,6.17.59,14.18-5.11,17.91-3.31,2.22-7.63,3.1-11.48,1.9-5-1.32-8.93-5.74-9.83-10.81-1.55-7.05,3.2-14.72,10.16-16.58ZM324.44,192.47c-3.12.56-5.77,3.31-5.78,6.55-.25,3.45,2.44,6.63,5.72,7.44,4.17,1.2,8.9-2.25,8.87-6.63.25-4.52-4.48-8.32-8.81-7.36Z" style="fill:#fff;"/><path d="M149.96,232.26c1.97,1.5,3.69,3.3,5.68,4.78-.05,4.57-.69,9.1-.57,13.67,3.77-1.54,7.5-3.2,11.21-4.86.57-.25,1.26-.55,1.84-.15,1.98,1.08,3.92,2.25,5.98,3.2-5.16,7.45-10.28,14.93-15.6,22.28-2.14-1.2-4.29-2.39-6.35-3.71,2.75-4.43,6.02-8.51,8.79-12.92-3.7,1.38-7.22,3.19-10.89,4.63-1.05.5-2.34-.3-1.96-1.51.47-3.82.43-7.67.81-11.49-.81.6-1.35,1.44-1.93,2.24-2.32,3.46-4.82,6.8-7.11,10.29-1.94-1.2-3.56-2.82-5.35-4.2,5.04-7.5,10.31-14.83,15.45-22.25Z" style="fill:#fff;"/><path d="M276.68,248.03c-.27-6.53,4.83-12.53,11.08-13.98,1.5,1.92,2.92,3.89,4.34,5.87-3.28.49-6.88,2.15-7.98,5.54-1.73,4.36,2.3,9.59,6.92,9.29,3.5-.23,6.3-3.03,7.46-6.2,1.38,1.8,2.78,3.59,4.08,5.45.56.79-.32,1.58-.74,2.2-2.96,3.71-7.78,5.95-12.53,5.56-6.83-.61-12.73-6.83-12.62-13.74Z" style="fill:#fff;"/><path d="M253.33,253.52c2.28-.86,4.56-1.75,6.78-2.77,3.34,8.34,6.74,16.65,9.92,25.05-2.25,1-4.54,1.93-6.86,2.78-2.9-7.07-5.65-14.21-8.52-21.29-.51-1.23-.99-2.48-1.32-3.77Z" style="fill:#fff;"/><path d="M175.52,278.74c5.33-7.71,10.79-15.32,16.12-23.02,2.23.58,4.48,1.13,6.72,1.69,1.16,9.24,2.23,18.5,3.6,27.72-2.52-.05-4.95-.74-7.43-1.08-.1-1.4-.35-2.77-.51-4.15-3.18-.63-6.34-1.41-9.43-2.36-.74,1.12-1.5,2.24-2.27,3.35-2.34-.46-4.58-1.29-6.8-2.14ZM188.06,272.6c1.76.41,3.49,1,5.29,1.17-.07-2.75-.42-5.47-.74-8.19-1.62,2.26-3.27,4.54-4.55,7.02Z" style="fill:#fff;"/><path d="M217.92,264.65c2.7-3.91,7.49-6.3,12.25-6.01,2.95-.13,5.67,1.17,8.16,2.62-1.23,1.79-2.6,3.51-4.14,5.04-2.23-1.2-4.99-1.54-7.38-.59-3.4,1.38-5.07,5.65-3.84,9.05.99,3.7,5.27,6.04,8.91,4.74,1.83-.54,3.17-2.04,3.93-3.74-2.6-.1-5.19.2-7.76.51.51-2.2,1.27-4.32,2-6.45,4.19.06,8.32-.74,12.51-.71.28,3.1.42,6.36-.97,9.23-1.96,4.65-6.71,8.19-11.86,8.04-5.79.19-11.45-3.65-13.45-9.08-1.6-4.15-.97-9.05,1.63-12.65Z" style="fill:#fff;"/></svg>