<?xml version="1.0" encoding="UTF-8" standalone="no"?>
<!DOCTYPE svg PUBLIC "-//W3C//DTD SVG 1.1//EN" "http://www.w3.org/Graphics/SVG/1.1/DTD/svg11.dtd">
<svg width="100%" height="100%" viewBox="0 0 1000 800" version="1.1" xmlns="http://www.w3.org/2000/svg" xmlns:xlink="http://www.w3.org/1999/xlink" xml:space="preserve" xmlns:serif="http://www.serif.com/" style="fill-rule:evenodd;clip-rule:evenodd;stroke-linejoin:round;stroke-miterlimit:1.41421;">
    <g transform="matrix(6.08668,0,0,6.08668,-1124.12,-654.178)">
        <g transform="matrix(1,0,0,1,100.283,-18.8638)">
            <path d="M196.3,202.8C191.3,202.8 186.1,204.8 183.4,209L183.3,209L183.2,209L183.3,209L183.8,201.7C184.1,196.8 185.2,183.3 192,183.3C195.3,183.3 194.6,187.7 194.9,189.7C195.8,194.4 197.8,199.7 204.2,199.7C208.5,199.7 213.1,196.9 213.1,190.9C213.1,181.8 205.5,175.9 196.4,175.9C172.8,175.9 163.3,193.9 163.3,215.8C163.3,234.7 170.6,251.1 190.9,251.1C204.1,251.1 214.8,241.8 214.8,226C214.8,212.7 207.8,202.8 196.3,202.8ZM189.3,243.7C183.6,243.7 183.9,236.5 183.9,228.2C183.9,219.9 184.7,212.7 189.3,212.7C195,212.7 195.2,219.9 195.2,228.2C195.2,236.5 194.1,243.7 189.3,243.7Z" style="fill:rgb(29,66,138);fill-rule:nonzero;"/>
        </g>
        <g transform="matrix(1,0,0,1,100.283,-18.8638)">
            <path d="M118.3,175.7L118.3,203.8C134,206.1 152.9,204.6 166.1,185.1C166.6,184.3 167,184.8 166.6,185.6C162.8,193.2 154.1,200.1 146.5,206.1C139.2,211.9 119.6,232.4 119.9,250.4C119.9,251.8 120,251.4 121.2,250.5C127.1,246.1 138.8,245.9 145.9,249.4C146.9,249.9 147,249.8 146.8,248.4C145.4,234.4 148.5,219.1 154.6,210.3C158.7,204.2 169.9,188.3 171.8,175.9C172,174.6 171.3,174.8 169.7,176.5C157.1,189.9 134.3,189.5 119.6,175.4C118.8,174.4 118.4,174.8 118.3,175.7" style="fill:rgb(200,16,46);fill-rule:nonzero;"/>
        </g>
        <g transform="matrix(1,0,0,1,100.283,-18.8638)">
            <path d="M145.6,132.8L146.5,135.6L149.6,135.6L147,137.4L148,140.2L145.6,138.5L143.2,140.2L144.1,137.4L141.6,135.6L144.7,135.6L145.6,132.8Z" style="fill:rgb(29,66,138);fill-rule:nonzero;"/>
            <path d="M163.6,143.2L164.5,146L167.5,146L165.1,147.9L166,150.7L163.6,149L161.1,150.7L162.1,147.9L159.6,146L162.7,146L163.6,143.2Z" style="fill:rgb(29,66,138);fill-rule:nonzero;"/>
            <path d="M155.8,135.2L156.7,138L159.8,138L157.4,139.8L158.3,142.7L155.8,140.9L153.4,142.7L154.4,139.8L151.9,138L154.9,138L155.8,135.2Z" style="fill:rgb(29,66,138);fill-rule:nonzero;"/>
            <path d="M166.5,153.1L167.4,155.9L170.5,155.9L168,157.7L168.9,160.6L166.5,158.8L164.1,160.6L165.1,157.7L162.5,155.9L165.5,155.9L166.5,153.1Z" style="fill:rgb(29,66,138);fill-rule:nonzero;"/>
            <path d="M165.2,163.5L166.2,166.4L169.2,166.4L166.7,168.3L167.6,171L165.2,169.3L162.9,171L163.7,168.2L161.2,166.4L164.3,166.4L165.2,163.5Z" style="fill:rgb(29,66,138);fill-rule:nonzero;"/>
            <path d="M159.5,171.9L160.3,174.8L163.4,174.8L160.9,176.6L161.9,179.3L159.5,177.6L157,179.3L157.9,176.6L155.5,174.8L158.6,174.8L159.5,171.9Z" style="fill:rgb(29,66,138);fill-rule:nonzero;"/>
            <path d="M150.3,176.6L151.3,179.4L154.4,179.4L151.9,181.3L152.8,184.1L150.3,182.3L148,184.1L148.9,181.3L146.4,179.4L149.4,179.4L150.3,176.6Z" style="fill:rgb(29,66,138);fill-rule:nonzero;"/>
            <path d="M127.3,142.3L126.4,145.1L123.4,145.1L125.8,147L124.9,149.8L127.3,148L129.8,149.8L128.8,147L131.3,145.1L128.2,145.1L127.3,142.3Z" style="fill:rgb(29,66,138);fill-rule:nonzero;"/>
            <path d="M134.9,135.2L134,138L130.9,138L133.3,139.8L132.4,142.7L134.9,140.9L137.3,142.7L136.3,139.8L138.8,138L135.8,138L134.9,135.2Z" style="fill:rgb(29,66,138);fill-rule:nonzero;"/>
            <path d="M123.8,151.8L122.9,154.6L119.9,154.6L122.3,156.5L121.4,159.3L123.8,157.6L126.2,159.3L125.4,156.5L127.8,154.6L124.7,154.6L123.8,151.8Z" style="fill:rgb(29,66,138);fill-rule:nonzero;"/>
            <path d="M124.7,162.2L123.8,165.2L120.8,165.2L123.3,166.9L122.3,169.7L124.7,168L127.2,169.7L126.3,166.9L128.8,165.2L125.6,165.2L124.7,162.2Z" style="fill:rgb(29,66,138);fill-rule:nonzero;"/>
            <path d="M130.5,170.8L129.7,173.7L126.6,173.7L129,175.5L128.1,178.2L130.5,176.5L133,178.2L132,175.5L134.5,173.7L131.5,173.7L130.5,170.8Z" style="fill:rgb(29,66,138);fill-rule:nonzero;"/>
            <path d="M139.6,176.2L138.7,179.1L135.6,179.1L138.1,180.9L137.3,183.7L139.5,182L142,183.7L141.1,180.9L143.6,179.1L140.5,179.1L139.6,176.2Z" style="fill:rgb(29,66,138);fill-rule:nonzero;"/>
        </g>
    </g>
</svg>
