<svg width="200" height="200" viewBox="0 0 200 200" fill="none" xmlns="http://www.w3.org/2000/svg">
<path d="M168.837 53.7387C165.877 49.3572 162.476 45.2389 158.732 41.493C157.108 39.8686 155.413 38.3096 153.658 36.8216L190.479 0H83.2055L41.8008 41.4066H41.8066C41.7776 41.4358 41.7482 41.4646 41.7183 41.4929C37.9743 45.2389 34.5759 49.3573 31.6153 53.7387C28.6277 58.1624 26.0607 62.8913 23.9871 67.793C19.671 77.994 17.4841 88.8304 17.4841 100.001C17.4841 111.171 19.671 122.006 23.9871 132.207C26.0607 137.109 28.6277 141.838 31.6153 146.261C34.5759 150.643 37.9743 154.765 41.7183 158.507C43.3495 160.138 45.0483 161.701 46.8101 163.19L10 200H117.243L158.815 158.426H158.811C162.524 154.703 165.898 150.614 168.837 146.261C171.825 141.838 174.392 137.109 176.465 132.207C180.78 122.006 182.965 111.171 182.965 100.001C182.965 88.8304 180.78 77.994 176.465 67.793C174.392 62.8913 171.825 58.1624 168.837 53.7387Z" fill="black"/>
<path d="M153.884 46.2507C152.262 44.6283 150.585 43.0942 148.859 41.6504L103.836 86.6723C106.053 87.2963 108.146 88.479 109.891 90.2185L109.903 90.232C115.34 95.6694 115.34 104.484 109.903 109.922L26.5078 193.316H36.2786L114.789 114.806C122.901 106.696 122.924 93.5612 114.862 85.4186L119.747 80.5341C130.506 91.3724 130.483 108.883 119.674 119.69L46.0457 193.316H55.8184L124.56 124.575C138.067 111.07 138.09 89.1856 124.633 75.6496L129.519 70.7632C145.676 86.9987 145.649 113.257 129.444 129.461L65.5893 193.316H75.3621L134.329 134.348C153.233 115.445 153.258 84.8099 134.404 65.8769L139.29 60.9924C160.844 82.6231 160.819 117.632 139.215 139.234L85.1329 193.316H94.9037L144.102 144.119C168.403 119.821 168.426 80.4362 144.175 56.106L149.092 51.187C176.06 78.2339 176.035 122.019 149.021 149.038L104.738 193.316H114.511L153.907 153.924L153.884 153.901C183.611 124.174 183.611 75.976 153.884 46.2507Z" fill="white"/>
<path d="M46.6108 153.818C48.2332 155.44 49.9094 156.974 51.6355 158.418L96.6593 113.394C94.4436 112.77 92.3508 111.589 90.6055 109.85L90.5921 109.836C85.1547 104.399 85.1547 95.5823 90.5921 90.1469L174.102 6.63672H164.331L85.7057 85.2605C77.5957 93.3724 77.5707 106.507 85.6347 114.65L80.7502 119.534C69.9906 108.694 70.0117 91.1837 80.8212 80.3779L154.562 6.63672H144.79L75.9349 75.4916C62.4296 88.9968 62.4066 110.883 75.8639 124.417L70.9794 129.303C54.8207 113.068 54.8457 86.8099 71.0504 70.6052L135.019 6.63672H125.248L66.1659 65.7188C47.2617 84.623 47.2367 115.257 66.093 134.19L61.2066 139.076C39.6528 117.445 39.6758 82.4343 61.2796 60.8324L115.475 6.63672H105.704L56.3932 55.9479C32.0918 80.2493 32.0688 119.63 56.3202 143.962L51.4031 148.879C24.4349 121.834 24.4598 78.0471 51.4761 51.0308L95.8702 6.63672H86.0974L46.5898 46.1444L46.6109 46.1655C16.8836 75.8928 16.8836 124.09 46.6109 153.818" fill="#E03A3E"/>
</svg>
