<svg width="200" height="200" viewBox="0 0 200 200" fill="none" xmlns="http://www.w3.org/2000/svg">
<g clip-path="url(#clip0_2_660)">
<path d="M131.296 191.418C130.687 191.418 130.104 191.13 129.738 190.624L129.369 190.112C128.667 189.087 128.823 188.195 128.977 187.751C129.469 186.328 130.95 185.859 132.383 185.409C132.875 185.253 133.7 184.993 133.921 184.822C134.41 184.407 134.948 184.039 135.492 183.678C136.667 182.891 137.637 181.974 138.523 181.089C138.875 180.734 139.275 180.405 139.675 180.08C139.675 180.08 140.198 179.651 140.31 179.566L141.675 178.153L142.75 177.014L143.546 176.187C144.117 175.599 144.69 175.014 145.217 174.386C146.433 172.976 147.685 171.455 148.958 169.843C149.402 169.293 149.773 168.72 150.15 168.145L150.815 167.147C150.946 166.947 151.077 166.751 151.227 166.553C151.975 165.513 152.558 164.584 153.038 163.661C153.742 162.357 154.533 161.151 155.298 159.984L155.969 158.959C156.502 158.126 157.059 157.23 157.448 156.313C157.658 155.807 157.929 155.318 158.204 154.83C158.384 154.513 158.567 154.195 158.717 153.863C159.094 153.036 159.442 152.199 159.79 151.365L160.342 150.049C160.392 149.905 160.504 149.586 160.744 149.261C161.644 147.811 162.292 146.024 162.979 144.13L163.419 142.913C164.217 140.715 164.973 138.64 165.394 136.457C165.654 135.068 166.068 133.713 166.629 132.417C166.773 132.072 166.867 131.592 166.967 131.08L167.458 128.728C167.913 126.563 168.369 124.397 168.783 122.221C169.029 120.911 169.236 119.522 169.436 117.849C169.525 117.134 169.575 116.419 169.629 115.703L169.763 113.949C169.846 112.857 169.927 111.772 170.029 110.682C170.061 110.265 170.09 109.805 170.117 109.338C170.169 108.509 170.221 107.665 170.308 106.878C170.377 106.159 170.483 105.053 171.494 104.355C172.065 103.998 172.615 103.844 173.209 103.844C173.454 103.844 173.713 103.871 173.992 103.921C174.729 104.046 175.925 104.324 176.754 104.603C177.788 104.971 178.802 105.33 179.769 105.746C182.096 106.755 184.257 108.046 186.386 109.69C186.59 109.848 186.779 110.003 186.996 110.126C187.063 110.163 187.127 110.205 187.19 110.249C187.742 110.648 188.246 111.138 188.784 111.653L189.421 112.261C189.65 112.428 190.073 112.774 190.452 113.222C190.713 113.528 191.409 114.411 191.667 114.801C191.725 114.886 191.811 115.001 191.904 115.121C192.121 115.413 192.352 115.728 192.536 116.036C192.75 116.392 192.944 116.765 193.132 117.136C193.342 117.544 193.542 117.949 193.788 118.296C194.329 119.063 194.446 119.951 194.144 120.946C193.279 123.961 191.661 129.79 191.661 129.79L190.271 134.261C190.248 134.33 190.225 134.399 190.194 134.465L188.929 137.343L186.565 142.159L185.154 144.815L182.763 149.553L181.663 151.384L177.996 156.668L176.057 159.066L175.511 159.818L173.777 162.143L170.538 165.878L167.694 168.62L165.438 171.047L163.921 172.549L162.496 173.887C162.438 173.94 162.378 173.99 162.315 174.037L159.209 176.33L156.871 178.022L155.325 179.249L151.934 181.641L149.975 182.924L148.377 183.809L147.217 184.524L146.538 184.989C146.44 185.055 146.336 185.114 146.231 185.16L145.596 185.441C145.594 185.447 144.708 185.914 144.55 186.003L144.538 185.982C143.956 186.301 142.373 187.055 137.394 189.43L134.462 190.578L133.533 190.978C133.406 191.035 133.269 191.076 133.133 191.103L131.656 191.383C131.537 191.406 131.417 191.418 131.296 191.418Z" fill="#CE1141"/>
<path d="M173.212 101.924C172.258 101.924 171.369 102.172 170.573 102.662C170.517 102.697 170.461 102.733 170.406 102.77C168.652 103.98 168.473 105.87 168.408 106.581L168.396 106.695C168.31 107.489 168.254 108.362 168.202 109.224C168.173 109.676 168.144 110.128 168.112 110.56C168.014 111.606 167.933 112.701 167.85 113.801L167.806 114.364C167.771 114.775 167.739 115.186 167.712 115.597C167.66 116.272 167.614 116.947 167.531 117.614C167.335 119.254 167.133 120.603 166.894 121.866C166.487 124.022 166.023 126.224 165.573 128.352L165.202 130.122C165.162 130.304 165.123 130.504 165.083 130.708C165.004 131.104 164.923 131.516 164.843 131.714C164.252 133.077 163.793 134.577 163.504 136.114C163.116 138.131 162.383 140.141 161.61 142.268L161.294 143.139L161.173 143.47C160.531 145.243 159.925 146.918 159.069 148.308C158.769 148.762 158.614 149.177 158.537 149.391C158.364 149.797 158.194 150.202 158.025 150.61C157.683 151.431 157.341 152.252 156.973 153.06C156.839 153.354 156.683 153.622 156.531 153.887C156.256 154.375 155.945 154.927 155.671 155.579C155.346 156.347 154.839 157.164 154.346 157.931L153.714 158.898C152.918 160.11 152.096 161.362 151.36 162.731C150.898 163.61 150.362 164.464 149.644 165.462C149.518 165.631 149.369 165.852 149.221 166.073L149.068 166.302C148.875 166.589 148.71 166.841 148.546 167.091C148.177 167.652 147.831 168.181 147.481 168.614C146.198 170.239 144.966 171.739 143.779 173.112C143.283 173.7 142.75 174.25 142.185 174.833C141.906 175.121 141.625 175.41 141.352 175.7L140.189 176.929L139.129 178.05C138.991 178.158 138.881 178.246 138.783 178.331L138.47 178.589C138.07 178.912 137.614 179.281 137.162 179.735C136.352 180.542 135.47 181.379 134.516 182.017L134.391 182.102C133.91 182.423 133.375 182.783 132.837 183.223C132.604 183.323 132.133 183.473 131.806 183.575C130.187 184.087 127.97 184.787 127.162 187.125C126.698 188.462 126.916 189.933 127.754 191.158C127.773 191.187 127.793 191.214 127.814 191.241L128.183 191.752C128.54 192.244 129.008 192.645 129.55 192.921C130.091 193.198 130.69 193.342 131.298 193.342C131.539 193.342 131.781 193.319 132.023 193.275L133.5 192.991C133.773 192.939 134.041 192.856 134.297 192.748L135.223 192.348L137.964 191.279C138.052 191.244 138.139 191.208 138.223 191.167C142.793 188.987 144.623 188.114 145.462 187.656L145.481 187.687C145.633 187.602 146.233 187.287 146.489 187.15L147.012 186.919C147.227 186.824 147.432 186.71 147.627 186.579L148.306 186.114L149.383 185.452L150.775 184.689C150.864 184.641 150.948 184.589 151.031 184.535L152.935 183.291C152.973 183.266 153.01 183.241 153.048 183.214L156.35 180.885C156.408 180.844 156.464 180.802 156.519 180.758L158.068 179.535L160.321 177.904L162.471 176.306L163.45 175.593C163.578 175.5 163.698 175.4 163.812 175.291L165.202 173.993C165.227 173.968 165.25 173.943 165.277 173.919L166.741 172.473C166.777 172.435 166.814 172.396 166.848 172.358L169.106 169.933L171.754 167.391C171.836 167.311 171.915 167.227 171.991 167.141L175.141 163.518C175.202 163.446 175.262 163.372 175.319 163.296L177.042 160.991L177.617 160.202L179.408 157.996C179.467 157.921 179.523 157.846 179.579 157.768L183.181 152.583C183.227 152.516 183.269 152.447 183.314 152.377L184.34 150.679C184.39 150.595 184.439 150.51 184.481 150.422L186.892 145.643L188.235 143.12C188.256 143.083 188.276 143.046 188.294 143.008L190.623 138.266C190.646 138.218 190.669 138.17 190.692 138.118L191.958 135.241C192.015 135.108 192.067 134.974 192.11 134.833L193.483 130.418L193.517 130.306C193.517 130.304 195.133 124.483 196.004 121.443C196.583 119.526 195.985 118.076 195.375 117.206C195.221 116.991 195.031 116.618 194.846 116.256C194.637 115.851 194.425 115.443 194.194 115.056C193.931 114.622 193.66 114.258 193.442 113.968C193.369 113.87 193.298 113.779 193.24 113.695C192.908 113.195 192.177 112.28 191.902 111.958C191.487 111.464 191.025 111.068 190.612 110.743C190.449 110.59 190.288 110.435 190.129 110.279C189.565 109.735 188.983 109.174 188.317 108.693C188.192 108.601 188.061 108.517 187.925 108.443C187.81 108.372 187.7 108.276 187.589 108.187C185.308 106.424 183.012 105.055 180.544 103.985C179.446 103.514 178.319 103.118 177.417 102.799C176.41 102.458 175.106 102.162 174.302 102.024C173.935 101.958 173.567 101.924 173.212 101.924ZM173.212 105.77C173.348 105.77 173.494 105.787 173.652 105.814C174.367 105.937 175.462 106.199 176.137 106.428C177.11 106.772 178.085 107.116 179.015 107.514C181.262 108.489 183.256 109.699 185.214 111.212C185.485 111.424 185.756 111.637 186.065 111.808C186.698 112.266 187.356 112.97 188.114 113.672C188.421 113.908 188.729 114.162 188.985 114.464C189.225 114.745 189.839 115.52 190.065 115.864C190.294 116.201 190.644 116.618 190.889 117.026C191.36 117.812 191.725 118.71 192.227 119.414C192.444 119.724 192.412 120.035 192.306 120.387C191.433 123.439 189.81 129.277 189.81 129.277L188.437 133.693L187.171 136.572L184.842 141.312L183.458 143.912L181.048 148.689L180.021 150.389L176.419 155.572L174.567 157.856L173.962 158.689L172.239 160.995L169.089 164.618L166.364 167.235L164.035 169.739L162.571 171.185L161.183 172.485L160.179 173.219L158.066 174.789L155.746 176.468L154.135 177.743L150.829 180.071L148.925 181.316L147.452 182.125L146.214 182.887L145.456 183.402L144.812 183.687C144.812 183.687 143.616 184.317 143.585 184.341C143.57 184.356 136.568 187.696 136.568 187.696L133.764 188.789L132.775 189.216L131.298 189.496L130.929 188.985C129.925 187.521 133.912 187.366 135.17 186.289C135.631 185.894 136.143 185.56 136.652 185.217C137.839 184.423 138.877 183.456 139.883 182.452C140.308 182.025 140.806 181.652 141.271 181.266C141.45 181.104 141.664 180.969 141.829 180.792C142.606 179.975 143.371 179.156 144.148 178.339C145 177.439 145.895 176.573 146.693 175.623C147.985 174.127 149.25 172.581 150.469 171.035C151.119 170.235 151.65 169.352 152.231 168.493C152.412 168.231 152.571 167.971 152.768 167.708C153.496 166.694 154.166 165.666 154.745 164.552C155.592 162.981 156.614 161.51 157.587 160.004C158.189 159.066 158.779 158.108 159.221 157.062C159.566 156.235 160.098 155.483 160.471 154.658C161.05 153.389 161.566 152.091 162.114 150.806C162.162 150.683 162.204 150.525 162.294 150.404C163.45 148.556 164.173 146.481 164.914 144.443C165.81 141.95 166.773 139.464 167.285 136.822C167.519 135.572 167.885 134.362 168.396 133.183C168.694 132.464 168.8 131.679 168.966 130.908C169.546 128.137 170.146 125.366 170.675 122.577C170.956 121.081 171.169 119.587 171.348 118.079C171.489 116.945 171.542 115.799 171.642 114.654C171.737 113.385 171.827 112.128 171.946 110.86C172.042 109.641 172.089 108.299 172.221 107.091C172.271 106.624 172.281 106.151 172.591 105.937C172.787 105.814 172.989 105.77 173.212 105.77Z" fill="white"/>
<path d="M195.075 116.295C194.432 116.295 193.811 115.991 193.365 115.459C193.077 115.12 192.713 114.572 192.371 114.034C192.14 113.674 191.925 113.314 191.75 113.122C191.396 112.812 191.05 112.443 190.775 112.076C189.896 110.92 188.654 110.012 187.34 109.051L185.008 107.324L183.952 106.73C183.184 106.307 182.461 105.907 181.736 105.609C180.136 104.959 178.354 104.37 176.806 103.868C176.577 103.797 176.263 103.728 175.988 103.664C175.765 103.611 175.561 103.564 175.404 103.52L175.161 103.478C174.871 103.426 174.583 103.366 174.279 103.274C173.781 103.122 173.017 102.893 172.496 102.072C172.081 101.434 171.973 100.691 171.958 100.184C171.958 100.184 171.95 99.1798 171.938 98.7741L171.815 96.2664C171.763 95.2279 171.711 94.1895 171.667 93.151C171.531 89.3319 170.906 85.6453 170.242 81.7396L170.111 80.9685C170.01 80.355 169.904 79.8858 169.802 79.4242C169.669 78.8261 169.542 78.2396 169.421 77.4435L169.365 77.1185C169.227 76.3358 169.035 75.2647 169.713 74.2935C170.646 73.0762 172.075 73.0762 172.842 73.0762C173.763 73.0762 174.392 73.0858 175.186 73.0974L175.865 73.107C177.661 73.1377 179.038 73.2031 180.336 73.3185C181.975 73.4724 183.869 73.6608 185.719 73.9781C186.802 74.1589 187.817 74.4474 188.798 74.7262C189.248 74.8531 189.698 74.982 190.156 75.0993C190.583 75.2031 191.059 75.3743 191.527 75.5474C191.759 75.6339 191.99 75.7204 192.211 75.7897C192.594 75.907 192.99 76.0877 193.356 76.2647C193.956 76.555 195.688 77.4011 196.15 79.6165C196.754 82.6338 197.523 88.2626 197.557 88.5011L198.232 94.9876L198.259 96.0184L198.234 101.739L197.823 107.559C197.823 107.559 197.09 114.178 197.056 114.432C197.006 115.599 196.017 116.295 195.075 116.295" fill="#CE1141"/>
<path d="M172.659 71.4727C171.8 71.4727 169.509 71.4727 168.052 73.3803C168.021 73.4212 167.99 73.4629 167.961 73.5053C166.817 75.1284 167.123 76.8476 167.286 77.7707L167.336 78.0572C167.469 78.9284 167.613 79.5842 167.74 80.163C167.836 80.5957 167.936 81.0341 168.033 81.6072L168.163 82.3822C168.815 86.2207 169.429 89.8495 169.561 93.5264C169.608 94.611 169.659 95.6667 169.713 96.7244C169.754 97.5513 169.796 98.3763 169.833 99.2052C169.842 99.536 169.846 99.8148 169.848 100.163L169.852 100.486C169.877 101.322 170.046 102.436 170.713 103.463C171.596 104.857 172.971 105.265 173.421 105.397C173.436 105.403 173.506 105.424 173.521 105.428C173.973 105.569 174.354 105.638 174.631 105.688C174.69 105.697 174.748 105.707 174.807 105.721C174.965 105.763 175.159 105.807 175.367 105.855C175.59 105.907 175.846 105.961 176.044 106.022C177.54 106.507 179.279 107.08 180.827 107.711C181.452 107.965 182.131 108.342 182.848 108.74C183.132 108.897 183.419 109.055 183.706 109.211L185.148 110.278L185.604 110.617L186.023 110.924C187.221 111.799 188.352 112.628 189.073 113.572C189.361 113.959 189.731 114.367 190.156 114.761C190.282 114.936 190.421 115.165 190.569 115.394C190.93 115.957 191.304 116.54 191.732 117.042C192.521 117.984 193.682 118.538 194.892 118.538C196.652 118.538 198.58 117.259 198.794 114.884C198.829 114.592 198.869 114.197 198.869 114.197L199.544 108.169C199.549 108.117 199.554 108.065 199.557 108.013L199.963 102.322C199.969 102.237 199.972 102.152 199.973 102.067L200 96.3917L199.982 95.4379C199.98 95.328 199.973 95.2183 199.961 95.109L199.292 88.6822C199.288 88.6417 199.284 88.6013 199.279 88.561C199.244 88.3206 198.467 82.6341 197.855 79.5746C197.413 77.4611 196.134 75.888 194.046 74.8688C193.665 74.6861 193.167 74.4457 192.573 74.2649C192.417 74.2149 192.219 74.1399 192.015 74.0649C191.542 73.8899 191.007 73.6919 190.415 73.5457C190.007 73.4419 189.575 73.3188 189.142 73.1957C188.109 72.9034 187.042 72.5996 185.84 72.3996C183.944 72.0746 182.004 71.8804 180.336 71.7246C178.979 71.6015 177.557 71.5342 175.719 71.5054L174.969 71.4939C174.196 71.4823 173.567 71.4727 172.659 71.4727ZM172.659 75.3188C173.815 75.3188 174.506 75.3342 175.656 75.3496C177.104 75.3746 178.538 75.4246 179.981 75.5553C181.719 75.7168 183.486 75.8976 185.209 76.1938C186.679 76.438 188.05 76.9111 189.498 77.2823C190.125 77.4361 190.827 77.7476 191.45 77.9438C191.765 78.0399 192.073 78.188 192.359 78.3265C193.215 78.7438 193.865 79.2842 194.084 80.3303C194.679 83.3053 195.465 89.0802 195.465 89.0802L196.136 95.5071L196.154 96.3744L196.127 102.049L195.721 107.742L195.042 113.824C195.042 113.824 194.998 114.259 194.967 114.495C194.961 114.609 194.946 114.692 194.892 114.692C194.844 114.692 194.754 114.661 194.657 114.545C194.098 113.89 193.338 112.451 192.892 112.049C192.615 111.805 192.348 111.534 192.13 111.242C190.971 109.719 189.407 108.642 187.896 107.53C187.257 107.053 186.609 106.571 185.965 106.097C185.848 106.007 185.727 105.917 185.598 105.859C184.49 105.27 183.423 104.615 182.279 104.149C180.656 103.488 178.882 102.899 177.213 102.359C176.756 102.215 176.084 102.082 175.725 101.986C175.373 101.903 175.032 101.871 174.665 101.757C174.363 101.657 174.102 101.622 173.936 101.361C173.782 101.124 173.707 100.774 173.698 100.447C173.692 99.9071 173.692 99.5629 173.675 99.0321C173.59 97.1436 173.484 95.2706 173.406 93.3898C173.256 89.1956 172.521 85.088 171.823 80.9668C171.59 79.5764 171.35 78.8746 171.138 77.4746C171.031 76.7803 170.836 76.1034 171.106 75.7169C171.394 75.3419 172.048 75.3188 172.659 75.3188Z" fill="white"/>
<path d="M147.395 47.5812C146.164 47.5812 145.054 47.5177 144.101 47.3927C141.653 47.087 137.043 45.9081 136.851 45.8581L132.337 44.235C131.943 44.0927 131.606 43.8235 131.378 43.4716L130.079 41.4639L126.347 40.6197C125.991 40.6199 125.642 40.5213 125.339 40.3349C125.036 40.1485 124.79 39.8816 124.63 39.5639L123.583 38.3736C123.352 38.2614 123.146 38.1045 122.976 37.912L121.401 36.1312L120.008 36.0389C119.389 35.9966 118.826 35.6562 118.499 35.1255L117.858 34.0832L113.243 32.5255L109.839 33.8505C109.614 33.939 109.378 33.9813 109.141 33.9813C108.805 33.9813 108.466 33.8928 108.168 33.7159C107.88 33.5486 107.647 33.3101 107.483 33.0313L101.441 30.0909C101.208 30.0544 100.985 29.989 100.81 29.8871L96.7758 27.5544L89.0066 27.1006C88.8143 27.1641 88.6143 27.1948 88.4104 27.1948C88.3912 27.1948 85.1797 27.1083 85.1797 27.1083C84.9798 27.1769 84.7699 27.212 84.5585 27.2121C84.0681 27.2121 83.5855 27.0256 83.2182 26.6679L81.0201 24.5371C80.8278 24.4602 80.649 24.3506 80.4874 24.214L78.1893 22.2429L72.1048 21.9275C71.9933 21.9487 71.8817 21.9602 71.7721 21.9602C71.7298 21.9602 66.3894 21.5294 66.3894 21.5294C66.273 21.5197 66.1577 21.4991 66.0452 21.4679C66.0452 21.4679 63.7125 21.2852 63.7086 21.2852C63.5721 21.2852 59.7202 21.191 59.7202 21.191C59.6109 21.1894 59.5021 21.1772 59.3952 21.1544L58.0818 21.6948L55.3144 22.6621C55.1439 22.7216 54.9659 22.7565 54.7856 22.766L54.6087 22.7756L49.6818 24.6641L47.4856 25.4487C46.226 25.941 45.8414 26.0756 45.5664 26.1121C45.1837 26.2275 44.3972 26.4967 44.3972 26.4967L41.5837 27.6006C41.3587 27.687 41.1223 27.7333 40.8819 27.7333L38.5761 28.6697C38.3452 28.7636 38.0984 28.8119 37.8492 28.8121C37.8165 28.8121 37.7261 28.8082 37.7126 28.8082C37.1991 28.989 36.2915 29.3236 36.2915 29.3236L35.1684 29.6659C34.9886 29.7192 34.8021 29.7464 34.6145 29.7467C34.1285 29.7468 33.6605 29.5626 33.3049 29.2313C32.8069 28.7678 32.5895 28.0736 32.7376 27.4083C32.878 26.7756 33.1395 26.4218 34.8415 24.964L35.8184 24.1429L38.5415 21.9948L41.478 20.0122L44.2087 17.8564C44.2587 17.816 44.3126 17.7775 44.3664 17.7429L44.776 17.4833L47.4068 16.0833L48.1703 15.641L50.5376 14.4064L52.8279 12.9007L55.7779 11.2968L57.1894 10.6161L61.3452 8.98913L64.4721 7.68914L65.6606 7.22954L66.5548 6.70645C66.7009 6.62185 66.8586 6.55645 67.0221 6.51225L68.8952 6.00455L69.5413 5.6084C69.6973 5.51399 69.8656 5.4415 70.0413 5.393L71.4875 4.99881L73.7797 4.16226C73.9893 4.08726 74.2105 4.04876 74.4336 4.04876C74.4528 4.04876 74.8759 4.06226 74.8759 4.06226L77.172 3.61417L78.6893 3.14497C78.7547 3.12382 78.8201 3.10842 78.8855 3.09497L81.0182 2.67187L83.2509 2.41802L85.7604 2.34883L88.6354 2.01803L91.8585 1.92383L93.7874 1.95843L94.9854 2.08148L97.8373 2.26998C97.9142 2.27573 97.9892 2.28533 98.0642 2.29883L100.357 2.72957L101.524 2.76807C101.618 2.76997 101.712 2.78147 101.805 2.79687L104.543 3.29497L105.976 3.66227L106.243 3.70842L108.164 4.16416C108.247 4.18341 108.33 4.20841 108.41 4.23726L113.016 5.97185L116.103 7.09299L116.931 7.44109L120.905 9.58143L126.447 12.9488L128.028 13.7872C128.124 13.8372 128.214 13.8968 128.299 13.9622L132.931 17.541L138.722 22.8871L140.339 24.4717L145.553 30.1928C145.597 30.2409 145.641 30.2928 145.679 30.3467L146.549 31.5255L147.406 32.537L152.031 39.189L153.139 40.9178C153.843 42.1562 154.268 42.9331 154.443 43.2908C154.958 44.187 155.041 45.0254 154.702 45.8081C154.124 47.1812 152.81 47.3043 152.379 47.3466C152.074 47.3812 151.731 47.4004 151.364 47.4177L150.756 47.4523C149.831 47.5177 148.641 47.5812 147.397 47.5812H147.395Z" fill="#CE1141"/>
<path d="M91.9115 0H91.8078L88.7481 0.0827002C88.6388 0.0862504 88.5298 0.0945913 88.4212 0.1077L85.5462 0.430747L83.3693 0.484597C83.2593 0.486483 83.1496 0.494194 83.0404 0.507696L80.9713 0.736544C80.8616 0.748044 80.754 0.763445 80.6463 0.786545L78.5136 1.20769C78.3828 1.23459 78.2521 1.26729 78.1251 1.30769L76.7059 1.74619L74.7194 2.13269L74.5559 2.12688C74.5155 2.12498 74.4751 2.12499 74.4366 2.12499C73.99 2.12535 73.5469 2.20343 73.127 2.35573L70.8329 3.18458L69.5367 3.53653C69.1867 3.63268 68.8502 3.77687 68.5405 3.96727L68.1271 4.21922L66.5194 4.65572C66.193 4.74359 65.88 4.87489 65.5886 5.04612L64.8271 5.48841L63.8251 5.87691C63.7944 5.88841 63.7636 5.89996 63.7348 5.91341L60.5675 7.2288L56.6252 8.76729C56.5346 8.80213 56.4454 8.84061 56.3579 8.88264L55.0291 9.52113C54.9733 9.54803 54.9175 9.57493 54.8637 9.60568L52.0502 11.1268C51.956 11.1768 51.8656 11.2307 51.7772 11.2903L49.483 12.7865L47.358 13.8942C47.308 13.9192 47.2599 13.9461 47.2099 13.9749L46.4464 14.4153L44.008 15.7076C43.9176 15.7556 43.8291 15.8076 43.7426 15.8633L43.333 16.123C43.2256 16.1917 43.1217 16.2655 43.0214 16.3441L40.2868 18.496L38.0465 20.0056L37.5888 20.3133C37.5079 20.3675 37.429 20.4246 37.3523 20.4845L34.6753 22.5941L34.583 22.671L33.6195 23.4787C31.9638 24.8979 31.1657 25.6287 30.8618 26.9806C30.7153 27.6361 30.7427 28.3185 30.9414 28.9601C31.1401 29.6018 31.5032 30.1803 31.9945 30.6382C32.7066 31.3007 33.6431 31.669 34.6157 31.669C34.9901 31.6686 35.3625 31.6142 35.7215 31.5075L36.733 31.2036C36.808 31.1805 36.8811 31.1555 36.9561 31.1286C37.3188 30.994 37.6823 30.8613 38.0465 30.7305C38.4784 30.7075 38.9034 30.6126 39.3041 30.4498L41.306 29.6325C41.6406 29.596 41.9714 29.5152 42.2849 29.3902L45.1041 28.2864C45.2887 28.2229 45.7349 28.0729 46.031 27.9825C46.5387 27.8825 47.1118 27.6614 48.1887 27.2402L50.2887 26.4902L55.0233 24.6767C55.3387 24.6479 55.6502 24.5825 55.9483 24.4787L58.6194 23.5479C58.6848 23.5246 58.7496 23.4996 58.8137 23.4729L59.6887 23.1152C59.9156 23.1191 62.8386 23.1902 63.654 23.2094L65.7886 23.3767C65.9405 23.4094 66.0925 23.4344 66.2348 23.446L71.4905 23.871C71.5963 23.8787 71.6982 23.8825 71.802 23.8825C71.9463 23.8825 72.0866 23.8767 72.229 23.8595L77.4347 24.1287L79.2366 25.6729C79.4427 25.85 79.6671 26.0047 79.9059 26.1344L81.8828 28.0498C82.6154 28.7613 83.5808 29.1344 84.5597 29.1344C84.8462 29.1344 85.1328 29.1017 85.4154 29.0382L88.3058 29.1171C88.3423 29.1171 88.377 29.119 88.4116 29.119C88.6751 29.119 88.9385 29.0902 89.1924 29.0382L96.2077 29.4479L99.8481 31.5517C100.183 31.744 100.542 31.8863 100.912 31.9709L106.215 34.5536C106.492 34.8748 106.819 35.1536 107.194 35.3748C107.792 35.7267 108.467 35.9036 109.142 35.9036C109.615 35.9036 110.088 35.8171 110.538 35.6421L113.29 34.5709L116.586 35.6824L116.863 36.1344C117.515 37.194 118.64 37.8747 119.883 37.9574L120.486 37.9978L121.535 39.1843C121.773 39.4567 122.05 39.6931 122.356 39.8863L123.052 40.6786C123.694 41.7478 124.836 42.4613 126.123 42.5363L128.89 43.1651L129.763 44.5151C130.219 45.2203 130.893 45.7567 131.683 46.042L136.019 47.6131C136.136 47.6554 136.254 47.6901 136.373 47.7208C136.873 47.8497 141.338 48.9862 143.875 49.3016C144.888 49.4343 146.079 49.5035 147.394 49.5035C148.461 49.5035 149.604 49.4593 150.89 49.3708C151.086 49.3573 151.275 49.3478 151.456 49.3381C151.869 49.3189 152.254 49.2958 152.598 49.2554C155.079 49.0228 156.1 47.4478 156.486 46.5304C156.875 45.6343 157.142 44.1516 156.146 42.3901C155.994 42.0882 155.667 41.4747 154.873 40.0632C154.836 40.0017 154.8 39.9382 154.759 39.8767L153.69 38.2093C153.664 38.1698 153.638 38.1307 153.611 38.092L149.096 31.5844C149.028 31.4858 148.956 31.3909 148.879 31.2998L148.023 30.2844L147.231 29.2075C147.152 29.0979 147.067 28.996 146.977 28.896L145.486 27.2594L141.836 23.2537C141.789 23.2001 141.739 23.1487 141.686 23.0998L140.113 21.5537C140.086 21.5267 140.059 21.4998 140.031 21.4748L134.371 16.2403C134.287 16.1636 134.2 16.0904 134.109 16.021L129.477 12.4403C129.305 12.3075 129.122 12.1898 128.931 12.0884L127.352 11.2499L121.988 7.98644C121.934 7.95287 121.878 7.92082 121.821 7.89035L118.011 5.82881C117.904 5.76921 117.794 5.71731 117.683 5.66921L116.948 5.35956C116.886 5.33225 116.823 5.30723 116.76 5.28456L113.652 4.15767L109.088 2.43843C108.928 2.37838 108.765 2.32892 108.598 2.29038L108.242 2.20769L106.79 1.85769C106.727 1.84229 106.662 1.82884 106.598 1.81539L106.335 1.76539L105.167 1.46344C105.075 1.44019 104.982 1.41969 104.888 1.40194L102.148 0.905744C101.963 0.871024 101.775 0.850464 101.587 0.844244L100.565 0.811545L98.4212 0.407697C98.2711 0.38047 98.1196 0.361841 97.9674 0.351898L95.1174 0.159598L94.1674 0.0576988C94.0539 0.0441989 93.9404 0.038449 93.8251 0.0345991L91.9847 0H91.9115ZM91.9115 3.84612L93.7519 3.88072L94.7789 3.99227L97.7115 4.18842L100.148 4.64612L101.462 4.68842L104.2 5.18651L105.494 5.52301L105.886 5.59611L107.377 5.95571L107.733 6.03841L112.34 7.77305L115.448 8.89994L116.183 9.21143L119.99 11.273L125.45 14.5922L127.125 15.4845L131.758 19.0633L137.419 24.2979L138.994 25.8441L142.642 29.8498L144.133 31.4863L145 32.6652L145.936 33.7767L150.454 40.2843L151.523 41.9536C151.523 41.9536 152.619 43.8978 152.74 44.1843C152.825 44.342 153.086 44.7016 152.938 45.0439C152.794 45.3881 152.49 45.4035 152.161 45.4343C151.719 45.4862 151.198 45.4939 150.623 45.5343C149.734 45.5958 148.592 45.6574 147.394 45.6574C146.379 45.6574 145.323 45.6131 144.35 45.4862C141.984 45.1901 137.329 43.9958 137.329 43.9958L132.994 42.4266L131.269 39.7613L126.583 38.6978H126.348L126.321 38.5747L124.629 36.6459L124.417 36.6382L122.321 34.2652L120.138 34.119L119.135 32.4844L113.198 30.4805L109.142 32.0575L109.09 31.6748L101.95 28.1979L101.775 28.2229L97.7308 25.8844L97.6789 25.6806L88.5924 25.1498L88.4116 25.2729L84.7981 25.1729L84.5597 25.2883L81.9366 22.746L81.7404 22.7537L79.1655 20.546L79.1232 20.3653L71.8617 19.9903L71.802 20.0364L66.5463 19.6114L66.4617 19.5729L63.8655 19.3672C63.8117 19.3672 59.7694 19.2691 59.7694 19.2691L59.4655 19.048L57.3521 19.9153L54.6829 20.846L54.2041 20.873L48.9964 22.8671L46.8406 23.6364C46.8406 23.6364 45.3945 24.2017 45.3022 24.2017C45.3003 24.2017 45.2983 24.2017 45.2983 24.1998C45.2983 24.1979 45.2964 24.1979 45.2906 24.1979C45.1868 24.1979 43.781 24.6748 43.781 24.6748L40.883 25.8094H40.4945L37.8503 26.8883C37.8503 26.8883 37.5311 26.8729 37.4945 26.8575H37.4926C37.4234 26.8575 35.6253 27.521 35.6253 27.521L34.6157 27.8229C34.6522 27.6575 36.0945 26.4248 36.0945 26.4248L37.058 25.6152L39.733 23.5056L40.1964 23.196L42.5522 21.6075L45.3983 19.3672L45.808 19.1076L48.3099 17.7826L49.1329 17.3056L51.4271 16.1114L53.8791 14.5095L56.6944 12.9884L58.0233 12.3499L62.0444 10.7807L65.2117 9.46339L66.4982 8.96724L67.5252 8.36724L69.6636 7.78839L70.5463 7.24805L71.9943 6.8538L74.4347 5.97111L75.0309 5.99036L77.6444 5.48266L79.2597 4.98071L81.3943 4.55957L83.4635 4.32882L85.8097 4.27112L88.852 3.92882L91.9115 3.84612Z" fill="white"/>
<path d="M192.327 76.5079C191.989 76.5079 191.606 76.4291 191.358 76.356L191.048 76.2675C190.514 76.1118 189.991 75.9541 189.5 75.731C188.593 75.3079 187.604 74.9829 186.641 74.7849L185.639 74.5714C184.671 74.3638 183.698 74.156 182.729 73.9753C182.204 73.8906 181.039 73.7695 181.029 73.7676C179.493 73.6253 177.61 73.4695 177.287 73.4676C175.562 73.4984 173.837 73.5484 172.11 73.606C171.621 73.6291 171.1 73.6484 170.579 73.6484C169.156 73.6484 168.085 72.8099 167.754 71.4599L167.51 70.5234C167.402 70.1041 167.295 69.6907 167.179 69.2772L166.493 67.0599L165.837 64.9927C165.527 64.0177 165.218 63.0407 164.9 62.0696C164.712 61.4984 164.464 60.9215 164.212 60.3542C163.914 59.6639 163.648 58.9889 163.385 58.3158C162.902 57.0831 162.448 55.9196 161.85 54.8312C161.375 53.9485 160.958 53.0447 160.545 52.1447L160.002 50.9812C159.858 50.6908 159.741 50.3331 159.666 49.9466C159.527 49.1716 159.672 48.5293 160.089 47.9485C160.585 47.3428 161.098 47.135 161.373 47.0235C161.662 46.9043 162.654 46.4447 162.654 46.4447L163.981 45.6735C163.975 45.6735 164.877 45.0774 165.097 44.9139C165.373 44.7081 166.627 43.6736 166.681 43.6313H166.679C166.675 43.6313 168.233 42.1948 168.979 41.3698C169.47 40.8255 170.806 38.762 171.596 37.4717C171.834 37.0827 172.202 36.7909 172.635 36.6486C172.843 36.5775 173.068 36.5371 173.283 36.5371C174.062 36.5371 174.702 36.8929 175.189 37.5947C175.466 37.9178 176.104 38.6832 176.104 38.6832L183.066 48.0928L184.102 49.7716L185.556 52.6792L186.996 55.0216C187.037 55.0908 187.075 55.1619 187.108 55.235L188.373 58.0485L189.412 60.5446L191.614 65.4503L192.383 67.5849L193.164 69.9118L193.439 70.9657L193.658 71.5445C193.75 71.7965 194.229 73.1272 194.371 73.9483C194.523 74.8464 194.106 75.9983 193.044 76.3848L193.043 76.381C192.812 76.4637 192.556 76.5079 192.327 76.5079Z" fill="#CE1141"/>
<path d="M173.286 34.6133C172.873 34.6133 172.45 34.6844 172.05 34.8171C171.192 35.096 170.444 35.6729 169.961 36.4652C169.008 38.019 167.879 39.7152 167.546 40.094C167.01 40.6844 165.846 41.7825 165.381 42.2151C165.1 42.444 164.219 43.1671 163.967 43.3574C163.754 43.5151 163.169 43.9036 162.929 44.0632L161.7 44.769C161.429 44.894 160.885 45.144 160.704 45.2209C160.296 45.3863 159.427 45.7363 158.702 46.6055C158.64 46.6805 158.581 46.7555 158.523 46.8343C157.806 47.8382 157.55 48.9805 157.765 50.2305C157.888 50.8709 158.063 51.3959 158.302 51.8728C158.452 52.1901 158.631 52.5747 158.808 52.9613C159.223 53.8613 159.65 54.792 160.152 55.7266C160.708 56.7362 161.14 57.8439 161.598 59.0151C161.869 59.7093 162.142 60.4073 162.44 61.0958C162.671 61.6169 162.913 62.1804 163.083 62.6861C163.386 63.6111 163.686 64.5611 163.986 65.5092C164.215 66.2356 164.446 66.9612 164.679 67.6861C164.765 67.9765 164.881 68.3438 164.994 68.7092C165.113 69.0861 165.233 69.463 165.342 69.8419C165.446 70.1995 165.546 70.5938 165.646 70.9899C165.731 71.3169 165.815 71.6476 165.906 71.9784C166.458 74.1303 168.319 75.5707 170.558 75.5707C171.136 75.5707 171.688 75.5515 172.24 75.5245C173.892 75.4707 175.61 75.4207 177.342 75.3899C177.625 75.3995 179.425 75.5514 180.881 75.6841C180.879 75.6841 181.946 75.7957 182.471 75.8803C183.321 76.0399 184.263 76.2418 185.202 76.4418L186.24 76.6649C187.063 76.8341 187.931 77.1207 188.694 77.4726C189.365 77.7803 190 77.963 190.511 78.113L190.806 78.1976C191.065 78.2745 191.677 78.4303 192.333 78.4303C192.796 78.4303 193.281 78.3438 193.729 78.1803L193.731 78.1822C195.765 77.4264 196.559 75.2649 196.271 73.6149C196.107 72.6842 195.654 71.3919 195.465 70.8764L195.261 70.3072L195.065 69.5553C195.042 69.4707 195.019 69.3861 194.99 69.3034L194.225 67.0131L193.486 64.9419C193.452 64.8477 193.415 64.7554 193.373 64.6631L191.171 59.7573L190.175 57.3612C190.161 57.3285 190.148 57.292 190.133 57.2593L188.867 54.4458C188.798 54.2977 188.725 54.1573 188.64 54.0189L187.208 51.6747L186.929 51.1055L185.906 49.0555C185.856 48.9573 185.802 48.861 185.744 48.767L184.802 47.2285C184.744 47.1339 184.682 47.0415 184.617 46.9516L184.217 46.4113L177.727 37.6286C177.681 37.5671 177.635 37.5056 177.585 37.4479C177.585 37.4479 177.063 36.8248 176.711 36.4152C175.602 34.8537 174.092 34.6133 173.286 34.6133ZM173.286 38.4594C173.494 38.4594 173.542 38.6056 173.692 38.8017C174.011 39.169 174.633 39.9132 174.633 39.9132L181.123 48.6978L181.523 49.2363L182.463 50.7747L183.481 52.8093L183.836 53.5305L185.358 56.0227L186.625 58.8381L187.64 61.2823L189.863 66.2381L190.577 68.2323L191.344 70.5226L191.583 71.4457L191.854 72.1976C191.854 72.1976 192.361 73.5841 192.481 74.2765C192.496 74.3669 192.434 74.5611 192.392 74.5765C192.381 74.5822 192.359 74.5842 192.333 74.5842C192.233 74.5842 192.036 74.5515 191.908 74.513C191.356 74.3476 190.806 74.2092 190.306 73.9803C189.279 73.5072 188.14 73.1284 187.033 72.9015C185.721 72.6245 184.4 72.3284 183.086 72.0842C182.479 71.9861 181.236 71.8553 181.236 71.8553C181.236 71.8553 177.86 71.5438 177.292 71.5438H177.271C175.521 71.5765 173.788 71.6265 172.052 71.6822C171.563 71.7072 171.075 71.7245 170.585 71.7245H170.558C170.073 71.7245 169.746 71.5034 169.627 71.0034C169.419 70.2438 169.242 69.4899 169.031 68.7477C168.808 67.9958 168.563 67.2515 168.34 66.5054C167.802 64.8381 167.281 63.1458 166.733 61.4708C166.519 60.8323 166.25 60.1939 165.971 59.5708C165.154 57.6746 164.54 55.7266 163.542 53.9055C162.886 52.6882 162.338 51.4016 161.742 50.1535C161.652 49.9709 161.594 49.7747 161.556 49.5805C161.513 49.3324 161.546 49.2209 161.652 49.0728C161.775 48.9266 161.988 48.8516 162.169 48.7766C162.35 48.7055 163.467 48.1901 163.467 48.1901L164.95 47.3381C164.95 47.3381 166.021 46.6285 166.26 46.4478C166.506 46.2689 167.908 45.1132 167.908 45.1132C167.908 45.1132 169.579 43.5767 170.41 42.6613C171.244 41.7305 173.24 38.4748 173.24 38.4748C173.254 38.4748 173.271 38.4594 173.286 38.4594Z" fill="white"/>
<path d="M158.445 46.5916C157.512 46.5916 156.551 46.0493 155.999 45.2089L155.774 44.8916C155.414 44.3781 155.005 43.7954 154.685 43.1224C154.303 42.2935 153.76 41.48 152.97 40.5416C152.055 39.432 151.339 38.2647 150.647 37.1359C150.428 36.7782 150.208 36.4205 149.985 36.0666C149.912 35.9589 149.839 35.8281 149.768 35.6955C149.158 34.9474 148.632 34.2686 148.107 33.5898C147.297 32.5455 146.533 31.559 145.66 30.6955C144.722 29.7551 143.914 28.7359 143.247 27.8648C142.591 27.0109 141.808 26.2398 140.976 25.4244L140.566 25.0187C139.276 23.7898 138.293 22.8033 137.403 21.8437C136.872 21.2706 136.218 20.7687 135.526 20.236C135.166 19.959 134.805 19.6821 134.453 19.3917C134.453 19.3917 133.649 18.7072 133.528 18.5976C133.424 18.5033 133.326 18.3976 133.21 18.3264C132.11 17.7129 131.259 16.9745 130.543 16.3283C129.724 15.5533 128.834 14.8783 127.864 14.2918C126.093 13.2418 124.314 12.2014 122.51 11.1669C122.193 10.9764 121.855 10.8361 121.38 10.6938C120.755 10.513 120.178 10.2476 119.666 10.013C119.422 9.90146 119.178 9.78991 118.928 9.68991C118.355 9.45721 117.782 9.23992 117.211 9.02262C116.597 8.78992 115.986 8.55722 115.38 8.31297C115.195 8.24762 114.662 7.98223 114.662 7.98223C114.445 7.87643 114.266 7.73608 114.105 7.55723L113.957 7.39183C113.272 6.63413 113.299 5.47069 114.022 4.7457L114.357 4.4111C114.72 4.0476 115.211 3.8457 115.718 3.8457C115.78 3.8457 115.843 3.84765 115.907 3.8553L116.501 3.913C116.576 3.9207 116.647 3.9303 116.718 3.94765L120.511 4.763L124.489 5.76879C124.649 5.81684 129.643 7.55143 130.097 7.69183V7.69763C130.382 7.78223 130.868 7.95338 131.851 8.29567L131.845 8.31297C132.399 8.49762 133.559 8.95147 136.424 10.0784L145.03 14.1456L155.949 20.6937C156.049 20.7533 156.143 20.8225 156.23 20.8975L158.374 22.7821C158.858 23.159 159.216 23.436 159.478 23.6706L159.489 23.659C159.618 23.7667 165.683 28.6763 165.683 28.6763L166.104 29.0378L167.387 30.2994C167.472 30.3821 167.549 30.4744 167.618 30.5725L168.189 31.3994L169.06 32.3975C169.143 32.4936 169.218 32.5975 169.281 32.709L169.618 33.2994C170.214 34.2051 170.303 34.6301 170.341 34.8108C170.466 35.4455 170.324 36.1455 169.918 36.9051L168.447 39.3724C168.414 39.432 168.376 39.4878 168.335 39.5416L167.499 40.6551C167.297 40.8974 166.179 42.1935 165.566 42.7724C165.143 43.1493 164.593 43.5666 164.156 43.8954C163.955 44.0474 163.781 44.1743 163.693 44.2512C163.299 44.6243 162.485 45.0608 162.037 45.2839L160.606 45.9166L159.795 46.2512C159.528 46.3666 159.087 46.53 158.685 46.5781C158.61 46.5877 158.522 46.5916 158.445 46.5916" fill="#CE1141"/>
<path d="M115.719 1.92383C114.699 1.92441 113.722 2.32893 113 3.04882L112.665 3.38532C111.217 4.83146 111.157 7.16029 112.527 8.67953L112.677 8.84493C112.992 9.19683 113.373 9.48723 113.796 9.70068C114.042 9.82568 114.388 9.99297 114.705 10.1142C115.307 10.3564 115.915 10.5872 116.525 10.8199C117.086 11.0334 117.648 11.2468 118.207 11.4718C118.429 11.5622 118.644 11.6622 118.861 11.7622C119.405 12.0122 120.084 12.3218 120.867 12.5468C121.142 12.6314 121.352 12.7141 121.505 12.8045C123.31 13.8423 125.107 14.893 126.896 15.9564C127.721 16.4564 128.502 17.0468 129.188 17.6968C130.03 18.4583 130.957 19.2603 132.134 19.9295C132.169 19.9602 132.2 19.991 132.234 20.0199C132.378 20.1525 132.523 20.2814 132.671 20.4045L132.857 20.5622L133.148 20.8083C133.175 20.8314 133.202 20.8544 133.227 20.8756C133.596 21.1813 133.975 21.4737 134.353 21.7641C135.007 22.2641 135.571 22.6967 135.988 23.1487C136.911 24.141 137.921 25.1544 139.267 26.439L139.64 26.8063C140.417 27.5717 141.151 28.2928 141.719 29.0351C142.427 29.9563 143.282 31.0313 144.282 32.039C145.09 32.839 145.817 33.7775 146.59 34.7736C147.075 35.4005 147.575 36.0466 148.121 36.6928C148.217 36.8659 148.3 37.0063 148.388 37.1428C148.582 37.4466 148.796 37.7966 149.011 38.1466C149.736 39.3312 150.488 40.5562 151.48 41.7562C152.176 42.5851 152.63 43.262 152.93 43.91C153.338 44.7716 153.819 45.4562 154.207 46.0062L154.434 46.3312C155.309 47.6562 156.861 48.5158 158.446 48.5158C158.494 48.5158 158.559 48.5158 158.609 48.512C158.707 48.5081 158.804 48.5004 158.901 48.4889C159.415 48.4312 159.984 48.2677 160.594 48.0024L161.284 47.7197C161.319 47.7062 161.351 47.6908 161.386 47.6773C161.388 47.6773 162.359 47.2466 162.707 47.0947C162.772 47.0671 162.835 47.0376 162.898 47.0062C163.784 46.562 164.473 46.1273 164.946 45.7139C165.036 45.6408 165.167 45.5427 165.319 45.4293C165.773 45.087 166.34 44.66 166.803 44.2466C166.829 44.224 166.855 44.2009 166.88 44.1773C167.54 43.5581 168.578 42.3562 168.884 42.0024C168.936 41.9409 168.986 41.8773 169.036 41.812L169.871 40.7005C169.953 40.5909 170.028 40.4774 170.099 40.3601L171.526 37.9716C171.555 37.9197 171.586 37.8659 171.613 37.8139C172.042 37.012 172.496 35.7755 172.226 34.4371C172.132 33.9717 171.938 33.3486 171.232 32.2524L170.957 31.764C170.828 31.539 170.678 31.3294 170.509 31.1332L169.709 30.2159L169.199 29.4794C169.063 29.2837 168.909 29.1009 168.74 28.9332L167.559 27.766C167.495 27.7013 167.428 27.6391 167.359 27.5794L166.99 27.264C166.959 27.2357 166.927 27.2087 166.894 27.1833L163.446 24.391C162.073 23.2794 160.882 22.316 160.719 22.1813L160.703 22.2006C160.373 21.9006 159.988 21.5987 159.557 21.2641L157.498 19.4545C157.324 19.3022 157.138 19.1658 156.94 19.0468L146.188 12.5892C146.08 12.5238 145.967 12.4623 145.853 12.4103L137.367 8.39303C137.289 8.3545 137.208 8.31984 137.127 8.28919C134.492 7.25459 133.205 6.74885 132.475 6.5027L132.482 6.4815C131.58 6.16615 131.04 5.97575 130.671 5.8623L130.673 5.85845C130.338 5.75075 127.642 4.82196 125.28 4.00076C125.176 3.96494 125.07 3.9335 124.963 3.90651L121.052 2.91617C121.007 2.90478 120.962 2.89451 120.917 2.88537L117.123 2.06808C116.98 2.03705 116.836 2.01456 116.69 2.00073L116.094 1.94113C115.969 1.92965 115.844 1.92388 115.719 1.92383ZM115.719 5.76995L116.315 5.8276L120.107 6.64495L124.017 7.63529C124.017 7.63529 129.505 9.53912 129.561 9.53912C129.577 9.53912 131.217 10.1122 131.217 10.1122C131.248 10.1122 135.721 11.868 135.721 11.868L144.207 15.8852L154.959 22.3448L157.105 24.2275C157.105 24.2275 158.246 25.1179 158.246 25.1256C158.257 25.1429 162.396 28.487 164.473 30.1698C164.594 30.2755 164.855 30.4986 164.855 30.4986L166.036 31.6678L166.669 32.5832L167.609 33.6621L167.946 34.2524C167.946 34.2524 168.405 34.9544 168.455 35.2005C168.509 35.464 168.223 36.0005 168.223 36.0005L166.798 38.389L165.961 39.5024C165.961 39.5024 164.805 40.8486 164.248 41.3736C163.669 41.8909 162.663 42.5908 162.417 42.812C162.184 43.0331 161.503 43.4023 161.178 43.5658C160.823 43.7197 159.828 44.16 159.828 44.16L159.067 44.4716C159.067 44.4716 158.667 44.6447 158.461 44.6697H158.446C158.225 44.6697 157.83 44.4985 157.603 44.1523C157.194 43.5562 156.736 42.962 156.423 42.3005C155.917 41.2024 155.215 40.2216 154.444 39.3043C153.348 37.9793 152.523 36.4774 151.607 35.037C151.459 34.8101 151.357 34.5448 151.176 34.3486C149.761 32.6967 148.565 30.8659 147.011 29.3294C146.198 28.5101 145.475 27.6102 144.771 26.6948C143.921 25.5833 142.911 24.6352 141.919 23.6525C140.855 22.639 139.807 21.6102 138.813 20.5371C137.877 19.5237 136.728 18.7795 135.68 17.9122C135.494 17.7506 135.303 17.5929 135.121 17.4391C134.786 17.1622 134.477 16.816 134.1 16.6237C133.259 16.1545 132.54 15.5429 131.834 14.9045C130.917 14.0372 129.925 13.293 128.859 12.6488C127.065 11.5834 125.28 10.5391 123.469 9.49878C122.986 9.21223 122.482 9.01798 121.932 8.85258C121.14 8.62378 120.411 8.21414 119.646 7.90644C118.465 7.42954 117.273 7.00454 116.102 6.53145C115.917 6.46415 115.532 6.26995 115.532 6.26995L115.384 6.10455L115.719 5.76995Z" fill="white"/>
<path d="M4.63361 113.039C4.39131 113.039 4.14711 112.994 3.91246 112.898C3.88212 112.887 3.85257 112.873 3.82401 112.858C3.22596 112.604 2.63752 112.004 2.50672 110.646L2.29522 107.415L2.09132 106.965C1.97402 106.702 1.91632 106.415 1.92402 106.125L2.25862 93.3214C2.26081 93.2532 2.26595 93.1852 2.27402 93.1175L3.05287 87.2791L3.23171 84.5906C3.23749 84.4942 3.251 84.3984 3.27212 84.3041L3.79326 81.9637L4.67401 76.6541L5.26441 73.883C5.29131 73.76 5.32791 73.6407 5.37981 73.5253L6.6086 70.6734L6.7413 69.5849C6.77263 69.3225 6.8578 69.0694 6.99149 68.8414C7.12518 68.6134 7.30451 68.4154 7.51825 68.2599L10.7144 65.9292L17.7855 60.6735L24.1085 56.1178L28.1028 53.0658C28.295 52.7658 28.5681 52.5197 28.897 52.362L30.8085 51.4447L31.6258 50.6101C31.9989 50.2274 32.4989 50.0313 33.0008 50.0313C33.4181 50.0313 33.8373 50.1678 34.1873 50.4428L34.1931 50.4467C35.2873 50.6255 37.9239 51.0601 38.8566 51.2043C39.8834 50.8717 41.5642 50.4467 44.37 49.737C44.5239 49.6972 44.6822 49.6772 44.8411 49.6774C45.0258 49.6774 45.2104 49.7043 45.3892 49.7582L46.0373 49.9505C46.0988 49.9428 46.1623 49.9409 46.2258 49.9409C46.5084 49.9409 46.7892 50.0024 47.0527 50.1274L49.2046 51.1505L50.8084 49.8832C50.9199 49.7024 51.0546 49.5428 51.2046 49.4274L59.4622 43.0486C59.8064 42.7832 60.2219 42.6467 60.6372 42.6467C60.9718 42.6467 61.3083 42.7352 61.6103 42.9121L61.8699 43.064L63.6372 43.1217C63.8026 43.1275 63.966 43.1544 64.1237 43.2005L71.2122 43.1563C71.4178 43.0834 71.6344 43.0464 71.8526 43.0467C71.9122 43.0467 71.9718 43.0486 72.0314 43.0544L75.691 43.3986C75.8006 43.2948 75.9218 43.2025 76.0564 43.1255L84.914 38.0121C85.2121 37.8391 85.5448 37.7564 85.8755 37.7564C86.0909 37.7564 86.3063 37.7929 86.5121 37.8641L91.6102 37.4794C91.839 37.3583 92.0929 37.2852 92.3525 37.2641C92.3525 37.2641 94.8371 37.0698 94.887 37.0698C95.1005 37.0698 95.314 37.1063 95.5159 37.1756C95.5159 37.1756 107.674 36.5371 107.708 36.5371C107.956 36.5371 108.2 36.5852 108.433 36.6794L111.654 37.9909C111.654 37.9909 115.324 37.7237 115.37 37.7237C115.8 37.7237 116.218 37.8698 116.558 38.1352L117.391 38.4217C117.431 38.4195 117.472 38.4182 117.512 38.4179C117.608 38.4179 117.702 38.4255 117.798 38.439L119.931 38.7602C120.627 38.864 121.204 39.339 121.447 39.9852L122.466 40.9063C122.716 40.9698 122.95 41.0832 123.158 41.2409L125.618 43.1121L130.347 43.4813C130.549 43.4103 130.762 43.3739 130.977 43.3736C131.187 43.3736 131.397 43.4082 131.597 43.4775L137.95 45.6543H137.948C137.979 45.6543 141.641 46.564 143.187 46.787L147.673 47.3717H149.304C149.487 47.3717 149.668 47.3967 149.843 47.4486C151.66 47.3024 152.887 47.2101 153.327 47.2101C153.598 47.2101 154.487 47.1371 155.66 47.0024L155.881 46.9678C156.141 46.9255 156.356 46.9005 156.55 46.9005C157.004 46.9005 157.433 47.014 157.821 47.239C158.541 47.6332 158.85 48.2159 159 48.4967L157.41 49.6063L159.098 48.6851C159.189 48.8505 159.25 48.9736 159.312 49.1216L159.95 50.3293C160.808 51.9659 161.619 53.512 162.283 55.3985C162.354 55.612 162.437 55.7889 162.518 55.9716C162.614 56.1947 162.714 56.4197 162.8 56.6524C162.927 57.0062 163.033 57.3389 163.139 57.6716C163.294 58.1658 163.444 58.6601 163.662 59.1235C164.175 60.1581 164.535 61.237 164.883 62.2773C165.031 62.7196 165.179 63.1638 165.341 63.6042C165.762 64.7658 166.1 65.885 166.444 67.0216C166.633 67.6503 166.825 68.283 167.033 68.9292C167.377 70.0042 167.1 70.7657 166.808 71.2157C166.516 71.6696 165.923 72.2388 164.773 72.3696C163.841 72.4715 162.912 72.56 161.987 72.6484L160.789 72.7677C159.194 72.9311 157.606 73.0927 156.016 73.2119C153.677 73.4061 149.287 73.9388 147.962 74.1023L147.881 74.1503C147.588 74.3204 147.255 74.41 146.916 74.41C146.537 74.41 146.167 74.2983 145.852 74.0888C145.852 74.0888 144.731 74.1657 144.687 74.1657C144.45 74.1657 144.218 74.1234 143.996 74.0369L141.304 73.0023L138.562 72.5908C138.281 72.5483 138.012 72.4446 137.775 72.2869L137.735 72.258L137.695 72.2677C137.552 72.3003 137.408 72.3177 137.262 72.3177C137.098 72.3177 136.935 72.2965 136.777 72.2542L133.22 71.3273L132.512 71.4946C132.485 71.5081 131.339 72.0407 131.339 72.0407C131.226 72.092 131.109 72.1332 130.989 72.1638C130.623 72.5253 130.133 72.7177 129.635 72.7177C129.316 72.7177 128.991 72.6388 128.695 72.4715L126.941 71.485L126.816 71.4811C126.541 71.4753 126.268 71.408 126.02 71.2869L124.393 70.4907L124.125 70.5753C124.01 70.6542 123.891 70.7215 123.768 70.7677L117.581 73.1292C117.383 73.3427 117.135 73.51 116.856 73.6157L114.862 74.3695C114.712 74.506 114.539 74.6176 114.354 74.7003L112.083 75.7138C111.887 75.8015 111.678 75.8561 111.464 75.8753L110.375 76.3638C110.124 76.6311 109.8 76.8234 109.439 76.9138L108.679 77.1022C108.525 77.1407 108.37 77.158 108.214 77.158C107.993 77.158 107.772 77.1195 107.56 77.0445L103.601 76.8541C103.285 77.0774 102.91 77.2001 102.524 77.2061L97.0659 77.3003C96.7947 77.4388 96.4947 77.508 96.1947 77.508C95.7524 77.508 95.3102 77.358 94.9486 77.0503L92.7467 75.1753L91.0467 75.4638C90.8179 75.6003 90.564 75.6888 90.2967 75.7215L87.9179 76.0138C87.6082 76.208 87.2544 76.3061 86.8967 76.3061C86.6129 76.3064 86.3325 76.244 86.0756 76.1234L82.9891 74.6638L77.5621 75.3599L73.7833 78.958C73.6644 79.0716 73.5313 79.1692 73.3871 79.2484L68.3891 84.3483C68.1195 84.6253 67.7721 84.8137 67.393 84.8887L64.4833 85.4714C64.3583 85.4964 64.2333 85.5079 64.1064 85.5079C64.0455 85.5082 63.9845 85.5056 63.9237 85.5002L60.1949 85.1464C59.9526 85.1214 59.7219 85.0541 59.5122 84.9483L51.3776 84.8348L48.4931 86.8118L45.5604 88.6291L44.9258 89.4656C44.5527 89.9541 43.9815 90.2233 43.3931 90.2233C43.1719 90.2233 42.945 90.1848 42.7277 90.104L42.6565 90.079H40.9546C40.7423 90.1893 40.5116 90.2597 40.2738 90.2867L33.7104 91.0233L31.2527 93.8425C31.0834 94.0375 30.8763 94.1961 30.6439 94.3088C30.4116 94.4215 30.1588 94.486 29.9008 94.4983L25.9028 94.704L21.4316 96.5059L6.0163 112.452C5.6471 112.835 5.14516 113.038 4.63361 113.038" fill="#CE1141"/>
<path d="M107.709 34.6133C107.641 34.6133 107.574 34.6152 107.507 34.619L95.7221 35.2383C95.4481 35.1768 95.1682 35.1458 94.8874 35.146C94.7855 35.146 94.6855 35.1498 94.5836 35.1575L92.201 35.346C91.8361 35.3743 91.4772 35.4552 91.1356 35.5863L86.6971 35.921C86.4268 35.8611 86.1509 35.8308 85.8741 35.8306C85.2144 35.8306 84.551 36.0017 83.951 36.346L75.1683 41.4171L72.2106 41.1401C72.0911 41.1286 71.9711 41.1228 71.8511 41.1228C71.5414 41.1228 71.2337 41.1593 70.9337 41.2324L64.3453 41.2747C64.1338 41.2324 63.9184 41.2055 63.6991 41.1997L62.4087 41.1555C61.8511 40.867 61.2434 40.7228 60.6357 40.7228C59.7849 40.7228 58.9582 41.0056 58.2857 41.5267L50.028 47.9055C49.7703 48.1055 49.5395 48.3343 49.3415 48.5882L48.9492 48.8997L47.8762 48.3901C47.3723 48.1516 46.8319 48.0266 46.2896 48.017L45.9338 47.9132C45.5793 47.8076 45.2114 47.7539 44.8415 47.7535C44.5242 47.7535 44.2069 47.7939 43.8973 47.8709C43.8973 47.8709 42.4185 48.2459 40.9377 48.6285C40.0704 48.8516 39.33 49.042 38.7012 49.2305C37.8512 49.0959 36.3858 48.8574 34.907 48.6132C34.3147 48.2747 33.657 48.1074 32.9993 48.1074C31.9954 48.1074 30.9974 48.4978 30.2474 49.2651L29.6704 49.8574L28.0627 50.6266C27.532 50.8824 27.0705 51.2535 26.7128 51.7074L22.9397 54.5881L16.684 59.0939L9.55134 64.3958L6.384 66.7054C5.95723 67.0161 5.59903 67.4115 5.3317 67.8667C5.06437 68.322 4.89365 68.8274 4.83016 69.3515L4.73211 70.163L3.61286 72.7611C3.51096 72.9919 3.43597 73.2342 3.38212 73.4803L2.80902 76.163C2.79557 76.2207 2.78402 76.2803 2.77637 76.338L1.89367 81.6476L1.39367 83.8821C1.35174 84.0721 1.3241 84.265 1.31098 84.4591L1.12828 87.1456L0.36868 92.8629C0.349193 92.9973 0.338272 93.1328 0.33598 93.2686L0.00138126 106.074C-0.0140187 106.651 0.099431 107.224 0.33788 107.751L0.39753 107.886L0.582128 110.711C0.584028 110.749 0.587878 110.788 0.591728 110.826C0.772527 112.72 1.62827 113.74 2.45902 114.286C2.68402 114.442 2.93017 114.574 3.18982 114.68C3.65901 114.869 4.14751 114.961 4.63211 114.961C5.65516 114.961 6.659 114.553 7.3975 113.788L22.5301 98.1359L26.3224 96.6052L29.9974 96.4187C31.0397 96.3648 32.0147 95.8917 32.6993 95.1052L34.6685 92.8494L40.4877 92.1956C40.7789 92.1633 41.0654 92.0975 41.3415 91.9994H42.3435C42.6896 92.0994 43.0435 92.1456 43.3935 92.1456C44.5704 92.1456 45.7127 91.6052 46.455 90.6283L46.8762 90.0764L49.428 88.4956C49.4795 88.4652 49.5295 88.4324 49.578 88.3975L51.9607 86.7648L59.1184 86.8648C59.4049 86.9648 59.703 87.0302 60.0126 87.0591L63.7414 87.4129C64.1153 87.4485 64.4924 87.429 64.8607 87.3552L67.7703 86.7725C68.5261 86.6206 69.2222 86.2456 69.7626 85.6937L74.5952 80.761C74.7777 80.6386 74.9495 80.501 75.1087 80.3495L78.4317 77.186L82.674 76.6418L85.2529 77.8591C85.7662 78.1023 86.3272 78.2284 86.8952 78.2283C87.4499 78.228 87.9982 78.1086 88.5029 77.8783L90.5298 77.6283C90.9221 77.5803 91.3048 77.4726 91.6606 77.3091L92.1836 77.2206L93.7009 78.513C94.4259 79.1283 95.3105 79.4303 96.1932 79.4303C96.624 79.4303 97.0547 79.3591 97.4644 79.2149L102.555 79.1264C103.072 79.1187 103.58 79.0053 104.047 78.7995L107.228 78.9514C107.549 79.0379 107.882 79.0803 108.214 79.0803C108.524 79.0803 108.835 79.0438 109.141 78.9668L109.903 78.7783C110.476 78.6341 111.007 78.363 111.451 77.988L112.005 77.738C112.301 77.6826 112.59 77.5929 112.866 77.4707L115.137 76.4572C115.379 76.3479 115.609 76.2152 115.824 76.0611L117.535 75.413C117.925 75.2659 118.289 75.0568 118.612 74.7938L124.341 72.6053L125.176 73.013C125.553 73.1974 125.958 73.3188 126.374 73.3726L127.751 74.1476C128.326 74.4708 128.974 74.6404 129.633 74.6399C130.46 74.6399 131.278 74.3745 131.949 73.8688C132.016 73.8419 132.082 73.8149 132.147 73.7842L133.155 73.3169L133.197 73.3072L136.289 74.1149C136.606 74.1976 136.933 74.238 137.26 74.238C137.295 74.238 137.33 74.238 137.364 74.2361C137.655 74.3592 137.96 74.4438 138.278 74.4919L140.81 74.8707L143.306 75.8322C143.747 76.0015 144.215 76.0882 144.687 76.088C144.774 76.088 144.862 76.0841 144.951 76.0783C144.951 76.0783 145.172 76.063 145.454 76.0438C145.919 76.2345 146.416 76.3325 146.918 76.3322C147.483 76.3325 148.041 76.2078 148.553 75.9669C150.17 75.7688 154.053 75.3034 156.187 75.1245C157.797 75.0053 159.437 74.838 161.026 74.6745L161.812 74.5957L162.233 74.5553C163.145 74.4688 164.066 74.3822 164.983 74.2784C166.987 74.0515 167.999 72.9149 168.424 72.2592C168.847 71.6034 169.466 70.2226 168.862 68.3419C168.66 67.7111 168.474 67.0938 168.289 66.4804C167.947 65.3477 167.595 64.1804 167.152 62.9592C166.989 62.515 166.847 62.0881 166.704 61.6593C166.353 60.6112 165.956 59.4227 165.372 58.24C165.256 57.992 165.118 57.5515 164.968 57.0862C164.858 56.7304 164.743 56.3766 164.618 56.0266C164.501 55.7093 164.387 55.4477 164.272 55.1881C164.216 55.0612 164.156 54.9381 164.11 54.8054C163.385 52.7401 162.501 51.0555 161.647 49.4266C161.435 49.0247 161.22 48.6151 161.006 48.1959C160.945 48.0593 160.876 47.9247 160.789 47.7632L160.735 47.6651C160.726 47.6478 160.699 47.5959 160.689 47.5786C160.489 47.2055 159.962 46.2171 158.708 45.5305C158.101 45.1786 157.349 44.9767 156.549 44.9767C156.129 44.9767 155.791 45.0324 155.568 45.069L155.416 45.094C154.314 45.2209 153.524 45.2825 153.32 45.2844C152.854 45.2844 151.879 45.3555 149.976 45.5074C149.754 45.469 149.529 45.4478 149.304 45.4478H147.799L143.406 44.8747C142.406 44.7305 139.881 44.144 138.418 43.7805L135.731 42.8536L132.218 41.6555C131.819 41.5189 131.4 41.4494 130.978 41.4497C130.704 41.4497 130.432 41.4787 130.164 41.5363L126.332 41.2382L124.322 39.7075C124.057 39.5075 123.77 39.3421 123.464 39.2152L123.022 38.8171C122.455 37.7786 121.428 37.0363 120.214 36.8556L118.082 36.5363C117.958 36.519 117.837 36.5056 117.712 36.4998L117.437 36.4036C116.819 36.0097 116.101 35.8002 115.368 35.7998C115.274 35.7998 115.181 35.8037 115.087 35.8113L111.964 36.0402L109.159 34.8979C108.698 34.7099 108.206 34.6132 107.709 34.6133ZM107.707 38.4594L111.347 39.9421L115.368 39.646L115.566 39.8267L117.316 40.4305L117.512 40.3401L119.645 40.6594L119.72 41.019L121.635 42.7459L121.993 42.769L125.066 45.1094L125.237 45.0113L130.71 45.4363L130.978 45.2959L134.478 46.4901L137.324 47.4728C137.324 47.4728 141.218 48.4439 142.91 48.6901L147.549 49.2939H149.304L149.641 49.392C151.081 49.2766 152.895 49.1305 153.328 49.1305C153.801 49.1305 154.964 49.017 155.881 48.9112C156.178 48.8747 156.378 48.8228 156.549 48.8228C156.658 48.8228 156.756 48.842 156.86 48.9035C157.124 49.0478 157.21 49.2305 157.316 49.4266C157.418 49.6228 157.476 49.7112 157.524 49.8343C158.604 51.9535 159.672 53.7747 160.468 56.0343C160.616 56.4766 160.833 56.8823 160.999 57.3246C161.312 58.1996 161.529 59.1093 161.922 59.942C162.61 61.3323 163.004 62.8188 163.535 64.2669C164.174 66.0323 164.626 67.7265 165.201 69.5169C165.408 70.163 165.12 70.3919 164.558 70.4572C163.51 70.5745 162.462 70.6707 161.424 70.7688C159.568 70.9553 157.722 71.1534 155.87 71.2919C153.022 71.5284 147.335 72.2419 147.335 72.2419L146.916 72.4861C146.916 72.4861 146.393 72.1265 146.37 72.1265C146.353 72.1265 144.687 72.2419 144.687 72.2419L141.799 71.1303L138.845 70.688L138.112 70.1957L137.26 70.3919L133.243 69.3457L131.674 69.7149L131.628 69.7861L130.53 70.2938L130.466 70.2707L129.795 70.5899L129.635 70.7938L127.464 69.5726L126.864 69.5572L124.912 68.6015L124.576 68.2323L124.316 68.4958L123.132 68.8707L123.082 68.9707L116.358 71.5361L116.176 71.8149L113.757 72.7303L113.57 72.9438L111.299 73.9572L111.07 73.9419L109.107 74.8245L108.974 75.0457L108.214 75.2342L107.941 75.1361L103.016 74.8996L102.489 75.2822L96.3663 75.388L96.1951 75.5841L93.2009 73.0342L92.9548 73.188L90.2106 73.6534L90.0606 73.8111L87.1356 74.1707L86.8952 74.3822L83.5913 72.8207L83.3048 72.5419L83.0606 72.7149L76.6914 73.5322L72.4568 77.563L72.351 77.5572L67.0145 83.0014L64.1049 83.5841L60.3761 83.2302L60.3126 83.036L50.7934 82.9033L47.405 85.2244L44.2454 87.1802L43.3935 88.2994L43.0012 88.1533H40.3569L40.0588 88.3744L32.9935 89.1668L32.6743 89.0206L32.4185 89.5764L29.8012 92.5782L25.482 92.7975L20.332 94.8744L4.63211 111.115C4.63211 111.099 4.63211 111.115 4.61671 111.099C4.47826 111.074 4.42056 110.461 4.42056 110.461L4.18981 106.944L3.84556 106.174L4.18016 93.3706L4.95711 87.5321L5.14751 84.7187L5.66865 82.3802L6.56865 76.9668L7.14365 74.2842L8.48399 71.1784L8.64939 69.813L11.8455 67.4823L18.932 62.2169L25.232 57.6785L29.6743 54.2843L29.7262 54.0939L31.9454 53.0304L32.9993 51.9535L33.3916 52.2632C33.3916 52.2632 38.8242 53.1574 38.9454 53.1574H38.9473C38.8877 53.1055 44.8415 51.5997 44.8415 51.5997L46.0338 51.9535L46.2242 51.8632L49.4588 53.4016L52.353 51.1112L52.3799 50.9478L60.6357 44.569L61.3164 44.969L63.5722 45.0421L63.7318 45.1247L71.6068 45.0747L71.8511 44.969L76.2991 45.3863L76.5106 45.5324L76.9106 45.1651L77.0164 44.7901L85.874 39.6767L86.0433 39.8266L92.2529 39.3574L92.5029 39.1806L94.8874 38.9921L95.0894 39.1229L107.707 38.4594" fill="white"/>
<path d="M53.5106 172.31C53.3518 172.31 53.1936 172.291 53.0394 172.252L46.6125 170.629L46.4183 170.752C46.2538 170.859 46.0733 170.939 45.8837 170.989L44.2164 171.906C43.9332 172.063 43.6149 172.145 43.2914 172.145C42.9164 172.145 42.5414 172.035 42.2183 171.818C42.2183 171.818 41.8741 171.587 41.5722 171.385C41.2287 171.354 40.8995 171.233 40.6183 171.033C40.551 171.016 40.4856 170.993 40.4202 170.97L36.0838 169.289C36.0722 169.291 36.0626 169.291 36.0607 169.291C35.6818 169.291 35.3145 169.154 35.0011 168.935C33.6607 168.52 32.903 168.281 32.4414 168.102L32.4338 168.124C32.2991 168.076 30.5203 167.477 30.3261 167.41C29.9895 167.376 29.728 167.337 29.4357 167.202H29.4376C29.1126 167.051 28.6491 166.731 28.3934 166.087L24.8223 162.212L22.3319 159.022L19.4646 154.647L15.7492 149.508C15.3992 149.024 15.2935 148.403 15.4646 147.831L15.73 146.941C15.8358 146.589 16.0399 146.274 16.3185 146.033L19.0896 143.645C19.3934 143.383 19.7723 143.224 20.1703 143.185L27.0146 142.562L31.701 131.201C31.653 130.562 31.926 129.935 32.4376 129.537L40.7106 123.099C40.9508 122.913 41.2315 122.785 41.5299 122.728L41.5779 122.718L45.9337 119.353C45.9991 119.226 46.0779 119.109 46.1702 118.997C46.3507 118.783 46.576 118.61 46.8301 118.492C47.0842 118.374 47.3611 118.312 47.6414 118.312C47.7106 118.312 47.7799 118.316 47.8491 118.324L48.2529 118.366L49.3029 117.924C49.5414 117.822 49.7952 117.772 50.0529 117.772C50.0798 117.772 51.3452 117.826 51.3452 117.826L53.0471 117.484L56.8798 113.336C57.0603 113.141 57.2789 112.986 57.5221 112.879C57.7654 112.773 58.0279 112.718 58.2933 112.718C58.3317 112.718 62.3201 112.959 62.3201 112.959L62.8759 112.766C63.0786 112.695 63.2919 112.659 63.5067 112.659C63.5817 112.659 63.6567 112.662 63.7317 112.672L67.424 113.109C73.0682 109.974 75.2239 108.776 76.0836 108.305C76.4662 107.861 77.0278 107.549 77.5893 107.549C77.6162 107.549 77.9047 107.564 77.9047 107.564L82.9335 106.689C83.2417 106.483 83.603 106.37 83.9739 106.364L85.0739 106.347C85.0739 106.347 91.6219 98.8818 91.6258 98.876C91.7047 98.726 91.8027 98.5857 91.9181 98.4587L97.0642 92.851C97.1463 92.6083 97.2764 92.3847 97.4469 92.1934L98.5642 90.9357C98.7445 90.7328 98.9657 90.5703 99.2133 90.4589C99.4609 90.3476 99.7292 90.2898 100.001 90.2896C100.045 90.2896 106.42 90.7242 106.42 90.7242L106.862 90.3473C107.153 90.1011 107.506 89.9453 107.883 89.9011L108.818 89.7915L111.837 88.0165C112.133 87.8434 112.47 87.7511 112.812 87.7511H112.835L118.614 83.2935C118.88 83.0877 119.199 82.955 119.535 82.9108L125.576 82.1127L128.245 79.6319C128.543 79.3569 128.916 79.1819 129.316 79.1319L131.778 77.3184C131.916 77.0781 132.104 76.8685 132.335 76.707C132.662 76.4743 133.051 76.355 133.443 76.355C133.643 76.355 133.843 76.3858 134.037 76.4473L135.035 76.7724L145.964 77.0665L153.637 74.3916C153.77 74.3474 153.904 74.3147 154.041 74.2993C155.364 74.1397 156.652 74.0224 157.939 73.905C159.356 73.7762 160.772 73.6474 162.233 73.4589L162.5 73.4262C162.949 73.3724 163.495 73.3089 163.899 73.2262C164.049 73.1974 164.183 73.1781 164.304 73.1608C164.777 73.0993 165.095 73.0762 165.368 73.0762C167.924 73.0762 168.387 75.2512 168.562 76.0704C168.783 77.0858 168.96 78.0492 169.145 79.0396L169.543 81.2088C169.723 82.1992 169.904 83.1992 170.054 84.1915C170.318 85.9338 170.566 87.6626 170.75 89.428C170.839 90.378 170.885 91.301 170.931 92.2241L171.006 93.603L171.039 93.9684C171.064 94.226 171.089 94.4818 171.098 94.7395L171.273 98.0126C171.279 98.128 171.293 98.2222 171.306 98.3145C171.341 98.5741 171.372 98.826 171.372 99.1433C171.372 99.5664 171.358 99.7202 171.335 100.005C171.279 100.489 171.181 101.316 170.42 102.022C169.72 102.622 169.018 102.722 168.681 102.772C168.289 102.832 167.633 102.916 167.633 102.916L166.32 102.997L164.31 103.332L162.643 103.639C162.445 103.699 161.412 104.003 161.412 104.003C160.56 104.293 159.675 104.595 158.791 104.916C158.475 105.032 158.16 105.13 157.839 105.23C157.506 105.334 157.164 105.441 156.822 105.57C155.274 106.166 151.466 107.951 151.427 107.968C151.17 108.087 150.893 108.151 150.61 108.151C150.535 108.151 150.46 108.147 150.385 108.137L149.491 108.032L148.006 107.822C147.824 107.795 147.649 107.745 147.483 107.67C147.133 107.62 146.604 107.549 146.152 107.487L145.91 107.724C145.796 107.835 145.668 107.93 145.529 108.009L144.376 109.374C144.097 109.699 143.722 109.926 143.302 110.013L140.008 110.707C139.829 110.828 139.627 110.922 139.416 110.978L137.42 111.514L136.674 112.934L136.683 113.151C136.718 113.937 136.268 114.666 135.547 114.989L130.237 117.366C129.914 117.712 129.474 117.932 128.999 117.972C128.942 117.977 128.886 117.98 128.829 117.98C128.419 117.98 128.02 117.849 127.689 117.607L124.889 117.482L122.554 119.107C122.299 119.284 122.004 119.397 121.695 119.436L118.801 119.795L117.153 120.509L116.514 122.662C116.426 122.959 116.267 123.231 116.051 123.453C115.812 124.166 115.176 124.68 114.416 124.755L114.22 124.774L106.326 128.403C106.133 128.633 105.891 128.818 105.616 128.937L103.014 130.082C102.885 130.139 102.751 130.181 102.612 130.208C102.224 130.428 101.624 130.787 101.62 130.791C101.407 130.918 101.174 131.003 100.932 131.039C100.885 131.072 100.837 131.101 100.787 131.13L98.8796 132.214L97.6835 134.533C97.5253 134.839 97.2882 135.097 96.9969 135.28L94.0084 140.122C93.9469 140.96 93.345 141.668 92.5181 141.856L92.0911 141.955C91.9777 142.02 91.8623 142.072 91.7565 142.103L90.1412 142.583L89.197 146.03L89.3893 146.718C89.5335 147.239 89.4547 147.797 89.1681 148.255C88.9354 148.63 88.5816 148.908 88.17 149.053L87.2585 149.995C85.9354 151.408 85.4335 151.945 85.02 152.151L83.8623 153.354L81.1873 155.801C81.172 155.833 81.1547 155.864 81.1393 155.897C81.0451 156.076 80.922 156.237 80.7778 156.378C80.747 156.406 79.0547 157.976 79.0547 157.976C78.9028 158.116 78.7316 158.231 78.547 158.316C78.1239 158.743 77.4432 159.435 76.9316 159.941L72.2259 167.524C72.0703 167.774 71.8591 167.986 71.6086 168.142C71.3582 168.298 71.0753 168.394 70.7816 168.424L59.3702 169.549L54.3875 172.1C54.1125 172.239 53.8125 172.31 53.5106 172.31" fill="#CE1141"/>
<path d="M165.368 71.1543C165.014 71.1543 164.632 71.1812 164.16 71.2408C164.143 71.2428 164.072 71.2524 164.055 71.2543C163.891 71.2774 163.72 71.3043 163.545 71.337C163.164 71.4139 162.687 71.4678 162.291 71.5159L162.003 71.5524C160.576 71.735 159.212 71.8581 157.768 71.9908C156.462 72.11 155.155 72.2293 153.812 72.3908C153.537 72.4235 153.266 72.485 153.005 72.5773L145.664 75.135L135.362 74.8581L134.632 74.6196C134.247 74.4966 133.847 74.433 133.443 74.4312C132.657 74.4312 131.882 74.6735 131.224 75.137C130.897 75.3673 130.608 75.6477 130.368 75.9677L128.505 77.3408C127.919 77.5071 127.381 77.8103 126.935 78.2254L124.716 80.2889L119.284 81.0061C118.611 81.095 117.975 81.3597 117.437 81.7735L112.091 85.8985C111.661 85.9792 111.245 86.1369 110.864 86.3599L108.193 87.9292L107.659 87.9927C106.975 88.0733 106.325 88.3363 105.778 88.7542L100.264 88.3772C100.177 88.3712 100.089 88.368 100.001 88.3676C99.4576 88.3675 98.9204 88.4827 98.4249 88.7054C97.9293 88.9282 97.4866 89.2535 97.126 89.6599L96.0087 90.9176C95.7735 91.1832 95.5756 91.4795 95.4202 91.7984L90.501 97.158C90.3331 97.3431 90.1824 97.5433 90.051 97.756L84.1896 104.439L83.9415 104.443C83.3597 104.452 82.7876 104.593 82.2684 104.856L77.7895 105.635L77.7722 105.633C77.7037 105.629 77.6351 105.627 77.5665 105.627C76.4915 105.627 75.4819 106.079 74.7646 106.839C73.6473 107.452 71.4607 108.666 67.0319 111.127L63.9569 110.764C63.8069 110.746 63.6569 110.737 63.5069 110.737C63.0781 110.737 62.6512 110.81 62.2454 110.95L62.0512 111.018L58.5262 110.804C58.4473 110.8 58.3704 110.796 58.2916 110.796C57.2242 110.796 56.1992 111.243 55.4685 112.031L52.057 115.723L51.1935 115.896L50.2224 115.854C50.1647 115.852 50.1089 115.85 50.0531 115.85C49.5378 115.85 49.0281 115.952 48.5551 116.154L47.9628 116.404C47.856 116.395 47.7488 116.39 47.6416 116.391C46.5147 116.391 45.4378 116.887 44.7012 117.758C44.6224 117.85 44.5493 117.948 44.4801 118.046L40.7166 120.956C40.2878 121.092 39.8859 121.306 39.5282 121.581L31.2571 128.019C30.3744 128.706 29.8475 129.731 29.7802 130.817L25.6821 140.754L19.9956 141.271C19.1976 141.346 18.4425 141.667 17.8341 142.188L15.0629 144.577C14.5054 145.057 14.0975 145.687 13.8879 146.392L13.6225 147.281C13.4536 147.846 13.4169 148.442 13.5153 149.024C13.6137 149.605 13.8445 150.156 14.1898 150.635L17.9033 155.777L20.6321 159.948C20.6891 160.036 20.75 160.121 20.8148 160.204L23.1975 163.271C23.2629 163.356 23.334 163.438 23.4071 163.519L26.7667 167.159C27.2109 168.029 27.9071 168.611 28.6206 168.944C29.1071 169.171 29.5532 169.256 29.9032 169.3C30.1013 169.367 30.3379 169.448 30.6244 169.544C31.1148 169.709 31.6302 169.881 31.7802 169.936L31.7898 169.913C32.3148 170.111 33.0359 170.34 34.0551 170.658C34.5686 170.963 35.132 171.14 35.6801 171.196L39.7243 172.763C39.7474 172.773 39.7724 172.783 39.7955 172.79C40.1211 172.981 40.4729 173.123 40.8397 173.211C41.0128 173.325 41.1455 173.415 41.1455 173.415C41.7917 173.85 42.5397 174.069 43.2917 174.069C43.9385 174.069 44.5748 173.906 45.1416 173.594L46.6493 172.765C46.7243 172.74 46.7993 172.711 46.8724 172.681L52.5705 174.119C52.8774 174.195 53.1926 174.234 53.5089 174.234C54.1188 174.235 54.72 174.09 55.2627 173.811L59.9223 171.429L70.9704 170.338C72.1607 170.219 73.23 169.554 73.8607 168.538L78.4472 161.146C78.8697 160.725 79.2902 160.302 79.7087 159.877C79.9431 159.737 80.1623 159.574 80.3626 159.388C80.3626 159.388 82.1261 157.752 82.1588 157.717C82.3741 157.504 82.5607 157.265 82.7184 157.008L85.0703 154.863C85.1318 154.808 85.1915 154.748 85.2491 154.688L86.2684 153.627C86.9049 153.19 87.5914 152.456 88.6856 151.287L89.2914 150.66C89.91 150.344 90.4311 149.866 90.7991 149.277C91.3703 148.36 91.5318 147.246 91.2414 146.206L91.1914 146.027L91.7145 144.123L92.3049 143.948C92.4655 143.9 92.6229 143.841 92.776 143.773L92.9453 143.735C94.4183 143.398 95.5356 142.238 95.8491 140.802L98.4394 136.606C98.8298 136.279 99.1567 135.875 99.3933 135.417L100.328 133.604L101.661 132.848C101.99 132.755 102.306 132.62 102.601 132.446C102.607 132.442 102.999 132.208 103.343 132.008C103.495 131.964 103.643 131.908 103.789 131.844L106.391 130.698C106.786 130.527 107.145 130.289 107.459 130L114.736 126.656C116.053 126.481 117.17 125.641 117.716 124.464C118.004 124.088 118.221 123.663 118.357 123.21L118.739 121.917L119.31 121.671L121.932 121.346C122.551 121.269 123.143 121.042 123.655 120.685L125.455 119.433L127.128 119.506C127.657 119.768 128.239 119.904 128.83 119.904C128.945 119.904 129.06 119.898 129.176 119.887C129.972 119.816 130.718 119.498 131.32 118.991L136.334 116.746C137.674 116.146 138.547 114.841 138.605 113.393L138.73 113.154L139.914 112.839C140.192 112.764 140.46 112.658 140.714 112.523L143.697 111.898C144.535 111.721 145.293 111.271 145.845 110.616L146.776 109.516C146.851 109.525 146.926 109.535 146.995 109.544C147.233 109.629 147.482 109.691 147.733 109.725L149.176 109.931L150.157 110.048C150.307 110.066 150.459 110.075 150.61 110.075C151.174 110.075 151.731 109.95 152.245 109.71C153.293 109.219 156.281 107.841 157.52 107.364C157.812 107.252 158.116 107.16 158.414 107.066C158.758 106.96 159.099 106.85 159.431 106.731C160.32 106.41 161.189 106.11 162.06 105.818C162.208 105.77 162.414 105.712 162.618 105.652C162.776 105.608 162.935 105.562 163.095 105.514L164.693 105.218L166.529 104.912L167.612 104.85C167.702 104.845 167.791 104.836 167.88 104.825C167.88 104.825 168.556 104.737 168.812 104.7C168.86 104.693 168.908 104.685 168.955 104.675C169.437 104.604 170.568 104.427 171.612 103.535C171.651 103.503 171.689 103.47 171.726 103.435C173.012 102.245 173.174 100.856 173.226 100.398C173.231 100.362 173.247 100.237 173.249 100.198C173.28 99.8388 173.295 99.658 173.295 99.1446C173.295 98.6657 173.245 98.2984 173.212 98.0542C173.206 98.008 173.197 97.9619 173.193 97.908L173.103 96.2272L173.02 94.6253C173.008 94.3772 172.981 94.0888 172.954 93.8022L172.924 93.4465C172.897 93.0292 172.874 92.5735 172.853 92.1177C172.804 91.1715 172.756 90.2254 172.666 89.2715C172.468 87.3735 172.208 85.5715 171.955 83.8985C171.805 82.887 171.614 81.8504 171.428 80.8293L171.247 79.8254L171.033 78.6869C170.849 77.6812 170.668 76.7005 170.443 75.6601C169.606 71.7409 166.904 71.1544 165.368 71.1544V71.1543ZM165.368 75.0005C166.201 75.0005 166.445 75.3486 166.683 76.4716C166.981 77.8524 167.199 79.1216 167.46 80.5023C167.693 81.81 167.955 83.1504 168.151 84.4754C168.412 86.1946 168.656 87.8946 168.837 89.6273C168.964 91.0004 169.003 92.36 169.087 93.7234C169.114 94.0946 169.162 94.4619 169.178 94.8292C169.237 95.9234 169.295 97.0196 169.353 98.1177C169.374 98.5099 169.449 98.7542 169.449 99.1446C169.449 99.5003 169.437 99.6215 169.416 99.8676C169.385 100.095 169.391 100.356 169.114 100.612C168.837 100.848 168.476 100.848 168.247 100.895C168.012 100.931 167.391 101.01 167.391 101.01L166.103 101.085L163.995 101.437L162.181 101.77C161.73 101.914 161.299 102.023 160.831 102.171C159.931 102.477 159.031 102.785 158.133 103.112C157.495 103.341 156.826 103.514 156.137 103.773C154.501 104.406 150.61 106.229 150.61 106.229L149.716 106.123L148.274 105.92L148.137 105.82C148.137 105.82 145.52 105.46 145.487 105.46C145.466 105.477 144.574 106.343 144.574 106.343L144.387 106.385L142.907 108.133L139.055 108.943L138.918 109.123L136.109 109.875L134.73 112.5L134.762 113.235L129.043 115.794L128.83 116.058L128.432 115.714L124.324 115.535L121.457 117.529L118.293 117.923L115.564 119.098L114.67 122.116L114.334 122.369L114.228 122.842L113.712 122.894L105.063 126.867L104.841 127.179L102.241 128.323H102.076C102.009 128.323 100.636 129.141 100.636 129.141L100.157 129.067L99.8375 129.46L97.4318 130.827L95.9741 133.654L95.651 133.804L92.1068 139.542L92.0914 139.985L91.3087 140.162L91.2087 140.262L88.5683 141.046L87.201 146.037L87.5376 147.238L87.1915 147.302L85.878 148.658C85.878 148.658 84.2915 150.352 84.2491 150.352C84.2068 150.362 83.8934 150.55 83.8934 150.55L82.4761 152.021L79.4396 154.794C79.4396 154.794 79.4568 154.965 79.4396 154.998C79.4088 155.029 77.7472 156.567 77.7472 156.567L77.5626 156.573C77.5626 156.573 76.1895 157.975 75.4184 158.735L70.5934 166.509L58.8204 167.673L53.5108 170.388L46.2743 168.563L45.3801 169.136L45.2858 169.127L43.2917 170.223C43.2917 170.223 42.1936 169.486 42.1628 169.471H41.7359L41.4763 169.161L41.1148 169.177L36.3474 167.329C36.3474 167.329 36.0763 167.369 36.0609 167.369C36.0282 167.369 35.9974 167.231 35.9974 167.231C35.9974 167.231 33.1339 166.346 33.1243 166.333C33.107 166.315 30.7936 165.546 30.7725 165.533C30.7571 165.513 30.311 165.488 30.2398 165.458C30.1552 165.433 30.134 165.138 30.134 165.138L26.234 160.909L23.8513 157.844L21.0744 153.598L17.3071 148.383L17.5725 147.492L20.3456 145.104L28.784 144.333L28.5802 143.813L33.6878 131.429L33.6186 131.056L41.8917 124.617L42.3917 124.521L47.6955 120.423L47.6416 120.237L48.5416 120.335L50.0531 119.696L51.4935 119.76L54.0358 119.246L58.2935 114.643L62.5858 114.904L63.5069 114.583L67.8146 115.092C67.8146 115.092 77.3818 109.777 77.4241 109.762C77.4453 109.743 77.5665 109.473 77.5665 109.473L78.0203 109.498L83.8491 108.485L84.003 108.289L85.9568 108.256L93.0587 100.162L93.2779 100.112L93.3356 99.7599L98.9106 93.6849L98.8856 93.4715L100.001 92.2138L106.449 92.6542L106.795 92.9311L108.111 91.8119L109.445 91.6542L112.812 89.6754L113.466 89.6946L119.787 84.8197L126.712 83.9043L126.862 83.5447L129.555 81.0427L130.034 80.9947L133.437 78.4832L133.443 78.2793L134.705 78.687L146.264 78.9985L154.27 76.2082C157.058 75.8736 159.687 75.7274 162.48 75.3678C163.01 75.3024 163.756 75.2197 164.283 75.112C164.405 75.0889 164.528 75.0735 164.639 75.0562C164.926 75.0216 165.164 75.0005 165.368 75.0005Z" fill="white"/>
<path d="M97.5152 197.639L96.3132 197.591L93.8267 197.551L91.5748 197.443L88.3094 197.176C86.0633 196.928 84.6152 196.77 84.6152 194.974C84.6152 194.61 84.7171 194.253 84.9114 193.945L85.4979 193.02C85.6616 192.764 85.8828 192.549 86.1441 192.393L91.0863 189.468C91.3721 189.299 91.6966 189.206 92.0286 189.199L94.1536 187.943C94.1825 187.735 94.2459 187.26 94.2998 186.86C94.1171 186.47 94.0671 186.03 94.1652 185.605C94.2825 185.097 94.6017 184.655 95.0517 184.385C97.3767 182.997 98.6325 182.243 99.369 181.836C100.09 180.828 102.413 177.547 103.24 176.378C103.282 176.116 103.375 175.864 103.521 175.639L104.788 173.651C104.97 173.366 105.223 173.135 105.523 172.98L109.859 166.111C109.846 165.728 109.944 165.343 110.155 165.009L110.563 162.255C110.504 161.945 110.521 161.624 110.617 161.324L111.946 157.068C112.002 156.895 112.08 156.732 112.179 156.578L113.1 152.399C113.294 151.517 114.075 150.888 114.979 150.888H115.409L118.886 149.224C118.794 148.893 118.794 148.544 118.884 148.213L122.517 134.784C122.607 134.445 122.79 134.139 123.044 133.897L123.55 133.415L124.398 130.03C124.498 129.636 124.719 129.28 125.03 129.021L126.444 127.842C126.682 127.644 126.963 127.505 127.261 127.44L135.769 121.969L136.203 121.255C136.242 120.972 136.344 120.701 136.5 120.462C136.657 120.224 136.865 120.023 137.109 119.874L138.567 117.317C138.617 116.964 138.763 116.632 138.99 116.357C139.098 115.651 139.588 115.049 140.29 114.819L144.363 113.471C144.638 113.292 144.95 113.173 145.255 113.153L145.865 113.117L147.865 110.99C148.021 110.825 148.204 110.688 148.407 110.586C150.109 109.74 153.846 107.919 154.24 107.728C154.896 107.419 155.586 107.151 156.273 106.89C156.773 106.699 157.271 106.509 157.742 106.299C158.744 105.855 159.765 105.563 160.749 105.282L161.244 105.138C161.976 104.934 162.696 104.771 163.417 104.607L164.342 104.396C164.48 104.342 164.776 104.294 165.08 104.255L166.723 104C166.763 103.994 167.967 103.844 168.221 103.844C169.073 103.844 169.874 104.188 170.417 104.792C171.171 105.59 171.124 106.673 171.103 107.136L171.057 108.546C170.992 110.176 170.917 111.796 170.78 113.401C170.705 114.303 170.576 115.199 170.442 116.094L170.186 117.88C169.99 119.242 169.794 120.607 169.576 121.969C169.34 123.549 169.069 125.136 168.796 126.734L168.701 127.272C168.651 127.597 168.586 128.03 168.413 128.48C167.944 129.719 167.648 131.028 167.336 132.417C167.161 133.196 166.986 133.974 166.78 134.745C165.873 138.188 165.005 140.963 164.049 143.476C163.224 145.618 162.336 147.734 161.444 149.851L160.817 151.34C160.159 152.917 159.319 154.393 158.507 155.818L158.353 156.091C157.58 157.432 156.857 158.782 156.134 160.13L155.486 161.336C154.8 162.628 153.98 163.826 153.19 164.986C152.903 165.402 152.619 165.821 152.338 166.241L151.825 167.032C151.213 167.97 150.601 168.911 149.955 169.83C149.455 170.543 148.863 171.249 148.236 171.876C148.036 172.078 147.821 172.278 147.603 172.482C147.169 172.889 146.755 173.274 146.513 173.661C146.194 174.155 145.85 174.516 145.546 174.834L145.134 175.253C144.857 175.524 144.596 175.78 144.519 175.97C144.328 176.451 144 176.766 143.825 176.936L141.378 179.38C140.54 180.205 139.713 181.011 138.871 181.812C136.605 183.961 134.128 185.837 131.732 187.655L130.902 188.285C129.213 189.549 125.742 191.385 125.596 191.462L124.146 192.295C124.063 192.341 123.978 192.385 123.89 192.418L119.592 194.12L116.053 195.16L112.915 196.018L108.629 196.78L101.615 197.626C101.615 197.626 99.4979 197.689 99.4805 197.689C99.4652 197.689 97.5152 197.639 97.5152 197.639" fill="#CE1141"/>
<path d="M168.303 102.307C168.13 102.307 167.839 102.307 166.589 102.474L164.889 102.739C164.651 102.768 164.299 102.818 163.891 102.93L163.114 103.109C162.347 103.282 161.586 103.457 160.832 103.666L160.314 103.814C159.311 104.105 158.174 104.43 157.051 104.924C156.601 105.126 156.137 105.301 155.672 105.478C154.968 105.747 154.245 106.024 153.507 106.374C153.091 106.574 149.339 108.405 147.632 109.255C147.225 109.457 146.858 109.73 146.547 110.06L145.066 111.634C144.511 111.689 143.982 111.866 143.509 112.141L139.768 113.378C138.539 113.784 137.63 114.762 137.282 115.949C137.078 116.28 136.926 116.639 136.828 117.014L135.726 118.951C135.114 119.462 134.676 120.151 134.472 120.922L134.44 120.978L126.545 126.056C126.093 126.206 125.67 126.439 125.297 126.749L123.882 127.928C123.257 128.45 122.813 129.157 122.613 129.947L121.899 132.795L121.793 132.897C121.29 133.381 120.924 133.995 120.743 134.668L117.109 148.097C117.082 148.197 117.061 148.299 117.041 148.402L115.055 149.352C113.251 149.354 111.693 150.608 111.303 152.37L110.445 156.268C110.343 156.465 110.258 156.671 110.193 156.883L108.863 161.137C108.711 161.622 108.657 162.127 108.703 162.627L108.384 164.783C108.218 165.135 108.107 165.506 108.055 165.887L104.207 171.977C103.827 172.259 103.501 172.607 103.247 173.006L101.982 174.993C101.791 175.291 101.642 175.615 101.54 175.954C100.68 177.17 98.9512 179.612 98.1301 180.766C97.2685 181.256 96.0281 181.996 94.1455 183.123C93.2493 183.662 92.609 184.541 92.3743 185.56C92.2488 186.101 92.2423 186.664 92.3551 187.208L91.4916 187.72C91.0313 187.799 90.5894 187.962 90.1878 188.2L85.2455 191.127C84.7218 191.437 84.279 191.867 83.9532 192.381L83.3686 193.306C82.9801 193.921 82.7725 194.635 82.7725 195.362C82.7725 198.879 86.1282 199.248 88.1301 199.468C88.1647 199.471 88.1993 199.475 88.2359 199.479L91.432 199.743C91.4755 199.746 91.5191 199.749 91.5628 199.75L93.7532 199.858C93.7955 199.86 93.8378 199.862 93.8801 199.862L96.3647 199.9L97.4916 199.944L99.4627 199.998C99.4954 200 99.5301 200 99.5627 200C99.5974 200 99.632 200 99.6666 199.998L101.57 199.946C101.69 199.945 101.809 199.936 101.928 199.921L108.838 199.089C108.907 199.081 108.974 199.069 109.043 199.06L113.155 198.339C113.272 198.318 113.388 198.291 113.505 198.26L116.611 197.412L120.041 196.414C120.157 196.379 120.268 196.339 120.382 196.296L124.68 194.593C124.856 194.523 125.026 194.441 125.19 194.346L125.497 194.169L126.634 193.521C127.215 193.212 130.424 191.493 132.124 190.221L132.982 189.569C135.416 187.723 137.934 185.814 140.274 183.596C141.13 182.783 141.963 181.97 142.799 181.146L143.847 180.098C144.28 179.666 144.711 179.231 145.149 178.8C145.178 178.773 145.205 178.745 145.232 178.716C145.48 178.477 145.955 178.012 146.297 177.273C146.38 177.187 146.47 177.104 146.559 177.02L146.761 176.82C146.795 176.785 146.832 176.748 146.866 176.712L147.028 176.543C147.349 176.202 147.791 175.737 148.191 175.12C148.334 174.895 148.688 174.564 148.999 174.273C149.234 174.056 149.466 173.837 149.688 173.612C150.38 172.922 151.045 172.127 151.611 171.323C152.274 170.377 152.899 169.416 153.526 168.454L154.034 167.675C154.304 167.269 154.578 166.866 154.855 166.464C155.678 165.258 156.528 164.014 157.272 162.616L157.884 161.475C158.632 160.079 159.339 158.76 160.095 157.451L160.253 157.17C161.097 155.689 161.968 154.158 162.676 152.462L163.266 151.06C164.159 148.945 165.08 146.758 165.926 144.56C166.905 141.978 167.793 139.139 168.724 135.616C168.934 134.831 169.114 134.03 169.295 133.228C169.591 131.906 169.87 130.658 170.293 129.545C170.537 128.906 170.628 128.326 170.686 127.941L170.747 127.58C171.032 125.924 171.312 124.281 171.562 122.624C171.785 121.237 171.989 119.814 172.191 118.391L172.307 117.591L172.428 116.77C172.56 115.868 172.697 114.934 172.78 113.949C172.92 112.278 172.997 110.593 173.062 109.022L173.082 108.516L173.105 107.676C173.134 107.035 173.214 105.259 171.87 103.83C171.022 102.885 169.703 102.307 168.303 102.307ZM168.303 106.153C168.505 106.153 168.834 106.203 169.068 106.464C169.324 106.735 169.272 107.239 169.261 107.545C169.249 107.847 169.239 108.345 169.239 108.345C169.239 108.345 169.224 108.699 169.218 108.868C169.153 110.457 169.08 112.049 168.947 113.628C168.851 114.774 168.661 115.908 168.501 117.045C168.261 118.712 168.026 120.383 167.761 122.053C167.495 123.818 167.191 125.568 166.889 127.335C166.845 127.61 166.803 127.908 166.697 128.183C165.903 130.276 165.58 132.483 165.005 134.637C164.245 137.522 163.397 140.385 162.334 143.179C161.328 145.797 160.216 148.383 159.128 150.983C158.472 152.551 157.605 154.049 156.764 155.527C155.759 157.27 154.828 159.045 153.876 160.81C152.991 162.47 151.859 163.991 150.816 165.568C150.039 166.756 149.278 167.95 148.464 169.112C148.024 169.739 147.509 170.356 146.959 170.902C146.278 171.589 145.486 172.197 144.964 173.027C144.709 173.422 144.368 173.748 144.049 174.091C143.582 174.556 143.082 174.991 142.82 175.629C142.757 175.791 142.576 175.922 142.449 176.064C141.661 176.841 140.889 177.623 140.107 178.4C139.282 179.21 138.463 180.01 137.628 180.804C135.186 183.12 132.484 185.116 129.818 187.141C128.243 188.321 124.78 190.15 124.78 190.15L123.572 190.839L123.265 191.018L118.966 192.719L115.597 193.7L112.492 194.55L108.378 195.271L101.469 196.102L99.5627 196.154L97.6474 196.102L96.4724 196.056L93.9397 196.016L91.7474 195.91L88.5513 195.644C88.5513 195.644 86.6186 195.433 86.6186 195.362L87.2051 194.435L92.1474 191.51L92.5032 191.589L95.8762 189.594L96.5358 189.389L96.1262 188.696C96.1262 188.696 96.3762 186.866 96.3762 186.814L96.1204 186.423C96.1204 186.423 100.726 183.668 100.782 183.668C100.793 183.668 105.188 177.46 105.188 177.46L105.222 177.06L106.49 175.073L106.874 174.958L112.049 166.764L111.863 166.42L112.067 166.168L112.607 162.514L112.534 162.283L113.863 158.031L114.028 157.883L115.059 153.199H115.928L121.307 150.624L120.822 149.101L124.455 135.674L125.361 134.806L126.345 130.883L127.759 129.705L127.957 129.72L137.261 123.735C137.73 122.966 138.149 122.281 138.149 122.281L138.191 121.903L138.478 121.887L140.547 118.257L140.553 117.972L141.013 117.522L140.974 117.03L145.378 115.574L145.453 115.46L146.811 115.378L147.099 115.509L147.178 115.003L149.349 112.697C151.039 111.853 154.759 110.039 155.153 109.851C156.259 109.326 157.499 108.935 158.605 108.443C159.641 107.985 160.77 107.691 161.864 107.372C162.855 107.095 163.861 106.891 164.866 106.653C165.047 106.593 165.234 106.572 165.426 106.547L167.101 106.285C167.101 106.285 168.097 106.153 168.303 106.153Z" fill="white"/>
</g>
<defs>
<clipPath id="clip0_2_660">
<rect width="200" height="200" fill="white"/>
</clipPath>
</defs>
</svg>
