<svg width="200" height="200" viewBox="0 0 200 200" fill="none" xmlns="http://www.w3.org/2000/svg">
<g clip-path="url(#clip0_33_1853)">
<path d="M200 32H108.08L72.0616 108.724C70.9021 106.824 69.6192 105.048 68.1637 103.37C68.1637 103.37 56.5688 111.265 55.6807 126.585H77.6617L102.307 73.9637H180.462L200 32Z" fill="#4E008E"/>
<path d="M65.2279 100.311C58.8137 94.3654 50.4012 90.5415 41.1006 90.0234V126.584H51.2646C51.9061 109.488 65.2279 100.311 65.2279 100.311Z" fill="#4E008E"/>
<path d="M26.5944 126.586H36.8078V90C27.4579 90.4687 18.9714 94.2433 12.5078 100.189C12.5325 100.189 25.7063 109.711 26.5944 126.586Z" fill="#4E008E"/>
<path d="M9.54705 103.246C4.04563 109.562 0.542485 117.653 0.0244141 126.559H22.3755C21.2653 111.93 9.54705 103.246 9.54705 103.246Z" fill="#4E008E"/>
<path d="M22.3757 131.025L0 130.951C0.493401 139.906 3.99654 148.048 9.52263 154.363C9.5473 154.363 21.9317 145.235 22.3757 131.025Z" fill="#4E008E"/>
<path d="M12.4834 157.372C18.9469 163.343 27.4581 167.142 36.8327 167.61V130.803H26.6193C25.7065 148.787 12.4834 157.372 12.4834 157.372Z" fill="#4E008E"/>
<path d="M51.2394 130.803H41.248V167.586C50.5487 167.018 58.9611 163.17 65.3507 157.2C65.3507 157.175 52.7936 149.009 51.2394 130.803Z" fill="#4E008E"/>
<path d="M77.6123 130.901L55.6807 130.803C56.3468 146.567 68.2377 154.165 68.2377 154.165C73.6898 147.85 77.1436 139.783 77.6123 130.901Z" fill="#4E008E"/>
</g>
<defs>
<clipPath id="clip0_33_1853">
<rect width="200" height="200" fill="white"/>
</clipPath>
</defs>
</svg>
