<?xml version="1.0" encoding="UTF-8"?><svg id="Layer_1" xmlns="http://www.w3.org/2000/svg" xmlns:xlink="http://www.w3.org/1999/xlink" viewBox="0 0 271.15 271.89"><defs><style>.cls-1{fill:none;}.cls-2{fill:url(#linear-gradient-8);}.cls-3{fill:url(#linear-gradient-7);}.cls-4{fill:url(#linear-gradient-5);}.cls-5{fill:url(#linear-gradient-6);}.cls-6{fill:url(#linear-gradient-4);}.cls-7{fill:url(#linear-gradient-3);}.cls-8{fill:url(#linear-gradient-2);}.cls-9{fill:#231f20;}.cls-10{fill:url(#linear-gradient);}.cls-11{clip-path:url(#clippath-1);}.cls-12{clip-path:url(#clippath-3);}.cls-13{clip-path:url(#clippath-4);}.cls-14{clip-path:url(#clippath-2);}.cls-15{clip-path:url(#clippath-7);}.cls-16{clip-path:url(#clippath-6);}.cls-17{clip-path:url(#clippath-8);}.cls-18{clip-path:url(#clippath-5);}.cls-19{fill:#fff;}.cls-20{fill:#cfd2d3;}.cls-21{clip-path:url(#clippath);}</style><clipPath id="clippath"><rect class="cls-1" x="53.9" y="43.17" width="163.35" height="185.33"/></clipPath><clipPath id="clippath-1"><path class="cls-1" d="M66.95,110.39c0,20.02-9.81,23.99-9.81,44.99,0,6.41,1.09,12.4,3.04,17.91.62-1.26,1.52-2.48,2.55-3.42-1.32-4.38-2.05-9.21-2.05-14.49,0-13.75,9.26-25.21,11.48-39.19.18-1.82.29-3.75.29-5.85,0-15.97-7.62-29.46-7.62-29.46l-7.61-3.57,5.16,11.72c2.6,5.9,4.56,13.15,4.56,21.36"/></clipPath><linearGradient id="linear-gradient" x1="-127.92" y1="429.96" x2="-121.91" y2="429.96" gradientTransform="translate(474.38 1533.32) scale(3.27 -3.27)" gradientUnits="userSpaceOnUse"><stop offset="0" stop-color="#fff"/><stop offset=".11" stop-color="#fff"/><stop offset=".23" stop-color="#dee1e3"/><stop offset=".44" stop-color="#a7aeb2"/><stop offset=".54" stop-color="#929aa0"/><stop offset="1" stop-color="#929aa0"/></linearGradient><clipPath id="clippath-2"><path class="cls-1" d="M198.71,110.35c0,8.46,3.44,15.35,6.57,22.96l4.09-.13c-2.54-6.36-5.17-12.42-5.17-22.79,0-8.2,1.97-15.46,4.57-21.36l5.16-11.72-7.61,3.57s-7.62,13.49-7.62,29.46"/></clipPath><linearGradient id="linear-gradient-2" x1="-86.34" y1="359.43" x2="-80.34" y2="359.43" gradientTransform="translate(3559.32 -672.47) rotate(-90) scale(9.33 -9.33)" gradientUnits="userSpaceOnUse"><stop offset="0" stop-color="#fff"/><stop offset=".35" stop-color="#fff"/><stop offset=".56" stop-color="#929aa0"/><stop offset="1" stop-color="#929aa0"/></linearGradient><clipPath id="clippath-3"><path class="cls-1" d="M129.59,210.4c-6.23-2.25-14.7-3.04-26.98-6.14-16.76-4.25-34.07-15.02-39.88-34.38-1.03.94-1.93,2.16-2.55,3.42,6.62,18.68,23.17,31.78,41.06,36.39,11.46,2.89,16.79,3.18,25.33,5.57,1.11,1.17,9,9.7,9,9.7v-8.18s-5.19-5.62-5.98-6.37"/></clipPath><linearGradient id="linear-gradient-3" x1="-112.96" y1="377.84" x2="-106.96" y2="377.84" gradientTransform="translate(1479.6 4947.34) scale(12.57 -12.57)" gradientUnits="userSpaceOnUse"><stop offset="0" stop-color="#fff"/><stop offset=".15" stop-color="#fff"/><stop offset=".21" stop-color="#f9fafa"/><stop offset=".28" stop-color="#eaeced"/><stop offset=".37" stop-color="#d1d5d7"/><stop offset=".45" stop-color="#afb5b9"/><stop offset=".51" stop-color="#929aa0"/><stop offset="1" stop-color="#929aa0"/></linearGradient><clipPath id="clippath-4"><path class="cls-1" d="M103.99,198.84c13.66,3.47,22.58,3.86,28.58,6.76,0,0,2.17,2,3,2.91.83-.91,3.01-2.91,3.01-2.91,5.99-2.89,14.92-3.29,28.58-6.76,17.24-4.38,35.84-19.58,35.84-43.45,0-17.08-9.8-23.34-9.8-45.04,0-14.62,5.53-25.88,5.53-25.88,0,0-12.74-2.57-18.68-18.71,0,0-8.46,7.9-20.13,7.9-14.62,0-24.33-10.27-24.33-10.27,0,0-9.71,10.27-24.33,10.27-11.67,0-20.13-7.9-20.13-7.9-5.94,16.14-18.68,18.71-18.68,18.71,0,0,5.53,11.26,5.53,25.88,0,21.69-9.8,27.96-9.8,45.04,0,23.88,18.6,39.08,35.84,43.45M196.74,155.38c0,20.26-16.13,33.57-31.12,37.38-10.82,2.75-24.05,4.17-28.04,6.45-.9.66-2,1.83-2,1.83,0,0-1.1-1.17-2-1.83-4-2.28-17.23-3.7-28.04-6.45-.4-.11-.81-.22-1.22-.33l85.1-63.93c2.9,10.14,7.33,16.79,7.33,26.88ZM190.68,87.89c-1.73,5.18-3.74,13.19-3.74,22.46,0,3.85.28,7.26.75,10.34l-91.3,68.59c-11.44-5.88-21.45-17.17-21.96-32.67l104.94-78.83c3.66,5.08,7.86,8.22,11.31,10.11ZM84.22,110.35c0-9.27-2.02-17.28-3.74-22.46,4.02-2.21,9.07-6.12,13.1-12.84,4.33,2.42,10.46,4.86,17.67,4.86,10.92,0,19.45-4.77,24.33-8.36,4.88,3.59,13.41,8.36,24.33,8.36,1.75,0,3.42-.15,5.03-.4l-89.4,67.16c2.57-10.11,8.67-18.47,8.67-36.33Z"/></clipPath><linearGradient id="linear-gradient-4" x1="-104.14" y1="361.47" x2="-98.14" y2="361.47" gradientTransform="translate(9525.51 -2500.36) rotate(-90) scale(25.98 -25.98) skewX(-.02)" gradientUnits="userSpaceOnUse"><stop offset="0" stop-color="#929aa0"/><stop offset=".02" stop-color="#9ca3a8"/><stop offset=".12" stop-color="#c2c6c9"/><stop offset=".2" stop-color="#dadcdd"/><stop offset=".25" stop-color="#e3e4e5"/><stop offset=".75" stop-color="#e3e4e5"/><stop offset=".8" stop-color="#dbddde"/><stop offset=".87" stop-color="#c6c9cc"/><stop offset=".96" stop-color="#a4aaaf"/><stop offset="1" stop-color="#929aa0"/></linearGradient><clipPath id="clippath-5"><path class="cls-1" d="M111.25,68.06c14.67,0,24.33-12.48,24.33-12.48v-7.8l-7.68,7.6c-3.95,3.91-10.27,7.1-16.65,7.1-4.76,0-9.25-2.13-13.17-5.37l-11.93-9.88,2.48,9.27s11.23,11.57,22.62,11.57"/></clipPath><linearGradient id="linear-gradient-5" x1="-112.87" y1="398.21" x2="-106.87" y2="398.21" gradientTransform="translate(1015.99 3339.56) scale(8.24 -8.24)" gradientUnits="userSpaceOnUse"><stop offset="0" stop-color="#fff"/><stop offset=".25" stop-color="#fff"/><stop offset=".34" stop-color="#f9fafa"/><stop offset=".45" stop-color="#eaeced"/><stop offset=".57" stop-color="#d1d5d7"/><stop offset=".7" stop-color="#afb5b9"/><stop offset=".79" stop-color="#929aa0"/><stop offset="1" stop-color="#929aa0"/></linearGradient><clipPath id="clippath-6"><path class="cls-1" d="M210.33,155.38c0,25.92-18.52,42.98-41.8,48.87-12.27,3.11-20.74,3.89-26.97,6.14-.8.75-5.99,6.37-5.99,6.37v8.18s7.89-8.53,9.01-9.7c8.54-2.39,13.87-2.67,25.33-5.57,23.17-5.97,44.1-26.17,44.1-54.3,0-10.12-2.28-16.29-4.64-22.21l-4.09.13c2.63,6.39,5.05,13.29,5.05,22.07"/></clipPath><linearGradient id="linear-gradient-6" x1="-107.99" y1="378.52" x2="-101.99" y2="378.52" gradientTransform="translate(1547.38 5129.54) scale(13.07 -13.08)" gradientUnits="userSpaceOnUse"><stop offset="0" stop-color="#fff"/><stop offset=".2" stop-color="#fff"/><stop offset=".33" stop-color="#fafafb"/><stop offset=".47" stop-color="#edeeef"/><stop offset=".62" stop-color="#d7dadc"/><stop offset=".78" stop-color="#b8bdc1"/><stop offset=".93" stop-color="#929aa0"/><stop offset="1" stop-color="#929aa0"/></linearGradient><clipPath id="clippath-7"><path class="cls-1" d="M159.91,68.06c11.38,0,22.62-11.57,22.62-11.57l2.48-9.27-11.93,9.88c-3.92,3.25-8.41,5.37-13.17,5.37-6.38,0-12.7-3.19-16.65-7.1l-7.68-7.6v7.8s9.66,12.48,24.33,12.48"/></clipPath><linearGradient id="linear-gradient-7" x1="-107.92" y1="398.16" x2="-101.92" y2="398.16" gradientTransform="translate(1024.67 3339.29) scale(8.24 -8.24)" xlink:href="#linear-gradient-5"/><clipPath id="clippath-8"><path class="cls-1" d="M88.63,56.48l-2.48-9.27-5.35,14.65c-2.3,6.31-6.15,10.31-11.44,11.87l-12.13,3.58,7.61,3.57s18.73-1.63,23.8-24.4"/></clipPath><linearGradient id="linear-gradient-8" x1="-120.31" y1="415.62" x2="-114.31" y2="415.62" gradientTransform="translate(687.01 2240.57) scale(5.23 -5.24)" gradientUnits="userSpaceOnUse"><stop offset="0" stop-color="#fff"/><stop offset=".39" stop-color="#fff"/><stop offset=".47" stop-color="#f9fafa"/><stop offset=".56" stop-color="#eaeced"/><stop offset=".67" stop-color="#d1d5d7"/><stop offset=".78" stop-color="#afb5b9"/><stop offset=".87" stop-color="#929aa0"/><stop offset="1" stop-color="#929aa0"/></linearGradient></defs><g class="cls-21"><path class="cls-19" d="M62.65,155.38c0-16.83,7.89-23.23,9.5-39.19-2.21,13.97-11.48,25.44-11.48,39.19,0,5.29.73,10.11,2.05,14.49,5.81,19.36,23.13,30.13,39.88,34.38-25.82-6.53-39.96-28.21-39.96-48.87"/><path class="cls-19" d="M205.28,133.31c-3.13-7.62-6.57-14.5-6.57-22.96,0,20.49,9.79,26.29,9.79,45.04,0,20.66-14.14,42.34-39.97,48.87,23.29-5.89,41.8-22.95,41.8-48.87,0-8.78-2.42-15.69-5.05-22.07"/><path class="cls-20" d="M201.8,73.73c-5.29-1.56-9.13-5.55-11.44-11.87l-5.35-14.65-2.48,9.27c5.07,22.78,23.8,24.4,23.8,24.4l7.61-3.57"/><path class="cls-20" d="M113.41,156.67l-9.8-15.02-10.89,8.17s3.81.11,3.81,4.1v28.28l7.68-5.77v-20l8.76,13.41,8.12-6.09v-35.25l-7.68,5.77"/><path class="cls-20" d="M144.56,123.91l-8.67,6.51v-13.03l-11.71,8.79s3.81.11,3.81,4.1v28.28l7.89-5.93v-12.89l8.67-6.51v12.89l7.51-5.65v-35.24l-7.51,5.65"/><path class="cls-20" d="M166.52,120.64v-26.26l-11.71,8.79s3.81.11,3.81,4.1v28.28l21.79-16.37c-.47-5.64,0-8.99,0-8.99"/><g class="cls-11"><rect class="cls-10" x="57.14" y="77.31" width="15.31" height="95.98"/></g><g class="cls-14"><rect class="cls-8" x="198.71" y="77.31" width="15.22" height="56"/></g><g class="cls-12"><rect class="cls-7" x="60.18" y="169.87" width="75.39" height="55.08"/></g><g class="cls-13"><rect class="cls-6" x="38.73" y="37.83" width="193.69" height="196.22" transform="translate(-53.45 102.31) rotate(-34.99)"/></g><g class="cls-18"><rect class="cls-4" x="86.14" y="47.21" width="49.43" height="20.84"/></g><g class="cls-16"><rect class="cls-5" x="135.57" y="133.18" width="78.44" height="91.78"/></g><g class="cls-15"><rect class="cls-3" x="135.57" y="47.21" width="49.44" height="20.84"/></g><g class="cls-17"><rect class="cls-2" x="57.22" y="47.21" width="31.41" height="33.67"/></g><path class="cls-9" d="M64.54,110.39c0,19.25-9.81,23.62-9.81,44.99,0,30.79,23.81,50.94,45.92,56.64,11.17,2.72,14.55,2.91,24.64,5.39.83.88,10.29,11.09,10.29,11.09,0,0,9.47-10.2,10.3-11.09,10.09-2.48,13.46-2.67,24.64-5.39,22.11-5.7,45.92-25.85,45.92-56.64,0-21.37-9.81-25.75-9.81-44.99,0-6.95,1.46-13.81,4.36-20.38l6.27-14.23-14.78-4.36c-4.51-1.33-7.82-4.82-9.84-10.38l-6.53-17.87-14.57,12.06c-3.86,3.2-7.78,4.82-11.63,4.82-5.16,0-11.03-2.51-14.95-6.4l-9.39-9.29-9.37,9.29c-3.93,3.88-9.8,6.4-14.95,6.4-3.86,0-7.77-1.62-11.63-4.82l-14.56-12.06-6.53,17.87c-2.03,5.55-5.34,9.05-9.85,10.38l-14.78,4.36,6.27,14.23c2.89,6.57,4.37,13.44,4.37,20.38M69.36,73.73c5.29-1.56,9.13-5.55,11.44-11.87l5.35-14.65,11.93,9.88c3.93,3.25,8.41,5.37,13.17,5.37,6.38,0,12.7-3.19,16.65-7.1l7.68-7.6,7.68,7.6c3.96,3.91,10.27,7.1,16.65,7.1,4.76,0,9.25-2.13,13.17-5.37l11.93-9.88,5.35,14.65c2.31,6.31,6.15,10.31,11.44,11.87l12.13,3.58-5.16,11.72c-2.6,5.9-4.57,13.15-4.57,21.36,0,10.37,2.63,16.43,5.17,22.79,2.36,5.92,4.64,12.08,4.64,22.21,0,28.12-20.93,48.33-44.1,54.3-11.45,2.89-16.79,3.18-25.33,5.57-1.11,1.17-9.01,9.7-9.01,9.7,0,0-7.89-8.53-9-9.7-8.54-2.39-13.87-2.67-25.33-5.57-17.89-4.61-34.45-17.71-41.06-36.39-1.95-5.51-3.04-11.5-3.04-17.91,0-21.01,9.81-24.98,9.81-44.99,0-8.2-1.97-15.46-4.56-21.36l-5.16-11.72,12.13-3.58Z"/><path class="cls-9" d="M104.31,192.43c.41.12.82.23,1.22.33,10.82,2.75,24.05,4.17,28.04,6.45.9.66,2,1.83,2,1.83,0,0,1.1-1.17,2-1.83,4-2.28,17.23-3.7,28.04-6.45,14.99-3.81,31.12-17.13,31.12-37.38,0-10.1-4.43-16.74-7.33-26.88"/><path class="cls-9" d="M75.54,146.68l89.4-67.16c-1.61.25-3.29.4-5.03.4-10.92,0-19.45-4.77-24.33-8.36-4.88,3.59-13.41,8.36-24.33,8.36-7.21,0-13.34-2.44-17.67-4.86-4.03,6.72-9.08,10.63-13.1,12.84,1.72,5.18,3.74,13.19,3.74,22.46,0,17.85-6.1,26.22-8.67,36.33"/><path class="cls-9" d="M96.39,189.28l91.3-68.59c-.47-3.08-.75-6.49-.75-10.34,0-9.27,2-17.28,3.74-22.46-3.45-1.89-7.65-5.03-11.31-10.11l-104.94,78.83c.5,15.5,10.51,26.79,21.96,32.67M166.52,94.39v26.26l13.9-10.44s-.47,3.36,0,8.99l-21.79,16.37v-28.28c0-4-3.81-4.1-3.81-4.1l11.71-8.79ZM135.89,117.4v13.03l8.67-6.51v-13.02l7.51-5.65v35.24l-7.51,5.65v-12.89l-8.67,6.51v12.89l-7.89,5.93v-28.28c0-4-3.81-4.1-3.81-4.1l11.71-8.79ZM103.61,141.66l9.8,15.02v-22.38l7.68-5.77v35.25l-8.12,6.09-8.76-13.41v20l-7.68,5.77v-28.28c0-3.99-3.81-4.1-3.81-4.1l10.89-8.17Z"/><path class="cls-9" d="M72.16,116.2c-1.62,15.96-9.5,22.35-9.5,39.19,0,20.66,14.14,42.34,39.96,48.87,12.28,3.11,20.74,3.89,26.98,6.14.8.75,5.98,6.37,5.98,6.37,0,0,5.19-5.62,5.99-6.37,6.23-2.25,14.7-3.04,26.97-6.14,25.82-6.53,39.97-28.21,39.97-48.87,0-18.75-9.79-24.54-9.79-45.04,0-15.97,7.62-29.46,7.62-29.46,0,0-18.73-1.63-23.8-24.4,0,0-11.23,11.57-22.62,11.57-14.67,0-24.33-12.48-24.33-12.48,0,0-9.66,12.48-24.33,12.48-11.38,0-22.62-11.57-22.62-11.57-5.07,22.78-23.8,24.4-23.8,24.4,0,0,7.62,13.49,7.62,29.46,0,2.1-.11,4.03-.29,5.85M72.43,84.47s12.74-2.57,18.68-18.71c0,0,8.46,7.9,20.13,7.9,14.62,0,24.33-10.27,24.33-10.27,0,0,9.71,10.27,24.33,10.27,11.67,0,20.13-7.9,20.13-7.9,5.94,16.14,18.68,18.71,18.68,18.71,0,0-5.53,11.26-5.53,25.88,0,21.69,9.8,27.96,9.8,45.04,0,23.88-18.6,39.08-35.84,43.45-13.66,3.47-22.59,3.86-28.58,6.76,0,0-2.18,2-3.01,2.91-.83-.91-3-2.91-3-2.91-6-2.89-14.92-3.29-28.58-6.76-17.24-4.38-35.84-19.58-35.84-43.45,0-17.08,9.8-23.34,9.8-45.04,0-14.62-5.53-25.88-5.53-25.88Z"/><path class="cls-9" d="M194.64,210.5c0,3.49,2.82,6.32,6.31,6.32s6.32-2.82,6.32-6.32-2.82-6.32-6.32-6.32-6.31,2.83-6.31,6.32M205.91,210.5c0,2.75-2.22,4.96-4.96,4.96s-4.96-2.21-4.96-4.96,2.22-4.96,4.96-4.96,4.96,2.21,4.96,4.96Z"/><path class="cls-9" d="M198.36,214.11h1.35v-2.93h.97l1.37,2.93h1.49l-1.42-3.06c.83-.29,1.42-1.08,1.42-2.02,0-1.18-.96-2.14-2.14-2.14h-3.04M199.71,208.25h1.69c.44,0,.79.35.79.79s-.35.79-.79.79h-1.69v-1.57Z"/></g></svg>