<svg xmlns="http://www.w3.org/2000/svg" viewBox="0 0 296.56 143.31"><title>WNBA logo</title><path d="M475.41,501H488L475.67,539.6H459.93l-7.49-27.15-7.87,27.15H429.1L416.79,501h12.56L437,528.18,444.58,501h15.73l7.61,27.15Zm-55.83-44.28c.38-1.4,1.65-3.3,2.16-4.82.38-1.27.25-2.16-.25-2.41a8.48,8.48,0,1,0-10.15,7.61,9.6,9.6,0,0,0,1.9.13c.25.13.63.25.76.51a2.64,2.64,0,0,1,.25,2.41,34.14,34.14,0,0,1-4.06,4.69c-2,2.16-2.66,2.41-4.44,4.44a5.53,5.53,0,0,0-1.14,2.28,9,9,0,0,0-2.79,2.54,37.49,37.49,0,0,0-2.66,4.69s-1.27.76-2,1.27a20.12,20.12,0,0,0-2.16,2.28,2.22,2.22,0,0,1,1.14-2.16c.51-.38,1.27-2.28,1.4-4.57a3.32,3.32,0,0,0,1.78-2.92,3.36,3.36,0,0,0-3.3-3.3,3.12,3.12,0,0,0-1.9.63,7.44,7.44,0,0,0-4.82-.51c-.63.13-1.27.38-1.4.89a3.28,3.28,0,0,0-1.78,1.52,4.08,4.08,0,0,0-.63,2.54c-.13.38-1.52,1.14-.89,4.06.25,1.14.13,2,.25,2.41s.25.76.76.89c.25.13.63.25.89.38.51.13.63.25.76.76v.89c0,.13-.13.38-.25.38l-3.17.13a5.19,5.19,0,0,0-2.92.51,6.8,6.8,0,0,0-6.47,5.46,8.52,8.52,0,0,1-.76,1.9c-.25.38-1.4,1.14-2.28,2a26.93,26.93,0,0,1-1.27-5.84v-.38a3.22,3.22,0,0,1,.25-1.52,3.89,3.89,0,0,0,.76-2.66,11.11,11.11,0,0,1,.25-2c.13-.51,0-.89.25-1.27a2.42,2.42,0,0,0,.38-1,3.35,3.35,0,0,0-.89.13c-.63.25-.76,1-1,1.52s-.13.89-.38,1a.78.78,0,0,1-.89-.13c-.25-.38-.38-.63-.63-1s-.89-2.79-1.52-4.19c-.25-.25-.38-.63-.76-.76s-.63.13-.51.38a16.07,16.07,0,0,1,.76,2.28,13.37,13.37,0,0,0-.89-1.4c-.25-.25-.51-.63-.89-.76a.46.46,0,0,0-.63.25c-.13.13.13.38.13.51a6.65,6.65,0,0,1,1.27,2.28,2.28,2.28,0,0,0-.89-.63.37.37,0,0,0-.38.63l1.14,1.52c.25.38.51.89.76,1.27,0-.25-.38-.25-.38.13.25.51.89.89,1,1.52a9.15,9.15,0,0,1,.25,4.19c-.13,1.52.13,6-.25,7.87-.63,3-.51,4.19.25,7.61.38,2,2.41,2,3.93,1,2.54-1.65,5.2-5.46,5.84-6.22s.89-1.65,1.27-1.52c.89,1,1.52,5.2.76,8.88-.13.76-.51,2.16-.51,2.54s.51.63.51.76c-.13,2.79-2,3.3-2.66,6.22a18.29,18.29,0,0,0,.13,7.87,28.35,28.35,0,0,0,3,8,13.51,13.51,0,0,1,1.4,3.68l1,.13a40.87,40.87,0,0,0,4.69,11c9.26,14,12.56,20.17,13.2,21.57s-.25,1.27-.25,1.9.51,1.27,2,2.28,2.92,4.57,3.55,6.47,1.9,5.58,4.69,5.2,2.79-4.06,2.28-6.34-2.92-3.43-3.3-4.95-1.9-3.81-2-6.72a6.23,6.23,0,0,1,.13-1.4c.13-1.65,1-3.81,1-5.08s-3.43-3.55-4.19-4.95-1.27-4.31-1.52-4.44a2.72,2.72,0,0,0-.76-.13s-.51-9.64-1.78-13.58a17,17,0,0,0-3.55-5.46,42.72,42.72,0,0,0,2.66-7.74c1.78-6.72-.89-9.9-1.65-13.7-.63-3,.13-7.61,2-12.05a34.81,34.81,0,0,0,2.28-8.5c0-1,.63-1.78,1.65-3.17a15.31,15.31,0,0,0,2.28-4.19c.38-1.27,1.4-2.54,2.92-4.69a11.85,11.85,0,0,0,1.14-2.16,55.33,55.33,0,0,0,4.82-5.58c2.41-3.17,2.79-5.08,2.92-5.71s1.14-1.4,1.65-2.54A14.69,14.69,0,0,0,419.58,456.74Zm182,72.2c0,7.61-6.34,10.66-16,10.66H551.67V501h30.58c10.53,0,16.37,2.79,16.37,10.15A8.18,8.18,0,0,1,593,519.3a.25.25,0,0,0,0,.51c4.82.63,8.5,3.68,8.5,9.14Zm-38.45-12.69h19.16c3.3,0,4.57-1,4.57-2.54,0-1.9-1.4-2.79-4.57-2.79H563.09v5.33Zm26.65,10.66c0-1.52-1.14-2.54-4.19-2.54H563.09v5.33h22.46c3.17.13,4.19-1,4.19-2.79Zm70.55,12.69h-13.7l-4.44-8.37H620.57l-4.31,8.37H602.68L623.49,501h15.61Zm-23-17.64-6.09-11.55-6,11.55Zm-106.71,5.2-21.82-26H492.54v38.57H504V513.59l21.7,26H541.9V501H530.35v26.14Z" transform="translate(-363.72 -440.34)" style="fill:#fa4d00"/></svg>