<?xml version="1.0" encoding="UTF-8" standalone="no"?><svg xmlns:rdf="http://www.w3.org/1999/02/22-rdf-syntax-ns#" xmlns="http://www.w3.org/2000/svg" height="328.8878" width="285.65787" version="1.1" xmlns:cc="http://creativecommons.org/ns#" xmlns:dc="http://purl.org/dc/elements/1.1/" viewBox="0 0 285.65787 328.8878"><path d="M140.64135,328.88074c-.86239,0-1.75884-.00939-2.69524-.03287-10.512-.26781-20.33889-8.41014-22.40007-10.57609a12.2861,12.2861,0,0,0-6.08113-3.77282,23.13392,23.13392,0,0,1-9.67847-5.30448c-.27392-.25841-7.08588-6.85733-9.18724-19.9917-1.64445-10.27069.02842-18.95569,1.5016-26.61876.1029-.52622.21142-1.04071.31408-1.54342a30.01224,30.01224,0,0,0,.554-3.1221c.67939-6.66466-3.74017-12.43664-3.78573-12.493l-.28544-.37118-1.753-2.31866,2.78639-.83395a13.05416,13.05416,0,0,1,4.07117-.38761,83.206,83.206,0,0,1-1.947-8.78838,74.07352,74.07352,0,0,0-4.67655-15.73021c-4.63638-11.03655,1.57608-18.23214,1.84437-18.53518a20.70257,20.70257,0,0,1,6.21245-4.87694l1.38179-.63193c-1.3247-5.26457-3.6544-8.77191-6.93178-10.44925l-.24549-.1104a12.90391,12.90391,0,0,0-6.65786-1.13l-3.95135.50274,1.92423-3.48386a11.4919,11.4919,0,0,1,6.46945-5.16119c6.612-1.776,15.16548-2.80259,22.7541,5.09306,4.88211,5.08132,6.18968,10.7006,7.84562,17.81632.48535,2.08375,1.03342,4.44234,1.73,7.04995a11.29169,11.29169,0,0,0,8.73619,8.48061l.26264.04462c.514.08693,3.19774.343,5.18468-3.0704,3.00346-5.14473-5.70409-12.20173-6.07525-12.50008a47.892,47.892,0,0,1-10.07807-11.38422c-1.10789-1.64443-3.47164-6.40156-2.28412-15.8054l.01715-.11981a16.16545,16.16545,0,0,0-4.34531-13.24244l-2.88341-2.99758,4.568-.4454h.05708c6.88034-.34839,14.88008,2.55241,16.98706,11.71687a23.73935,23.73935,0,0,0,7.51438,12.51653,5.22357,5.22357,0,0,0,3.77987.91384,3.69761,3.69761,0,0,0,2.301-.86921c1.32024-1.79713,1.285-1.93573,1.17694-2.39148-.25137-1.03835-1.66228-4.191-9.22788-10.91766-15.21129-13.5213-14.60026-27.28219-14.32049-29.90319a11.01217,11.01217,0,0,1,5.60708-9.07872l3.39177-1.63316-.514,3.72864a12.50373,12.50373,0,0,0,.94791,5.16191c3.29474,7.39433,10.05527,11.05438,17.90018,14.73722,4.4259,2.07857,8.61217,4.04274,11.58625,6.94917,8.39368,8.18226,6.92074,17.93472,5.49948,27.36675l-.25841,1.70786c-.53563,3.63657.7024,5.1612,4.70544,9.4344,1.21688,1.30144,2.53009,2.69921,3.86679,4.31547a22.05283,22.05283,0,0,1,7.67952-10.46569,22.8004,22.8004,0,0,1,6.96537-3.30766l3.77986-.935-1.40952,3.62481c-3.061,7.86277-1.15345,13.327-.51917,14.26433.1809.26311.32419.48629.42755.65543.22318.36649,1.96393,2.80966,2.90126,4.12285l.08928.13156c1.65147,2.31866,3.5191,4.945,4.541,6.49788a47.32031,47.32031,0,0,1,6.68582,18.6033c1.11821,8.78132-2.267,15.67385-5.34443,20.6988a9.38191,9.38191,0,0,0-1.56927,4.59738,38.72252,38.72252,0,0,1,5.927-3.15265l4.39534-1.7196-5.53236,13.41864c-2.7979,7.96141-2.25523,14.2009-1.38838,20.41924a55.79146,55.79146,0,0,1,.63429,6.13373c.26311,9.7069-7.14391,15.83831-13.63005,20.09269-5.74849,3.77282-17.49448,11.08822-25.04951,14.57678-6.79388,3.13619-12.44135,4.837-22.7938,4.837Z" fill="#cde5ec"/><path d="M162.08766,303.95811h-38.5184l-2.02713-4.92864c-17.52948-42.56747-48.00351-70.26687-70.4837-86.00884C26.4656,195.794,5.7499,188.67354,5.53871,188.60542L.07987,186.75659,0,38.05114H36.2526l-6.06986-5.2474,7.37155-5.98411C63.649,5.62422,113.47969,1.07922,134.6751.11417L142.669,0l8.314.11417c21.19448.97069,71.02568,5.51005,97.12058,26.70546l7.37179,5.98411-6.07033,5.2474h36.25285L285.58266,186.766l-5.476,1.83944c-.19969.06812-20.91491,7.18854-45.50633,24.41521-22.47478,15.742-52.94859,43.44137-70.48535,86.00884Z" fill="#cee5eb"/><path d="M196.80646,26.32911c-.54737-.50812-1.01485-.89082-1.15816-1.005-.1386.05145-.60608.22835-1.1605.49687-.61079.29106-1.34608.66787-1.34608,1.65007q-.01059,10.38921-.0235,20.78429a3.15447,3.15447,0,0,0,1.34139,2.22117c.55441.5025,1.0172.88495,1.16051.99912.13625-.05121.60374-.22834,1.15815-.491.6108-.28542,1.34139-.64509,1.34139-1.63292q.01056-10.38956.0235-20.7843a3.18948,3.18948,0,0,0-1.34139-2.23832Z" fill="#403736"/><path d="M100.45337,25.56469q-1.37886.23961-2.758.49662A1.39358,1.39358,0,0,0,96.565,27.30614q.00847,9.75564.01715,19.511a.88517.88517,0,0,0,1.13044.81635q1.37884-.25689,2.75795-.49662a1.37008,1.37008,0,0,0,1.13067-1.2277q-.00879-9.75564-.01715-19.511a.90361.90361,0,0,0-1.1363-.83349Z" fill="#403736"/><path d="M277.6001,46.01117H228.0273l15.056-13.01879C214.46069,9.74143,152.44419,7.95439,143.0232,7.81719h-.38832C133.21342,7.96,71.19763,9.7473,42.57359,32.99825L57.63078,46.0168H8.057s.70805,60.59405.03431,135.05239c0,0,91.34788,30.33753,124.34565,124.18568h20.79652c32.99685-93.84815,124.3384-124.18568,124.3384-124.18568-.67423-74.45834.03524-135.05239.03524-135.05239ZM82.018,43.69862c-.491.33124-.70242.50249-.7252.36553-.02278-.25136,4.29974-2.90079,4.29386-8.63354q0-3.0576-.00563-6.10956c0-.42262-.4682-.57672-1.12479-.417q-1.73865.41968-3.47752.87367.01727,10.58619.02866,21.17262c0,.98783.73083,1.32471,1.33623,1.593.65659.29694,1.199.47383,1.199.47383v.04018q-4.77933,1.18188-9.53,2.56368V55.5811s.53679-.4682,1.18775-1.11352A3.44035,3.44035,0,0,0,76.52514,52.155V48.34651c0-1.2277-1.5702.21119-1.22769-.53679A13.92768,13.92768,0,0,0,76.51928,43.396q0-6.01266-.01692-12.01944c0-.98784-.73108-1.30756-1.33059-1.55893-.651-.27392-1.18752-.4339-1.18752-.4339v-.03993q1.68718-.4884,3.38025-.95354c3.42021-.95941,8.30232-2.13566,8.30232-2.12978,2.42671-.57674,4.408.81071,4.408,3.03751q0,3.02341.00565,6.04684c.01715,3.28911-7.26866,7.777-8.05094,8.35939Zm19.67077,5.57864c-1.73017.2913-3.45448.60515-5.18468.93075-2.44387.4682-4.42518-.92511-4.42518-3.15755q-.00846-9.096-.01715-18.192a5.44092,5.44092,0,0,1,4.41955-4.93333c1.72455-.33123,3.45449-.63967,5.18468-.93661,2.44952-.41676,4.448,1.102,4.448,3.33468q0,9.096.01714,18.192a5.22308,5.22308,0,0,1-4.44234,4.75642Zm25.615-2.96352q-2.80954.18007-5.61858.417a1.59686,1.59686,0,0,1-1.8615-1.53614V37.28624c.11417-1.58148-2.1756-2.80353-3.5231-2.81481-1.02777-.03429-1.3475.05122-.53679-.30281.82245-.36529,4.13413-1.593,4.13413-5.29885V23.83943c0-.38832-.32538-.85087-1.29607-.75362q-2.09841.20543-4.18557.45105,0,10.58619.01151,21.17825c0,.98761.74235,1.42738,1.359,1.7814.66786.38833,1.21616.64533,1.21616.64533v.03994q-4.8734.51376-9.724,1.22182v-.03995s.54807-.39395,1.21055-.9479a2.85741,2.85741,0,0,0,1.35313-2.12415V39.13647c0-1.23333-1.6045-.01151-1.25611-.708a13.55,13.55,0,0,0,1.25611-4.46537q0-4.72752-.00564-9.45551c0-.98785-.74234-1.41046-1.359-1.74734-.66812-.3653-1.21618-.59952-1.21618-.59952v-.03993q6.34671-.925,12.716-1.519a3.87633,3.87633,0,0,1,4.48226,3.67157v4.922c0,2.36964-1.99846,3.69435-3.87123,4.471,2.5181.33687,3.87123,1.82133,3.87123,3.11175v6.98322c0,1.18776.78229,1.519,1.45605,1.8958a9.97217,9.97217,0,0,0,1.38179.62231v.04017Zm13.50389-22.44a7.21405,7.21405,0,0,0-3.95112-1.77576V43.14468a2.34475,2.34475,0,0,0,1.36466,1.90731c.67374.44517,1.22181.75363,1.22181.75363v.03993q-4.89031.06871-9.77547.3256V46.131s.54829-.34251,1.222-.8335a2.55107,2.55107,0,0,0,1.36465-1.99846V22.25208a7.69348,7.69348,0,0,0-4.01971,2.044c-.67962.63381-1.26763,1.21641-1.70739,1.66158a.52655.52655,0,0,1-.47385.14284c-.07422-.01715-.14283-.02843-.21706-.04558q.89081-3.03223,1.78163-6.05271,6.90312-.42813,13.818-.46819l1.78163,5.927c-.06859.01716-.14282.03994-.21143.05709a.5188.5188,0,0,1-.47946-.11417c-.43978-.41111-1.028-.95942-1.713-1.54178Zm1.80443,21.949v-.03993s.5483-.31409,1.22227-.771a2.39909,2.39909,0,0,0,1.36489-1.92423V22.30352a2.43673,2.43673,0,0,0-1.36489-1.94725c-.674-.46255-1.22227-.7764-1.22227-.7764v-.03994q4.89209,0,9.78042.18253v.03994s-.54737.2913-1.2216.73107A2.307,2.307,0,0,0,149.806,22.389V43.5673q1.50819.043,3.01638.10289a7.10676,7.10676,0,0,0,4.299-1.75885c.0916-.07423,1.60919-1.359,1.70786-1.45015a.47828.47828,0,0,1,.47924-.08011c.06812.023.14329.05145.21142.07424-.047.14846-.09162.30281-.1386.451q-.82106,2.68091-1.64445,5.36181-7.5515-.45385-15.12483-.451Zm69.04364,5.7499c0,2.23268-1.96862,3.466-4.39535,2.80941q-5.772-1.55894-11.598-2.83783l-.08457-.01716q-3.0657-.6681-6.13846-1.262a.89978.89978,0,0,1-.54737-.4339q-3.66826-9.78137-7.35533-19.44808,0,7.87112-.01174,15.74222a2.96,2.96,0,0,0,1.34844,2.15257c.66716.57109,1.20983.97656,1.20983.97656v.03994q-3.59781-.6082-7.212-1.11353-4.23914-.59093-8.49-1.03341v-.03993a5.77443,5.77443,0,0,0,1.50818-.6566,1.78345,1.78345,0,0,0,.67186-1.79291c-.18087-1.02214-.32888-1.87865-.99839-2.35272-1.69613-1.199-4.339-1.72995-4.29435-2.35249.06343-.82222,3.08921-.70218,3.50737-1.89557a4.45849,4.45849,0,0,0,.03993-2.33533q-.77877-3.94843-1.55283-7.89708c0-.00563-3.404,16.14205-3.39929,16.14793a1.65314,1.65314,0,0,0,.41112,1.496s.343.35966.51448.51377a6.86325,6.86325,0,0,0,1.32024.89081v.03994q-3.77751-.35978-7.55973-.59952v-.04557a6.55934,6.55934,0,0,0,1.45417-.56545,4.55753,4.55753,0,0,0,.794-.51941,3.43047,3.43047,0,0,0,.93733-1.359c.02115-.08575.67423-3.20337.67423-3.21465.11275-1.04492-1.55987-.53115-1.10413-1.05643a11.54473,11.54473,0,0,0,2.11429-3.84282q1.258-6.03839,2.523-12.07088a1.63823,1.63823,0,0,0-.10336-.99912,2.94558,2.94558,0,0,0-.83867-1.09073c-.10336-.08552-1.52464-1.11916-1.52464-1.11916v-.02843q3.59077.29952,7.17211.70805Q172.13871,28.6042,173.634,36.11a3.83744,3.83744,0,0,0,2.19884,2.44975c.66247.21683-6.223,1.039-9.55184,1.456a53.25963,53.25963,0,0,1,7.12982.82787c1.13232.31972,1.38837,1.1706,1.69143,2.69523a18.643,18.643,0,0,0,.48392,2.01561,5.991,5.991,0,0,0,1.89582,2.30669h.007c.18323-.09139.39936-.19993.62724-.32537.61784-.33688,1.36019-.748,1.36019-1.73583q0-10.38921.01643-20.78429a2.911,2.911,0,0,0-1.35313-2.13542c-.66718-.55958-1.2169-.9479-1.2169-.9479v-.03994q3.08332.42814,6.15491.93639a.89885.89885,0,0,1,.69066.51377q3.66828,9.68691,7.32012,19.48825,0-7.89718.01878-15.79391a3.08311,3.08311,0,0,0-1.34843-2.19837c-.66247-.588-1.20514-1.00476-1.20514-1.00476v-.04017q3.55551.66811,7.08752,1.44476l.08458.01715q5.82485,1.276,11.60268,2.83783a5.998,5.998,0,0,1,4.39065,5.27607q-.0176,9.096-.02818,18.18608Z" fill="#3f3735"/><path d="M206.0952,30.14327q-1.7302-.46232-3.47213-.89645Q202.609,40.03,202.59488,50.819c1.16051.2913,2.314.58824,3.47213.89081a.813.813,0,0,0,1.11821-.73083q.01761-9.75564.03054-19.511a1.53392,1.53392,0,0,0-1.11352-1.33035Z" fill="#403736"/><path d="M154.35879,306.83589H131.30845l-.37117-1.06186c-16.89-48.04344-49.49973-78.96831-73.88112-96.4534C30.59056,190.34147,7.8193,182.65019,7.59073,182.575l-1.102-.36412.01151-1.16051c.66811-73.58889-.02278-134.41128-.0343-135.01667l-.01715-1.61014h46.9074L40.09753,32.95808l1.47319-1.19926c12.2708-9.96953,31.776-17.23255,57.97327-21.58938a308.45461,308.45461,0,0,1,41.5-3.91117V6.21833h3.575v.04558a308.34973,308.34973,0,0,1,41.49859,3.91141c26.19828,4.35659,45.70366,11.6196,57.97355,21.58937l1.47294,1.199L232.30518,44.42921H279.214l-.01879,1.61038c-.00469.60515-.69537,61.42755-.0329,135.01784l.01175,1.15816-1.10176.36647c-.23023.07283-22.994,7.76411-49.46709,26.74563-24.38,17.48273-56.9845,48.4076-73.87994,96.451l-.37116,1.06419Zm-20.80074-3.18083h18.55256c17.28775-48.26664,50.13895-79.363,74.74209-96.989,23.52489-16.85551,44.21193-24.93439,49.12411-26.72918-.58966-66.46283-.0799-122.27767.02818-132.33858H223.77056l16.82733-14.54906c-29.15123-22.0174-90.56163-23.542-97.58408-23.64492h-.34251c-7.01754.1029-68.43381,1.62752-97.58313,23.64492L61.91525,47.59829H9.68058c.10289,10.06091.61666,65.87575.023,132.33858,4.91053,1.79479,25.59757,9.87367,49.12268,26.72918,24.60409,17.626,57.45365,48.72237,74.74327,96.989Z" fill="#c8102e"/><path d="M248.0918,141.01346c-1.9193,2.01-3.86677,3.97415-5.79546,5.84129-.28659.27415-.56615.55393-.84571.83373-2.69454,2.68373-5.07192,5.04748-13.818,5.55V137.69029c0-7.27453.53092-15.37105,6.8855-19.40815,8.26213-5.24176,8.65683-5.49288,8.66855-5.49853l3.19022-2.02712-2.08373-3.15756-.33595-.50249a5.50108,5.50108,0,0,0-4.51751-2.30692h-6.39452c-2.99758,0-4.05941-1.18752-4.6937-2.9863-.09632-.34251-.17619-.63944-.2349-.942l-.02115-.10289a15.32158,15.32158,0,0,1-.27956-2.3297v-.07988c-.03054-.257-.05169-.50249-.07517-.75363-.06341-.66247-.1151-1.23919-.1151-1.90731V78.381c8.793.6566,11.894,3.66569,14.67073,6.35528,1.91693,1.85564,3.86444,3.8198,5.78844,5.83541a5.32181,5.32181,0,0,0,5.41255,1.422l4.198-1.262-7.83459-28.91534H187.91943L201.223,71.61461c2.274,1.73019,3.22076,2.72953,3.22076,4.43106l.41111,30.59384a14.55231,14.55231,0,0,0,3.404,9.26173c-2.42674,3.57431-3.39694,9.04441-3.404,17.94623l-.41111,21.63518v.06836c0,1.7074-.95847,2.71239-3.249,4.44821-.58259.43953-1.13.845-1.6327,1.199-.53091-.31408-1.10176-.66812-1.67262-1.06208-.17149-.1198-.35-.23985-.52622-.354-2.15187-1.46168-2.90126-2.07271-2.90126-4.22527V128.85142c0-4.43668-2.64754-9.77549-8.31382-13.42426a18.325,18.325,0,0,0,8.31382-15.5881V81.01328A19.20478,19.20478,0,0,0,175.2784,61.82785H86.40775s-35.3162,0-41.93977.01152l-23.30217-.01716L34.47,71.62613c2.27239,1.73018,3.22029,2.7293,3.22029,4.43106,0,0,.01151,21.05258.01151,21.69766,0,9.47854,7.16012,12.55059,12.3448,13.92089a118.48435,118.48435,0,0,0-14.28618,3.51745l-.03994.01714c-3.66028,1.32472-5.7842,2.87778-4.84217,3.7,1.1248.98784,2.52962,1.36465,4.30538,3.26608a11.34714,11.34714,0,0,1,2.42672,6.7321l.08551,26.65965c0,1.70152-.94766,2.70651-3.22592,4.43106L21.183,169.79772h56.323L64.213,159.99922c-2.00409-1.52463-3.22592-2.58671-3.22592-4.43106l-.0115-31.02775a3.46512,3.46512,0,0,1,2.35812-3.12913c6.33814-2.06706,16.66169-5.73275,17.71224-6.07549,1.21642-.394,5.8756-2.10113,6.32663-3.837.40547-1.56457-2.10111-2.86649-3.87688-3.75144A78.58517,78.58517,0,0,0,74,104.17287a64.51787,64.51787,0,0,1-7.57711-2.72931c-5.20747-2.59234-5.44168-3.77422-5.44731-5.98975v-17.187h6.98886c6.49225,0,10.04964,2.93485,13.70969,6.4866,1.9186,1.85564,3.8656,3.8198,5.78983,5.83542a5.31784,5.31784,0,0,0,5.413,1.42173L97.06819,90.743l-5.8185-21.46368c.71368.4797,1.91858,1.30756,3.272,2.3297,2.01559,1.5359,3.23742,2.60384,3.23742,4.45384v79.50534c0,1.7074-.95354,2.70651-3.22052,4.43106l-13.29269,9.7985h43.3615l.49661-9.1762q-.394-.29108-.80506-.59952c-2.28977-1.73582-3.2433-2.74081-3.2433-4.448V76.06846c0-1.713.95941-2.71215,3.23765-4.44233,2.15845-1.63881,3.94549-2.77511,3.96263-2.78075l.47408-.30258.47947.30258s1.80441,1.14194,3.95135,2.77511c2.02125,1.53026,3.24331,2.598,3.24331,4.448v36.17248c0,4.53372-2.7636,12.33941-3.59169,14.72033-.73085,2.09571-1.6273,4.87646-.98785,5.51591.77664.77641,3.37463-.42262,4.58516.82222v21.45217l.257-.034,15.51433,14.69258-.07986.39936h10.35056V159.64519c-1.917-1.50184-2.74621-2.4838-2.74621-4.05988v-35.019c.17149.02841.33828.04556.491.06836.48159.063,1.05713.14283,1.73136.24549l.10336.01715c3.37344.43976,9.176,4.73364,8.94575,8.18813v.11981l-.0047,30.36573a10.0839,10.0839,0,0,0,10.14149,10.23851h68.72347l7.83456-28.91581-4.191-1.26762a5.32049,5.32049,0,0,0-5.41256,1.42174ZM171.27536,97.13255c0,9.73555-6.11495,13.1386-11.44293,15.01725l-.09632.03406V78.24406h10.77812a3.34381,3.34381,0,0,1,.76113.07422Z" fill="#c8102e"/><path d="M124.90972,165.00066c-.75386-.51448-1.753-1.22253-2.84936-2.05039-2.14129-1.62165-4.71084-3.63162-4.71084-7.40584V76.03886c0-3.77423,2.56955-5.77833,4.70521-7.40562,2.32382-1.76448,4.21962-2.95787,4.21962-2.95787V65.5269H92.557v.14847s1.88994,1.199,4.214,2.95787c2.12979,1.62142,4.69935,3.63139,4.69935,7.40562v79.50557c0,3.76859-2.56956,5.77833-4.70522,7.40584-2.32382,1.76378-4.21963,2.95718-4.21963,2.95718v.148h32.30125l.05709-1.05478Z" fill="#cee5eb"/><path d="M44.44731,65.5323l-11.98538-.0115v.14846s1.90144,1.19927,4.214,2.95788c2.1413,1.62165,4.71085,3.63139,4.71085,7.40585,0,0,.01128,21.05821.01128,21.70354,0,8.8217,8.21679,10.04376,13.00164,11.11711,4.78484,1.07359,16.62738,2.05579,18.9343,2.30691-32.34705,4.63075-35.95566,7.39435-36.46966,7.55433-.50813.15974-.22271.35966.00587.4797,3.52286,1.79291,4.31665,6.38372,4.41931,9.62114l.08575,26.72825c0,3.76857-2.57519,5.77856-4.71061,7.40584-2.31843,1.76424-4.214,2.95764-4.214,2.95764v.148H66.17927v-.148s-1.90143-1.19809-4.21962-2.95764c-2.13543-1.62166-4.71062-3.63139-4.71062-7.40584l-.01151-31.02775a7.15773,7.15773,0,0,1,4.922-6.66351c6.3379-2.06705,16.66733-5.436,17.71789-5.77291,1.52463-.49663,2.40393-.99912,1.57021-1.53027-3.03188-1.93552-12.59617-3.76271-16.69576-5.807-5.573-2.77512-7.49159-4.90491-7.50287-9.31294V74.53114H67.955c8.09111,0,12.59617,3.95135,16.2905,7.53153,2.34685,2.26675,4.38527,4.35659,5.89838,5.93831a1.623,1.623,0,0,0,1.656.42827l.73671-.22272L86.38685,65.51516s-35.316,0-41.94541.01151Z" fill="#cee5eb"/><path d="M200.51585,166.05544H181.10208a6.401,6.401,0,0,1-6.42506-6.51973v-30.24c.39466-6.0069-7.5151-11.51131-12.17826-12.11646-3.56373-.56522-4.67256-.37117-1.86292-1.38743,2.84959-1.028,14.316-4.46537,14.316-18.66016V77.88909c0-1.48469-1.12056-3.35748-4.47756-3.35748H155.98209v81.01282c0,3.76859,2.57707,5.77833,4.71249,7.40584.639.48536,1.238.92488,1.7807,1.30757v1.7976H148.70193l-8.88961-8.41553a7.27977,7.27977,0,0,0,.30281-2.09548v-23.5479c0-4.69933-5.573-.89081-4.36833-3.37461,1.21053-2.49532,4.36833-11.00882,4.36833-16.41034V76.03886c0-3.76858-2.57519-5.77833-4.71086-7.40562-2.31817-1.76448-4.214-2.95787-4.214-2.95787V65.5269h44.05756A15.48917,15.48917,0,0,1,190.722,81.00084V99.8266c0,9.06744-6.909,13.56123-13.37163,15.87942,8.71318,2.14692,13.37163,8.17662,13.37163,13.13859v26.70547c0,4.55085,2.70158,6.04118,5.02965,7.63982a35.32869,35.32869,0,0,0,4.003,2.35813c.73061-.47925,2.09548-1.41024,3.65535-2.59211,2.14013-1.62165,4.71016-3.63162,4.71016-7.40584l.4111-21.66926c0-12.21935,1.971-16.09647,5.07191-18.15766a10.91667,10.91667,0,0,1-5.07191-9.113l-.4111-30.56543c0-3.76858-2.57473-5.77855-4.71016-7.40585-2.31866-1.76448-4.21446-2.95787-4.21446-2.95787v-.1426h47.79209l6.15022,22.68551-.73767.22269a1.62359,1.62359,0,0,1-1.64913-.42825c-1.51287-1.58735-3.552-3.67132-5.89884-5.93831-3.69292-3.58581-8.09533-7.53129-20.9666-7.53129V95.69837c0,1.12479.11513,1.99846.195,2.95763a18.207,18.207,0,0,0,.36412,2.94073c.09865.4797.21848.9021.33125,1.33035,1.34139,3.91141,4.23792,5.59015,8.24568,5.59015h6.39452a1.79845,1.79845,0,0,1,1.50348.76513l.249.37681s-.296.18841-8.66621,5.50441-8.61217,15.77651-8.61217,22.54292v19.36819h.01176l-.01176-.0115c14.464,0,17.27369-3.95135,20.969-7.5313,2.34684-2.267,4.3836-4.35682,5.89648-5.93854a1.63453,1.63453,0,0,1,1.65149-.4339l.73531.22271-6.14786,22.69208H200.52055" fill="#cee5eb"/><path d="M82.71623,179.26264a14.84631,14.84631,0,0,1,7.83974,1.3367l.13132.05169c2.68959,1.34139,6.43515,4.43763,8.27951,12.63163l.02866.11982c1.8157,6.91839,1.88429,13.71461.74212,14.82813H99.6577a2.31327,2.31327,0,0,1-1.87842-.6061c-1.29628-1.20983-1.51334-4.38594-1.52464-5.49711l.01716-6.71637a18.756,18.756,0,0,0-5.54435,4.37891c-.23421.26311-5.64159,6.53313-1.50748,16.37157l.01715.04462c3.29453,7.84634,3.35748,7.99433,4.802,16.16014a65.0111,65.0111,0,0,0,2.96352,11.76714,11.40914,11.40914,0,0,0-6.49788-.30774l.19968.26311c.354.39466,5.02494,6.62945,4.27108,14.01766-.15975,1.581-.57087,3.15734-.89059,4.837-1.44476,7.50334-3.07768,16.0051-1.49033,25.92811,1.9926,12.44133,8.35351,18.6268,8.59924,18.85937a20.98775,20.98775,0,0,0,8.77614,4.797,14.40317,14.40317,0,0,1,7.04594,4.339c1.81594,1.9146,11.26582,9.7022,20.98423,9.94653.91925.02348,1.79855.03524,2.64378.03524,9.95145,0,15.36636-1.61626,21.9488-4.65377,7.43991-3.43218,19.08254-10.68886,24.7864-14.42878,6.04683-3.96778,12.95583-9.63875,12.71621-18.35193a55.54791,55.54791,0,0,0-.61549-5.9106c-.8739-6.25827-1.46825-13.00752,1.50114-21.41765l3.75167-9.10078a49.8295,49.8295,0,0,0-8.09064,4.635,9.15384,9.15384,0,0,0-.97022.686c.11981-.99372.19263-1.88875.25606-2.68278.22787-2.78616.35473-4.32251,1.99916-7.00766,2.906-4.743,6.10322-11.23153,5.06487-19.38324a44.99774,44.99774,0,0,0-6.36867-17.74819c-1.0219-1.54579-2.9224-4.21446-4.595-6.566-1.21688-1.70786-2.72975-3.83153-2.98112-4.25439-.08458-.148-.21142-.33593-.36647-.5638-.89506-1.3132-3.07041-7.45871.303-16.132a20.76644,20.76644,0,0,0-6.3029,3.00934c-.32654.22316-7.212,5.07661-7.703,13.64179a61.45545,61.45545,0,0,0-6.45325-7.7782c-4.1158-4.39065-5.90354-6.52608-5.22931-11.10466.08456-.57791.17148-1.14875.25606-1.71256,1.41186-9.34277,2.74152-18.15838-4.90983-25.6213-2.73447-2.66658-6.76569-4.56238-11.03653-6.56649-7.395-3.47164-15.189-7.44015-18.912-15.79952,0,0-1.4504-3.52875-1.07923-6.201a8.97726,8.97726,0,0,0-4.46511,7.39433c-.05146.60538-1.97569,14.36629,13.64672,28.25874,7.314,6.5026,9.393,10.08982,9.84408,11.94569.33595,1.386-.09161,2.12837-1.50818,4.05941a5.36856,5.36856,0,0,1-3.72794,1.68438,7.19431,7.19431,0,0,1-5.34443-1.433,25.66481,25.66481,0,0,1-8.11954-13.55582c-2.60384-11.32855-14.7203-10.13515-15.02288-10.14642l-.2913.02842a18.32139,18.32139,0,0,1,4.87058,15.01231c-1.14194,9.03737,1.21055,13.33876,1.97569,14.457a46.15085,46.15085,0,0,0,9.64416,10.905c1.07335.85746,10.36349,8.57222,6.56061,15.09125-2.67785,4.59738-6.64072,4.151-7.263,4.05l-.22834-.03993a13.33418,13.33418,0,0,1-10.38651-9.95355c-.70217-2.62642-1.25612-5.00616-1.7471-7.11338-1.64443-7.08048-2.83218-12.197-7.33748-16.879-6.09805-6.3452-14.269-6.70462-20.76128-4.54571a9.41661,9.41661,0,0,0-5.24177,4.198Z" fill="#cee5eb"/><path d="M188.47384,279.51939s-.51446,4.47053-.85745,7.99433c-.34062,3.52379-3.34994,7.73591-3.34994,7.73591a6.25836,6.25836,0,0,1-6.19015,2.31865,18.28857,18.28857,0,0,0-10.313,1.75957s-13.83443,5.37729-19.85308,4.60208a23.02111,23.02111,0,0,1-10.22652-4.03829s-4.99628-4.635-5.43018-7.16976c-.43389-2.53714,1.18776-1.45649,3.55715-.86213a104.29,104.29,0,0,0,13.105,2.58646c3.93256.32419,14.50161.91852,21.19447-1.99447,6.68582-2.91065,7.33184-8.03425,7.33184-8.03425s.70242-5.772,2.4784-9.06088A32.30893,32.30893,0,0,1,189.033,264.4117a9.31993,9.31993,0,0,0,3.34525-6.418c.538-4.47759.11042-6.84793,2.75327-11.16339,2.64285-4.31786,5.49946-9.9747,4.58563-17.14681a41.51084,41.51084,0,0,0-5.82366-16.28466c-1.8911-2.86131-7.01236-9.86662-7.65839-10.94725-.646-1.07829-4.31547-5.22932-1.45651-12.61755,0,0-7.12042,4.90277-6.14785,13.37164.97023,8.46887,4.20742,17.84921-.27015,23.943,0,0,.76114-13.98948-5.60519-23.835-6.36867-9.84313-14.17273-12.3051-12.735-22.06836,1.44477-9.75857,3.14089-17.74092-3.64829-24.35862-6.78918-6.61791-25.46039-8.77635-30.55369-23.9362,0,0-1.102,13.07,13.41276,25.97462,14.51452,12.89991,11.625,16.80428,8.82711,20.62408-2.80259,3.81979-10.35739,4.24265-14.17177.76583A28.95774,28.95774,0,0,1,124.722,164.949c-1.53026-6.9602-6.19531-7.13169-6.19531-7.13169s3.64878,2.96939,2.54677,11.71029c-1.102,8.74372,1.44452,12.14066,1.44452,12.14066a42.60823,42.60823,0,0,0,8.91334,10.10156c5.51566,4.41179,11.54536,12.38966,7.38281,19.52183-4.15666,7.13216-10.95149,5.68741-10.95149,5.68741a16.79951,16.79951,0,0,1-13.24149-12.47659c-2.96915-11.11876-3.16908-17.22667-8.23372-22.49124-4.75078-4.94036-10.3865-6.9771-18.7971-4.29432,0,0,11.1514-1.79244,14.89157,14.81169,0,0,4.996,18.97447-2.59235,19.15772-7.58861.18087-6.43515-9.59413-6.43515-9.59413s-4.24829,4.79706-.908,12.75145c3.34034,7.952,3.5231,8.37488,5.03621,16.93536,1.51877,8.55814,3.24895,15.91817,10.97451,23.42151a23.86791,23.86791,0,0,1,6.37809,7.83459c1.7586,3.82447,5.47575,9.25585,7.49135,12.30508s.73672,3.34529.05145,3.54025c0,0-5.42452,1.36961-12.68755-5.50417,0,0,2.461,5.36559,10.729,12.29336,8.27365,6.93013,9.72405,13.47032,9.72405,13.47032s2.13565,9.05379-.611,12.62458c-2.74646,3.56842-4.48228,2.47136-5.94958.54737-1.4619-1.924-7.13757-9.88308-9.79264-13.54313s-10.52347-14.09286-10.9804-22.87415c-.45667-8.78365,1.64469-17.0223-1.1875-22.87414-2.83783-5.85891-5.58429-5.48773-5.58429-5.48773S99.981,250.00407,98.519,258.6961c-1.46167,8.6897-4.20812,18.20862-2.38092,29.64455,1.82721,11.43822,7.59426,16.93067,7.59426,16.93067a17.77849,17.77849,0,0,0,7.22871,3.93488,17.6875,17.6875,0,0,1,8.69063,5.30452c1.73582,1.83237,10.43209,8.66618,18.57441,8.8729,10.706.27487,15.91887-1.00544,23.05574-4.299,7.13922-3.29593,18.4835-10.34116,24.34239-14.18445s11.34664-8.59808,11.16339-15.37081-3.97485-17.01523,1.73607-28.9163c0,0-7.31542,4.30141-10.06632,18.91106Zm-5.33971-25.84355c6.0257-4.81819,6.54485-12.91589,6.54485-12.91589.94673,2.37035.08458,7.53155-1.292,10.88856-1.37428,3.357-3.18552,5.76728-11.0201,10.84859-7.83223,5.08367-11.53927,16.3152-11.53927,16.3152,1.98273-16.83436,11.27851-20.32292,17.30656-25.14115Zm-70.4943-7.14391c-1.18187-9.18064,11.54562-13.83911,11.54562-13.83911-8.72492-.195-15.67973,7.54091-15.67973,7.54091-1.70716-15.94165-6.22937-18.95567-6.22937-18.95567,3.31168,1.41656,7.33139,6.909,7.33139,6.909a4.47122,4.47122,0,0,0,5.12195,1.19808c2.95765-1.35783,1.75862-5.92,1.75862-5.92,4.08267,4.88164,23.36512,10.16262,31.84478.8786,8.47826-9.27935,2.4831-22.355,2.4831-22.355,10.69591,12.52827,7.28017,22.04017,6.09852,24.92969s2.1002,3.73993,2.1002,3.73993c4.46111,1.77129,9.97,4.6608,9.97,4.6608l-2.6264,5.05313a84.985,84.985,0,0,1,14.17271,7.28016c-7.28016,4.45877-19.21879,12.65748-19.21879,12.65748,1.96862-6.75394-.13156-10.562-.13156-10.562-1.83941-3.87147-10.10156-5.83539-10.10156-5.83539-1.83941-10.49623-12.92175-9.38271-12.92175-9.38271,6.492,3.21606,6.36044,7.41172,6.36044,7.41172s-2.75748-3.014-6.0978-3.60836c-3.346-.5873-6.49225,2.032-6.49225,2.032-.91924-1.574.71955-3.93255.71955-3.93255-2.49531,0-6.16665,2.55829-4.85343,6.35929,1.3132,3.80336,8.65632,5.11657,8.65632,5.11657a14.62262,14.62262,0,0,1-9.57557-1.96866c-4.52808-2.8848-2.23268-8.65679-2.23268-8.65679-3.73992,2.42674-6.33814,3.83627-5.77269,8.72494.46821,4.0641,6.69194,8.39838,12.72749,10.49386,6.03533,2.10254,20.79559,4.32957,20.79559,4.32957-16.46742.65545-25.51771-2.36565-25.51771-2.36565s-13.05308-2.758-14.235-11.93863Zm14.22347,21.44819c-1.51311-2.43375-4.214-5.93407-4.5565-6.36161,0,0-.4339-.59905-.19429-.86686.23422-.27017.55958-.15034.91361.09162a16.12484,16.12484,0,0,0,3.75144,1.89346,75.98709,75.98709,0,0,0,12.899,2.75325c5.33244.42757,6.53758,2.41028,6.53758,3.95606,0,1.54812.343,6.9677-1.7196,12.21346-2.06026,5.24813-5.41773,2.58177-5.41773,2.58177s-2.97478-1.75953-6.18943-6.65763c-2.35836-3.5919-4.311-6.84557-6.0184-9.59882Z" fill="#c8102e"/></svg>