<?xml version="1.0" encoding="UTF-8" standalone="no"?><svg xmlns:rdf="http://www.w3.org/1999/02/22-rdf-syntax-ns#" xmlns="http://www.w3.org/2000/svg" height="268.53175" width="368.58528" version="1.1" xmlns:cc="http://creativecommons.org/ns#" xmlns:dc="http://purl.org/dc/elements/1.1/" viewBox="0 0 368.58528 268.53175"><path d="M24.835,213.6795H36.35318l10.3343-24.32295h13.4634l3.865-9.12312H23.35046l-3.865,9.12312H35.16933Z" fill="#441e36"/><path d="M109.66582,213.6795l3.87149-9.12542h12.68257l3.51939,9.12542h11.23017l-3.58975-9.31062a10.88415,10.88415,0,0,0,4.49837-1.75241,12.16889,12.16889,0,0,0,4.3002-5.37526l2.57862-5.92623a9.63532,9.63532,0,0,0,.85768-3.81962,6.62187,6.62187,0,0,0-2.342-5.23406,9.20418,9.20418,0,0,0-6.25817-2.02787H112.3405L98.14766,213.6795Zm25.135-24.32295a3.05313,3.05313,0,0,1,1.76606.43059,1.41634,1.41634,0,0,1,.62086,1.24079,2.35736,2.35736,0,0,1-.23682,1.04867l-.71669,1.62508a3.71215,3.71215,0,0,1-3.77543,2.20149H117.2037l2.77722-6.54662Z" fill="#441e36"/><path d="M201.40807,213.6795l10.07227-23.67476,6.6994,23.67476h15.04935l14.23913-33.44607H235.94914l-10.09772,23.7257-5.04886-18.23006a20.0727,20.0727,0,0,0-1.17137-3.29415,3.56644,3.56644,0,0,0-1.72-1.65286,8.23556,8.23556,0,0,0-3.36591-.54863H204.12812L189.889,213.6795Z" fill="#441e36"/><path d="M261.30686,189.35655,250.973,213.6795h11.51216L272.819,189.35655h13.46362l3.87288-9.12312H249.48915l-3.87057,9.12312Z" fill="#441e36"/><path d="M105.7624,187.11108a6.07807,6.07807,0,0,0-2.38671-4.96553,9.88431,9.88431,0,0,0-6.35424-1.91212H73.42214a11.6031,11.6031,0,0,0-6.59083,1.91212,11.81885,11.81885,0,0,0-4.34489,5.40073l-6.59084,15.52391a9.43558,9.43558,0,0,0-.81277,3.72471,6.05118,6.05118,0,0,0,2.38692,4.96553,9.88357,9.88357,0,0,0,6.354,1.91214H87.42306a11.63938,11.63938,0,0,0,6.64223-1.88667,11.88078,11.88078,0,0,0,4.3-5.41926l6.59107-15.52389a9.44783,9.44783,0,0,0,.81255-3.72473Zm-12.85528,4.97246-4.34488,10.27133c-.6079,1.46537-1.86214,2.19455-3.77543,2.19455H70.07567a3.05389,3.05389,0,0,1-1.76628-.43056,1.367,1.367,0,0,1-.62063-1.19451,2.424,2.424,0,0,1,.23681-1.10191l4.34489-10.269a3.70345,3.70345,0,0,1,3.77542-2.19688H90.757a2.97484,2.97484,0,0,1,1.76606.45605,1.42713,1.42713,0,0,1,.62063,1.21533,2.97514,2.97514,0,0,1-.23659,1.04867Z" fill="#441e36"/><path d="M196.46106,187.11108a6.08123,6.08123,0,0,0-2.38668-4.96553,9.8819,9.8819,0,0,0-6.35447-1.91212H164.12082a11.6032,11.6032,0,0,0-6.59084,1.91212,11.81891,11.81891,0,0,0-4.34489,5.40073l-6.59083,15.52391a9.43556,9.43556,0,0,0-.81276,3.72471,6.0516,6.0516,0,0,0,2.38668,4.96553,9.88424,9.88424,0,0,0,6.35424,1.91214h23.59933a11.6381,11.6381,0,0,0,6.642-1.88667,11.89036,11.89036,0,0,0,4.30113-5.41926l6.5906-15.52389a9.44381,9.44381,0,0,0,.81255-3.72473Zm-12.849,4.96552L179.26716,202.348c-.60789,1.46533-1.86212,2.19454-3.77541,2.19454H160.7806a3.072,3.072,0,0,1-1.766-.42825,1.37331,1.37331,0,0,1-.62088-1.19682,2.43086,2.43086,0,0,1,.23683-1.10193l4.34489-10.269a3.702,3.702,0,0,1,3.77541-2.19457H181.462a2.97437,2.97437,0,0,1,1.766.45372,1.4274,1.4274,0,0,1,.62088,1.21535,2.95545,2.95545,0,0,1-.23683,1.04867Z" fill="#441e36"/><path d="M331.99089,187.11108a6.08128,6.08128,0,0,0-2.38667-4.96553,9.882,9.882,0,0,0-6.35451-1.91212H299.65133a11.6088,11.6088,0,0,0-6.5929,1.91212,11.812,11.812,0,0,0-4.34282,5.40073l-6.5929,15.52391a9.43515,9.43515,0,0,0-.81254,3.72471,6.05293,6.05293,0,0,0,2.38667,4.96553,9.89075,9.89075,0,0,0,6.35451,1.91214H313.652a11.63974,11.63974,0,0,0,6.64154-1.88667,11.8712,11.8712,0,0,0,4.29881-5.41926l6.59293-15.52389a9.44379,9.44379,0,0,0,.81254-3.72473Zm-12.85016,4.96552L314.79561,202.348q-.90975,2.198-3.77335,2.19454H296.3109a3.0734,3.0734,0,0,1-1.76629-.42825,1.3714,1.3714,0,0,1-.62041-1.19682,2.43371,2.43371,0,0,1,.23613-1.10193l4.34512-10.269a3.70043,3.70043,0,0,1,3.77564-2.19457h14.7114a2.97722,2.97722,0,0,1,1.76629.45372,1.43087,1.43087,0,0,1,.62038,1.21535,2.96727,2.96727,0,0,1-.23843,1.04867Z" fill="#441e36"/><path d="M55.59394,235.27549,60.88587,222.798H5.29193L0,235.27549H21.443L7.3205,268.5248H23.06179l14.12894-33.24931Z" fill="#441e36"/><path d="M66.42735,256.04733l2.38044-5.54886h31.86037l4.37683-10.32H73.22953l2.09872-4.903h36.50619l5.29171-12.47746H64.802L45.40038,268.5248H98.0509l5.29192-12.47747Z" fill="#441e36"/><path d="M146.40792,268.5248l27.24022-34.879-14.82643,34.879h15.74152L194.02809,222.798H172.605a13.67244,13.67244,0,0,0-11.62673,5.88223l-17.42447,23.99422,1.35655-21.57745q.25938-4.3752-1.69568-6.33363-1.95807-1.95842-6.00862-1.95845h-15.7413l-19.46554,45.7268h15.74128l14.17362-33.3836-2.02208,33.3836h16.52859Z" fill="#441e36"/><path d="M247.64646,237.95153a13.35056,13.35056,0,0,0,1.176-5.29192,8.98569,8.98569,0,0,0-3.16683-7.123q-3.16681-2.74321-8.58839-2.74551H197.87549l-19.40258,45.7268h15.74038l4.74328-11.17185h29.75377a15.81759,15.81759,0,0,0,9.08147-2.61126,16.39615,16.39615,0,0,0,5.87993-7.38459l3.9863-9.40557Zm-16.13273,1.04867-1.24081,2.87282q-1.30561,3.00714-5.16461,3.00712H204.24154l4.07659-9.60465h20.251a4.39654,4.39654,0,0,1,2.4515.59032,1.85228,1.85228,0,0,1,.88431,1.632A4.01744,4.01744,0,0,1,231.51373,239.0002Z" fill="#441e36"/><path d="M309.27914,225.40924a13.51684,13.51684,0,0,0-8.68794-2.61121H268.32109a15.89579,15.89579,0,0,0-9.01662,2.61121,16.23021,16.23021,0,0,0-5.94476,7.38463l-9.01664,21.23252a12.95537,12.95537,0,0,0-1.10655,5.09288,8.29032,8.29032,0,0,0,3.26406,6.79431,13.50318,13.50318,0,0,0,8.68328,2.61122H287.454a15.93143,15.93143,0,0,0,9.07915-2.57883,16.13927,16.13927,0,0,0,5.87994-7.41473l9.01666-21.23252a12.91026,12.91026,0,0,0,1.11345-5.09283A8.3131,8.3131,0,0,0,309.27914,225.40924Zm-14.30627,13.591-5.94473,14.047q-1.23968,3.00358-5.15765,3.00708H263.75142a4.22864,4.22864,0,0,1-2.4191-.59032,1.87232,1.87232,0,0,1-.845-1.6297,3.33081,3.33081,0,0,1,.32642-1.50469l5.94472-14.04467q1.30565-3.00714,5.16462-3.00942h20.11907a4.05016,4.05016,0,0,1,2.41909.62271,1.972,1.972,0,0,1,.84956,1.66213,4.18469,4.18469,0,0,1-.32639,1.43987Z" fill="#441e36"/><path d="M283.12274,171.101a85.54615,85.54615,0,0,0,76.22367-46.66712c-.0324.02547-28.71207,22.696-76.22367,22.696-37.6963,0-63.54248-14.26875-72.62163-20.17483a15.5273,15.5273,0,0,0-8.47958-2.51495H147.97a84.47527,84.47527,0,0,0,4.51133,7.77469H43.71859l-3.302,7.77585H211.83684a11.62292,11.62292,0,0,1,8.52356,3.69694,86.1086,86.1086,0,0,0,13.56086,11.85244H174.9864A85.43266,85.43266,0,0,0,188.5,163.3136H30.51122l-3.302,7.77585h255.9066Z" fill="#441e36"/><path d="M189.32647,93.32868H138.986q.35521,3.945,1.06209,7.77468H56.926l-3.30179,7.77469H195.07905a15.54923,15.54923,0,0,1,9.70187,3.39786c10.10931,8.06267,38.80284,27.7009,78.34182,27.7009s67.7904-19.33753,78.10571-27.51547a15.55035,15.55035,0,0,0,5.54656-8.90716,85.66945,85.66945,0,0,0,1.81027-14.10973H299.3828l3.31267-7.79389h65.88981A85.666,85.666,0,0,0,366.775,67.54083a15.50734,15.50734,0,0,0-5.54656-8.90739C350.90618,50.45573,322.36081,31.118,283.12274,31.118S214.97356,50.70527,204.818,58.78715a15.71028,15.71028,0,0,1-9.79677,3.42981H73.42885l-3.30178,7.77469h69.921c-.46693,2.55313-.82528,5.15117-1.06209,7.77468h50.34045a12.82057,12.82057,0,0,1,6.77578,1.939,12.82852,12.82852,0,0,0,6.77812,1.93875h64.33419l-3.315,7.7939H202.87343a12.82058,12.82058,0,0,0-6.7758,1.939,12.82843,12.82843,0,0,1-6.77812,1.93876Zm88.32378-18.60832h-27.925l6.89154-16.24688h72.39246l-6.89155,16.24688H298.1536l-18.39676,43.29541H259.25353Z" fill="#441e36"/><path d="M86.63621,31.11172l-3.30178,7.77469h69.14044a85.96,85.96,0,0,0-4.5111,7.77469h54.05081a15.51,15.51,0,0,0,8.47959-2.51471c9.07915-5.90631,34.92533-20.176,72.62164-20.176,47.51161,0,76.19125,22.67149,76.22367,22.69719A85.54621,85.54621,0,0,0,283.11581,0H99.84358L96.54179,7.77469H188.5a86.14844,86.14844,0,0,0-13.51364,7.77469h58.93486A86.39489,86.39489,0,0,0,220.3604,27.40019a11.6175,11.6175,0,0,1-8.52356,3.69856H86.63621Z" fill="#441e36"/></svg>